<?xml version="1.0" encoding="UTF-8" standalone="no"?>
<svg width="211px" height="144px" viewBox="0 0 211 144" version="1.1" xmlns="http://www.w3.org/2000/svg" xmlns:xlink="http://www.w3.org/1999/xlink">
    <!-- Generator: Sketch 3.7.1 (28215) - http://www.bohemiancoding.com/sketch -->
    <title>advanced-positioning</title>
    <desc>Created with Sketch.</desc>
    <defs></defs>
    <g id="Page-1" stroke="none" stroke-width="1" fill="none" fill-rule="evenodd">
        <g id="advanced-positioning">
            <ellipse id="Oval-12" fill-opacity="0.15" fill="#5D6063" cx="181.62531" cy="52.1674575" rx="8.09611554" ry="3.37702562"></ellipse>
            <path d="M125.316505,58.6674664 C133.394307,41.0018835 156.472071,36.7120688 156.472071,36.7120688 L176.997531,21.9351411" id="Path-435" stroke="#5D6063" stroke-width="2" stroke-linejoin="round"></path>
            <path d="M156.738274,37.405454 L182.164194,45.7035924" id="Path-436" stroke="#5D6063" stroke-width="2" stroke-linejoin="round"></path>
            <path d="M14.1356687,100.291469 L74.6501219,135.370362 C74.6501219,135.370362 77.5649713,137.207612 80.6191473,137.154482 C83.6733232,137.101353 86.5728549,135.162957 86.5728549,135.162957 L163.381844,89.8712526 C163.381844,89.8712526 166.062914,88.622225 165.850021,87.1124619 C165.637129,85.6026987 162.5901,84.2564626 162.5901,84.2564626 L101.418851,49.0104689 C101.418851,49.0104689 99.4747871,47.8298007 97.2950617,47.8641693 C95.1153364,47.8985379 92.9323664,49.1442787 92.9323664,49.1442787 L15.1232254,93.9358855 C15.1232254,93.9358855 12.5950194,95.3201015 12.1911126,97.2389551 C11.7872058,99.1578088 14.1356687,100.291469 14.1356687,100.291469 Z" id="Path-43" fill-opacity="0.15" fill="#5D6063"></path>
            <path d="M13.953039,96.0460991 L74.4674922,131.124992 C74.4674922,131.124992 77.3823416,132.962242 80.4365176,132.909112 C83.4906935,132.855983 86.3902252,130.917587 86.3902252,130.917587 L163.381844,84.8712526 C163.381844,84.8712526 165.753856,83.4968758 165.850021,82.1124619 C165.946187,80.728048 165.760418,76.3809819 165.760418,76.3809819 L101.418851,44.0104689 C101.418851,44.0104689 99.4747871,42.8298007 97.2950617,42.8641693 C95.1153364,42.8985379 92.9323664,44.1442787 92.9323664,44.1442787 L11.9536814,87.5991566 C11.9536814,87.5991566 11.9218208,91.1971082 12.0084829,92.993585 C12.095145,94.7900617 13.953039,96.0460991 13.953039,96.0460991 Z" id="Path-43" stroke="#5D6063" stroke-width="2" stroke-linecap="round" stroke-linejoin="round" fill="#FFFFFF"></path>
            <path d="M13.9070291,90.2922156 L74.4214823,125.371108 C74.4214823,125.371108 77.3363317,127.208358 80.3905076,127.155229 C83.4446835,127.102099 86.3442153,125.163703 86.3442153,125.163703 L163.381844,78.8712526 C163.381844,78.8712526 166.062914,77.622225 165.850021,76.1124619 C165.637129,74.6026987 162.5901,73.2564626 162.5901,73.2564626 L101.418851,38.0104689 C101.418851,38.0104689 99.4747871,36.8298007 97.2950617,36.8641693 C95.1153364,36.8985379 92.9323664,38.1442787 92.9323664,38.1442787 L14.8945858,83.9366319 C14.8945858,83.9366319 12.3663797,85.3208478 11.9624729,87.2397015 C11.5585662,89.1585552 13.9070291,90.2922156 13.9070291,90.2922156 Z" id="Path-43" stroke="#5D6063" stroke-width="2" stroke-linejoin="round" fill="#FFFFFF"></path>
            <path id="Path-380" stroke="#979797"></path>
            <ellipse id="Oval-12" fill-opacity="0.15" fill="#5D6063" cx="156.122401" cy="43.9035884" rx="8.09611554" ry="3.37702562"></ellipse>
            <ellipse id="Oval-12" fill-opacity="0.15" fill="#5D6063" cx="176.5171" cy="28.3417096" rx="8.09611554" ry="3.37702562"></ellipse>
            <g id="Oval-1-+-Path-432" transform="translate(173.943268, 37.757065)" stroke="#5D6063" fill="#FFFFFF" stroke-linecap="round" stroke-linejoin="round">
                <circle id="Oval-1" stroke-width="2" cx="7.6922658" cy="7.24516037" r="6.94544724"></circle>
                <path d="M6.50467797,2.7137447 C5.52133268,2.5918005 3.62300672,3.92659584 3.48077557,5.59028497" id="Path-432"></path>
            </g>
            <g id="Oval-1-+-Path-432" transform="translate(148.528841, 29.492004)" stroke="#5D6063" fill="#FFFFFF" stroke-linecap="round" stroke-linejoin="round">
                <circle id="Oval-1" stroke-width="2" cx="7.6922658" cy="7.24516037" r="6.94544724"></circle>
                <path d="M6.50467797,2.7137447 C5.52133268,2.5918005 3.62300672,3.92659584 3.48077557,5.59028497" id="Path-432"></path>
            </g>
            <g id="Oval-1-+-Path-432" transform="translate(168.677899, 14.243284)" stroke="#5D6063" fill="#FFFFFF" stroke-linecap="round" stroke-linejoin="round">
                <circle id="Oval-1" stroke-width="2" cx="7.6922658" cy="7.24516037" r="6.94544724"></circle>
                <path d="M6.50467797,2.7137447 C5.52133268,2.5918005 3.62300672,3.92659584 3.48077557,5.59028497" id="Path-432"></path>
            </g>
            <g id="Group-2" transform="translate(49.406327, 32.598757)">
                <path d="M3.2240165,42.9247722 L18.7220299,51.6934776 C18.7220299,51.6934776 21.6368793,53.5307278 24.6910552,53.4775981 C27.7452311,53.4244684 30.6447629,51.4860727 30.6447629,51.4860727 L69.6309882,28.4289143 C69.6309882,28.4289143 72.3120579,27.1798867 72.0991654,25.6701236 C71.886273,24.1603605 68.839244,22.8141243 68.839244,22.8141243 L51.8351839,13.4503996 C51.8351839,13.4503996 49.8911201,12.2697314 47.7113947,12.3041 C45.5316694,12.3384686 43.3486994,13.5842094 43.3486994,13.5842094 L4.21157325,36.5691885 C4.21157325,36.5691885 1.68336715,37.9534044 1.27946039,39.8722581 C0.87555363,41.7911118 3.2240165,42.9247722 3.2240165,42.9247722 Z" id="Path-43" fill-opacity="0.15" fill="#5D6063"></path>
                <g id="Group" transform="translate(0.849173, 0.653660)" stroke="#5D6063" stroke-linejoin="round">
                    <path d="M2.72039592,36.7227197 L17.7937276,45.1422522 C17.7937276,45.1422522 20.708577,46.9795024 23.7627529,46.9263727 C26.8169288,46.8732431 29.7164606,44.9348474 29.7164606,44.9348474 L68.8171873,21.777473 C68.8171873,21.777473 71.2613302,20.4501941 71.2853646,19.0186823 C71.3093989,17.5871706 71.2552067,14.9230262 71.2552067,14.9230262 L51.0213831,6.79895834 C51.0213831,6.79895834 49.0773192,5.61829014 46.8975939,5.65265874 C44.7178685,5.68702735 42.5348985,6.93276815 42.5348985,6.93276815 L0.758927516,29.1637201 C0.758927516,29.1637201 0.76087585,31.7409156 0.775839809,33.6702056 C0.7908324,35.603187 2.72039592,36.7227197 2.72039592,36.7227197 Z" id="Path-43" stroke-width="2" fill="#FFFFFF"></path>
                    <path d="M2.78859198,31.3200763 L17.8438866,39.6563399 C17.8438866,39.6563399 20.7587361,41.4935901 23.812912,41.4404604 C26.8670879,41.3873307 29.7666196,39.448935 29.7666196,39.448935 L68.8171873,16.777473 C68.8171873,16.777473 71.498257,15.5284455 71.2853646,14.0186823 C71.0724721,12.5089192 68.0254431,11.1626831 68.0254431,11.1626831 L51.0213831,1.79895834 C51.0213831,1.79895834 49.0773192,0.618290138 46.8975939,0.652658745 C44.7178685,0.687027351 42.5348985,1.93276815 42.5348985,1.93276815 L3.77614873,24.9644925 C3.77614873,24.9644925 1.24794264,26.3487085 0.844035874,28.2675622 C0.440129113,30.1864158 2.78859198,31.3200763 2.78859198,31.3200763 Z" id="Path-43" stroke-width="2" fill="#FFFFFF"></path>
                    <path d="M32.4474058,11.4640201 L42.1936273,5.54985137 C42.1936273,5.54985137 44.6228198,3.82892444 46.5918094,3.82892444 C48.5607991,3.82892444 50.8118071,5.28348236 50.8118071,5.28348236 L58.1273523,9.43554856" id="Path-255" stroke-linecap="round"></path>
                </g>
            </g>
            <g id="Group-Copy" transform="translate(25.188327, 64.984271)">
                <path d="M2.94428087,24.9099238 L18.8981084,33.9140913 C18.8981084,33.9140913 21.8129578,35.7513415 24.8671337,35.6982118 C27.9213096,35.6450822 30.8208414,33.7066865 30.8208414,33.7066865 L41.8171873,26.777473 C41.8171873,26.777473 44.498257,25.5284455 44.2853646,24.0186823 C44.0724721,22.5089192 41.0254431,21.1626831 41.0254431,21.1626831 L24.0213831,11.7989583 C24.0213831,11.7989583 22.0773192,10.6182901 19.8975939,10.6526587 C17.7178685,10.6870274 15.5348985,11.9327682 15.5348985,11.9327682 L3.93183762,18.5543401 C3.93183762,18.5543401 1.40363153,19.938556 0.999724767,21.8574097 C0.595818005,23.7762634 2.94428087,24.9099238 2.94428087,24.9099238 Z" id="Path-43" fill-opacity="0.15" fill="#5D6063"></path>
                <path d="M3.06314832,20.0844941 L18.8981084,28.9140913 C18.8981084,28.9140913 21.8129578,30.7513415 24.8671337,30.6982118 C27.9213096,30.6450822 30.8208414,28.7066865 30.8208414,28.7066865 L41.8171873,21.777473 C41.8171873,21.777473 44.2613302,20.4501941 44.2853646,19.0186823 C44.3093989,17.5871706 44.2552067,14.9230262 44.2552067,14.9230262 L24.0213831,6.79895834 C24.0213831,6.79895834 22.0773192,5.61829014 19.8975939,5.65265874 C17.7178685,5.68702735 15.5348985,6.93276815 15.5348985,6.93276815 L1.10167992,12.5254945 C1.10167992,12.5254945 1.10362826,15.10269 1.11859222,17.03198 C1.13358481,18.9649615 3.06314832,20.0844941 3.06314832,20.0844941 Z" id="Path-43" stroke="#5D6063" stroke-width="2" stroke-linejoin="round" fill="#FFFFFF"></path>
                <path d="M3.15975369,14.9662967 L18.8981084,23.9140913 C18.8981084,23.9140913 21.8129578,25.7513415 24.8671337,25.6982118 C27.9213096,25.6450822 30.8208414,23.7066865 30.8208414,23.7066865 L41.8171873,16.777473 C41.8171873,16.777473 44.498257,15.5284455 44.2853646,14.0186823 C44.0724721,12.5089192 41.0254431,11.1626831 41.0254431,11.1626831 L24.0213831,1.79895834 C24.0213831,1.79895834 22.0773192,0.618290138 19.8975939,0.652658745 C17.7178685,0.687027351 15.5348985,1.93276815 15.5348985,1.93276815 L4.14731044,8.61071296 C4.14731044,8.61071296 1.61910434,9.99492891 1.21519758,11.9137826 C0.811290817,13.8326363 3.15975369,14.9662967 3.15975369,14.9662967 Z" id="Path-43" stroke="#5D6063" stroke-width="2" stroke-linejoin="round" fill="#FFFFFF"></path>
                <path d="M9.50263322,9.1397702 L15.6347936,5.42115093 C15.6347936,5.42115093 18.0490933,3.71611541 19.9037492,3.71611541 C21.7584051,3.71611541 23.733394,5.06078868 23.733394,5.06078868 L31.0374147,9.18776412" id="Path-255" stroke="#5D6063" stroke-linecap="round" stroke-linejoin="round"></path>
            </g>
            <g id="Group-Copy" transform="translate(125.222159, 60.152682)">
                <path d="M15.9885068,31.4145293 C13.1610651,31.2489043 10.6133022,29.6430313 10.6133022,29.6430313 L2.94428087,24.9099238 C2.94428087,24.9099238 0.595818005,23.7762634 0.999724767,21.8574097 C1.40363153,19.938556 3.93183762,18.5543401 3.93183762,18.5543401 L15.5348985,11.9327682 C15.5348985,11.9327682 17.7178685,10.6870274 19.8975939,10.6526587 C22.0773192,10.6182901 24.0213831,11.7989583 24.0213831,11.7989583 L32.7406369,16.891623 C32.7406369,16.891623 35.7876659,18.2378592 36.0005583,19.7476223 C36.0978038,20.4372549 35.5912246,21.0724852 35.012163,21.5591213 L39.4669385,23.9891504 L15.9773022,37.87322 L15.9773022,31.4188746 C15.9773022,31.4188746 15.9810951,31.4174163 15.9885068,31.4145293 Z" id="Path-43" fill-opacity="0.15" fill="#5D6063"></path>
                <path d="M3.06314832,20.0844941 L18.8981084,28.9140913 C18.8981084,28.9140913 21.8129578,30.7513415 24.8671337,30.6982118 C27.9213096,30.6450822 30.8208414,28.7066865 30.8208414,28.7066865 L41.8171873,21.777473 C41.8171873,21.777473 44.2613302,20.4501941 44.2853646,19.0186823 C44.3093989,17.5871706 44.2552067,14.9230262 44.2552067,14.9230262 L24.0213831,6.79895834 C24.0213831,6.79895834 22.0773192,5.61829014 19.8975939,5.65265874 C17.7178685,5.68702735 15.5348985,6.93276815 15.5348985,6.93276815 L1.10167992,12.5254945 C1.10167992,12.5254945 1.10362826,15.10269 1.11859222,17.03198 C1.13358481,18.9649615 3.06314832,20.0844941 3.06314832,20.0844941 Z" id="Path-43" stroke="#5D6063" stroke-width="2" stroke-linejoin="round" fill="#B2D6FF"></path>
                <path d="M3.15975369,14.9662967 L18.8981084,23.9140913 C18.8981084,23.9140913 21.8129578,25.7513415 24.8671337,25.6982118 C27.9213096,25.6450822 30.8208414,23.7066865 30.8208414,23.7066865 L41.8171873,16.777473 C41.8171873,16.777473 44.498257,15.5284455 44.2853646,14.0186823 C44.0724721,12.5089192 41.0254431,11.1626831 41.0254431,11.1626831 L24.0213831,1.79895834 C24.0213831,1.79895834 22.0773192,0.618290138 19.8975939,0.652658745 C17.7178685,0.687027351 15.5348985,1.93276815 15.5348985,1.93276815 L4.14731044,8.61071296 C4.14731044,8.61071296 1.61910434,9.99492891 1.21519758,11.9137826 C0.811290817,13.8326363 3.15975369,14.9662967 3.15975369,14.9662967 Z" id="Path-43" stroke="#5D6063" stroke-width="2" stroke-linejoin="round" fill="#B2D6FF"></path>
                <path d="M9.50263322,9.1397702 L15.6347936,5.42115093 C15.6347936,5.42115093 18.0490933,3.71611541 19.9037492,3.71611541 C21.7584051,3.71611541 23.733394,5.06078868 23.733394,5.06078868 L31.0374147,9.18776412" id="Path-255" stroke="#5D6063" stroke-linecap="round" stroke-linejoin="round"></path>
            </g>
            <g id="Group-2" transform="translate(54.454771, 65.464553)">
                <path d="M3.2240165,42.9247722 L18.7220299,51.6934776 C18.7220299,51.6934776 21.6368793,53.5307278 24.6910552,53.4775981 C27.7452311,53.4244684 30.6447629,51.4860727 30.6447629,51.4860727 L69.6309882,28.4289143 C69.6309882,28.4289143 72.3120579,27.1798867 72.0991654,25.6701236 C71.886273,24.1603605 68.839244,22.8141243 68.839244,22.8141243 L51.8351839,13.4503996 C51.8351839,13.4503996 49.8911201,12.2697314 47.7113947,12.3041 C45.5316694,12.3384686 43.3486994,13.5842094 43.3486994,13.5842094 L4.21157325,36.5691885 C4.21157325,36.5691885 1.68336715,37.9534044 1.27946039,39.8722581 C0.87555363,41.7911118 3.2240165,42.9247722 3.2240165,42.9247722 Z" id="Path-43" fill-opacity="0.15" fill="#5D6063"></path>
                <g id="Group" transform="translate(0.849173, 0.653660)" stroke="#5D6063" stroke-linejoin="round">
                    <path d="M2.72039592,36.7227197 L17.7937276,45.1422522 C17.7937276,45.1422522 20.708577,46.9795024 23.7627529,46.9263727 C26.8169288,46.8732431 29.7164606,44.9348474 29.7164606,44.9348474 L68.8171873,21.777473 C68.8171873,21.777473 71.2613302,20.4501941 71.2853646,19.0186823 C71.3093989,17.5871706 71.2552067,14.9230262 71.2552067,14.9230262 L51.0213831,6.79895834 C51.0213831,6.79895834 49.0773192,5.61829014 46.8975939,5.65265874 C44.7178685,5.68702735 42.5348985,6.93276815 42.5348985,6.93276815 L0.758927516,29.1637201 C0.758927516,29.1637201 0.76087585,31.7409156 0.775839809,33.6702056 C0.7908324,35.603187 2.72039592,36.7227197 2.72039592,36.7227197 Z" id="Path-43" stroke-width="2" fill="#FFFFFF"></path>
                    <path d="M2.78859198,31.3200763 L17.8438866,39.6563399 C17.8438866,39.6563399 20.7587361,41.4935901 23.812912,41.4404604 C26.8670879,41.3873307 29.7666196,39.448935 29.7666196,39.448935 L68.8171873,16.777473 C68.8171873,16.777473 71.498257,15.5284455 71.2853646,14.0186823 C71.0724721,12.5089192 68.0254431,11.1626831 68.0254431,11.1626831 L51.0213831,1.79895834 C51.0213831,1.79895834 49.0773192,0.618290138 46.8975939,0.652658745 C44.7178685,0.687027351 42.5348985,1.93276815 42.5348985,1.93276815 L3.77614873,24.9644925 C3.77614873,24.9644925 1.24794264,26.3487085 0.844035874,28.2675622 C0.440129113,30.1864158 2.78859198,31.3200763 2.78859198,31.3200763 Z" id="Path-43" stroke-width="2" fill="#FFFFFF"></path>
                    <path d="M32.4474058,11.4640201 L42.1936273,5.54985137 C42.1936273,5.54985137 44.6228198,3.82892444 46.5918094,3.82892444 C48.5607991,3.82892444 50.8118071,5.28348236 50.8118071,5.28348236 L58.1273523,9.43554856" id="Path-255" stroke-linecap="round"></path>
                </g>
            </g>
        </g>
    </g>
</svg>