<?xml version="1.0" encoding="UTF-8" standalone="no"?>
<svg width="211px" height="144px" viewBox="0 0 211 144" version="1.1" xmlns="http://www.w3.org/2000/svg" xmlns:xlink="http://www.w3.org/1999/xlink">
    <!-- Generator: Sketch 3.7.1 (28215) - http://www.bohemiancoding.com/sketch -->
    <title>css-selectors</title>
    <desc>Created with Sketch.</desc>
    <defs></defs>
    <g id="Page-1" stroke="none" stroke-width="1" fill="none" fill-rule="evenodd">
        <g id="css-selectors">
            <ellipse id="Oval-12" fill-opacity="0.15" fill="#5D6063" cx="181.62531" cy="52.1674575" rx="8.09611554" ry="3.37702562"></ellipse>
            <path d="M125.316505,58.6674664 C133.394307,41.0018835 156.472071,36.7120688 156.472071,36.7120688 L176.997531,21.9351411" id="Path-435" stroke="#5D6063" stroke-width="2" stroke-linejoin="round"></path>
            <path d="M156.738274,37.405454 L182.164194,45.7035924" id="Path-436" stroke="#5D6063" stroke-width="2" stroke-linejoin="round"></path>
            <path d="M14.1356687,100.291469 L74.6501219,135.370362 C74.6501219,135.370362 77.5649713,137.207612 80.6191473,137.154482 C83.6733232,137.101353 86.5728549,135.162957 86.5728549,135.162957 L163.381844,89.8712526 C163.381844,89.8712526 166.062914,88.622225 165.850021,87.1124619 C165.637129,85.6026987 162.5901,84.2564626 162.5901,84.2564626 L101.418851,49.0104689 C101.418851,49.0104689 99.4747871,47.8298007 97.2950617,47.8641693 C95.1153364,47.8985379 92.9323664,49.1442787 92.9323664,49.1442787 L15.1232254,93.9358855 C15.1232254,93.9358855 12.5950194,95.3201015 12.1911126,97.2389551 C11.7872058,99.1578088 14.1356687,100.291469 14.1356687,100.291469 Z" id="Path-43" fill-opacity="0.15" fill="#5D6063"></path>
            <path d="M13.953039,96.0460991 L74.4674922,131.124992 C74.4674922,131.124992 77.3823416,132.962242 80.4365176,132.909112 C83.4906935,132.855983 86.3902252,130.917587 86.3902252,130.917587 L163.381844,84.8712526 C163.381844,84.8712526 165.753856,83.4968758 165.850021,82.1124619 C165.946187,80.728048 165.760418,76.3809819 165.760418,76.3809819 L101.418851,44.0104689 C101.418851,44.0104689 99.4747871,42.8298007 97.2950617,42.8641693 C95.1153364,42.8985379 92.9323664,44.1442787 92.9323664,44.1442787 L11.9536814,87.5991566 C11.9536814,87.5991566 11.9218208,91.1971082 12.0084829,92.993585 C12.095145,94.7900617 13.953039,96.0460991 13.953039,96.0460991 Z" id="Path-43" stroke="#5D6063" stroke-width="2" stroke-linecap="round" stroke-linejoin="round" fill="#FFFFFF"></path>
            <path d="M13.9070291,90.2922156 L74.4214823,125.371108 C74.4214823,125.371108 77.3363317,127.208358 80.3905076,127.155229 C83.4446835,127.102099 86.3442153,125.163703 86.3442153,125.163703 L163.381844,78.8712526 C163.381844,78.8712526 166.062914,77.622225 165.850021,76.1124619 C165.637129,74.6026987 162.5901,73.2564626 162.5901,73.2564626 L101.418851,38.0104689 C101.418851,38.0104689 99.4747871,36.8298007 97.2950617,36.8641693 C95.1153364,36.8985379 92.9323664,38.1442787 92.9323664,38.1442787 L14.8945858,83.9366319 C14.8945858,83.9366319 12.3663797,85.3208478 11.9624729,87.2397015 C11.5585662,89.1585552 13.9070291,90.2922156 13.9070291,90.2922156 Z" id="Path-43" stroke="#5D6063" stroke-width="2" stroke-linejoin="round" fill="#FFFFFF"></path>
            <path d="M78.8020977,59.1615063 L127.122074,86.3920136 C127.122074,86.3920136 130.036923,88.2292637 133.091099,88.1761341 C136.145275,88.1230044 139.044807,86.1846087 139.044807,86.1846087 L151.595965,78.5437147 C151.595965,78.5437147 154.277034,77.2946872 154.064142,75.784924 C153.85125,74.2751609 150.804221,72.9289248 150.804221,72.9289248 L101.434012,45.3388603 C101.434012,45.3388603 99.489948,44.1581921 97.3102226,44.1925607 C95.1304972,44.2269293 92.9475273,45.4726701 92.9475273,45.4726701 L79.7896544,52.8059226 C79.7896544,52.8059226 77.2614483,54.1901385 76.8575416,56.1089922 C76.4536348,58.0278459 78.8020977,59.1615063 78.8020977,59.1615063 Z" id="Path-43" fill-opacity="0.15" fill="#5D6063"></path>
            <path d="M78.8020977,54.1615063 L127.122074,81.3920136 C127.122074,81.3920136 130.036923,83.2292637 133.091099,83.1761341 C136.145275,83.1230044 139.044807,81.1846087 139.044807,81.1846087 L151.595965,73.5437147 C151.595965,73.5437147 154.021399,72.2446284 154.064142,70.784924 C154.106885,69.3252196 154.056637,66.4495948 154.056637,66.4495948 L101.434012,40.3388603 C101.434012,40.3388603 99.489948,39.1581921 97.3102226,39.1925607 C95.1304972,39.2269293 92.9475273,40.4726701 92.9475273,40.4726701 L76.836851,47.073327 C76.836851,47.073327 76.832339,49.2967524 76.8575416,51.1089922 C76.8827442,52.921232 78.8020977,54.1615063 78.8020977,54.1615063 Z" id="Path-43" stroke="#5D6063" stroke-width="2" stroke-linejoin="round" fill="#FFFFFF"></path>
            <path d="M78.8020977,49.1615063 L127.122074,76.3920136 C127.122074,76.3920136 130.036923,78.2292637 133.091099,78.1761341 C136.145275,78.1230044 139.044807,76.1846087 139.044807,76.1846087 L151.595965,68.5437147 C151.595965,68.5437147 154.277034,67.2946872 154.064142,65.784924 C153.85125,64.2751609 150.804221,62.9289248 150.804221,62.9289248 L101.434012,35.3388603 C101.434012,35.3388603 99.489948,34.1581921 97.3102226,34.1925607 C95.1304972,34.2269293 92.9475273,35.4726701 92.9475273,35.4726701 L79.7896544,42.8059226 C79.7896544,42.8059226 77.2614483,44.1901385 76.8575416,46.1089922 C76.4536348,48.0278459 78.8020977,49.1615063 78.8020977,49.1615063 Z" id="Path-43" stroke="#5D6063" stroke-width="2" stroke-linejoin="round" fill="#FFFFFF"></path>
            <path d="M51.5845111,75.04187 L99.9044873,102.272377 C99.9044873,102.272377 102.819337,104.109627 105.873513,104.056498 C108.927689,104.003368 111.82722,102.064972 111.82722,102.064972 L124.378378,94.4240784 C124.378378,94.4240784 127.059448,93.1750508 126.846555,91.6652877 C126.633663,90.1555246 123.586634,88.8092884 123.586634,88.8092884 L74.2164252,61.219224 C74.2164252,61.219224 72.2723614,60.0385558 70.0926361,60.0729244 C67.9129107,60.107293 65.7299407,61.3530338 65.7299407,61.3530338 L52.5720679,68.6862863 C52.5720679,68.6862863 50.0438618,70.0705022 49.639955,71.9893559 C49.2360483,73.9082095 51.5845111,75.04187 51.5845111,75.04187 Z" id="Path-43" fill-opacity="0.15" fill="#5D6063"></path>
            <path d="M51.5845111,70.04187 L99.9044873,97.2723772 C99.9044873,97.2723772 102.819337,99.1096274 105.873513,99.0564977 C108.927689,99.0033681 111.82722,97.0649724 111.82722,97.0649724 L124.378378,89.4240784 C124.378378,89.4240784 126.803813,88.1249921 126.846555,86.6652877 C126.889298,85.2055833 126.83905,82.3299585 126.83905,82.3299585 L74.2164252,56.219224 C74.2164252,56.219224 72.2723614,55.0385558 70.0926361,55.0729244 C67.9129107,55.107293 65.7299407,56.3530338 65.7299407,56.3530338 L49.6192645,62.9536906 C49.6192645,62.9536906 49.6147524,65.1771161 49.639955,66.9893559 C49.6651576,68.8015956 51.5845111,70.04187 51.5845111,70.04187 Z" id="Path-43" stroke="#5D6063" stroke-width="2" stroke-linejoin="round" fill="#B2D6FF"></path>
            <path d="M51.5845111,65.04187 L99.9044873,92.2723772 C99.9044873,92.2723772 102.819337,94.1096274 105.873513,94.0564977 C108.927689,94.0033681 111.82722,92.0649724 111.82722,92.0649724 L124.378378,84.4240784 C124.378378,84.4240784 127.059448,83.1750508 126.846555,81.6652877 C126.633663,80.1555246 123.586634,78.8092884 123.586634,78.8092884 L74.2164252,51.219224 C74.2164252,51.219224 72.2723614,50.0385558 70.0926361,50.0729244 C67.9129107,50.107293 65.7299407,51.3530338 65.7299407,51.3530338 L52.5720679,58.6862863 C52.5720679,58.6862863 50.0438618,60.0705022 49.639955,61.9893559 C49.2360483,63.9082095 51.5845111,65.04187 51.5845111,65.04187 Z" id="Path-43" stroke="#5D6063" stroke-width="2" stroke-linejoin="round" fill="#B2D6FF"></path>
            <path d="M23.8157174,90.9202542 L72.1356935,118.150761 C72.1356935,118.150761 75.050543,119.988012 78.1047189,119.934882 C81.1588948,119.881752 84.0584265,117.943357 84.0584265,117.943357 L96.6095844,110.302463 C96.6095844,110.302463 99.2906541,109.053435 99.0777616,107.543672 C98.8648692,106.033909 95.8178402,104.687673 95.8178402,104.687673 L46.4476315,77.0976082 C46.4476315,77.0976082 44.5035677,75.91694 42.3238423,75.9513086 C40.1441169,75.9856772 37.961147,77.231418 37.961147,77.231418 L24.8032741,84.5646705 C24.8032741,84.5646705 22.275068,85.9488864 21.8711613,87.8677401 C21.4672545,89.7865938 23.8157174,90.9202542 23.8157174,90.9202542 Z" id="Path-43" fill-opacity="0.15" fill="#5D6063"></path>
            <path d="M23.8157174,85.9202542 L72.1356935,113.150761 C72.1356935,113.150761 75.050543,114.988012 78.1047189,114.934882 C81.1588948,114.881752 84.0584265,112.943357 84.0584265,112.943357 L96.6095844,105.302463 C96.6095844,105.302463 99.0350189,104.003376 99.0777616,102.543672 C99.1205043,101.083968 99.0702563,98.2083428 99.0702563,98.2083428 L46.4476315,72.0976082 C46.4476315,72.0976082 44.5035677,70.91694 42.3238423,70.9513086 C40.1441169,70.9856772 37.961147,72.231418 37.961147,72.231418 L21.8504707,78.8320749 C21.8504707,78.8320749 21.8459587,81.0555003 21.8711613,82.8677401 C21.8963639,84.6799799 23.8157174,85.9202542 23.8157174,85.9202542 Z" id="Path-43" stroke="#5D6063" stroke-width="2" stroke-linejoin="round" fill="#FFFFFF"></path>
            <path d="M23.8157174,80.9202542 L72.1356935,108.150761 C72.1356935,108.150761 75.050543,109.988012 78.1047189,109.934882 C81.1588948,109.881752 84.0584265,107.943357 84.0584265,107.943357 L96.6095844,100.302463 C96.6095844,100.302463 99.2906541,99.0534351 99.0777616,97.543672 C98.8648692,96.0339088 95.8178402,94.6876727 95.8178402,94.6876727 L46.4476315,67.0976082 C46.4476315,67.0976082 44.5035677,65.91694 42.3238423,65.9513086 C40.1441169,65.9856772 37.961147,67.231418 37.961147,67.231418 L24.8032741,74.5646705 C24.8032741,74.5646705 22.275068,75.9488864 21.8711613,77.8677401 C21.4672545,79.7865938 23.8157174,80.9202542 23.8157174,80.9202542 Z" id="Path-43" stroke="#5D6063" stroke-width="2" stroke-linejoin="round" fill="#FFFFFF"></path>
            <path id="Path-380" stroke="#979797"></path>
            <path d="M86.7420681,42.390159 L92.8742285,38.6715398 C92.8742285,38.6715398 95.2885282,36.9665042 97.1431841,36.9665042 C98.99784,36.9665042 100.972829,38.3111775 100.972829,38.3111775 L108.27685,42.4381529" id="Path-255" stroke="#5D6063" stroke-linecap="round" stroke-linejoin="round"></path>
            <path d="M59.2332893,58.4251972 L65.3654497,54.7065779 C65.3654497,54.7065779 67.7797494,53.0015424 69.6344053,53.0015424 C71.4890612,53.0015424 73.4640501,54.3462157 73.4640501,54.3462157 L80.7680708,58.4731911" id="Path-255" stroke="#5D6063" stroke-linecap="round" stroke-linejoin="round"></path>
            <path d="M31.7591725,74.6299216 L37.8913328,70.9113024 C37.8913328,70.9113024 40.3056326,69.2062668 42.1602884,69.2062668 C44.0149443,69.2062668 45.9899332,70.5509401 45.9899332,70.5509401 L53.2939539,74.6779155" id="Path-255" stroke="#5D6063" stroke-linecap="round" stroke-linejoin="round"></path>
            <ellipse id="Oval-12" fill-opacity="0.15" fill="#5D6063" cx="156.122401" cy="43.9035884" rx="8.09611554" ry="3.37702562"></ellipse>
            <ellipse id="Oval-12" fill-opacity="0.15" fill="#5D6063" cx="176.5171" cy="28.3417096" rx="8.09611554" ry="3.37702562"></ellipse>
            <g id="Oval-1-+-Path-432" transform="translate(173.943268, 37.757065)" stroke="#5D6063" stroke-linecap="round" stroke-linejoin="round">
                <circle id="Oval-1" stroke-width="2" fill="#B2D6FF" cx="7.6922658" cy="7.24516037" r="6.94544724"></circle>
                <path d="M6.50467797,2.7137447 C5.52133268,2.5918005 3.62300672,3.92659584 3.48077557,5.59028497" id="Path-432" fill="#FFFFFF"></path>
            </g>
            <g id="Oval-1-+-Path-432" transform="translate(148.528841, 29.492004)" stroke="#5D6063" fill="#FFFFFF" stroke-linecap="round" stroke-linejoin="round">
                <circle id="Oval-1" stroke-width="2" cx="7.6922658" cy="7.24516037" r="6.94544724"></circle>
                <path d="M6.50467797,2.7137447 C5.52133268,2.5918005 3.62300672,3.92659584 3.48077557,5.59028497" id="Path-432"></path>
            </g>
            <g id="Oval-1-+-Path-432" transform="translate(168.677899, 14.243284)" stroke="#5D6063" fill="#FFFFFF" stroke-linecap="round" stroke-linejoin="round">
                <circle id="Oval-1" stroke-width="2" cx="7.6922658" cy="7.24516037" r="6.94544724"></circle>
                <path d="M6.50467797,2.7137447 C5.52133268,2.5918005 3.62300672,3.92659584 3.48077557,5.59028497" id="Path-432"></path>
            </g>
        </g>
    </g>
</svg>