<?xml version="1.0" encoding="UTF-8" standalone="no"?>
<svg width="211px" height="144px" viewBox="0 0 211 144" version="1.1" xmlns="http://www.w3.org/2000/svg" xmlns:xlink="http://www.w3.org/1999/xlink">
    <!-- Generator: Sketch 3.7.1 (28215) - http://www.bohemiancoding.com/sketch -->
    <title>floats</title>
    <desc>Created with Sketch.</desc>
    <defs></defs>
    <g id="Page-1" stroke="none" stroke-width="1" fill="none" fill-rule="evenodd">
        <g id="floats">
            <ellipse id="Oval-12" fill-opacity="0.15" fill="#5D6063" cx="181.62531" cy="52.1674575" rx="8.09611554" ry="3.37702562"></ellipse>
            <path d="M125.316505,58.6674664 C133.394307,41.0018835 156.472071,36.7120688 156.472071,36.7120688 L176.997531,21.9351411" id="Path-435" stroke="#5D6063" stroke-width="2" stroke-linejoin="round"></path>
            <path d="M156.738274,37.405454 L182.164194,45.7035924" id="Path-436" stroke="#5D6063" stroke-width="2" stroke-linejoin="round"></path>
            <path d="M14.1356687,100.291469 L74.6501219,135.370362 C74.6501219,135.370362 77.5649713,137.207612 80.6191473,137.154482 C83.6733232,137.101353 86.5728549,135.162957 86.5728549,135.162957 L163.381844,89.8712526 C163.381844,89.8712526 166.062914,88.622225 165.850021,87.1124619 C165.637129,85.6026987 162.5901,84.2564626 162.5901,84.2564626 L101.418851,49.0104689 C101.418851,49.0104689 99.4747871,47.8298007 97.2950617,47.8641693 C95.1153364,47.8985379 92.9323664,49.1442787 92.9323664,49.1442787 L15.1232254,93.9358855 C15.1232254,93.9358855 12.5950194,95.3201015 12.1911126,97.2389551 C11.7872058,99.1578088 14.1356687,100.291469 14.1356687,100.291469 Z" id="Path-43" fill-opacity="0.15" fill="#5D6063"></path>
            <path d="M13.953039,96.0460991 L74.4674922,131.124992 C74.4674922,131.124992 77.3823416,132.962242 80.4365176,132.909112 C83.4906935,132.855983 86.3902252,130.917587 86.3902252,130.917587 L163.381844,84.8712526 C163.381844,84.8712526 165.753856,83.4968758 165.850021,82.1124619 C165.946187,80.728048 165.760418,76.3809819 165.760418,76.3809819 L101.418851,44.0104689 C101.418851,44.0104689 99.4747871,42.8298007 97.2950617,42.8641693 C95.1153364,42.8985379 92.9323664,44.1442787 92.9323664,44.1442787 L11.9536814,87.5991566 C11.9536814,87.5991566 11.9218208,91.1971082 12.0084829,92.993585 C12.095145,94.7900617 13.953039,96.0460991 13.953039,96.0460991 Z" id="Path-43" stroke="#5D6063" stroke-width="2" stroke-linecap="round" stroke-linejoin="round" fill="#FFFFFF"></path>
            <path d="M13.9070291,90.2922156 L74.4214823,125.371108 C74.4214823,125.371108 77.3363317,127.208358 80.3905076,127.155229 C83.4446835,127.102099 86.3442153,125.163703 86.3442153,125.163703 L163.381844,78.8712526 C163.381844,78.8712526 166.062914,77.622225 165.850021,76.1124619 C165.637129,74.6026987 162.5901,73.2564626 162.5901,73.2564626 L101.418851,38.0104689 C101.418851,38.0104689 99.4747871,36.8298007 97.2950617,36.8641693 C95.1153364,36.8985379 92.9323664,38.1442787 92.9323664,38.1442787 L14.8945858,83.9366319 C14.8945858,83.9366319 12.3663797,85.3208478 11.9624729,87.2397015 C11.5585662,89.1585552 13.9070291,90.2922156 13.9070291,90.2922156 Z" id="Path-43" stroke="#5D6063" stroke-width="2" stroke-linejoin="round" fill="#FFFFFF"></path>
            <path d="M78.8020977,59.1615063 L127.122074,86.3920136 C127.122074,86.3920136 130.036923,88.2292637 133.091099,88.1761341 C136.145275,88.1230044 139.044807,86.1846087 139.044807,86.1846087 L151.595965,78.5437147 C151.595965,78.5437147 154.277034,77.2946872 154.064142,75.784924 C153.85125,74.2751609 150.804221,72.9289248 150.804221,72.9289248 L101.434012,45.3388603 C101.434012,45.3388603 99.489948,44.1581921 97.3102226,44.1925607 C95.1304972,44.2269293 92.9475273,45.4726701 92.9475273,45.4726701 L79.7896544,52.8059226 C79.7896544,52.8059226 77.2614483,54.1901385 76.8575416,56.1089922 C76.4536348,58.0278459 78.8020977,59.1615063 78.8020977,59.1615063 Z" id="Path-43" fill-opacity="0.15" fill="#5D6063"></path>
            <path d="M78.8020977,54.1615063 L127.122074,81.3920136 C127.122074,81.3920136 130.036923,83.2292637 133.091099,83.1761341 C136.145275,83.1230044 139.044807,81.1846087 139.044807,81.1846087 L151.595965,73.5437147 C151.595965,73.5437147 154.021399,72.2446284 154.064142,70.784924 C154.106885,69.3252196 154.056637,66.4495948 154.056637,66.4495948 L101.434012,40.3388603 C101.434012,40.3388603 99.489948,39.1581921 97.3102226,39.1925607 C95.1304972,39.2269293 92.9475273,40.4726701 92.9475273,40.4726701 L76.836851,47.073327 C76.836851,47.073327 76.832339,49.2967524 76.8575416,51.1089922 C76.8827442,52.921232 78.8020977,54.1615063 78.8020977,54.1615063 Z" id="Path-43" stroke="#5D6063" stroke-width="2" stroke-linejoin="round" fill="#FFFFFF"></path>
            <path d="M78.8020977,49.1615063 L127.122074,76.3920136 C127.122074,76.3920136 130.036923,78.2292637 133.091099,78.1761341 C136.145275,78.1230044 139.044807,76.1846087 139.044807,76.1846087 L151.595965,68.5437147 C151.595965,68.5437147 154.277034,67.2946872 154.064142,65.784924 C153.85125,64.2751609 150.804221,62.9289248 150.804221,62.9289248 L101.434012,35.3388603 C101.434012,35.3388603 99.489948,34.1581921 97.3102226,34.1925607 C95.1304972,34.2269293 92.9475273,35.4726701 92.9475273,35.4726701 L79.7896544,42.8059226 C79.7896544,42.8059226 77.2614483,44.1901385 76.8575416,46.1089922 C76.4536348,48.0278459 78.8020977,49.1615063 78.8020977,49.1615063 Z" id="Path-43" stroke="#5D6063" stroke-width="2" stroke-linejoin="round" fill="#FFFFFF"></path>
            <path id="Path-380" stroke="#979797"></path>
            <path d="M86.7420681,42.390159 L92.8742285,38.6715398 C92.8742285,38.6715398 95.2885282,36.9665042 97.1431841,36.9665042 C98.99784,36.9665042 100.972829,38.3111775 100.972829,38.3111775 L108.27685,42.4381529" id="Path-255" stroke="#5D6063" stroke-linecap="round" stroke-linejoin="round"></path>
            <ellipse id="Oval-12" fill-opacity="0.15" fill="#5D6063" cx="156.122401" cy="43.9035884" rx="8.09611554" ry="3.37702562"></ellipse>
            <ellipse id="Oval-12" fill-opacity="0.15" fill="#5D6063" cx="176.5171" cy="28.3417096" rx="8.09611554" ry="3.37702562"></ellipse>
            <g id="Oval-1-+-Path-432" transform="translate(173.943268, 37.757065)" stroke="#5D6063" fill="#FFFFFF" stroke-linecap="round" stroke-linejoin="round">
                <circle id="Oval-1" stroke-width="2" cx="7.6922658" cy="7.24516037" r="6.94544724"></circle>
                <path d="M6.50467797,2.7137447 C5.52133268,2.5918005 3.62300672,3.92659584 3.48077557,5.59028497" id="Path-432"></path>
            </g>
            <g id="Oval-1-+-Path-432" transform="translate(148.528841, 29.492004)" stroke="#5D6063" fill="#FFFFFF" stroke-linecap="round" stroke-linejoin="round">
                <circle id="Oval-1" stroke-width="2" cx="7.6922658" cy="7.24516037" r="6.94544724"></circle>
                <path d="M6.50467797,2.7137447 C5.52133268,2.5918005 3.62300672,3.92659584 3.48077557,5.59028497" id="Path-432"></path>
            </g>
            <g id="Oval-1-+-Path-432" transform="translate(168.677899, 14.243284)" stroke="#5D6063" fill="#FFFFFF" stroke-linecap="round" stroke-linejoin="round">
                <circle id="Oval-1" stroke-width="2" cx="7.6922658" cy="7.24516037" r="6.94544724"></circle>
                <path d="M6.50467797,2.7137447 C5.52133268,2.5918005 3.62300672,3.92659584 3.48077557,5.59028497" id="Path-432"></path>
            </g>
            <path d="M26.1070909,89.5930161 L42.0609184,98.5971837 C42.0609184,98.5971837 44.9757679,100.434434 48.0299438,100.381304 C51.0841197,100.328174 53.9836514,98.3897788 53.9836514,98.3897788 L91.4859374,75.6985178 C91.4859374,75.6985178 94.167007,74.4494902 93.9541146,72.9397271 C93.7412222,71.4299639 90.6941932,70.0837278 90.6941932,70.0837278 L73.6901331,60.7200031 C73.6901331,60.7200031 71.7460693,59.5393349 69.5663439,59.5737035 C67.3866185,59.6080721 65.2036486,60.8538129 65.2036486,60.8538129 L27.0946477,83.2374324 C27.0946477,83.2374324 24.5664416,84.6216483 24.1625348,86.540502 C23.7586281,88.4593557 26.1070909,89.5930161 26.1070909,89.5930161 Z" id="Path-43" fill-opacity="0.15" fill="#5D6063"></path>
            <path d="M26.1070909,84.5930161 L42.0609184,93.5971837 C42.0609184,93.5971837 44.9757679,95.4344338 48.0299438,95.3813042 C51.0841197,95.3281745 53.9836514,93.3897788 53.9836514,93.3897788 L91.4859374,70.6985178 C91.4859374,70.6985178 93.9192615,69.4544714 93.9541146,67.9397271 C93.9877968,66.4758701 93.9877968,63.7286698 93.9877968,63.7286698 L73.6901331,55.7200031 C73.6901331,55.7200031 71.7460693,54.5393349 69.5663439,54.5737035 C67.3866185,54.6080721 65.2036486,55.8538129 65.2036486,55.8538129 L24.2231564,77.273301 C24.2231564,77.273301 24.084106,79.6164302 24.1625348,81.540502 C24.2409636,83.4645738 26.1070909,84.5930161 26.1070909,84.5930161 Z" id="Path-43" stroke="#5D6063" stroke-width="2" stroke-linejoin="round" fill="#B2D6FF"></path>
            <path d="M83.7767569,91.064014 L99.7305844,100.068182 C99.7305844,100.068182 102.645434,101.905432 105.69961,101.852302 C108.753786,101.799172 111.653317,99.8607767 111.653317,99.8607767 L122.649663,92.9315632 C122.649663,92.9315632 125.330733,91.6825357 125.117841,90.1727725 C124.904948,88.6630094 121.857919,87.3167732 121.857919,87.3167732 L104.853859,77.9530485 C104.853859,77.9530485 102.909795,76.7723803 100.73007,76.8067489 C98.5503445,76.8411175 96.3673745,78.0868583 96.3673745,78.0868583 L84.7643136,84.7084303 C84.7643136,84.7084303 82.2361075,86.0926462 81.8322008,88.0114999 C81.428294,89.9303535 83.7767569,91.064014 83.7767569,91.064014 Z" id="Path-43" fill-opacity="0.15" fill="#5D6063"></path>
            <path d="M26.1070909,79.5930161 L42.0609184,88.5971837 C42.0609184,88.5971837 44.9757679,90.4344338 48.0299438,90.3813042 C51.0841197,90.3281745 53.9836514,88.3897788 53.9836514,88.3897788 L91.4859374,65.6985178 C91.4859374,65.6985178 94.167007,64.4494902 93.9541146,62.9397271 C93.7412222,61.4299639 90.6941932,60.0837278 90.6941932,60.0837278 L73.6901331,50.7200031 C73.6901331,50.7200031 71.7460693,49.5393349 69.5663439,49.5737035 C67.3866185,49.6080721 65.2036486,50.8538129 65.2036486,50.8538129 L27.0946477,73.2374324 C27.0946477,73.2374324 24.5664416,74.6216483 24.1625348,76.540502 C23.7586281,78.4593557 26.1070909,79.5930161 26.1070909,79.5930161 Z" id="Path-43" stroke="#5D6063" stroke-width="2" stroke-linejoin="round" fill="#B2D6FF"></path>
            <path d="M83.7767569,86.064014 L99.7305844,95.0681815 C99.7305844,95.0681815 102.645434,96.9054317 105.69961,96.852302 C108.753786,96.7991723 111.653317,94.8607767 111.653317,94.8607767 L122.649663,87.9315632 C122.649663,87.9315632 125.093806,86.6042843 125.117841,85.1727725 C125.141875,83.7412608 125.087683,81.0771163 125.087683,81.0771163 L104.853859,72.9530485 C104.853859,72.9530485 102.909795,71.7723803 100.73007,71.8067489 C98.5503445,71.8411175 96.3673745,73.0868583 96.3673745,73.0868583 L81.8152885,78.5050144 C81.8152885,78.5050144 81.8172368,81.0822099 81.8322008,83.0114999 C81.8471934,84.9444813 83.7767569,86.064014 83.7767569,86.064014 Z" id="Path-43" stroke="#5D6063" stroke-width="2" stroke-linejoin="round" fill="#FFFFFF"></path>
            <path d="M83.7767569,81.064014 L99.7305844,90.0681815 C99.7305844,90.0681815 102.645434,91.9054317 105.69961,91.852302 C108.753786,91.7991723 111.653317,89.8607767 111.653317,89.8607767 L122.649663,82.9315632 C122.649663,82.9315632 125.330733,81.6825357 125.117841,80.1727725 C124.904948,78.6630094 121.857919,77.3167732 121.857919,77.3167732 L104.853859,67.9530485 C104.853859,67.9530485 102.909795,66.7723803 100.73007,66.8067489 C98.5503445,66.8411175 96.3673745,68.0868583 96.3673745,68.0868583 L84.7643136,74.7084303 C84.7643136,74.7084303 82.2361075,76.0926462 81.8322008,78.0114999 C81.428294,79.9303535 83.7767569,81.064014 83.7767569,81.064014 Z" id="Path-43" stroke="#5D6063" stroke-width="2" stroke-linejoin="round" fill="#FFFFFF"></path>
            <path d="M90.3351092,75.2938604 L96.4672696,71.5752411 C96.4672696,71.5752411 98.8815693,69.8702056 100.736225,69.8702056 C102.590881,69.8702056 104.56587,71.2148789 104.56587,71.2148789 L111.869891,75.3418543" id="Path-255" stroke="#5D6063" stroke-linecap="round" stroke-linejoin="round"></path>
            <path d="M57.865942,107.532236 L73.8197695,116.536404 C73.8197695,116.536404 76.734619,118.373654 79.7887949,118.320524 C82.8429708,118.267395 85.7425025,116.328999 85.7425025,116.328999 L96.7388485,109.399786 C96.7388485,109.399786 99.4199181,108.150758 99.2070257,106.640995 C98.9941333,105.131232 95.9471043,103.784996 95.9471043,103.784996 L78.9430442,94.4212709 C78.9430442,94.4212709 76.9989804,93.2406027 74.819255,93.2749713 C72.6395296,93.3093399 70.4565597,94.5550807 70.4565597,94.5550807 L58.8534988,101.176653 C58.8534988,101.176653 56.3252927,102.560869 55.9213859,104.479722 C55.5174791,106.398576 57.865942,107.532236 57.865942,107.532236 Z" id="Path-43" fill-opacity="0.15" fill="#5D6063"></path>
            <path d="M57.865942,102.532236 L73.8197695,111.536404 C73.8197695,111.536404 76.734619,113.373654 79.7887949,113.320524 C82.8429708,113.267395 85.7425025,111.328999 85.7425025,111.328999 L96.7388485,104.399786 C96.7388485,104.399786 99.1829914,103.072507 99.2070257,101.640995 C99.23106,100.209483 99.1768678,97.5453387 99.1768678,97.5453387 L78.9430442,89.4212709 C78.9430442,89.4212709 76.9989804,88.2406027 74.819255,88.2749713 C72.6395296,88.3093399 70.4565597,89.5550807 70.4565597,89.5550807 L55.9044736,94.9732368 C55.9044736,94.9732368 55.9064219,97.5504323 55.9213859,99.4797223 C55.9363785,101.412704 57.865942,102.532236 57.865942,102.532236 Z" id="Path-43" stroke="#5D6063" stroke-width="2" stroke-linejoin="round" fill="#FFFFFF"></path>
            <path d="M57.865942,97.5322364 L73.8197695,106.536404 C73.8197695,106.536404 76.734619,108.373654 79.7887949,108.320524 C82.8429708,108.267395 85.7425025,106.328999 85.7425025,106.328999 L96.7388485,99.3997856 C96.7388485,99.3997856 99.4199181,98.1507581 99.2070257,96.6409949 C98.9941333,95.1312318 95.9471043,93.7849956 95.9471043,93.7849956 L78.9430442,84.4212709 C78.9430442,84.4212709 76.9989804,83.2406027 74.819255,83.2749713 C72.6395296,83.3093399 70.4565597,84.5550807 70.4565597,84.5550807 L58.8534988,91.1766526 C58.8534988,91.1766526 56.3252927,92.5608686 55.9213859,94.4797223 C55.5174791,96.3985759 57.865942,97.5322364 57.865942,97.5322364 Z" id="Path-43" stroke="#5D6063" stroke-width="2" stroke-linejoin="round" fill="#FFFFFF"></path>
            <path d="M64.4242943,91.7620828 L70.5564547,88.0434635 C70.5564547,88.0434635 72.9707544,86.338428 74.8254103,86.338428 C76.6800662,86.338428 78.6550551,87.6831013 78.6550551,87.6831013 L85.9590758,91.8100767" id="Path-255" stroke="#5D6063" stroke-linecap="round" stroke-linejoin="round"></path>
            <path d="M44.4183357,66.7299566 L65.3543637,54.080987 C65.3543637,54.080987 67.7686634,52.3759515 69.6233193,52.3759515 C71.4779752,52.3759515 73.4529641,53.7206247 73.4529641,53.7206247 L80.7569848,57.8476002" id="Path-255" stroke="#5D6063" stroke-linecap="round" stroke-linejoin="round"></path>
        </g>
    </g>
</svg>