<?xml version="1.0" encoding="UTF-8" standalone="no"?>
<svg width="211px" height="144px" viewBox="0 0 211 144" version="1.1" xmlns="http://www.w3.org/2000/svg" xmlns:xlink="http://www.w3.org/1999/xlink">
    <!-- Generator: Sketch 39.1 (31720) - http://www.bohemiancoding.com/sketch -->
    <title>semantic-markup</title>
    <desc>Created with Sketch.</desc>
    <defs></defs>
    <g id="Page-1" stroke="none" stroke-width="1" fill="none" fill-rule="evenodd">
        <g id="semantic-markup">
            <path d="M13.1356687,100.291469 L73.6501219,135.370362 C73.6501219,135.370362 76.5649713,137.207612 79.6191473,137.154482 C82.6733232,137.101353 85.5728549,135.162957 85.5728549,135.162957 L162.381844,89.8712526 C162.381844,89.8712526 165.062914,88.622225 164.850021,87.1124619 C164.637129,85.6026987 161.5901,84.2564626 161.5901,84.2564626 L100.418851,49.0104689 C100.418851,49.0104689 98.4747871,47.8298007 96.2950617,47.8641693 C94.1153364,47.8985379 91.9323664,49.1442787 91.9323664,49.1442787 L14.1232254,93.9358855 C14.1232254,93.9358855 11.5950194,95.3201015 11.1911126,97.2389551 C10.7872058,99.1578088 13.1356687,100.291469 13.1356687,100.291469 Z" id="Path-43" fill-opacity="0.15" fill="#5D6063"></path>
            <path d="M12.953039,96.0460991 L73.4674922,131.124992 C73.4674922,131.124992 76.3823416,132.962242 79.4365176,132.909112 C82.4906935,132.855983 85.3902252,130.917587 85.3902252,130.917587 L162.381844,84.8712526 C162.381844,84.8712526 164.753856,83.4968758 164.850021,82.1124619 C164.946187,80.728048 164.760418,76.3809819 164.760418,76.3809819 L100.418851,44.0104689 C100.418851,44.0104689 98.4747871,42.8298007 96.2950617,42.8641693 C94.1153364,42.8985379 91.9323664,44.1442787 91.9323664,44.1442787 L10.9536814,87.5991566 C10.9536814,87.5991566 10.9218208,91.1971082 11.0084829,92.993585 C11.095145,94.7900617 12.953039,96.0460991 12.953039,96.0460991 Z" id="Path-43" stroke="#5D6063" stroke-width="2" stroke-linecap="round" stroke-linejoin="round" fill="#FFFFFF"></path>
            <path d="M12.9070291,90.2922156 L73.4214823,125.371108 C73.4214823,125.371108 76.3363317,127.208358 79.3905076,127.155229 C82.4446835,127.102099 85.3442153,125.163703 85.3442153,125.163703 L162.381844,78.8712526 C162.381844,78.8712526 165.062914,77.622225 164.850021,76.1124619 C164.637129,74.6026987 161.5901,73.2564626 161.5901,73.2564626 L100.418851,38.0104689 C100.418851,38.0104689 98.4747871,36.8298007 96.2950617,36.8641693 C94.1153364,36.8985379 91.9323664,38.1442787 91.9323664,38.1442787 L13.8945858,83.9366319 C13.8945858,83.9366319 11.3663797,85.3208478 10.9624729,87.2397015 C10.5585662,89.1585552 12.9070291,90.2922156 12.9070291,90.2922156 Z" id="Path-43" stroke="#5D6063" stroke-width="2" stroke-linejoin="round" fill="#FFFFFF"></path>
            <path d="M77.8020977,59.1615063 L126.122074,86.3920136 C126.122074,86.3920136 129.036923,88.2292637 132.091099,88.1761341 C135.145275,88.1230044 138.044807,86.1846087 138.044807,86.1846087 L150.595965,78.5437147 C150.595965,78.5437147 153.277034,77.2946872 153.064142,75.784924 C152.85125,74.2751609 149.804221,72.9289248 149.804221,72.9289248 L100.434012,45.3388603 C100.434012,45.3388603 98.489948,44.1581921 96.3102226,44.1925607 C94.1304972,44.2269293 91.9475273,45.4726701 91.9475273,45.4726701 L78.7896544,52.8059226 C78.7896544,52.8059226 76.2614483,54.1901385 75.8575416,56.1089922 C75.4536348,58.0278459 77.8020977,59.1615063 77.8020977,59.1615063 Z" id="Path-43" fill-opacity="0.15" fill="#5D6063"></path>
            <path d="M77.8020977,54.1615063 L126.122074,81.3920136 C126.122074,81.3920136 129.036923,83.2292637 132.091099,83.1761341 C135.145275,83.1230044 138.044807,81.1846087 138.044807,81.1846087 L150.595965,73.5437147 C150.595965,73.5437147 153.021399,72.2446284 153.064142,70.784924 C153.106885,69.3252196 153.056637,66.4495948 153.056637,66.4495948 L100.434012,40.3388603 C100.434012,40.3388603 98.489948,39.1581921 96.3102226,39.1925607 C94.1304972,39.2269293 91.9475273,40.4726701 91.9475273,40.4726701 L75.836851,47.073327 C75.836851,47.073327 75.832339,49.2967524 75.8575416,51.1089922 C75.8827442,52.921232 77.8020977,54.1615063 77.8020977,54.1615063 Z" id="Path-43" stroke="#5D6063" stroke-width="2" stroke-linejoin="round" fill="#FFFFFF"></path>
            <path d="M77.8020977,49.1615063 L126.122074,76.3920136 C126.122074,76.3920136 129.036923,78.2292637 132.091099,78.1761341 C135.145275,78.1230044 138.044807,76.1846087 138.044807,76.1846087 L150.595965,68.5437147 C150.595965,68.5437147 153.277034,67.2946872 153.064142,65.784924 C152.85125,64.2751609 149.804221,62.9289248 149.804221,62.9289248 L100.434012,35.3388603 C100.434012,35.3388603 98.489948,34.1581921 96.3102226,34.1925607 C94.1304972,34.2269293 91.9475273,35.4726701 91.9475273,35.4726701 L78.7896544,42.8059226 C78.7896544,42.8059226 76.2614483,44.1901385 75.8575416,46.1089922 C75.4536348,48.0278459 77.8020977,49.1615063 77.8020977,49.1615063 Z" id="Path-43" stroke="#5D6063" stroke-width="2" stroke-linejoin="round" fill="#FFFFFF"></path>
            <path d="" id="Path-380" stroke="#979797"></path>
            <path d="M85.7420681,42.390159 L91.8742285,38.6715398 C91.8742285,38.6715398 94.2885282,36.9665042 96.1431841,36.9665042 C97.99784,36.9665042 99.9728289,38.3111775 99.9728289,38.3111775 L107.27685,42.4381529" id="Path-255" stroke="#5D6063" stroke-linecap="round" stroke-linejoin="round"></path>
            <path d="M25.1070909,89.5930161 L41.0609184,98.5971837 C41.0609184,98.5971837 43.9757679,100.434434 47.0299438,100.381304 C50.0841197,100.328174 52.9836514,98.3897788 52.9836514,98.3897788 L90.4859374,75.6985178 C90.4859374,75.6985178 93.167007,74.4494902 92.9541146,72.9397271 C92.7412222,71.4299639 89.6941932,70.0837278 89.6941932,70.0837278 L72.6901331,60.7200031 C72.6901331,60.7200031 70.7460693,59.5393349 68.5663439,59.5737035 C66.3866185,59.6080721 64.2036486,60.8538129 64.2036486,60.8538129 L26.0946477,83.2374324 C26.0946477,83.2374324 23.5664416,84.6216483 23.1625348,86.540502 C22.7586281,88.4593557 25.1070909,89.5930161 25.1070909,89.5930161 Z" id="Path-43" fill-opacity="0.15" fill="#5D6063"></path>
            <path d="M25.1070909,84.5930161 L41.0609184,93.5971837 C41.0609184,93.5971837 43.9757679,95.4344338 47.0299438,95.3813042 C50.0841197,95.3281745 52.9836514,93.3897788 52.9836514,93.3897788 L90.4859374,70.6985178 C90.4859374,70.6985178 92.9192615,69.4544714 92.9541146,67.9397271 C92.9877968,66.4758701 92.9877968,63.7286698 92.9877968,63.7286698 L72.6901331,55.7200031 C72.6901331,55.7200031 70.7460693,54.5393349 68.5663439,54.5737035 C66.3866185,54.6080721 64.2036486,55.8538129 64.2036486,55.8538129 L23.2231564,77.273301 C23.2231564,77.273301 23.084106,79.6164302 23.1625348,81.540502 C23.2409636,83.4645738 25.1070909,84.5930161 25.1070909,84.5930161 Z" id="Path-43" stroke="#5D6063" stroke-width="2" stroke-linejoin="round" fill="#FFFFFF"></path>
            <path d="M82.7767569,91.064014 L98.7305844,100.068182 C98.7305844,100.068182 101.645434,101.905432 104.69961,101.852302 C107.753786,101.799172 110.653317,99.8607767 110.653317,99.8607767 L121.649663,92.9315632 C121.649663,92.9315632 124.330733,91.6825357 124.117841,90.1727725 C123.904948,88.6630094 120.857919,87.3167732 120.857919,87.3167732 L103.853859,77.9530485 C103.853859,77.9530485 101.909795,76.7723803 99.7300699,76.8067489 C97.5503445,76.8411175 95.3673745,78.0868583 95.3673745,78.0868583 L83.7643136,84.7084303 C83.7643136,84.7084303 81.2361075,86.0926462 80.8322008,88.0114999 C80.428294,89.9303535 82.7767569,91.064014 82.7767569,91.064014 Z" id="Path-43" fill-opacity="0.15" fill="#5D6063"></path>
            <path d="M25.1070909,79.5930161 L41.0609184,88.5971837 C41.0609184,88.5971837 43.9757679,90.4344338 47.0299438,90.3813042 C50.0841197,90.3281745 52.9836514,88.3897788 52.9836514,88.3897788 L90.4859374,65.6985178 C90.4859374,65.6985178 93.167007,64.4494902 92.9541146,62.9397271 C92.7412222,61.4299639 89.6941932,60.0837278 89.6941932,60.0837278 L72.6901331,50.7200031 C72.6901331,50.7200031 70.7460693,49.5393349 68.5663439,49.5737035 C66.3866185,49.6080721 64.2036486,50.8538129 64.2036486,50.8538129 L26.0946477,73.2374324 C26.0946477,73.2374324 23.5664416,74.6216483 23.1625348,76.540502 C22.7586281,78.4593557 25.1070909,79.5930161 25.1070909,79.5930161 Z" id="Path-43" stroke="#5D6063" stroke-width="2" stroke-linejoin="round" fill="#FFFFFF"></path>
            <path d="M82.7767569,86.064014 L98.7305844,95.0681815 C98.7305844,95.0681815 101.645434,96.9054317 104.69961,96.852302 C107.753786,96.7991723 110.653317,94.8607767 110.653317,94.8607767 L121.649663,87.9315632 C121.649663,87.9315632 124.093806,86.6042843 124.117841,85.1727725 C124.141875,83.7412608 124.087683,81.0771163 124.087683,81.0771163 L103.853859,72.9530485 C103.853859,72.9530485 101.909795,71.7723803 99.7300699,71.8067489 C97.5503445,71.8411175 95.3673745,73.0868583 95.3673745,73.0868583 L80.8152885,78.5050144 C80.8152885,78.5050144 80.8172368,81.0822099 80.8322008,83.0114999 C80.8471934,84.9444813 82.7767569,86.064014 82.7767569,86.064014 Z" id="Path-43" stroke="#5D6063" stroke-width="2" stroke-linejoin="round" fill="#FFFFFF"></path>
            <path d="M82.7767569,81.064014 L98.7305844,90.0681815 C98.7305844,90.0681815 101.645434,91.9054317 104.69961,91.852302 C107.753786,91.7991723 110.653317,89.8607767 110.653317,89.8607767 L121.649663,82.9315632 C121.649663,82.9315632 124.330733,81.6825357 124.117841,80.1727725 C123.904948,78.6630094 120.857919,77.3167732 120.857919,77.3167732 L103.853859,67.9530485 C103.853859,67.9530485 101.909795,66.7723803 99.7300699,66.8067489 C97.5503445,66.8411175 95.3673745,68.0868583 95.3673745,68.0868583 L83.7643136,74.7084303 C83.7643136,74.7084303 81.2361075,76.0926462 80.8322008,78.0114999 C80.428294,79.9303535 82.7767569,81.064014 82.7767569,81.064014 Z" id="Path-43" stroke="#5D6063" stroke-width="2" stroke-linejoin="round" fill="#FFFFFF"></path>
            <path d="M89.3351092,75.2938604 L95.4672696,71.5752411 C95.4672696,71.5752411 97.8815693,69.8702056 99.7362252,69.8702056 C101.590881,69.8702056 103.56587,71.2148789 103.56587,71.2148789 L110.869891,75.3418543" id="Path-255" stroke="#5D6063" stroke-linecap="round" stroke-linejoin="round"></path>
            <path d="M56.865942,107.532236 L72.8197695,116.536404 C72.8197695,116.536404 75.734619,118.373654 78.7887949,118.320524 C81.8429708,118.267395 84.7425025,116.328999 84.7425025,116.328999 L95.7388485,109.399786 C95.7388485,109.399786 98.4199181,108.150758 98.2070257,106.640995 C97.9941333,105.131232 94.9471043,103.784996 94.9471043,103.784996 L77.9430442,94.4212709 C77.9430442,94.4212709 75.9989804,93.2406027 73.819255,93.2749713 C71.6395296,93.3093399 69.4565597,94.5550807 69.4565597,94.5550807 L57.8534988,101.176653 C57.8534988,101.176653 55.3252927,102.560869 54.9213859,104.479722 C54.5174791,106.398576 56.865942,107.532236 56.865942,107.532236 Z" id="Path-43" fill-opacity="0.15" fill="#5D6063"></path>
            <path d="M56.865942,102.532236 L72.8197695,111.536404 C72.8197695,111.536404 75.734619,113.373654 78.7887949,113.320524 C81.8429708,113.267395 84.7425025,111.328999 84.7425025,111.328999 L95.7388485,104.399786 C95.7388485,104.399786 98.1829914,103.072507 98.2070257,101.640995 C98.23106,100.209483 98.1768678,97.5453387 98.1768678,97.5453387 L77.9430442,89.4212709 C77.9430442,89.4212709 75.9989804,88.2406027 73.819255,88.2749713 C71.6395296,88.3093399 69.4565597,89.5550807 69.4565597,89.5550807 L54.9044736,94.9732368 C54.9044736,94.9732368 54.9064219,97.5504323 54.9213859,99.4797223 C54.9363785,101.412704 56.865942,102.532236 56.865942,102.532236 Z" id="Path-43" stroke="#5D6063" stroke-width="2" stroke-linejoin="round" fill="#FFFFFF"></path>
            <path d="M56.865942,97.5322364 L72.8197695,106.536404 C72.8197695,106.536404 75.734619,108.373654 78.7887949,108.320524 C81.8429708,108.267395 84.7425025,106.328999 84.7425025,106.328999 L95.7388485,99.3997856 C95.7388485,99.3997856 98.4199181,98.1507581 98.2070257,96.6409949 C97.9941333,95.1312318 94.9471043,93.7849956 94.9471043,93.7849956 L77.9430442,84.4212709 C77.9430442,84.4212709 75.9989804,83.2406027 73.819255,83.2749713 C71.6395296,83.3093399 69.4565597,84.5550807 69.4565597,84.5550807 L57.8534988,91.1766526 C57.8534988,91.1766526 55.3252927,92.5608686 54.9213859,94.4797223 C54.5174791,96.3985759 56.865942,97.5322364 56.865942,97.5322364 Z" id="Path-43" stroke="#5D6063" stroke-width="2" stroke-linejoin="round" fill="#FFFFFF"></path>
            <path d="M63.4242943,91.7620828 L69.5564547,88.0434635 C69.5564547,88.0434635 71.9707544,86.338428 73.8254103,86.338428 C75.6800662,86.338428 77.6550551,87.6831013 77.6550551,87.6831013 L84.9590758,91.8100767" id="Path-255" stroke="#5D6063" stroke-linecap="round" stroke-linejoin="round"></path>
            <path d="M43.4183357,66.7299566 L64.3543637,54.080987 C64.3543637,54.080987 66.7686634,52.3759515 68.6233193,52.3759515 C70.4779752,52.3759515 72.4529641,53.7206247 72.4529641,53.7206247 L79.7569848,57.8476002" id="Path-255" stroke="#5D6063" stroke-linecap="round" stroke-linejoin="round"></path>
            <path d="M165.516705,48.5139448 L198.364918,48.5139448 C200.029234,48.5139448 201.362501,47.1680859 201.362501,45.5078847 L201.362501,13.6145648 C201.362501,11.9575794 200.020437,10.6085047 198.364918,10.6085047 L137.614564,10.6085047 C135.950248,10.6085047 134.616981,11.9543637 134.616981,13.6145648 L134.616981,45.5078847 C134.616981,47.1648701 135.959045,48.5139448 137.614564,48.5139448 L149.403512,48.5139448 C148.849033,49.6927152 148.21857,50.7765512 147.502321,51.6989451 C142.579699,58.0383595 128.994267,64.1263836 128.994267,64.1263836 C128.994267,64.1263836 146.592713,64.8692057 157.904612,56.0049044 C161.198238,53.4239327 163.668939,50.856672 165.516705,48.5139448 Z" id="Combined-Shape" stroke="#5D6063" stroke-width="2" stroke-linejoin="round" fill="#B2D6FF"></path>
            <path d="M156.660106,25.9867245 L156.660106,22.9767245 C156.660106,22.5707245 156.716106,22.1507245 156.674106,21.7447245 C156.674106,21.7027245 156.688106,21.6607245 156.688106,21.6047245 C156.688106,21.4227245 156.702106,21.2547245 156.716106,21.0447245 L156.716106,19.8127245 C156.716106,19.7427245 156.702106,19.2947245 156.702106,18.8047245 L156.702106,18.6927245 C156.716106,18.5947245 156.716106,18.5107245 156.716106,18.4127245 L156.716106,18.2587245 C156.716106,18.2027245 156.716106,18.1607245 156.702106,18.1467245 C156.744106,17.9787245 156.716106,17.7827245 156.646106,17.6567245 C156.632106,17.6147245 156.618106,17.5867245 156.576106,17.5727245 C156.562106,17.5587245 156.534106,17.5307245 156.492106,17.5167245 C156.058106,17.4467245 155.680106,17.4747245 155.246106,17.4887245 C155.204106,17.4887245 155.162106,17.5027245 155.120106,17.5027245 C154.966106,17.5447245 154.826106,17.6007245 154.756106,17.7827245 C154.756106,17.8247245 154.742106,17.8667245 154.742106,17.9227245 C154.728106,18.0067245 154.742106,18.1047245 154.770106,18.2167245 L154.770106,20.8487245 C154.756106,20.8627245 154.756106,20.8767245 154.756106,20.9047245 L154.756106,21.0447245 C154.756106,21.0867245 154.742106,21.1287245 154.742106,21.1707245 C154.728106,21.5767245 154.700106,21.9827245 154.714106,22.3887245 L154.714106,23.0327245 C154.714106,23.4387245 154.728106,25.2167245 154.728106,26.3927245 L154.728106,26.4907245 C154.728106,26.7707245 154.616106,27.1487245 154.770106,27.2747245 C154.812106,27.3167245 154.826106,27.3027245 154.868106,27.3447245 C155.022106,27.4007245 155.204106,27.4147245 155.400106,27.4007245 L155.540106,27.4007245 C155.932106,27.3167245 156.422106,27.5967245 156.604106,27.2607245 C156.716106,27.0227245 156.590106,26.7007245 156.632106,26.3787245 L156.632106,26.2527245 C156.632106,26.1547245 156.646106,26.0847245 156.660106,25.9867245 L156.660106,25.9867245 Z M159.894106,18.3147245 C159.880106,18.1047245 159.824106,17.8947245 159.670106,17.7407245 L159.614106,17.6987245 L159.502106,17.6007245 C159.320106,17.4747245 159.124106,17.4187245 158.914106,17.4187245 C158.858106,17.4187245 158.788106,17.4187245 158.732106,17.4327245 L158.592106,17.4747245 C158.214106,17.6287245 157.976106,18.0207245 157.990106,18.4127245 C157.990106,18.4547245 158.004106,18.5107245 158.004106,18.5527245 C158.046106,18.7067245 158.102106,18.8467245 158.172106,18.9447245 L158.242106,19.0147245 L158.452106,19.1967245 L158.564106,19.2387245 L158.662106,19.2667245 C158.662106,19.2947245 158.662106,19.3227245 158.648106,19.3507245 C158.648106,19.3927245 158.634106,19.4347245 158.606106,19.4627245 C158.606106,19.5047245 158.592106,19.5047245 158.592106,19.5187245 C158.522106,19.6167245 158.480106,19.7147245 158.438106,19.8127245 L158.396106,19.8967245 C158.382106,19.9387245 158.354106,19.9947245 158.312106,20.0367245 L158.270106,20.1067245 C158.214106,20.2047245 158.130106,20.2747245 158.060106,20.3727245 C158.046106,20.4147245 158.032106,20.4427245 158.032106,20.4567245 C157.990106,20.5267245 158.004106,20.5967245 158.046106,20.6807245 L158.088106,20.7367245 C158.200106,20.8347245 158.326106,20.9187245 158.480106,20.9607245 L158.550106,20.9607245 C158.844106,20.9047245 158.998106,20.6107245 159.180106,20.4007245 L159.222106,20.3447245 C159.334106,20.2047245 159.432106,20.0367245 159.530106,19.8407245 C159.642106,19.6027245 159.726106,19.3507245 159.824106,19.0847245 C159.866106,18.9307245 159.894106,18.8187245 159.894106,18.6647245 L159.894106,18.5667245 C159.908106,18.4967245 159.950106,18.4407245 159.908106,18.3707245 C159.908106,18.3427245 159.908106,18.3287245 159.894106,18.3147245 L159.894106,18.3147245 Z M169.736106,26.3927245 C169.736106,25.2167245 169.750106,23.4387245 169.750106,23.0327245 L169.750106,22.2627245 L169.708106,21.0447245 L169.708106,20.9047245 C169.694106,20.8907245 169.694106,20.8767245 169.694106,20.8627245 L169.694106,18.2167245 C169.722106,18.1047245 169.736106,18.0067245 169.722106,17.9227245 C169.722106,17.8667245 169.708106,17.8247245 169.708106,17.7827245 C169.638106,17.6007245 169.498106,17.5447245 169.344106,17.5027245 C169.302106,17.5027245 169.260106,17.4887245 169.218106,17.4887245 C169.092106,17.4887245 168.966106,17.4747245 168.854106,17.4747245 L168.728106,17.4747245 C168.490106,17.4607245 168.252106,17.4467245 168.042106,17.5447245 C168.000106,17.5587245 167.972106,17.5867245 167.958106,17.6007245 L167.902106,17.6707245 C167.720106,18.0067245 167.510106,18.3147245 167.342106,18.6507245 C167.328106,18.6927245 167.300106,18.7347245 167.272106,18.7627245 C167.160106,18.9727245 167.062106,19.1687245 166.908106,19.3367245 C166.894106,19.3787245 166.880106,19.4067245 166.838106,19.4487245 C166.684106,19.6727245 166.558106,19.8967245 166.460106,20.1627245 C166.418106,20.2047245 166.432106,20.2327245 166.390106,20.2747245 L166.306106,20.4287245 C166.264106,20.5267245 166.194106,20.5967245 166.152106,20.6947245 C166.138106,20.7227245 166.110106,20.7507245 166.096106,20.7927245 L166.068106,20.8347245 C165.858106,21.1847245 165.718106,21.5487245 165.508106,21.8987245 L165.452106,22.0107245 L165.410106,22.1367245 C165.410106,22.0947245 165.396106,22.0527245 165.396106,22.0107245 C165.382106,21.9687245 165.368106,21.9407245 165.368106,21.9127245 C165.144106,21.6327245 165.018106,21.2827245 164.864106,20.9607245 L164.808106,20.8487245 C164.766106,20.7787245 164.724106,20.6947245 164.668106,20.6247245 C164.570106,20.4987245 164.528106,20.3867245 164.472106,20.2327245 L164.430106,20.1207245 L164.108106,19.4347245 C164.066106,19.3927245 164.066106,19.3787245 164.052106,19.3367245 L163.926106,19.1407245 L163.884106,19.0707245 L163.800106,18.9167245 L163.744106,18.8047245 C163.576106,18.5247245 163.380106,18.2587245 163.226106,17.9647245 L163.156106,17.8527245 L163.100106,17.7407245 L163.058106,17.6707245 L163.002106,17.6007245 C162.988106,17.5867245 162.960106,17.5587245 162.918106,17.5447245 C162.708106,17.4467245 162.470106,17.4607245 162.232106,17.4747245 L162.106106,17.4747245 C161.994106,17.4747245 161.868106,17.4887245 161.742106,17.4887245 C161.700106,17.4887245 161.658106,17.5027245 161.616106,17.5027245 L161.462106,17.5447245 C161.406106,17.5867245 161.364106,17.6147245 161.350106,17.6427245 C161.182106,17.8247245 161.266106,18.1047245 161.266106,18.3427245 L161.266106,20.8627245 C161.266106,20.8767245 161.252106,20.8907245 161.252106,20.9047245 L161.252106,21.0447245 L161.210106,22.2627245 L161.210106,23.0327245 C161.210106,23.4387245 161.224106,25.2167245 161.224106,26.3927245 L161.224106,26.4907245 C161.224106,26.7707245 161.112106,27.1487245 161.266106,27.2747245 L161.364106,27.3447245 C161.518106,27.4007245 161.700106,27.4147245 161.896106,27.4007245 L162.036106,27.4007245 C162.260106,27.3447245 162.526106,27.4427245 162.764106,27.4427245 C162.806106,27.4427245 162.820106,27.4287245 162.862106,27.4287245 C163.254106,27.2747245 163.016106,26.7427245 163.128106,26.4067245 L163.128106,26.3227245 C163.128106,26.2107245 163.142106,26.0987245 163.156106,25.9867245 L163.156106,23.6067245 C163.170106,23.2847245 163.170106,22.9627245 163.156106,22.6407245 C163.156106,22.5987245 163.156106,22.5707245 163.170106,22.5567245 L163.170106,22.3747245 C163.184106,22.1087245 163.156106,21.8707245 163.142106,21.6047245 C163.296106,21.8707245 163.408106,22.1507245 163.576106,22.4167245 L163.632106,22.5007245 C163.842106,22.7807245 163.996106,23.0887245 164.150106,23.4107245 L164.220106,23.5087245 C164.374106,23.7327245 164.528106,23.9427245 164.626106,24.2087245 C164.640106,24.2507245 164.654106,24.2927245 164.682106,24.3067245 C164.696106,24.3347245 164.724106,24.3627245 164.766106,24.4047245 C164.864106,24.5587245 164.948106,24.7407245 165.046106,24.8947245 C165.172106,25.1047245 165.452106,25.1187245 165.676106,25.0627245 C165.718106,25.0487245 165.746106,25.0627245 165.788106,25.0207245 L165.900106,24.9647245 C165.970106,24.9087245 166.026106,24.8387245 166.068106,24.7407245 C166.082106,24.6987245 166.082106,24.6847245 166.124106,24.6427245 C166.236106,24.4327245 166.362106,24.2507245 166.460106,24.0267245 L166.502106,23.9287245 C166.600106,23.6627245 166.740106,23.4667245 166.922106,23.2567245 L166.964106,23.1727245 L167.048106,22.9767245 C167.090106,22.9347245 167.090106,22.9207245 167.104106,22.8787245 L167.146106,22.7807245 C167.160106,22.7387245 167.160106,22.7247245 167.202106,22.6827245 C167.216106,22.6407245 167.244106,22.6127245 167.258106,22.5987245 C167.496106,22.2767245 167.608106,21.9407245 167.818106,21.6047245 C167.804106,21.8707245 167.776106,22.1087245 167.790106,22.3747245 L167.790106,22.4727245 C167.804106,22.6407245 167.804106,22.8087245 167.804106,22.9767245 L167.804106,25.9867245 C167.846106,26.1547245 167.832106,26.3227245 167.832106,26.4907245 L167.832106,26.6167245 C167.818106,26.8267245 167.790106,27.0087245 167.832106,27.1627245 C167.832106,27.1907245 167.846106,27.2187245 167.860106,27.2607245 C167.902106,27.3447245 167.972106,27.4007245 168.056106,27.4147245 L168.168106,27.4427245 L169.246106,27.4007245 L169.330106,27.4007245 C169.442106,27.3867245 169.526106,27.3587245 169.596106,27.3447245 L169.694106,27.2747245 C169.848106,27.1487245 169.736106,26.7707245 169.736106,26.4907245 L169.736106,26.3927245 Z M182.490106,22.2767245 C182.504106,21.8287245 182.532106,21.3667245 182.490106,20.9047245 C182.476106,20.7227245 182.476106,20.5407245 182.434106,20.3307245 C182.420106,20.2747245 182.420106,20.2047245 182.420106,20.1487245 L182.350106,19.7147245 C182.350106,19.6727245 182.336106,19.6167245 182.336106,19.5747245 C182.322106,19.4067245 182.280106,19.2667245 182.238106,19.1127245 L182.182106,18.9587245 C181.972106,18.5527245 181.692106,18.1887245 181.370106,17.8667245 L181.300106,17.8107245 C180.852106,17.4327245 180.264106,17.3487245 179.704106,17.2927245 L179.494106,17.2927245 C178.864106,17.3347245 178.220106,17.2507245 177.618106,17.4747245 L177.436106,17.5447245 C177.114106,17.6987245 176.820106,17.8387245 176.596106,18.1047245 L176.484106,18.2307245 C176.386106,18.3567245 176.288106,18.4827245 176.218106,18.6367245 C176.120106,18.8187245 176.022106,19.0287245 175.952106,19.2667245 C175.826106,19.6167245 175.770106,19.9947245 175.728106,20.3727245 C175.686106,20.7227245 175.658106,21.0727245 175.644106,21.4087245 C175.630106,21.8707245 175.602106,22.3467245 175.602106,22.8087245 C175.602106,23.0327245 175.588106,23.2707245 175.588106,23.4947245 L175.588106,23.6627245 C175.574106,23.9287245 175.588106,24.1947245 175.602106,24.4607245 C175.616106,24.4887245 175.616106,24.5307245 175.616106,24.5867245 C175.616106,24.9787245 175.630106,25.3567245 175.588106,25.7487245 L175.588106,25.8607245 C175.574106,25.9027245 175.574106,25.9727245 175.574106,26.0707245 C175.574106,26.1407245 175.574106,26.1827245 175.560106,26.2247245 C175.574106,26.5467245 175.448106,26.8687245 175.616106,27.1627245 C175.770106,27.4287245 176.134106,27.3727245 176.400106,27.3867245 C176.442106,27.3727245 176.484106,27.3727245 176.554106,27.3727245 C176.792106,27.3587245 177.030106,27.3167245 177.296106,27.3307245 C177.338106,27.3307245 177.380106,27.3167245 177.422106,27.2747245 C177.520106,27.1767245 177.520106,26.9807245 177.534106,26.8267245 L177.534106,26.6587245 C177.520106,26.5607245 177.520106,26.4487245 177.534106,26.3507245 L177.534106,26.1267245 C177.534106,25.9727245 177.548106,25.8467245 177.562106,25.6927245 C177.562106,25.6227245 177.562106,25.5807245 177.576106,25.5527245 C177.576106,25.1047245 177.562106,24.6427245 177.576106,24.1947245 C177.562106,24.1807245 177.562106,24.1667245 177.562106,24.1247245 C178.024106,24.1247245 178.472106,24.1387245 178.934106,24.1387245 L179.830106,24.1387245 C180.040106,24.1387245 180.236106,24.1667245 180.446106,24.1807245 L180.446106,24.2787245 C180.446106,24.4887245 180.432106,24.6567245 180.432106,24.8667245 C180.418106,24.9087245 180.418106,24.9787245 180.418106,25.0627245 C180.418106,25.1327245 180.432106,25.2027245 180.432106,25.2727245 L180.432106,25.4967245 C180.474106,25.9867245 180.334106,26.4627245 180.404106,26.9527245 C180.432106,27.1487245 180.530106,27.2747245 180.698106,27.3167245 C180.740106,27.3587245 180.796106,27.3447245 180.866106,27.3587245 C181.034106,27.3727245 181.244106,27.3867245 181.468106,27.3867245 L181.622106,27.3867245 C181.916106,27.3447245 182.364106,27.4707245 182.448106,27.0787245 C182.546106,26.6727245 182.462106,26.2667245 182.448106,25.8607245 C182.448106,25.8187245 182.448106,25.7767245 182.434106,25.7627245 L182.434106,25.2727245 C182.434106,25.1467245 182.434106,25.0067245 182.448106,24.8807245 C182.462106,24.8387245 182.462106,24.7687245 182.462106,24.6707245 C182.476106,24.2927245 182.476106,23.9707245 182.476106,23.5927245 C182.476106,23.5227245 182.476106,23.4667245 182.462106,23.3687245 L182.462106,22.9767245 C182.476106,22.7387245 182.490106,22.5147245 182.490106,22.2767245 L182.490106,22.2767245 Z M179.844106,22.1787245 C179.550106,22.1647245 179.256106,22.1787245 178.934106,22.1787245 C178.486106,22.1787245 178.024106,22.1647245 177.576106,22.1647245 C177.590106,21.7587245 177.590106,21.3667245 177.632106,20.9607245 C177.632106,20.8207245 177.646106,20.6667245 177.674106,20.5127245 C177.674106,20.4707245 177.688106,20.4287245 177.688106,20.3867245 C177.702106,20.2187245 177.744106,20.0647245 177.786106,19.9247245 C177.814106,19.8547245 177.856106,19.7987245 177.898106,19.7287245 C177.912106,19.7007245 177.926106,19.6587245 177.968106,19.6027245 L178.066106,19.5047245 C178.178106,19.3787245 178.304106,19.2947245 178.458106,19.2527245 L178.598106,19.2107245 C179.004106,19.1687245 179.452106,19.1967245 179.830106,19.3787245 L179.914106,19.4347245 L179.998106,19.5047245 C180.040106,19.5607245 180.082106,19.6027245 180.124106,19.6727245 C180.306106,19.8967245 180.348106,20.1627245 180.390106,20.4427245 C180.446106,20.5547245 180.460106,20.7227245 180.460106,20.8347245 L180.488106,20.9887245 C180.474106,21.2267245 180.474106,21.4647245 180.488106,21.7167245 C180.488106,21.7587245 180.502106,21.8147245 180.502106,21.8567245 C180.502106,21.9827245 180.516106,22.0947245 180.516106,22.2207245 C180.292106,22.2067245 180.068106,22.1787245 179.844106,22.1787245 L179.844106,22.1787245 Z M150.052106,32.2587245 C150.052106,32.2027245 150.052106,32.1607245 150.038106,32.1467245 C150.080106,31.9787245 150.052106,31.7827245 149.982106,31.6567245 C149.968106,31.6147245 149.954106,31.5867245 149.912106,31.5727245 C149.898106,31.5587245 149.870106,31.5307245 149.828106,31.5167245 C149.394106,31.4467245 149.016106,31.4747245 148.582106,31.4887245 C148.540106,31.4887245 148.498106,31.5027245 148.456106,31.5027245 C148.302106,31.5447245 148.162106,31.6007245 148.092106,31.7827245 C148.092106,31.8247245 148.078106,31.8667245 148.078106,31.9227245 C148.064106,32.0067245 148.078106,32.1047245 148.106106,32.2167245 L148.106106,34.8487245 C148.092106,34.8627245 148.092106,34.8767245 148.092106,34.9047245 L148.092106,35.0447245 C148.092106,35.0867245 148.078106,35.1287245 148.078106,35.1707245 C148.078106,35.3247245 148.064106,35.4227245 148.064106,35.5767245 C147.182106,35.5627245 146.328106,35.5487245 145.446106,35.5487245 L145.376106,35.5487245 C145.376106,35.3807245 145.390106,35.2267245 145.404106,35.0447245 L145.404106,33.8127245 C145.404106,33.7427245 145.390106,33.2947245 145.390106,32.8047245 L145.390106,32.6927245 C145.404106,32.5947245 145.404106,32.5107245 145.404106,32.4127245 L145.404106,32.2587245 C145.404106,32.2027245 145.404106,32.1607245 145.390106,32.1467245 C145.432106,31.9787245 145.404106,31.7827245 145.334106,31.6567245 C145.320106,31.6147245 145.306106,31.5867245 145.264106,31.5727245 C145.250106,31.5587245 145.222106,31.5307245 145.180106,31.5167245 C144.746106,31.4467245 144.368106,31.4747245 143.934106,31.4887245 C143.892106,31.4887245 143.850106,31.5027245 143.808106,31.5027245 C143.654106,31.5447245 143.514106,31.6007245 143.444106,31.7827245 C143.444106,31.8247245 143.430106,31.8667245 143.430106,31.9227245 C143.416106,32.0067245 143.430106,32.1047245 143.458106,32.2167245 L143.458106,34.8487245 C143.444106,34.8627245 143.444106,34.8767245 143.444106,34.9047245 L143.444106,35.0447245 C143.444106,35.0867245 143.430106,35.1287245 143.430106,35.1707245 C143.416106,35.5767245 143.388106,35.9827245 143.402106,36.3887245 L143.402106,37.0327245 C143.402106,37.4387245 143.416106,39.2167245 143.416106,40.3927245 L143.416106,40.4907245 C143.416106,40.7707245 143.304106,41.1487245 143.458106,41.2747245 L143.556106,41.3447245 C143.710106,41.4007245 143.892106,41.4147245 144.088106,41.4007245 L144.228106,41.4007245 C144.620106,41.3167245 145.110106,41.5967245 145.292106,41.2607245 C145.404106,41.0227245 145.278106,40.7007245 145.320106,40.3787245 L145.320106,40.2527245 C145.320106,40.1547245 145.334106,40.0847245 145.348106,39.9867245 L145.348106,37.4947245 C145.362106,37.5087245 145.404106,37.5087245 145.446106,37.5087245 C146.328106,37.5087245 147.168106,37.5227245 148.050106,37.5367245 C148.050106,38.2367245 148.064106,39.4827245 148.064106,40.3927245 L148.064106,40.4907245 C148.064106,40.7707245 147.952106,41.1487245 148.106106,41.2747245 L148.204106,41.3447245 C148.358106,41.4007245 148.540106,41.4147245 148.736106,41.4007245 L148.876106,41.4007245 C149.268106,41.3167245 149.758106,41.5967245 149.940106,41.2607245 C150.052106,41.0227245 149.926106,40.7007245 149.968106,40.3787245 L149.968106,40.2527245 C149.968106,40.1547245 149.982106,40.0847245 149.996106,39.9867245 L149.996106,36.9767245 C149.996106,36.5707245 150.052106,36.1507245 150.010106,35.7447245 C150.010106,35.7027245 150.024106,35.6607245 150.024106,35.6047245 C150.024106,35.4227245 150.038106,35.2547245 150.052106,35.0447245 L150.052106,33.8127245 C150.052106,33.7427245 150.038106,33.2947245 150.038106,32.8047245 L150.038106,32.6927245 C150.052106,32.5947245 150.052106,32.5107245 150.052106,32.4127245 L150.052106,32.2587245 Z M157.668106,39.6507245 C157.654106,39.5807245 157.598106,39.5107245 157.514106,39.4687245 C157.276106,39.3567245 156.954106,39.4827245 156.632106,39.4407245 L156.506106,39.4407245 C156.408106,39.4407245 156.338106,39.4267245 156.240106,39.4127245 L153.706106,39.4127245 L153.706106,38.5727245 C153.706106,38.1387245 153.720106,37.7467245 153.706106,37.3127245 L153.706106,37.1867245 C154.350106,37.1867245 155.512106,37.1727245 156.478106,37.1727245 L156.646106,37.1727245 C156.982106,37.1307245 157.626106,37.3267245 157.556106,36.7667245 L157.556106,36.6267245 C157.556106,36.5287245 157.556106,36.4447245 157.570106,36.3467245 L157.570106,36.1927245 L157.612106,35.7307245 L157.612106,35.6327245 C157.626106,35.5067245 157.584106,35.3947245 157.486106,35.3247245 C157.276106,35.1987245 157.038106,35.3107245 156.800106,35.2687245 L156.506106,35.2687245 C156.408106,35.2687245 156.338106,35.2547245 156.240106,35.2407245 L153.748106,35.2407245 C153.748106,35.1847245 153.748106,35.1147245 153.762106,35.0447245 L153.762106,33.8127245 C153.762106,33.7707245 153.748106,33.6307245 153.748106,33.4487245 C154.462106,33.4487245 155.680106,33.4347245 156.646106,33.4347245 L156.744106,33.4347245 C157.024106,33.4347245 157.402106,33.5467245 157.528106,33.3927245 L157.598106,33.2947245 C157.612106,33.2247245 157.640106,33.1407245 157.654106,33.0287245 L157.654106,32.9447245 C157.668106,32.6787245 157.612106,32.4407245 157.668106,32.1747245 C157.668106,32.1187245 157.682106,32.0627245 157.682106,32.0207245 C157.696106,31.8107245 157.682106,31.6567245 157.514106,31.5587245 C157.276106,31.4467245 156.954106,31.5727245 156.632106,31.5307245 L156.506106,31.5307245 C156.408106,31.5307245 156.338106,31.5167245 156.240106,31.5027245 L153.454106,31.5027245 C153.062106,31.4467245 152.684106,31.4747245 152.292106,31.4887245 C152.250106,31.4887245 152.208106,31.5027245 152.166106,31.5027245 C152.012106,31.5447245 151.872106,31.6007245 151.802106,31.7827245 C151.802106,31.8247245 151.788106,31.8667245 151.788106,31.9227245 C151.774106,32.0067245 151.788106,32.1047245 151.816106,32.2167245 L151.816106,32.7207245 C151.816106,33.1127245 151.802106,33.5187245 151.816106,33.8687245 L151.816106,33.9667245 C151.774106,34.4707245 151.788106,34.9747245 151.774106,35.4787245 L151.774106,35.6327245 C151.760106,35.8987245 151.746106,36.1227245 151.760106,36.3887245 L151.760106,37.0327245 C151.760106,37.4387245 151.774106,39.2167245 151.774106,40.3927245 L151.774106,40.4907245 C151.774106,40.7287245 151.704106,41.0227245 151.760106,41.1907245 C151.774106,41.2327245 151.802106,41.2607245 151.816106,41.2747245 C152.026106,41.3867245 152.222106,41.3867245 152.446106,41.3727245 L152.586106,41.3727245 C153.020106,41.3307245 153.440106,41.3727245 153.874106,41.3587245 L154.182106,41.3587245 C154.896106,41.3587245 155.862106,41.3447245 156.646106,41.3447245 L156.744106,41.3447245 C157.024106,41.3447245 157.402106,41.4567245 157.528106,41.3027245 L157.598106,41.2047245 L157.626106,41.1207245 C157.752106,40.6727245 157.654106,40.2247245 157.696106,39.7907245 L157.668106,39.6507245 Z M166.082106,36.2767245 C166.096106,35.8287245 166.124106,35.3667245 166.082106,34.9047245 C166.068106,34.7227245 166.068106,34.5407245 166.026106,34.3307245 C166.012106,34.2747245 166.012106,34.2047245 166.012106,34.1487245 L165.942106,33.7147245 C165.942106,33.6727245 165.928106,33.6167245 165.928106,33.5747245 C165.914106,33.4067245 165.872106,33.2667245 165.830106,33.1127245 L165.774106,32.9587245 C165.564106,32.5527245 165.284106,32.1887245 164.962106,31.8667245 L164.892106,31.8107245 C164.444106,31.4327245 163.856106,31.3487245 163.296106,31.2927245 L163.086106,31.2927245 C162.456106,31.3347245 161.812106,31.2507245 161.210106,31.4747245 L161.028106,31.5447245 C160.706106,31.6987245 160.412106,31.8387245 160.188106,32.1047245 L160.076106,32.2307245 C159.978106,32.3567245 159.880106,32.4827245 159.810106,32.6367245 C159.712106,32.8187245 159.614106,33.0287245 159.544106,33.2667245 C159.418106,33.6167245 159.362106,33.9947245 159.320106,34.3727245 C159.278106,34.7227245 159.250106,35.0727245 159.236106,35.4087245 C159.222106,35.8707245 159.194106,36.3467245 159.194106,36.8087245 C159.194106,37.0327245 159.180106,37.2707245 159.180106,37.4947245 L159.180106,37.6627245 C159.166106,37.9287245 159.180106,38.1947245 159.194106,38.4607245 C159.208106,38.4887245 159.208106,38.5307245 159.208106,38.5867245 C159.208106,38.9787245 159.222106,39.3567245 159.180106,39.7487245 L159.180106,39.8607245 C159.166106,39.9027245 159.166106,39.9727245 159.166106,40.0707245 C159.166106,40.1407245 159.166106,40.1827245 159.152106,40.2247245 C159.166106,40.5467245 159.040106,40.8687245 159.208106,41.1627245 C159.362106,41.4287245 159.726106,41.3727245 159.992106,41.3867245 C160.034106,41.3727245 160.076106,41.3727245 160.146106,41.3727245 C160.384106,41.3587245 160.622106,41.3167245 160.888106,41.3307245 C160.930106,41.3307245 160.972106,41.3167245 161.014106,41.2747245 C161.112106,41.1767245 161.112106,40.9807245 161.126106,40.8267245 L161.126106,40.6587245 C161.112106,40.5607245 161.112106,40.4487245 161.126106,40.3507245 L161.126106,40.1267245 C161.126106,39.9727245 161.140106,39.8467245 161.154106,39.6927245 C161.154106,39.6227245 161.154106,39.5807245 161.168106,39.5527245 C161.168106,39.1047245 161.154106,38.6427245 161.168106,38.1947245 C161.154106,38.1807245 161.154106,38.1667245 161.154106,38.1247245 C161.616106,38.1247245 162.064106,38.1387245 162.526106,38.1387245 L163.422106,38.1387245 C163.632106,38.1387245 163.828106,38.1667245 164.038106,38.1807245 L164.038106,38.2787245 C164.038106,38.4887245 164.024106,38.6567245 164.024106,38.8667245 C164.010106,38.9087245 164.010106,38.9787245 164.010106,39.0627245 C164.010106,39.1327245 164.024106,39.2027245 164.024106,39.2727245 L164.024106,39.4967245 C164.066106,39.9867245 163.926106,40.4627245 163.996106,40.9527245 C164.024106,41.1487245 164.122106,41.2747245 164.290106,41.3167245 C164.332106,41.3587245 164.388106,41.3447245 164.458106,41.3587245 C164.626106,41.3727245 164.836106,41.3867245 165.060106,41.3867245 L165.214106,41.3867245 C165.508106,41.3447245 165.956106,41.4707245 166.040106,41.0787245 C166.138106,40.6727245 166.054106,40.2667245 166.040106,39.8607245 C166.040106,39.8187245 166.040106,39.7767245 166.026106,39.7627245 L166.026106,39.2727245 C166.026106,39.1467245 166.026106,39.0067245 166.040106,38.8807245 C166.054106,38.8387245 166.054106,38.7687245 166.054106,38.6707245 C166.068106,38.2927245 166.068106,37.9707245 166.068106,37.5927245 C166.068106,37.5227245 166.068106,37.4667245 166.054106,37.3687245 L166.054106,36.9767245 C166.068106,36.7387245 166.082106,36.5147245 166.082106,36.2767245 L166.082106,36.2767245 Z M163.436106,36.1787245 C163.142106,36.1647245 162.848106,36.1787245 162.526106,36.1787245 C162.078106,36.1787245 161.616106,36.1647245 161.168106,36.1647245 C161.182106,35.7587245 161.182106,35.3667245 161.224106,34.9607245 C161.224106,34.8207245 161.238106,34.6667245 161.266106,34.5127245 C161.266106,34.4707245 161.280106,34.4287245 161.280106,34.3867245 C161.294106,34.2187245 161.336106,34.0647245 161.378106,33.9247245 C161.406106,33.8547245 161.448106,33.7987245 161.490106,33.7287245 C161.504106,33.7007245 161.518106,33.6587245 161.560106,33.6027245 L161.658106,33.5047245 C161.770106,33.3787245 161.896106,33.2947245 162.050106,33.2527245 L162.190106,33.2107245 C162.596106,33.1687245 163.044106,33.1967245 163.422106,33.3787245 L163.506106,33.4347245 L163.590106,33.5047245 C163.632106,33.5607245 163.674106,33.6027245 163.716106,33.6727245 C163.898106,33.8967245 163.940106,34.1627245 163.982106,34.4427245 C164.038106,34.5547245 164.052106,34.7227245 164.052106,34.8347245 L164.080106,34.9887245 C164.066106,35.2267245 164.066106,35.4647245 164.080106,35.7167245 C164.080106,35.7587245 164.094106,35.8147245 164.094106,35.8567245 C164.094106,35.9827245 164.108106,36.0947245 164.108106,36.2207245 C163.884106,36.2067245 163.660106,36.1787245 163.436106,36.1787245 L163.436106,36.1787245 Z M174.426106,36.3607245 C174.440106,35.9127245 174.468106,35.4507245 174.426106,34.9887245 L174.398106,34.7087245 L174.398106,34.6107245 L174.370106,34.3447245 C174.300106,33.9387245 174.300106,33.5187245 174.076106,33.1407245 C174.034106,33.0427245 173.978106,32.9447245 173.936106,32.8747245 C173.866106,32.7067245 173.754106,32.5387245 173.614106,32.3707245 L173.516106,32.2727245 L173.432106,32.2027245 C173.390106,32.1607245 173.404106,32.1467245 173.362106,32.1327245 C173.040106,31.9787245 172.802106,31.7827245 172.480106,31.6707245 L172.340106,31.6147245 C171.948106,31.6007245 171.584106,31.4607245 171.178106,31.4747245 C171.136106,31.4747245 171.108106,31.4607245 171.066106,31.4607245 L170.954106,31.4607245 C170.912106,31.4607245 170.870106,31.4607245 170.842106,31.4467245 C170.394106,31.3487245 169.960106,31.4607245 169.512106,31.4467245 L169.372106,31.4467245 C168.910106,31.5027245 168.420106,31.3627245 167.972106,31.5167245 L167.874106,31.6007245 L167.818106,31.7127245 C167.748106,31.8667245 167.720106,32.0347245 167.734106,32.2167245 L167.734106,32.3007245 C167.734106,33.2107245 167.720106,34.8067245 167.720106,34.8487245 L167.692106,35.2267245 C167.692106,35.2687245 167.678106,35.3107245 167.678106,35.3527245 C167.678106,35.3947245 167.664106,35.4367245 167.664106,35.4787245 L167.664106,35.6187245 C167.622106,36.0527245 167.678106,36.4727245 167.664106,36.9067245 L167.664106,37.0327245 C167.664106,37.8587245 167.678106,39.4547245 167.678106,40.4067245 L167.678106,40.5607245 C167.678106,40.9947245 167.818106,41.4567245 168.336106,41.3447245 L169.050106,41.3447245 C169.568106,41.3447245 170.086106,41.4147245 170.590106,41.3727245 L170.730106,41.3727245 C170.940106,41.3727245 171.108106,41.3587245 171.290106,41.3447245 L171.640106,41.3447245 C172.074106,41.2467245 172.522106,41.1767245 172.914106,40.9387245 L173.026106,40.8547245 C173.194106,40.7427245 173.362106,40.6027245 173.516106,40.4487245 L173.614106,40.3507245 C173.894106,40.0007245 174.076106,39.5947245 174.258106,39.1887245 C174.258106,39.1467245 174.272106,39.1047245 174.272106,39.0627245 C174.272106,39.0207245 174.286106,38.9647245 174.286106,38.9227245 L174.356106,38.4887245 C174.356106,38.4327245 174.356106,38.3627245 174.370106,38.3067245 C174.412106,38.0967245 174.412106,37.9147245 174.426106,37.7327245 C174.468106,37.2707245 174.440106,36.9627245 174.426106,36.5147245 L174.426106,36.3607245 Z M172.410106,37.4667245 C172.410106,37.5507245 172.410106,37.6067245 172.424106,37.6487245 L172.396106,37.8027245 C172.396106,37.9147245 172.382106,38.0827245 172.326106,38.1947245 C172.312106,38.3487245 172.298106,38.4747245 172.256106,38.6007245 C172.242106,38.6567245 172.214106,38.6987245 172.200106,38.7267245 C172.018106,39.1047245 171.640106,39.3567245 171.206106,39.3147245 L171.052106,39.3147245 L170.114106,39.3567245 L170.114106,39.3707245 C169.946106,39.3707245 169.778106,39.3987245 169.666106,39.3007245 C169.568106,39.2447245 169.624106,39.0207245 169.610106,38.8527245 L169.610106,36.9767245 C169.610106,36.5707245 169.666106,36.1507245 169.624106,35.7447245 C169.624106,35.7027245 169.638106,35.6607245 169.638106,35.6047245 C169.638106,35.4227245 169.652106,35.2547245 169.666106,35.0447245 L169.666106,33.8127245 C169.666106,33.6587245 169.624106,33.4767245 169.680106,33.3647245 C169.722106,33.3087245 169.862106,33.3087245 169.974106,33.3087245 C170.016106,33.3087245 170.058106,33.3087245 170.072106,33.2947245 L170.114106,33.2947245 L170.114106,33.3087245 C170.548106,33.3507245 170.940106,33.3367245 171.262106,33.3787245 C171.332106,33.3787245 171.374106,33.3787245 171.402106,33.3927245 C171.836106,33.3787245 172.102106,33.7707245 172.256106,34.1207245 L172.284106,34.2467245 L172.326106,34.5267245 C172.382106,34.6387245 172.396106,34.8067245 172.396106,34.9187245 L172.424106,35.0727245 C172.410106,35.1847245 172.410106,35.3107245 172.410106,35.4367245 L172.410106,35.5767245 C172.396106,35.8147245 172.424106,36.0387245 172.438106,36.2767245 L172.438106,36.4167245 L172.452106,36.5427245 C172.410106,36.8087245 172.368106,37.0607245 172.410106,37.3267245 L172.410106,37.4667245 Z M181.930106,39.6507245 C181.916106,39.5807245 181.860106,39.5107245 181.776106,39.4687245 C181.538106,39.3567245 181.216106,39.4827245 180.894106,39.4407245 L180.768106,39.4407245 C180.670106,39.4407245 180.600106,39.4267245 180.502106,39.4127245 L177.968106,39.4127245 L177.968106,38.5727245 C177.968106,38.1387245 177.982106,37.7467245 177.968106,37.3127245 L177.968106,37.1867245 C178.612106,37.1867245 179.774106,37.1727245 180.740106,37.1727245 L180.908106,37.1727245 C181.244106,37.1307245 181.888106,37.3267245 181.818106,36.7667245 L181.818106,36.6267245 C181.818106,36.5287245 181.818106,36.4447245 181.832106,36.3467245 L181.832106,36.1927245 L181.874106,35.7307245 L181.874106,35.6327245 C181.888106,35.5067245 181.846106,35.3947245 181.748106,35.3247245 C181.538106,35.1987245 181.300106,35.3107245 181.062106,35.2687245 L180.768106,35.2687245 C180.670106,35.2687245 180.600106,35.2547245 180.502106,35.2407245 L178.010106,35.2407245 C178.010106,35.1847245 178.010106,35.1147245 178.024106,35.0447245 L178.024106,33.8127245 C178.024106,33.7707245 178.010106,33.6307245 178.010106,33.4487245 C178.724106,33.4487245 179.942106,33.4347245 180.908106,33.4347245 L181.006106,33.4347245 C181.286106,33.4347245 181.664106,33.5467245 181.790106,33.3927245 L181.860106,33.2947245 C181.874106,33.2247245 181.902106,33.1407245 181.916106,33.0287245 L181.916106,32.9447245 C181.930106,32.6787245 181.874106,32.4407245 181.930106,32.1747245 C181.930106,32.1187245 181.944106,32.0627245 181.944106,32.0207245 C181.958106,31.8107245 181.944106,31.6567245 181.776106,31.5587245 C181.538106,31.4467245 181.216106,31.5727245 180.894106,31.5307245 L180.768106,31.5307245 C180.670106,31.5307245 180.600106,31.5167245 180.502106,31.5027245 L177.716106,31.5027245 C177.324106,31.4467245 176.946106,31.4747245 176.554106,31.4887245 C176.512106,31.4887245 176.470106,31.5027245 176.428106,31.5027245 C176.274106,31.5447245 176.134106,31.6007245 176.064106,31.7827245 C176.064106,31.8247245 176.050106,31.8667245 176.050106,31.9227245 C176.036106,32.0067245 176.050106,32.1047245 176.078106,32.2167245 L176.078106,32.7207245 C176.078106,33.1127245 176.064106,33.5187245 176.078106,33.8687245 L176.078106,33.9667245 C176.036106,34.4707245 176.050106,34.9747245 176.036106,35.4787245 L176.036106,35.6327245 C176.022106,35.8987245 176.008106,36.1227245 176.022106,36.3887245 L176.022106,37.0327245 C176.022106,37.4387245 176.036106,39.2167245 176.036106,40.3927245 L176.036106,40.4907245 C176.036106,40.7287245 175.966106,41.0227245 176.022106,41.1907245 C176.036106,41.2327245 176.064106,41.2607245 176.078106,41.2747245 C176.288106,41.3867245 176.484106,41.3867245 176.708106,41.3727245 L176.848106,41.3727245 C177.282106,41.3307245 177.702106,41.3727245 178.136106,41.3587245 L178.444106,41.3587245 C179.158106,41.3587245 180.124106,41.3447245 180.908106,41.3447245 L181.006106,41.3447245 C181.286106,41.3447245 181.664106,41.4567245 181.790106,41.3027245 L181.860106,41.2047245 L181.888106,41.1207245 C182.014106,40.6727245 181.916106,40.2247245 181.958106,39.7907245 L181.930106,39.6507245 Z M190.400106,40.3647245 C190.400106,40.1827245 190.344106,40.0007245 190.246106,39.8467245 L190.190106,39.7907245 C190.078106,39.6647245 189.882106,39.7207245 189.714106,39.6787245 C189.672106,39.6787245 189.644106,39.6647245 189.602106,39.6647245 C189.448106,39.6507245 189.322106,39.6087245 189.224106,39.5667245 C189.182106,39.5527245 189.154106,39.5387245 189.112106,39.4967245 L189.000106,39.4127245 L188.916106,39.3147245 L188.832106,39.2027245 C188.790106,39.1747245 188.776106,39.1327245 188.762106,39.0907245 C188.664106,38.9787245 188.622106,38.8667245 188.552106,38.7127245 C188.538106,38.6847245 188.510106,38.6427245 188.496106,38.5867245 C188.258106,38.1807245 188.062106,37.7467245 187.880106,37.2987245 C188.034106,37.2567245 188.160106,37.2427245 188.314106,37.1727245 L188.412106,37.1167245 C188.426106,37.1027245 188.468106,37.0747245 188.510106,37.0607245 L188.762106,36.8927245 C188.790106,36.8787245 188.832106,36.8647245 188.888106,36.8227245 C189.000106,36.7527245 189.126106,36.6827245 189.224106,36.5847245 L189.336106,36.4867245 C189.504106,36.3467245 189.644106,36.1787245 189.756106,35.9687245 L189.826106,35.8427245 C189.952106,35.5907245 190.050106,35.2967245 190.092106,34.9747245 L190.120106,34.8487245 C190.134106,34.5267245 190.176106,34.2607245 190.134106,33.9387245 C190.120106,33.8827245 190.106106,33.8407245 190.106106,33.7847245 C189.980106,33.4067245 189.938106,33.0147245 189.728106,32.6787245 L189.644106,32.5667245 L189.434106,32.3147245 L189.322106,32.2167245 L189.196106,32.1187245 L189.056106,32.0487245 C188.678106,31.8387245 188.300106,31.6147245 187.866106,31.6007245 C187.824106,31.6007245 187.768106,31.5867245 187.726106,31.5867245 C187.488106,31.5447245 187.264106,31.4887245 186.998106,31.5027245 C186.956106,31.5027245 186.928106,31.4887245 186.886106,31.4887245 C186.550106,31.4467245 186.200106,31.4467245 185.864106,31.4887245 L185.724106,31.4887245 C185.500106,31.5027245 185.276106,31.4887245 185.052106,31.4887245 L184.912106,31.4887245 C184.534106,31.4887245 184.170106,31.4187245 183.792106,31.5447245 L183.694106,31.6287245 L183.638106,31.7407245 C183.568106,31.8947245 183.540106,32.0627245 183.554106,32.2447245 L183.554106,32.5387245 C183.540106,32.7767245 183.512106,33.0147245 183.526106,33.2527245 L183.526106,33.3927245 C183.568106,33.7147245 183.512106,33.9947245 183.526106,34.3167245 L183.526106,34.4567245 C183.540106,34.5827245 183.526106,34.7227245 183.568106,34.8487245 C183.554106,34.8907245 183.554106,34.9327245 183.554106,35.0027245 C183.554106,35.0447245 183.540106,35.1007245 183.540106,35.1427245 L183.540106,35.2547245 C183.540106,35.2967245 183.526106,35.3107245 183.526106,35.3527245 C183.526106,35.3947245 183.526106,35.4227245 183.512106,35.4507245 C183.554106,35.9127245 183.568106,36.4167245 183.554106,36.8787245 C183.554106,36.9487245 183.554106,36.9907245 183.568106,37.0187245 L183.568106,37.7467245 C183.568106,37.7887245 183.554106,37.8307245 183.554106,37.8727245 C183.568106,38.0967245 183.568106,38.3207245 183.554106,38.5307245 L183.554106,38.6707245 C183.568106,38.8807245 183.554106,39.0907245 183.554106,39.3007245 L183.554106,39.4267245 C183.568106,39.7627245 183.540106,40.0987245 183.540106,40.4347245 L183.540106,40.5747245 C183.554106,40.7287245 183.498106,40.9247245 183.540106,41.0927245 L183.582106,41.2047245 C183.792106,41.4987245 184.240106,41.3727245 184.534106,41.3727245 C184.562106,41.3587245 184.604106,41.3587245 184.660106,41.3587245 C184.800106,41.3447245 184.926106,41.3447245 185.052106,41.3587245 C185.094106,41.3587245 185.122106,41.3447245 185.164106,41.3447245 C185.290106,41.3167245 185.388106,41.2467245 185.430106,41.1207245 L185.458106,41.0087245 C185.514106,40.7427245 185.444106,40.4907245 185.444106,40.2247245 L185.444106,40.1127245 C185.444106,39.8467245 185.458106,39.5947245 185.458106,39.3287245 L185.458106,39.1887245 C185.472106,39.1747245 185.472106,39.1327245 185.472106,39.0767245 C185.486106,38.9647245 185.472106,38.8527245 185.486106,38.7407245 C185.500106,38.7127245 185.500106,38.6707245 185.500106,38.6007245 C185.500106,38.3347245 185.486106,38.0827245 185.472106,37.8167245 L185.472106,37.7047245 C185.486106,37.5927245 185.486106,37.4807245 185.472106,37.3687245 C185.584106,37.3827245 185.682106,37.3827245 185.794106,37.3827245 L185.892106,37.3827245 C185.906106,37.3827245 185.920106,37.3967245 185.934106,37.3967245 L185.976106,37.5087245 C186.130106,37.7747245 186.242106,38.0267245 186.368106,38.2927245 C186.382106,38.3487245 186.410106,38.3907245 186.424106,38.4047245 C186.438106,38.4607245 186.466106,38.5027245 186.480106,38.5447245 C186.494106,38.6007245 186.522106,38.6427245 186.536106,38.6847245 L186.788106,39.2727245 L186.830106,39.3987245 L186.942106,39.6227245 C186.956106,39.6787245 186.984106,39.7207245 186.998106,39.7487245 C187.012106,39.8047245 187.040106,39.8467245 187.054106,39.8747245 C187.222106,40.2107245 187.432106,40.5187245 187.698106,40.7987245 L187.768106,40.8547245 C187.810106,40.9107245 187.852106,40.9527245 187.908106,40.9947245 L188.006106,41.0647245 C188.300106,41.3027245 188.664106,41.4147245 189.042106,41.4287245 L189.182106,41.4287245 C189.364106,41.4147245 189.560106,41.4147245 189.742106,41.3727245 L189.826106,41.3447245 C189.840106,41.3447245 189.868106,41.3307245 189.910106,41.3167245 L190.050106,41.2607245 C190.218106,41.1627245 190.316106,41.0087245 190.372106,40.8407245 C190.386106,40.7707245 190.400106,40.7147245 190.400106,40.7007245 C190.414106,40.6307245 190.414106,40.5467245 190.414106,40.4767245 C190.414106,40.4347245 190.414106,40.3927245 190.400106,40.3647245 L190.400106,40.3647245 Z M186.228106,35.5347245 C186.074106,35.5347245 185.948106,35.5207245 185.794106,35.5207245 L185.472106,35.5207245 L185.472106,35.2687245 C185.458106,35.2407245 185.458106,35.1987245 185.458106,35.1287245 C185.458106,35.0727245 185.458106,35.0307245 185.472106,35.0027245 L185.472106,34.8907245 L185.486106,34.8907245 L185.486106,34.8767245 C185.486106,34.8347245 185.500106,34.8067245 185.500106,34.7647245 C185.500106,34.7087245 185.500106,34.6667245 185.486106,34.6387245 L185.500106,34.6387245 C185.514106,34.4147245 185.486106,34.2047245 185.486106,33.9807245 L185.486106,33.8407245 C185.486106,33.6867245 185.444106,33.5047245 185.500106,33.3927245 C185.514106,33.3787245 185.542106,33.3507245 185.612106,33.3367245 L185.710106,33.3367245 C186.060106,33.2947245 186.396106,33.3367245 186.774106,33.3367245 C186.830106,33.3367245 186.872106,33.3367245 186.900106,33.3227245 C187.250106,33.3647245 187.684106,33.4347245 187.852106,33.7567245 C187.880106,33.7847245 187.908106,33.8267245 187.936106,33.8827245 C187.978106,33.9527245 188.034106,34.0507245 188.076106,34.1487245 L188.104106,34.2747245 L188.104106,34.3167245 C188.104106,34.3587245 188.118106,34.3727245 188.118106,34.4147245 C188.146106,34.5127245 188.146106,34.6107245 188.132106,34.7227245 L188.104106,34.8347245 L188.062106,34.9887245 C188.048106,35.0307245 188.048106,35.0727245 188.006106,35.1147245 C187.964106,35.2407245 187.866106,35.3387245 187.726106,35.4087245 L187.600106,35.4647245 C187.208106,35.5767245 186.788106,35.5487245 186.382106,35.5347245 L186.228106,35.5347245 Z M193.494106,37.2847245 C193.494106,36.7947245 193.536106,36.3467245 193.550106,35.8847245 C193.564106,35.8567245 193.564106,35.8147245 193.564106,35.7587245 C193.564106,35.7027245 193.564106,35.6607245 193.578106,35.6327245 C193.578106,35.5627245 193.578106,35.5067245 193.592106,35.4787245 L193.592106,35.0587245 C193.592106,35.0027245 193.592106,34.9607245 193.606106,34.9187245 C193.592106,34.8907245 193.592106,34.8487245 193.592106,34.7927245 L193.592106,34.6667245 L193.620106,34.2187245 C193.634106,34.2047245 193.634106,34.1767245 193.634106,34.1347245 C193.620106,33.7287245 193.620106,33.3087245 193.676106,32.9027245 L193.676106,32.6927245 C193.690106,32.5947245 193.690106,32.5107245 193.690106,32.4127245 L193.690106,32.2587245 C193.690106,32.2027245 193.690106,32.1607245 193.676106,32.1467245 C193.718106,31.9787245 193.690106,31.7827245 193.620106,31.6567245 C193.606106,31.6147245 193.592106,31.5867245 193.550106,31.5727245 C193.536106,31.5587245 193.508106,31.5307245 193.466106,31.5167245 C193.032106,31.4467245 192.654106,31.4747245 192.220106,31.4887245 C192.178106,31.4887245 192.136106,31.5027245 192.094106,31.5027245 L191.982106,31.5307245 C191.590106,31.7127245 191.674106,32.2027245 191.716106,32.5527245 L191.716106,33.8827245 C191.716106,33.9807245 191.716106,34.0507245 191.730106,34.1487245 L191.730106,34.3447245 C191.716106,34.4147245 191.716106,34.4847245 191.716106,34.5407245 C191.758106,34.9467245 191.744106,35.3527245 191.758106,35.7587245 L191.758106,36.2767245 C191.772106,36.7667245 191.786106,37.2567245 191.786106,37.7467245 L191.786106,38.2507245 C191.786106,38.3067245 191.786106,38.3487245 191.800106,38.3767245 C191.800106,38.5867245 191.912106,38.6707245 192.038106,38.7407245 L192.150106,38.7687245 C192.444106,38.8107245 192.738106,38.8107245 193.032106,38.7967245 C193.074106,38.7967245 193.116106,38.7827245 193.172106,38.7687245 C193.466106,38.6567245 193.508106,38.2087245 193.494106,37.9147245 L193.494106,37.2847245 Z M192.584106,39.6087245 C192.514106,39.6087245 192.458106,39.6087245 192.416106,39.6227245 L192.276106,39.6647245 C191.926106,39.8187245 191.688106,40.1827245 191.702106,40.5607245 C191.702106,40.6027245 191.716106,40.6447245 191.716106,40.6867245 C191.758106,40.8267245 191.814106,40.9527245 191.884106,41.0647245 L191.940106,41.1347245 L192.150106,41.3027245 L192.248106,41.3447245 L192.374106,41.3867245 L192.514106,41.3867245 C192.612106,41.3867245 192.696106,41.4007245 192.794106,41.3587245 C192.822106,41.3587245 192.864106,41.3447245 192.920106,41.3307245 C193.130106,41.2607245 193.284106,41.1487245 193.382106,40.9947245 C193.424106,40.9527245 193.424106,40.9107245 193.466106,40.8687245 C193.536106,40.7287245 193.564106,40.5887245 193.536106,40.4487245 C193.536106,40.4067245 193.522106,40.3927245 193.522106,40.3507245 L193.494106,40.1827245 C193.424106,40.0567245 193.354106,39.9587245 193.256106,39.8747245 L193.144106,39.7907245 C192.976106,39.6647245 192.794106,39.6087245 192.584106,39.6087245 L192.584106,39.6087245 Z" id="Im-a-header!" fill="#5D6063"></path>
        </g>
    </g>
</svg>