<?xml version="1.0" encoding="UTF-8" standalone="no"?>
<svg width="187px" height="121px" viewBox="0 0 187 121" version="1.1" xmlns="http://www.w3.org/2000/svg" xmlns:xlink="http://www.w3.org/1999/xlink">
    <!-- Generator: Sketch 39.1 (31720) - http://www.bohemiancoding.com/sketch -->
    <title>web-typography</title>
    <desc>Created with Sketch.</desc>
    <defs></defs>
    <g id="Page-1" stroke="none" stroke-width="1" fill="none" fill-rule="evenodd">
        <g id="web-typography">
            <path d="M21.3464264,79.1743353 L81.8608796,114.253228 C81.8608796,114.253228 84.775729,116.090478 87.8299049,116.037349 C90.8840808,115.984219 93.7836126,114.045823 93.7836126,114.045823 L163.381844,72.8712526 C163.381844,72.8712526 166.062914,71.622225 165.850021,70.1124619 C165.637129,68.6026987 162.5901,67.2564626 162.5901,67.2564626 L101.418851,32.0104689 C101.418851,32.0104689 99.4747871,30.8298007 97.2950617,30.8641693 C95.1153364,30.8985379 92.9323664,32.1442787 92.9323664,32.1442787 L22.3339831,72.8187516 C22.3339831,72.8187516 19.805777,74.2029675 19.4018703,76.1218212 C18.9979635,78.0406749 21.3464264,79.1743353 21.3464264,79.1743353 Z" id="Path-43" fill-opacity="0.15" fill="#5D6063"></path>
            <path d="M21.3464264,74.1743353 L81.8608796,109.253228 C81.8608796,109.253228 84.775729,111.090478 87.8299049,111.037349 C90.8840808,110.984219 93.7836126,109.045823 93.7836126,109.045823 L163.381844,67.8712526 C163.381844,67.8712526 165.753856,66.4968758 165.850021,65.1124619 C165.946187,63.728048 165.760418,59.3809819 165.760418,59.3809819 L101.418851,27.0104689 C101.418851,27.0104689 99.4747871,25.8298007 97.2950617,25.8641693 C95.1153364,25.8985379 92.9323664,27.1442787 92.9323664,27.1442787 L19.3470688,65.7273929 C19.3470688,65.7273929 19.3152082,69.3253445 19.4018703,71.1218212 C19.4885323,72.9182979 21.3464264,74.1743353 21.3464264,74.1743353 Z" id="Path-43" stroke="#5D6063" stroke-width="2" stroke-linecap="round" stroke-linejoin="round" fill="#FFFFFF"></path>
            <path d="M21.3464264,68.1743353 L81.8608796,103.253228 C81.8608796,103.253228 84.775729,105.090478 87.8299049,105.037349 C90.8840808,104.984219 93.7836126,103.045823 93.7836126,103.045823 L163.381844,61.8712526 C163.381844,61.8712526 166.062914,60.622225 165.850021,59.1124619 C165.637129,57.6026987 162.5901,56.2564626 162.5901,56.2564626 L101.418851,21.0104689 C101.418851,21.0104689 99.4747871,19.8298007 97.2950617,19.8641693 C95.1153364,19.8985379 92.9323664,21.1442787 92.9323664,21.1442787 L22.3339831,61.8187516 C22.3339831,61.8187516 19.805777,63.2029675 19.4018703,65.1218212 C18.9979635,67.0406749 21.3464264,68.1743353 21.3464264,68.1743353 Z" id="Path-43" stroke="#5D6063" stroke-width="2" stroke-linejoin="round" fill="#FFFFFF"></path>
            <path d="M71.9742574,37.536661 L92.9102854,24.8876914 C92.9102854,24.8876914 95.3245851,23.1826559 97.179241,23.1826559 C99.0338969,23.1826559 101.008886,24.5273291 101.008886,24.5273291 L108.312906,28.6543046" id="Path-255" stroke="#5D6063" stroke-linecap="round" stroke-linejoin="round"></path>
            <g id="Group" transform="translate(45.000000, 43.000000)">
                <path d="M19.3914128,32.8131084 L22.2333392,31.4243765 C19.9777018,29.8980623 19.4872769,29.4593769 18.7412145,28.6368592 C17.7395148,27.4305091 18.1900531,26.0232622 19.9101664,25.1827139 C21.1815545,24.5614391 23.531243,23.9219953 27.5731693,23.2187525 L31.081158,22.6068391 L50.121158,33.4832663 L44.5275035,40.1170845 C43.7361154,41.0125549 43.5221777,41.2866813 43.0734525,41.5059548 C41.8020644,42.1272296 40.0681267,41.5330698 34.4733392,38.4163655 L31.6314128,39.8050974 L53.1514128,52.0982022 L55.9933392,50.7094703 C53.6629143,49.2197016 52.9377018,48.7261633 52.2872769,48.1960794 C51.1360021,47.0628204 51.2699398,46.7429947 53.2753789,44.3215561 L79.3721499,13.2540784 L76.0921499,11.3804081 L23.1940192,21.0342718 C11.6073902,23.1349158 8.5220644,23.1163315 3.27333918,20.5936485 L0.431412804,21.9823804 L19.3914128,32.8131084 Z M64.7575322,16.2408314 L51.9822345,31.2171637 L35.5022345,21.8031132 L64.7575322,16.2408314 Z" id="A-Copy" fill-opacity="0.15" fill="#5D6063"></path>
                <path d="M19.3914128,28.8131084 L22.2333392,27.4243765 L22.2333385,20.1649242 C22.2333385,20.1649242 18.1900531,22.0232622 19.9101664,21.1827139 C21.1815545,20.5614391 23.531243,19.9219953 27.5731693,19.2187525 L31.081158,18.6068391 L50.121158,29.4832663 L44.6704837,34.9686122 C43.8790956,35.8640827 37.2262011,31.9298124 31.6314136,28.813108 L31.6314128,35.8050974 L53.1514128,48.0982022 L55.9933392,46.7094703 L55.9933406,39.546413 C55.9933406,39.546413 51.2699398,42.7429947 53.2753789,40.3215561 L79.3721499,9.25407839 L79.3721477,2.58414034 L23.1207744,11.9776473 C11.5341454,14.0782913 0.431412804,11.3814445 0.431412804,11.3814445 L0.431412804,17.9823804 L19.3914128,28.8131084 Z M64.7575322,12.2408314 L56.5507629,26.1039105 L40.0707629,16.68986 L64.7575322,12.2408314 Z" id="A" stroke="#5D6063" stroke-width="2" stroke-linejoin="round" fill="#B2D6FF"></path>
                <path d="M19.3914128,21.8131084 L22.2333392,20.4243765 C19.9777018,18.8980623 19.4872769,18.4593769 18.7412145,17.6368592 C17.7395148,16.4305091 18.1900531,15.0232622 19.9101664,14.1827139 C21.1815545,13.5614391 23.531243,12.9219953 27.5731693,12.2187525 L31.081158,11.6068391 L50.121158,22.4832663 L44.5275035,29.1170845 C43.7361154,30.0125549 43.5221777,30.2866813 43.0734525,30.5059548 C41.8020644,31.1272296 40.0681267,30.5330698 34.4733392,27.4163655 L31.6314128,28.8050974 L53.1514128,41.0982022 L55.9933392,39.7094703 C53.6629143,38.2197016 52.9377018,37.7261633 52.2872769,37.1960794 C51.1360021,36.0628204 51.2699398,35.7429947 53.2753789,33.3215561 L79.3721499,2.25407839 L76.0921499,0.38040814 L23.1940192,10.0342718 C11.6073902,12.1349158 8.5220644,12.1163315 3.27333918,9.59364851 L0.431412804,10.9823804 L19.3914128,21.8131084 Z M64.7575322,5.24083142 L51.9822345,20.2171637 L35.5022345,10.8031132 L64.7575322,5.24083142 Z" id="A-Copy" stroke="#5D6063" stroke-width="2" stroke-linejoin="round" fill="#B2D6FF"></path>
                <path d="M30.9959292,11.9999987 L30.9959292,18.4849966" id="Path-8" stroke="#5D6063" stroke-width="2" stroke-linejoin="round" fill="#FFFFFF"></path>
                <path d="M19.0276978,21.9999431 L19.0276978,28.7360628" id="Path-8" stroke="#5D6063" stroke-width="2" stroke-linejoin="round" fill="#FFFFFF"></path>
                <path d="M52.9182159,40.9995094 L52.9182159,47.8161608" id="Path-8" stroke="#5D6063" stroke-width="2" stroke-linejoin="round" fill="#FFFFFF"></path>
            </g>
        </g>
    </g>
</svg>