<?xml version="1.0" standalone="no"?>
<!DOCTYPE svg PUBLIC "-//W3C//DTD SVG 1.1//EN" "http://www.w3.org/Graphics/SVG/1.1/DTD/svg11.dtd" >
<svg xmlns="http://www.w3.org/2000/svg">
<metadata></metadata>
<defs>
<font id="harmansans" horiz-adv-x="1228" >
<font-face units-per-em="2048" ascent="1536" descent="-512" />
<missing-glyph horiz-adv-x="614" />
<glyph horiz-adv-x="0" />
<glyph horiz-adv-x="682" />
<glyph unicode=" "  horiz-adv-x="614" />
<glyph unicode="&#x09;" horiz-adv-x="614" />
<glyph unicode="&#xa0;" horiz-adv-x="614" />
<glyph unicode="!" horiz-adv-x="540" d="M389 592v-92q5 -106 -47 -125q-16 -4 -20 -4q-75 -3 -129 4l-17 4q-35 19 -35 53q-2 4 -2 19v73q0 71 -4 215v76q-1 20 -1 56t-1 66t-4 56q0 19 2 29v29q-2 14 -2 39v194q-9 77 1 106q10 31 38 44l16 4q3 0 9.5 1t9.5 1q131 4 182 -4q4 -2 12 -9q8 -3 11 -12 q18 -32 8 -72q2 -2 2 -16v-22q0 -27 -2 -41v-31q-10 -71 -6 -180q0 -11 -2 -13l-5 -65v-19q0 -12 3 -18q-3 -9 -3 -20v-62q-2 -4 -2 -22q-2 -4 -2 -19q0 -14 -2 -18q-1 -22 -4.5 -93t-3.5 -112zM256 252q44 0 82 -27l16 -12q19 -16 35 -45l4 -25q0 -3 1 -7t1 -7 q6 -29 -10 -61q-3 -3 -6 -9.5t-6 -9.5q-20 -34 -68 -49q-16 -4 -18 -4q-9 -4 -41 -4h-21l-18 6l-14 6l-31 25l-8 10q-16 26 -25 55q0 3 -1 9.5t-1 9.5q-1 41 22 77.5t62 53.5l20 6q6 2 25 2z" />
<glyph unicode="&#x22;" horiz-adv-x="772" d="M684 1399q12 -17 -2 -56q0 -12 -2 -16q0 -17 -4 -45q-6 -24 -11 -73t-6 -56l-4 -20q0 -5 -4 -21q-3 -24 -11 -69t-11 -68q0 -13 -2 -17q-11 -47 -74 -47q-66 -10 -92 37q-4 16 -4 19q-4 31 -8.5 83t-6.5 72l-4 41q0 3 -1 7.5t-1 7.5v14l-8 74q0 4 -1 11t-1 11 q-2 23 -2 66v28q1 28 20 44t45 16h111l55 -6q6 -2 13 -9q7 -2 10 -12q3 -3 6 -16zM344 1384q2 -2 2 -14q-2 -2 -2 -14l-4 -13q0 -12 -2 -16q0 -17 -4 -45q-6 -24 -11 -73t-6 -56l-4 -20q0 -5 -4 -21q-3 -24 -11 -69t-11 -68q0 -13 -2 -17q-12 -51 -52 -43q-16 -4 -22 -4 q-66 -10 -92 37q-4 16 -4 19q-4 31 -8.5 83t-6.5 72l-4 41q0 3 -1 7.5t-1 7.5v14l-8 74q0 4 -1 11t-1 11q-2 23 -2 66v28q1 28 20 44t45 16h111l55 -6q6 -2 13 -9q7 -2 10 -12q3 -3 6 -16q2 -2 2 -15z" />
<glyph unicode="#" horiz-adv-x="1243" d="M1083 586q7 -30 4 -72q-2 -4 -2 -20q-1 -25 -4.5 -41t-16 -31t-34.5 -19q-3 0 -10 -1t-10 -1q-30 -2 -34 -2.5t-34.5 2t-32.5 2.5h-30l-27 -206l-8 -39l-2 -19q-3 -12 -3 -49.5t-9.5 -59.5t-36.5 -32q-14 -6 -30.5 -7.5t-40.5 -0.5t-36 0q-12 0 -14 2q-32 6 -35 31 q-3 8 -1.5 25t3 25t5.5 25t5 25l35 283l-227 4l-27 -213l-8 -39l-2 -19q-3 -14 -4 -50.5t-10 -58.5t-35 -32q-30 -10 -70 -10h-16q-34 -3 -52 17t-17 48t9 56q0 3 1 7t1 7l35 287h-55q-8 1 -31.5 -2t-38 0.5t-24.5 19.5q-11 15 -11 35q0 13 4 41q4 20 19 78l8 10 q14 14 70 14h86q19 126 30 223h-86q-35 -9 -61 11t-14 55l4 18q0 3 1 8.5t1 8.5v22q2 38 26 59t64 17h88l31 232l6 73q-3 16 4 43q6 24 6 35q6 12 13 17t23.5 7t20.5 3l39 4q37 3 74 -6l10 -9q9 -3 9 -12q3 -5 5 -10.5t2.5 -12.5t0.5 -11.5t-1 -13.5t-1.5 -12t-3 -14 t-2.5 -14l-3 -22q-5 -33 -8 -41l-2 -17l-16 -147l-8 -78q33 1 94.5 -0.5t81.5 -1.5h47q11 112 31 240l4 36q0 4 1 13t1 12q0 25 3.5 44.5t11.5 39.5t26.5 29.5t44.5 5.5q4 2 20 2q37 3 74 -6l10 -9q8 -3 8 -12q3 -5 5 -10.5t2.5 -12.5t0.5 -11.5t-1 -13.5t-1.5 -12t-3 -14 t-2.5 -14l-2 -22q-5 -33 -8 -41l-2 -17l-16 -147l-8 -80h124q28 5 41 -10t11 -37.5t-4 -44.5q0 -15 -2 -19v-8q4 -48 -20 -65.5t-69 -10.5h-112v-8q-3 -29 -12.5 -90t-12.5 -90l-6 -39h117q6 0 16.5 -0.5t16.5 -1t15 -3t17 -7.5zM485 637l-4 -37h4q11 4 89 1t90 -3h45 l32 229l-229 4q-2 -4 -2 -14q-3 -30 -12.5 -90.5t-12.5 -89.5z" />
<glyph unicode="$" horiz-adv-x="1200" d="M1075 483q2 -6 2 -20q8 -27 8 -66q0 -4 -1 -11t-1 -11q-17 -101 -53 -174l-6 -15l-8 -14q-9 -20 -39 -59l-16 -19q-15 -18 -38 -34.5t-37.5 -24t-47.5 -23.5l-27 -10q-18 -8 -102 -22q0 -5 -1 -15.5t-1 -15.5v-19q-2 -18 1.5 -69t-6.5 -60q-12 -22 -27 -24.5t-41 3 t-46 1.5h-21q-23 -2 -53 8l-14 10q-10 8 -11.5 26t2 47.5t3.5 41.5v63q-6 1 -29 6.5t-31.5 7.5t-28 7.5t-31 10t-27 11.5t-28.5 15l-16 12q-36 23 -72 59l-14 15q-24 30 -43 65q-3 3 -5 8.5t-5 8.5l-8 16l-6 17q-23 43 -39 147q-2 2 -2 8v15q-18 80 28 96q12 6 21 6 q18 3 54 3t52 3q4 -2 19 -2q42 0 73 -8q5 -1 12 -4t9 -4l12 -13l8 -14q9 -15 9 -39q0 -3 1 -7t1 -7l4 -21q10 -43 32 -71q4 -6 11 -15t8 -10l12 -10l12 -8q1 0 3.5 -1t3.5 -1q-2 147 -2 337q-105 37 -152 68l-14 6l-13 6q-60 38 -108 92l-15 15q-14 14 -26 35q-3 4 -10 18 q-14 27 -20 55t-8 76t-3 57q0 4 1 11t1 10q3 49 25 102l10 33q10 30 28 60q9 20 39 59l17 18q15 18 38 34.5t37.5 24t47.5 23.5l26 11q22 9 107 22v55q-7 27 -4 43q0 4 1 11t1 10q7 19 18.5 27.5t30.5 13.5q3 0 9 1t9 1q17 0 35 0.5t26.5 1t23.5 -0.5t36 -5q6 -2 12 -8 q8 -2 11 -13q17 -31 8 -71q2 -2 2 -17v-49q106 -19 166 -55l16 -13q36 -23 72 -59l14 -14q35 -43 47 -74q15 -25 21 -39q17 -29 28 -84l4 -16l9 -64q2 -4 2 -20q-1 -31 -24.5 -50.5t-55.5 -19.5q-4 2 -19 2q-14 2 -79 2t-97 10q-14 14 -20 35q-6 13 -10 43l-5 19 q-10 30 -28 53q-4 6 -11 15t-8 10l-12 10l-10 6v-229q-4 -62 -4 -82q0 -13 -2 -15q68 -22 86 -30l18 -9q91 -34 125 -61l19 -16l32 -37l11 -13q65 -74 71 -174zM498 920v20q0 6 2 8v215q-19 -8 -41 -30l-15 -15q-3 -4 -10 -18q-4 -4 -8 -15q-18 -29 -16.5 -66t24.5 -61 l15 -16q15 -15 47 -35q2 2 2 13zM791 414v20l-5 17l-6 18q-6 6 -8 12q-17 21 -27 27q-7 7 -16 10l-18 10v-256q4 0 8 4l14 11q55 46 58 127z" />
<glyph unicode="%" horiz-adv-x="2023" d="M842 1049v-76q0 -27 -2 -41q-3 -87 -25 -162l-4 -12l-12 -25l-15 -24l-6 -13q-6 -6 -8 -12q-77 -77 -160 -115l-14 -6q-34 -7 -45 -8q-4 -2 -21 -2q-4 -2 -16 -2q-3 0 -9 -1t-9 -1q-64 -8 -154 18l-23 6q-106 56 -155 125l-8 17q-2 6 -10 23.5t-11 27.5q-8 22 -22 119 q-2 2 -2 12q0 3 -1 6t-1 6q-5 23 -5 80v17q-7 80 21 192l4 19l6 20q20 60 78 121l12 12q44 38 80 51l19 6q26 12 55 16t67.5 4.5t55.5 2.5h39q42 -8 88 -23l16 -6q17 -9 19 -10q80 -53 118 -113l13 -18q12 -23 24 -57l6 -19q0 -3 1 -6t1 -6t1 -6t1 -6q6 -24 7.5 -69t3.5 -62 h2zM1921 485v-75q0 -27 -2 -41q-3 -87 -25 -162q-1 -2 -2 -5l-1.5 -4.5t-0.5 -2.5l-12 -25l-14 -25l-6 -12q-8 -7 -9 -12q-78 -78 -159 -115l-15 -6q-34 -7 -45 -8q-4 -2 -20 -2q-4 -2 -17 -2q-3 0 -9 -1t-9 -1q-64 -8 -154 18l-22 6q-107 56 -156 125l-8 17q-2 6 -10 23.5 t-11 27.5q-8 22 -22 119q-2 2 -2 12q0 3 -1 6t-1 6q-4 18 -4 80v16q-8 84 20 193l4 18l6 21q20 60 78 121l13 12q45 38 79 51l19 6q26 12 55 16t67.5 4.5t55.5 2.5h39q42 -8 88 -23l16 -6q17 -9 19 -10q82 -54 119 -113l12 -18q12 -21 24 -58l7 -18q0 -3 1 -6t1 -6t1 -6.5 t1 -6.5q6 -24 7 -69t3 -62h2zM956 362q-2 -4 -4 -12l-4 -12l-24 -47l-13 -25l-92 -178l-6 -16l-18 -37q-8 -17 -19.5 -27.5t-30.5 -14t-30 -4.5t-37 0t-33 1q-12 0 -16 -2q-50 4 -58 30q-9 28 17 70l12 16l8 19q30 58 49 106q1 2 2 5t2 5t1 3l77 168l11 18l43 92l10 21 l61 127q0 1 13 22l10 15q14 40 50.5 110.5t41.5 81.5l6 10l6 13q36 63 47 90l95 188l12 21l16 36l6 13q12 19 25.5 54.5t29 61.5t42.5 41q10 7 18 7q4 2 21 2q-1 0 -2.5 1t-2.5 1q14 -3 64.5 2t76.5 -6t19 -50l-4 -18l-24 -51l-7 -17q-9 -20 -18 -32q-6 -9 -21 -43l-6 -13 q-43 -95 -53 -108l-6 -15q-2 -3 -16 -36l-7 -13l-41 -90l-8 -16q-10 -21 -47 -84t-51 -101l-10 -18l-43 -90q-14 -32 -27 -55q-7 -13 -27 -51t-30 -60l-15 -29q-9 -15 -24 -45.5t-17 -34.5zM571 891l7 20q0 7 2.5 30t2 28.5t-2.5 29.5q0 3 1 9.5t1 9.5v16q-2 4 -2 21 q0 3 -1 9.5t-1 10.5q-12 67 -30 89l-7 7q-14 14 -29 17q-68 24 -113 -21q-6 -7 -10 -15l-7 -14t-5.5 -17.5t-3.5 -16t-3 -18.5t-3 -17l-5 -37q0 -21 -2 -35v-14q0 -31 2 -37v-6q3 -3 3 -12q1 -7 3.5 -20t4.5 -21t5.5 -19t8.5 -20q12 -20 25 -33l8 -4t10 -4q9 -6 19 -6 q28 -6 61 8q14 7 18 10q33 21 43 72zM1651 328l6 20q0 7 2.5 30t2 28.5t-2.5 29.5q0 3 1 9.5t1 9.5v16q-2 4 -2 21q0 3 -1 9.5t-1 10.5q-12 67 -30 89l-7 7q-14 14 -29 17q-67 24 -112 -21q-4 -5 -7.5 -11t-6.5 -10.5t-5.5 -12.5t-3.5 -12t-3 -13t-2.5 -12.5t-2.5 -14 t-2 -12.5l-4 -37q0 -21 -2 -35v-14q0 -31 2 -37v-6q2 -2 2 -12q1 -7 3.5 -20t4.5 -21t5.5 -19t8.5 -20q12 -20 25 -33l8 -4t10 -4q9 -6 19 -6q28 -6 61 8q17 8 19 10q33 21 43 72z" />
<glyph unicode="&#x26;" horiz-adv-x="1470" d="M1382 229q4 -11 5 -23t0 -31.5t-1 -24.5q0 -23 -2 -33q-1 -12 0 -21t-0.5 -20t-5.5 -21q-4 -8 -12 -16l-12 -14l-17 -11q-36 -16 -89.5 -18t-92.5 2q-12 0 -14 2q-23 0 -33 2h-21q-20 0 -38 6q-20 3 -37 10q-36 15 -70 35l-31 23q-11 -10 -28 -21l-17 -12 q-37 -24 -110 -43q-16 -4 -19 -4q-50 -12 -73 -12h-15q-26 2 -86.5 2t-104.5 4.5t-83 19.5l-27 10q-33 16 -47.5 23.5t-37.5 24t-38 34.5l-16 19l-6 10q-58 63 -82 166l-4 20l-6 29q-5 25 -5 29q0 7 -1 20.5t-1 20.5v12q-3 89 37 162l11 14q28 46 55.5 74.5t66.5 40.5 q-13 6 -30.5 20t-26.5 19l-10 8l-10 12l-13 13q-38 48 -47 73q-7 13 -8 19q-13 40 -23 92v31q-2 10 -2 32v15q3 105 54 196q2 2 10 19l12 16l25 29l14 16q38 41 78 66l16 8l35 16l27 11q13 5 27.5 9t25.5 6.5t28 4t25 2.5t28 1.5t25.5 0.5h28.5h27h20q74 2 185 -24l18 -7 q39 -18 53 -26l17 -13q33 -21 71 -59l15 -14q35 -43 47 -74q12 -19 20 -39q19 -32 29 -84l4 -16v-2q0 -7 2 -9q0 -16 2 -22q3 -22 0 -43q-7 -42 -45.5 -61.5t-83.5 -14.5h-37q-4 2 -18 2h-19q-41 -4 -67.5 21t-28.5 67l-4 19q-9 27 -29 53q-3 5 -18 25l-12 10l-13 8 q-73 36 -180 25l-20 -7q-34 -9 -58 -36l-14 -15q-3 -4 -10 -18q-4 -4 -8 -15q-11 -18 -13 -34q-2 -2 -2 -13q-6 -52 13 -100.5t61 -73.5l16 -10q23 -12 52 -18q3 0 7 -1t7 -1q6 -3 37 -7h12q15 -6 231 -2h33q11 4 49.5 2.5t49.5 -0.5h196q41 9 79 -4.5t30 -54.5v-20 q2 -23 2 -60q-2 -6 -2 -20q1 -21 -6.5 -35.5t-18.5 -21t-31 -9.5t-34 -2.5t-36.5 1.5t-31.5 1q-3 0 -7 -1t-7 -1h-13q-3 -6 -3.5 -13.5t0.5 -17.5t1 -14v-39q0 -116 6 -154l7 -20q1 -4 8 -18l10 -13l14 -12l23 -10q12 -6 24 -6q28 -5 76 -3.5t76 -3.5q31 -12 37 -16l12 -12 q1 -2 10 -19zM795 469v127h-150q-89 0 -115 -4t-36 -8l-35 -17l-15 -12q-32 -26 -41 -66q-4 -12 -4 -16q-6 -18 -6 -37q0 -10 -2 -14q0 -17 2 -23q0 -10 2 -12q0 -8 15 -33q4 -12 8 -14q28 -47 65 -64l15 -6l20 -6q14 -2 37 -2h18q64 -4 99 12l14 7q63 32 82 86q2 2 8 20 q16 44 19 82z" />
<glyph unicode="'" horiz-adv-x="428" d="M344 1384q2 -2 2 -14q-2 -2 -2 -14l-4 -13q0 -12 -2 -16q0 -17 -4 -45q-6 -24 -11 -73t-6 -56l-4 -20q0 -5 -4 -21q-3 -24 -11 -69t-11 -68q0 -13 -2 -17q-12 -51 -52 -43q-16 -4 -22 -4q-66 -10 -92 37q-4 16 -4 19q-4 31 -8.5 83t-6.5 72l-4 41q0 3 -1 7.5t-1 7.5v14 l-8 74q0 4 -1 11t-1 11q-2 23 -2 66v28q1 28 20 44t45 16h111l55 -6q6 -2 13 -9q7 -2 10 -12q3 -3 6 -16q2 -2 2 -15z" />
<glyph unicode="(" horiz-adv-x="667" d="M389 819v-379q0 -17 1 -57.5t1 -60.5v-23q-1 -15 1.5 -58.5t-1.5 -58.5v-125q2 -17 2 -56t3.5 -70t15.5 -54l10 -12l14 -12l23 -11q12 -6 24 -6q11 -3 24 -4t28.5 -1t23.5 -1h19q33 -6 53 -20l12 -15q28 -100 -4 -166q-6 -8 -14 -14l-17 -12l-18 -9q-84 -11 -170 -2h-21 q-99 8 -196 91l-15 16l-24 31q-6 4 -10 16q-2 4 -9 12q-31 99 -39 176v201q0 23 -2 67t-2 68v62q2 35 2 108h-2v324q0 57 1 151.5t1 122.5q0 17 0.5 32t1 23.5t0.5 10.5v381q-2 52 17 135l6 20q11 32 25 52q3 9 10 16l24 31l15 16q96 82 196 90h21q46 7 108 4q3 0 9.5 -1 t9.5 -1q39 5 70.5 -18.5t35.5 -63.5q0 -4 1 -11t1 -11q4 -50 -8 -82q-3 -11 -8 -16q-16 -25 -43 -31q-2 0 -14 -4q-45 -7 -68 -4q-3 0 -9 -1t-9 -1q-16 0 -37 -9l-23 -10l-14 -12l-10 -12q-12 -23 -15.5 -54t-3.5 -70.5t-2 -56.5v-77q-3 -27 -3.5 -55t0.5 -67t1 -55l-4 -198 z" />
<glyph unicode=")" horiz-adv-x="667" d="M279 819l4 109l-4 198q0 148 -3 177v77q-3 31 -1.5 60t-2.5 63.5t-16 57.5l-10 12l-15 12l-22 10q-21 9 -37 9q-3 0 -9 1t-9 1q-23 -3 -68 4q-12 4 -14 4q-27 6 -43 31q-7 7 -9 16q-12 32 -8 82q0 4 1 11t1 11q4 40 36 63.5t71 18.5q3 0 9 1t9 1q62 3 109 -4h20 q101 -8 197 -90l14 -16l25 -31q9 -14 10 -16q14 -20 25 -52l6 -20q18 -79 16 -135v-381q0 -2 0.5 -10.5t1 -23.5t0.5 -32q0 -28 1 -122.5t1 -151.5v-324h-2q0 -73 2 -108v-62q0 -24 -2 -68t-2 -67v-201q-8 -77 -39 -176q-6 -6 -8 -12q-3 -9 -10 -16l-25 -31l-14 -16 q-97 -83 -197 -91h-20q-86 -9 -170 2l-19 9l-16 12q-8 6 -14 14q-32 66 -4 166l12 15q20 14 53 20h19q8 1 23.5 1t28 1t23.5 4q13 0 25 6l22 11l15 12l10 12q12 23 16 57.5t2.5 63t1.5 59.5v125q-4 15 -1.5 58.5t1.5 58.5v23q0 20 1.5 60.5t1.5 57.5v379z" />
<glyph unicode="*" horiz-adv-x="970" d="M717 1044l-58 -30l-10 -6l10 -7q36 -18 54 -24l8 -6q15 -11 20 -13q4 -4 9 -4q6 -3 31 -14.5t36 -19.5q1 0 6 -5q18 -11 26.5 -17.5t20 -20t15.5 -27.5v-8q0 -3 -4 -19v-2l-27 -51q0 -3 -6 -6q0 -3 -2.5 -6.5t-3.5 -5.5l-8 -9q-47 -27 -101 13l-10 4l-25 14l-10 6l-24 17 l-101 57q0 -22 -1 -58.5t-1 -50.5q7 -65 4.5 -104t-20.5 -57l-6 -6q-6 -6 -15 -9h-8q-2 -1 -5 -2l-4.5 -1.5t-2.5 -0.5q-7 0 -20.5 -1t-20.5 -1h-17q-2 2 -14 2l-12 4q-27 10 -34.5 36.5t-2.5 56.5q-2 2 -2 8v30q0 27 2 41v17q0 18 -1 49t-1 43l-49 -29q-6 -2 -18.5 -6.5 t-18.5 -7.5q0 -2 -2 -2l-6 -4q-2 -2 -4 -2t-2 -2q-16 -6 -48 -29q-3 -1 -10 -8q-38 -23 -57 -25h-14q-21 9 -37 37l-6 10q-2 9 -13 29.5t-12 34.5q0 3 -1 7t-1 7v17q2 9 12 17.5t19.5 13.5t28 13.5t26.5 12.5l10 6l60 33q4 4 6 4l37 20q2 1 5 4t5.5 4.5t5.5 2.5l-55 32 l-17 13q-1 3 -2 4t-3.5 2.5t-4.5 3.5q-11 4 -28.5 15.5t-28.5 15.5q-3 1 -6 3q-4 1 -5 1l-6 4l-8 4q-29 7 -41 38.5t2 57.5l8 10l15 29l12 21l6 6q37 31 86 -4l10 -9q5 -3 18 -12t21 -12l9 -6l43 -27l10 -6q21 -15 51 -27v64q4 28 4 39v18q1 17 -1.5 49.5t-2.5 44.5 q0 3 1 6.5t1 6.5q0 24 19.5 36t44.5 7q10 0 12 -2q18 0 22 2h13q5 0 13.5 -1t12.5 -1q3 0 9.5 -3.5t9.5 -3.5q0 -2 2 -2l4 -4l8 -4q6 -6 8.5 -18.5t2 -23t-2.5 -31.5t-2 -29v-103q-2 -2 -2 -10q0 -5 -1 -15.5t-1 -15.5v-12q4 0 8 4q7 3 19.5 11.5t19.5 11.5l10 6l48 27 q53 36 82.5 52t54 16.5t41.5 -19.5q2 -4 2 -2q8 -14 15 -25t8.5 -12t5.5 -9.5t6 -14l10 -27.5q4 -4 0 -15q0 -8 -6 -14l-7 -8q-10 -14 -24 -24t-36.5 -21t-29.5 -15q-6 -2 -12 -8l-12 -6q-2 -2 -6 -2l-15 -8l-12 -6z" />
<glyph unicode="+" horiz-adv-x="1085" d="M977 492v-21q2 -23 -8 -53l-11 -15q-8 -10 -26 -11.5t-47 2t-41 3.5h-182q0 -34 -1.5 -88t-1.5 -73q10 -86 1 -129t-48 -50q-3 0 -9 -1t-9 -1q-17 0 -35 -0.5t-26.5 -1t-23.5 0.5t-36 5q-5 1 -12 9q-7 2 -10 12q-18 33 -9 72q-2 2 -2 16v22q0 27 2 41v17q0 32 -0.5 66 t-1 56.5t-0.5 24.5q-112 0 -153 2q-86 -10 -128.5 -1t-49.5 48q0 3 -1.5 9.5t-1.5 9.5q0 17 -0.5 35t-0.5 26.5t1 23.5t5 36q2 6 8 12q2 7 12 10q32 18 72 8q2 2 16 2h23q27 0 41 -2h16q37 0 88.5 1t54.5 1v103q4 28 4 39v18q2 18 -1.5 69t6.5 60q10 22 26.5 24.5t42.5 -2.5 t45 -1h21q23 2 53 -8l14 -11q10 -8 11.5 -26t-2 -47t-3.5 -41v-179h111q28 -4 39 -4h18q18 -2 69 2t60 -6q22 -12 24.5 -27t-2.5 -41t-1 -46z" />
<glyph unicode="," horiz-adv-x="448" d="M362 127q3 -3 3 -8q2 -7 2 -9.5t-2 -9.5t-3 -10v-14q0 -24 -10 -62q-27 -74 -43 -110q-22 -45 -45 -74l-6 -8q-6 -7 -19 -24t-21.5 -26.5t-22.5 -19t-29 -12.5h-10q-29 8 -58 33l-6 8q-10 20 -2 33l4 12q4 5 15.5 18t15.5 21q4 4 6 10q7 7 12 21l7 12q13 31 22 43 q0 1 0.5 1.5t1 2t0.5 4.5q6 6 6 16q2 4 2 13l-14 4l-16 6l-31 27l-10 10q-16 22 -25 57q0 3 -1 10.5t-1 10.5q-2 43 22.5 81.5t65.5 55.5l21 6q8 2 26 2q45 0 86 -27l17 -14l8 -6q28 -28 32 -84z" />
<glyph unicode="-" horiz-adv-x="1085" d="M283 614h16q32 0 66 0.5t56.5 1t24.5 0.5h199v-2h125q28 -4 39 -4h18q18 -2 69 2t60 -6q22 -12 24.5 -27t-2.5 -41t-1 -46v-21q2 -23 -8 -53l-11 -15q-8 -10 -26 -11.5t-47 2t-41 3.5h-199v-2q-60 0 -189 1t-169 1q-86 -10 -128.5 -1t-49.5 48q0 3 -1.5 9.5t-1.5 9.5 q0 17 -0.5 35t-0.5 26.5t1 23.5t5 36q2 6 8 12q2 7 12 10q32 18 72 8q2 2 16 2h23q27 0 41 -2z" />
<glyph unicode="." horiz-adv-x="448" d="M219 258q45 0 86 -27l17 -14q23 -17 36 -47l4 -25q0 -3 1.5 -8t1.5 -8q5 -30 -11 -63q-3 -3 -6 -10.5t-6 -10.5q-25 -35 -72 -51q-16 -4 -18 -4q-11 -4 -43 -4h-23l-18 6l-16 6l-31 27l-10 10q-16 22 -25 57q0 3 -1 10.5t-1 10.5q-2 43 22.5 81.5t65.5 55.5l21 6 q8 2 26 2z" />
<glyph unicode="/" horiz-adv-x="933" d="M410 362q-2 -4 -4 -12l-5 -12l-24 -47l-12 -25l-93 -178l-6 -16l-18 -37q-8 -17 -19.5 -27.5t-30.5 -14t-30 -4.5t-37 0t-33 1q-12 0 -16 -2q-49 4 -57 30q-9 29 16 70l12 16l8 19q34 66 50 106q4 12 4 13l78 168l10 18l43 92l10 21l61 127q0 1 13 22l10 15 q14 40 50.5 110.5t41.5 81.5l6 10l6 13q39 68 48 90l94 188l12 21l16 36l7 13q12 19 25 54.5t28.5 61.5t42.5 41q11 7 18 7q4 2 21 2q-1 0 -2 1t-2 1q16 -4 38 -1t45.5 3t42 -2t28.5 -15.5t5 -38.5l-4 -18l-24 -51l-6 -17q-8 -18 -19 -32q-4 -5 -20 -43l-7 -13 q-43 -95 -53 -108l-6 -15q-2 -3 -16 -36l-6 -13l-41 -90l-9 -16q-10 -21 -47 -84t-51 -101l-10 -18l-43 -90q-14 -32 -27 -55q-6 -13 -26.5 -51t-30.5 -60l-14 -29q-9 -15 -24 -45.5t-17 -34.5z" />
<glyph unicode="0" horiz-adv-x="1163" d="M371 1419l26 11q57 20 162 24q36 0 59 2h31q7 -1 36.5 -7.5t41.5 -9.5t35 -9.5t40.5 -14.5t33.5 -18l16 -13q36 -23 72 -59l14 -14q35 -43 47 -74q15 -25 21 -39q12 -19 19.5 -43.5t10.5 -42t7 -47t6 -43.5l4 -39v-14l4 -41q5 -51 0 -201v-22q5 -150 0 -201 q-5 -69 -8 -84q-2 -8 -2 -27l-11 -63q0 -3 -1 -10.5t-1 -10.5t-1 -9t-1 -9q-56 -123 -94 -170l-14 -15q-36 -36 -72 -59l-16 -12q-14 -8 -30.5 -15.5t-28.5 -12t-33 -10.5t-30 -8t-34 -7.5t-31 -6.5h-31q-14 2 -43 2q-116 0 -178 25l-26 10q-33 16 -47.5 23.5t-37.5 24 t-38 34.5l-17 19q-28 36 -38 59q-28 55 -39 92q-22 63 -33 162q-6 33 -10 98v19q-5 147 -7 162v18q-3 81 5 151q0 3 1 9.5t1 9.5l4 55q0 3 1 9.5t1 9.5l4 39q11 98 33 161q11 40 39 93q10 23 38 59l17 18q15 18 38 34.5t37.5 24t47.5 23.5zM520 262l21 -6q2 -2 18 -2 q52 3 109 27l12 8l12 10q1 1 8 10t11 15q28 34 39 112q10 20 10 58l4 22q-2 6 -2 27q0 42 2 96.5t2 83.5q0 10 -4 95t2 97l-4 23q0 37 -10 57q-12 80 -39 113q-4 6 -11 15t-8 10l-12 10l-12 8q-47 21 -103 27q-6 -2 -24 -2l-21 -7q-33 -8 -57 -36l-14 -15q-6 -8 -11 -18 q-13 -22 -16 -29q-12 -39 -14 -67q0 -3 -1 -9.5t-1 -9.5q-7 -40 -7 -65q-4 -62 -4 -82q0 -4 -1 -11t-1 -10q5 -11 1.5 -90t-3.5 -90q0 -4 1 -11.5t1 -11.5q0 -3 1 -9.5t1 -10.5q0 -20 4 -82q0 -26 7 -66q0 -3 1 -9t1 -9q2 -29 14 -68q2 -4 16 -28q6 -13 11 -19l14 -14 q26 -29 57 -37z" />
<glyph unicode="1" horiz-adv-x="659" d="M188 1434h19q11 0 39 4h71l2 2q131 4 183 -4q4 -2 12 -9q7 -2 10 -12q18 -32 8 -72q3 -3 3 -16v-22q0 -20 -3 -41v-17q0 -32 1 -66t1.5 -56.5t0.5 -24.5v-180q-5 -78 -5 -82t-1 -11t-1 -10q4 -11 1 -90t-3 -90v-440q-4 -28 -4 -39v-19q-2 -18 2 -69t-6 -60 q-12 -22 -37.5 -24t-61.5 3t-57 1h-20q-46 -3 -78 8l-14 10q-10 8 -11.5 26t2 47.5t3.5 41.5v14q0 100 -1 288.5t-1 203.5v94q-1 30 4 178q0 3 1 9.5t1 9.5v20q0 6 2 8q-2 6 -2 17v39l-2 151h-74q-12 0 -39 -3.5t-43 -2t-24 11.5l-11 15l-3 14q-4 14 -5 24v13q-1 11 1 56 t-3 56q0 4 -1 12t-1 11q-2 27 3 42.5t22 25.5q9 10 55.5 6t64.5 -2z" />
<glyph unicode="2" horiz-adv-x="1179" d="M1022 281l18 -7q25 -16 25 -45v-20q-5 -36 -4 -43q0 -108 -8 -146l-11 -14q-13 -13 -49 -10q-32 -10 -92 -6h-24q-32 1 -91 3t-107.5 3t-92.5 0h-90q-42 0 -60 2h-94q-25 2 -31 2.5t-31 -2t-32 -2.5q-5 0 -15.5 -1t-15.5 -1q-72 -11 -97.5 41t-6.5 121q0 5 1 15t1 15 l4 31q23 136 92 225l18 25l13 14q23 27 54 54t53.5 43.5t63 45.5t58.5 42l25 18q38 25 71 55l25 19q46 36 67 57l21 19q32 25 57 61l17 23q26 42 32 75q4 26 2 31q0 36 -14 61q-1 4 -4.5 9t-3.5 6q-7 14 -10 18l-15 15q-24 28 -57 36l-20 7q-108 11 -181 -25l-12 -8l-12 -10 q-32 -32 -49 -89l-15 -49q-28 -47 -102 -47h-31q-13 2 -39 5t-42.5 5.5t-36 12.5t-31.5 28q-15 24 -4 66l4 27q19 107 104 217l23 24l24 23l25 18q47 35 106 56l23 8q16 6 51 10q20 4 27 4q61 9 110 2h27q117 0 174 -24l27 -11q32 -16 47 -24t37.5 -24t37.5 -34l17 -18 q30 -39 39 -59l14 -29q3 -5 7 -15.5t7 -15.5l13 -31l8 -32q39 -129 -17 -277l-12 -26q-27 -59 -78 -119l-22 -25q-40 -53 -107 -106l-24 -19q-8 -8 -43 -33q-3 -3 -11.5 -8.5t-11.5 -7.5l-20 -16q-3 -2 -8 -5.5t-8.5 -6t-6.5 -5.5q-18 -12 -75.5 -47t-92 -63t-59.5 -64 l-19 -26h377q9 0 59 -2.5t59.5 -2t59.5 2.5h21z" />
<glyph unicode="3" horiz-adv-x="1179" d="M1069 518q6 -26 6 -106q0 -3 1 -8.5t1 -8.5q0 -4 -1 -10.5t-1 -9.5q-3 -38 -10 -58l-4 -20q-24 -103 -82 -166l-6 -10l-17 -19q-15 -18 -37.5 -34t-37.5 -24t-47 -24l-27 -10q-39 -15 -83.5 -19.5t-105 -4.5t-86.5 -2h-30q-7 1 -36.5 7.5t-41.5 9.5t-35 9.5t-40.5 14.5 t-33.5 18l-16 12q-33 21 -72 60l-14 14q-35 44 -47 74q-15 25 -21 39q-17 29 -28 84l-4 16l-9 64q-2 4 -2 20q3 38 37 59l15 7q33 4 93 2.5t93 1.5q12 0 16 -2q42 -13 45 -58l5 -18q0 -3 1 -7.5t1 -7.5l4 -18q10 -30 28 -53q4 -8 9 -13q54 -68 159 -57h19q23 0 37 2l20 6 l14 6q38 17 66 64q5 5 8 14q14 23 14 33q2 2 2 12q3 9 3 23q-3 6 -3 14q0 19 -6 37q0 4 -4 16q-9 40 -41 66l-14 12q-21 13 -68 25h-18q-9 4 -39 4q-2 -2 -14 -2q-27 6 -54.5 2.5t-54 5t-35.5 33.5q-2 2 -2 18v17v69v43q0 7 4 19q3 8 11 12q16 14 41 16t45.5 -2.5t44.5 0.5 h12q31 4 37 7q3 0 7 1t7 1q27 6 51 18l17 10q42 25 60.5 73t12.5 101q0 11 -2 13q-3 18 -12 34q-1 4 -4.5 9t-3.5 6q-7 14 -10 18l-15 15q-24 28 -57 36l-20 7q-108 11 -181 -25l-12 -8l-12 -10q-1 -1 -8 -10t-11 -15q-18 -23 -28 -53l-4 -19q-4 -26 -11 -43q-1 -5 -4 -11.5 t-4 -8.5q-15 -21 -41 -21q-2 -2 -10 -2q-10 0 -12 -2h-95q-22 0 -43.5 -0.5t-43 8.5t-33.5 29l-7 12q-2 4 -2 17q0 16 2 20l9 64l4 16q11 55 28 84q6 14 21 39q12 31 47 74l14 14q36 36 72 59l16 13q11 7 54 26l18 7q111 26 184 24h21h27h28.5t25.5 -0.5t28 -1.5t25 -2.5 t28 -4t25.5 -6.5t27.5 -9l27 -11l34 -16l17 -8q70 -43 114 -115l13 -20q18 -30 28 -60l11 -33q21 -50 24 -102q0 -3 1 -10t1 -11q-2 -16 -2 -51v-18q-12 -59 -22 -92q-1 -2 -9 -19q-9 -25 -47 -73l-12 -13l-10 -12l-12 -10q-13 -13 -52 -39q7 -4 23.5 -11.5t27.5 -14.5 t19 -17l12 -15q40 -46 54 -75l8 -17q6 -12 10 -32q4 -16 4 -17z" />
<glyph unicode="4" horiz-adv-x="1048" d="M983 209q-4 -28 -4 -39v-18q-2 -18 2 -69t-6 -60q-12 -22 -37 -24.5t-61.5 2.5t-57.5 1h-20q-46 -3 -78 8l-14 10q-10 8 -12 26t1.5 48t3.5 41v150h-219q-14 0 -16 -2q-69 -4 -107 -2h-96q-14 0 -39 1t-39 1q-4 2 -16 2q-3 0 -8 -1t-8 -1t-7.5 1t-7.5 1q-20 -2 -55 14 l-10 12l-9 29v16q-3 70 27 123l6 17q7 16 22.5 55.5t28.5 69t27 55.5q3 9 8 14l8 23q3 6 3 10l4 8l1 7q1 8 5 12l22 55l6 18q3 3 4.5 9.5t4.5 9.5l6 18q29 63 47 113l6 16q10 28 62 151.5t61 155.5q0 5 2 7l4 12l12 33q1 3 4.5 7t4.5 7q13 52 56 72.5t97 9.5q3 0 8 -1t8 -1 q19 -1 40.5 -1.5t40 -1t33 -10.5t18.5 -30q0 -11 -2 -13q-2 -8 -11 -22l-10 -21l-16 -47l-4 -12l-15 -37q-1 -1 -4 -10l-16 -41l-45 -133q-3 -3 -9 -21q-1 -4 -8 -18q-3 -15 -13 -41.5t-13 -36.5l-9 -20q-8 -17 -20 -49t-18 -46l-7 -16l-16 -47l-8 -16l-6 -17l-8 -16 l-21 -49l-25 -66q-1 -2 -2 -5l-1.5 -4.5t-0.5 -2.5q-3 -5 -7 -16.5t-7 -16.5q8 4 38 2.5t38 -0.5q14 0 16 2h8q115 0 170 -2q0 8 1 26.5t1 30.5v74q-7 27 -4 43q0 4 1 11t1 10q11 30 54 41q3 0 9 1t9 1q131 4 182 -4q6 -2 13 -9q7 -2 10 -12q18 -32 8 -72q2 -2 2 -16v-22 q0 -27 -2 -41v-80q0 -38 1.5 -104.5t1.5 -122t-3 -107.5z" />
<glyph unicode="5" horiz-adv-x="1181" d="M1073 561q6 -40 2 -149q0 -3 1 -7.5t1 -7.5q-2 -4 -2 -18q0 -15 -2 -17q0 -3 -1 -7t-1 -7l-6 -29l-4 -20q-4 -15 -23 -59l-8 -19q-29 -47 -33 -51q-3 -9 -10 -16q-16 -27 -45 -52l-18 -14q-3 -2 -22 -14.5t-30 -18.5l-16 -10q-28 -17 -57 -25q-1 -2 -21 -8 q-83 -27 -172 -24h-18q-18 -2 -56 -2h-30q-7 1 -36.5 7.5t-41.5 9.5t-35 9.5t-40.5 14.5t-33.5 18l-16 12q-33 21 -72 60l-14 14q-35 43 -47 74q-15 25 -21 39q-17 29 -28 84l-4 16l-9 64q-2 4 -2 20q3 38 37 59l15 7q33 4 93 2.5t93 1.5q12 0 16 -2q42 -13 45 -58l5 -18 q0 -3 1 -7t1 -7l4 -19q10 -30 28 -53q3 -6 9 -12q45 -58 137 -58h22q44 -2 87 19.5t69 58.5q5 5 8 14q44 78 16 181l-6 18l-10 20q-26 38 -67.5 60t-88.5 24q-3 0 -10 1.5t-10 1.5l-62 -2q-61 -2 -61 2h-102q-32 3 -60 0h-22q-75 3 -92 63q0 3 -1 9.5t-1 10.5q-3 18 -3 39.5 t1.5 48.5t1.5 41v19q-2 49 -2 145v15q2 4 2 22v15q-1 17 -1 37.5t0.5 46t0.5 40.5v43q2 4 2 21q0 16 -2 22q0 7 -1 27.5t-0.5 32.5t3 28.5t11 27t21.5 16.5l17 4q14 0 46 1.5t49.5 2t44 0t48.5 -3.5h408q28 -4 39 -4h18q18 -2 69 1.5t60 -6.5q17 -10 22 -25.5t3 -41.5 q0 -3 -1 -11t-1 -12q-5 -11 -3 -56t1 -56v-13l-5 -20q-3 -27 -24.5 -35.5t-46 -5t-47.5 -0.5q-3 0 -8.5 1t-8.5 1h-106q-66 0 -178.5 -1t-147.5 -1q0 -16 1 -35l1 -18v-33q-1 -12 -1 -59t-3 -74q0 -2 -1 -8t-0.5 -10t3.5 -7h21q3 0 10.5 -1t11.5 -1q3 0 9.5 -1t9.5 -1h67 q17 0 21 -2h45q4 -2 20 -2l19 -4q16 0 20 -2q3 0 10.5 -1t10.5 -1l20 -4q7 0 23 -4q17 -3 41 -13l18 -6q33 -18 50.5 -29t43 -31t41.5 -42l12 -17q20 -30 60 -135l4 -16l4 -14q0 -3 4 -19z" />
<glyph unicode="6" horiz-adv-x="1140" d="M1028 526q16 -59 0 -176l-4 -18q-11 -57 -25 -82l-6 -14l-8 -17q-5 -5 -8 -16q-29 -56 -53 -82l-15 -15q-38 -38 -71 -59l-17 -12q-36 -22 -71 -33q-15 -7 -39 -10q-22 -8 -48.5 -12t-43 -4.5t-50.5 0.5t-45 1q-7 0 -18.5 1.5t-18.5 1.5q-9 1 -25.5 3.5t-27 4.5t-25 5.5 t-26.5 8.5l-27 10q-33 16 -47.5 23.5t-37.5 24t-38 34.5l-16 19q-30 39 -39 59q-19 31 -28 59q-1 3 -2 7t-2 6.5t-1 3.5q-32 82 -39 143q0 15 -2 19q0 3 -1 9t-1 9v33q0 10 2 12v236l7 77v66q2 4 2 16q-6 59 8 158q0 12 2 16l6 45l4 15q5 29 19 69q13 44 38 93q9 20 39 59 l17 18q15 18 38 34.5t37.5 24t47.5 23.5l26 11q57 20 162 24q36 0 59 2h31q7 -1 36.5 -7.5t41.5 -9.5t35 -9.5t40.5 -14.5t33.5 -18l16 -12q33 -21 72 -60l14 -14q35 -43 47 -74q15 -25 21 -39q3 -5 7 -15.5t7 -15.5q1 -2 2 -5l1.5 -4.5t0.5 -2.5q8 -13 8 -33q3 -16 0 -32 q-1 -37 -32 -50t-70 -8h-111q-37 0 -66.5 19.5t-41.5 54.5l-11 14l-8 13l-12 10l-12 8q-47 21 -103 27q-6 -2 -24 -2l-21 -6q-31 -8 -57 -37l-15 -15q-3 -4 -10 -18q-13 -22 -16 -29l-4 -12q-4 -16 -4 -19l-6 -18l-5 -18q-4 -16 -4 -19q-4 -16 -4 -18q-3 -15 -4 -31 t-1 -35.5t-1 -30.5q44 25 59 31q3 0 15 4q2 0 14 4h17l34 5h19q108 4 166 -15q16 -4 20 -4q39 -12 90 -39l17 -12q31 -20 71 -60l15 -14q35 -44 47 -74q13 -22 20 -38q21 -35 31 -87q0 -3 1 -9t1 -9t1 -7t1 -7t1 -8.5t1 -8.5zM696 324q21 26 33.5 65.5t5.5 69.5 q-11 78 -39 112q-3 5 -18 25l-12 10q-85 49 -160 27l-17 -6l-10 -6q-39 -24 -63.5 -62.5t-24.5 -81.5q0 -3 -1 -8t-1 -8q0 -5 4 -33q0 -14 2 -18q0 -3 1 -8.5t1 -8.5l4 -12l7 -21q2 -4 16 -28q8 -17 10 -19l15 -14q29 -29 69.5 -39t81.5 2l18 4l35 15l13 8l12 10 q15 20 18 25z" />
<glyph unicode="7" horiz-adv-x="1052" d="M989 1376v-16q3 -72 -26 -123l-7 -16q-8 -19 -22.5 -56.5t-27.5 -68t-27 -56.5q-3 -8 -9 -14l-8 -22q-2 -4 -2 -11l-4 -8q-1 -2 -1 -5.5t-1 -6.5t-4 -6l-23 -56l-6 -18q-3 -3 -4 -9.5t-4 -9.5l-6 -18q-29 -63 -47 -113l-6 -16q-3 -8 -32 -71.5t-38 -98.5q-7 -14 -8 -18 q-19 -48 -54.5 -141.5t-62.5 -164.5t-37 -90q0 -4 -2 -6q-1 -2 -2 -5l-1.5 -4.5t-0.5 -2.5l-6 -16q-2 -2 -6 -17q-1 -3 -4 -7t-4 -7q-13 -52 -56.5 -72.5t-97.5 -9.5q-3 0 -8 1t-8 1q-17 1 -39 1.5t-41.5 1t-34 10.5t-16.5 30q0 10 2 12q7 25 27 71t28 69q1 1 4 10 q37 108 61 166q27 70 35 96q36 84 74 188q2 1 8 21q1 4 8 18q3 15 13.5 41t13.5 37q1 5 4 12t4 9q8 18 21 50t18 44l6 16l17 47l8 17q3 13 6 16l8 16l21 50l24 65q1 2 2 5l1.5 4.5t0.5 2.5q3 5 7.5 16.5t7.5 16.5q-8 -4 -38 -2.5t-38 0.5q-15 0 -17 -2h-8q-58 0 -166.5 1 t-144.5 1h-14q-14 2 -39 -0.5t-45.5 -2t-34.5 10.5q-5 3 -12 13q-5 35 -5 38q-1 19 0 56.5t0 56.5v21q-2 4 -2 18v16q3 32 29 41l16 4q25 3 75 2.5t75 2.5h35q14 0 18 2q31 -3 63.5 -3.5t78 0.5t63.5 1h57q15 0 17 2q69 4 106 2h97q13 0 38 -1t39 -1q4 -2 17 -2q3 0 8 1t8 1 t7 -1t7 -1q19 2 56 -15l10 -12z" />
<glyph unicode="8" horiz-adv-x="1153" d="M637 -14h-29h-92v2q-89 4 -143 22l-27 10q-33 16 -47.5 23.5t-37.5 24t-38 34.5l-16 19l-6 10q-58 63 -82 166l-4 20q-1 4 -4.5 19t-4.5 24q0 3 -1 7.5t-1 7.5q-2 71 27 176l8 16l15 31l12 14q13 22 61 70l15 10l32 23l-24 20q-28 20 -41 33l-12 12l-13 11l-10 14l-12 14 l-10 17q-45 74 -48 170v20q0 3 -1 9t-1 9q0 4 1 11t1 10q3 49 25 102l10 33q9 26 29 60l12 20q44 71 115 115l16 8l35 16l27 11q53 20 143 24h49h27h28.5t25.5 -0.5t28 -1.5t25 -2.5t28 -4t25.5 -6.5t27.5 -9l27 -11l35 -16l16 -8q30 -18 57 -45q15 -12 27 -27 q54 -70 70 -111l12 -36q10 -32 20 -76q0 -3 1.5 -8.5t1.5 -8.5q2 -4 2 -18q0 -3 1 -10t1 -11q-2 -16 -2 -51v-18l-11 -51l-4 -13q-20 -55 -57 -104l-10 -14q-39 -52 -93 -78q10 -7 32 -19t36.5 -23.5t24.5 -27.5l10 -14q36 -48 57 -109l4 -16q0 -3 1 -9.5t1 -9.5 q15 -105 -2 -170l-4 -20q-24 -103 -82 -166l-6 -10l-16 -19q-15 -18 -38 -34.5t-37.5 -24t-47.5 -23.5l-27 -10q-53 -18 -143 -22v-2zM657 1169q-61 9 -82 9t-79 -9q-34 -9 -58 -36l-14 -15q-3 -4 -10 -18q-4 -4 -8 -15q-11 -18 -13 -34q-2 -2 -2 -13q-6 -52 8 -90l7 -14 q22 -66 88 -88q14 -7 18 -8l20 -4q34 -9 78 -3l17 5q54 12 92 53l12 16q41 59 31 133q0 11 -2 13q-3 18 -12 34q-1 3 -4.5 8.5t-4.5 6.5q-7 14 -10 18l-14 15q-24 27 -58 36zM608 594h-30q-65 0 -103 -16q-10 -5 -18 -11l-15 -12q-32 -26 -41 -66q-4 -12 -4 -16 q-6 -18 -6 -37q0 -10 -2 -14q0 -17 2 -23q0 -10 2 -12q0 -8 15 -33q4 -12 8 -14q28 -47 65 -64l15 -6l20 -6q14 -2 37 -2h80q2 0 4 2l20 6l15 6q37 17 65 64q5 5 8 14l13 23q2 2 2 10q6 18 6 35q0 14 -2 18q0 26 -27 86l-8 11l-18 18l-15 12l-16 8l-14 7q-28 9 -58 12z" />
<glyph unicode="9" horiz-adv-x="1140" d="M113 909q-16 59 0 176l4 19q12 60 24 82l6 14l9 17q5 5 8 16q29 56 53 82l14 14q39 39 72 60l16 12q35 21 72 33q15 7 39 10q22 8 48 12t43.5 4t49.5 -1t45 -1q7 0 18.5 -1t18.5 -1q6 -1 31.5 -4.5t41.5 -7.5t32 -10l26 -11q33 -16 47.5 -23.5t37.5 -24t38 -34.5l17 -18 q30 -39 39 -59q18 -30 28 -60l4 -16q31 -82 39 -144q0 -14 2 -18q0 -3 1 -9t1 -9v-33q0 -10 -2 -12v-236l-6 -78v-65q-2 -4 -2 -17q6 -58 -8 -157q0 -13 -2 -17l-6 -45l-4 -14q-5 -31 -19 -70q-11 -37 -39 -92q-9 -20 -39 -59l-16 -19q-15 -18 -38 -34.5t-37.5 -24 t-47.5 -23.5l-27 -10q-60 -21 -161 -25q-37 0 -60 -2h-30q-6 1 -31 6.5t-34 7.5t-30 8t-33 10.5t-28.5 12t-30.5 15.5l-16 12q-36 23 -72 59l-14 15q-35 43 -47 74q-16 27 -21 38q-3 5 -7 15.5t-7 15.5q-1 2 -2 5l-1.5 4.5t-0.5 2.5q-8 13 -8 33q-3 17 0 33q1 37 32 49.5 t70 7.5h111q38 0 67 -19t41 -54l10 -15l9 -12l12 -10l12 -8q47 -21 103 -27q6 2 24 2l21 6q31 8 57 37l14 14q4 6 11 19q14 24 16 28l4 13q4 16 4 18l6 19l4 18q4 16 4 18q1 3 2 7.5t2 7t1 4.5q3 15 4 30.5t1 35t1 30.5q-32 -21 -60 -31q-2 0 -14 -4q-2 0 -14 -4h-17l-35 -4 h-18q-111 -4 -166 14l-20 5q-46 15 -91 38l-16 13q-36 23 -72 59l-14 15q-36 45 -47 73q-11 19 -20 39q-21 36 -31 86q0 3 -1 9.5t-1 9.5t-1 7t-1 7t-1 8t-1 8zM444 1112q-20 -25 -33 -66t-5 -69q4 -29 6.5 -42t10.5 -34.5t21 -36.5q3 -6 10 -14t9 -10l12 -11 q84 -48 160 -26l16 6l11 6q40 24 64 62t24 81q0 3 1 8.5t1 8.5q0 5 -4 33q0 12 -3 18q0 3 -1 8t-1 8l-4 13l-6 20q-3 7 -16 29q-7 14 -10 18l-15 15q-29 29 -69.5 39t-81.5 -2l-19 -5l-35 -14l-12 -8l-12 -10q-1 -1 -8 -10t-11 -15z" />
<glyph unicode=":" horiz-adv-x="448" d="M219 258q45 0 86 -27l17 -14q23 -17 36 -47l4 -25q0 -3 1.5 -8t1.5 -8q5 -30 -11 -63q-3 -3 -6 -10.5t-6 -10.5q-25 -35 -72 -51q-16 -4 -18 -4q-11 -4 -43 -4h-23l-18 6l-16 6l-31 27l-10 10q-16 22 -25 57q0 3 -1 10.5t-1 10.5q-2 43 22.5 81.5t65.5 55.5l21 6 q8 2 26 2zM219 1026q45 0 86 -27l17 -14q23 -17 36 -47l4 -25q0 -3 1.5 -8t1.5 -8q5 -30 -11 -63q-3 -3 -6 -10.5t-6 -10.5q-25 -35 -72 -51q-16 -4 -18 -4q-11 -4 -43 -4h-23l-18 6l-16 6l-31 27l-10 10q-16 22 -25 57q0 3 -1 10.5t-1 10.5q-2 43 22.5 81.5t65.5 55.5l21 6 q8 2 26 2z" />
<glyph unicode=";" horiz-adv-x="448" d="M219 1026q45 0 86 -27l17 -14q23 -17 36 -47l4 -25q0 -3 1.5 -8t1.5 -8q5 -30 -11 -63q-3 -3 -6 -10.5t-6 -10.5q-25 -35 -72 -51q-16 -4 -18 -4q-11 -4 -43 -4h-23l-18 6l-16 6l-31 27l-10 10q-16 22 -25 57q0 3 -1 10.5t-1 10.5q-2 43 22.5 81.5t65.5 55.5l21 6 q8 2 26 2zM362 127q3 -3 3 -8q2 -7 2 -9.5t-2 -9.5t-3 -10v-14q0 -24 -10 -62q-27 -74 -43 -110q-22 -45 -45 -74l-6 -8q-6 -7 -19 -24t-21.5 -26.5t-22.5 -19t-29 -12.5h-10q-29 8 -58 33l-6 8q-10 20 -2 33l4 12q4 5 15.5 18t15.5 21q4 4 6 10q7 7 12 21l7 12q13 31 22 43 q0 1 0.5 1.5t1 2t0.5 4.5q6 6 6 16q2 4 2 13l-14 4l-16 6l-31 27l-10 10q-16 22 -25 57q0 3 -1 10.5t-1 10.5q-2 43 22.5 81.5t65.5 55.5l21 6q8 2 26 2q45 0 86 -27l17 -14l8 -6q28 -28 32 -84z" />
<glyph unicode="&#x3c;" horiz-adv-x="854" d="M770 160q0 -4 1 -8t1 -5q-3 -33 -31 -61l-8 -10l-43 -45l-10 -8q-3 -1 -5 -4.5t-5 -4.5q-32 -23 -72 13q-1 3 -4 5t-4 5q-32 32 -39 37l-10 8q-6 3 -15 12q-3 3 -14.5 12t-19.5 17l-23 18q-10 8 -30 26.5t-33 27.5q-5 3 -33 26q-15 11 -42 35t-42 35l-29 24q-10 6 -27 23 q-3 3 -9 7t-9 7l-18 13l-19 14q-22 22 -49 43l-10 8q-21 21 -29 45l-6 19q-7 37 13 64t59 58l16 17l12 10l39 31l29 28l16 15l21 18l8 6l10 9l27 22q3 1 5 4t5 4q8 7 25.5 19.5t25.5 19.5l8 8q3 1 11 9q14 10 37 30t32 27l6 6q23 13 33 23l15 12q11 8 30 25.5t21 19.5l12 12 q15 19 32.5 23t35.5 -7.5t30 -23t27 -29.5q6 -8 14 -14q39 -39 31 -80q0 -2 -4 -14q-6 -10 -19.5 -21t-32 -24t-28.5 -21l-10 -8l-19 -16q-5 -4 -19 -16t-22 -19q-3 -1 -6 -4t-6 -4q-24 -20 -69 -61t-70 -60l-14 -10l-15 -13l-71 -57q19 -17 65 -52t68 -57l16 -14 q19 -19 57 -50.5t47 -39.5l29 -27q5 -7 15 -14l14 -12q10 -10 21.5 -19t25.5 -18.5t22 -15.5q3 -1 4.5 -2.5t2.5 -3.5t2 -3q5 -3 9.5 -12.5t6.5 -11.5z" />
<glyph unicode="=" horiz-adv-x="1085" d="M283 836h16q32 0 66 0.5t56.5 1t24.5 0.5h199v-2h125q35 -5 39 -5h18q18 -2 69 2t60 -6q22 -12 24.5 -27t-2.5 -41t-1 -46v-21q2 -23 -8 -53l-11 -14q-8 -10 -25.5 -12t-47.5 1.5t-41 3.5h-199v-2q-60 0 -189 1t-169 1q-86 -10 -128.5 -0.5t-49.5 48.5q0 3 -1.5 9t-1.5 9 q0 16 -0.5 34.5t-0.5 27t1 23.5t5 36q2 6 8 12q2 7 12 10q33 18 72 9q2 2 16 2h23q27 0 41 -2zM283 412h16q32 0 66 0.5t56.5 1t24.5 0.5h199v-2h125q28 -4 39 -4h18q18 -2 69 1.5t60 -6.5q22 -12 24.5 -27t-2.5 -41t-1 -46v-21q2 -23 -8 -53l-11 -14q-8 -10 -26 -11.5 t-47 2t-41 3.5h-199v-2q-60 0 -189 1t-169 1q-86 -10 -128.5 -1t-49.5 48q0 3 -1.5 9t-1.5 9q0 16 -0.5 34.5t-0.5 27t1 23.5t5 36q2 6 8 12q2 7 12 10q33 18 72 9q2 2 16 2h23q27 0 41 -2z" />
<glyph unicode="&#x3e;" horiz-adv-x="854" d="M84 160q2 2 6.5 11.5t9.5 12.5q1 1 2 3t2.5 3.5t4.5 2.5q3 3 29 21t40 32l15 12q8 6 14 14l29 27q10 8 47.5 39.5t56.5 50.5l16 14q22 22 68 57t65 52l-71 57l-15 13l-14 10q-25 20 -70 61t-69 60q-3 1 -6 4t-6 4q-24 18 -41 35l-19 16l-10 8q-10 8 -28.5 21t-32 24 t-19.5 21q-4 12 -4 14q-8 41 31 80q8 6 14 14q15 18 27 29.5t30 23t35.5 7.5t32.5 -23l12 -12q2 -2 21 -19.5t30 -25.5l15 -12q10 -10 33 -23l6 -6q9 -7 32 -27t37 -30q8 -8 11 -9l8 -8q8 -7 25.5 -19.5t25.5 -19.5q3 -1 5 -4t5 -4l27 -22l10 -9l8 -6l21 -18l16 -15l29 -28 l39 -31l12 -10l16 -17q26 -20 40 -34t25.5 -38t6.5 -50l-6 -19q-8 -24 -29 -45l-10 -8q-27 -21 -49 -43l-19 -14l-18 -13q-3 -3 -9 -7t-9 -7q-17 -17 -27 -23l-29 -24q-15 -11 -41.5 -35t-42.5 -35q-1 -1 -12.5 -10.5t-19.5 -15.5q-13 -9 -34 -28t-30 -26l-23 -18 q-8 -8 -19.5 -17t-14.5 -12q-9 -9 -15 -12l-10 -8q-7 -5 -39 -37q-1 -3 -4 -5t-4 -5q-40 -36 -72 -13q-3 1 -5 4.5t-5 4.5l-10 8l-43 45l-8 10q-28 28 -31 61q0 1 1 5t1 8z" />
<glyph unicode="?" horiz-adv-x="1179" d="M1053 1169l8 -32q39 -129 -17 -277l-12 -26q-27 -59 -78 -119l-12 -13l-12 -14q-47 -53 -103 -80l-18 -6q-7 -5 -45 -24l-16 -7q-51 -18 -70 -26q-6 -6 -12 -8l-11 -9q-2 -2 -5.5 -4.5t-4.5 -5.5l-10 -10l-12 -25q-3 -10 -6 -34t-8.5 -43t-16.5 -29q-2 -1 -19 -10 q-44 -13 -145 -13q-16 0 -22 2q-3 0 -10.5 1t-10.5 1l-23 7q-4 1 -18 8q-8 3 -14 12q-6 6 -6 16q-11 107 24 191l8 14q4 6 12.5 19.5t13.5 20.5l12.5 17.5t15 18.5t16.5 16l16 13q59 50 125 75l17 9l18 6l19 8q101 39 145 121l8 16q9 20 12 47q0 3 1 7.5t1 7.5v16 q0 36 -14 61q-1 4 -4.5 9t-3.5 6q-7 14 -10 18l-15 15q-24 28 -57 36l-20 7q-108 11 -181 -25l-12 -8l-12 -10q-32 -32 -49 -89l-15 -49q-28 -47 -102 -47h-31q-13 2 -39 5t-42.5 5.5t-36 12.5t-31.5 28q-15 24 -4 66l4 27q19 107 104 217l23 24l24 23l25 18q47 35 106 56 l23 8q16 3 47 7t47 7q3 0 9 1t9 1q75 8 168 -2q4 0 11.5 -1t11.5 -1q49 -6 86 -20l27 -11q32 -16 47 -24t37.5 -24t37.5 -34l17 -18q30 -39 39 -59l14 -29q3 -5 7 -15.5t7 -15.5zM444 252q44 0 82 -27l17 -12q19 -16 35 -45l4 -25q0 -3 1 -7t1 -7q6 -28 -11 -61 q-3 -3 -6 -9.5t-6 -9.5q-21 -34 -67 -49q-16 -4 -19 -4q-9 -4 -41 -4h-20l-19 6l-14 6l-31 25l-8 10q-16 26 -25 55q0 3 -1 9.5t-1 9.5q-1 41 22 77.5t62 53.5l21 6q6 2 24 2z" />
<glyph unicode="@" horiz-adv-x="1650" d="M1565 641q8 -64 -2 -145q0 -3 -1 -9.5t-1 -9.5q-9 -67 -33 -133q-6 -18 -8 -20l-4 -13l-21 -30l-14 -15l-15 -18q-18 -25 -57 -49q4 0 6 2q-65 -47 -117 -49l-18 -5q-51 -7 -86 -4l-20 4q-117 25 -160 113l-8 16l-17 37q-9 6 -15 3.5t-18.5 -11.5t-19.5 -10l-12 -6 q-26 -13 -50 -19q-16 -4 -18 -4q-83 -13 -188 19l-29 12q-43 18 -82 57l-14 15q-13 17 -25 37l-6 12q-45 89 -18 192q0 5 4 21q22 93 94 153l14 11q6 7 17 10l16 8l33 14l16 7q116 26 193 -7l18 -8l19 -12q3 -2 32 -25l15 -12q3 -1 7.5 -7.5t6.5 -8.5l4 24v19q0 14 2 18 l6 12q11 8 23.5 11.5t28.5 3t24.5 -1.5t29 -5.5t25.5 -5.5q12 -4 15 -16q4 -12 4 -14v-45q0 -3 -1 -7.5t-1 -7.5q1 -18 -1.5 -52.5t-2.5 -47.5v-51q0 -13 2 -15v-12q0 -14 2 -20v-21q-2 -18 -2 -57q0 -3 1 -7t1 -7q-5 -46 29.5 -75t76.5 -9q59 27 72 129q0 3 1 10t1 10 q2 6 2 31q0 12 -2 16q4 36 4 57v19q0 66 -49 178l-8 14q-10 23 -39 56l-10 12l-15 16q-42 42 -65 58l-17 14q-34 24 -71 43q-5 1 -12 4t-9 4q-70 29 -145 35q-4 2 -21 2q-70 9 -143 -16l-21 -6l-22 -7l-21 -6q-12 -6 -35 -16.5t-37.5 -17.5t-34 -18t-34.5 -23l-33 -29 q-47 -47 -59 -66l-12 -16q-32 -63 -39 -90l-4.5 -9t-4.5 -12q-28 -67 -28 -168v-28q-2 -24 2 -60q0 -4 1 -10.5t1 -9.5q15 -96 61 -172l13 -19l12 -16q62 -74 145 -121l17 -10l16 -8l14 -6q4 -1 8 -2.5t9.5 -4.5t9.5 -4l19 -6l18 -8l18 -6q38 -15 78 -21q15 0 17 -2 q18 -3 68 -5.5t77 -10.5q5 -1 11.5 -4t8.5 -4q26 -33 21 -86.5t-31 -87.5q-8 -9 -16 -11l-14 -4q-8 -4 -26.5 -5t-19.5 -1h-20q-49 -2 -156 15l-18 4q-26 3 -52 10t-64 21t-50 18l-16 8q-7 3 -29 16q-8 6 -18 11q-70 27 -123 77l-17 15l-28 31l-15 12q-6 6 -10 14 q-7 6 -20 29l-11 16q-67 95 -90 174q-1 6 -8 19q-14 26 -20.5 58t-11 71.5t-9.5 60.5q0 3 -1 9.5t-1 9.5q-2 37 12 147l4 21q12 73 54 176l6 18q4 9 8.5 18l8 16t10 17t9.5 15t11 16t10.5 14.5t12 15.5t11 14.5t12 15.5t11.5 14l27 26l26 25q6 8 17 16q62 60 180 115 q5 5 16 8q18 9 50 21l16 4q3 0 7 1t7 1q16 4 17 4q29 5 98 22l20 5q11 0 15 2q26 6 86 0.5t86 -2.5q3 0 9 -1t9 -1q13 0 19 -3q3 0 6 -1t6 -1l29 -8q2 0 18 -4q13 -3 72 -22l35 -15q18 -6 57 -28l18 -13q9 -6 41.5 -27.5t46.5 -31.5t36 -30t36 -40l12 -14q7 -11 27 -37 t29 -41l12 -20q17 -29 20 -37q5 -6 11 -19q46 -76 61 -163q4 -20 4 -21l17 -65q2 -4 2 -21zM913 545q7 26 -10 65q-3 8 -8 13l-12 12q-5 5 -15 10q-24 17 -53 17q-14 0 -20 -3q-3 0 -19 -4q-47 -17 -64 -61.5t7 -87.5l8 -17l12 -14q4 -6 17 -10q34 -18 88 -4l16 6 q41 21 51 65q0 3 1 6.5t1 6.5zM1405 197q2 0 4 2z" />
<glyph unicode="A" horiz-adv-x="1296" d="M1202 -4l-16 -4q-25 -2 -35.5 -2t-37 2.5t-38.5 3.5h-18q-22 0 -58 4q-4 0 -16 4q-30 17 -47 55l-6 19l-15 53l-6 19q-43 116 -47 129h-190q-30 -1 -178 4q-3 0 -9.5 1t-9.5 1h-20q-7 0 -9 2q-2 -2 -6 -2h-12l-6 -21q-7 -20 -19.5 -72t-25.5 -79q-4 -16 -4 -19 q-4 -16 -4 -18l-7 -21q-1 -5 -4 -11.5t-4 -8.5q-11 -22 -28 -29q-13 -6 -19 -8q-81 -14 -182 -4q-3 0 -7 1t-7 1l-27 6q-8 4 -14 10q-12 16 -7 54q1 3 2 7t2 6.5t1 4.5l12 29q5 31 22 71q8 33 21 74l6 16l31 105l6 20q7 15 31 95q0 2 4 18l37 109q6 18 8 20l18 57l6 21 q18 49 25 80l6 18l25 62l6 20q4 10 30 100l7 19q9 38 28 100q1 2 9 19q10 22 18.5 47t17 57.5t13.5 48.5l6 19q7 15 10 39l6 16q19 66 64 76q25 0 39 2q95 5 112 4h19q14 0 18 -2q5 0 21 -4q12 -12 26 -33q11 -14 21 -37l12 -35l31 -80l6 -18q13 -33 35 -98.5t34 -98.5 q1 -4 4.5 -11l4.5 -9q0 -1 8 -23t12 -36l6 -19l23 -72l12 -36q1 -2 4 -9t4 -12l13 -37q17 -57 34 -94l7 -20q17 -57 22 -80l4 -19q6 -21 27 -88l6 -18q22 -56 31 -92l4 -19q9 -48 28 -84l7 -22q1 -3 11 -32.5t15 -47.5l10 -29q0 -1 5 -16l6 -19q14 -24 11 -57.5t-32 -42.5z M578 565q11 5 90 1.5t90 -3.5h20l-2 8l-6 23q-29 102 -55 158l-4 16q-13 29 -31.5 85t-28.5 81l-6 18q-7 21 -8 27q-5 -32 -16 -66q0 -1 -1 -3t-2 -6t-2 -7q0 -4 -4 -20q0 -3 -4 -15q-1 -3 -24 -76l-6 -18q-13 -22 -19 -51q0 -3 -4 -19q-7 -23 -21.5 -65t-21.5 -66h45 q4 0 11 -1t10 -1z" />
<glyph unicode="B" horiz-adv-x="1200" d="M1096 428q2 -4 2 -20v-19q-3 -74 -31 -141l-10 -19q-19 -48 -62 -94l-14 -14q-23 -23 -47 -41l-16 -12q-15 -12 -34 -21.5t-32.5 -15.5t-40 -12.5t-35.5 -8.5t-41 -7.5t-37 -6.5h-43q-54 -4 -82 -4h-65q-42 -2 -59.5 -2t-60.5 2.5t-60 3.5h-105q-84 -18 -96 92v23 q0 18 1.5 77.5t0.5 90.5v18v92v21q3 46 0 96q0 3 1 9t1 9v107q-2 4 -2 20q3 106 -6 209q2 4 2 14q0 3 1 7.5t1 7.5v16q0 3 1 10.5t1 10.5q0 16 2 22q-3 8 -4 18t-1 22t-1 18v20q-1 18 1.5 67.5t-1.5 67.5v21q-1 17 4 104v43q-3 40 12 74l9 16l14 13q25 8 50 10t63.5 0 t50.5 -2h20h98h21q75 9 149 0q3 0 8.5 -1t8.5 -1q14 1 29 -0.5t24.5 -3t27 -5t25.5 -4.5q3 0 10.5 -1t10.5 -1q29 -1 62.5 -12t53.5 -21.5t58 -31.5l20 -10l19 -15l16 -14q57 -60 82 -145l4 -21l4 -14q0 -4 2 -6q33 -126 -6 -205l-8 -21l-6 -12q-2 -2 -2 -6q0 -1 -21 -37 q-11 -14 -14 -16q-30 -41 -74 -78l-16 -13q-26 -15 -45 -22l-15 -6l13 -6q105 -45 153 -131l13 -17q6 -8 10 -20q25 -49 31 -94q2 -6 2 -21zM414 979h-2q2 -4 2 -18q0 -3 -1 -8.5t-1 -8.5v-2h-2v-16q-2 -4 -2 -19q0 -16 2 -20v-37h47q12 0 32 -1t31 -1h23q127 -4 178 10 l18 8q32 16 41 43q2 3 8 19l7 22l4 17q3 26 -2 45q0 3 -1 7t-1 7v6l-4 19q-6 14 -21 39q-6 12 -12 18q-26 50 -140 63q-4 -2 -18 -2q-19 0 -51 1.5t-57 1.5t-48 -3h-14q-10 -2 -16 -8q-4 -7 -4.5 -17.5t1 -25.5t1.5 -22v-21q0 -11 1.5 -44t0.5 -52zM801 430v4l-6 41l-4 19 l-9 16l-6 14q-30 40 -108 51q-13 0 -19 3h-88q-17 1 -75.5 -0.5t-75.5 2.5q3 -21 -1 -64t-1 -67q0 -13 2 -15v-74q1 -6 -0.5 -29t2.5 -26q0 -7 6 -10q26 -12 58 -15t75.5 -0.5t60.5 1.5q15 0 19 2q30 3 53 12l21 6q39 14 65 47q4 11 10 17l8 14l9 18z" />
<glyph unicode="C" horiz-adv-x="1208" d="M1094 494q19 -21 6 -88v-13l-10 -63q0 -3 -1.5 -10.5t-1.5 -10.5t-1 -9t-1 -9q-56 -123 -94 -170l-14 -15q-36 -36 -72 -59l-16 -12q-14 -8 -30.5 -15.5t-28.5 -12t-33 -10.5t-30 -8t-34 -7.5t-31 -6.5h-30q-25 2 -86.5 2t-105 5t-83.5 20l-26 10q-33 16 -47.5 23.5 t-37.5 24t-38 34.5l-17 19q-28 36 -38 59q-28 55 -39 92q-22 63 -33 162q-6 33 -10 98v19q-5 147 -7 162v18q-3 81 5 151q0 3 1 9.5t1 9.5l4 55q0 3 1 9.5t1 9.5l4 39q11 98 33 161q11 40 39 93q10 23 38 59l17 18q15 18 38 34.5t37.5 24t47.5 23.5l26 11q39 15 83.5 19.5 t105 4.5t86.5 2h30q7 -1 36.5 -7.5t41.5 -9.5t35 -9.5t40.5 -14.5t33.5 -18l16 -13q36 -23 72 -59l14 -14q35 -43 47 -74q15 -25 21 -39q17 -29 28 -84l5 -16q1 -4 5.5 -29.5t5 -35.5t-2 -28t-10.5 -32q-3 -3 -3 -10q-51 -28 -133 -11h-69q-4 0 -17 -0.5t-19 -0.5t-14.5 2.5 t-13.5 7.5q-6 6 -10 16t-5.5 17.5t-4.5 21.5t-4 20l-4 19q-9 27 -29 53q-4 6 -11 15t-8 10l-12 10l-12 8q-73 36 -180 25l-21 -7q-33 -8 -57 -36l-14 -15q-6 -8 -11 -18q-13 -22 -16 -29q-12 -39 -14 -67q0 -3 -1 -9.5t-1 -9.5q-7 -40 -7 -65q-4 -62 -4 -82q0 -4 -1 -11 t-1 -10q5 -11 1.5 -90t-3.5 -90q0 -4 1 -11.5t1 -11.5q0 -3 1 -9.5t1 -10.5q0 -20 4 -82q0 -26 7 -66q0 -3 1 -9t1 -9q2 -29 14 -68q2 -4 16 -28q6 -13 11 -19l14 -14q26 -29 57 -37l21 -6q107 -11 180 25l12 8l12 10q1 1 8 10t11 15q23 29 33 71l4 21q0 3 1 7t1 7 q0 26 8 39q8 20 20 27q28 14 67 15.5t71 -3.5t71 0q25 0 31 -2q18 -7 23 -12z" />
<glyph unicode="D" horiz-adv-x="1220" d="M1114 727v-22q4 -133 0 -179q-5 -69 -8 -84q-2 -8 -2 -26l-10 -64q0 -3 -1 -10t-1 -10t-1 -9.5t-1 -9.5q-55 -120 -95 -170l-14 -14q-36 -36 -72 -59l-16 -13q-16 -10 -33 -18t-40.5 -14.5t-34.5 -9.5t-42 -9.5t-36 -7.5h-52q-54 -4 -82 -4h-20q-21 -4 -112 0t-113 4 h-105q-52 -11 -74 24t-22 91v22q0 72 -1 254t-1 240v18q1 24 -1.5 94.5t1.5 94.5v20q0 3 1 9t1 9t1 9.5t1 9.5l4 55v27.5t0.5 68.5t1 89.5t0.5 99v88.5v12q-3 40 12 74l9 16l14 13q29 10 67.5 11t69 -2t68.5 1h20q24 -1 65 2t64.5 3.5t65.5 -5.5q4 -2 16 -2h17q3 0 8 -1 t8 -1q32 1 88.5 -9.5t81.5 -11.5l20 -8q27 -9 71 -34.5t58 -32.5q4 -1 6 -5q3 -4 5 -6l12 -10l14 -14q35 -43 47 -74q15 -25 21 -39q12 -19 19.5 -43.5t10.5 -42t7 -47t6 -43.5l4 -39v-14l4 -41q5 -51 0 -201zM819 565v21q-6 38 6 114l-2 19v20q-5 86 -4 103v20q0 37 2 53 l-4 23q0 37 -10 57l-6 41l-4 19q-49 108 -125 106q-4 2 -21 2q-25 3 -81.5 5.5t-86.5 5.5v2h-6q-2 -2 -14 -2q-36 0 -43 -9q-4 -7 -4.5 -17.5t1 -25.5t1.5 -22v-180q-4 -62 -4 -82q0 -4 -1 -11t-1 -10q4 -11 1 -90t-3 -90v-275q1 -8 0 -25t0.5 -26.5t7.5 -13.5 q6 -5 14.5 -7.5t13.5 -3t19.5 0t17.5 0.5v2l138 6h22q46 -4 85 20t60 66l9 18q6 19 10 60q10 20 10 57l4 23q-2 6 -2 26z" />
<glyph unicode="E" horiz-adv-x="1099" d="M991 246l4 -21q-2 -18 -0.5 -96t-9.5 -98l-4 -13l-10 -14q-8 -10 -26 -11.5t-47.5 2t-41.5 3.5h-14q-59 0 -184.5 -1t-176.5 -1h-45q-21 -1 -94 0.5t-94 -2.5h-21q-58 -4 -92 14q-6 6 -8 12q-3 18 -3 30t2.5 36t2.5 37v14q0 100 -1 288.5t-1 203.5v94q-2 36 2 111v22 q1 25 1 70t1 81.5t4 69.5v15v168v73q-7 27 -4 43q0 4 1 11t1 10q11 30 53 41q3 0 9.5 1t9.5 1q125 4 170 -2h407q28 -4 39 -4h19q18 -2 69 2t60 -6q17 -10 21.5 -25.5t2.5 -42.5q0 -3 -1 -11t-1 -12q-5 -11 -3 -56t1 -56v-13q-1 -10 -5 -24l-3 -14l-10 -15q-8 -10 -26 -11.5 t-47.5 2t-41.5 3.5h-14q-75 0 -226 -1t-198 -1q0 -16 1 -35l1 -18v-180q-2 -10 -2 -29h364q28 -4 39 -4h43q20 -3 35 -0.5t33.5 1.5t32.5 -9q21 -15 18 -45v-15l-6 -67v-23q-2 -14 -2 -41v-20q3 -29 -10 -43.5t-34.5 -15t-45.5 -1t-43 -0.5h-25q-76 0 -220 -1t-185 -1v-18 v-185v-122h370q35 -5 39 -5h19q18 -2 69 2t60 -6q19 -9 22 -26z" />
<glyph unicode="F" horiz-adv-x="1097" d="M412 606v-20q0 -26 -4 -80v-21q0 -21 4 -67v-23q3 -81 -4 -139q0 -4 -1 -10.5t-1 -9.5q0 -22 4 -62t4 -72.5t-8 -60.5q-2 -7 -9 -14q-25 -38 -82 -29h-12l-55 -4h-21q-58 -4 -92 14q-6 6 -8 12q-3 18 -3 30t2.5 36t2.5 37v14q0 100 -1 288.5t-1 203.5v94q-2 36 2 111v22 q1 25 1 70t1 81.5t4 69.5v15v125v43q2 4 2 20q0 17 -2 23q0 6 -1 27.5t0 32.5t3.5 27.5t11 27t21.5 16.5l16 4q3 0 9.5 1t9.5 1q125 4 170 -2h407q28 -4 39 -4h19q18 -2 69 2t60 -6q17 -10 21.5 -25.5t2.5 -42.5q0 -3 -1 -11t-1 -12q-5 -11 -3 -56t1 -56v-13q-1 -10 -5 -24 l-3 -14l-10 -15q-8 -10 -26 -11.5t-47.5 2t-41.5 3.5h-14q-75 0 -226 -1t-198 -1q0 -16 1 -35l1 -18v-180q-2 -10 -2 -29h364q28 -4 39 -4h43q20 -3 35 -0.5t33.5 1.5t32.5 -9q21 -15 18 -45v-15l-6 -67v-23q-2 -14 -2 -41v-20q3 -29 -10 -43.5t-34.5 -15t-45.5 -1t-43 -0.5 h-25q-51 0 -158.5 -1t-152.5 -1h-94z" />
<glyph unicode="G" horiz-adv-x="1214" d="M1106 629q0 -3 -1 -10.5t-1 -10.5q-5 -13 -2 -55t2 -55q-2 -2 -2 -17q0 -3 1 -8t1 -8v-21q0 -10 -4 -38v-13l-10 -63q0 -3 -1.5 -10.5t-1.5 -10.5q-8 -47 -53 -123l-10 -18q-23 -37 -33 -47l-14 -15q-36 -36 -72 -59l-16 -12q-14 -8 -30.5 -15.5t-28.5 -12t-33 -10.5 t-30 -8t-34 -7.5t-31 -6.5h-30q-25 2 -86.5 2t-105 5t-83.5 20l-26 10q-33 16 -47.5 23.5t-37.5 24t-38 34.5l-17 19q-28 36 -38 59q-28 55 -39 92q-22 63 -33 162q-6 33 -10 98v19q-5 147 -7 162v18q-3 81 5 151q0 3 1 9.5t1 9.5l4 55q0 3 1 9.5t1 9.5l4 39q11 98 33 161 q11 40 39 93q10 23 38 59l17 18q15 18 38 34.5t37.5 24t47.5 23.5l26 11q39 15 83.5 19.5t105 4.5t86.5 2h30q7 -1 36.5 -7.5t41.5 -9.5t35 -9.5t40.5 -14.5t33.5 -18l16 -13q36 -23 72 -59l14 -14q35 -43 47 -74q15 -25 21 -39q17 -29 28 -84l5 -16q9 -35 12 -68v-14 q-2 -31 -22.5 -46t-42 -16t-57 0t-48.5 0h-19q-3 0 -10 -1t-10 -1h-29q-2 -2 -16 -2q-22 4 -29 11q-9 9 -12 22q-9 23 -12 53l-4 19q-9 27 -29 53q-4 6 -11 15t-8 10l-12 10l-12 8q-73 36 -180 25l-21 -7q-33 -8 -57 -36l-14 -15q-6 -8 -11 -18q-13 -22 -16 -29 q-12 -39 -14 -67q0 -3 -1 -9.5t-1 -9.5q-7 -40 -7 -65q-4 -62 -4 -82q0 -4 -1 -11t-1 -10q5 -11 1.5 -90t-3.5 -90q0 -4 1 -11.5t1 -11.5q0 -3 1 -9.5t1 -10.5q0 -20 4 -82q0 -26 7 -66q0 -3 1 -9t1 -9q2 -29 14 -68q2 -4 16 -28q6 -13 11 -19l14 -14q26 -29 57 -37l21 -6 q107 -11 180 25l12 8l12 10l9 12l10 13q12 14 20.5 30.5t13.5 38t7.5 35t5.5 41.5t4 37h-141q-15 0 -19 2q-3 0 -8 1t-8 1l-16 6q-29 12 -29 27q-1 19 0 57.5t0 58.5q0 15 -2 19v20q-9 44 25.5 69t78.5 17q17 0 23 -2q84 0 125 -2q6 -2 20 -2q76 -5 101 0h34q15 0 19 -2h41 q2 0 14 -4q19 -14 23 -24q7 -16 10 -39q2 -4 2 -19q3 -30 -2 -61z" />
<glyph unicode="H" horiz-adv-x="1222" d="M1100 1327v-22q0 -27 -2 -41v-17q0 -32 0.5 -66t1 -56.5t0.5 -24.5v-180q-4 -62 -4 -82q0 -4 -1 -11t-1 -10q4 -11 1 -90t-3 -90v-440q-5 -35 -5 -39v-19q-2 -18 2 -69t-6 -60q-12 -22 -37 -24t-61 3t-57 1h-21q-46 -3 -78 8l-14 10q-10 8 -11.5 26t2 47.5t3.5 41.5v14 q0 70 -1 220.5t-1 197.5q-258 4 -381 4q-12 0 -14 2v-364q-4 -28 -4 -39v-19q-2 -18 1.5 -69t-6.5 -60q-12 -22 -37 -24t-61 3t-57 1h-21q-45 -3 -77 8l-15 10q-10 8 -11.5 26t2 47.5t3.5 41.5v14q0 100 -1 288.5t-1 203.5v94q-1 30 4 178q0 3 1 9.5t1 9.5v20q0 6 2 8v385 q-7 27 -4 43q0 4 1 11t1 10q11 30 53 41q3 0 9.5 1t9.5 1q131 4 182 -4q5 -2 12 -9q8 -3 11 -12q18 -32 8 -72q2 -2 2 -16v-22q0 -27 -2 -41v-17q0 -32 0.5 -66t1 -56.5t0.5 -24.5v-180q-4 -54 -4 -74h10q125 0 383 -4q0 12 1 30t1 29q0 3 1 9.5t1 9.5v20q0 6 2 8v385 q-7 27 -4 43q0 4 1 11t1 10q11 30 53 41q3 0 9.5 1t9.5 1q131 4 182 -4q5 -2 12 -9q8 -3 11 -12q18 -32 8 -72q2 -2 2 -16z" />
<glyph unicode="I" horiz-adv-x="542" d="M412 197q-4 -28 -4 -39v-19q-2 -18 1.5 -69t-6.5 -60q-12 -22 -37 -24t-61 3t-57 1h-21q-45 -3 -77 8q-3 3 -7.5 5t-7.5 5q-10 8 -11.5 26t2 47.5t3.5 41.5v14q0 100 -1 288.5t-1 203.5v94q-1 30 4 178q0 3 1 9.5t1 9.5v20q0 6 2 8v385q-7 27 -4 43q0 4 1 11t1 10 q11 30 53 41q3 0 9.5 1t9.5 1q131 4 182 -4q5 -2 12 -9q8 -3 11 -12q18 -32 8 -72q2 -2 2 -16v-22q0 -27 -2 -41v-17q0 -32 0.5 -66t1 -56.5t0.5 -24.5v-180q-4 -62 -4 -82q0 -4 -1 -11t-1 -10q4 -11 1 -90t-3 -90v-440z" />
<glyph unicode="J" horiz-adv-x="839" d="M717 1327v-22q0 -27 -2 -41v-17q0 -32 0.5 -66t1 -56.5t0.5 -24.5v-180q-4 -62 -4 -82q0 -4 -1 -11t-1 -10q5 -11 1.5 -90t-3.5 -90v-283q2 -52 -17 -135l-6 -20q-13 -34 -24 -52q-2 -7 -11 -16l-24 -31l-15 -16q-98 -84 -196 -92h-21q-46 -4 -63 -4q-6 -2 -27 -2 q-10 1 -46.5 4t-53.5 3.5t-47 -1.5q-4 0 -13.5 2t-13.5 2l-18 8l-17 10l-12 15q-8 8 -12 16q-4 10 -5.5 21t-0.5 19.5t0 20.5q-3 15 -3 33q0 64 5 80q9 17 10 19l12 12q6 4 37 16q30 6 103.5 3.5t101.5 2.5q10 0 24 7l23 10l14 12l10 12q12 23 15.5 50t3.5 62t2 52v246 q-1 30 4 178q0 3 1 9.5t1 9.5v20q0 6 2 8v295q1 19 -3 77t1 77q3 9 10 16q9 12 43 25q3 0 9.5 1t9.5 1q131 4 182 -4q5 -2 12 -9q8 -3 11 -12q18 -32 8 -72q2 -2 2 -16z" />
<glyph unicode="K" horiz-adv-x="1253" d="M723 739q-6 -6 -6 -10q-6 -15 0 -31q2 -6 8 -12l63 -88q2 -4 9 -12q0 -2 2 -4l6 -9q5 -9 49 -75l10 -15l90 -121l11 -14q54 -70 94 -131l14 -16q8 -13 25 -33.5t24 -30.5q0 -2 2 -4l6 -8l19 -27q24 -19 35 -51q6 -16 -5.5 -31t-29.5 -20q-21 -4 -84 0h-84q-3 0 -9 1t-9 1 q-39 -5 -75.5 7.5t-58.5 41.5q-2 2 -4.5 5.5t-5.5 4.5l-49 72l-10 16l-33 48l-10 14l-6 6q-16 20 -44.5 63.5t-43.5 63.5l-11 14l-69 97l-11 14q-40 49 -59 92l-12 14q-5 8 -15.5 21.5t-19 25.5t-14.5 23v-444q-4 -28 -4 -39v-19q-2 -18 1.5 -69t-6.5 -60q-12 -22 -37 -24 t-61 3t-57 1h-21q-45 -3 -77 8l-15 10q-10 8 -11.5 26t2 47.5t3.5 41.5v14q0 100 -1 288.5t-1 203.5v94q-1 30 4 178q0 3 1 9.5t1 9.5v20q0 6 2 8v385q-7 27 -4 43q0 4 1 11t1 10q11 30 53 41q3 0 9.5 1t9.5 1q131 4 182 -4q5 -2 12 -9q8 -3 11 -12q18 -32 8 -72q2 -2 2 -16 v-22q0 -27 -2 -41v-17q0 -32 0.5 -66t1 -56.5t0.5 -24.5v-180q-4 -62 -4 -82q0 -4 -1 -11t-1 -10v-29q3 3 7.5 10.5t6.5 10.5l8 12l281 404l10 14l33 47l10 17l41 59l8 10q42 60 88 72h215q4 0 13 1.5t13 1.5t10.5 -0.5t11.5 -2.5t10 -6q17 -17 8 -45q0 -3 -2.5 -8l-3.5 -7 l-8 -10l-13 -18l-26 -39q-11 -11 -13 -17q-7 -10 -24 -30t-25 -33l-14 -17l-10 -14l-9 -16l-32 -47l-13 -15l-34 -41l-11 -12q-13 -16 -34 -45.5t-27 -38.5l-10 -16l-52 -78q-3 -10 -10 -17q-8 -12 -44.5 -58.5t-49.5 -76.5z" />
<glyph unicode="L" horiz-adv-x="868" d="M805 168v-18q4 -51 -2 -76v-13q0 -31 -16.5 -50t-45.5 -15h-16q-7 0 -18 1t-15 1q-18 0 -24 -2h-230q-21 -1 -94 0.5t-94 -2.5h-21q-58 -4 -92 14q-6 6 -8 12q-2 2 -2 15q-2 48 -2 68t2.5 68t3.5 67v14q0 90 -1 228.5t-1 148.5v94q-2 36 2 111v22q1 25 1 70t1 81.5 t4 69.5v15v168v73q-7 27 -4 43q0 4 1 11t1 10q11 30 53 41q3 0 9.5 1t9.5 1q13 0 36 1t36 1h16q6 2 22 2q23 0 33 -2q15 0 19 -2h14l12 -4q15 -9 22 -28t7.5 -33.5t-1 -43t-1.5 -37.5v-18q4 -42 4 -189v-18q0 -11 1 -34.5t1 -35.5v-20q-3 -28 -6 -79.5t-6 -78.5v-80 q2 -6 2 -20q-1 -24 1.5 -94.5t-1.5 -94.5q0 -3 -1 -9t-1 -9q0 -9 -1 -27.5t-1 -27.5v-178h346q28 4 38 -14.5t5 -45.5v-18q0 -25 2 -35z" />
<glyph unicode="M" horiz-adv-x="1503" d="M1374 137v-14q0 -12 3.5 -41.5t2 -47.5t-11.5 -26l-14 -10q-3 -1 -10 -2.5t-14.5 -3t-14.5 -2.5h-12l-158 -6l-17 4q-19 3 -28 22q-4 12 -4 15q-4 16 0 79v19q0 57 -4 74v440q0 49 -2 74v14q-1 17 4 113q-13 -20 -38 -70t-44 -76q-6 -6 -8 -12q-6 -6 -9 -14l-6 -15 q-3 -9 -8 -14l-12 -29l-6 -12q-46 -52 -62 -98l-6 -15q-8 -19 -26 -49.5t-23 -40.5q-5 -5 -8 -14q-8 -20 -25 -33l-16 -8q-3 -3 -5.5 -4t-6 -1t-5.5 -1q-68 -17 -92 24q-7 12 -20.5 36.5t-20.5 35.5q-10 10 -12 14q-4 2 -8 15q-12 33 -60 102l-10 14q-46 95 -76 134l-8 12 q-14 21 -33.5 61.5t-29.5 57.5q5 -95 4 -113v-27q-2 -2 -2 -12q3 -70 0 -141v-348q-4 -32 -4 -50v-12q-9 -27 -4.5 -55t-2.5 -56t-32 -38q-3 0 -7.5 -1t-7.5 -1q-11 0 -49 5.5t-57 0.5h-21q-45 -3 -77 8l-15 10q-10 8 -11.5 26t2 47.5t3.5 41.5v14q0 100 -1 288.5t-1 203.5 v112l6 179v20q0 1 1 3t1 3v369q0 9 -1.5 26.5t-2 28t3 24.5t12.5 23q2 4 17 15l22 6q3 0 9.5 1t9.5 1q9 0 27 1t26 1h18q70 4 101 -10q5 -2 12 -9l8 -10l6 -10l9 -17l10 -16q14 -25 42.5 -70t33.5 -53l8 -16l12 -23l6 -10l19 -29q3 -9 8 -14l47 -100l6 -17q12 -36 29 -57 q1 -1 20 -33l9 -16q6 -12 20 -44.5t26 -54.5t27 -40q0 -3 4 -15q0 -3 1 -9t1 -9l7 18l8 17q16 26 41 77.5t41 77.5l4 6q1 3 2.5 5.5t3 5.5t2.5 4q3 7 11 19.5t11 19.5l13 22q3 3 5 8.5t5 8.5q19 52 55 104q8 9 11 16q22 24 53 84q6 7 10 17q14 27 43 75.5t39 67.5l8 10 q8 7 12 9q31 14 101 10h18q8 0 26 -1t27 -1q3 0 9.5 -1t9.5 -1q42 -11 53 -41q0 -3 1 -10t1 -11q3 -16 -4 -43v-387q0 -4 2 -6v-20l6 -179v-112q0 -15 -1 -203.5t-1 -288.5z" />
<glyph unicode="N" horiz-adv-x="1296" d="M1174 1327v-22q0 -20 -3 -41v-17q0 -32 0.5 -66t1.5 -56.5t1 -24.5v-180q-5 -77 -5 -82q0 -4 -1 -11t-1 -10q5 -11 1.5 -90t-3.5 -90v-440q-4 -28 -4 -39v-29q-1 -15 1 -40.5t1.5 -44.5t-6.5 -34q-12 -22 -37.5 -24t-61.5 3t-57 1h-45q-25 -4 -42 10t-33.5 44t-22.5 38 q-1 2 -10 16q-61 106 -82 138l-10 16l-15 24l-8 13q0 9 -10 26q-22 22 -48.5 69.5t-39.5 64.5l-10 14l-9 14q-8 14 -27 50.5t-34 61.5t-33 48q-3 9 -8 14l-6 15q-3 9 -8 14q-2 6 -8 12q-19 26 -44 76t-38 70q5 -95 4 -113v-14q-2 -25 -2 -74v-440q-4 -17 -4 -74v-19 q0 -6 1.5 -24.5t2 -26.5t-1.5 -20.5t-7 -22.5q-12 -22 -37 -24t-61 3t-57 1h-21q-45 -3 -77 8l-15 10q-10 8 -11.5 26t2 47.5t3.5 41.5v14q0 100 -1 288.5t-1 203.5v112l6 179v20q0 1 1 3t1 3v387q-7 27 -4 43q0 4 1 11t1 10q11 30 53 41q3 0 9.5 1t9.5 1q9 0 27 1t26 1h18 q70 4 101 -10q5 -2 12 -9l8 -10l6 -10q6 -21 18 -41.5t31 -46.5t27 -39q3 -9 8 -14l11 -15l8 -16l39 -64l10 -14q8 -8 12 -16q7 -13 8 -19q8 -17 25.5 -46t24.5 -42q9 -14 10 -16l31 -64l10 -16q15 -33 39 -64l12 -16q31 -36 76 -129l10 -16l8 -15l10 -14q35 -52 50 -86v149 q0 109 4 140v18q0 3 1 9.5t1 9.5q-6 53 -6 106q0 14 2 18q0 80 6 160v129q-7 27 -4 43q0 4 1 11t1 10q11 30 53 41q3 0 9 1t9 1q132 4 183 -4q5 -2 12 -9q7 -2 10 -12q18 -32 8 -72q3 -3 3 -16z" />
<glyph unicode="O" horiz-adv-x="1216" d="M1110 727v-22q5 -150 0 -201q-5 -69 -8 -84q-2 -8 -2 -27l-10 -63q0 -3 -1.5 -10.5t-1.5 -10.5t-1 -9t-1 -9q-56 -123 -94 -170l-14 -15q-36 -36 -72 -59l-16 -12q-14 -8 -30.5 -15.5t-28.5 -12t-33 -10.5t-30 -8t-34 -7.5t-31 -6.5h-30q-25 2 -86.5 2t-105 5t-83.5 20 l-26 10q-33 16 -47.5 23.5t-37.5 24t-38 34.5l-17 19q-28 36 -38 59q-28 55 -39 92q-22 63 -33 162q-6 33 -10 98v19q-5 147 -7 162v18q-3 81 5 151q0 3 1 9.5t1 9.5l4 55q0 3 1 9.5t1 9.5l4 39q11 98 33 161q11 40 39 93q10 23 38 59l17 18q15 18 38 34.5t37.5 24 t47.5 23.5l26 11q39 15 83.5 19.5t105 4.5t86.5 2h30q7 -1 36.5 -7.5t41.5 -9.5t35 -9.5t40.5 -14.5t33.5 -18l16 -13q36 -23 72 -59l14 -14q35 -43 47 -74q15 -25 21 -39q12 -19 19.5 -43.5t10.5 -42t7 -47t6 -43.5l4 -39v-14l4 -41q5 -51 0 -201zM815 586q0 3 -1 7t-1 7 q-1 19 2.5 54.5t3.5 50.5v18q0 21 -4 57v82q0 37 2 53l-4 23q0 37 -10 57q-12 80 -39 113q-4 6 -11 15t-8 10l-12 10l-12 8q-73 36 -180 25l-21 -7q-33 -8 -57 -36l-14 -15q-6 -8 -11 -18q-13 -22 -16 -29q-12 -39 -14 -67q0 -3 -1 -9.5t-1 -9.5q-7 -40 -7 -65 q-4 -62 -4 -82q0 -4 -1 -11t-1 -10q5 -11 1.5 -90t-3.5 -90q0 -4 1 -11.5t1 -11.5q0 -3 1 -9.5t1 -10.5q0 -20 4 -82q0 -26 7 -66q0 -3 1 -9t1 -9q2 -29 14 -68q2 -4 16 -28q6 -13 11 -19l14 -14q26 -29 57 -37l21 -6q107 -11 180 25l12 8l12 10q1 1 8 10t11 15 q28 34 39 112q10 20 10 58l4 22q-2 6 -2 27v43z" />
<glyph unicode="P" horiz-adv-x="1198" d="M1092 1081q2 -36 2.5 -44.5t-2 -43.5t-2.5 -45l-5 -18q-8 -66 -38 -127l-11 -19q-23 -45 -61 -75l-17 -15q-12 -12 -49 -35q-4 -3 -18 -10l-37 -24q-8 -3 -14 -9l-15 -8q-32 -14 -96 -21.5t-82 -11.5h-20q-95 -4 -156 3h-14q-31 0 -47 2q3 -25 0 -50v-16q4 -78 4 -115 q0 -16 -2 -20q-1 -8 -1 -24.5t-1 -24.5q0 -15 -2 -17v-20q0 -19 -1 -57t-1 -58v-16q0 -7 4 -57.5t-2 -57.5l-5 -16q-9 -27 -38 -33q-3 0 -8.5 -1t-8.5 -1q-27 3 -57 0q-15 0 -19 -2q-9 0 -34.5 -2t-40.5 -2t-34 6.5t-30 21.5l-6 17q-4 10 -1.5 39t1.5 37v20q0 16 1.5 68 t0.5 80v18v92v21q3 46 0 96q0 3 1 9t1 9v107q-2 4 -2 20q3 106 -6 209q2 4 2 14q0 3 1 7.5t1 7.5v16q0 3 1 10.5t1 10.5q0 16 2 22q-3 8 -4 18t-1 22t-1 18v20q-1 18 1.5 67.5t-1.5 67.5v21q-1 17 4 104v43q-3 40 12 74l9 16l14 13q25 8 50 10t63.5 0t50.5 -2h20h98h21 q75 9 149 0q3 0 8.5 -1t8.5 -1q14 1 29 -0.5t24.5 -3t27 -5t25.5 -4.5q3 0 10.5 -1t10.5 -1q29 -1 62.5 -12t53.5 -21.5t58 -31.5l20 -10l19 -15l16 -14l31 -37l12 -16q14 -22 23 -48.5t17.5 -61.5t14.5 -52q0 -3 5 -23zM795 950l4 17q3 26 -2 45q0 3 -1 7t-1 7v6l-4 19 q-6 14 -21 39q-6 12 -12 18q-26 50 -140 63q-4 -2 -18 -2q-19 0 -51 1.5t-57 1.5t-48 -3h-14q-10 -2 -16 -8q-4 -7 -4.5 -17.5t1 -25.5t1.5 -22v-21q0 -11 1.5 -44t0.5 -52h-2q2 -4 2 -18q0 -3 -1 -8.5t-1 -8.5v-2h-2v-16q-2 -4 -2 -19q0 -16 2 -20v-37h47q12 0 32 -1t31 -1 h23q127 -4 178 10l18 8q32 16 41 43q2 3 8 19z" />
<glyph unicode="Q" horiz-adv-x="1216" d="M1110 727v-22q5 -150 0 -201q-5 -69 -8 -84q-2 -8 -2 -27l-10 -63q0 -3 -1.5 -10.5t-1.5 -10.5t-1 -9t-1 -9q-56 -123 -94 -170l-14 -15q-36 -36 -72 -59l-8 -6q49 -65 86 -121l14 -16q8 -13 25.5 -33.5t24.5 -30.5q0 -2 2 -4l6 -8l18 -27q24 -19 35 -51q6 -16 -5.5 -31 t-29.5 -20q-21 -4 -84 0h-84q-3 0 -9 1t-9 1q-39 -5 -75 7.5t-58 41.5q-10 10 -11 10l-49 72l-10 16l-33 48l-10 14l-6 6l-43 61q-127 0 -195 25l-26 10q-33 16 -47.5 23.5t-37.5 24t-38 34.5l-17 19q-28 36 -38 59q-28 55 -39 92q-22 63 -33 162q-6 33 -10 98v19 q-5 147 -7 162v18q-3 81 5 151q0 3 1 9.5t1 9.5l4 55q0 3 1 9.5t1 9.5l4 39q11 98 33 161q11 40 39 93q10 23 38 59l17 18q15 18 38 34.5t37.5 24t47.5 23.5l26 11q39 15 83.5 19.5t105 4.5t86.5 2h30q7 -1 36.5 -7.5t41.5 -9.5t35 -9.5t40.5 -14.5t33.5 -18l16 -13 q36 -23 72 -59l14 -14q35 -43 47 -74q15 -25 21 -39q12 -19 19.5 -43.5t10.5 -42t7 -47t6 -43.5l4 -39v-14l4 -41q5 -51 0 -201zM819 705v18q0 21 -4 57v82q0 37 2 53l-4 23q0 37 -10 57q-12 80 -39 113q-4 6 -11 15t-8 10l-12 10l-12 8q-73 36 -180 25l-21 -7 q-33 -8 -57 -36l-14 -15q-6 -8 -11 -18q-13 -22 -16 -29q-12 -39 -14 -67q0 -3 -1 -9.5t-1 -9.5q-7 -40 -7 -65q-4 -62 -4 -82q0 -4 -1 -11t-1 -10q5 -11 1.5 -90t-3.5 -90q0 -4 1 -11.5t1 -11.5q0 -3 1 -9.5t1 -10.5q0 -20 4 -82q0 -26 7 -66q0 -3 1 -9t1 -9q2 -29 14 -68 q2 -4 16 -28q6 -13 11 -19l14 -14q26 -29 57 -37l21 -6q107 -11 180 25l12 8l12 10q1 1 8 10t11 15q28 34 39 112q10 20 10 58l4 22q-2 6 -2 27v43q0 3 -1 7t-1 7q-1 19 2.5 54.5t3.5 50.5z" />
<glyph unicode="R" horiz-adv-x="1167" d="M1124 49q6 -17 -5 -31.5t-29 -19.5q-21 -4 -84 0h-84q-3 0 -9.5 1t-9.5 1q-39 -5 -75 7.5t-58 41.5q-2 2 -4.5 5.5t-5.5 4.5l-49 72l-11 16l-32 48l-11 14l-6 6q-15 20 -44 63t-44 64l-10 14l-70 97l-10 14q-40 49 -59 92l-2 2q0 -25 -2 -31v-16q4 -78 4 -115 q0 -16 -2 -20q-1 -8 -1 -24.5t-1 -24.5q0 -15 -2 -17v-20q0 -19 -1 -57t-1 -58v-16q0 -7 4 -57.5t-2 -57.5l-5 -16q-9 -27 -38 -33q-3 0 -8.5 -1t-8.5 -1q-27 3 -57 0q-15 0 -19 -2q-9 0 -34.5 -2t-40.5 -2t-34 6.5t-30 21.5l-6 17q-4 10 -1.5 39t1.5 37v20q0 16 1.5 68 t0.5 80v18v92v21q3 46 0 96q0 3 1 9t1 9v107q-2 4 -2 20q3 106 -6 209q2 4 2 14q0 3 1 7.5t1 7.5v16q0 3 1 10.5t1 10.5q0 16 2 22q-3 8 -4 18t-1 22t-1 18v20q-1 18 1.5 67.5t-1.5 67.5v21q-1 17 4 104v43q-3 40 12 74l9 16l14 13q25 8 50 10t63.5 0t50.5 -2h20h98h21 q75 9 149 0q3 0 8.5 -1t8.5 -1q14 1 29 -0.5t24.5 -3t27 -5t25.5 -4.5q3 0 10.5 -1t10.5 -1q29 -1 62.5 -12t53.5 -21.5t58 -31.5l20 -10l19 -15l16 -14l31 -37l12 -16q14 -22 23 -48.5t17.5 -61.5t14.5 -52q0 -3 5 -23q2 -36 2.5 -44.5t-2 -43.5t-2.5 -45l-5 -18 q-8 -66 -38 -127l-11 -19q-23 -45 -61 -75l-17 -15q-12 -12 -49 -35q-4 -3 -18 -10l-37 -24q-8 -3 -14 -9l-15 -8q-47 -17 -88 -20q0 -2 2 -4l6 -9q6 -11 14 -23t19 -27.5t17 -24.5l10 -15l90 -120l10 -15q54 -70 94 -131l15 -16q8 -13 25 -33.5t24 -30.5q0 -2 2 -4l6 -8 l19 -27q23 -18 34 -51zM414 979h-2q2 -4 2 -18q0 -3 -1 -8.5t-1 -8.5v-2h-2v-16q-2 -4 -2 -19q0 -16 2 -20v-37h47q12 0 32 -1t31 -1h23q127 -4 178 10l18 8q32 16 41 43q2 3 8 19l7 22l4 17q3 26 -2 45q0 3 -1 7t-1 7v6l-4 19q-6 14 -21 39q-6 12 -12 18q-26 50 -140 63 q-4 -2 -18 -2q-19 0 -51 1.5t-57 1.5t-48 -3h-14q-10 -2 -16 -8q-4 -7 -4.5 -17.5t1 -25.5t1.5 -22v-21q0 -11 1.5 -44t0.5 -52zM410 580v-2l2 2h-2z" />
<glyph unicode="S" horiz-adv-x="1200" d="M434 1100q-4 -4 -8 -15q-18 -29 -16.5 -66t24.5 -61l15 -16q49 -44 135 -72l16 -4q35 -17 104.5 -40t94.5 -33l18 -9q91 -34 125 -61l19 -16l32 -37l11 -13q65 -74 71 -174q2 -6 2 -20q8 -27 8 -66q0 -4 -1 -11t-1 -11q-17 -101 -53 -174l-6 -15l-8 -14q-9 -20 -39 -59 l-16 -19q-15 -18 -38 -34.5t-37.5 -24t-47.5 -23.5l-27 -10q-40 -15 -83.5 -20t-104.5 -5t-86 -2h-31q-6 1 -31 6.5t-34 7.5t-30 8t-33 10.5t-28.5 12t-30.5 15.5l-16 12q-36 23 -72 59l-14 15q-24 30 -43 65q-3 3 -5 8.5t-5 8.5l-8 16l-6 17q-23 43 -39 147q-2 2 -2 8v15 q-18 80 28 96q12 6 21 6q18 3 54 3t52 3q4 -2 19 -2q42 0 73 -8q5 -1 12 -4t9 -4l12 -13l8 -14q9 -15 9 -39q0 -3 1 -7t1 -7l4 -21q10 -43 32 -71q4 -6 11 -15t8 -10l12 -10l12 -8q73 -36 181 -25l20 6q12 2 31 14l14 11q55 46 58 127v20l-5 17l-6 18q-6 6 -8 12 q-17 21 -27 27q-7 7 -16 10q-89 53 -178 76l-21 6q-19 8 -60 23.5t-72.5 29.5t-57.5 31l-14 6l-13 6q-60 38 -108 92l-15 15q-14 14 -26 35q-3 4 -10 18q-14 27 -20 55t-8 76t-3 57q0 4 1 11t1 10q3 49 25 102l10 33q10 30 28 60q9 20 39 59l17 18q15 18 38 34.5t37.5 24 t47.5 23.5l26 11q39 15 83.5 19.5t105 4.5t86.5 2h30q7 -1 36.5 -7.5t41.5 -9.5t35 -9.5t40.5 -14.5t33.5 -18l16 -13q36 -23 72 -59l14 -14q35 -43 47 -74q15 -25 21 -39q17 -29 28 -84l4 -16l9 -64q2 -4 2 -20q-1 -31 -24.5 -50.5t-55.5 -19.5q-4 2 -19 2q-14 2 -79 2 t-97 10q-14 14 -20 35q-6 13 -10 43l-5 19q-10 30 -28 53q-4 6 -11 15t-8 10l-12 10l-12 8q-73 36 -180 25l-21 -7q-33 -8 -57 -36l-15 -15q-3 -4 -10 -18z" />
<glyph unicode="T" horiz-adv-x="1040" d="M975 1292q0 -7 3.5 -45t-1.5 -45q0 -2 -4 -14q-17 -48 -86 -37h-17q-14 2 -43 2h-79q-2 -2 -15 -2q-38 0 -63 2q1 -6 -0.5 -16t-1.5 -13v-12q0 -79 1 -188.5t1 -118.5v-94q2 -36 -2 -111v-22q-1 -25 -1 -70t-1 -82t-4 -70v-14v-168v-74q7 -27 4 -43q0 -4 -1 -10.5 t-1 -9.5q-11 -30 -54 -41q-3 0 -9 -1t-9 -1q-12 0 -36 -1t-36 -1h-16q-6 -2 -23 -2q-22 0 -32 2q-15 0 -19 2h-14l-13 4q-15 9 -22 27.5t-7.5 33.5t1.5 42.5t2 37.5v19q-4 42 -4 188v35q-3 20 3 56.5t7 45.5v21q-3 24 -3 52.5t1.5 63t1.5 52.5v20q-2 6 -2 21q3 25 0 49v158 q-4 77 4 131v22q0 59 -6 78h-6q-11 0 -15 2h-34q-17 0 -21 -2q-82 0 -133 2h-14q-7 0 -21.5 -1t-21.5 -1h-15l-16 8q-2 2 -10 19l-6 18q-4 18 -3 88t0 88q-3 10 0 17q3 37 27 47q15 6 37 0q37 5 143 0h41q25 0 39 2h17q53 0 84 2h49q6 -2 24 -2q30 3 64 0h22q18 -3 39 -3 t46.5 1.5t39.5 1.5h80q15 -1 45.5 2t54 1.5t41.5 -11.5q17 -11 20.5 -30t1 -47t-0.5 -42q-2 -4 -2 -19z" />
<glyph unicode="U" d="M1122 705q5 -150 0 -201q-5 -69 -8 -84q-2 -8 -2 -27l-10 -63q0 -3 -1 -10.5t-1 -10.5t-1 -9t-1 -9q-56 -123 -94 -170l-15 -15q-38 -38 -71 -59l-17 -12q-14 -8 -30.5 -15.5t-28 -12t-33 -10.5t-29.5 -8t-34 -7.5t-31 -6.5h-31q-25 2 -86 2t-104.5 5t-83.5 20l-27 10 q-33 16 -47.5 23.5t-37.5 24t-38 34.5l-16 19q-30 39 -39 59q-28 55 -39 92q-22 63 -33 162q-9 75 -12 152l-6 204q0 16 -1 50t-1 51v24q-1 15 -1 31.5t0.5 36t0.5 29.5v20q0 18 -1.5 76.5t-0.5 89.5q-2 6 -2 22l4 17q-2 6 -2 31q0 16 -2 22q1 12 -1.5 50t1.5 50l4 17 q8 23 27 33t40.5 9t45.5 -1t42 4h99q10 0 18 -8q11 -11 16 -66v-24q-4 -42 -3.5 -57t3 -97t2.5 -164q0 -7 -2.5 -49.5t-2 -50.5t2.5 -51v-21q3 -30 -1.5 -99.5t1.5 -99.5q0 -16 2 -20q0 -4 1.5 -11.5t1.5 -11.5v-20q0 -20 4 -82q0 -35 8 -66v-18q4 -37 16 -68l4.5 -9 t6.5 -10.5t6 -8.5q9 -17 10 -19l14 -14q26 -29 57 -37l21 -6q107 -11 180 25l12 8l13 10q15 20 18 25q45 53 49 170l4 22v53v17q-1 37 3.5 100t5.5 80v22q-1 31 -8 98t-7 103v10q0 15 -1 42t-1 42q-2 6 -2 29q0 5 1 15.5t1 15.5v33q3 33 -3 104t-1 109q6 44 43 53q3 3 6.5 4 t9.5 1t9 1q50 4 88 4h22q10 -1 34.5 -2t39 -3t29.5 -11.5t18 -28.5q6 -27 6.5 -55t-3 -68t-3.5 -55q0 -13 -2 -15v-71q0 -40 2 -58q2 -6 2 -30q2 -55 2 -158q0 -19 -2 -33v-57q4 -70 4 -102z" />
<glyph unicode="V" horiz-adv-x="1296" d="M1186 1444l16 -4q29 -9 32 -43t-11 -58l-6 -18q-5 -15 -5 -16q-3 -5 -5 -14.5t-5 -14.5q-5 -18 -15 -47.5t-11 -32.5l-7 -22q-19 -36 -28 -84l-4 -19q-9 -36 -31 -92l-6 -18q-20 -62 -27 -89l-4 -18q-5 -23 -22 -80l-7 -20q-16 -35 -34 -95l-13 -36q-1 -5 -4 -12t-4 -9 l-12 -37q-3 -11 -6.5 -22.5t-8.5 -25.5t-8 -23l-6 -19q-3 -10 -6.5 -20.5t-7.5 -21.5t-6 -17l-4.5 -9t-4.5 -12q-13 -33 -35 -98t-34 -98l-6 -19l-31 -80q-3 -5 -6 -16.5t-6 -17.5q-10 -23 -21 -37q-14 -21 -26 -33q-16 -4 -21 -4q-4 -2 -18 -2h-19q-17 -1 -112 4 q-14 2 -39 2q-45 10 -64 76l-6 16q-3 23 -10 39l-6 18q-5 16 -13.5 48.5t-17 58t-18.5 47.5l-9 18q-18 58 -28 101l-7 18q-3 10 -8.5 32t-10.5 38t-11 31l-6 20l-25 61l-6 19q-7 31 -25 80l-6 20q-13 40 -18 58q-2 2 -8 20q-7 19 -18.5 54.5t-18.5 54.5q-4 16 -4 18 q-23 77 -31 94l-6 21l-31 104l-6 17q-14 44 -21 73q-17 40 -22 72l-12 29q0 2 -1 4.5t-2 6.5t-2 7q-5 37 7 53q8 8 14 11l27 6q3 0 7 1t7 1q101 10 182 -4q6 -2 19 -8q17 -7 28 -29q1 -2 4 -9t4 -12l7 -20q0 -3 4 -19q0 -2 4 -18q13 -27 25.5 -79.5t19.5 -72.5l6 -20l27 -78 l8 -22q0 -3 4 -19l6 -18q2 -2 6 -17q6 -9 6 -20q3 -6 7 -17t6 -16l4 -16q0 -3 1 -10.5t1 -10.5q8 -32 26.5 -90t24.5 -80q4 -16 4 -18q6 -29 19 -51l6 -19q23 -73 24 -76q4 -12 4 -14q4 -16 4 -20q1 -3 2 -7t2 -6.5t1 -3.5l16 -73q4 27 8 34l6 19q10 25 28.5 81t31.5 85 l4 16q26 56 55 158l6 22q3 7 6 20.5t6 20.5l5 15q12 31 28.5 93t28.5 93l4 18q24 89 55 162l6 19q3 8 7.5 26.5t7.5 26.5l6 18q18 40 47 56q12 4 16 4q36 4 58 4h18q12 1 38.5 3.5t37 2.5t35.5 -2z" />
<glyph unicode="W" horiz-adv-x="1871" d="M1673 1438q12 -2 39.5 -0.5t45.5 1.5t34 -10.5t18 -33.5v-19q0 -2 -4 -18q-33 -100 -49 -164l-4 -12l-6 -27l-6 -18q-7 -41 -25 -99l-6 -20l-24 -98l-5 -21l-4 -14l-4 -21q-4 -16 -4 -18q-1 -6 -8 -19q-13 -30 -24.5 -92t-22.5 -90l-4 -18l-13 -41q-3 -11 -17.5 -57.5 t-23.5 -71.5v-11q-3 -8 -7 -26.5t-7 -26.5l-6 -18q0 -3 -4 -19l-6 -18q-5 -24 -16.5 -68.5t-14.5 -54.5l-6 -18q-13 -82 -31 -129l-10 -19q-7 -14 -10 -18q-23 -23 -57.5 -31t-66 -5t-67.5 -1q-3 0 -10 1t-10 1q-27 4 -37 10l-16 12q-27 20 -35 58l-6 16q-5 20 -5 21 l-43 139q0 3 -1 9t-1 9q-7 30 -23.5 90t-23.5 89l-6 16l-12 51l-6 21l-4 16l-4 16l-19 62l-18 74q0 2 -4 18q-6 25 -29 96q-13 -30 -24.5 -90.5t-18.5 -83.5l-4 -18l-13 -41q-5 -14 -18 -59t-22 -70v-11q-3 -8 -7.5 -26.5t-7.5 -26.5l-6 -18q0 -3 -4 -19l-6 -18 q-5 -24 -16.5 -68.5t-14.5 -54.5l-6 -18q-13 -82 -31 -129l-10 -19q-7 -14 -10 -18q-23 -23 -57.5 -31t-66 -5t-67.5 -1q-3 0 -10 1t-10 1q-27 4 -37 10l-16 12q-27 20 -35 58l-6 16q-4 16 -4 21l-44 139q0 3 -1 9t-1 9q-7 29 -23.5 89.5t-23.5 89.5l-6 16l-12 51l-6 21 l-4 16l-4 16l-19 62l-18 74q0 2 -4 18q-7 33 -25 91t-25 85l-4 21l-34 149l-7 23l-16 57l-6 18q-3 13 -8 36t-10 41.5t-11 35.5l-4 12q-1 3 -2 6.5t-1.5 5.5t-0.5 3l-6 18q-27 60 -10 94q6 10 16.5 14.5t26.5 5.5t22 3h17q20 1 108 -4q17 0 21 -2q69 -11 81 -68l7 -16l4 -19 l6 -22q16 -55 33 -133q0 -1 4 -21q7 -34 25.5 -99.5t25.5 -99.5l6 -20q3 -19 12 -41l7 -18q0 -5 4 -21l6 -20q4 -16 4 -19q11 -36 20 -84q7 -16 11 -41l6 -18q4 -16 4 -19q3 -13 6.5 -36t7.5 -42t10 -36q8 29 20.5 86t20.5 86l25 73q12 44 18 89l7 18l4 14q15 55 24 111 q4 16 4 18q24 79 29 101q4 16 4 18q12 52 37 125l6 21l6 18q18 108 74 119q6 2 24 2q8 0 65 -3t65 1l18 -4q53 -14 61 -66l7 -20q3 -7 5 -18.5t5 -18.5l6 -19l6 -20l23 -96q0 -1 4 -21q7 -34 25.5 -99.5t25.5 -99.5l6 -20q3 -19 12 -41l6 -18q0 -1 5 -21l6 -20q4 -16 4 -19 q11 -36 20 -84q7 -16 11 -41l6 -18q4 -16 4 -19q3 -13 6.5 -36t7.5 -42t10 -36q8 28 20.5 86t20.5 86l25 73q12 44 18 89l6 18l5 14q15 55 24 111q4 16 4 18q24 79 29 101q4 16 4 18q8 34 27 95.5t22 70.5l6 20q9 27 16 43.5t23.5 32.5t38.5 19h19q18 2 55 2q12 0 16 -2z " />
<glyph unicode="X" horiz-adv-x="1134" d="M1069 47q4 -16 4 -18q-3 -19 -17.5 -26.5t-43 -8.5t-33.5 -2q-3 0 -9 -1t-9 -1q-70 0 -127 8q-17 0 -21 2q-16 3 -29 12t-24 23.5t-18 27.5t-17.5 33t-15.5 29l-7 12l-8 15q-17 22 -28 59q-4 4 -9 20q-11 32 -42 90.5t-42 90.5l-6 14l-4 16q-13 -35 -43 -92 q-7 -14 -8 -18l-10 -19q-43 -104 -47 -116l-56 -111l-6 -10q-13 -23 -39 -49l-16 -13q-8 -8 -19 -12q-2 -1 -5.5 -2.5t-6.5 -2.5t-6 -1q-12 -4 -22 -4q-14 0 -30 -1t-36 -2.5t-31 -2.5h-20q-29 0 -53 6q-2 1 -5.5 1t-6 1t-5.5 4q-17 4 -24.5 16t-5 28t7.5 30t12 26l8 17 q5 8 14 23t16 27t11 23l12 23l39 78q14 28 45.5 80.5t44.5 79.5l19 36q23 37 52.5 106.5t37.5 84.5q3 9 8 14l14 31l-6 12q-14 23 -26 48.5t-27 60.5t-22 51q-2 3 -7 16q-5 5 -10 19q-2 2 -2 8q1 1 -123 238q-1 3 -4 7t-4 7q-13 30 -48.5 89t-49.5 93l-4 12q-4 25 6 37 q12 12 18 15q9 6 21 6q19 1 59.5 4t60.5 3.5t60 -1.5h18q48 -12 66 -39l10 -14q18 -36 21 -45l8 -15q6 -10 17.5 -33t19.5 -36l10 -21q13 -32 43.5 -90t36.5 -70q0 -2 4 -14l14 -29q10 18 24.5 53t20.5 48l6 12q8 18 19 33l6 14l18 33q5 11 18.5 35.5t20.5 40.5l6 12 q6 9 23 42t33.5 51t40.5 22q16 4 22 4q25 -3 75 -2t75 -2q3 0 10 -1t10 -1h15q25 0 32 -7q28 -28 0 -79l-8 -19l-20 -32t-21 -37l-6 -13q-7 -16 -20 -39l-7 -14q-41 -91 -110 -213q-3 -9 -8 -14q-8 -13 -11 -23l-8 -16q-5 -16 -8 -19q-5 -15 -6 -16l-10 -21l-9 -20 q-26 -66 -57 -119l-6 -12v-2q0 -2 2 -4l10 -19q25 -77 76 -151l8 -17l27 -57l8 -18q5 -16 29 -58q7 -14 10 -18q19 -40 90 -166l18 -37l5 -6l6 -12l6 -19q4 -12 10 -18l8 -19q2 -4 15 -23.5t18 -29.5z" />
<glyph unicode="Y" horiz-adv-x="1171" d="M1096 1432q29 -29 0 -80l-9 -19q-4 -7 -19 -31.5t-21 -37.5l-7 -13q-7 -16 -20 -39l-6 -14q-19 -44 -80 -150t-70 -124q-4 -10 -8 -15q-6 -10 -10 -22l-8 -17q-4 -13 -9 -18q-5 -15 -6 -16l-10 -21l-20 -51q-7 -6 -9 -14l-6 -17l-8 -14l-6 -19l-10 -18q-10 -30 -33 -72 l-4 -88q0 -3 -1 -9t-1 -9q0 -4 -1 -11t-1 -10v-385q7 -27 4 -43q0 -4 -1 -10.5t-1 -9.5q-11 -30 -53 -41q-3 0 -9.5 -1t-9.5 -1q-131 -4 -182 4q-6 2 -12 8q-8 3 -11 12q-18 32 -8 72q-2 2 -2 16v23q0 27 2 41v16q0 32 -0.5 64.5t-1 53t-0.5 22.5v180q4 62 4 82q0 4 1 10.5 t1 9.5v17q-8 20 -12 41l-6 12q-17 30 -21 39q-13 25 -49 104l-6 17l-70 141l-6 12q-13 22 -34.5 66.5t-30.5 60.5q-1 3 -4.5 7t-4.5 7q-14 34 -61 119.5t-61 118.5q0 1 -1 2.5t-2 4.5t-2 5q-3 24 7 37q12 12 18 15q9 6 21 6q19 1 59.5 4t60.5 3.5t60 -1.5h18q48 -12 66 -39 l10 -14q15 -30 20 -45l9 -15q1 -4 59 -119l10 -20q9 -24 39 -82l8 -16q18 -36 21 -45l3 -5q4 -6 5 -10q4 -12 13.5 -31t13.5 -30q12 22 18 47l6 14q6 22 16 43.5t25.5 49t22.5 42.5q1 3 4 6.5t4 6.5q2 2 2 6l25 41l47 84l6 12q7 9 23 41.5t32.5 51t40.5 22.5q16 4 23 4 q25 -3 74.5 -2t74.5 -2q3 0 10.5 -1t10.5 -1h14q27 0 33 -6z" />
<glyph unicode="Z" horiz-adv-x="1103" d="M1024 250l4 -21q-2 -18 -0.5 -96t-9.5 -98l-4 -12l-10 -15q-10 -10 -33 -10h-17q0 -2 -101 -1l-101 1q-15 0 -21 -2h-18q-74 -4 -99 0q-4 0 -11 -1t-11 -1q-62 0 -123 6h-20q-92 -4 -123 0q-13 0 -17 -2h-35q-23 2 -81 -2q-2 -2 -17 -2q-7 1 -27 1t-36.5 1.5t-28.5 5.5 q-8 3 -12 10q-9 6 -9 17q-2 4 -2 18q3 29 31 79.5t35 72.5q0 4 4 8q2 2 2 4l39 78q8 17 18 34.5t24.5 40.5t21.5 35l10 17q1 4 8 18l8 19l90 182q7 14 8 18q12 21 33 74q1 5 4 12t4 9q14 30 42 87.5t42 86.5l11 18q17 33 49 88q1 3 4 7t4 7q15 24 33 70l12 29l6 12 q-61 0 -184 1t-170 1h-14q-12 0 -43 -3.5t-50.5 -2t-27.5 11.5l-11 15q-4 16 -4 18q-4 16 -4 20q-4 11 -1 84t3 84q0 3 1 9.5t1 9.5q2 9 9 16q8 9 21 13.5t22 5t27 -0.5t24 -1h20q16 0 72 4t72 0h428q3 0 8 1t8 1q6 -2 29 -2h6q20 -1 58 -1t57 -1q3 0 10 -1t10 -1h14 q26 0 33 -7q28 -28 0 -79l-8 -19l-20 -32t-21 -37l-6 -13q-4 -9 -21 -39l-6 -14q-41 -91 -110 -213q-2 -7 -9 -14q-5 -9 -10 -23l-8 -16q-5 -16 -8 -19l-27 -53l-8 -18q-3 -3 -5 -8.5t-5 -8.5q-1 -4 -8 -18q-16 -26 -31 -56.5t-33.5 -70.5t-28.5 -60q-3 -3 -5 -8t-5 -8 l-14 -25q-2 -6 -8 -12q-9 -17 -24.5 -48t-28.5 -56t-27 -47l-17 -37l-37 -74q-3 -3 -5 -8t-5 -8h312q14 0 20 -2q28 -3 86.5 0t87.5 0l16 -7q20 -10 23 -26z" />
<glyph unicode="[" horiz-adv-x="667" d="M119 -387l-6 6l-4 16q-3 3 -3 11v71q0 52 -1 212t-1 241h2q-4 66 -4 100v62q2 35 2 108h-2v324q0 57 1 151.5t1 122.5q0 17 0.5 32t1 23.5t0.5 10.5v635q3 42 31 73q1 2 8 9q30 24 105 24h301q3 0 9 -1t9 -1q78 6 84 -82q0 -4 1 -11t1 -11q4 -50 -8 -82q-3 -12 -8 -17 q-15 -24 -43 -30q-2 0 -14 -4q-22 -6 -43 -4h-148v-299q-3 -27 -3.5 -55t0.5 -67t1 -55l-4 -198l4 -109v-379q0 -17 1 -57.5t1 -60.5v-23q-1 -15 1.5 -58.5t-1.5 -58.5v-346h150q27 2 51 -4q12 -4 14 -4q7 -2 11.5 -4t8 -6t5 -5.5t4.5 -7.5l4 -8q5 -5 8 -16q12 -32 8 -82 q0 -4 -1 -11.5t-1 -11.5q-5 -43 -27 -65.5t-59 -18.5q-3 0 -9 -1t-9 -1h-131q-38 0 -115.5 1t-107.5 1h-25q-10 0 -12 2q-8 1 -21.5 9t-17.5 10z" />
<glyph unicode="\" horiz-adv-x="933" d="M524 362q-2 4 -17 34.5t-24 45.5l-14 29q-18 30 -57 111q-13 23 -27 55l-43 90l-10 18q-14 38 -51 100.5t-48 84.5l-8 16l-41 90l-6 13q-14 33 -16 36l-6 15q-12 17 -54 108l-6 13q-16 38 -20 43q-11 14 -19 32l-6 17l-24 51l-4 18q-5 25 5 38.5t28.5 15.5t42 2t45.5 -3 t38 1q-1 0 -2 -1t-2 -1q17 0 21 -2q7 0 18 -7q25 -14 40.5 -40t29.5 -62t26 -55l6 -13l17 -36l12 -21l94 -188q11 -27 47 -90l7 -13l6 -10q5 -11 41.5 -81.5t50.5 -110.5l10 -15q10 -18 12 -22l62 -127l10 -21l43 -92l10 -18l78 -168q0 -1 4 -13q19 -48 49 -106l9 -19 l12 -16q25 -41 16 -70q-8 -26 -57 -30q-4 2 -16 2q-7 0 -33 -1t-37 0t-30 4.5t-30.5 14t-19.5 27.5l-18 37l-6 16l-93 178l-12 25l-25 47l-4 12z" />
<glyph unicode="]" horiz-adv-x="667" d="M555 -381l-6 -6q-4 -2 -17.5 -10t-21.5 -9q-2 -2 -12 -2h-25q-30 0 -107.5 -1t-115.5 -1h-131q-3 0 -9.5 1t-9.5 1q-37 -4 -59 18.5t-27 65.5q0 4 -1 11.5t-1 11.5q-4 50 8 82q2 9 9 16q1 1 5 9t5.5 10t7.5 6t14 6q3 0 15 4q24 6 51 4h149v346q-4 15 -1.5 58.5t1.5 58.5 v23q0 20 1.5 60.5t1.5 57.5v379l4 109l-4 198q0 148 -3 177v299h-147q-21 -2 -43 4q-12 4 -14 4q-28 6 -43 30q-6 6 -9 17q-12 32 -8 82q0 4 1 11t1 11q6 88 84 82q3 0 9.5 1t9.5 1h301q25 0 37 -0.5t32.5 -6t34.5 -17.5q8 -7 8 -9q28 -31 31 -73v-635q0 -2 0.5 -10.5 t1 -23.5t0.5 -32q0 -28 1 -122.5t1 -151.5v-324h-2q0 -73 2 -108v-62q0 -34 -4 -100h2q0 -81 -1 -241t-1 -212v-71q0 -9 -2 -11z" />
<glyph unicode="^" horiz-adv-x="1091" d="M895 762q-3 2 -12.5 6.5t-12.5 9.5q-1 1 -2.5 1.5t-3 2t-2.5 4.5q-4 5 -21.5 30.5t-31.5 39.5l-12 14q-6 9 -15 15l-26 28q-10 11 -40.5 48.5t-49.5 56.5l-15 16q-22 22 -56.5 68t-51.5 65l-58 -71l-12 -15q-3 -3 -5 -7t-5 -7q-19 -25 -60.5 -70t-60.5 -69q-1 -3 -4 -6.5 t-4 -6.5q-5 -6 -17 -20.5t-18 -20.5l-16 -18l-9 -10q-8 -10 -20.5 -28.5t-23.5 -32t-21 -19.5q-12 -4 -14 -4q-41 -8 -80 31q-5 7 -15 14q-18 15 -29.5 27t-23 30t-7.5 35.5t23 32.5l13 12q2 2 19.5 21t25.5 30l12 15q11 11 23 32l6 7q7 9 27 32t30 37q7 7 8 10l9 9 q7 8 19 25.5t19 25.5q1 3 4.5 5t4.5 5q3 4 10 14t10 13l10 10l6 8l19 21q12 12 14 16l29 29l31 39l10 12l16 16q20 25 34 39.5t38.5 26t50.5 6.5l19 -6q24 -8 45 -29l8 -10q21 -27 43 -49l14 -19l12 -18q3 -3 7.5 -9.5t7.5 -9.5q16 -16 22 -26l25 -29q12 -16 35 -42.5 t35 -41.5q23 -28 26 -33q9 -13 27.5 -33.5t25.5 -29.5l19 -23q18 -25 29 -34q9 -9 12 -15l8 -10q5 -7 37 -39q3 -1 5 -4t5 -4q35 -40 12 -72q-1 -3 -4 -5t-4 -5l-8 -10l-45 -43l-10 -8q-28 -28 -62 -31q-1 0 -5 1t-7 1z" />
<glyph unicode="_" horiz-adv-x="876" d="M174 -2h16q32 0 66.5 0.5t57 1t24.5 0.5l324 -2q28 -4 38 -4h19q18 -2 69 2t60 -6q22 -12 26 -22t-0.5 -23.5t0.5 -40.5q-1 -16 -5.5 -27.5t-13.5 -18t-16.5 -10.5t-22.5 -5.5t-24.5 -1.5t-28.5 0.5t-28 0.5h-14q-419 -3 -543 0q-62 -7 -102 -4t-58 19q-9 9 -12 32l-4 25 q-3 22 6 53q2 7 8 13q3 9 7 10q31 17 71 8q2 2 17 2h22q27 0 41 -2z" />
<glyph unicode="`" horiz-adv-x="352" d="M350 1612q1 -13 -9.5 -22t-23.5 -11h-20q-10 -2 -33 -2h-53q-21 0 -41 14.5t-29 30.5l-8 10l-67 92l-9 11l-4 8l-8 10l-6 6l-4 8q-3 1 -5 5q-2 3 -5 6l-13 20q-4 4 -4 10q-4 4 -4 9q-10 28 19 53q7 7 10 8q3 0 6 1t6 1q29 6 115 6q16 0 22 -2q21 0 43 -22l6 -9 q6 -11 25.5 -46.5t28.5 -55.5q6 -6 8 -12l8 -19l10 -16l25 -49l6 -10q10 -17 8 -33z" />
<glyph unicode="a" d="M1122 739q0 -32 -4 -102v-57q2 -14 2 -33q0 -103 -2 -158q0 -25 -2 -31q-2 -18 -2 -57v-72q2 -2 2 -14q0 -15 3.5 -55t3 -68t-6.5 -55q-4 -20 -18.5 -30t-29 -11.5t-39 -2t-34.5 -1.5h-22q-38 0 -88 4q-3 1 -9 1t-9.5 1t-6.5 4q-37 9 -43 53q-5 38 1 109t3 104v33 q0 5 -1 15.5t-1 15.5q0 22 2 28q0 16 1 43t1 43v15q-11 1 -29 2.5t-32.5 2.5t-28.5 1h-131q-34 0 -100.5 1t-100.5 1q0 -8 2 -10v-199q-2 -4 -2 -20q-4 -46 -4 -64v-33q-3 -23 0 -45v-24q-5 -55 -16 -66q-8 -8 -19 -8q-17 1 -35.5 0t-40 -3t-32.5 -3q-17 0 -23 -2 q-3 0 -29 0.5t-35.5 2t-25.5 9t-24 21.5q-11 19 -12.5 41.5t2 51.5t2.5 44q2 6 2 22q0 25 2 31v16q4 38 4 170q0 15 -2 19q-4 78 -2 117v24q0 17 1 51t1 50l6 204q3 77 12 152q11 99 33 162q11 37 39 92q9 20 39 59l16 19q15 18 38 34.5t37.5 24t47.5 23.5l27 10 q39 15 83 19.5t104.5 4.5t86.5 2h31q77 -8 133 -23t100 -52l10 -9q75 -75 119 -159l8 -23q14 -53 15 -67q0 -3 1 -10.5t1 -10.5l10 -63q0 -19 2 -27q3 -15 8 -84q5 -51 0 -201zM735 754l99 -6q0 9 -1.5 26.5t-1.5 26.5q0 3 -1 10t-1 10q-3 55 0 107l-4 22q0 38 -10 58 q-11 78 -39 112q-3 5 -18 25l-13 10l-12 8q-73 36 -180 25l-21 -6q-31 -8 -57 -37l-14 -15q-3 -4 -10 -18q-16 -27 -17 -29q-12 -39 -14 -67q0 -3 -1 -9.5t-1 -9.5q-6 -35 -6 -65q-5 -45 -9 -176q33 0 99.5 -1t99.5 -1h133z" />
<glyph unicode="b" horiz-adv-x="1200" d="M1096 428q2 -4 2 -20v-19q-3 -74 -31 -141l-10 -19q-19 -48 -62 -94l-14 -14q-23 -23 -47 -41l-16 -12q-15 -12 -34 -21.5t-32.5 -15.5t-40 -12.5t-35.5 -8.5t-41 -7.5t-37 -6.5h-43q-54 -4 -82 -4h-65q-42 -2 -59.5 -2t-60.5 2.5t-60 3.5h-105q-84 -18 -96 92v23 q0 18 1.5 77.5t0.5 90.5v18v92v21q3 46 0 96q0 3 1 9t1 9v107q-2 4 -2 20q3 106 -6 209q2 4 2 14q0 3 1 7.5t1 7.5v16q0 3 1 10.5t1 10.5q0 16 2 22q-3 8 -4 18t-1 22t-1 18v20q-1 18 1.5 67.5t-1.5 67.5v21q-1 17 4 104v43q-3 40 12 74l9 16l14 13q25 8 50 10t63.5 0 t50.5 -2h20h98h21q75 9 149 0q3 0 8.5 -1t8.5 -1q14 1 29 -0.5t24.5 -3t27 -5t25.5 -4.5q3 0 10.5 -1t10.5 -1q29 -1 62.5 -12t53.5 -21.5t58 -31.5l20 -10l19 -15l16 -14q57 -60 82 -145l4 -21l4 -14q0 -4 2 -6q33 -126 -6 -205l-8 -21l-6 -12q-2 -2 -2 -6q0 -1 -21 -37 q-11 -14 -14 -16q-30 -41 -74 -78l-16 -13q-26 -15 -45 -22l-15 -6l13 -6q105 -45 153 -131l13 -17q6 -8 10 -20q25 -49 31 -94q2 -6 2 -21zM414 979h-2q2 -4 2 -18q0 -3 -1 -8.5t-1 -8.5v-2h-2v-16q-2 -4 -2 -19q0 -16 2 -20v-37h47q12 0 32 -1t31 -1h23q127 -4 178 10 l18 8q32 16 41 43q2 3 8 19l7 22l4 17q3 26 -2 45q0 3 -1 7t-1 7v6l-4 19q-6 14 -21 39q-6 12 -12 18q-26 50 -140 63q-4 -2 -18 -2q-19 0 -51 1.5t-57 1.5t-48 -3h-14q-10 -2 -16 -8q-4 -7 -4.5 -17.5t1 -25.5t1.5 -22v-21q0 -11 1.5 -44t0.5 -52zM801 430v4l-6 41l-4 19 l-9 16l-6 14q-30 40 -108 51q-13 0 -19 3h-88q-17 1 -75.5 -0.5t-75.5 2.5q3 -21 -1 -64t-1 -67q0 -13 2 -15v-74q1 -6 -0.5 -29t2.5 -26q0 -7 6 -10q26 -12 58 -15t75.5 -0.5t60.5 1.5q15 0 19 2q30 3 53 12l21 6q39 14 65 47q4 11 10 17l8 14l9 18z" />
<glyph unicode="c" horiz-adv-x="1208" d="M1094 494q19 -21 6 -88v-13l-10 -63q0 -3 -1.5 -10.5t-1.5 -10.5t-1 -9t-1 -9q-56 -123 -94 -170l-14 -15q-36 -36 -72 -59l-16 -12q-14 -8 -30.5 -15.5t-28.5 -12t-33 -10.5t-30 -8t-34 -7.5t-31 -6.5h-30q-25 2 -86.5 2t-105 5t-83.5 20l-26 10q-33 16 -47.5 23.5 t-37.5 24t-38 34.5l-17 19q-28 36 -38 59q-28 55 -39 92q-22 63 -33 162q-6 33 -10 98v19q-5 147 -7 162v18q-3 81 5 151q0 3 1 9.5t1 9.5l4 55q0 3 1 9.5t1 9.5l4 39q11 98 33 161q11 40 39 93q10 23 38 59l17 18q15 18 38 34.5t37.5 24t47.5 23.5l26 11q39 15 83.5 19.5 t105 4.5t86.5 2h30q7 -1 36.5 -7.5t41.5 -9.5t35 -9.5t40.5 -14.5t33.5 -18l16 -13q36 -23 72 -59l14 -14q35 -43 47 -74q15 -25 21 -39q17 -29 28 -84l5 -16q1 -4 5.5 -29.5t5 -35.5t-2 -28t-10.5 -32q-3 -3 -3 -10q-51 -28 -133 -11h-69q-4 0 -17 -0.5t-19 -0.5t-14.5 2.5 t-13.5 7.5q-6 6 -10 16t-5.5 17.5t-4.5 21.5t-4 20l-4 19q-9 27 -29 53q-4 6 -11 15t-8 10l-12 10l-12 8q-73 36 -180 25l-21 -7q-33 -8 -57 -36l-14 -15q-6 -8 -11 -18q-13 -22 -16 -29q-12 -39 -14 -67q0 -3 -1 -9.5t-1 -9.5q-7 -40 -7 -65q-4 -62 -4 -82q0 -4 -1 -11 t-1 -10q5 -11 1.5 -90t-3.5 -90q0 -4 1 -11.5t1 -11.5q0 -3 1 -9.5t1 -10.5q0 -20 4 -82q0 -26 7 -66q0 -3 1 -9t1 -9q2 -29 14 -68q2 -4 16 -28q6 -13 11 -19l14 -14q26 -29 57 -37l21 -6q107 -11 180 25l12 8l12 10q1 1 8 10t11 15q23 29 33 71l4 21q0 3 1 7t1 7 q0 26 8 39q8 20 20 27q28 14 67 15.5t71 -3.5t71 0q25 0 31 -2q18 -7 23 -12z" />
<glyph unicode="d" horiz-adv-x="1220" d="M1114 727v-22q4 -133 0 -179q-5 -69 -8 -84q-2 -8 -2 -26l-10 -64q0 -3 -1 -10t-1 -10t-1 -9.5t-1 -9.5q-55 -120 -95 -170l-14 -14q-36 -36 -72 -59l-16 -13q-16 -10 -33 -18t-40.5 -14.5t-34.5 -9.5t-42 -9.5t-36 -7.5h-52q-54 -4 -82 -4h-20q-21 -4 -112 0t-113 4 h-105q-52 -11 -74 24t-22 91v22q0 72 -1 254t-1 240v18q1 24 -1.5 94.5t1.5 94.5v20q0 3 1 9t1 9t1 9.5t1 9.5l4 55v27.5t0.5 68.5t1 89.5t0.5 99v88.5v12q-3 40 12 74l9 16l14 13q29 10 67.5 11t69 -2t68.5 1h20q24 -1 65 2t64.5 3.5t65.5 -5.5q4 -2 16 -2h17q3 0 8 -1 t8 -1q32 1 88.5 -9.5t81.5 -11.5l20 -8q27 -9 71 -34.5t58 -32.5q4 -1 6 -5q3 -4 5 -6l12 -10l14 -14q35 -43 47 -74q15 -25 21 -39q12 -19 19.5 -43.5t10.5 -42t7 -47t6 -43.5l4 -39v-14l4 -41q5 -51 0 -201zM819 565v21q-6 38 6 114l-2 19v20q-5 86 -4 103v20q0 37 2 53 l-4 23q0 37 -10 57l-6 41l-4 19q-49 108 -125 106q-4 2 -21 2q-25 3 -81.5 5.5t-86.5 5.5v2h-6q-2 -2 -14 -2q-36 0 -43 -9q-4 -7 -4.5 -17.5t1 -25.5t1.5 -22v-180q-4 -62 -4 -82q0 -4 -1 -11t-1 -10q4 -11 1 -90t-3 -90v-275q1 -8 0 -25t0.5 -26.5t7.5 -13.5 q6 -5 14.5 -7.5t13.5 -3t19.5 0t17.5 0.5v2l138 6h22q46 -4 85 20t60 66l9 18q6 19 10 60q10 20 10 57l4 23q-2 6 -2 26z" />
<glyph unicode="e" horiz-adv-x="1099" d="M991 246l4 -21q-2 -18 -0.5 -96t-9.5 -98l-4 -13l-10 -14q-8 -10 -26 -11.5t-47.5 2t-41.5 3.5h-14q-59 0 -184.5 -1t-176.5 -1h-45q-21 -1 -94 0.5t-94 -2.5h-21q-58 -4 -92 14q-6 6 -8 12q-3 18 -3 30t2.5 36t2.5 37v14q0 100 -1 288.5t-1 203.5v94q-2 36 2 111v22 q1 25 1 70t1 81.5t4 69.5v15v168v73q-7 27 -4 43q0 4 1 11t1 10q11 30 53 41q3 0 9.5 1t9.5 1q125 4 170 -2h407q28 -4 39 -4h19q18 -2 69 2t60 -6q17 -10 21.5 -25.5t2.5 -42.5q0 -3 -1 -11t-1 -12q-5 -11 -3 -56t1 -56v-13q-1 -10 -5 -24l-3 -14l-10 -15q-8 -10 -26 -11.5 t-47.5 2t-41.5 3.5h-14q-75 0 -226 -1t-198 -1q0 -16 1 -35l1 -18v-180q-2 -10 -2 -29h364q28 -4 39 -4h43q20 -3 35 -0.5t33.5 1.5t32.5 -9q21 -15 18 -45v-15l-6 -67v-23q-2 -14 -2 -41v-20q3 -29 -10 -43.5t-34.5 -15t-45.5 -1t-43 -0.5h-25q-76 0 -220 -1t-185 -1v-18 v-185v-122h370q35 -5 39 -5h19q18 -2 69 2t60 -6q19 -9 22 -26z" />
<glyph unicode="f" horiz-adv-x="1097" d="M412 606v-20q0 -26 -4 -80v-21q0 -21 4 -67v-23q3 -81 -4 -139q0 -4 -1 -10.5t-1 -9.5q0 -22 4 -62t4 -72.5t-8 -60.5q-2 -7 -9 -14q-25 -38 -82 -29h-12l-55 -4h-21q-58 -4 -92 14q-6 6 -8 12q-3 18 -3 30t2.5 36t2.5 37v14q0 100 -1 288.5t-1 203.5v94q-2 36 2 111v22 q1 25 1 70t1 81.5t4 69.5v15v125v43q2 4 2 20q0 17 -2 23q0 6 -1 27.5t0 32.5t3.5 27.5t11 27t21.5 16.5l16 4q3 0 9.5 1t9.5 1q125 4 170 -2h407q28 -4 39 -4h19q18 -2 69 2t60 -6q17 -10 21.5 -25.5t2.5 -42.5q0 -3 -1 -11t-1 -12q-5 -11 -3 -56t1 -56v-13q-1 -10 -5 -24 l-3 -14l-10 -15q-8 -10 -26 -11.5t-47.5 2t-41.5 3.5h-14q-75 0 -226 -1t-198 -1q0 -16 1 -35l1 -18v-180q-2 -10 -2 -29h364q28 -4 39 -4h43q20 -3 35 -0.5t33.5 1.5t32.5 -9q21 -15 18 -45v-15l-6 -67v-23q-2 -14 -2 -41v-20q3 -29 -10 -43.5t-34.5 -15t-45.5 -1t-43 -0.5 h-25q-51 0 -158.5 -1t-152.5 -1h-94z" />
<glyph unicode="g" horiz-adv-x="1214" d="M1106 629q0 -3 -1 -10.5t-1 -10.5q-5 -13 -2 -55t2 -55q-2 -2 -2 -17q0 -3 1 -8t1 -8v-21q0 -10 -4 -38v-13l-10 -63q0 -3 -1.5 -10.5t-1.5 -10.5q-8 -47 -53 -123l-10 -18q-23 -37 -33 -47l-14 -15q-36 -36 -72 -59l-16 -12q-14 -8 -30.5 -15.5t-28.5 -12t-33 -10.5 t-30 -8t-34 -7.5t-31 -6.5h-30q-25 2 -86.5 2t-105 5t-83.5 20l-26 10q-33 16 -47.5 23.5t-37.5 24t-38 34.5l-17 19q-28 36 -38 59q-28 55 -39 92q-22 63 -33 162q-6 33 -10 98v19q-5 147 -7 162v18q-3 81 5 151q0 3 1 9.5t1 9.5l4 55q0 3 1 9.5t1 9.5l4 39q11 98 33 161 q11 40 39 93q10 23 38 59l17 18q15 18 38 34.5t37.5 24t47.5 23.5l26 11q39 15 83.5 19.5t105 4.5t86.5 2h30q7 -1 36.5 -7.5t41.5 -9.5t35 -9.5t40.5 -14.5t33.5 -18l16 -13q36 -23 72 -59l14 -14q35 -43 47 -74q15 -25 21 -39q17 -29 28 -84l5 -16q9 -35 12 -68v-14 q-2 -31 -22.5 -46t-42 -16t-57 0t-48.5 0h-19q-3 0 -10 -1t-10 -1h-29q-2 -2 -16 -2q-22 4 -29 11q-9 9 -12 22q-9 23 -12 53l-4 19q-9 27 -29 53q-4 6 -11 15t-8 10l-12 10l-12 8q-73 36 -180 25l-21 -7q-33 -8 -57 -36l-14 -15q-6 -8 -11 -18q-13 -22 -16 -29 q-12 -39 -14 -67q0 -3 -1 -9.5t-1 -9.5q-7 -40 -7 -65q-4 -62 -4 -82q0 -4 -1 -11t-1 -10q5 -11 1.5 -90t-3.5 -90q0 -4 1 -11.5t1 -11.5q0 -3 1 -9.5t1 -10.5q0 -20 4 -82q0 -26 7 -66q0 -3 1 -9t1 -9q2 -29 14 -68q2 -4 16 -28q6 -13 11 -19l14 -14q26 -29 57 -37l21 -6 q107 -11 180 25l12 8l12 10l9 12l10 13q12 14 20.5 30.5t13.5 38t7.5 35t5.5 41.5t4 37h-141q-15 0 -19 2q-3 0 -8 1t-8 1l-16 6q-29 12 -29 27q-1 19 0 57.5t0 58.5q0 15 -2 19v20q-9 44 25.5 69t78.5 17q17 0 23 -2q84 0 125 -2q6 -2 20 -2q76 -5 101 0h34q15 0 19 -2h41 q2 0 14 -4q19 -14 23 -24q7 -16 10 -39q2 -4 2 -19q3 -30 -2 -61z" />
<glyph unicode="h" horiz-adv-x="1222" d="M1100 1327v-22q0 -27 -2 -41v-17q0 -32 0.5 -66t1 -56.5t0.5 -24.5v-180q-4 -62 -4 -82q0 -4 -1 -11t-1 -10q4 -11 1 -90t-3 -90v-440q-5 -35 -5 -39v-19q-2 -18 2 -69t-6 -60q-12 -22 -37 -24t-61 3t-57 1h-21q-46 -3 -78 8l-14 10q-10 8 -11.5 26t2 47.5t3.5 41.5v14 q0 70 -1 220.5t-1 197.5q-258 4 -381 4q-12 0 -14 2v-364q-4 -28 -4 -39v-19q-2 -18 1.5 -69t-6.5 -60q-12 -22 -37 -24t-61 3t-57 1h-21q-45 -3 -77 8l-15 10q-10 8 -11.5 26t2 47.5t3.5 41.5v14q0 100 -1 288.5t-1 203.5v94q-1 30 4 178q0 3 1 9.5t1 9.5v20q0 6 2 8v385 q-7 27 -4 43q0 4 1 11t1 10q11 30 53 41q3 0 9.5 1t9.5 1q131 4 182 -4q5 -2 12 -9q8 -3 11 -12q18 -32 8 -72q2 -2 2 -16v-22q0 -27 -2 -41v-17q0 -32 0.5 -66t1 -56.5t0.5 -24.5v-180q-4 -54 -4 -74h10q125 0 383 -4q0 12 1 30t1 29q0 3 1 9.5t1 9.5v20q0 6 2 8v385 q-7 27 -4 43q0 4 1 11t1 10q11 30 53 41q3 0 9.5 1t9.5 1q131 4 182 -4q5 -2 12 -9q8 -3 11 -12q18 -32 8 -72q2 -2 2 -16z" />
<glyph unicode="i" horiz-adv-x="542" d="M412 197q-4 -28 -4 -39v-19q-2 -18 1.5 -69t-6.5 -60q-12 -22 -37 -24t-61 3t-57 1h-21q-45 -3 -77 8q-3 3 -7.5 5t-7.5 5q-10 8 -11.5 26t2 47.5t3.5 41.5v14q0 100 -1 288.5t-1 203.5v94q-1 30 4 178q0 3 1 9.5t1 9.5v20q0 6 2 8v385q-7 27 -4 43q0 4 1 11t1 10 q11 30 53 41q3 0 9.5 1t9.5 1q131 4 182 -4q5 -2 12 -9q8 -3 11 -12q18 -32 8 -72q2 -2 2 -16v-22q0 -27 -2 -41v-17q0 -32 0.5 -66t1 -56.5t0.5 -24.5v-180q-4 -62 -4 -82q0 -4 -1 -11t-1 -10q4 -11 1 -90t-3 -90v-440z" />
<glyph unicode="j" horiz-adv-x="839" d="M717 1327v-22q0 -27 -2 -41v-17q0 -32 0.5 -66t1 -56.5t0.5 -24.5v-180q-4 -62 -4 -82q0 -4 -1 -11t-1 -10q5 -11 1.5 -90t-3.5 -90v-283q2 -52 -17 -135l-6 -20q-13 -34 -24 -52q-2 -7 -11 -16l-24 -31l-15 -16q-98 -84 -196 -92h-21q-46 -4 -63 -4q-6 -2 -27 -2 q-10 1 -46.5 4t-53.5 3.5t-47 -1.5q-4 0 -13.5 2t-13.5 2l-18 8l-17 10l-12 15q-8 8 -12 16q-4 10 -5.5 21t-0.5 19.5t0 20.5q-3 15 -3 33q0 64 5 80q9 17 10 19l12 12q6 4 37 16q30 6 103.5 3.5t101.5 2.5q10 0 24 7l23 10l14 12l10 12q12 23 15.5 50t3.5 62t2 52v246 q-1 30 4 178q0 3 1 9.5t1 9.5v20q0 6 2 8v295q1 19 -3 77t1 77q3 9 10 16q9 12 43 25q3 0 9.5 1t9.5 1q131 4 182 -4q5 -2 12 -9q8 -3 11 -12q18 -32 8 -72q2 -2 2 -16z" />
<glyph unicode="k" horiz-adv-x="1253" d="M723 739q-6 -6 -6 -10q-6 -15 0 -31q2 -6 8 -12l63 -88q2 -4 9 -12q0 -2 2 -4l6 -9q5 -9 49 -75l10 -15l90 -121l11 -14q54 -70 94 -131l14 -16q8 -13 25 -33.5t24 -30.5q0 -2 2 -4l6 -8l19 -27q24 -19 35 -51q6 -16 -5.5 -31t-29.5 -20q-21 -4 -84 0h-84q-3 0 -9 1t-9 1 q-39 -5 -75.5 7.5t-58.5 41.5q-2 2 -4.5 5.5t-5.5 4.5l-49 72l-10 16l-33 48l-10 14l-6 6q-16 20 -44.5 63.5t-43.5 63.5l-11 14l-69 97l-11 14q-40 49 -59 92l-12 14q-5 8 -15.5 21.5t-19 25.5t-14.5 23v-444q-4 -28 -4 -39v-19q-2 -18 1.5 -69t-6.5 -60q-12 -22 -37 -24 t-61 3t-57 1h-21q-45 -3 -77 8l-15 10q-10 8 -11.5 26t2 47.5t3.5 41.5v14q0 100 -1 288.5t-1 203.5v94q-1 30 4 178q0 3 1 9.5t1 9.5v20q0 6 2 8v385q-7 27 -4 43q0 4 1 11t1 10q11 30 53 41q3 0 9.5 1t9.5 1q131 4 182 -4q5 -2 12 -9q8 -3 11 -12q18 -32 8 -72q2 -2 2 -16 v-22q0 -27 -2 -41v-17q0 -32 0.5 -66t1 -56.5t0.5 -24.5v-180q-4 -62 -4 -82q0 -4 -1 -11t-1 -10v-29q3 3 7.5 10.5t6.5 10.5l8 12l281 404l10 14l33 47l10 17l41 59l8 10q42 60 88 72h215q4 0 13 1.5t13 1.5t10.5 -0.5t11.5 -2.5t10 -6q17 -17 8 -45q0 -3 -2.5 -8l-3.5 -7 l-8 -10l-13 -18l-26 -39q-11 -11 -13 -17q-7 -10 -24 -30t-25 -33l-14 -17l-10 -14l-9 -16l-32 -47l-13 -15l-34 -41l-11 -12q-13 -16 -34 -45.5t-27 -38.5l-10 -16l-52 -78q-3 -10 -10 -17q-8 -12 -44.5 -58.5t-49.5 -76.5z" />
<glyph unicode="l" horiz-adv-x="868" d="M805 168v-18q4 -51 -2 -76v-13q0 -31 -16.5 -50t-45.5 -15h-16q-7 0 -18 1t-15 1q-18 0 -24 -2h-230q-21 -1 -94 0.5t-94 -2.5h-21q-58 -4 -92 14q-6 6 -8 12q-2 2 -2 15q-2 48 -2 68t2.5 68t3.5 67v14q0 90 -1 228.5t-1 148.5v94q-2 36 2 111v22q1 25 1 70t1 81.5 t4 69.5v15v168v73q-7 27 -4 43q0 4 1 11t1 10q11 30 53 41q3 0 9.5 1t9.5 1q13 0 36 1t36 1h16q6 2 22 2q23 0 33 -2q15 0 19 -2h14l12 -4q15 -9 22 -28t7.5 -33.5t-1 -43t-1.5 -37.5v-18q4 -42 4 -189v-18q0 -11 1 -34.5t1 -35.5v-20q-3 -28 -6 -79.5t-6 -78.5v-80 q2 -6 2 -20q-1 -24 1.5 -94.5t-1.5 -94.5q0 -3 -1 -9t-1 -9q0 -9 -1 -27.5t-1 -27.5v-178h346q28 4 38 -14.5t5 -45.5v-18q0 -25 2 -35z" />
<glyph unicode="m" horiz-adv-x="1503" d="M1374 137v-14q0 -12 3.5 -41.5t2 -47.5t-11.5 -26l-14 -10q-3 -1 -10 -2.5t-14.5 -3t-14.5 -2.5h-12l-158 -6l-17 4q-19 3 -28 22q-4 12 -4 15q-4 16 0 79v19q0 57 -4 74v440q0 49 -2 74v14q-1 17 4 113q-13 -20 -38 -70t-44 -76q-6 -6 -8 -12q-6 -6 -9 -14l-6 -15 q-3 -9 -8 -14l-12 -29l-6 -12q-46 -52 -62 -98l-6 -15q-8 -19 -26 -49.5t-23 -40.5q-5 -5 -8 -14q-8 -20 -25 -33l-16 -8q-3 -3 -5.5 -4t-6 -1t-5.5 -1q-68 -17 -92 24q-7 12 -20.5 36.5t-20.5 35.5q-10 10 -12 14q-4 2 -8 15q-12 33 -60 102l-10 14q-46 95 -76 134l-8 12 q-14 21 -33.5 61.5t-29.5 57.5q5 -95 4 -113v-27q-2 -2 -2 -12q3 -70 0 -141v-348q-4 -32 -4 -50v-12q-9 -27 -4.5 -55t-2.5 -56t-32 -38q-3 0 -7.5 -1t-7.5 -1q-11 0 -49 5.5t-57 0.5h-21q-45 -3 -77 8l-15 10q-10 8 -11.5 26t2 47.5t3.5 41.5v14q0 100 -1 288.5t-1 203.5 v112l6 179v20q0 1 1 3t1 3v369q0 9 -1.5 26.5t-2 28t3 24.5t12.5 23q2 4 17 15l22 6q3 0 9.5 1t9.5 1q9 0 27 1t26 1h18q70 4 101 -10q5 -2 12 -9l8 -10l6 -10l9 -17l10 -16q14 -25 42.5 -70t33.5 -53l8 -16l12 -23l6 -10l19 -29q3 -9 8 -14l47 -100l6 -17q12 -36 29 -57 q1 -1 20 -33l9 -16q6 -12 20 -44.5t26 -54.5t27 -40q0 -3 4 -15q0 -3 1 -9t1 -9l7 18l8 17q16 26 41 77.5t41 77.5l4 6q1 3 2.5 5.5t3 5.5t2.5 4q3 7 11 19.5t11 19.5l13 22q3 3 5 8.5t5 8.5q19 52 55 104q8 9 11 16q22 24 53 84q6 7 10 17q14 27 43 75.5t39 67.5l8 10 q8 7 12 9q31 14 101 10h18q8 0 26 -1t27 -1q3 0 9.5 -1t9.5 -1q42 -11 53 -41q0 -3 1 -10t1 -11q3 -16 -4 -43v-387q0 -4 2 -6v-20l6 -179v-112q0 -15 -1 -203.5t-1 -288.5z" />
<glyph unicode="n" horiz-adv-x="1296" d="M1174 1327v-22q0 -20 -3 -41v-17q0 -32 0.5 -66t1.5 -56.5t1 -24.5v-180q-5 -77 -5 -82q0 -4 -1 -11t-1 -10q5 -11 1.5 -90t-3.5 -90v-440q-4 -28 -4 -39v-29q-1 -15 1 -40.5t1.5 -44.5t-6.5 -34q-12 -22 -37.5 -24t-61.5 3t-57 1h-45q-25 -4 -42 10t-33.5 44t-22.5 38 q-1 2 -10 16q-61 106 -82 138l-10 16l-15 24l-8 13q0 9 -10 26q-22 22 -48.5 69.5t-39.5 64.5l-10 14l-9 14q-8 14 -27 50.5t-34 61.5t-33 48q-3 9 -8 14l-6 15q-3 9 -8 14q-2 6 -8 12q-19 26 -44 76t-38 70q5 -95 4 -113v-14q-2 -25 -2 -74v-440q-4 -17 -4 -74v-19 q0 -6 1.5 -24.5t2 -26.5t-1.5 -20.5t-7 -22.5q-12 -22 -37 -24t-61 3t-57 1h-21q-45 -3 -77 8l-15 10q-10 8 -11.5 26t2 47.5t3.5 41.5v14q0 100 -1 288.5t-1 203.5v112l6 179v20q0 1 1 3t1 3v387q-7 27 -4 43q0 4 1 11t1 10q11 30 53 41q3 0 9.5 1t9.5 1q9 0 27 1t26 1h18 q70 4 101 -10q5 -2 12 -9l8 -10l6 -10q6 -21 18 -41.5t31 -46.5t27 -39q3 -9 8 -14l11 -15l8 -16l39 -64l10 -14q8 -8 12 -16q7 -13 8 -19q8 -17 25.5 -46t24.5 -42q9 -14 10 -16l31 -64l10 -16q15 -33 39 -64l12 -16q31 -36 76 -129l10 -16l8 -15l10 -14q35 -52 50 -86v149 q0 109 4 140v18q0 3 1 9.5t1 9.5q-6 53 -6 106q0 14 2 18q0 80 6 160v129q-7 27 -4 43q0 4 1 11t1 10q11 30 53 41q3 0 9 1t9 1q132 4 183 -4q5 -2 12 -9q7 -2 10 -12q18 -32 8 -72q3 -3 3 -16z" />
<glyph unicode="o" horiz-adv-x="1216" d="M1110 727v-22q5 -150 0 -201q-5 -69 -8 -84q-2 -8 -2 -27l-10 -63q0 -3 -1.5 -10.5t-1.5 -10.5t-1 -9t-1 -9q-56 -123 -94 -170l-14 -15q-36 -36 -72 -59l-16 -12q-14 -8 -30.5 -15.5t-28.5 -12t-33 -10.5t-30 -8t-34 -7.5t-31 -6.5h-30q-25 2 -86.5 2t-105 5t-83.5 20 l-26 10q-33 16 -47.5 23.5t-37.5 24t-38 34.5l-17 19q-28 36 -38 59q-28 55 -39 92q-22 63 -33 162q-6 33 -10 98v19q-5 147 -7 162v18q-3 81 5 151q0 3 1 9.5t1 9.5l4 55q0 3 1 9.5t1 9.5l4 39q11 98 33 161q11 40 39 93q10 23 38 59l17 18q15 18 38 34.5t37.5 24 t47.5 23.5l26 11q39 15 83.5 19.5t105 4.5t86.5 2h30q7 -1 36.5 -7.5t41.5 -9.5t35 -9.5t40.5 -14.5t33.5 -18l16 -13q36 -23 72 -59l14 -14q35 -43 47 -74q15 -25 21 -39q12 -19 19.5 -43.5t10.5 -42t7 -47t6 -43.5l4 -39v-14l4 -41q5 -51 0 -201zM815 586q0 3 -1 7t-1 7 q-1 19 2.5 54.5t3.5 50.5v18q0 21 -4 57v82q0 37 2 53l-4 23q0 37 -10 57q-12 80 -39 113q-4 6 -11 15t-8 10l-12 10l-12 8q-73 36 -180 25l-21 -7q-33 -8 -57 -36l-14 -15q-6 -8 -11 -18q-13 -22 -16 -29q-12 -39 -14 -67q0 -3 -1 -9.5t-1 -9.5q-7 -40 -7 -65 q-4 -62 -4 -82q0 -4 -1 -11t-1 -10q5 -11 1.5 -90t-3.5 -90q0 -4 1 -11.5t1 -11.5q0 -3 1 -9.5t1 -10.5q0 -20 4 -82q0 -26 7 -66q0 -3 1 -9t1 -9q2 -29 14 -68q2 -4 16 -28q6 -13 11 -19l14 -14q26 -29 57 -37l21 -6q107 -11 180 25l12 8l12 10q1 1 8 10t11 15 q28 34 39 112q10 20 10 58l4 22q-2 6 -2 27v43z" />
<glyph unicode="p" horiz-adv-x="1198" d="M1092 1081q2 -36 2.5 -44.5t-2 -43.5t-2.5 -45l-5 -18q-8 -66 -38 -127l-11 -19q-23 -45 -61 -75l-17 -15q-12 -12 -49 -35q-4 -3 -18 -10l-37 -24q-8 -3 -14 -9l-15 -8q-32 -14 -96 -21.5t-82 -11.5h-20q-95 -4 -156 3h-14q-31 0 -47 2q3 -25 0 -50v-16q4 -78 4 -115 q0 -16 -2 -20q-1 -8 -1 -24.5t-1 -24.5q0 -15 -2 -17v-20q0 -19 -1 -57t-1 -58v-16q0 -7 4 -57.5t-2 -57.5l-5 -16q-9 -27 -38 -33q-3 0 -8.5 -1t-8.5 -1q-27 3 -57 0q-15 0 -19 -2q-9 0 -34.5 -2t-40.5 -2t-34 6.5t-30 21.5l-6 17q-4 10 -1.5 39t1.5 37v20q0 16 1.5 68 t0.5 80v18v92v21q3 46 0 96q0 3 1 9t1 9v107q-2 4 -2 20q3 106 -6 209q2 4 2 14q0 3 1 7.5t1 7.5v16q0 3 1 10.5t1 10.5q0 16 2 22q-3 8 -4 18t-1 22t-1 18v20q-1 18 1.5 67.5t-1.5 67.5v21q-1 17 4 104v43q-3 40 12 74l9 16l14 13q25 8 50 10t63.5 0t50.5 -2h20h98h21 q75 9 149 0q3 0 8.5 -1t8.5 -1q14 1 29 -0.5t24.5 -3t27 -5t25.5 -4.5q3 0 10.5 -1t10.5 -1q29 -1 62.5 -12t53.5 -21.5t58 -31.5l20 -10l19 -15l16 -14l31 -37l12 -16q14 -22 23 -48.5t17.5 -61.5t14.5 -52q0 -3 5 -23zM795 950l4 17q3 26 -2 45q0 3 -1 7t-1 7v6l-4 19 q-6 14 -21 39q-6 12 -12 18q-26 50 -140 63q-4 -2 -18 -2q-19 0 -51 1.5t-57 1.5t-48 -3h-14q-10 -2 -16 -8q-4 -7 -4.5 -17.5t1 -25.5t1.5 -22v-21q0 -11 1.5 -44t0.5 -52h-2q2 -4 2 -18q0 -3 -1 -8.5t-1 -8.5v-2h-2v-16q-2 -4 -2 -19q0 -16 2 -20v-37h47q12 0 32 -1t31 -1 h23q127 -4 178 10l18 8q32 16 41 43q2 3 8 19z" />
<glyph unicode="q" horiz-adv-x="1216" d="M819 705v18q0 21 -4 57v82q0 37 2 53l-4 23q0 37 -10 57q-12 80 -39 113q-4 6 -11 15t-8 10l-12 10l-12 8q-73 36 -180 25l-21 -7q-33 -8 -57 -36l-14 -15q-6 -8 -11 -18q-13 -22 -16 -29q-12 -39 -14 -67q0 -3 -1 -9.5t-1 -9.5q-7 -40 -7 -65q-4 -62 -4 -82q0 -4 -1 -11 t-1 -10q5 -11 1.5 -90t-3.5 -90q0 -4 1 -11.5t1 -11.5q0 -3 1 -9.5t1 -10.5q0 -20 4 -82q0 -26 7 -66q0 -3 1 -9t1 -9q2 -29 14 -68q2 -4 16 -28q6 -13 11 -19l14 -14q26 -29 57 -37l21 -6q107 -11 180 25l12 8l12 10q1 1 8 10t11 15q28 34 39 112q10 20 10 58l4 22 q-2 6 -2 27v43q0 3 -1 7t-1 7q-1 19 2.5 54.5t3.5 50.5zM1110 727v-22q5 -150 0 -201q-5 -69 -8 -84q-2 -8 -2 -27l-10 -63q0 -3 -1.5 -10.5t-1.5 -10.5t-1 -9t-1 -9q-56 -123 -94 -170l-14 -15q-36 -36 -72 -59l-16 -12q-15 -9 -30 -16t-35 -13t-31 -9t-37 -9t-33 -8 q3 -31 12 -58q3 -13 8 -18q12 -28 43 -43q16 -4 23 -4h16q4 -2 17 -2q3 0 6 -1t6 -1h18q9 1 25.5 -5.5t22.5 -7.5l10 -6l10 -14l6 -17q19 -122 -47 -159q-12 -4 -16 -4q-96 -10 -170 0q-17 3 -35 10l-23 10l-14 8q-74 43 -98 105l-6 18l-11 43q-6 44 -6 86q0 15 -2 19l-4 41 q-65 3 -117 22l-26 10q-33 16 -47.5 23.5t-37.5 24t-38 34.5l-17 19q-28 36 -38 59q-28 55 -39 92q-22 63 -33 162q-6 33 -10 98v19q-5 147 -7 162v18q-3 81 5 151q0 3 1 9.5t1 9.5l4 55q0 3 1 9.5t1 9.5l4 39q11 98 33 161q11 40 39 93q10 23 38 59l17 18q15 18 38 34.5 t37.5 24t47.5 23.5l26 11q39 15 83.5 19.5t105 4.5t86.5 2h30q7 -1 36.5 -7.5t41.5 -9.5t35 -9.5t40.5 -14.5t33.5 -18l16 -13q36 -23 72 -59l14 -14q35 -43 47 -74q15 -25 21 -39q12 -19 19.5 -43.5t10.5 -42t7 -47t6 -43.5l4 -39v-14l4 -41q5 -51 0 -201z" />
<glyph unicode="r" horiz-adv-x="1193" d="M1130 141q3 -6 3 -16q0 -18 -3 -33q0 -1 -0.5 -3.5l-1.5 -7.5t-2 -9q-14 -43 -47 -62l-20 -8q-2 -1 -5 -2l-4.5 -1.5t-2.5 -0.5l-13 -4q-13 -3 -82 -8h-20q-91 3 -152 53l-14 10q-12 9 -21 21l-10 8q-54 57 -94 135q-7 14 -8 18q-7 13 -8 19l-17 33l-6 18l-37 86 q-1 2 -4 9t-4 12q-1 2 -4 8.5t-4 11.5q-5 5 -8 16q-35 77 -58 115l-6 16q-1 0 -3 1.5t-3 1.5h-14q-31 0 -47 2q3 -25 0 -50v-16q4 -78 4 -115q0 -16 -2 -20q-1 -8 -1 -24.5t-1 -24.5q0 -15 -2 -17v-20q0 -19 -1 -57t-1 -58v-16q0 -7 4 -57.5t-2 -57.5l-5 -16q-9 -27 -38 -33 q-3 0 -8.5 -1t-8.5 -1q-27 3 -57 0q-15 0 -19 -2q-9 0 -34.5 -2t-40.5 -2t-34 6.5t-30 21.5l-6 17q-4 10 -1.5 39t1.5 37v20q0 16 1.5 68t0.5 80v18v92v21q3 46 0 96q0 3 1 9t1 9v107q-2 4 -2 20q3 106 -6 209q2 4 2 14q0 3 1 7.5t1 7.5v16q0 3 1 10.5t1 10.5q0 16 2 22 q-3 8 -4 18t-1 22t-1 18v20q-1 18 1.5 67.5t-1.5 67.5v21q-1 17 4 104v43q-3 40 12 74l9 16l14 13q25 8 50 10t63.5 0t50.5 -2h20h98h21q75 9 149 0q3 0 8.5 -1t8.5 -1q14 1 29 -0.5t24.5 -3t27 -5t25.5 -4.5q3 0 10.5 -1t10.5 -1q29 -1 62.5 -12t53.5 -21.5t58 -31.5 l20 -10l19 -15l16 -14l31 -37l12 -16q14 -22 23 -48.5t17.5 -61.5t14.5 -52q0 -3 5 -23q2 -36 2.5 -44.5t-2 -43.5t-2.5 -45l-5 -18q-8 -66 -38 -127l-11 -19q-23 -45 -61 -75l-17 -15q-12 -12 -49 -35q-4 -3 -18 -10l-37 -24q-8 -3 -14 -9l-15 -8q-9 -4 -63 -18 q49 -120 90 -189q1 -4 8 -18q17 -39 31 -55q4 -13 10 -17l12 -16l13 -14l16 -13q7 -7 16 -10q27 -11 56 -14q3 0 8 -1t8 -1q8 -2 24 -2.5t27.5 -3.5t18.5 -11l8 -8q22 -36 22 -76zM520 848h23q127 -4 178 10l18 8q32 16 41 43q2 3 8 19l7 22l4 17q3 26 -2 45q0 3 -1 7t-1 7 v6l-4 19q-6 14 -21 39q-6 12 -12 18q-26 50 -140 63q-4 -2 -18 -2q-19 0 -51 1.5t-57 1.5t-48 -3h-14q-10 -2 -16 -8q-4 -7 -4.5 -17.5t1 -25.5t1.5 -22v-21q0 -11 1.5 -44t0.5 -52h-2q2 -4 2 -18q0 -3 -1 -8.5t-1 -8.5v-2h-2v-16q-2 -4 -2 -19q0 -16 2 -20v-37h47 q12 0 32 -1t31 -1z" />
<glyph unicode="s" horiz-adv-x="1200" d="M434 1100q-4 -4 -8 -15q-18 -29 -16.5 -66t24.5 -61l15 -16q49 -44 135 -72l16 -4q35 -17 104.5 -40t94.5 -33l18 -9q91 -34 125 -61l19 -16l32 -37l11 -13q65 -74 71 -174q2 -6 2 -20q8 -27 8 -66q0 -4 -1 -11t-1 -11q-17 -101 -53 -174l-6 -15l-8 -14q-9 -20 -39 -59 l-16 -19q-15 -18 -38 -34.5t-37.5 -24t-47.5 -23.5l-27 -10q-40 -15 -83.5 -20t-104.5 -5t-86 -2h-31q-6 1 -31 6.5t-34 7.5t-30 8t-33 10.5t-28.5 12t-30.5 15.5l-16 12q-36 23 -72 59l-14 15q-24 30 -43 65q-3 3 -5 8.5t-5 8.5l-8 16l-6 17q-23 43 -39 147q-2 2 -2 8v15 q-18 80 28 96q12 6 21 6q18 3 54 3t52 3q4 -2 19 -2q42 0 73 -8q5 -1 12 -4t9 -4l12 -13l8 -14q9 -15 9 -39q0 -3 1 -7t1 -7l4 -21q10 -43 32 -71q4 -6 11 -15t8 -10l12 -10l12 -8q73 -36 181 -25l20 6q12 2 31 14l14 11q55 46 58 127v20l-5 17l-6 18q-6 6 -8 12 q-17 21 -27 27q-7 7 -16 10q-89 53 -178 76l-21 6q-19 8 -60 23.5t-72.5 29.5t-57.5 31l-14 6l-13 6q-60 38 -108 92l-15 15q-14 14 -26 35q-3 4 -10 18q-14 27 -20 55t-8 76t-3 57q0 4 1 11t1 10q3 49 25 102l10 33q10 30 28 60q9 20 39 59l17 18q15 18 38 34.5t37.5 24 t47.5 23.5l26 11q39 15 83.5 19.5t105 4.5t86.5 2h30q7 -1 36.5 -7.5t41.5 -9.5t35 -9.5t40.5 -14.5t33.5 -18l16 -13q36 -23 72 -59l14 -14q35 -43 47 -74q15 -25 21 -39q17 -29 28 -84l4 -16l9 -64q2 -4 2 -20q-1 -31 -24.5 -50.5t-55.5 -19.5q-4 2 -19 2q-14 2 -79 2 t-97 10q-14 14 -20 35q-6 13 -10 43l-5 19q-10 30 -28 53q-4 6 -11 15t-8 10l-12 10l-12 8q-73 36 -180 25l-21 -7q-33 -8 -57 -36l-15 -15q-3 -4 -10 -18z" />
<glyph unicode="t" horiz-adv-x="1040" d="M975 1292q0 -7 3.5 -45t-1.5 -45q0 -2 -4 -14q-17 -48 -86 -37h-17q-14 2 -43 2h-79q-2 -2 -15 -2q-38 0 -63 2q1 -6 -0.5 -16t-1.5 -13v-12q0 -79 1 -188.5t1 -118.5v-94q2 -36 -2 -111v-22q-1 -25 -1 -70t-1 -82t-4 -70v-14v-168v-74q7 -27 4 -43q0 -4 -1 -10.5 t-1 -9.5q-11 -30 -54 -41q-3 0 -9 -1t-9 -1q-12 0 -36 -1t-36 -1h-16q-6 -2 -23 -2q-22 0 -32 2q-15 0 -19 2h-14l-13 4q-15 9 -22 27.5t-7.5 33.5t1.5 42.5t2 37.5v19q-4 42 -4 188v35q-3 20 3 56.5t7 45.5v21q-3 24 -3 52.5t1.5 63t1.5 52.5v20q-2 6 -2 21q3 25 0 49v158 q-4 77 4 131v22q0 59 -6 78h-6q-11 0 -15 2h-34q-17 0 -21 -2q-82 0 -133 2h-14q-7 0 -21.5 -1t-21.5 -1h-15l-16 8q-2 2 -10 19l-6 18q-4 18 -3 88t0 88q-3 10 0 17q3 37 27 47q15 6 37 0q37 5 143 0h41q25 0 39 2h17q53 0 84 2h49q6 -2 24 -2q30 3 64 0h22q18 -3 39 -3 t46.5 1.5t39.5 1.5h80q15 -1 45.5 2t54 1.5t41.5 -11.5q17 -11 20.5 -30t1 -47t-0.5 -42q-2 -4 -2 -19z" />
<glyph unicode="u" d="M1122 705q5 -150 0 -201q-5 -69 -8 -84q-2 -8 -2 -27l-10 -63q0 -3 -1 -10.5t-1 -10.5t-1 -9t-1 -9q-56 -123 -94 -170l-15 -15q-38 -38 -71 -59l-17 -12q-14 -8 -30.5 -15.5t-28 -12t-33 -10.5t-29.5 -8t-34 -7.5t-31 -6.5h-31q-25 2 -86 2t-104.5 5t-83.5 20l-27 10 q-33 16 -47.5 23.5t-37.5 24t-38 34.5l-16 19q-30 39 -39 59q-28 55 -39 92q-22 63 -33 162q-9 75 -12 152l-6 204q0 16 -1 50t-1 51v24q-1 15 -1 31.5t0.5 36t0.5 29.5v20q0 18 -1.5 76.5t-0.5 89.5q-2 6 -2 22l4 17q-2 6 -2 31q0 16 -2 22q1 12 -1.5 50t1.5 50l4 17 q8 23 27 33t40.5 9t45.5 -1t42 4h99q10 0 18 -8q11 -11 16 -66v-24q-4 -42 -3.5 -57t3 -97t2.5 -164q0 -7 -2.5 -49.5t-2 -50.5t2.5 -51v-21q3 -30 -1.5 -99.5t1.5 -99.5q0 -16 2 -20q0 -4 1.5 -11.5t1.5 -11.5v-20q0 -20 4 -82q0 -35 8 -66v-18q4 -37 16 -68l4.5 -9 t6.5 -10.5t6 -8.5q9 -17 10 -19l14 -14q26 -29 57 -37l21 -6q107 -11 180 25l12 8l13 10q15 20 18 25q45 53 49 170l4 22v53v17q-1 37 3.5 100t5.5 80v22q-1 31 -8 98t-7 103v10q0 15 -1 42t-1 42q-2 6 -2 29q0 5 1 15.5t1 15.5v33q3 33 -3 104t-1 109q6 44 43 53q3 3 6.5 4 t9.5 1t9 1q50 4 88 4h22q10 -1 34.5 -2t39 -3t29.5 -11.5t18 -28.5q6 -27 6.5 -55t-3 -68t-3.5 -55q0 -13 -2 -15v-71q0 -40 2 -58q2 -6 2 -30q2 -55 2 -158q0 -19 -2 -33v-57q4 -70 4 -102z" />
<glyph unicode="v" horiz-adv-x="1296" d="M1186 1444l16 -4q29 -9 32 -43t-11 -58l-6 -18q-5 -15 -5 -16q-3 -5 -5 -14.5t-5 -14.5q-5 -18 -15 -47.5t-11 -32.5l-7 -22q-19 -36 -28 -84l-4 -19q-9 -36 -31 -92l-6 -18q-20 -62 -27 -89l-4 -18q-5 -23 -22 -80l-7 -20q-16 -35 -34 -95l-13 -36q-1 -5 -4 -12t-4 -9 l-12 -37q-3 -11 -6.5 -22.5t-8.5 -25.5t-8 -23l-6 -19q-3 -10 -6.5 -20.5t-7.5 -21.5t-6 -17l-4.5 -9t-4.5 -12q-13 -33 -35 -98t-34 -98l-6 -19l-31 -80q-3 -5 -6 -16.5t-6 -17.5q-10 -23 -21 -37q-14 -21 -26 -33q-16 -4 -21 -4q-4 -2 -18 -2h-19q-17 -1 -112 4 q-14 2 -39 2q-45 10 -64 76l-6 16q-3 23 -10 39l-6 18q-5 16 -13.5 48.5t-17 58t-18.5 47.5l-9 18q-18 58 -28 101l-7 18q-3 10 -8.5 32t-10.5 38t-11 31l-6 20l-25 61l-6 19q-7 31 -25 80l-6 20q-13 40 -18 58q-2 2 -8 20q-7 19 -18.5 54.5t-18.5 54.5q-4 16 -4 18 q-23 77 -31 94l-6 21l-31 104l-6 17q-14 44 -21 73q-17 40 -22 72l-12 29q0 2 -1 4.5t-2 6.5t-2 7q-5 37 7 53q8 8 14 11l27 6q3 0 7 1t7 1q101 10 182 -4q6 -2 19 -8q17 -7 28 -29q1 -2 4 -9t4 -12l7 -20q0 -3 4 -19q0 -2 4 -18q13 -27 25.5 -79.5t19.5 -72.5l6 -20l27 -78 l8 -22q0 -3 4 -19l6 -18q2 -2 6 -17q6 -9 6 -20q3 -6 7 -17t6 -16l4 -16q0 -3 1 -10.5t1 -10.5q8 -32 26.5 -90t24.5 -80q4 -16 4 -18q6 -29 19 -51l6 -19q23 -73 24 -76q4 -12 4 -14q4 -16 4 -20q1 -3 2 -7t2 -6.5t1 -3.5l16 -73q4 27 8 34l6 19q10 25 28.5 81t31.5 85 l4 16q26 56 55 158l6 22q3 7 6 20.5t6 20.5l5 15q12 31 28.5 93t28.5 93l4 18q24 89 55 162l6 19q3 8 7.5 26.5t7.5 26.5l6 18q18 40 47 56q12 4 16 4q36 4 58 4h18q12 1 38.5 3.5t37 2.5t35.5 -2z" />
<glyph unicode="w" horiz-adv-x="1871" d="M1673 1438q12 -2 39.5 -0.5t45.5 1.5t34 -10.5t18 -33.5v-19q0 -2 -4 -18q-33 -100 -49 -164l-4 -12l-6 -27l-6 -18q-7 -41 -25 -99l-6 -20l-24 -98l-5 -21l-4 -14l-4 -21q-4 -16 -4 -18q-1 -6 -8 -19q-13 -30 -24.5 -92t-22.5 -90l-4 -18l-13 -41q-3 -11 -17.5 -57.5 t-23.5 -71.5v-11q-3 -8 -7 -26.5t-7 -26.5l-6 -18q0 -3 -4 -19l-6 -18q-5 -24 -16.5 -68.5t-14.5 -54.5l-6 -18q-13 -82 -31 -129l-10 -19q-7 -14 -10 -18q-23 -23 -57.5 -31t-66 -5t-67.5 -1q-3 0 -10 1t-10 1q-27 4 -37 10l-16 12q-27 20 -35 58l-6 16q-5 20 -5 21 l-43 139q0 3 -1 9t-1 9q-7 30 -23.5 90t-23.5 89l-6 16l-12 51l-6 21l-4 16l-4 16l-19 62l-18 74q0 2 -4 18q-6 25 -29 96q-13 -30 -24.5 -90.5t-18.5 -83.5l-4 -18l-13 -41q-5 -14 -18 -59t-22 -70v-11q-3 -8 -7.5 -26.5t-7.5 -26.5l-6 -18q0 -3 -4 -19l-6 -18 q-5 -24 -16.5 -68.5t-14.5 -54.5l-6 -18q-13 -82 -31 -129l-10 -19q-7 -14 -10 -18q-23 -23 -57.5 -31t-66 -5t-67.5 -1q-3 0 -10 1t-10 1q-27 4 -37 10l-16 12q-27 20 -35 58l-6 16q-4 16 -4 21l-44 139q0 3 -1 9t-1 9q-7 29 -23.5 89.5t-23.5 89.5l-6 16l-12 51l-6 21 l-4 16l-4 16l-19 62l-18 74q0 2 -4 18q-7 33 -25 91t-25 85l-4 21l-34 149l-7 23l-16 57l-6 18q-3 13 -8 36t-10 41.5t-11 35.5l-4 12q-1 3 -2 6.5t-1.5 5.5t-0.5 3l-6 18q-27 60 -10 94q6 10 16.5 14.5t26.5 5.5t22 3h17q20 1 108 -4q17 0 21 -2q69 -11 81 -68l7 -16l4 -19 l6 -22q16 -55 33 -133q0 -1 4 -21q7 -34 25.5 -99.5t25.5 -99.5l6 -20q3 -19 12 -41l7 -18q0 -5 4 -21l6 -20q4 -16 4 -19q11 -36 20 -84q7 -16 11 -41l6 -18q4 -16 4 -19q3 -13 6.5 -36t7.5 -42t10 -36q8 29 20.5 86t20.5 86l25 73q12 44 18 89l7 18l4 14q15 55 24 111 q4 16 4 18q24 79 29 101q4 16 4 18q12 52 37 125l6 21l6 18q18 108 74 119q6 2 24 2q8 0 65 -3t65 1l18 -4q53 -14 61 -66l7 -20q3 -7 5 -18.5t5 -18.5l6 -19l6 -20l23 -96q0 -1 4 -21q7 -34 25.5 -99.5t25.5 -99.5l6 -20q3 -19 12 -41l6 -18q0 -1 5 -21l6 -20q4 -16 4 -19 q11 -36 20 -84q7 -16 11 -41l6 -18q4 -16 4 -19q3 -13 6.5 -36t7.5 -42t10 -36q8 28 20.5 86t20.5 86l25 73q12 44 18 89l6 18l5 14q15 55 24 111q4 16 4 18q24 79 29 101q4 16 4 18q8 34 27 95.5t22 70.5l6 20q9 27 16 43.5t23.5 32.5t38.5 19h19q18 2 55 2q12 0 16 -2z " />
<glyph unicode="x" horiz-adv-x="1134" d="M1069 47q4 -16 4 -18q-3 -19 -17.5 -26.5t-43 -8.5t-33.5 -2q-3 0 -9 -1t-9 -1q-70 0 -127 8q-17 0 -21 2q-16 3 -29 12t-24 23.5t-18 27.5t-17.5 33t-15.5 29l-7 12l-8 15q-17 22 -28 59q-4 4 -9 20q-11 32 -42 90.5t-42 90.5l-6 14l-4 16q-13 -35 -43 -92 q-7 -14 -8 -18l-10 -19q-43 -104 -47 -116l-56 -111l-6 -10q-13 -23 -39 -49l-16 -13q-8 -8 -19 -12q-2 -1 -5.5 -2.5t-6.5 -2.5t-6 -1q-12 -4 -22 -4q-14 0 -30 -1t-36 -2.5t-31 -2.5h-20q-29 0 -53 6q-2 1 -5.5 1t-6 1t-5.5 4q-17 4 -24.5 16t-5 28t7.5 30t12 26l8 17 q5 8 14 23t16 27t11 23l12 23l39 78q14 28 45.5 80.5t44.5 79.5l19 36q23 37 52.5 106.5t37.5 84.5q3 9 8 14l14 31l-6 12q-14 23 -26 48.5t-27 60.5t-22 51q-2 3 -7 16q-5 5 -10 19q-2 2 -2 8q1 1 -123 238q-1 3 -4 7t-4 7q-13 30 -48.5 89t-49.5 93l-4 12q-4 25 6 37 q12 12 18 15q9 6 21 6q19 1 59.5 4t60.5 3.5t60 -1.5h18q48 -12 66 -39l10 -14q18 -36 21 -45l8 -15q6 -10 17.5 -33t19.5 -36l10 -21q13 -32 43.5 -90t36.5 -70q0 -2 4 -14l14 -29q10 18 24.5 53t20.5 48l6 12q8 18 19 33l6 14l18 33q5 11 18.5 35.5t20.5 40.5l6 12 q6 9 23 42t33.5 51t40.5 22q16 4 22 4q25 -3 75 -2t75 -2q3 0 10 -1t10 -1h15q25 0 32 -7q28 -28 0 -79l-8 -19l-20 -32t-21 -37l-6 -13q-7 -16 -20 -39l-7 -14q-41 -91 -110 -213q-3 -9 -8 -14q-8 -13 -11 -23l-8 -16q-5 -16 -8 -19q-5 -15 -6 -16l-10 -21l-9 -20 q-26 -66 -57 -119l-6 -12v-2q0 -2 2 -4l10 -19q25 -77 76 -151l8 -17l27 -57l8 -18q5 -16 29 -58q7 -14 10 -18q19 -40 90 -166l18 -37l5 -6l6 -12l6 -19q4 -12 10 -18l8 -19q2 -4 15 -23.5t18 -29.5z" />
<glyph unicode="y" horiz-adv-x="1220" d="M1114 1196q5 -150 0 -201q-5 -69 -8 -84q-2 -8 -2 -26v-2q0 -1 -1 -4.5t-1 -4.5q0 -2 -4 -22q0 -14 -2 -18q0 -5 -4 -21q-5 -24 -27 -74l-8 -18q-25 -54 -51 -90l-13 -17q-62 -80 -155 -114l-19 -6q-35 -15 -80 -21v-313q-2 -21 -1.5 -48.5t2 -52t-11 -43.5t-40.5 -22 q-3 0 -9 -1t-9 -1q-132 -4 -183 4q-6 2 -12 8q-7 2 -10 12q-18 32 -8 72q-2 2 -2 16v23q0 27 2 41v16q0 32 -0.5 64.5t-1 53t-0.5 22.5v153q-7 2 -26 8t-28 9l-26 10q-33 16 -47.5 23.5t-37.5 24t-38 34.5l-16 18q-29 38 -39 60q-28 55 -39 92q-22 63 -33 162q-9 76 -12 151 l-7 166v18v76q0 3 -1 7t-1 7v5q0 20 1 31t8 25.5t22 20.5q2 2 15 2q20 5 22 5q3 0 10.5 1t10.5 1t9 1t9 1q37 8 86 5t80 -26q7 -7 8 -10l6 -16q0 -3 1 -10t1 -11q4 -12 1.5 -50t-1.5 -50q0 -3 -1 -10t-1 -11q-4 -65 2 -98q0 -17 2 -21q0 -4 1 -11t1 -11v-21q0 -19 4 -81 q0 -32 9 -66v-18q4 -37 16 -68q3 -7 16 -29q5 -10 11 -18l14 -14q26 -29 57 -37l21 -6q109 -11 180 24l12 8l13 11q2 2 4.5 5.5t4.5 6t4.5 6t4.5 6.5q45 53 49 170l4 23v53v16q-1 21 4 127q2 4 2 19q2 14 2 39v18q0 9 -2 39.5t-1.5 47t9 38t27.5 33.5q3 0 9.5 1t9.5 1 q4 2 18 2h21q21 -3 44 -3.5t55 0.5t44 1l18 -6l19 -13q23 -16 10 -71v-52q4 -70 4 -102z" />
<glyph unicode="z" horiz-adv-x="1103" d="M1024 250l4 -21q-2 -18 -0.5 -96t-9.5 -98l-4 -12l-10 -15q-10 -10 -33 -10h-17q0 -2 -101 -1l-101 1q-15 0 -21 -2h-18q-74 -4 -99 0q-4 0 -11 -1t-11 -1q-62 0 -123 6h-20q-92 -4 -123 0q-13 0 -17 -2h-35q-23 2 -81 -2q-2 -2 -17 -2q-7 1 -27 1t-36.5 1.5t-28.5 5.5 q-8 3 -12 10q-9 6 -9 17q-2 4 -2 18q3 29 31 79.5t35 72.5q0 4 4 8q2 2 2 4l39 78q8 17 18 34.5t24.5 40.5t21.5 35l10 17q1 4 8 18l8 19l90 182q7 14 8 18q12 21 33 74q1 5 4 12t4 9q14 30 42 87.5t42 86.5l11 18q17 33 49 88q1 3 4 7t4 7q15 24 33 70l12 29l6 12 q-61 0 -187 1t-173 1h-15q-12 0 -43 -3.5t-50 -2t-27 11.5l-11 15q-4 16 -4 18q-4 16 -4 20q-4 11 -1 84t3 84q0 3 1 9.5t1 9.5q3 11 8 16q8 9 21 13.5t22.5 5t27.5 -0.5t24 -1h20q18 0 61.5 4t61.5 0h455q3 0 8 1t8 1q6 -2 29 -2h6q20 -1 58 -1t57 -1q3 0 10 -1t10 -1h14 q26 0 33 -7q28 -28 0 -79l-8 -19l-20 -32t-21 -37l-6 -13q-4 -9 -21 -39l-6 -14q-41 -91 -110 -213q-2 -7 -9 -14q-5 -9 -10 -23l-8 -16q-5 -16 -8 -19l-27 -53l-8 -18q-3 -3 -5 -8.5t-5 -8.5q-1 -4 -8 -18q-16 -26 -31 -56.5t-33.5 -70.5t-28.5 -60q-3 -3 -5 -8t-5 -8 l-14 -25q-2 -6 -8 -12q-9 -17 -24.5 -48t-28.5 -56t-27 -47l-17 -37l-37 -74q-3 -3 -5 -8t-5 -8h312q14 0 20 -2q28 -3 86.5 0t87.5 0l16 -7q20 -10 23 -26z" />
<glyph unicode="{" horiz-adv-x="821" d="M784 -190q11 -11 13 -15q28 -100 -4 -166q-5 -7 -15 -14l-16 -12l-19 -9q-84 -11 -170 -2h-20q-100 8 -197 91l-14 16l-25 31q-6 4 -10 16q-2 6 -8 12q-31 99 -39 176v201q0 23 -2 67t-2 68v62q5 130 0 174v18q-3 31 -12 54l-6 16q-20 23 -52 37l-20 6q-70 9 -93 25 q-25 17 -28 49l-4 18q0 36 2 59q0 1 4 21q10 39 43 47q6 1 27 4t29 4.5t22 6t25 10.5l12 10q18 12 33 33q3 3 6 16q11 29 12 91.5t2 72.5q0 71 1 116t1 126v139q-2 56 16 135l7 20q11 34 24 52q3 9 10 16l25 31l14 16q96 82 197 90h20q47 7 109 4q3 0 9 -1t9 -1 q39 5 71 -18.5t36 -63.5q0 -4 1 -11t1 -11q4 -50 -8 -82q-3 -11 -8 -16q-16 -25 -43 -31q-3 0 -15 -4q-44 -7 -67 -4q-3 0 -9.5 -1t-9.5 -1q-16 0 -37 -9l-22 -10l-15 -12l-10 -12q-12 -23 -16 -57.5t-2.5 -63.5t-1.5 -60v-77q-3 -27 -3.5 -55t0.5 -67t1 -55v-165 q0 -3 -1 -7.5t-1 -7.5q0 -12 -2 -14q0 -13 -2 -17q-6 -58 -39 -96q-3 -3 -6.5 -8t-6.5 -8q-24 -24 -43 -35q-3 -3 -8 -5t-8 -5q-18 -11 -33 -13q4 -2 20.5 -7.5t24.5 -10.5q3 -1 6.5 -4t6.5 -4l16 -17q37 -35 53 -81.5t23 -112.5v-51q0 -16 1 -63t1 -72v-23 q-1 -15 1.5 -58.5t-1.5 -58.5v-125q3 -31 1.5 -59.5t2.5 -63t16 -57.5l10 -12l15 -12l22 -11q12 -6 25 -6q11 -3 24 -4t28.5 -1t23.5 -1h18q33 -6 53 -20z" />
<glyph unicode="|" horiz-adv-x="436" d="M326 -12q-4 -28 -4 -39v-19q-2 -18 1.5 -69t-6.5 -60q-12 -22 -27 -24.5t-41 3t-46 1.5h-21q-23 -2 -53 8q-3 3 -7 5t-7 5q-10 8 -11.5 26t2 47.5t3.5 41.5v14q0 100 -1.5 392t-1.5 309v94q-1 15 5 178q0 3 1 9.5t1 9.5v20q0 6 2 8v559q-7 27 -4 43q0 4 1 11t1 10 q7 19 18.5 27.5t30.5 13.5q3 0 9 1t9 1q17 0 35 0.5t26.5 1t23.5 -0.5t36 -5q6 -2 12 -8q7 -2 11 -13q17 -31 8 -71q2 -2 2 -17v-22q0 -27 -2 -41v-17q0 -32 0.5 -66t1 -56.5t0.5 -24.5v-354q-4 -62 -4 -82q0 -4 -1 -11t-1 -10q4 -11 1 -90t-3 -90v-649z" />
<glyph unicode="}" horiz-adv-x="821" d="M37 -190q20 14 53 20h19q8 1 23.5 1t28 1t23.5 4q13 0 25 6l22 11l15 12l10 12q12 23 16 57.5t2.5 63t1.5 59.5v125q-4 15 -1.5 58.5t1.5 58.5v23q0 25 1.5 72t1.5 63v51q7 67 22.5 113.5t52.5 80.5l17 17q3 1 6 4t6 4q8 5 24.5 10.5t20.5 7.5q-15 2 -33 13q-3 3 -8 5 t-8 5q-19 11 -43 35q-3 3 -6 8t-6 8q-33 38 -39 96q-2 4 -2 17q-2 2 -2 14q0 3 -1 7.5t-1 7.5v165q0 148 -3 177v77q-3 31 -1.5 60t-2.5 63.5t-16 57.5l-10 12l-15 12l-22 10q-21 9 -37 9q-3 0 -9 1t-9 1q-23 -3 -68 4q-12 4 -14 4q-27 6 -43 31q-7 7 -9 16q-12 32 -8 82 q0 4 1 11t1 11q4 40 36 63.5t71 18.5q3 0 9 1t9 1q62 3 109 -4h20q101 -8 197 -90l14 -16l25 -31q9 -14 10 -16q14 -20 25 -52l6 -20q18 -79 16 -135v-139q0 -81 1 -126t1 -116q1 -9 2.5 -72t12.5 -92q3 -13 6 -16q16 -22 32 -33l13 -10q11 -6 25 -10.5t21.5 -6t29 -4.5 t26.5 -4q33 -8 43 -47q4 -20 4 -21q2 -23 2 -59l-4 -18q-1 -15 -6.5 -26.5t-17.5 -19.5t-19 -12.5t-27 -8t-24.5 -4t-26.5 -3.5l-20 -6q-30 -14 -51 -37l-6 -16q-10 -27 -13 -54v-18q-5 -44 0 -174v-62q0 -24 -2 -68t-2 -67v-201q-8 -77 -39 -176q-6 -6 -8 -12 q-3 -9 -10 -16l-25 -31l-14 -16q-97 -83 -197 -91h-20q-86 -9 -170 2l-19 9l-16 12q-8 6 -14 14q-32 66 -4 166q3 6 12 15z" />
<glyph unicode="~" horiz-adv-x="1265" d="M1182 588q0 -17 2 -21q-3 -11 -4 -30t-4 -31q0 -3 -1 -9.5t-1 -9.5q-17 -60 -56 -118l-14 -13q-43 -48 -129 -92q-15 -4 -19 -2l-16 -4q-119 -14 -192 4l-23 6q-7 3 -21.5 7.5t-21.5 7.5l-18 8q-3 3 -7.5 5t-7.5 5l-16 12q-3 3 -7.5 5.5t-7.5 5.5l-14 14l-12 14l-14 15 q-4 6 -8.5 11t-11 10.5t-9.5 8.5q-11 11 -14 17q-12 11 -36.5 50t-48.5 55.5t-57 0.5q-8 -6 -14 -14q-6 -6 -10 -14q-4 -16 -0.5 -32.5t11 -35.5t9.5 -29q2 -4 2 -20q10 -24 -3 -47.5t-38 -34.5q-3 -3 -8 -5t-8 -5q-1 0 -17 -4q-7 -2 -31 -9.5t-36.5 -11t-34.5 -6t-35 1.5 t-26.5 15.5t-20.5 31.5q-8 8 -10 14l-19 50l-6 18q-27 83 -6 168v14q2 17 12 39q3 9 25 53q9 9 12 19q77 99 209 129q16 4 23 4q4 1 11 1t11 1h19q14 0 20 -2q4 2 21 2q25 -2 80 -14q8 -6 18 -11q68 -30 115 -77l16 -17q6 -6 12 -18l17 -15q64 -104 123 -100q4 1 18 8 q17 13 22 35.5t-2 42.5q-5 5 -8 14q-4 15 -6 17q-5 28 8 50t43 26q15 4 17 6q2 0 33 8q3 1 8 1t8 1q2 0 18 4q3 0 10 1t11 1q72 17 98 11q31 -7 39 -37q1 -2 10 -19q13 -30 17 -102q0 -1 4 -17q0 -4 -1 -11t-1 -11z" />
<glyph unicode="&#xa1;" horiz-adv-x="540" d="M256 1184q-19 0 -25 2l-20 6q-39 17 -62 53.5t-22 77.5q0 3 1 9t1 9q9 31 25 56l8 10l31 25l14 6l18 6h21q32 0 41 -4q2 0 18 -4q47 -15 68 -50q3 -3 6 -9t6 -9q16 -32 10 -61q0 -3 -1 -7.5t-1 -7.5l-4 -24q-16 -29 -35 -45l-16 -13q-36 -26 -82 -26zM389 936v-92 q0 -41 3.5 -112t4.5 -93q2 -4 2 -18q0 -15 2 -19q0 -18 2 -22v-62q0 -11 3 -20q-3 -6 -3 -19v-18l5 -66q2 -2 2 -12q-4 -109 6 -180v-31q2 -14 2 -41v-22q0 -15 -2 -17q10 -40 -8 -72q-3 -9 -11 -12q-6 -6 -12 -8q-51 -8 -182 -4q-3 0 -9.5 1t-9.5 1l-16 4q-20 7 -31 22.5 t-12.5 39t-0.5 40.5t4 41q1 5 1 7v194q0 25 2 39v29q-2 10 -2 28q3 26 4 56t1 66.5t1 56.5v75q4 144 4 215v74q0 15 2 19q0 34 35 53l17 4q54 7 129 4q4 0 20 -4q52 -19 47 -125z" />
<glyph unicode="&#xa2;" horiz-adv-x="1202" d="M1098 567v-12q2 -25 -11 -90q-2 -2 -2 -10q-4 -28 -4 -31l-6 -25q-5 -16 -10 -24q0 -4 -4 -8q-1 -5 -4 -12t-4 -9l-6 -12q-27 -52 -60 -94l-14 -15q-36 -36 -72 -59l-16 -12q-13 -8 -28.5 -15t-26.5 -11.5t-30 -10t-26.5 -7.5t-30.5 -7.5t-28 -6.5v-63q0 -34 -15 -49 q-6 -6 -23.5 -7.5t-23.5 -3.5h-71q-36 -2 -62 14t-22 50v61q-55 3 -105 23l-26 10q-33 16 -47.5 23.5t-37.5 24t-38 34.5l-17 18q-29 38 -39 60q-26 50 -38 92q-22 63 -33 162l-6 49q0 10 -2 12v10q0 3 -1.5 6.5t-1.5 6.5q-4 23 -4 61.5v48.5q0 11 2 13v12l7 65q0 3 1 9.5 t1 9.5l4 39q11 99 33 162q12 42 38 92q9 20 39 59l17 19q5 6 10.5 12t13 11.5t12 9.5t14.5 9.5t13 8t15 8.5l14 7l16 8t15 7l26 11q21 9 109 22q0 42 2 60v10q-7 28 8 44.5t45 16.5h12q50 3 80 -2h13q19 -3 36 -10l9 -6q13 -10 16 -29q0 -3 -1 -6t-1 -6v-72q9 -2 32.5 -7.5 t35.5 -9t31 -9.5t34.5 -13t30.5 -16l16 -12q33 -21 72 -60l14 -14q35 -43 47 -74q15 -25 21 -39q18 -31 24 -63l1 -3q1 -3 1 -7t1 -12.5t1 -12.5l4 -12q11 -41 -14 -72l-6 -6q-97 -5 -117 -4h-12q-19 0 -23 -2h-14q-34 -3 -61 4q-3 0 -5.5 1t-5.5 1q-3 3 -8 5t-8 5 q-8 3 -18 19l-15 34l-8 19l-12 16q-4 6 -11 15t-8 10l-12 10l-6 4v-108q-4 -62 -4 -82q0 -4 -1 -11t-1 -10q5 -11 1.5 -90t-3.5 -90v-240l2 2l12 9l12 10q2 2 9 10t10 14q24 34 31 62q0 3 1 5t1 5l1 3q1 3 1 7t1 7t1 4q4 51 32 53h13q50 6 94 6q10 0 12 -2q3 0 5 1t5 1 q39 0 50 -4q3 0 6 1t6 1q17 1 31.5 1.5t27 -6t19.5 -20.5zM502 920v20q0 6 2 8q-2 10 -2 31v68q-28 -13 -43 -33l-15 -15q-3 -4 -10 -18q-13 -22 -16 -29q-13 -44 -15 -67q0 -3 -1 -9.5t-1 -9.5q-6 -34 -6 -65q-6 -82 0 -170q0 -31 6 -66q0 -3 1 -9t1 -9q2 -25 15 -68 q2 -4 16 -28q9 -17 10 -19l15 -14q12 -17 37 -31v336q-1 30 4 178q0 3 1 9.5t1 9.5z" />
<glyph unicode="&#xa3;" horiz-adv-x="1343" d="M786 283h263q28 -4 38 -4h19q18 -2 69 1.5t60 -6.5q22 -12 24 -37t-3 -61t-1 -57v-21q3 -46 -8 -78l-10 -14q-8 -10 -26 -11.5t-47.5 2t-41.5 3.5h-323v-2h-78q-29 0 -58 2t-59 2q-3 0 -9 1t-9 1h-21q-6 0 -8 2h-385q-27 -7 -43 -4q-4 0 -10.5 1t-9.5 1q-30 11 -41 53 q0 3 -1 9.5t-1 9.5q-4 131 4 182q2 6 8 12q3 8 12 11q32 18 72 8q2 2 16 2h23q27 0 41 -2h8l-2 229h-58q-27 -7 -43 -4q-4 0 -10.5 1t-9.5 1q-30 11 -41 53q0 3 -1 9.5t-1 9.5q-4 131 4 182q2 6 8 12q2 7 13 11q31 17 71 8q2 2 17 2h51q0 21 4 71q0 3 1 9.5t1 9.5l4 55 q0 3 1 9.5t1 9.5l4 39q11 98 33 161q11 40 39 93q9 20 39 59l16 18q15 18 38 34.5t37.5 24t47.5 23.5l27 11q39 15 83 19.5t104.5 4.5t86.5 2h31q5 -1 36 -7.5t42 -9.5t34.5 -9.5t40.5 -14.5t33 -18l17 -13q33 -21 71 -59l15 -14q35 -43 47 -74q11 -19 20 -39q19 -32 29 -84 l4 -16q1 -4 5.5 -29.5t5 -35.5t-2 -28t-10.5 -32q-2 -2 -2 -10q-51 -28 -133 -11h-70q-4 0 -17 -0.5t-19 -0.5t-14 2.5t-13 7.5q-6 6 -10 16.5t-6 16.5t-5 22t-4 20l-4 19q-9 27 -29 53q-3 5 -18 25l-12 10l-13 8q-73 36 -180 25l-20 -7q-34 -9 -58 -36l-14 -15 q-3 -4 -10 -18q-16 -27 -17 -29q-12 -39 -14 -67q0 -3 -1 -9.5t-1 -9.5q-6 -35 -6 -65q-4 -62 -4 -82q0 -4 -1 -11t-1 -10v-16q15 0 41.5 -0.5t94 -1t179.5 -0.5q28 -4 39 -4h18q18 -2 69 2t60 -6q22 -12 24.5 -37t-2.5 -61.5t-1 -57.5v-21q3 -45 -8 -77l-11 -15 q-8 -10 -26 -11.5t-47 2t-41 3.5h-389q-2 -80 -2 -225h51q62 -4 82 -4q4 0 10.5 -1t9.5 -1q18 5 52 1.5t46 -3.5z" />
<glyph unicode="&#xa5;" horiz-adv-x="1171" d="M1096 1432q29 -29 0 -80l-9 -19q-4 -7 -19 -31.5t-21 -37.5l-7 -13q-7 -16 -20 -39l-6 -14q-19 -44 -80 -150t-70 -124q-4 -10 -8 -15q-6 -10 -10 -22l-8 -17q-4 -13 -9 -18q-5 -15 -6 -16l-2 -5h37q18 -2 69 2t60 -6q22 -12 24.5 -27t-2.5 -41t-1 -46v-21q1 -8 1 -13 t-1 -10.5t-1.5 -7.5t-3 -9.5t-4.5 -12.5l-10 -14q-8 -10 -26 -12t-48 1.5t-41 3.5h-149l-4 -8l-4 -88q0 -3 -1 -9t-1 -9q0 -4 -1 -11t-1 -10v-20h88q28 -4 39 -4h18q18 -2 69 2t60 -6q22 -12 24.5 -27.5t-2.5 -41.5t-1 -46v-21q1 -8 1 -13t-1 -10.5t-1.5 -7.5t-3 -9.5 t-4.5 -12.5l-10 -14q-8 -10 -26 -11.5t-47.5 2t-41.5 3.5h-161v-148q7 -27 4 -43q0 -4 -1 -10.5t-1 -9.5q-11 -30 -53 -41q-3 0 -9.5 -1t-9.5 -1q-131 -4 -182 4q-6 2 -12 8q-8 3 -11 12q-18 32 -8 72q-2 2 -2 16v23q0 27 2 41v76q-23 0 -61 1t-52 1q-86 -10 -128.5 -1 t-49.5 48q0 3 -1 9t-1 9q0 17 -0.5 35t-1 26.5t0.5 23.5t5 36q1 5 9 12q3 8 12 11q31 17 71 8q2 2 17 2h22q27 0 41 -2h115v41q4 62 4 82q0 4 1 10.5t1 9.5v10q-25 0 -64 1t-53 1q-86 -10 -128.5 -0.5t-49.5 48.5q0 3 -1 9t-1 9q0 17 -0.5 35t-1 26.5t0.5 23.5t5 36 q1 5 9 12q2 7 12 10q33 18 71 9q2 2 17 2h22q27 0 41 -2h27l-70 141l-6 12l-65 127q-1 3 -4.5 7t-4.5 7q-14 34 -61 119.5t-61 118.5q0 1 -1 2.5t-2 4.5t-2 5q-3 24 7 37q12 12 18 15q9 6 21 6q19 1 59.5 4t60.5 3.5t60 -1.5h18q48 -12 66 -39l10 -14q15 -30 20 -45l9 -15 q1 -4 59 -119l10 -20q9 -24 39 -82l8 -16q18 -36 21 -45l3 -5q4 -6 5 -10l27 -61q12 22 18 47l6 14q6 22 16 43.5t25.5 49t22.5 42.5q1 3 4 6.5t4 6.5q2 2 2 6l25 41l47 84l6 12q7 9 23 41.5t32.5 51t40.5 22.5q16 4 23 4q25 -3 74.5 -2t74.5 -2q3 0 10.5 -1t10.5 -1h14 q27 0 33 -6z" />
<glyph unicode="&#xa6;" horiz-adv-x="436" d="M324 555v-567q-5 -35 -5 -39v-19q-1 -16 3 -67q0 -13 2 -15q0 -34 -23 -57q-1 -3 -2.5 -4.5t-3 -2t-2.5 -1.5q-19 -3 -55.5 -5t-55.5 -5q-1 1 -10 4q-1 0 -2.5 0.5l-4.5 1.5t-5 2q-11 0 -15 2q-14 2 -23 9.5t-13 21t-5 22t-2 25.5q0 3 1 7t1 7q0 7 1 19.5t1 19.5v14 q0 45 -1 253.5t-1 295.5v51v42.5t5 58.5l6 10l6 8q10 11 24 14.5t33 3t29 1.5q2 2 14 2q42 0 60 -6l10 -5q12 -5 19.5 -12.5t10.5 -20t3.5 -20.5t0 -26t-0.5 -23zM178 801v2q-4 -3 -8 -3t-8.5 1.5t-7.5 1.5q-1 0 -13 4q-15 6 -24 27l-4 12q-6 17 -2 53q0 1 1 3t1 3v559 q0 7 -3.5 53.5t1.5 53.5l6 12q10 18 43 29q3 0 9 1t9 1q17 0 35 0.5t26.5 1t23.5 -0.5t36 -5q6 -2 12 -8q7 -2 11 -13q17 -31 8 -71q2 -2 2 -17v-22q0 -27 -2 -41v-17q0 -32 0.5 -66t1 -56.5t0.5 -24.5v-363q2 -14 2 -34q0 -31 -12 -52l-11 -12q-14 -9 -28 -12q-3 0 -7 -1 l-4 -1q-63 -4 -94 2z" />
<glyph unicode="&#xa7;" horiz-adv-x="1200" d="M1024 186l-8 -14l-8 -16q61 -73 67 -168q2 -6 2 -21q8 -27 8 -65q0 -4 -1 -11.5t-1 -11.5q-17 -101 -53 -174l-6 -14l-8 -15q-9 -20 -39 -59l-16 -18q-15 -18 -38 -34.5t-37.5 -24t-47.5 -23.5l-27 -11q-39 -15 -83 -19.5t-104.5 -4.5t-86.5 -2h-31q-7 1 -36.5 7.5 t-41.5 9.5t-35 9.5t-40.5 14.5t-33.5 18l-16 12q-33 21 -72 60l-14 14q-22 28 -43 66q-3 3 -5 8t-5 8l-8 17l-6 16q-23 43 -39 147q-2 2 -2 9v14q-18 80 28 96q12 6 21 6q18 3 54 3t52 3q4 -2 19 -2q42 0 73 -8q5 -1 12 -4t9 -4l12 -12l8 -15q9 -15 9 -39q0 -3 1 -7t1 -7 l4 -20q11 -45 32 -72q4 -6 11 -15t8 -10l12 -10l12 -8q73 -36 181 -25l20 7q12 2 31 14l14 10q55 46 58 127v21l-5 16l-6 18q-6 5 -8 13q-15 19 -27 26q-8 8 -16 11q-86 52 -178 75l-21 6q-19 8 -60 23.5t-72.5 29.5t-57.5 31l-14 7l-13 6q-60 38 -108 92l-15 14 q-14 14 -26 35q-3 4 -10 18q-11 21 -17 47t-7.5 45t-3.5 50.5t-3 46.5q0 4 1 10.5t1 9.5q3 50 25 103l10 33q9 28 28 59l15 24l-13 15q-14 14 -26 35q-3 4 -10 18q-14 27 -20 55t-8 76t-3 57q0 4 1 11t1 10q3 49 25 102l10 33q10 30 28 60q9 20 39 59l17 18q15 18 38 34.5 t37.5 24t47.5 23.5l26 11q39 15 83.5 19.5t105 4.5t86.5 2h30q7 -1 36.5 -7.5t41.5 -9.5t35 -9.5t40.5 -14.5t33.5 -18l16 -13q36 -23 72 -59l14 -14q35 -43 47 -74q15 -25 21 -39q17 -29 28 -84l4 -16l9 -64q2 -4 2 -20q-1 -31 -24.5 -50.5t-55.5 -19.5q-4 2 -19 2 q-14 2 -79 2t-97 10q-14 14 -20 35q-6 13 -10 43l-5 19q-10 30 -28 53q-4 6 -11 15t-8 10l-12 10l-12 8q-73 36 -180 25l-21 -7q-33 -8 -57 -36l-15 -15q-3 -4 -10 -18q-4 -4 -8 -15q-18 -29 -16.5 -66t24.5 -61l15 -16q49 -44 135 -72l16 -4q35 -17 104.5 -40t94.5 -33 l18 -9q91 -34 125 -61l19 -16l32 -37l11 -13q65 -74 71 -174q2 -6 2 -20q8 -27 8 -66q0 -4 -1 -11t-1 -11q-17 -101 -53 -174zM791 414v20l-5 17l-6 18q-6 6 -8 12q-17 21 -27 27q-7 7 -16 10q-89 53 -178 76l-21 6l-79 31l-7 -8q-1 -2 -10 -19q-5 -5 -8 -14 q-18 -29 -16.5 -66t24.5 -61l15 -17q47 -42 135 -71l16 -4q44 -21 158 -58q30 45 33 101z" />
<glyph unicode="&#xa8;" horiz-adv-x="657" d="M131 1835q45 0 82 -27l16 -12q19 -16 35 -45l4 -25q0 -3 1 -7t1 -7q6 -29 -10 -61q-3 -3 -6 -9.5t-6 -9.5q-20 -34 -68 -49q-16 -4 -18 -4q-9 -4 -41 -4h-21l-18 6l-14 6l-31 25l-8 10q-16 26 -25 55q0 3 -1 9.5t-1 9.5q-1 41 22 77.5t62 53.5l20 6q6 2 25 2zM451 1817 l20 10q37 14 86 4l21 -6q27 -12 49 -31l12 -22q0 -3 2.5 -7t3.5 -6q16 -32 10 -61q0 -13 -4 -21q-12 -42 -47 -69q-8 -8 -16 -11q-17 -11 -37 -18l-19 -6l-20 -2l-14 2l-37 12l-12 6q-24 21 -41 45l-9 17q-17 39 -7.5 80t40.5 71z" />
<glyph unicode="&#xa9;" horiz-adv-x="1073" d="M1008 1114l6 -14q18 -88 18 -131v-23q-2 -38 -16 -104l-6 -23l-13 -35l-8 -16q-5 -9 -16.5 -29t-18.5 -31.5t-18 -28t-23 -30.5l-12 -16q-35 -54 -113 -96l-18 -9q-74 -45 -192 -55h-99q-17 1 -65 14q-2 0 -4.5 1t-7 2t-7.5 2q-97 32 -147 73l-12 8q-86 73 -121 132 q-1 5 -9 12l-10 20q-56 109 -53 197q0 3 -1 8t-1 8v17q4 28 4 43l4 22q2 47 21 109q1 5 4 11.5t4 8.5l8 19l12 20l11 19q38 62 110 131l12 10q32 25 56 33l16 8q44 23 78 31l20 6q14 6 43 10l21 4q9 0 26 1t25 1l12 2q3 0 9.5 -1t9.5 -1h22q3 0 10.5 -1t10.5 -1q4 0 11 -1 t11 -1l21 -6q16 -4 20 -4v-2q7 0 23 -4l20 -7q27 -4 37 -8q6 -1 19 -8q53 -19 108 -68l17 -14q88 -91 114 -170l6 -10l7 -21q4 -12 4 -14zM909 899l4 19q10 94 -24 192l-8 16q-18 47 -84 117h-2l-13 14q-42 36 -77 50l-15 6l-16 6l-15 6q-16 7 -32 10l-17 4q-3 0 -9 1t-9 1 q-62 9 -121 0q-20 -4 -22 -4l-58 -16l-16 -6q-51 -27 -72 -41l-12 -8q-14 -11 -25 -24.5t-25 -34.5t-20 -29l-18 -27l-8 -16l-17 -31l-6 -17q-11 -34 -14 -81v-19q-2 -4 -2 -20v-17l4 -18q4 -20 4 -33q13 -70 26 -96l9 -17q45 -94 147 -151l16 -8q46 -25 91 -31l20 -4l53 -6 h47q97 6 158 49l17 10q6 6 14 10l14 13l25 24q50 57 71 103l9 16l14 37l12 37q0 3 1 7t1 7zM745 899q7 -9 3 -37v-4l-5 -27q0 -3 -1 -5t-1 -3v-8q-3 -6 -16.5 -32.5t-22.5 -39.5l-6 -6q-3 -3 -9.5 -8t-11.5 -9t-9 -7l-7 -4q-24 -15 -77 -27h-13h-37t-45 4q-10 0 -12 2 q-58 8 -100 64l-6 14q-2 3 -17 37q-1 3 -4 15t-4 20q-19 110 -10 178l2 22v9l2 16q2 28 14 67q5 18 17 39q3 9 16 25l6 8q21 21 51 33l13 4q16 6 33 8.5t46 3t35 0.5h13q53 -14 67 -20l10 -4q36 -25 56 -58l6 -8q1 -3 3 -5t3 -5q0 -1 0.5 -1.5t1 -2t0.5 -4.5q9 -11 12 -35 l2 -6q0 -3 1 -9.5t1 -9.5q3 -3 3 -8q5 -34 -15 -37q-9 -4 -38 -1.5t-38 1.5q-8 0 -10 2q-16 3 -22 19q-2 2 -2 8q-2 2 -2 8l-3 8q-2 7 -12 23q-1 3 -3 5t-3 5l-6 4l-4 2q-30 17 -76 13l-8 -5q-15 -4 -25 -14l-6 -6q-4 -4 -4 -8q-1 -2 -3.5 -5.5t-2.5 -6.5q-6 -12 -6 -29 q0 -1 -1 -3t-1 -3q-2 -10 -2 -29q0 -8 -1 -18t-1 -15v-39h-2q2 -2 2 -4v-8q0 -7 1 -17.5t1 -17.5v-14q0 -3 1 -6t1 -6q13 -67 49 -78l8 -2q40 -6 76 10l4 2l6 4q1 3 3 5t3 5q13 22 15 31l2 8v6q0 5 4 17q2 6 8 12q9 8 42.5 5t45.5 -1h12q3 -1 5 -3t5 -3z" />
<glyph unicode="&#xaa;" horiz-adv-x="507" d="M467 1186v-23q0 -8 -2 -10q2 -2 2 -10q0 -7 -1 -18.5t-1 -18.5v-49v-31q0 -4 -2 -6q-1 -12 0 -37t0 -39v-8q-2 -2 -2 -10v-8q0 -5 -1 -16.5t-1 -16.5v-25q0 -3 1 -6t1 -6v-23q0 -18 -2 -26q0 -6 -2 -8v-3q-10 -24 -45 -24q-4 0 -12 1t-11 1h-10q-2 0 -4 2h-6l-11 4 q-18 7 -14 35v2q-47 -34 -82 -43h-8q-2 -2 -8 -2h-10q-2 -2 -9 -2h-16q-41 0 -84 18h-2q-4 4 -8 4q-33 23 -41 39l-13 17l-6 18q-3 9 -4 10q0 3 -1 5.5t-1 5.5q0 1 -1 4t-1 4q-4 23 -8 110v7q0 10 2 12q0 8 1 19t1 16q3 9 4 10q1 2 2 7t3 11.5t5 12.5q1 2 2 4.5t1.5 3.5 t0.5 2q27 41 68 65l9 4q10 4 16 5q4 4 10 4q19 6 31 8q2 2 10 2l29 4h75q10 -2 33 -2v12q0 3 0.5 10t0.5 13t-1 10v6q-2 2 0 4v2l-2 6v9q0 6 -2 8q0 9 -8 20l-4 6q-21 31 -74 31h-12q-22 0 -42 -13.5t-24 -35.5q0 -1 -1 -4t-1 -4v-2q-13 -35 -57 -35q-23 0 -54 8l-10 8 q-8 10 -4 37v15q2 2 2 10q1 6 15 39l4 8l6 8q0 2 4 6l10 12v3l10 6l9 8l8 6q16 11 43 23q7 3 20.5 6t20.5 6q32 4 53 4q37 -2 82 -14q3 0 5 -1t5 -1q44 -17 80 -56l6 -10q24 -39 29 -72q0 -3 1 -5t1 -5q2 -8 2 -27v-63q2 -2 2 -8zM344 989v55q0 4 -1 14t-1 15h-12 q-2 2 -11 2h-6q-6 0 -8 -2h-8q-4 0 -11 1t-10 1h-30q-8 0 -10 -2q-50 0 -62 -39l-1 -2q-1 -2 -1 -6q-6 -27 -6 -49q-2 -2 -2 -8v-16t4 -21q0 -8 2 -10v-2q1 -19 14.5 -31t30.5 -12q8 0 10 2h11l2 1q2 1 6 1t6 2q24 8 45 22l8 6q20 11 35 39q0 1 1 3t1 3v2q4 16 4 31z" />
<glyph unicode="&#xab;" horiz-adv-x="1171" d="M586 246l10 -15q8 -12 41.5 -45.5t38.5 -56.5q7 -24 -3.5 -36.5t-34.5 -25t-36 -28.5l-16 -12q-18 -18 -45 -29h-19q-12 0 -24.5 12t-29.5 37.5t-24 34.5l-10 10l-110 127l-2 -2l-140 172l-51 53q-5 3 -43 45l-4 15q-3 6 0 16q3 13 12 29q4 4 4 6l25 25q0 6 6.5 15.5 t13.5 16.5t17.5 16.5t13.5 12.5l10 12q20 23 42.5 51t36 44.5t16.5 19.5l41 47v-2q44 49 91 107t69 82t40 32q16 10 30.5 4t21.5 -15t20.5 -24.5t28.5 -23.5l16 -12q7 -5 11 -8t7.5 -7t4.5 -6t5 -9t7 -11l6 -17q1 -12 -9 -26.5t-32.5 -36.5t-28.5 -29l-121 -139v-2 q-30 -37 -50 -60.5t-44.5 -49.5t-38.5 -42l97 -110l39 -48l-3 -2l80 -96q3 -6 8.5 -9.5t8.5 -6.5zM993 246l11 -15q8 -11 41 -45t38 -57q7 -24 -3 -36.5t-34 -25t-36 -28.5l-17 -12q-18 -18 -45 -29h-18q-12 0 -24.5 12t-29.5 37.5t-24 34.5l-10 10l-111 127l-2 -2l-139 172 l-51 53q-5 3 -43 45l-4 15q-3 6 0 16q3 13 12 29q4 4 4 6q2 2 10.5 11.5t13.5 13.5q0 8 8.5 18.5t25.5 26.5l18 16l10 12q20 24 42.5 51.5t35.5 44t16 19.5l41 47v-2q43 48 91 107t70 82.5t40 31.5q16 10 30.5 4t21 -15t20 -24.5t28.5 -23.5l17 -12q9 -6 13.5 -10.5 l6.5 -6.5t6.5 -10.5t7.5 -13.5l6 -17q1 -12 -9 -26.5t-32 -36.5t-28 -29l-121 -139v-2q-30 -37 -50 -60.5t-44.5 -49.5t-38.5 -42l96 -110l39 -48l-2 -2l80 -96q3 -4 5 -6.5t5 -4.5t6 -5z" />
<glyph unicode="&#xac;" horiz-adv-x="1030" d="M672 182l-4 4q-1 5 -5.5 21.5t-3.5 25.5v107l1 18q2 19 2 35q-47 0 -199 -1t-225 -1h-15q-20 0 -26 -2h-13q-6 0 -34 4q-3 0 -6.5 1t-6.5 1q-12 0 -14 2q-1 0 -2 0.5t-3.5 1.5t-4.5 2q-16 10 -21 28t-3 34.5t-1 34.5q0 10 -2 12q-5 80 0 106v13q3 32 25 41q9 10 60 6 t69 -2h18q11 0 39 4h408q45 6 169 2q3 0 9.5 -1t9.5 -1l16 -4q13 -6 21.5 -16.5t11 -27t3.5 -27.5t0 -32.5t-1 -27.5q-2 -6 -2 -23q0 -16 2 -20v-43q0 -14 0.5 -40.5t0.5 -47t-1 -37.5v-37q0 -31 2 -47v-8q3 -13 0 -23q0 -8 -2 -10q-14 -24 -35 -33l-12 -4h-80q-11 0 -36 -1 t-43 -0.5t-36 3.5q-10 0 -12 2q-3 3 -9 4t-9 4z" />
<glyph unicode="&#xad;" horiz-adv-x="1085" d="M283 614h16q32 0 66 0.5t56.5 1t24.5 0.5h199v-2h125q28 -4 39 -4h18q18 -2 69 2t60 -6q22 -12 24.5 -27t-2.5 -41t-1 -46v-21q2 -23 -8 -53l-11 -15q-8 -10 -26 -11.5t-47 2t-41 3.5h-199v-2q-60 0 -189 1t-169 1q-86 -10 -128.5 -1t-49.5 48q0 3 -1.5 9.5t-1.5 9.5 q0 17 -0.5 35t-0.5 26.5t1 23.5t5 36q2 6 8 12q2 7 12 10q32 18 72 8q2 2 16 2h23q27 0 41 -2z" />
<glyph unicode="&#xae;" horiz-adv-x="1073" d="M1008 1114l6 -14q18 -88 18 -131v-23q-2 -38 -16 -104l-6 -23l-13 -35l-8 -16q-5 -9 -16.5 -29t-18.5 -31.5t-18 -28t-23 -30.5l-12 -16q-35 -54 -113 -96l-18 -9q-74 -45 -192 -55h-99q-17 1 -65 14q-2 0 -4.5 1t-7 2t-7.5 2q-97 32 -147 73l-12 8q-86 73 -121 132 q-1 5 -9 12l-10 20q-56 109 -53 197q0 3 -1 8t-1 8v17q4 28 4 43l4 22q2 47 21 109q1 5 4 11.5t4 8.5l8 19l12 20l11 19q38 62 110 131l12 10q32 25 56 33l16 8q44 23 78 31l20 6q14 6 43 10l21 4q9 0 26 1t25 1l12 2q3 0 9.5 -1t9.5 -1h22q3 0 10.5 -1t10.5 -1q4 0 11 -1 t11 -1l21 -6q16 -4 20 -4v-2q7 0 23 -4l20 -7q27 -4 37 -8q6 -1 19 -8q53 -19 108 -68l17 -14q88 -91 114 -170l6 -10l7 -21q4 -12 4 -14zM909 899l4 19q10 94 -24 192l-8 16q-18 47 -84 117h-2l-13 14q-42 36 -77 50l-15 6l-16 6l-15 6q-16 7 -32 10l-17 4q-3 0 -9 1t-9 1 q-62 9 -121 0q-20 -4 -22 -4l-58 -16l-16 -6q-51 -27 -72 -41l-12 -8q-14 -11 -25 -24.5t-25 -34.5t-20 -29l-18 -27l-8 -16l-17 -31l-6 -17q-11 -34 -14 -81v-19q-2 -4 -2 -20v-17l4 -18q4 -20 4 -33q13 -70 26 -96l9 -17q45 -94 147 -151l16 -8q46 -25 91 -31l20 -4l53 -6 h47q97 6 158 49l17 10q6 6 14 10l14 13l25 24q50 57 71 103l9 16l14 37l12 37q0 3 1 7t1 7zM741 743l2 -2q11 -11 15 -22q3 -10 -4 -17q-9 -12 -27 -12q-10 0 -14 2h-54q-32 0 -47 21q0 2 -2 2v2h-2l-18 28l-4 7l-17 22l-2 2q-13 16 -16 25l-19 24l-2 6l-30 41l-15 19 q4 -8 1.5 -33t-1.5 -35v-78q3 -15 0 -30l-2 -6q-6 -14 -18 -17h-31q-4 0 -4 -2h-24q-34 0 -39 21v16v129q5 20 0 90q3 15 3 32.5t-1.5 45t-1.5 49.5v131q0 13 2 17q0 2 4 14q6 18 43 18q70 0 113.5 -1.5t60.5 -3t22 -1.5q39 -3 66 -24q25 -16 36.5 -33t22.5 -49l6 -21v-2 q0 -2 2 -4v-2q1 -1 0.5 -19.5t-0.5 -19.5v-14l-2 -8q-4 -31 -16 -50l-4 -6q-8 -17 -25 -30l-6 -7l-16 -12l-2 -2q-4 0 -8 -4l-15 -8l-10 -6q-19 -6 -27 -8q2 -6 17 -25l4 -6l16 -23l19 -22l4 -6q13 -15 35 -50l6 -6l10 -12l8 -12l2 -2q0 -2 2 -4q0 -3 4 -7zM487 1051l2 -23 q19 0 41 -0.5t30.5 -0.5t18 1t17.5 4q16 6 25 31l2 4q0 12 -2 14v9l-3 8l-6 12q-2 2 -2 4l-4 4q-9 18 -47 21h-70l-2 -2q-3 -3 0 -13v-73z" />
<glyph unicode="&#xaf;" horiz-adv-x="528" d="M313 1753q1 -1 19.5 -0.5t19.5 0.5h19q26 -3 46.5 -1t44 1t38.5 -8q22 -12 26.5 -25t-0.5 -29t0 -44q-2 -21 -10 -34.5t-17.5 -20.5t-29 -10.5t-31 -4t-37.5 -0.5h-14h-209q-55 -6 -102.5 -3t-57.5 13q-6 7 -12 45l-4 25q-4 27 6 65q2 8 8 13q3 9 7 10q31 17 71 8 q2 2 17 2h20q0 -2 182 -2z" />
<glyph unicode="&#xb0;" horiz-adv-x="546" d="M295 1139q31 6 52.5 35.5t17.5 60.5q-3 20 -19 39q-2 4 -12 14q-20 25 -55 27t-58 -21q-49 -40 -28 -100q2 -4 8 -12q27 -53 75 -45q3 0 9.5 1t9.5 1zM461 1362q63 -80 39 -193l-4 -18l-7 -18q-20 -47 -55 -82l-16 -15q-43 -29 -92 -37q-16 -4 -19 -4q-28 -4 -37 -4 q-3 0 -8 1t-8 1q-12 0 -16 2q-33 5 -43 9q-21 6 -39 18q-32 16 -52 39l-14 18l-12 17l-10 16l-9 18q-34 74 -4 177l6 18q8 19 21 35q41 54 98 74l19 6q10 4 37 8q28 4 38 4h23q82 -10 135 -57l17 -17q3 -3 6 -8t6 -8z" />
<glyph unicode="&#xb1;" horiz-adv-x="1085" d="M977 659v-20q2 -23 -8 -53l-11 -15q-8 -10 -26 -11.5t-47 2t-41 3.5h-182q0 -32 -1.5 -39.5t-1.5 -25.5q10 -86 1 -128.5t-48 -49.5q-3 0 -9 -1.5t-9 -1.5q-16 0 -34.5 -0.5t-27 -0.5t-23.5 1t-36 5q-6 2 -12 8q-7 2 -10 12q-18 33 -9 72q-2 2 -2 16v23q0 27 2 41v16 q0 24 -2 51q-112 0 -153 2q-86 -10 -128.5 -1t-49.5 48q0 3 -1.5 9.5t-1.5 9.5q0 17 -0.5 35t-0.5 26.5t1 23.5t5 36q2 6 8 12q2 7 12 10q32 18 72 8q2 2 16 2h23q27 0 41 -2h16q37 0 88.5 1t54.5 1v103q4 28 4 39v18q2 18 -1.5 69t6.5 60q10 22 26.5 24.5t42.5 -2.5t45 -1 h21q8 1 13 1t10.5 -1t7.5 -1.5t9.5 -3t12.5 -4.5l14 -10q10 -8 11.5 -26t-2 -47t-3.5 -41v-179h111q28 -4 39 -4h18q18 -2 69 2t60 -6q22 -12 24.5 -27.5t-2.5 -41.5t-1 -46zM283 219h16q32 0 66 0.5t56.5 1t24.5 0.5h199v-2h125q28 -4 39 -4h18q18 -2 69 2t60 -6 q22 -12 24.5 -27.5t-2.5 -41.5t-1 -46v-20q2 -23 -8 -53l-11 -15q-8 -10 -26 -11.5t-47 2t-41 3.5h-199v-2q-60 0 -189 1t-169 1q-86 -10 -128.5 -1t-49.5 48q0 3 -1.5 9.5t-1.5 9.5q0 17 -0.5 35t-0.5 26t1 23t5 36q3 8 8 13q2 7 12 10q32 18 72 8q2 2 16 2h23q27 0 41 -2z " />
<glyph unicode="&#xb2;" horiz-adv-x="538" d="M489 913q0 -1 1.5 -3t1.5 -3v-10q0 -43 -3 -92q-2 -2 -4 -8q-10 -17 -26 -17h-23q-4 0 -22 2.5t-22.5 2l-22.5 -2.5h-35q-12 0 -33 1t-33 1h-131q-11 0 -25 0.5t-26.5 1.5t-23 8t-15.5 21q0 8 -2 10v11q-2 2 -2 10l4 31q6 41 8 47q0 3 1 5t1 5l9 18l8 17q0 4 4 8 q9 24 25.5 41t46.5 41l6 6q2 2 10 7.5t12 8.5l33 21l-2 -2l10 8l33 25l4 4l6 4q5 5 31 26.5t35 36.5q0 2 2 4q19 33 12 52v6q-4 11 -13.5 18t-16.5 9.5t-23 6.5h-23l-2 -1q-2 -1 -6 -1q-6 0 -8 -2q-10 0 -12 -2l-11 -4q-19 -19 -32 -57q0 -3 -5 -8q-4 -11 -18 -17l-14 -4 q-8 1 -27.5 1.5t-33 1.5t-27.5 5q-13 4 -15 9q-21 15 -12 43q0 6 2 8q0 2 4 18l1 3q1 3 1 7q11 36 39 74l10 10q16 19 37 31l8 4q40 24 70 29q3 0 6 1t4 1q40 3 80 0h12l23 -6q8 0 10 -2q38 -6 70 -25l8 -8l8 -6q3 -5 8 -8l7 -9l18 -24l4 -8q11 -21 23 -84v-13q0 -1 1 -4 t1 -6l-6 -49q-3 -3 -3 -8q-11 -35 -45 -82l-4 -6q-1 -3 -5.5 -7t-4.5 -5l-6 -7l-6 -8l-8 -6q-15 -15 -33 -27l-8 -6l-54 -41q0 -4 -4 -4q-3 -3 -8 -5t-8 -5l-8 -6q-40 -24 -49 -37h135q47 -4 76 -2h10l8 -2l6 -2q12 -7 16 -19z" />
<glyph unicode="&#xb3;" horiz-adv-x="540" d="M496 1012q0 -2 1.5 -12t0.5 -15v-14q-2 -2 -2 -10q-3 -27 -13 -58q0 -1 -0.5 -1.5t-1 -2t-0.5 -4.5l-4 -6l-4 -8q-7 -20 -41 -54l-6 -6q-17 -15 -51 -26q-2 -1 -4.5 -2t-3.5 -1.5t-2 -0.5h2q-3 -3 -9 -3l-8 -4q-38 -6 -76 -6h-43q-3 0 -8 1t-8 1q-6 2 -16.5 4t-16.5 3.5 t-15 5t-17 8.5q-5 0 -9 4q-53 40 -71 76q0 1 -0.5 2t-1.5 3.5t-2 4.5l-15 29q0 4 -2 6q0 3 -1 7t-1 7l-2 10l-4 27v8q0 24 27 39l8 2q14 2 49 2h43q1 0 4 -1t4 -1l6 -6q8 -4 11 -9.5t4.5 -14.5t3.5 -13q0 -6 2 -8q3 -21 20 -35l10 -6q20 -10 56 -6q3 0 5 1t5 1q25 3 35 26 v-2q1 2 4.5 11t3.5 14v10q0 12 -8 31q-13 19 -37 22q-2 2 -8 2q-13 4 -39.5 5t-38.5 4q-2 1 -4.5 2t-3.5 1.5t-2 0.5q-8 7 -11 18t-2 22t0 23v21q0 8 2 10q5 11 14.5 16.5t19.5 6t21.5 0.5h20.5q8 0 10 2h11q2 2 10 2l8 4q5 2 9.5 4.5t7.5 7t5 7t4.5 9.5t3 8.5t3.5 11.5l2 9 v8q0 3 -4 19q-3 9 -10 16q-28 31 -84 14l-17 -8l-6 -6q0 -1 -1 -2t-1 -2q-9 -9 -12 -25q-1 -2 -2 -4.5t-1.5 -3.5t-0.5 -2q-1 -2 -3.5 -8.5t-4 -9.5t-4.5 -8t-6.5 -8t-8.5 -5q-4 -4 -10 -4h-21q-7 0 -20 -1t-23 -0.5t-20 3.5q-6 0 -8 2q-17 9 -27 25l-4 14v8q1 8 3.5 23.5 t4 24.5t6.5 21t13 21q0 5 4 9q13 27 47 57l8 6q49 33 90 35h6q14 2 37 2h53q1 0 4.5 -1t4.5 -1q30 0 90 -31l24 -18q3 -5 8 -8q34 -45 45 -95q0 -1 1.5 -4t1.5 -4q0 -3 1 -5t1 -5q0 -1 1 -4t1 -4v-27v-10q0 -3 -4 -31l-2 -3q-1 -3 -1 -7q-1 -1 -4 -10q-18 -50 -67 -68 q23 -10 33 -20q0 -3 4 -7l6 -6q20 -26 33 -63q0 -4 2 -6z" />
<glyph unicode="&#xb4;" horiz-adv-x="352" d="M2 1612q-2 16 8 33l6 10l25 49l10 16l8 19q1 5 9 12q9 21 29.5 58t23.5 44l6 9q22 22 43 22q6 2 23 2q85 0 114 -6q3 0 6 -1t6 -1q4 -2 11 -8q28 -24 18 -53q0 -5 -4 -9q0 -6 -4 -10l-12 -20q-2 -2 -3.5 -4t-2 -3t-2 -2t-3.5 -2q-2 -2 -4 -8l-6 -6l-8 -10l-4 -8l-8 -11 l-68 -92l-8 -10q-9 -16 -29 -30.5t-41 -14.5h-53q-23 0 -33 2h-20q-13 2 -23.5 11t-9.5 22z" />
<glyph unicode="&#xb6;" horiz-adv-x="1462" d="M1333 1430q17 -10 22 -25.5t3 -42.5q0 -3 -1 -11t-1 -12q-5 -11 -3 -56t1 -56v-13q-1 -10 -4.5 -23.5t-3.5 -14.5l-11 -15q-8 -10 -26 -11.5t-47 2t-41 3.5h-17q2 -31 2 -55v-180q-4 -62 -4 -82q0 -4 -1 -11t-1 -10q4 -11 1 -90t-3 -90v-440q-4 -28 -4 -39v-19 q-2 -18 2 -69t-6 -60q-12 -22 -37.5 -24t-61.5 3t-57 1h-20q-46 -3 -78 8l-14 10q-10 8 -12 26t1.5 48t3.5 41v14q0 100 -1 288.5t-1 203.5v94q-1 15 5 178q0 3 1 9.5t1 9.5v20q0 6 2 8q-2 18 -2 64v141h-138q0 -16 1 -35l1 -18v-180q-4 -62 -4 -82q0 -4 -1 -11t-1 -10 q4 -11 1 -90t-3 -90v-440q-4 -28 -4 -39v-19q-2 -18 2 -69t-6 -60q-12 -22 -37.5 -24t-61.5 3t-57 1h-20q-46 -3 -78 8l-14 10q-10 8 -11.5 26t2 47.5t3.5 41.5v14q0 83 -1 252t-1 209v6q0 24 -3 27t-6.5 3.5t-10 -0.5t-9.5 -1l-10 2h-4l-37 4q-7 0 -9 2q-32 0 -41 4 q-8 0 -10 2q-4 0 -9 1t-11.5 2.5t-9.5 2.5t-6 3q-4 1 -5 1q-20 6 -78 39l-8 6q-6 5 -33 25.5t-38 36.5l-7 10q-21 26 -34 60l-9 28q-12 32 -16 70t-2.5 70t-1.5 75v4q-3 29 6 54q0 6 2 8q0 3 1 9t1 9l4 13q3 15 16 36.5t17 32.5q4 4 4 8l17 31l6 8q5 8 15 20t13 17l15 10 q7 4 25 18.5t34 20.5q21 9 29 17q17 9 37 15.5t34.5 8.5t37 5t34.5 5l35 5h27q5 0 15 1t15 1q2 2 13 2q19 3 56 2t56 2h10q45 0 68 2q3 0 6 -1t4 -1q9 0 27 -1t27 -1h182q3 0 9 1t9 1q111 5 148 0h12q2 -2 10 -2l88 -4q3 0 6.5 1t6.5 1q49 4 71 -6z" />
<glyph unicode="&#xb7;" horiz-adv-x="354" d="M172 647q46 0 82 -26l16 -13q19 -16 35 -45l4 -24q0 -3 1 -7.5t1 -7.5q6 -29 -10 -61q-3 -3 -6 -9.5t-6 -9.5q-20 -34 -68 -49q-16 -4 -18 -4q-9 -4 -41 -4h-21l-18 6l-14 6l-31 25l-8 10q-16 26 -25 55q0 3 -1 9.5t-1 9.5q-1 41 22 77.5t62 53.5l20 6q6 2 25 2z" />
<glyph unicode="&#xb8;" horiz-adv-x="454" d="M449 -233q11 -47 2 -78q-2 -2 -2 -8q-1 -6 -3.5 -12.5t-6.5 -16.5t-7 -19q0 -1 -0.5 -2t-1.5 -3.5t-2 -4.5l-6 -12q-3 -9 -16 -25l-9 -6q-45 -57 -118 -69l-15 -5q-14 -2 -35 -2q-25 0 -39 2q-66 12 -92 27h-2l-6 6q-2 0 -6 4l-8 6q-53 38 -74 125v2q-2 2 -2 37q0 5 6 13 t8 8q11 4 56 4h41h30q11 -4 25 -23q1 -3 4 -7t4 -7q0 -9 14 -27q12 -15 35 -12l15 2q1 0 2 0.5t3.5 1.5t4.5 2l6 6q6 3 6 7q10 13 12 20q0 1 0.5 2.5t1.5 5t2 6.5v21q0 1 -1 4t-1 4q-11 25 -18 31l-8 6q-12 6 -31 6h-45q-33 0 -45 12q-6 6 -8.5 14t-2.5 18t-0.5 23t-0.5 27 q3 19 0 31v12q-4 41 0 86q0 17 6 23l2 2h2l25 4h2q3 0 10 1t10 1h37q5 0 15.5 0.5t16 0t12.5 -1t11.5 -3t7.5 -6.5q4 -16 4 -54v-36q0 -6 3 -9q1 0 3 -0.5t6.5 -1.5t8.5 -2t8.5 -2t6.5 -1.5t3 -0.5t4.5 -1t4.5 -1q38 -10 75 -47l9 -12q20 -29 32 -66l2.5 -7.5t2.5 -8.5t1 -8 q3 -3 3 -6z" />
<glyph unicode="&#xb9;" horiz-adv-x="327" d="M281 1436q6 -16 6 -41v-279q0 -4 -1 -15t-1 -16v-170q0 -11 -1.5 -44t-0.5 -52q-2 -2 -2 -8q0 -1 -1 -3t-1 -3q-6 -12 -19 -15.5t-26 -2t-27 -1.5h-8q-18 -1 -31 0t-24.5 10t-8.5 27q-2 2 -2 11q-3 16 0 28v258q-2 32 2 82v94h-51q-31 0 -39 23v8q-2 2 -2 10q-1 8 0 26.5 t0 27.5q0 8 2 10v8q0 18 12 27q4 4 9 4q15 6 41 6t36 2h17q11 -1 49.5 0.5t48.5 -2.5q3 0 5 -1t5 -1q5 0 13 -8z" />
<glyph unicode="&#xba;" horiz-adv-x="552" d="M510 1104v-10q4 -114 -16 -191l-7 -14q-10 -19 -43 -64q-18 -17 -28 -22l-8 -6q-24 -15 -76 -27q-3 0 -7.5 -1t-7.5 -1h-45q-62 0 -90 12q-3 0 -7 2t-7 2l-29 15q-37 21 -55 55t-31 86q0 3 -1 9t-1 9t-1 9.5t-1 9.5q-4 28 -4 43v8l-4 72v8q0 45 2 68l1 1q1 1 1 5 q0 22 2 30v5q0 16 2 20q4 42 14 72q5 17 9 20q41 76 98 98l8 3q33 14 94 14h45q3 0 7.5 -1t7.5 -1q48 -13 63 -19q6 -5 13 -8q52 -40 79 -96l-2 2l9 -16q5 -13 10 -45q0 -3 1 -8.5t1 -8.5q2 -4 2 -22q6 -39 2 -117zM352 995v76q2 14 2 41q0 17 -2 21v41q10 53 -16 92 q-17 23 -44.5 29t-53.5 -5h2q-7 -5 -12.5 -10.5t-10 -11t-7.5 -14t-5.5 -13.5t-4 -16t-2 -15.5t-1 -16.5t-0.5 -15v-16v-15v-113q1 -8 2.5 -24.5t3 -26.5t5.5 -23t12 -22t20 -16h-2q23 -10 48 -5.5t42 21.5q9 9 20 35q4 16 4 22z" />
<glyph unicode="&#xbb;" horiz-adv-x="1171" d="M168 231l10 15q3 3 8.5 6.5t8.5 9.5l79 96l-2 2l39 48l97 110q-16 18 -39.5 43t-44 48.5t-50.5 60.5v2l-120 139q-6 7 -28.5 29t-32.5 36.5t-9 26.5l6 17q3 4 7 11t5 9t4.5 6t7.5 7t11 8l16 12q15 8 28.5 23.5t20.5 24.5t21.5 15t30.5 -4q18 -8 40 -32t69 -82t91 -107v2 l41 -47q3 -3 16.5 -19.5t36 -44.5t42.5 -51l10 -12q3 -3 13.5 -12.5t17.5 -16.5t13.5 -16.5t6.5 -15.5q4 -3 8 -7t9 -9.5t8 -8.5q0 -2 4 -6q9 -16 12 -29q3 -10 0 -16l-4 -15q-38 -42 -43 -45l-51 -53l-140 -172l-2 2l-110 -127l-11 -10q-8 -9 -24.5 -34t-28.5 -37.5 t-24 -12.5h-19q-27 11 -45 29l-16 12q-12 16 -36 28.5t-34.5 25t-3.5 36.5q5 23 38.5 56.5t41.5 45.5zM575 231l11 15q2 2 7.5 6t8.5 10l80 96l-2 2l39 48l96 110q-14 16 -38.5 42t-44.5 49.5t-50 60.5v2l-121 139q-6 7 -28 29t-32 36.5t-9 26.5l6 17q3 5 6.5 11.5t5 8.5 l4.5 6t7 7t11 8l17 12q15 8 28.5 23.5t20 24.5t21 15t30.5 -4q18 -8 40 -31.5t70 -82.5t91 -107v2l41 -47q3 -3 16 -19.5t35.5 -44t42.5 -51.5l10 -12q3 -3 13.5 -12.5t18 -16.5t14 -16.5t6.5 -15.5q5 -3 13.5 -13t10.5 -12q0 -2 4 -6q9 -16 12 -29q3 -10 0 -16l-4 -15 q-38 -42 -43 -45l-51 -53l-139 -172l-2 2l-111 -127l-10 -10q-7 -9 -24 -34.5t-29.5 -37.5t-24.5 -12h-18q-27 11 -45 29l-17 12q-12 16 -36 28.5t-34 25t-3 36.5q5 23 38 57t41 45z" />
<glyph unicode="&#xbc;" horiz-adv-x="1071" d="M426 358q-2 -2 -2 -4q-1 -1 -2 -5t-2 -5l-8 -14l-6 -15q-12 -19 -27 -53l-8 -16q-5 -15 -49 -105l-9 -18l-12 -17l-14.5 -29t-18.5 -34t-20 -26t-29 -20.5t-35 -2.5h-20q-17 0 -21 2q-31 4 -41 10q-6 6 -8 12q-3 33 28 88t36 70q9 17 10 19q14 26 39 87.5t43 92.5l10 18 q34 57 66 133l12 19q51 90 82 170l8 18q21 48 47 94l10 21l29 59l8 19q21 34 80 155l10 19q27 56 43 96q6 8 11 18q12 21 49 97l6 14q17 31 27 59q15 31 38 41q10 7 19 7q4 2 20 2h-2q8 -2 56 -2q14 0 18 -2q2 0 4.5 -1t6.5 -2t7 -2q8 -3 13 -8l4 -16q-6 -25 -23 -60 l-10 -20l-65 -141l-11 -15l-53 -110l-8 -17q-12 -22 -32 -66t-32 -65l-8 -16q-10 -17 -19 -36.5t-20 -44t-16 -36.5q-3 -4 -10 -18q-14 -20 -25 -45l-8 -17q-47 -108 -57 -125l-19 -37l-10 -16q-5 -11 -51 -96l-11 -21q-16 -38 -18 -41zM987 352q1 -7 0 -19.5t0 -19.5v-8 q0 -16 -2 -22v-156v-72v-22q-1 -5 -4 -12t-4 -9l-8 -6q-11 -6 -24 -7.5t-31.5 -0.5t-28.5 0h-8q-3 0 -6 1l-3 1q-3 0 -5 1t-5 1q-10 0 -16 4.5t-7.5 13.5t-2 16.5t0.5 19.5t1 16v53h-89q-10 -2 -47 -2h-59q-33 -5 -59.5 6t-26.5 39q0 10 2 12q6 37 33 96q2 2 2 7l6 10 q0 6 4 10l12 33l4 8q3 4 5.5 12.5t5.5 12.5v-2q3 7 7 20.5t7 20.5l4 8l12 28q0 1 1 4.5t1 4.5q1 7 25 59l14 37q2 2 2 8l25 59l4 9q5 14 12.5 22.5t21 11.5t22 4t27 0t24.5 -1q3 -3 12 -3h10l8 -6q14 -7 17 -22q1 -15 -9.5 -39t-11.5 -29l-4 -8q0 -2 -4 -14l-4 -9 q0 -2 -2 -4q-1 -1 -4 -10q0 -3 -1 -5t-1 -5l-4 -8l-17 -45l-4 -9q-7 -22 -22 -55q0 -1 -0.5 -2t-1.5 -3.5t-2 -4.5l-13 -31v-4l-14 -33q-2 -2 -2 -6q0 -2 -2 -4l-10 -29h84v39q-3 6 -3 27q0 1 1.5 5t1.5 5q7 25 34 29h27q3 0 5 1t5 1q8 -2 39 -1.5t37 -8.5q4 -4 4 -9 q2 -2 2 -10zM322 1436q6 -16 6 -41v-279q0 -4 -1 -15t-1 -16v-170q0 -11 -1.5 -44t-0.5 -52q-2 -2 -2 -8q0 -1 -1.5 -3t-1.5 -3q-6 -12 -19 -15.5t-25.5 -2t-26.5 -1.5h-8q-18 -1 -31 0t-24.5 10t-8.5 27q-2 2 -2 11q-3 16 0 28v258q-2 32 2 82v94h-51q-31 0 -39 23v8 q-2 2 -2 10q-1 8 0 26.5t0 27.5q0 8 2 10v8q0 18 12 27q4 4 8 4q15 6 41.5 6t36.5 2h17q11 -1 49.5 0.5t48.5 -2.5q3 0 5 -1t5 -1q5 0 13 -8z" />
<glyph unicode="&#xbd;" horiz-adv-x="1165" d="M426 358q-2 -2 -2 -4q-1 -1 -2 -5t-2 -5l-8 -14l-6 -15q-12 -19 -27 -53l-8 -16q-5 -15 -49 -105l-9 -18l-12 -17l-14.5 -29t-18.5 -34t-20 -26t-29 -20.5t-35 -2.5h-20q-17 0 -21 2q-31 4 -41 10q-6 6 -8 12q-3 33 28 88t36 70q9 17 10 19q14 26 39 87.5t43 92.5l10 18 q34 57 66 133l12 19q51 90 82 170l8 18q21 48 47 94l10 21l29 59l8 19q21 34 80 155l10 19q27 56 43 96q6 8 11 18q12 21 49 97l6 14q17 31 27 59q15 31 38 41q10 7 19 7q4 2 20 2h-2q8 -2 56 -2q14 0 18 -2q2 0 4.5 -1t6.5 -2t7 -2q8 -3 13 -8l4 -16q-6 -25 -23 -60 l-10 -20l-65 -141l-11 -15l-53 -110l-8 -17q-12 -22 -32 -66t-32 -65l-8 -16q-10 -17 -19 -36.5t-20 -44t-16 -36.5q-3 -4 -10 -18q-14 -20 -25 -45l-8 -17q-47 -108 -57 -125l-19 -37l-10 -16q-5 -11 -51 -96l-11 -21q-16 -38 -18 -41zM1075 129q0 -1 1 -3t1 -3v-10 q0 -60 -2 -93q-2 -2 -4 -8q-10 -16 -27 -16h-22q-4 0 -22.5 2.5t-22.5 2t-23 -2.5h-34q-12 0 -33 1t-33 1h-131q-11 0 -25 0.5t-26.5 1.5t-23 8t-15.5 21q0 8 -2 10v10q-2 2 -2 10l4 31q6 41 8 47q0 3 1 5.5t1 5.5l8 18l8 16q0 4 5 9q7 16 19 31.5t22 24.5t30 25l6 7 q3 2 11.5 7.5t11.5 8.5l33 20l-2 -2l10 9l33 24l4 4l6 4q3 3 29.5 26t35.5 38q0 2 2 4q19 34 13 51v6q-8 23 -54 35h-22l-2 -1q-2 -1 -6 -1q-6 0 -8 -2q-11 0 -13 -2l-10 -4q-20 -20 -33 -57q0 -5 -4 -9q-3 -10 -18 -16l-15 -4q-8 1 -27.5 1.5t-33 1.5t-27.5 5q-12 4 -14 8 q-21 15 -12 43q0 6 2 8q0 3 4 19q0 1 1 3.5t1 6.5q11 36 39 74l10 10q16 19 37 31l8 4q40 24 70 29q4 0 7 1l3 1q40 3 80 0h12l23 -7q8 0 10 -2q40 -6 70 -24l8 -8l8 -7q3 -5 8 -8l6 -8q4 -4 19 -24l4 -9q9 -18 22 -84v-12q0 -1 1 -4t1 -6l-6 -49q-2 -2 -2 -8 q-11 -35 -45 -82l-4 -7q-1 -3 -5.5 -7t-4.5 -5l-6 -6l-6 -8l-9 -6q-17 -17 -32 -27l-9 -6l-53 -41q0 -4 -4 -4q-3 -3 -8 -5t-8 -5l-9 -7q-41 -25 -49 -36h135q47 -4 76 -2h10l9 -2l6 -3q13 -7 16 -18zM322 1436q6 -16 6 -41v-279q0 -4 -1 -15t-1 -16v-170q0 -11 -1.5 -44 t-0.5 -52q-2 -2 -2 -8q0 -1 -1.5 -3t-1.5 -3q-6 -12 -19 -15.5t-25.5 -2t-26.5 -1.5h-8q-18 -1 -31 0t-24.5 10t-8.5 27q-2 2 -2 11q-3 16 0 28v258q-2 32 2 82v94h-51q-31 0 -39 23v8q-2 2 -2 10q-1 8 0 26.5t0 27.5q0 8 2 10v8q0 18 12 27q4 4 8 4q15 6 41.5 6t36.5 2h17 q11 -1 49.5 0.5t48.5 -2.5q3 0 5 -1t5 -1q5 0 13 -8z" />
<glyph unicode="&#xbe;" horiz-adv-x="1214" d="M569 358q-2 -2 -2 -4q-1 -1 -2 -5t-2 -5l-8 -14l-6 -15q-12 -19 -27 -53l-8 -16q-5 -15 -49 -105q-7 -14 -8 -18l-13 -17q-4 -7 -14.5 -29t-18 -33.5t-20 -26.5t-28.5 -20.5t-35 -2.5h-21q-16 0 -20 2q-31 4 -41 10q-6 6 -8 12q-3 33 28 88t35 70q9 17 10 19 q14 26 39 87.5t43 92.5l10 18q34 57 66 133l12 19q51 90 82 170l8 18q21 48 47 94l11 21l28 59l9 19q16 26 79 155l11 19q27 56 43 96q3 4 10 18q12 21 49 97l6 14q17 31 27 59q15 30 39 41q10 7 18 7q4 2 21 2h-2q8 -2 55 -2q14 0 18 -2q2 0 4.5 -1t7 -2t7.5 -2q6 -2 12 -8 l4 -16q-6 -29 -22 -60l-11 -20l-65 -141l-10 -15l-54 -110l-8 -17q-11 -22 -31 -66t-32 -65l-8 -16q-9 -16 -56 -117q-3 -4 -10 -18q-14 -20 -25 -45l-8 -17q-47 -108 -57 -125l-19 -37l-10 -16q-5 -11 -51 -96l-10 -21q-13 -31 -19 -41zM537 1012q0 -2 1.5 -12t0.5 -15v-14 q-2 -2 -2 -10q-3 -27 -13 -58q0 -1 -0.5 -1.5t-1 -2t-0.5 -4.5l-4 -6l-4 -8q-7 -20 -41 -54l-6 -6q-17 -15 -51 -26q-2 -1 -4.5 -2t-3.5 -1.5t-2 -0.5h2q-3 -3 -9 -3l-8 -4q-37 -6 -76 -6h-43q-3 0 -8 1t-8 1q-6 2 -16.5 4t-17 3.5t-15.5 5t-17 8.5q-4 0 -8 4q-53 40 -71 76 q0 1 -2 4t-3 6l-14 29q0 4 -2 6q0 3 -1 7t-1 7l-2 10l-4 27v8q0 24 27 39l8 2q14 2 49 2h43q1 0 4 -1t4 -1l6 -6q8 -4 11 -9.5t4.5 -14.5t3.5 -13q0 -6 2 -8q3 -21 20 -35l10 -6q20 -10 56 -6q3 0 5 1t5 1q25 3 35 26v-2q1 2 4.5 11t3.5 14v10q0 12 -8 31q-13 19 -37 22 q-2 2 -8 2q-13 4 -39.5 5t-38.5 4q-2 1 -4.5 2t-3.5 1.5t-2 0.5q-8 7 -11 18t-2 22t0 23v21q0 8 2 10q5 11 14.5 16.5t19.5 6t21.5 0.5h20.5q8 0 10 2h11q2 2 10 2l8 4q5 2 9.5 4.5t7.5 7t5 7t4.5 9.5t3 8.5t2.5 11.5l3 9v8q0 3 -4 19q-3 9 -10 16q-28 31 -84 14l-17 -8 l-6 -6q0 -1 -1 -2t-1 -2q-9 -9 -12 -25q-1 -2 -2 -4.5t-1.5 -3.5t-0.5 -2q-1 -2 -3.5 -8.5t-4 -9.5t-4.5 -8t-6.5 -8t-8.5 -5q-4 -4 -10 -4h-21q-7 0 -20 -1t-23 -0.5t-20 3.5q-6 0 -8 2q-17 9 -27 25l-4 14v8q1 8 3.5 23.5t4 24.5t6.5 21t13 21q0 5 4 9q13 27 47 57l8 6 q49 33 90 35h6q14 2 37 2h53q1 0 4 -1t4 -1q31 0 91 -31l24 -18q3 -5 8 -8q34 -45 45 -95q0 -1 1 -4t1 -4q0 -3 1.5 -5t1.5 -5q0 -1 1 -4t1 -4v-27v-10q0 -3 -1 -7.5t-2 -11t-2 -12.5l-1 -3q-1 -3 -1 -7q-1 -1 -4 -10q-18 -50 -67 -68q23 -10 33 -20q0 -3 4 -7l6 -6 q20 -26 33 -63q0 -4 2 -6zM1130 352q1 -7 0 -19.5t0 -19.5v-8q0 -16 -2 -22v-156v-72v-22q-1 -5 -4 -12t-4 -9l-8 -6q-11 -6 -24 -7.5t-31.5 -0.5t-28.5 0h-8q-4 0 -6 1q-1 1 -2 1q-3 0 -5.5 1t-5.5 1q-10 0 -16 4.5t-7.5 13.5t-2 16.5t0.5 19.5t1 16v53h-88q-10 -2 -47 -2 h-60q-33 -5 -59.5 6t-26.5 39q0 10 2 12q6 37 33 96q2 2 2 7l6 10q0 6 4 10l13 33l4 8q3 4 5 12.5t5 12.5v-2q3 7 7 20.5t7 20.5l4 8l13 28q0 1 1 4.5t1 4.5q2 11 24 59l15 37q2 2 2 8l24 59l4 9q5 14 12.5 22.5t21 11.5t22 4t27 0t24.5 -1q3 -3 12 -3h10l9 -6q13 -6 16 -22 q1 -15 -9 -39.5t-11 -28.5l-5 -8q0 -2 -4 -14l-4 -9q0 -2 -2 -4q-1 -1 -4 -10q0 -3 -1 -5t-1 -5l-4 -8l-16 -45l-4 -9q-4 -13 -23 -55q0 -1 -0.5 -2t-1.5 -3.5t-2 -4.5l-12 -31v-4l-15 -33q-2 -2 -2 -6q0 -2 -2 -4l-10 -29h84v39q-2 4 -2 27q0 1 1 5t1 5q7 25 35 29h26 q3 0 5.5 1t5.5 1q8 -2 38.5 -1.5t36.5 -8.5q4 -4 4 -9q2 -2 2 -10z" />
<glyph unicode="&#xbf;" horiz-adv-x="1179" d="M127 281l-8 32q-39 130 16 277l12 26q27 59 78 119l13 13l12 14q47 53 102 80l19 6q7 5 45 24l16 7q51 18 70 26q6 6 12 8l10 9q3 3 6 5q4 2 5 5l10 10l12 25q3 10 6 34t8.5 43t16.5 29q4 3 18 10q44 13 146 13q16 0 22 -2q3 0 10.5 -1t10.5 -1l22 -7q6 -1 19 -8 q8 -3 14 -12q6 -6 6 -16q11 -106 -25 -191l-8 -14q-5 -7 -16 -24.5t-16.5 -25.5t-15.5 -20t-21 -22l-17 -13q-59 -50 -125 -75l-16 -9l-18 -6l-19 -8q-101 -39 -145 -121l-8 -16q-10 -23 -13 -47q0 -3 -1 -7.5t-1 -7.5v-16q0 -34 15 -61q4 -13 8 -15q7 -14 10 -18l14 -15 q24 -27 58 -36l20 -7q107 -11 180 25l13 8l12 10q32 32 49 89l14 49q28 47 103 47h31q13 -2 39 -5t42.5 -5.5t36 -12.5t31.5 -28q15 -24 4 -66l-4 -27q-19 -107 -104 -217l-23 -24l-25 -23l-24 -18q-46 -34 -107 -56q-6 -4 -22 -8q-16 -3 -47 -7t-47 -7q-3 0 -9.5 -1 t-9.5 -1q-75 -8 -168 2q-4 0 -11 1t-11 1q-49 6 -86 20l-27 11q-33 16 -47.5 23.5t-37.5 24t-38 34.5l-16 18q-30 39 -39 59l-14 29q-3 5 -7.5 15.5t-7.5 15.5zM735 1198q-45 0 -82 27l-16 12q-24 21 -35 45l-4 25q0 3 -1 7t-1 7q-6 29 10 61q3 3 6 9.5t6 9.5q20 34 68 49 q16 4 19 4q9 4 40 4h21l18 -6l15 -6l30 -25l9 -10q14 -23 24 -55q0 -3 1 -9.5t1 -9.5q1 -41 -22 -77.5t-62 -53.5l-20 -6q-6 -2 -25 -2z" />
<glyph unicode="&#xc0;" horiz-adv-x="1296" d="M1202 -4l-16 -4q-25 -2 -35.5 -2t-37 2.5t-38.5 3.5h-18q-22 0 -58 4q-4 0 -16 4q-30 17 -47 55l-6 19l-15 53l-6 19q-43 116 -47 129h-190q-30 -1 -178 4q-3 0 -9.5 1t-9.5 1h-20q-7 0 -9 2q-2 -2 -6 -2h-12l-6 -21q-7 -20 -19.5 -72t-25.5 -79q-4 -16 -4 -19 q-4 -16 -4 -18l-7 -21q-1 -5 -4 -11.5t-4 -8.5q-11 -22 -28 -29q-13 -6 -19 -8q-81 -14 -182 -4q-3 0 -7 1t-7 1l-27 6q-8 4 -14 10q-12 16 -7 54q1 3 2 7t2 6.5t1 4.5l12 29q5 31 22 71q8 33 21 74l6 16l31 105l6 20q7 15 31 95q0 2 4 18l37 109q6 18 8 20l18 57l6 21 q18 49 25 80l6 18l25 62l6 20q4 10 30 100l7 19q9 38 28 100q1 2 9 19q10 22 18.5 47t17 57.5t13.5 48.5l6 19q7 15 10 39l6 16q19 66 64 76q25 0 39 2q95 5 112 4h19q14 0 18 -2q5 0 21 -4q12 -12 26 -33q11 -14 21 -37l12 -35l31 -80l6 -18q13 -33 35 -98.5t34 -98.5 q1 -4 4.5 -11l4.5 -9q0 -1 8 -23t12 -36l6 -19l23 -72l12 -36q1 -2 4 -9t4 -12l13 -37q17 -57 34 -94l7 -20q17 -57 22 -80l4 -19q6 -21 27 -88l6 -18q22 -56 31 -92l4 -19q9 -48 28 -84l7 -22q1 -3 11 -32.5t15 -47.5l10 -29q0 -1 5 -16l6 -19q14 -24 11 -57.5t-32 -42.5z M768 1612q1 -13 -9.5 -22t-23.5 -11h-20q-10 -2 -33 -2h-53q-21 0 -41 14.5t-29 30.5l-8 10l-68 92l-8 11l-4 8l-8 10l-6 6l-4 8q-4 1 -6 5q-3 4 -5 6l-12 20q-4 4 -4 10q-4 4 -4 9q-10 29 18 53q6 6 11 8q3 0 6 1t6 1q29 6 115 6q16 0 22 -2q21 0 43 -22l6 -9 q3 -7 23.5 -44t29.5 -58q8 -7 9 -12l8 -19l10 -16l25 -49l6 -10q10 -17 8 -33zM578 565q11 5 90 1.5t90 -3.5h20l-2 8l-6 23q-29 102 -55 158l-4 16q-13 29 -31.5 85t-28.5 81l-6 18q-7 21 -8 27q-5 -32 -16 -66q0 -1 -1 -3t-2 -6t-2 -7q0 -4 -4 -20q0 -3 -4 -15 q-1 -3 -24 -76l-6 -18q-13 -22 -19 -51q0 -3 -4 -19q-7 -23 -21.5 -65t-21.5 -66h45q4 0 11 -1t10 -1z" />
<glyph unicode="&#xc1;" horiz-adv-x="1296" d="M1202 -4l-16 -4q-25 -2 -35.5 -2t-37 2.5t-38.5 3.5h-18q-22 0 -58 4q-4 0 -16 4q-30 17 -47 55l-6 19l-15 53l-6 19q-43 116 -47 129h-190q-30 -1 -178 4q-3 0 -9.5 1t-9.5 1h-20q-7 0 -9 2q-2 -2 -6 -2h-12l-6 -21q-7 -20 -19.5 -72t-25.5 -79q-4 -16 -4 -19 q-4 -16 -4 -18l-7 -21q-1 -5 -4 -11.5t-4 -8.5q-11 -22 -28 -29q-13 -6 -19 -8q-81 -14 -182 -4q-3 0 -7 1t-7 1l-27 6q-8 4 -14 10q-12 16 -7 54q1 3 2 7t2 6.5t1 4.5l12 29q5 31 22 71q8 33 21 74l6 16l31 105l6 20q7 15 31 95q0 2 4 18l37 109q6 18 8 20l18 57l6 21 q18 49 25 80l6 18l25 62l6 20q4 10 30 100l7 19q9 38 28 100q1 2 9 19q10 22 18.5 47t17 57.5t13.5 48.5l6 19q7 15 10 39l6 16q19 66 64 76q25 0 39 2q95 5 112 4h19q14 0 18 -2q5 0 21 -4q12 -12 26 -33q11 -14 21 -37l12 -35l31 -80l6 -18q13 -33 35 -98.5t34 -98.5 q1 -4 4.5 -11l4.5 -9q0 -1 8 -23t12 -36l6 -19l23 -72l12 -36q1 -2 4 -9t4 -12l13 -37q17 -57 34 -94l7 -20q17 -57 22 -80l4 -19q6 -21 27 -88l6 -18q22 -56 31 -92l4 -19q9 -48 28 -84l7 -22q1 -3 11 -32.5t15 -47.5l10 -29q0 -1 5 -16l6 -19q14 -24 11 -57.5t-32 -42.5z M516 1612q-2 16 8 33l6 10l25 49l10 16l8 19q1 5 9 12q9 21 29.5 58t23.5 44l6 9q22 22 43 22q6 2 23 2q85 0 114 -6q3 0 6.5 -1t6.5 -1q3 -1 10 -8q28 -24 18 -53q0 -5 -4 -9q0 -6 -4 -10l-12 -20q-2 -2 -3.5 -4t-2 -3t-2 -2t-3.5 -2q-2 -2 -4 -8l-6 -6l-8 -10l-4 -8 l-8 -11l-68 -92l-8 -10q-9 -16 -29 -30.5t-41 -14.5h-53q-23 0 -33 2h-20q-13 2 -23.5 11t-9.5 22zM578 565q11 5 90 1.5t90 -3.5h20l-2 8l-6 23q-29 102 -55 158l-4 16q-13 29 -31.5 85t-28.5 81l-6 18q-7 21 -8 27q-5 -32 -16 -66q0 -1 -1 -3t-2 -6t-2 -7q0 -4 -4 -20 q0 -3 -4 -15q-1 -3 -24 -76l-6 -18q-13 -22 -19 -51q0 -3 -4 -19q-7 -23 -21.5 -65t-21.5 -66h45q4 0 11 -1t10 -1z" />
<glyph unicode="&#xc2;" horiz-adv-x="1296" d="M1202 -4l-16 -4q-25 -2 -35.5 -2t-37 2.5t-38.5 3.5h-18q-22 0 -58 4q-4 0 -16 4q-30 17 -47 55l-6 19l-15 53l-6 19q-43 116 -47 129h-190q-30 -1 -178 4q-3 0 -9.5 1t-9.5 1h-20q-7 0 -9 2q-2 -2 -6 -2h-12l-6 -21q-7 -20 -19.5 -72t-25.5 -79q-4 -16 -4 -19 q-4 -16 -4 -18l-7 -21q-1 -5 -4 -11.5t-4 -8.5q-11 -22 -28 -29q-13 -6 -19 -8q-81 -14 -182 -4q-3 0 -7 1t-7 1l-27 6q-8 4 -14 10q-12 16 -7 54q1 3 2 7t2 6.5t1 4.5l12 29q5 31 22 71q8 33 21 74l6 16l31 105l6 20q7 15 31 95q0 2 4 18l37 109q6 18 8 20l18 57l6 21 q18 49 25 80l6 18l25 62l6 20q4 10 30 100l7 19q9 38 28 100q1 2 9 19q10 22 18.5 47t17 57.5t13.5 48.5l6 19q7 15 10 39l6 16q19 66 64 76q25 0 39 2q95 5 112 4h19q14 0 18 -2q5 0 21 -4q12 -12 26 -33q11 -14 21 -37l12 -35l31 -80l6 -18q13 -33 35 -98.5t34 -98.5 q1 -4 4.5 -11l4.5 -9q0 -1 8 -23t12 -36l6 -19l23 -72l12 -36q1 -2 4 -9t4 -12l13 -37q17 -57 34 -94l7 -20q17 -57 22 -80l4 -19q6 -21 27 -88l6 -18q22 -56 31 -92l4 -19q9 -48 28 -84l7 -22q1 -3 11 -32.5t15 -47.5l10 -29q0 -1 5 -16l6 -19q14 -24 11 -57.5t-32 -42.5z M885 1655l6 -10q10 -17 8 -33q1 -13 -9.5 -22t-23.5 -11h-20q-10 -2 -33 -2h-39q-24 0 -37 7.5t-32 37.5l-9 10l-49 72l-45 -72l-8 -10q-11 -19 -32 -32t-44 -13h-35q-22 0 -32 2h-21q-13 2 -23.5 11t-9.5 22q-2 15 9 33l6 10l18 37q14 23 21 32l6 13q35 41 61 86q2 6 8 12 q25 41 62 49l3 1q3 1 7 1h96q46 -3 76 -61q1 -1 1.5 -2.5t2 -3t4.5 -2.5q11 -16 31 -47t31 -46q1 -3 3 -5t3 -5q1 -1 1.5 -2.5t2 -3t4.5 -2.5q1 -3 3 -5t3 -5q3 -8 12.5 -22.5t12.5 -18.5zM578 565q11 5 90 1.5t90 -3.5h20l-2 8l-6 23q-29 102 -55 158l-4 16 q-13 29 -31.5 85t-28.5 81l-6 18q-7 21 -8 27q-5 -32 -16 -66q0 -1 -1 -3t-2 -6t-2 -7q0 -4 -4 -20q0 -3 -4 -15q-1 -3 -24 -76l-6 -18q-13 -22 -19 -51q0 -3 -4 -19q-7 -23 -21.5 -65t-21.5 -66h45q4 0 11 -1t10 -1z" />
<glyph unicode="&#xc3;" horiz-adv-x="1296" d="M1202 -4l-16 -4q-25 -2 -35.5 -2t-37 2.5t-38.5 3.5h-18q-22 0 -58 4q-4 0 -16 4q-30 17 -47 55l-6 19l-15 53l-6 19q-43 116 -47 129h-190q-30 -1 -178 4q-3 0 -9.5 1t-9.5 1h-20q-7 0 -9 2q-2 -2 -6 -2h-12l-6 -21q-7 -20 -19.5 -72t-25.5 -79q-4 -16 -4 -19 q-4 -16 -4 -18l-7 -21q-1 -5 -4 -11.5t-4 -8.5q-11 -22 -28 -29q-13 -6 -19 -8q-81 -14 -182 -4q-3 0 -7 1t-7 1l-27 6q-8 4 -14 10q-12 16 -7 54q1 3 2 7t2 6.5t1 4.5l12 29q5 31 22 71q8 33 21 74l6 16l31 105l6 20q7 15 31 95q0 2 4 18l37 109q6 18 8 20l18 57l6 21 q18 49 25 80l6 18l25 62l6 20q4 10 30 100l7 19q9 38 28 100q1 2 9 19q10 22 18.5 47t17 57.5t13.5 48.5l6 19q7 15 10 39l6 16q19 66 64 76q25 0 39 2q95 5 112 4h19q14 0 18 -2q5 0 21 -4q12 -12 26 -33q11 -14 21 -37l12 -35l31 -80l6 -18q13 -33 35 -98.5t34 -98.5 q1 -4 4.5 -11l4.5 -9q0 -1 8 -23t12 -36l6 -19l23 -72l12 -36q1 -2 4 -9t4 -12l13 -37q17 -57 34 -94l7 -20q17 -57 22 -80l4 -19q6 -21 27 -88l6 -18q22 -56 31 -92l4 -19q9 -48 28 -84l7 -22q1 -3 11 -32.5t15 -47.5l10 -29q0 -1 5 -16l6 -19q14 -24 11 -57.5t-32 -42.5z M958 1802q0 -63 -4 -84q0 -3 -1 -6t-1 -6q-8 -37 -32 -61l-9 -11l-8 -8q-1 -1 -2.5 -1.5t-3 -2t-2.5 -4.5q-26 -23 -51 -31l-13 -4q-3 0 -6 -1t-6 -1q-1 -1 -10 -4q-76 -14 -127 8q-6 0 -8 2q-15 6 -33 21q-1 1 -2.5 1.5t-3 2t-2.5 4.5l-8 6q0 1 -29 41l-10 10q-19 16 -41 6 q-19 -9 -19 -43v-10q0 -6 -2 -8q0 -8 -2 -10l-6 -9q-8 -10 -27 -20q-3 0 -6 -1t-6 -1h-26q-34 0 -48 2q-3 0 -11 1t-13 1q-1 0 -4 1t-4 1q-33 8 -33 45v12q0 5 -0.5 18t0 20.5t1 18t3 20t6.5 18.5q0 1 1 4t1 4l15 29l10 18q32 40 63 53l13 4q9 3 10 4q34 11 92 11h12 q26 -3 51 -17l13 -6q23 -8 52 -39.5t42 -40.5q2 -2 8 -2q28 -3 31 23q2 2 2 8v8q0 10 2 12q0 9 2 9q0 8 8 16q27 14 74 14h8h13h15.5t14 -0.5t15 -2t12 -3.5t12 -5.5t8.5 -8.5q2 -6 6 -10q4 -12 4 -15zM578 565q11 5 90 1.5t90 -3.5h20l-2 8l-6 23q-29 102 -55 158l-4 16 q-13 29 -31.5 85t-28.5 81l-6 18q-7 21 -8 27q-5 -32 -16 -66q0 -1 -1 -3t-2 -6t-2 -7q0 -4 -4 -20q0 -3 -4 -15q-1 -3 -24 -76l-6 -18q-13 -22 -19 -51q0 -3 -4 -19q-7 -23 -21.5 -65t-21.5 -66h45q4 0 11 -1t10 -1z" />
<glyph unicode="&#xc4;" horiz-adv-x="1296" d="M1202 -4l-16 -4q-25 -2 -35.5 -2t-37 2.5t-38.5 3.5h-18q-22 0 -58 4q-4 0 -16 4q-30 17 -47 55l-6 19l-15 53l-6 19q-43 116 -47 129h-190q-30 -1 -178 4q-3 0 -9.5 1t-9.5 1h-20q-7 0 -9 2q-2 -2 -6 -2h-12l-6 -21q-7 -20 -19.5 -72t-25.5 -79q-4 -16 -4 -19 q-4 -16 -4 -18l-7 -21q-1 -5 -4 -11.5t-4 -8.5q-11 -22 -28 -29q-13 -6 -19 -8q-81 -14 -182 -4q-3 0 -7 1t-7 1l-27 6q-8 4 -14 10q-12 16 -7 54q1 3 2 7t2 6.5t1 4.5l12 29q5 31 22 71q8 33 21 74l6 16l31 105l6 20q7 15 31 95q0 2 4 18l37 109q6 18 8 20l18 57l6 21 q18 49 25 80l6 18l25 62l6 20q4 10 30 100l7 19q9 38 28 100q1 2 9 19q10 22 18.5 47t17 57.5t13.5 48.5l6 19q7 15 10 39l6 16q19 66 64 76q25 0 39 2q95 5 112 4h19q14 0 18 -2q5 0 21 -4q12 -12 26 -33q11 -14 21 -37l12 -35l31 -80l6 -18q13 -33 35 -98.5t34 -98.5 q1 -4 4.5 -11l4.5 -9q0 -1 8 -23t12 -36l6 -19l23 -72l12 -36q1 -2 4 -9t4 -12l13 -37q17 -57 34 -94l7 -20q17 -57 22 -80l4 -19q6 -21 27 -88l6 -18q22 -56 31 -92l4 -19q9 -48 28 -84l7 -22q1 -3 11 -32.5t15 -47.5l10 -29q0 -1 5 -16l6 -19q14 -24 11 -57.5t-32 -42.5z M578 565q11 5 90 1.5t90 -3.5h20l-2 8l-6 23q-29 102 -55 158l-4 16q-13 29 -31.5 85t-28.5 81l-6 18q-7 21 -8 27q-5 -32 -16 -66q0 -1 -1 -3t-2 -6t-2 -7q0 -4 -4 -20q0 -3 -4 -15q-1 -3 -24 -76l-6 -18q-13 -22 -19 -51q0 -3 -4 -19q-7 -23 -21.5 -65t-21.5 -66h45 q4 0 11 -1t10 -1zM449 1835q43 0 81 -27l17 -12q19 -16 35 -45l4 -25q0 -3 1 -7t1 -7q6 -29 -10 -61q-3 -3 -6.5 -9.5t-6.5 -9.5q-21 -34 -67 -49q-16 -4 -19 -4q-9 -4 -41 -4h-20l-19 6l-14 6l-31 25l-8 10q-14 23 -24 55q0 3 -1.5 9.5t-1.5 9.5q-1 41 22 77.5t62 53.5 l21 6q6 2 25 2zM768 1817l20 10q37 14 86 4l21 -6q27 -12 49 -31l12 -22q0 -3 3 -6.5t4 -6.5q16 -32 10 -61q0 -13 -4 -21q-12 -42 -47 -69q-8 -8 -17 -11q-17 -11 -37 -18l-18 -6l-21 -2l-14 2l-37 12l-12 6q-24 21 -41 45l-8 17q-17 39 -7.5 80t40.5 71z" />
<glyph unicode="&#xc5;" horiz-adv-x="1296" d="M854 1602v-23q0 -25 -2 -31q-6 -18 -6 -26l-6 -15l-19 -26q-3 -13 -12 -19q-15 -22 -37 -37h-10l14 -18q11 -14 21 -37l12 -35l31 -80l6 -18q13 -33 35 -98.5t34 -98.5q1 -4 4.5 -11l4.5 -9q0 -1 8 -23t12 -36l6 -19l23 -72l12 -36q1 -2 4 -9t4 -12l13 -37q17 -57 34 -94 l7 -20q17 -57 22 -80l4 -19q6 -21 27 -88l6 -18q22 -56 31 -92l4 -19q9 -48 28 -84l7 -22q1 -3 11 -32.5t15 -47.5l10 -29q0 -1 5 -16l6 -19q14 -24 11 -57.5t-32 -42.5l-16 -4q-25 -2 -35.5 -2t-37 2.5t-38.5 3.5h-18q-22 0 -58 4q-4 0 -16 4q-30 17 -47 55l-6 19l-15 53 l-6 19q-43 116 -47 129h-190q-30 -1 -178 4q-3 0 -9.5 1t-9.5 1h-20q-7 0 -9 2q-2 -2 -6 -2h-12l-6 -21q-7 -20 -19.5 -72t-25.5 -79q-4 -16 -4 -19q-4 -16 -4 -18l-7 -21q-1 -5 -4 -11.5t-4 -8.5q-11 -22 -28 -29q-13 -6 -19 -8q-81 -14 -182 -4q-3 0 -7 1t-7 1l-27 6 q-8 4 -14 10q-12 16 -7 54q1 3 2 7t2 6.5t1 4.5l12 29q5 31 22 71q8 33 21 74l6 16l31 105l6 20q7 15 31 95q0 2 4 18l37 109q6 18 8 20l18 57l6 21q18 49 25 80l6 18l25 62l6 20q4 10 30 100l7 19q9 38 28 100q1 2 9 19q10 22 18.5 47t17 57.5t13.5 48.5l6 19q7 15 10 39 l6 16q9 38 37 63q-25 20 -31 29l-14 14q-37 58 -37 123q0 3 1 8.5t1 8.5q14 103 113 164q14 7 18 8q59 26 123 10q7 0 23 -4l24 -10l37 -17l12 -16q55 -42 70 -143zM578 565q11 5 90 1.5t90 -3.5h20l-2 8l-6 23q-29 102 -55 158l-4 16q-13 29 -31.5 85t-28.5 81l-6 18 q-7 21 -8 27q-5 -32 -16 -66q0 -1 -1 -3t-2 -6t-2 -7q0 -4 -4 -20q0 -3 -4 -15q-1 -3 -24 -76l-6 -18q-13 -22 -19 -51q0 -3 -4 -19q-7 -23 -21.5 -65t-21.5 -66h45q4 0 11 -1t10 -1zM655 1530q3 0 21 6q32 28 29 61l-5 15q-3 13 -8 18q-28 32 -63 23q-50 -9 -56 -58v-16 q3 -3 6.5 -10t6.5 -10q7 -11 26 -27q7 -1 14.5 -3.5t10.5 -2.5q10 0 18 4z" />
<glyph unicode="&#xc6;" horiz-adv-x="1687" d="M717 123v14q0 21 -1 69t-1 73h-35q-34 -1 -186 4q-3 0 -9.5 1t-9.5 1h-20q-7 0 -9 2q-2 -2 -6 -2h-12l-6 -21q-7 -20 -19.5 -72t-25.5 -79q-4 -16 -4 -19q-4 -16 -4 -18l-7 -21q-1 -5 -4 -11.5t-4 -8.5q-11 -22 -28 -29q-13 -6 -19 -8q-81 -14 -182 -4q-3 0 -7 1t-7 1 l-27 6q-8 4 -14 10q-12 16 -7 54q1 3 2 7t2 6.5t1 4.5l12 29q5 31 22 71q8 33 21 74l6 16l31 105l6 20q15 37 27 78q0 1 4 17q7 29 39 118v6q0 3 2 3q6 18 8 20l18 57l6 21q18 49 25 80l6 18l25 62l6 20q4 10 30 100l7 19l6 26q1 3 2.5 3.5t1.5 3.5q6 20 27.5 80t29.5 94 l6 14l13 43l6 18q7 16 10 39l6 17q10 39 33 59l14 10q32 7 56 7q4 2 18 2q63 -2 190 -2h17q25 -1 69.5 0.5t57.5 1.5h164q23 0 74 0.5t100.5 0.5t99.5 -1h39h18q18 -2 69 2t60 -6q17 -10 22 -25.5t3 -42.5q0 -3 -1 -11t-1 -12q-5 -11 -3 -56t1 -56v-13q-1 -10 -4.5 -23.5 t-3.5 -14.5l-10 -15q-8 -10 -26 -11.5t-47.5 2t-41.5 3.5h-14q-75 0 -226 -1t-198 -1q0 -16 1 -35l1 -18v-180q-2 -10 -2 -29h364q28 -4 39 -4h43q19 -3 34.5 -0.5t33.5 1.5t32 -9q22 -16 19 -45v-15l-6 -67v-23q-2 -14 -2 -41v-20q3 -29 -10 -43.5t-34.5 -15t-45.5 -1 t-43 -0.5h-25q-76 0 -220.5 -1t-185.5 -1v-18q1 -24 1 -52t-0.5 -62t-0.5 -52v-141h371q35 -5 39 -5h18q18 -2 69 2t60 -6q20 -10 23 -26l4 -21q-1 -24 0 -67.5t0 -67.5q-2 -4 -2 -20q-5 -8 0 -39q0 -24 -8 -27q-15 -7 -39 -10q-23 -3 -66.5 1t-60.5 3h-23q-54 0 -163 -1 t-152 -1h-45q-21 -1 -94 0.5t-94 -2.5h-21h-33h-14q-15 0 -23 4q-15 7 -22.5 17.5t-9.5 24t-1 26t3 30t2 27.5zM578 565q27 1 74 -0.5t63 -1.5v160q-2 36 2 111v22q1 25 1 70t1 81.5t4 69.5v15q-2 31 -2 92h-23q-6 -6 -6 -17l-4 -16q-5 -28 -11.5 -55t-19 -66t-16.5 -55 q-1 -5 -4 -12t-4 -9l-17 -61q-6 -19 -8 -31l-4 -12q-3 -12 -10 -32t-10 -32l-6 -18q-13 -22 -19 -51q0 -3 -4 -19q-7 -23 -21.5 -65t-21.5 -66h45q4 0 11 -1t10 -1z" />
<glyph unicode="&#xc7;" horiz-adv-x="1208" d="M852 -233q11 -47 2 -78q-2 -2 -2 -8q0 -3 -16 -48q0 -1 -2 -4t-3 -6l-6 -12q-3 -9 -16 -25l-8 -6q-45 -56 -119 -69l-14 -5q-14 -2 -35 -2q-25 0 -39 2q-66 12 -92 27h-2l-6 6q-3 0 -7 4l-8 6q-52 37 -73 125v2q-3 3 -3 37q0 5 6.5 13t8.5 8q11 4 55 4h41h31 q10 -3 24 -23q1 -3 4.5 -7t4.5 -7q0 -9 14 -27q12 -15 35 -12l14 2q1 0 2 0.5t3.5 1.5t4.5 2l6 6q7 4 7 7q10 13 12 20q0 1 0.5 2.5t1.5 5t2 6.5v21q0 1 -1 4t-1 4q-10 24 -19 31l-8 6q-12 6 -30 6h-46q-33 0 -45 12q-6 6 -8.5 14t-2.5 18t-0.5 23t-0.5 27q3 19 0 31v12 q-2 14 -2 56q-67 3 -119 22l-26 10q-33 16 -47.5 23.5t-37.5 24t-38 34.5l-17 19q-28 36 -38 59q-28 55 -39 92q-22 63 -33 162q-6 33 -10 98v19q-5 147 -7 162v18q-3 81 5 151q0 3 1 9.5t1 9.5l4 55q0 3 1 9.5t1 9.5l4 39q11 98 33 161q11 40 39 93q10 23 38 59l17 18 q15 18 38 34.5t37.5 24t47.5 23.5l26 11q39 15 83.5 19.5t105 4.5t86.5 2h30q7 -1 36.5 -7.5t41.5 -9.5t35 -9.5t40.5 -14.5t33.5 -18l16 -13q36 -23 72 -59l14 -14q35 -43 47 -74q15 -25 21 -39q17 -29 28 -84l5 -16q1 -4 5.5 -29.5t5 -35.5t-2 -28t-10.5 -32q-3 -3 -3 -10 q-51 -28 -133 -11h-69q-4 0 -17 -0.5t-19 -0.5t-14.5 2.5t-13.5 7.5q-6 6 -10 16t-5.5 17.5t-4.5 21.5t-4 20l-4 19q-9 27 -29 53q-4 6 -11 15t-8 10l-12 10l-12 8q-73 36 -180 25l-21 -7q-33 -8 -57 -36l-14 -15q-6 -8 -11 -18q-13 -22 -16 -29q-12 -39 -14 -67 q0 -3 -1 -9.5t-1 -9.5q-7 -40 -7 -65q-4 -62 -4 -82q0 -4 -1 -11t-1 -10q5 -11 1.5 -90t-3.5 -90q0 -4 1 -11.5t1 -11.5q0 -3 1 -9.5t1 -10.5q0 -20 4 -82q0 -26 7 -66q0 -3 1 -9t1 -9q2 -29 14 -68q2 -4 16 -28q6 -13 11 -19l14 -14q26 -29 57 -37l21 -6q107 -11 180 25 l12 8l12 10q1 1 8 10t11 15q23 29 33 71l4 21q0 3 1 7t1 7q0 26 8 39q8 20 20 27q28 14 67 15.5t71 -3.5t71 0q25 0 31 -2q18 -7 23 -12q19 -21 6 -88v-13l-10 -63q0 -3 -1.5 -10.5t-1.5 -10.5t-1 -9t-1 -9q-56 -123 -94 -170l-14 -15q-36 -36 -72 -59l-16 -12 q-14 -8 -30.5 -15.5t-28.5 -12t-33 -10.5t-30 -8t-34 -7.5t-31 -6.5h-22v-34q0 -7 2 -9q1 0 3 -0.5t6.5 -1.5t8.5 -2t8.5 -2t7 -1.5t3.5 -0.5t4 -1t4 -1q39 -10 76 -47l8 -12q22 -32 33 -66l2.5 -7.5t2.5 -8.5t1 -8q2 -2 2 -6z" />
<glyph unicode="&#xc8;" horiz-adv-x="1099" d="M991 246l4 -21q-2 -18 -0.5 -96t-9.5 -98l-4 -13l-10 -14q-8 -10 -26 -11.5t-47.5 2t-41.5 3.5h-14q-59 0 -184.5 -1t-176.5 -1h-45q-21 -1 -94 0.5t-94 -2.5h-21q-58 -4 -92 14q-6 6 -8 12q-3 18 -3 30t2.5 36t2.5 37v14q0 100 -1 288.5t-1 203.5v94q-2 36 2 111v22 q1 25 1 70t1 81.5t4 69.5v15v168v73q-7 27 -4 43q0 4 1 11t1 10q11 30 53 41q3 0 9.5 1t9.5 1q125 4 170 -2h407q28 -4 39 -4h19q18 -2 69 2t60 -6q17 -10 21.5 -25.5t2.5 -42.5q0 -3 -1 -11t-1 -12q-5 -11 -3 -56t1 -56v-13q-1 -10 -5 -24l-3 -14l-10 -15q-8 -10 -26 -11.5 t-47.5 2t-41.5 3.5h-14q-75 0 -226 -1t-198 -1q0 -16 1 -35l1 -18v-180q-2 -10 -2 -29h364q28 -4 39 -4h43q20 -3 35 -0.5t33.5 1.5t32.5 -9q21 -15 18 -45v-15l-6 -67v-23q-2 -14 -2 -41v-20q3 -29 -10 -43.5t-34.5 -15t-45.5 -1t-43 -0.5h-25q-76 0 -220 -1t-185 -1v-18 v-185v-122h370q35 -5 39 -5h19q18 -2 69 2t60 -6q19 -9 22 -26zM680 1612q1 -13 -9.5 -22t-23.5 -11h-20q-10 -2 -33 -2h-53q-21 0 -41 14.5t-29 30.5l-8 10l-68 92l-8 11l-4 8l-8 10l-6 6l-4 8q-4 1 -6 5q-3 4 -5 6l-12 20q-4 4 -4 10q-4 4 -4 9q-10 29 18 53q7 7 10 8 q3 0 6.5 1t6.5 1q29 6 114 6q17 0 23 -2q21 0 43 -22l6 -9q3 -7 23.5 -44t29.5 -58q8 -7 9 -12l8 -19l10 -16l25 -49l6 -10q10 -17 8 -33z" />
<glyph unicode="&#xc9;" horiz-adv-x="1099" d="M991 246l4 -21q-2 -18 -0.5 -96t-9.5 -98l-4 -13l-10 -14q-8 -10 -26 -11.5t-47.5 2t-41.5 3.5h-14q-59 0 -184.5 -1t-176.5 -1h-45q-21 -1 -94 0.5t-94 -2.5h-21q-58 -4 -92 14q-6 6 -8 12q-3 18 -3 30t2.5 36t2.5 37v14q0 100 -1 288.5t-1 203.5v94q-2 36 2 111v22 q1 25 1 70t1 81.5t4 69.5v15v168v73q-7 27 -4 43q0 4 1 11t1 10q11 30 53 41q3 0 9.5 1t9.5 1q125 4 170 -2h407q28 -4 39 -4h19q18 -2 69 2t60 -6q17 -10 21.5 -25.5t2.5 -42.5q0 -3 -1 -11t-1 -12q-5 -11 -3 -56t1 -56v-13q-1 -10 -5 -24l-3 -14l-10 -15q-8 -10 -26 -11.5 t-47.5 2t-41.5 3.5h-14q-75 0 -226 -1t-198 -1q0 -16 1 -35l1 -18v-180q-2 -10 -2 -29h364q28 -4 39 -4h43q20 -3 35 -0.5t33.5 1.5t32.5 -9q21 -15 18 -45v-15l-6 -67v-23q-2 -14 -2 -41v-20q3 -29 -10 -43.5t-34.5 -15t-45.5 -1t-43 -0.5h-25q-76 0 -220 -1t-185 -1v-18 v-185v-122h370q35 -5 39 -5h19q18 -2 69 2t60 -6q19 -9 22 -26zM428 1612q-2 16 8 33l6 10l25 49l10 16l8 19q1 5 9 12q9 21 29.5 58t23.5 44l6 9q22 22 43 22q6 2 22 2q86 0 115 -6q3 0 6 -1t6 -1q5 -2 11 -8q28 -24 18 -53q0 -5 -4 -9q0 -6 -4 -10l-12 -20q-2 -2 -3.5 -4 t-2 -3t-2 -2t-3.5 -2q-2 -2 -4 -8l-6 -6l-8 -10l-4 -8l-8 -11l-68 -92l-8 -10q-9 -16 -29 -30.5t-41 -14.5h-53q-23 0 -33 2h-20q-13 2 -23.5 11t-9.5 22z" />
<glyph unicode="&#xca;" horiz-adv-x="1099" d="M991 246l4 -21q-2 -18 -0.5 -96t-9.5 -98l-4 -13l-10 -14q-8 -10 -26 -11.5t-47.5 2t-41.5 3.5h-14q-59 0 -184.5 -1t-176.5 -1h-45q-21 -1 -94 0.5t-94 -2.5h-21q-58 -4 -92 14q-6 6 -8 12q-3 18 -3 30t2.5 36t2.5 37v14q0 100 -1 288.5t-1 203.5v94q-2 36 2 111v22 q1 25 1 70t1 81.5t4 69.5v15v168v73q-7 27 -4 43q0 4 1 11t1 10q11 30 53 41q3 0 9.5 1t9.5 1q125 4 170 -2h407q28 -4 39 -4h19q18 -2 69 2t60 -6q17 -10 21.5 -25.5t2.5 -42.5q0 -3 -1 -11t-1 -12q-5 -11 -3 -56t1 -56v-13q-1 -10 -5 -24l-3 -14l-10 -15q-8 -10 -26 -11.5 t-47.5 2t-41.5 3.5h-14q-75 0 -226 -1t-198 -1q0 -16 1 -35l1 -18v-180q-2 -10 -2 -29h364q28 -4 39 -4h43q20 -3 35 -0.5t33.5 1.5t32.5 -9q21 -15 18 -45v-15l-6 -67v-23q-2 -14 -2 -41v-20q3 -29 -10 -43.5t-34.5 -15t-45.5 -1t-43 -0.5h-25q-76 0 -220 -1t-185 -1v-18 v-185v-122h370q35 -5 39 -5h19q18 -2 69 2t60 -6q19 -9 22 -26zM786 1655l7 -10q10 -17 8 -33q1 -13 -9.5 -22t-23.5 -11h-20q-10 -2 -33 -2h-39q-25 0 -38 8t-32 37l-8 10l-49 72l-45 -72l-8 -10q-11 -19 -32 -32t-44 -13h-35q-23 0 -33 2h-20q-13 2 -23.5 11t-9.5 22 q-2 16 8 33l6 10l19 37q17 28 20 32l6 13q38 44 62 86q2 6 8 12q25 41 61 49q1 0 4 1t7 1h96q46 -3 76 -61q1 -1 1.5 -2.5t2 -3t4.5 -2.5q12 -15 30.5 -46t30.5 -47q1 -3 3.5 -5t3.5 -5q1 -1 1.5 -2.5t2 -3t4.5 -2.5q1 -3 3 -5t3 -5q4 -8 13 -23t11 -18z" />
<glyph unicode="&#xcb;" horiz-adv-x="1099" d="M991 246l4 -21q-2 -18 -0.5 -96t-9.5 -98l-4 -13l-10 -14q-8 -10 -26 -11.5t-47.5 2t-41.5 3.5h-14q-59 0 -184.5 -1t-176.5 -1h-45q-21 -1 -94 0.5t-94 -2.5h-21q-58 -4 -92 14q-6 6 -8 12q-3 18 -3 30t2.5 36t2.5 37v14q0 100 -1 288.5t-1 203.5v94q-2 36 2 111v22 q1 25 1 70t1 81.5t4 69.5v15v168v73q-7 27 -4 43q0 4 1 11t1 10q11 30 53 41q3 0 9.5 1t9.5 1q125 4 170 -2h407q28 -4 39 -4h19q18 -2 69 2t60 -6q17 -10 21.5 -25.5t2.5 -42.5q0 -3 -1 -11t-1 -12q-5 -11 -3 -56t1 -56v-13q-1 -10 -5 -24l-3 -14l-10 -15q-8 -10 -26 -11.5 t-47.5 2t-41.5 3.5h-14q-75 0 -226 -1t-198 -1q0 -16 1 -35l1 -18v-180q-2 -10 -2 -29h364q28 -4 39 -4h43q20 -3 35 -0.5t33.5 1.5t32.5 -9q21 -15 18 -45v-15l-6 -67v-23q-2 -14 -2 -41v-20q3 -29 -10 -43.5t-34.5 -15t-45.5 -1t-43 -0.5h-25q-76 0 -220 -1t-185 -1v-18 v-185v-122h370q35 -5 39 -5h19q18 -2 69 2t60 -6q19 -9 22 -26zM350 1835q44 0 82 -27l17 -12q17 -15 34 -45l4 -25q0 -3 1 -7t1 -7q6 -29 -10 -61q-3 -3 -6 -9.5t-6 -9.5q-20 -34 -68 -49q-16 -4 -18 -4q-9 -4 -41 -4h-21l-18 6l-14 6l-31 25l-8 10q-16 26 -25 55 q0 3 -1 9.5t-1 9.5q-1 41 22 77.5t62 53.5l21 6q6 2 24 2zM670 1817l20 10q37 14 86 4l21 -6q27 -12 49 -31l12 -22q0 -3 2.5 -7t3.5 -6q16 -32 10 -61q0 -13 -4 -21q-12 -42 -47 -69q-8 -8 -16 -11q-17 -11 -37 -18l-18 -6l-21 -2l-14 2l-37 12l-12 6q-24 21 -41 45l-9 17 q-17 39 -7.5 80t40.5 71z" />
<glyph unicode="&#xcc;" horiz-adv-x="542" d="M412 197q-4 -28 -4 -39v-19q-2 -18 1.5 -69t-6.5 -60q-12 -22 -37 -24t-61 3t-57 1h-21q-45 -3 -77 8q-3 3 -7.5 5t-7.5 5q-10 8 -11.5 26t2 47.5t3.5 41.5v14q0 100 -1 288.5t-1 203.5v94q-1 30 4 178q0 3 1 9.5t1 9.5v20q0 6 2 8v385q-7 27 -4 43q0 4 1 11t1 10 q11 30 53 41q3 0 9.5 1t9.5 1q131 4 182 -4q5 -2 12 -9q8 -3 11 -12q18 -32 8 -72q2 -2 2 -16v-22q0 -27 -2 -41v-17q0 -32 0.5 -66t1 -56.5t0.5 -24.5v-180q-4 -62 -4 -82q0 -4 -1 -11t-1 -10q4 -11 1 -90t-3 -90v-440zM420 1612q1 -13 -9.5 -22t-23.5 -11h-20 q-10 -2 -33 -2h-53q-21 0 -41 14.5t-29 30.5l-8 10l-68 92l-8 11l-4 8l-8 10l-6 6l-5 8q-3 1 -5 5q-2 3 -5 6l-12 20q-4 4 -4 10q-4 4 -4 9q-10 29 18 53q7 7 10 8q3 0 6.5 1t6.5 1q29 6 114 6q17 0 23 -2q21 0 43 -22l6 -9q3 -7 23.5 -44t29.5 -58q6 -6 8 -12l9 -19l10 -16 l25 -49l6 -10q10 -17 8 -33z" />
<glyph unicode="&#xcd;" horiz-adv-x="542" d="M412 197q-4 -28 -4 -39v-19q-2 -18 1.5 -69t-6.5 -60q-12 -22 -37 -24t-61 3t-57 1h-21q-45 -3 -77 8q-3 3 -7.5 5t-7.5 5q-10 8 -11.5 26t2 47.5t3.5 41.5v14q0 100 -1 288.5t-1 203.5v94q-1 30 4 178q0 3 1 9.5t1 9.5v20q0 6 2 8v385q-7 27 -4 43q0 4 1 11t1 10 q11 30 53 41q3 0 9.5 1t9.5 1q131 4 182 -4q5 -2 12 -9q8 -3 11 -12q18 -32 8 -72q2 -2 2 -16v-22q0 -27 -2 -41v-17q0 -32 0.5 -66t1 -56.5t0.5 -24.5v-180q-4 -62 -4 -82q0 -4 -1 -11t-1 -10q4 -11 1 -90t-3 -90v-440zM137 1612q-2 16 8 33l7 10l24 49l10 16l9 19 q2 6 8 12q9 21 29.5 58t23.5 44l6 9q22 22 43 22q6 2 23 2q85 0 114 -6q3 0 6.5 -1t6.5 -1q3 -1 10 -8q28 -24 18 -53q0 -5 -4 -9q0 -6 -4 -10l-12 -20q-3 -3 -5 -6q-2 -4 -5 -5q-2 -2 -4 -8l-7 -6l-8 -10l-4 -8l-8 -11l-68 -92l-8 -10q-9 -16 -29 -30.5t-41 -14.5h-53 q-23 0 -33 2h-20q-13 2 -23.5 11t-9.5 22z" />
<glyph unicode="&#xce;" horiz-adv-x="526" d="M403 197q-4 -28 -4 -39v-19q-2 -18 2 -69t-6 -60q-12 -22 -37 -24t-61 3t-57 1h-21q-46 -3 -78 8q-3 3 -7 5t-7 5q-10 8 -11.5 26t2 47.5t3.5 41.5v14q0 100 -1 288.5t-1 203.5v94q-1 30 4 178q0 3 1 9.5t1 9.5v20q0 6 2 8v385q-7 27 -4 43q0 4 1 11t1 10q11 30 53 41 q3 0 9.5 1t9.5 1q131 4 182 -4q4 -2 12 -9q7 -2 10 -12q18 -33 9 -72q2 -2 2 -16v-22q0 -27 -2 -41v-17q0 -32 0.5 -66t1 -56.5t0.5 -24.5v-180q-4 -62 -4 -82q0 -4 -1 -11t-1 -10q4 -14 0.5 -90t-3.5 -90v-440zM500 1655l6 -10q10 -17 8 -33q1 -13 -9.5 -22t-23.5 -11h-20 q-10 -2 -33 -2h-39q-25 0 -38 8t-32 37l-8 10l-49 72l-45 -72l-8 -10q-11 -19 -32 -32t-44 -13h-35q-22 0 -32 2h-21q-13 2 -23.5 11t-9.5 22q-2 16 8 33l7 10l18 37q14 23 21 32l6 13q35 41 61 86q2 6 8 12q25 41 62 49q1 0 4 1t6 1h96q46 -3 76 -61q1 -1 1.5 -2.5t2 -3 t4.5 -2.5q11 -16 31 -47t31 -46q1 -3 3 -5t3 -5q1 -1 1.5 -2.5t2 -3t4.5 -2.5q1 -3 3 -5t3 -5q3 -8 13 -22.5t12 -18.5z" />
<glyph unicode="&#xcf;" horiz-adv-x="677" d="M479 197q-4 -28 -4 -39v-19q-2 -18 2 -69t-6 -60q-12 -22 -37.5 -24t-61.5 3t-57 1h-20q-46 -3 -78 8q-3 3 -7 5t-7 5q-10 8 -11.5 26t2 47.5t3.5 41.5v14q0 100 -1 288.5t-1 203.5v94q-1 30 4 178q0 3 1 9.5t1 9.5v20q0 6 2 8v385q-7 27 -4 43q0 4 1 11t1 10 q11 30 53 41q3 0 9 1t9 1q131 4 183 -4q5 -2 12 -9q7 -2 10 -12q18 -32 8 -72q2 -2 2 -16v-22q0 -27 -2 -41v-17q0 -32 0.5 -66t1 -56.5t0.5 -24.5v-180q-4 -62 -4 -82q0 -4 -1 -11t-1 -10q5 -11 1.5 -90t-3.5 -90v-440zM141 1835q45 0 82 -27l17 -12q17 -15 34 -45l5 -25 q0 -3 1 -7t1 -7q6 -28 -11 -61q-3 -3 -6 -9.5t-6 -9.5q-20 -34 -68 -49q-16 -4 -18 -4q-9 -4 -41 -4h-20l-19 6l-14 6l-31 25l-8 10q-16 26 -25 55q0 3 -1 9.5t-1 9.5q-1 41 22 77.5t62 53.5l21 6q6 2 24 2zM461 1817l20 10q37 14 86 4l21 -6q27 -12 49 -31l12 -22 q0 -3 2.5 -7t3.5 -6q17 -33 11 -61q0 -13 -4 -21q-12 -41 -48 -69q-8 -8 -16 -11q-17 -11 -37 -18l-18 -6l-21 -2l-14 2l-37 12l-12 6q-24 21 -41 45l-8 17q-17 38 -8 80t40 71z" />
<glyph unicode="&#xd0;" horiz-adv-x="1271" d="M1165 727v-22q4 -133 0 -179q-5 -69 -8 -84q-2 -8 -2 -26l-10 -64q0 -3 -1 -10t-1 -10t-1 -9.5t-1 -9.5q-56 -123 -94 -170l-15 -14q-38 -38 -71 -59l-17 -13q-16 -10 -33 -18t-40.5 -14.5t-34.5 -9.5t-42 -9.5t-36 -7.5h-51q-54 -4 -82 -4h-21q-21 -4 -112 0t-113 4 h-105q-52 -11 -74 24t-22 91v22q0 69 -1 244.5t-1 236.5q-54 -4 -90 -3t-55.5 13.5t-24.5 39.5q0 3 -1 9t-1 9q0 17 -0.5 35t-1 26.5t0.5 23.5t5 36q2 6 8 12q2 6 13 10q33 18 71 9q2 2 17 2h22q23 0 37 -2v20q0 3 1 9t1 9t1 9.5t1 9.5l4 55v27.5t0.5 68.5t1 89.5t0.5 99 v88.5v12q-3 38 13 74l8 16l14 13q29 10 67.5 11t69 -2t68.5 1h20q24 -1 65 2t64.5 3.5t65.5 -5.5q4 -2 16 -2h17q3 0 8 -1t8 -1q32 1 88.5 -9.5t81.5 -11.5l21 -8q27 -9 71 -34.5t58 -32.5q3 -1 5 -5q2 -3 5 -6l12 -10l15 -14q35 -43 47 -74q12 -19 20 -39 q12 -19 19.5 -43.5t10.5 -42t7 -47t6 -43.5l4 -39v-14l4 -41q5 -51 0 -201zM870 565v21q-5 34 7 114l-3 19v20q-5 86 -4 103v20q0 37 2 53l-4 23q0 37 -10 57l-6 41l-4 19q-49 108 -125 106q-4 2 -21 2q-25 3 -81 5.5t-86 5.5v2h-7q-2 -2 -14 -2q-36 0 -43 -9 q-4 -7 -4.5 -17.5t1 -25.5t1.5 -22v-180q-4 -62 -4 -82v-2h51q35 -5 39 -5h18q18 -2 69 2t60 -6q22 -12 24.5 -27t-2.5 -41t-1 -46v-21q2 -23 -8 -53l-10 -14q-8 -10 -26 -12t-48 1.5t-41 3.5h-129v-256q1 -8 0 -25t0.5 -26.5t7.5 -13.5q6 -5 15 -7.5t14 -3t19.5 0t17.5 0.5 v2l137 6h22q46 -4 85.5 20t60.5 66q7 14 8 18q6 19 10 60q10 20 10 57l4 23q-2 6 -2 26z" />
<glyph unicode="&#xd1;" horiz-adv-x="1296" d="M1174 1327v-22q0 -20 -3 -41v-17q0 -32 0.5 -66t1.5 -56.5t1 -24.5v-180q-5 -77 -5 -82q0 -4 -1 -11t-1 -10q5 -11 1.5 -90t-3.5 -90v-440q-4 -28 -4 -39v-29q-1 -15 1 -40.5t1.5 -44.5t-6.5 -34q-12 -22 -37.5 -24t-61.5 3t-57 1h-45q-25 -4 -42 10t-33.5 44t-22.5 38 q-1 2 -10 16q-61 106 -82 138l-10 16l-15 24l-8 13q0 9 -10 26q-22 22 -48.5 69.5t-39.5 64.5l-10 14l-9 14q-8 14 -27 50.5t-34 61.5t-33 48q-3 9 -8 14l-6 15q-3 9 -8 14q-2 6 -8 12q-19 26 -44 76t-38 70q5 -95 4 -113v-14q-2 -25 -2 -74v-440q-4 -17 -4 -74v-19 q0 -6 1.5 -24.5t2 -26.5t-1.5 -20.5t-7 -22.5q-12 -22 -37 -24t-61 3t-57 1h-21q-45 -3 -77 8l-15 10q-10 8 -11.5 26t2 47.5t3.5 41.5v14q0 100 -1 288.5t-1 203.5v112l6 179v20q0 1 1 3t1 3v387q-7 27 -4 43q0 4 1 11t1 10q11 30 53 41q3 0 9.5 1t9.5 1q9 0 27 1t26 1h18 q70 4 101 -10q5 -2 12 -9l8 -10l6 -10q6 -21 18 -41.5t31 -46.5t27 -39q3 -9 8 -14l11 -15l8 -16l39 -64l10 -14q8 -8 12 -16q7 -13 8 -19q8 -17 25.5 -46t24.5 -42q9 -14 10 -16l31 -64l10 -16q15 -33 39 -64l12 -16q31 -36 76 -129l10 -16l8 -15l10 -14q35 -52 50 -86v149 q0 109 4 140v18q0 3 1 9.5t1 9.5q-6 53 -6 106q0 14 2 18q0 80 6 160v129q-7 27 -4 43q0 4 1 11t1 10q11 30 53 41q3 0 9 1t9 1q132 4 183 -4q5 -2 12 -9q7 -2 10 -12q18 -32 8 -72q3 -3 3 -16zM958 1802q0 -63 -4 -84q0 -3 -1 -6t-1 -6q-8 -37 -32 -61l-9 -11l-8 -8 q-1 -1 -2.5 -1.5t-3 -2t-2.5 -4.5q-26 -23 -51 -31l-13 -4q-3 0 -6 -1t-6 -1q-1 -1 -10 -4q-76 -14 -127 8q-6 0 -8 2q-15 6 -33 21q-1 1 -2.5 1.5t-3 2t-2.5 4.5l-8 6q0 1 -29 41l-10 10q-19 16 -41 6q-19 -9 -19 -43v-10q0 -6 -2 -8q0 -8 -2 -10l-6 -9q-8 -10 -27 -20 q-3 0 -6 -1t-6 -1h-26q-34 0 -48 2q-3 0 -11 1t-13 1q-1 0 -4 1t-4 1q-33 8 -33 45v12q0 5 -0.5 18t0 20.5t1 18t3 20t6.5 18.5q0 1 1 4t1 4l15 29l10 18q32 40 63 53l13 4q9 3 10 4q34 11 92 11h12q26 -3 51 -17l13 -6q23 -8 52 -39.5t42 -40.5q2 -2 8 -2q28 -3 31 23 q2 2 2 8v8q0 10 2 12q0 9 2 9q0 8 8 16q27 14 74 14h8h13h15.5t14 -0.5t15 -2t12 -3.5t12 -5.5t8.5 -8.5q2 -6 6 -10q4 -12 4 -15z" />
<glyph unicode="&#xd2;" horiz-adv-x="1216" d="M1110 727v-22q5 -150 0 -201q-5 -69 -8 -84q-2 -8 -2 -27l-10 -63q0 -3 -1.5 -10.5t-1.5 -10.5t-1 -9t-1 -9q-56 -123 -94 -170l-14 -15q-36 -36 -72 -59l-16 -12q-14 -8 -30.5 -15.5t-28.5 -12t-33 -10.5t-30 -8t-34 -7.5t-31 -6.5h-30q-25 2 -86.5 2t-105 5t-83.5 20 l-26 10q-33 16 -47.5 23.5t-37.5 24t-38 34.5l-17 19q-28 36 -38 59q-28 55 -39 92q-22 63 -33 162q-6 33 -10 98v19q-5 147 -7 162v18q-3 81 5 151q0 3 1 9.5t1 9.5l4 55q0 3 1 9.5t1 9.5l4 39q11 98 33 161q11 40 39 93q10 23 38 59l17 18q15 18 38 34.5t37.5 24 t47.5 23.5l26 11q39 15 83.5 19.5t105 4.5t86.5 2h30q7 -1 36.5 -7.5t41.5 -9.5t35 -9.5t40.5 -14.5t33.5 -18l16 -13q36 -23 72 -59l14 -14q35 -43 47 -74q15 -25 21 -39q12 -19 19.5 -43.5t10.5 -42t7 -47t6 -43.5l4 -39v-14l4 -41q5 -51 0 -201zM815 586q0 3 -1 7t-1 7 q-1 19 2.5 54.5t3.5 50.5v18q0 21 -4 57v82q0 37 2 53l-4 23q0 37 -10 57q-12 80 -39 113q-4 6 -11 15t-8 10l-12 10l-12 8q-73 36 -180 25l-21 -7q-33 -8 -57 -36l-14 -15q-6 -8 -11 -18q-13 -22 -16 -29q-12 -39 -14 -67q0 -3 -1 -9.5t-1 -9.5q-7 -40 -7 -65 q-4 -62 -4 -82q0 -4 -1 -11t-1 -10q5 -11 1.5 -90t-3.5 -90q0 -4 1 -11.5t1 -11.5q0 -3 1 -9.5t1 -10.5q0 -20 4 -82q0 -26 7 -66q0 -3 1 -9t1 -9q2 -29 14 -68q2 -4 16 -28q6 -13 11 -19l14 -14q26 -29 57 -37l21 -6q107 -11 180 25l12 8l12 10q1 1 8 10t11 15 q28 34 39 112q10 20 10 58l4 22q-2 6 -2 27v43zM721 1612q1 -13 -9.5 -22t-23.5 -11h-20q-10 -2 -33 -2h-53q-21 0 -41 14.5t-29 30.5l-8 10l-68 92l-8 11l-4 8l-8 10l-6 6l-4 8q-4 1 -6 5q-3 4 -5 6l-12 20q-4 4 -4 10q-4 4 -4 9q-10 29 18 53q7 7 10 8q3 0 6.5 1t6.5 1 q29 6 114 6q17 0 23 -2q21 0 43 -22l6 -9q3 -7 23.5 -44t29.5 -58q7 -7 9 -12l8 -19l10 -16l25 -49l6 -10q10 -17 8 -33z" />
<glyph unicode="&#xd3;" horiz-adv-x="1216" d="M1110 727v-22q5 -150 0 -201q-5 -69 -8 -84q-2 -8 -2 -27l-10 -63q0 -3 -1.5 -10.5t-1.5 -10.5t-1 -9t-1 -9q-56 -123 -94 -170l-14 -15q-36 -36 -72 -59l-16 -12q-14 -8 -30.5 -15.5t-28.5 -12t-33 -10.5t-30 -8t-34 -7.5t-31 -6.5h-30q-25 2 -86.5 2t-105 5t-83.5 20 l-26 10q-33 16 -47.5 23.5t-37.5 24t-38 34.5l-17 19q-28 36 -38 59q-28 55 -39 92q-22 63 -33 162q-6 33 -10 98v19q-5 147 -7 162v18q-3 81 5 151q0 3 1 9.5t1 9.5l4 55q0 3 1 9.5t1 9.5l4 39q11 98 33 161q11 40 39 93q10 23 38 59l17 18q15 18 38 34.5t37.5 24 t47.5 23.5l26 11q39 15 83.5 19.5t105 4.5t86.5 2h30q7 -1 36.5 -7.5t41.5 -9.5t35 -9.5t40.5 -14.5t33.5 -18l16 -13q36 -23 72 -59l14 -14q35 -43 47 -74q15 -25 21 -39q12 -19 19.5 -43.5t10.5 -42t7 -47t6 -43.5l4 -39v-14l4 -41q5 -51 0 -201zM815 586q0 3 -1 7t-1 7 q-1 19 2.5 54.5t3.5 50.5v18q0 21 -4 57v82q0 37 2 53l-4 23q0 37 -10 57q-12 80 -39 113q-4 6 -11 15t-8 10l-12 10l-12 8q-73 36 -180 25l-21 -7q-33 -8 -57 -36l-14 -15q-6 -8 -11 -18q-13 -22 -16 -29q-12 -39 -14 -67q0 -3 -1 -9.5t-1 -9.5q-7 -40 -7 -65 q-4 -62 -4 -82q0 -4 -1 -11t-1 -10q5 -11 1.5 -90t-3.5 -90q0 -4 1 -11.5t1 -11.5q0 -3 1 -9.5t1 -10.5q0 -20 4 -82q0 -26 7 -66q0 -3 1 -9t1 -9q2 -29 14 -68q2 -4 16 -28q6 -13 11 -19l14 -14q26 -29 57 -37l21 -6q107 -11 180 25l12 8l12 10q1 1 8 10t11 15 q28 34 39 112q10 20 10 58l4 22q-2 6 -2 27v43zM489 1612q-2 15 9 33l6 10l24 49l11 16l8 19q2 6 8 12q9 21 29.5 58t23.5 44l6 9q22 22 43 22q6 2 23 2q86 0 115 -6q3 0 6 -1t6 -1q3 -1 10 -8q29 -25 19 -53q0 -4 -5 -9q0 -6 -4 -10l-12 -20q-3 -3 -5 -6q-2 -4 -5 -5 q-2 -2 -4 -8l-6 -6l-9 -10l-4 -8l-8 -11l-67 -92l-9 -10q-9 -16 -28.5 -30.5t-40.5 -14.5h-54q-22 0 -32 2h-21q-13 2 -23.5 11t-9.5 22z" />
<glyph unicode="&#xd4;" horiz-adv-x="1216" d="M1110 727v-22q5 -150 0 -201q-5 -69 -8 -84q-2 -8 -2 -27l-10 -63q0 -3 -1.5 -10.5t-1.5 -10.5t-1 -9t-1 -9q-56 -123 -94 -170l-14 -15q-36 -36 -72 -59l-16 -12q-14 -8 -30.5 -15.5t-28.5 -12t-33 -10.5t-30 -8t-34 -7.5t-31 -6.5h-30q-25 2 -86.5 2t-105 5t-83.5 20 l-26 10q-33 16 -47.5 23.5t-37.5 24t-38 34.5l-17 19q-28 36 -38 59q-28 55 -39 92q-22 63 -33 162q-6 33 -10 98v19q-5 147 -7 162v18q-3 81 5 151q0 3 1 9.5t1 9.5l4 55q0 3 1 9.5t1 9.5l4 39q11 98 33 161q11 40 39 93q10 23 38 59l17 18q15 18 38 34.5t37.5 24 t47.5 23.5l26 11q39 15 83.5 19.5t105 4.5t86.5 2h30q7 -1 36.5 -7.5t41.5 -9.5t35 -9.5t40.5 -14.5t33.5 -18l16 -13q36 -23 72 -59l14 -14q35 -43 47 -74q15 -25 21 -39q12 -19 19.5 -43.5t10.5 -42t7 -47t6 -43.5l4 -39v-14l4 -41q5 -51 0 -201zM815 586q0 3 -1 7t-1 7 q-1 19 2.5 54.5t3.5 50.5v18q0 21 -4 57v82q0 37 2 53l-4 23q0 37 -10 57q-12 80 -39 113q-4 6 -11 15t-8 10l-12 10l-12 8q-73 36 -180 25l-21 -7q-33 -8 -57 -36l-14 -15q-6 -8 -11 -18q-13 -22 -16 -29q-12 -39 -14 -67q0 -3 -1 -9.5t-1 -9.5q-7 -40 -7 -65 q-4 -62 -4 -82q0 -4 -1 -11t-1 -10q5 -11 1.5 -90t-3.5 -90q0 -4 1 -11.5t1 -11.5q0 -3 1 -9.5t1 -10.5q0 -20 4 -82q0 -26 7 -66q0 -3 1 -9t1 -9q2 -29 14 -68q2 -4 16 -28q6 -13 11 -19l14 -14q26 -29 57 -37l21 -6q107 -11 180 25l12 8l12 10q1 1 8 10t11 15 q28 34 39 112q10 20 10 58l4 22q-2 6 -2 27v43zM844 1655l6 -10q10 -17 8 -33q1 -13 -9.5 -22t-23.5 -11h-20q-10 -2 -33 -2h-39q-24 0 -37 7.5t-32 37.5l-9 10l-49 72l-45 -72l-8 -10q-11 -19 -32 -32t-44 -13h-35q-22 0 -32 2h-21q-13 2 -23.5 11t-9.5 22q-2 15 9 33l6 10 l18 37q14 23 21 32l6 13q35 41 61 86q2 6 8 12q25 41 62 49q1 0 4 1t6 1h96q46 -3 76 -61q1 -1 1.5 -2.5t2 -3t4.5 -2.5q11 -16 30.5 -47t31.5 -46q1 -3 3 -5t3 -5q1 -1 1.5 -2.5t2 -3t4.5 -2.5q1 -3 3 -5t3 -5q3 -8 13 -22.5t12 -18.5z" />
<glyph unicode="&#xd5;" horiz-adv-x="1216" d="M1110 727v-22q5 -150 0 -201q-5 -69 -8 -84q-2 -8 -2 -27l-10 -63q0 -3 -1.5 -10.5t-1.5 -10.5t-1 -9t-1 -9q-56 -123 -94 -170l-14 -15q-36 -36 -72 -59l-16 -12q-14 -8 -30.5 -15.5t-28.5 -12t-33 -10.5t-30 -8t-34 -7.5t-31 -6.5h-30q-25 2 -86.5 2t-105 5t-83.5 20 l-26 10q-33 16 -47.5 23.5t-37.5 24t-38 34.5l-17 19q-28 36 -38 59q-28 55 -39 92q-22 63 -33 162q-6 33 -10 98v19q-5 147 -7 162v18q-3 81 5 151q0 3 1 9.5t1 9.5l4 55q0 3 1 9.5t1 9.5l4 39q11 98 33 161q11 40 39 93q10 23 38 59l17 18q15 18 38 34.5t37.5 24 t47.5 23.5l26 11q39 15 83.5 19.5t105 4.5t86.5 2h30q7 -1 36.5 -7.5t41.5 -9.5t35 -9.5t40.5 -14.5t33.5 -18l16 -13q36 -23 72 -59l14 -14q35 -43 47 -74q15 -25 21 -39q12 -19 19.5 -43.5t10.5 -42t7 -47t6 -43.5l4 -39v-14l4 -41q5 -51 0 -201zM815 586q0 3 -1 7t-1 7 q-1 19 2.5 54.5t3.5 50.5v18q0 21 -4 57v82q0 37 2 53l-4 23q0 37 -10 57q-12 80 -39 113q-4 6 -11 15t-8 10l-12 10l-12 8q-73 36 -180 25l-21 -7q-33 -8 -57 -36l-14 -15q-6 -8 -11 -18q-13 -22 -16 -29q-12 -39 -14 -67q0 -3 -1 -9.5t-1 -9.5q-7 -40 -7 -65 q-4 -62 -4 -82q0 -4 -1 -11t-1 -10q5 -11 1.5 -90t-3.5 -90q0 -4 1 -11.5t1 -11.5q0 -3 1 -9.5t1 -10.5q0 -20 4 -82q0 -26 7 -66q0 -3 1 -9t1 -9q2 -29 14 -68q2 -4 16 -28q6 -13 11 -19l14 -14q26 -29 57 -37l21 -6q107 -11 180 25l12 8l12 10q1 1 8 10t11 15 q28 34 39 112q10 20 10 58l4 22q-2 6 -2 27v43zM918 1802q0 -58 -5 -84q0 -3 -1 -6t-1 -6q-8 -37 -32 -61l-9 -11l-8 -8q-1 -1 -2.5 -1.5t-3 -2t-2.5 -4.5q-26 -23 -51 -31l-12 -4q-3 0 -6.5 -1t-6.5 -1q-1 -1 -10 -4q-76 -14 -127 8q-6 0 -8 2q-15 6 -33 21q-1 1 -2.5 1.5 t-3 2t-2.5 4.5l-8 6q0 1 -29 41l-10 10q-19 16 -41 6q-19 -9 -19 -43v-10q0 -6 -2 -8q0 -8 -2 -10l-6 -9q-8 -11 -26 -20q-3 0 -6.5 -1t-6.5 -1h-26q-34 0 -48 2q-2 0 -10 1t-14 1q-1 0 -4 1t-4 1q-33 8 -33 45v12q0 5 -0.5 18t0 20.5t1 18t3 20t6.5 18.5q0 1 1 4t1 4l15 29 l10 18q32 40 63 53l13 4q9 3 10 4q34 11 92 11h12q26 -3 51 -17l13 -6q23 -8 52 -39.5t42 -40.5q2 -2 8 -2q28 -3 31 23q2 2 2 8v8q0 10 2 12q0 9 2 9q0 8 8 16q27 14 74 14h8h13h15.5t14 -0.5t15 -2t12 -3.5t12 -5.5t8.5 -8.5q2 -6 6 -10z" />
<glyph unicode="&#xd6;" horiz-adv-x="1216" d="M1110 727v-22q5 -150 0 -201q-5 -69 -8 -84q-2 -8 -2 -27l-10 -63q0 -3 -1.5 -10.5t-1.5 -10.5t-1 -9t-1 -9q-56 -123 -94 -170l-14 -15q-36 -36 -72 -59l-16 -12q-14 -8 -30.5 -15.5t-28.5 -12t-33 -10.5t-30 -8t-34 -7.5t-31 -6.5h-30q-25 2 -86.5 2t-105 5t-83.5 20 l-26 10q-33 16 -47.5 23.5t-37.5 24t-38 34.5l-17 19q-28 36 -38 59q-28 55 -39 92q-22 63 -33 162q-6 33 -10 98v19q-5 147 -7 162v18q-3 81 5 151q0 3 1 9.5t1 9.5l4 55q0 3 1 9.5t1 9.5l4 39q11 98 33 161q11 40 39 93q10 23 38 59l17 18q15 18 38 34.5t37.5 24 t47.5 23.5l26 11q39 15 83.5 19.5t105 4.5t86.5 2h30q7 -1 36.5 -7.5t41.5 -9.5t35 -9.5t40.5 -14.5t33.5 -18l16 -13q36 -23 72 -59l14 -14q35 -43 47 -74q15 -25 21 -39q12 -19 19.5 -43.5t10.5 -42t7 -47t6 -43.5l4 -39v-14l4 -41q5 -51 0 -201zM815 586q0 3 -1 7t-1 7 q-1 19 2.5 54.5t3.5 50.5v18q0 21 -4 57v82q0 37 2 53l-4 23q0 37 -10 57q-12 80 -39 113q-4 6 -11 15t-8 10l-12 10l-12 8q-73 36 -180 25l-21 -7q-33 -8 -57 -36l-14 -15q-6 -8 -11 -18q-13 -22 -16 -29q-12 -39 -14 -67q0 -3 -1 -9.5t-1 -9.5q-7 -40 -7 -65 q-4 -62 -4 -82q0 -4 -1 -11t-1 -10q5 -11 1.5 -90t-3.5 -90q0 -4 1 -11.5t1 -11.5q0 -3 1 -9.5t1 -10.5q0 -20 4 -82q0 -26 7 -66q0 -3 1 -9t1 -9q2 -29 14 -68q2 -4 16 -28q6 -13 11 -19l14 -14q26 -29 57 -37l21 -6q107 -11 180 25l12 8l12 10q1 1 8 10t11 15 q28 34 39 112q10 20 10 58l4 22q-2 6 -2 27v43zM410 1835q44 0 82 -27l16 -12q19 -16 35 -45l4 -25q0 -3 1 -7t1 -7q6 -29 -10 -61q-3 -3 -6.5 -9.5t-6.5 -9.5q-21 -34 -67 -49q-16 -4 -19 -4q-9 -4 -41 -4h-20l-19 6l-14 6l-31 25l-8 10q-14 23 -24 55q0 3 -1 9.5t-1 9.5 q-1 41 22 77.5t62 53.5l20 6q6 2 25 2zM729 1817l21 10q37 14 86 4l20 -6q27 -12 49 -31l13 -22q0 -3 2.5 -7t3.5 -6q16 -32 10 -61q0 -13 -4 -21q-12 -42 -47 -69q-8 -8 -17 -11q-17 -11 -37 -18l-18 -6l-20 -2l-15 2l-37 12l-12 6q-24 21 -41 45l-8 17q-17 39 -7.5 80 t40.5 71z" />
<glyph unicode="&#xd7;" horiz-adv-x="948" d="M784 795l15 -15q11 -8 15 -12.5t8.5 -15t8.5 -17.5l3 -16q0 -13 -11.5 -26.5t-34 -32.5t-30.5 -27l-129 -129l112 -115q72 -60 93.5 -93.5t-0.5 -66.5q-3 -3 -5.5 -7t-5.5 -7q-13 -13 -25 -26t-17.5 -18.5t-16.5 -15.5t-29 -24q-3 0 -7 -1t-7 -1q-5 -2 -16 2 q-33 9 -58 45q-2 0 -12 10l-17 15q-20 20 -26 30l-12 13q-87 87 -107 102q-93 -92 -108 -106q-60 -72 -93.5 -93.5t-66.5 0.5q-3 3 -7.5 5.5t-7.5 5.5q-13 13 -26 25t-18.5 17.5t-15.5 16.5t-24 29q0 3 -1 7t-1 7q-2 5 2 16q8 32 46 58q0 3 1 4.5t4 3.5t5 4l14 16 q21 21 31 27l12 12l100 103l-73 74q-9 15 -25 28l-12 15q-6 7 -43 39t-45 55q-7 23 2 36t30.5 27t32.5 31l15 14q7 8 12 13t7.5 6.5t11 5.5t14.5 8l16 2q13 0 26.5 -11.5t32.5 -34t27 -30.5l125 -127l80 80q17 10 29 25l14 12q7 6 39 43t55 45q23 7 36 -2t27 -30.5t31 -32.5 z" />
<glyph unicode="&#xd8;" horiz-adv-x="1216" d="M1110 727v-22q5 -150 0 -201q-5 -69 -8 -84q-2 -8 -2 -27q0 -10 -2 -16l-6 -31q0 -10 -2 -12q-2 -40 -27 -94l-6 -13q-27 -58 -66 -106l-14 -15q-36 -36 -72 -59l-16 -12q-14 -8 -30.5 -15.5t-28.5 -12t-33 -10.5t-30 -8t-34 -7.5t-31 -6.5h-30q-25 2 -86.5 2t-105 5 t-83.5 20l-26 10h-2q-12 -11 -29.5 -16t-31 -5.5t-37.5 -0.5h-35q-13 0 -17 -2q-49 4 -57 30q-9 29 16 70l12 16l9 19l10 20q-13 22 -16 29q-28 55 -39 92q-22 63 -33 162q-6 33 -10 98v19q-5 147 -7 162v18q-3 81 5 151q0 3 1 9.5t1 9.5l4 55q0 3 1 9.5t1 9.5l4 39 q11 98 33 161q11 40 39 93q10 23 38 59l17 18q15 18 38 34.5t37.5 24t47.5 23.5l26 11q39 15 83.5 19.5t105 4.5t86.5 2h30q102 -22 142 -37l10 6q11 7 18 7q4 2 21 2q-1 0 -2 1t-2 1q14 -3 64.5 2t76.5 -6t19 -50l-5 -18l-24 -51l-6 -17q-1 -2 -2 -4.5t-1.5 -3.5t-0.5 -2 q12 -16 28 -49q15 -25 21 -39q12 -19 19.5 -43.5t10.5 -42t7 -47t6 -43.5l4 -39v-14l4 -41q5 -51 0 -201zM819 723q0 21 -4 57v84q0 23 2 37q-3 -5 -7 -17.5t-7 -17.5q-2 -2 -4 -8q0 -2 -4 -6l-7 -12q-32 -56 -49 -95l-10 -18l-43 -90q-14 -32 -27 -55q-7 -13 -27 -51 t-30 -60l-14 -29q-9 -15 -24 -45.5t-17 -34.5t-4 -12l-4 -12l-25 -47q0 -2 -2 -4q-4 -4 -4 -8q-4 -4 -4 -7q-2 -2 -2 -4q4 -4 8 -4q3 0 5 -1t5 -1l21 -6q107 -11 180 25l12 8l12 10q1 1 8 10t11 15q51 63 51 219v37q-5 6 -0.5 59t4.5 84zM393 817q5 -11 1.5 -90t-3.5 -90 q0 -4 1 -11.5t1 -11.5q0 -3 1 -9.5t1 -10.5v-47l21 43q3 5 33 65l6 13q21 32 53 110l6 13q2 3 23.5 43t31.5 63l6 10l7 13q36 63 47 90l73 149q-75 26 -161 17l-21 -7q-33 -8 -57 -36l-14 -15q-6 -8 -11 -18q-13 -22 -16 -29q-12 -39 -14 -67q0 -3 -1 -9.5t-1 -9.5 q-7 -40 -7 -65q-4 -62 -4 -82q0 -4 -1 -11t-1 -10z" />
<glyph unicode="&#xd9;" d="M1122 705q5 -150 0 -201q-5 -69 -8 -84q-2 -8 -2 -27l-10 -63q0 -3 -1 -10.5t-1 -10.5t-1 -9t-1 -9q-56 -123 -94 -170l-15 -15q-38 -38 -71 -59l-17 -12q-14 -8 -30.5 -15.5t-28 -12t-33 -10.5t-29.5 -8t-34 -7.5t-31 -6.5h-31q-25 2 -86 2t-104.5 5t-83.5 20l-27 10 q-33 16 -47.5 23.5t-37.5 24t-38 34.5l-16 19q-30 39 -39 59q-28 55 -39 92q-22 63 -33 162q-9 75 -12 152l-6 204q0 16 -1 50t-1 51v24q-1 15 -1 31.5t0.5 36t0.5 29.5v20q0 18 -1.5 76.5t-0.5 89.5q-2 6 -2 22l4 17q-2 6 -2 31q0 16 -2 22q1 12 -1.5 50t1.5 50l4 17 q8 23 27 33t40.5 9t45.5 -1t42 4h99q10 0 18 -8q11 -11 16 -66v-24q-4 -42 -3.5 -57t3 -97t2.5 -164q0 -7 -2.5 -49.5t-2 -50.5t2.5 -51v-21q3 -30 -1.5 -99.5t1.5 -99.5q0 -16 2 -20q0 -4 1.5 -11.5t1.5 -11.5v-20q0 -20 4 -82q0 -35 8 -66v-18q4 -37 16 -68l4.5 -9 t6.5 -10.5t6 -8.5q9 -17 10 -19l14 -14q26 -29 57 -37l21 -6q107 -11 180 25l12 8l13 10q15 20 18 25q45 53 49 170l4 22v53v17q-1 37 3.5 100t5.5 80v22q-1 31 -8 98t-7 103v10q0 15 -1 42t-1 42q-2 6 -2 29q0 5 1 15.5t1 15.5v33q3 33 -3 104t-1 109q6 44 43 53q3 3 6.5 4 t9.5 1t9 1q50 4 88 4h22q10 -1 34.5 -2t39 -3t29.5 -11.5t18 -28.5q6 -27 6.5 -55t-3 -68t-3.5 -55q0 -13 -2 -15v-71q0 -40 2 -58q2 -6 2 -30q2 -55 2 -158q0 -19 -2 -33v-57q4 -70 4 -102zM739 1612q1 -13 -9 -22t-23 -11h-21q-10 -2 -33 -2h-53q-21 0 -41 14.5t-29 30.5 l-8 10l-67 92l-9 11l-4 8l-8 10l-6 6l-4 8q-3 1 -5 5q-2 3 -5 6l-13 20q-4 4 -4 10q-4 4 -4 9q-10 28 19 53q7 7 10 8q3 0 6 1t6 1q29 6 115 6q16 0 22 -2q21 0 43 -22l7 -9q3 -7 23.5 -44t29.5 -58q6 -6 8 -12l8 -19l10 -16l25 -49l6 -10q10 -17 8 -33z" />
<glyph unicode="&#xda;" d="M1122 705q5 -150 0 -201q-5 -69 -8 -84q-2 -8 -2 -27l-10 -63q0 -3 -1 -10.5t-1 -10.5t-1 -9t-1 -9q-56 -123 -94 -170l-15 -15q-38 -38 -71 -59l-17 -12q-14 -8 -30.5 -15.5t-28 -12t-33 -10.5t-29.5 -8t-34 -7.5t-31 -6.5h-31q-25 2 -86 2t-104.5 5t-83.5 20l-27 10 q-33 16 -47.5 23.5t-37.5 24t-38 34.5l-16 19q-30 39 -39 59q-28 55 -39 92q-22 63 -33 162q-9 75 -12 152l-6 204q0 16 -1 50t-1 51v24q-1 15 -1 31.5t0.5 36t0.5 29.5v20q0 18 -1.5 76.5t-0.5 89.5q-2 6 -2 22l4 17q-2 6 -2 31q0 16 -2 22q1 12 -1.5 50t1.5 50l4 17 q8 23 27 33t40.5 9t45.5 -1t42 4h99q10 0 18 -8q11 -11 16 -66v-24q-4 -42 -3.5 -57t3 -97t2.5 -164q0 -7 -2.5 -49.5t-2 -50.5t2.5 -51v-21q3 -30 -1.5 -99.5t1.5 -99.5q0 -16 2 -20q0 -4 1.5 -11.5t1.5 -11.5v-20q0 -20 4 -82q0 -35 8 -66v-18q4 -37 16 -68l4.5 -9 t6.5 -10.5t6 -8.5q9 -17 10 -19l14 -14q26 -29 57 -37l21 -6q107 -11 180 25l12 8l13 10q15 20 18 25q45 53 49 170l4 22v53v17q-1 37 3.5 100t5.5 80v22q-1 31 -8 98t-7 103v10q0 15 -1 42t-1 42q-2 6 -2 29q0 5 1 15.5t1 15.5v33q3 33 -3 104t-1 109q6 44 43 53q3 3 6.5 4 t9.5 1t9 1q50 4 88 4h22q10 -1 34.5 -2t39 -3t29.5 -11.5t18 -28.5q6 -27 6.5 -55t-3 -68t-3.5 -55q0 -13 -2 -15v-71q0 -40 2 -58q2 -6 2 -30q2 -55 2 -158q0 -19 -2 -33v-57q4 -70 4 -102zM492 1612q-2 16 8 33l6 10l24 49l11 16l8 19q2 6 8 12q9 21 29.5 58t23.5 44l6 9 q22 22 43 22q6 2 23 2q86 0 115 -6q3 0 6 -1t6 -1q3 -1 10 -8q29 -25 19 -53q0 -5 -4 -9q0 -5 -5 -10l-12 -20q-3 -3 -5 -6q-2 -4 -5 -5q-2 -2 -4 -8l-6 -6l-9 -10l-4 -8l-8 -11l-67 -92l-9 -10q-9 -16 -28.5 -30.5t-40.5 -14.5h-53q-23 0 -33 2h-21q-13 2 -23 11t-9 22z " />
<glyph unicode="&#xdb;" d="M1122 705q5 -150 0 -201q-5 -69 -8 -84q-2 -8 -2 -27l-10 -63q0 -3 -1 -10.5t-1 -10.5t-1 -9t-1 -9q-56 -123 -94 -170l-15 -15q-38 -38 -71 -59l-17 -12q-14 -8 -30.5 -15.5t-28 -12t-33 -10.5t-29.5 -8t-34 -7.5t-31 -6.5h-31q-25 2 -86 2t-104.5 5t-83.5 20l-27 10 q-33 16 -47.5 23.5t-37.5 24t-38 34.5l-16 19q-30 39 -39 59q-28 55 -39 92q-22 63 -33 162q-9 75 -12 152l-6 204q0 16 -1 50t-1 51v24q-1 15 -1 31.5t0.5 36t0.5 29.5v20q0 18 -1.5 76.5t-0.5 89.5q-2 6 -2 22l4 17q-2 6 -2 31q0 16 -2 22q1 12 -1.5 50t1.5 50l4 17 q8 23 27 33t40.5 9t45.5 -1t42 4h99q10 0 18 -8q11 -11 16 -66v-24q-4 -42 -3.5 -57t3 -97t2.5 -164q0 -7 -2.5 -49.5t-2 -50.5t2.5 -51v-21q3 -30 -1.5 -99.5t1.5 -99.5q0 -16 2 -20q0 -4 1.5 -11.5t1.5 -11.5v-20q0 -20 4 -82q0 -35 8 -66v-18q4 -37 16 -68l4.5 -9 t6.5 -10.5t6 -8.5q9 -17 10 -19l14 -14q26 -29 57 -37l21 -6q107 -11 180 25l12 8l13 10q15 20 18 25q45 53 49 170l4 22v53v17q-1 37 3.5 100t5.5 80v22q-1 31 -8 98t-7 103v10q0 15 -1 42t-1 42q-2 6 -2 29q0 5 1 15.5t1 15.5v33q3 33 -3 104t-1 109q6 44 43 53q3 3 6.5 4 t9.5 1t9 1q50 4 88 4h22q10 -1 34.5 -2t39 -3t29.5 -11.5t18 -28.5q6 -27 6.5 -55t-3 -68t-3.5 -55q0 -13 -2 -15v-71q0 -40 2 -58q2 -6 2 -30q2 -55 2 -158q0 -19 -2 -33v-57q4 -70 4 -102zM850 1655l6 -10q10 -17 8 -33q1 -13 -9.5 -22t-23.5 -11h-20q-10 -2 -33 -2h-39 q-24 0 -37 7.5t-32 37.5l-8 10l-50 72l-45 -72l-8 -10q-11 -19 -32 -32t-44 -13h-34q-23 0 -33 2h-21q-13 2 -23.5 11t-9.5 22q-2 15 9 33l6 10l18 37q14 23 21 32l6 13q35 41 61 86q1 5 9 12q25 41 61 49q1 0 4 1t6 1h96q46 -3 76 -61q1 -1 1.5 -2.5t2 -3t4.5 -2.5 q11 -16 31 -47t31 -46q1 -3 3 -5t3 -5q1 -1 1.5 -2.5t2 -3t4.5 -2.5q1 -3 3 -5t3 -5q3 -8 13 -22.5t12 -18.5z" />
<glyph unicode="&#xdc;" d="M1122 705q5 -150 0 -201q-5 -69 -8 -84q-2 -8 -2 -27l-10 -63q0 -3 -1 -10.5t-1 -10.5t-1 -9t-1 -9q-56 -123 -94 -170l-15 -15q-38 -38 -71 -59l-17 -12q-14 -8 -30.5 -15.5t-28 -12t-33 -10.5t-29.5 -8t-34 -7.5t-31 -6.5h-31q-25 2 -86 2t-104.5 5t-83.5 20l-27 10 q-33 16 -47.5 23.5t-37.5 24t-38 34.5l-16 19q-30 39 -39 59q-28 55 -39 92q-22 63 -33 162q-9 75 -12 152l-6 204q0 16 -1 50t-1 51v24q-1 15 -1 31.5t0.5 36t0.5 29.5v20q0 18 -1.5 76.5t-0.5 89.5q-2 6 -2 22l4 17q-2 6 -2 31q0 16 -2 22q1 12 -1.5 50t1.5 50l4 17 q8 23 27 33t40.5 9t45.5 -1t42 4h99q10 0 18 -8q11 -11 16 -66v-24q-4 -42 -3.5 -57t3 -97t2.5 -164q0 -7 -2.5 -49.5t-2 -50.5t2.5 -51v-21q3 -30 -1.5 -99.5t1.5 -99.5q0 -16 2 -20q0 -4 1.5 -11.5t1.5 -11.5v-20q0 -20 4 -82q0 -35 8 -66v-18q4 -37 16 -68l4.5 -9 t6.5 -10.5t6 -8.5q9 -17 10 -19l14 -14q26 -29 57 -37l21 -6q107 -11 180 25l12 8l13 10q15 20 18 25q45 53 49 170l4 22v53v17q-1 37 3.5 100t5.5 80v22q-1 31 -8 98t-7 103v10q0 15 -1 42t-1 42q-2 6 -2 29q0 5 1 15.5t1 15.5v33q3 33 -3 104t-1 109q6 44 43 53q3 3 6.5 4 t9.5 1t9 1q50 4 88 4h22q10 -1 34.5 -2t39 -3t29.5 -11.5t18 -28.5q6 -27 6.5 -55t-3 -68t-3.5 -55q0 -13 -2 -15v-71q0 -40 2 -58q2 -6 2 -30q2 -55 2 -158q0 -19 -2 -33v-57q4 -70 4 -102zM401 1835q45 0 82 -27l17 -12q19 -16 35 -45l4 -25q0 -3 1 -7t1 -7q6 -28 -11 -61 q-3 -3 -6 -9.5t-6 -9.5q-21 -34 -67 -49q-16 -4 -19 -4q-9 -4 -41 -4h-20l-19 6l-14 6l-31 25l-8 10q-16 26 -25 55q0 3 -1 9.5t-1 9.5q-1 41 22 77.5t62 53.5l21 6q6 2 24 2zM748 1817l20 10q37 14 86 4l20 -6q29 -13 50 -31l12 -22q0 -3 2.5 -7t3.5 -6q16 -32 10 -61 q0 -13 -4 -21q-12 -42 -47 -69q-8 -8 -16 -11q-17 -11 -37 -18l-19 -6l-20 -2l-14 2l-37 12l-13 6q-21 18 -40 45l-9 17q-17 39 -7.5 80t40.5 71z" />
<glyph unicode="&#xdd;" horiz-adv-x="1171" d="M1096 1432q29 -29 0 -80l-9 -19q-4 -7 -19 -31.5t-21 -37.5l-7 -13q-7 -16 -20 -39l-6 -14q-19 -44 -80 -150t-70 -124q-4 -10 -8 -15q-6 -10 -10 -22l-8 -17q-4 -13 -9 -18q-5 -15 -6 -16l-10 -21l-20 -51q-7 -6 -9 -14l-6 -17l-8 -14l-6 -19l-10 -18q-10 -30 -33 -72 l-4 -88q0 -3 -1 -9t-1 -9q0 -4 -1 -11t-1 -10v-385q7 -27 4 -43q0 -4 -1 -10.5t-1 -9.5q-11 -30 -53 -41q-3 0 -9.5 -1t-9.5 -1q-131 -4 -182 4q-6 2 -12 8q-8 3 -11 12q-18 32 -8 72q-2 2 -2 16v23q0 27 2 41v16q0 32 -0.5 64.5t-1 53t-0.5 22.5v180q4 62 4 82q0 4 1 10.5 t1 9.5v17q-8 20 -12 41l-6 12q-17 30 -21 39q-13 25 -49 104l-6 17l-70 141l-6 12q-13 22 -34.5 66.5t-30.5 60.5q-1 3 -4.5 7t-4.5 7q-14 34 -61 119.5t-61 118.5q0 1 -1 2.5t-2 4.5t-2 5q-3 24 7 37q12 12 18 15q9 6 21 6q19 1 59.5 4t60.5 3.5t60 -1.5h18q48 -12 66 -39 l10 -14q15 -30 20 -45l9 -15q1 -4 59 -119l10 -20q9 -24 39 -82l8 -16q18 -36 21 -45l3 -5q4 -6 5 -10q4 -12 13.5 -31t13.5 -30q12 22 18 47l6 14q6 22 16 43.5t25.5 49t22.5 42.5q1 3 4 6.5t4 6.5q2 2 2 6l25 41l47 84l6 12q7 9 23 41.5t32.5 51t40.5 22.5q16 4 23 4 q25 -3 74.5 -2t74.5 -2q3 0 10.5 -1t10.5 -1h14q27 0 33 -6zM453 1612q-2 16 8 33l6 10l25 49l10 16l8 19q2 6 8 12q9 21 29.5 58t23.5 44l7 9q22 22 43 22q6 2 22 2q86 0 115 -6q3 0 6 -1t6 -1q3 -1 10 -8q29 -25 19 -53q0 -5 -4 -9q0 -6 -4 -10l-13 -20q-3 -3 -5 -6 q-2 -4 -5 -5q-2 -2 -4 -8l-6 -6l-8 -10l-5 -8l-8 -11l-67 -92l-8 -10q-9 -16 -29 -30.5t-41 -14.5h-53q-23 0 -33 2h-21q-13 2 -23 11t-9 22z" />
<glyph unicode="&#xde;" horiz-adv-x="1142" d="M420 1327v-31q153 0 180 2h31q5 -1 36 -7.5t42 -9.5t34.5 -9.5t40.5 -14.5t33 -18l17 -12q31 -20 71 -60l15 -14q35 -43 47 -74q12 -19 20 -39q12 -19 19.5 -43.5t10.5 -42t7 -47t6 -43.5l4 -39v-14l4 -41q0 -25 1 -41t1 -39q0 -8 -1 -18t-1 -15q-5 -69 -8 -84 q-2 -8 -2 -26l-10 -64q0 -3 -1 -10t-1 -10q0 -32 -33 -93t-63 -96l-15 -14q-38 -38 -71 -59l-17 -13q-16 -10 -33 -18t-40.5 -14.5t-34.5 -9.5t-42 -9.5t-36 -7.5h-31q-7 0 -77 1t-117 1q-1 -15 1.5 -41t2 -45.5t-6.5 -34.5q-12 -22 -37 -24t-61 3t-57 1h-21q-45 -3 -77 8 l-15 10q-10 8 -11.5 26t2 47.5t3.5 41.5v14q0 100 -1 288.5t-1 203.5v94q-1 30 4 178q0 3 1 9.5t1 9.5v20q0 6 2 8v385q-7 27 -4 43q0 4 1 11t1 10q11 30 53 41q3 0 9.5 1t9.5 1q131 4 182 -4q5 -2 12 -9q8 -3 11 -12q18 -32 8 -72q2 -2 2 -16zM741 647q4 15 1.5 62t-1.5 71 q0 38 -10 58q-11 78 -39 112q-3 5 -18 25l-12 10l-13 8q-22 10 -93 18.5t-136 8.5v-100q-4 -62 -4 -82q0 -4 -1 -11t-1 -10q4 -11 1 -90t-3 -90v-231q69 0 141 8t96 20l13 8l12 11l18 24q27 33 39 113q10 20 10 57z" />
<glyph unicode="&#xdf;" horiz-adv-x="1196" d="M1092 428q2 -4 2 -20v-19q-3 -74 -31 -141l-10 -19q-19 -48 -62 -94l-14 -14q-23 -23 -47 -41l-17 -12q-26 -24 -77 -43l-19 -7l-33 -9t-32.5 -8.5t-33 -7t-33 -4t-32.5 0.5l-18 4l-19 6q-57 33 -69 137q0 5 4 21q3 15 12 30l8 15q13 16 31 24q73 33 98 52l17 12l14 16 l14 15l13 14l12 16l21 41q4 16 4 23q8 43 -6.5 80t-51.5 57l-45 22q-36 13 -51 23l-12 6l-19 12l-12 15q-5 6 -18 37q0 4 -1 10.5t-1 9.5q0 29 20 50t51.5 40t44.5 33l15 10l14 13l12 12l10 14q7 8 9 12l22 37q2 3 8 19l7 22l4 17q3 26 -2 45q0 3 -1 7t-1 7v6l-5 19 q-8 20 -20 39q-6 12 -12 18q-9 19 -35 37l-12 6q-52 22 -105 25h-22q-96 0 -138 -58l-12 -14q-32 -54 -22 -129v-35q-7 -74 -7 -190v-76q0 -12 -1.5 -33.5t-1.5 -39.5t3 -34q2 -6 2 -28v-17q-3 -27 0.5 -77.5t2.5 -71.5v-13q2 0 1 -20l-1 -21q0 -3 -1.5 -6t-1.5 -6 q0 -2 -6 -125v-22q-1 -10 -1 -21.5t0.5 -26.5t0.5 -24q0 -3 -1 -9t-1 -9q0 -17 -2 -21q-21 -61 -119 -65q-16 0 -20 2q-118 4 -127 75q-2 2 -2 13q-2 2 -2 14v23q0 18 1.5 77.5t0.5 90.5v18v92v21q3 46 0 96q0 3 1 9t1 9v107q-2 4 -2 20v105q-2 4 -2 20q0 20 1 57t1 56v18 q0 141 4 180l4 21q0 3 1 9.5t1 10.5q18 90 78 166l14 15l45 41l19 12q40 24 76 35q2 1 8.5 4t11.5 4q72 24 152 33q16 0 22 2q17 0 23 2h14q2 -2 14 -2q3 0 8.5 -1t8.5 -1q14 1 29 -0.5t24.5 -3t27 -5t25.5 -4.5q3 0 10.5 -1t10.5 -1q55 -2 139 -47q14 -7 18 -10 q67 -35 121 -121q7 -14 10 -18q21 -41 27 -74l4 -14q0 -4 2 -6q14 -57 15 -74v-31q-3 -46 -17 -88l-6 -18q-30 -93 -108 -152l-15 -12l-16 -13q-26 -15 -45 -22l-15 -6l13 -6q105 -45 153 -131l13 -17q6 -8 10 -20q25 -49 31 -94q2 -6 2 -21z" />
<glyph unicode="&#xe0;" d="M1122 739q0 -32 -4 -102v-57q2 -14 2 -33q0 -103 -2 -158q0 -25 -2 -31q-2 -18 -2 -57v-72q2 -2 2 -14q0 -15 3.5 -55t3 -68t-6.5 -55q-4 -20 -18.5 -30t-29 -11.5t-39 -2t-34.5 -1.5h-22q-38 0 -88 4q-3 1 -9 1t-9.5 1t-6.5 4q-37 9 -43 53q-5 38 1 109t3 104v33 q0 5 -1 15.5t-1 15.5q0 22 2 28q0 16 1 43t1 43v15q-11 1 -29 2.5t-32.5 2.5t-28.5 1h-131q-34 0 -100.5 1t-100.5 1q0 -8 2 -10v-199q-2 -4 -2 -20q-4 -46 -4 -64v-33q-3 -23 0 -45v-24q-5 -55 -16 -66q-8 -8 -19 -8q-17 1 -35.5 0t-40 -3t-32.5 -3q-17 0 -23 -2 q-3 0 -29 0.5t-35.5 2t-25.5 9t-24 21.5q-11 19 -12.5 41.5t2 51.5t2.5 44q2 6 2 22q0 25 2 31v16q4 38 4 170q0 15 -2 19q-4 78 -2 117v24q0 17 1 51t1 50l6 204q3 77 12 152q11 99 33 162q11 37 39 92q9 20 39 59l16 19q15 18 38 34.5t37.5 24t47.5 23.5l27 10 q39 15 83 19.5t104.5 4.5t86.5 2h31q77 -8 133 -23t100 -52l10 -9q75 -75 119 -159l8 -23q14 -53 15 -67q0 -3 1 -10.5t1 -10.5l10 -63q0 -19 2 -27q3 -15 8 -84q5 -51 0 -201zM735 754l99 -6q0 9 -1.5 26.5t-1.5 26.5q0 3 -1 10t-1 10q-3 55 0 107l-4 22q0 38 -10 58 q-11 78 -39 112q-3 5 -18 25l-13 10l-12 8q-73 36 -180 25l-21 -6q-31 -8 -57 -37l-14 -15q-3 -4 -10 -18q-16 -27 -17 -29q-12 -39 -14 -67q0 -3 -1 -9.5t-1 -9.5q-6 -35 -6 -65q-5 -45 -9 -176q33 0 99.5 -1t99.5 -1h133zM743 1612q1 -13 -9 -22t-23 -11h-21 q-10 -2 -33 -2h-53q-21 0 -40.5 14.5t-28.5 30.5l-9 10l-67 92l-8 11l-5 8l-8 10l-6 6l-4 8q-3 1 -5 5q-2 3 -5 6l-12 20q-5 5 -5 10q-4 4 -4 9q-10 28 19 53q7 7 10 8q3 0 6 1t6 1q29 6 115 6q16 0 22 -2q21 0 43 -22l7 -9q3 -7 23.5 -44t29.5 -58q6 -6 8 -12l8 -19l11 -16 l24 -49l6 -10q10 -17 8 -33z" />
<glyph unicode="&#xe1;" d="M1122 739q0 -32 -4 -102v-57q2 -14 2 -33q0 -103 -2 -158q0 -25 -2 -31q-2 -18 -2 -57v-72q2 -2 2 -14q0 -15 3.5 -55t3 -68t-6.5 -55q-4 -20 -18.5 -30t-29 -11.5t-39 -2t-34.5 -1.5h-22q-38 0 -88 4q-3 1 -9 1t-9.5 1t-6.5 4q-37 9 -43 53q-5 38 1 109t3 104v33 q0 5 -1 15.5t-1 15.5q0 22 2 28q0 16 1 43t1 43v15q-11 1 -29 2.5t-32.5 2.5t-28.5 1h-131q-34 0 -100.5 1t-100.5 1q0 -8 2 -10v-199q-2 -4 -2 -20q-4 -46 -4 -64v-33q-3 -23 0 -45v-24q-5 -55 -16 -66q-8 -8 -19 -8q-17 1 -35.5 0t-40 -3t-32.5 -3q-17 0 -23 -2 q-3 0 -29 0.5t-35.5 2t-25.5 9t-24 21.5q-11 19 -12.5 41.5t2 51.5t2.5 44q2 6 2 22q0 25 2 31v16q4 38 4 170q0 15 -2 19q-4 78 -2 117v24q0 17 1 51t1 50l6 204q3 77 12 152q11 99 33 162q11 37 39 92q9 20 39 59l16 19q15 18 38 34.5t37.5 24t47.5 23.5l27 10 q39 15 83 19.5t104.5 4.5t86.5 2h31q77 -8 133 -23t100 -52l10 -9q75 -75 119 -159l8 -23q14 -53 15 -67q0 -3 1 -10.5t1 -10.5l10 -63q0 -19 2 -27q3 -15 8 -84q5 -51 0 -201zM735 754l99 -6q0 9 -1.5 26.5t-1.5 26.5q0 3 -1 10t-1 10q-3 55 0 107l-4 22q0 38 -10 58 q-11 78 -39 112q-3 5 -18 25l-13 10l-12 8q-73 36 -180 25l-21 -6q-31 -8 -57 -37l-14 -15q-3 -4 -10 -18q-16 -27 -17 -29q-12 -39 -14 -67q0 -3 -1 -9.5t-1 -9.5q-6 -35 -6 -65q-5 -45 -9 -176q33 0 99.5 -1t99.5 -1h133zM492 1612q-2 16 8 33l6 10l24 49l11 16l8 19 q2 6 8 12q9 21 29.5 58t23.5 44l6 9q22 22 43 22q6 2 23 2q86 0 115 -6q3 0 6 -1t6 -1q3 -1 10 -8q29 -25 19 -53q0 -5 -4 -9q0 -5 -5 -10l-12 -20q-3 -3 -5 -6q-2 -4 -5 -5q-2 -2 -4 -8l-6 -6l-9 -10l-4 -8l-8 -11l-67 -92l-9 -10q-9 -16 -28.5 -30.5t-40.5 -14.5h-53 q-23 0 -33 2h-21q-13 2 -23 11t-9 22z" />
<glyph unicode="&#xe2;" d="M1122 739q0 -32 -4 -102v-57q2 -14 2 -33q0 -103 -2 -158q0 -25 -2 -31q-2 -18 -2 -57v-72q2 -2 2 -14q0 -15 3.5 -55t3 -68t-6.5 -55q-4 -20 -18.5 -30t-29 -11.5t-39 -2t-34.5 -1.5h-22q-38 0 -88 4q-3 1 -9 1t-9.5 1t-6.5 4q-37 9 -43 53q-5 38 1 109t3 104v33 q0 5 -1 15.5t-1 15.5q0 22 2 28q0 16 1 43t1 43v15q-11 1 -29 2.5t-32.5 2.5t-28.5 1h-131q-34 0 -100.5 1t-100.5 1q0 -8 2 -10v-199q-2 -4 -2 -20q-4 -46 -4 -64v-33q-3 -23 0 -45v-24q-5 -55 -16 -66q-8 -8 -19 -8q-17 1 -35.5 0t-40 -3t-32.5 -3q-17 0 -23 -2 q-3 0 -29 0.5t-35.5 2t-25.5 9t-24 21.5q-11 19 -12.5 41.5t2 51.5t2.5 44q2 6 2 22q0 25 2 31v16q4 38 4 170q0 15 -2 19q-4 78 -2 117v24q0 17 1 51t1 50l6 204q3 77 12 152q11 99 33 162q11 37 39 92q9 20 39 59l16 19q15 18 38 34.5t37.5 24t47.5 23.5l27 10 q39 15 83 19.5t104.5 4.5t86.5 2h31q77 -8 133 -23t100 -52l10 -9q75 -75 119 -159l8 -23q14 -53 15 -67q0 -3 1 -10.5t1 -10.5l10 -63q0 -19 2 -27q3 -15 8 -84q5 -51 0 -201zM735 754l99 -6q0 9 -1.5 26.5t-1.5 26.5q0 3 -1 10t-1 10q-3 55 0 107l-4 22q0 38 -10 58 q-11 78 -39 112q-3 5 -18 25l-13 10l-12 8q-73 36 -180 25l-21 -6q-31 -8 -57 -37l-14 -15q-3 -4 -10 -18q-16 -27 -17 -29q-12 -39 -14 -67q0 -3 -1 -9.5t-1 -9.5q-6 -35 -6 -65q-5 -45 -9 -176q33 0 99.5 -1t99.5 -1h133zM850 1655l6 -10q10 -17 8 -33q1 -13 -9.5 -22 t-23.5 -11h-20q-10 -2 -33 -2h-39q-24 0 -37 7.5t-32 37.5l-8 10l-50 72l-45 -72l-8 -10q-11 -19 -32 -32t-44 -13h-34q-23 0 -33 2h-21q-13 2 -23.5 11t-9.5 22q-2 15 9 33l6 10l18 37q14 23 21 32l6 13q35 41 61 86q1 5 9 12q25 41 61 49q1 0 4 1t6 1h96q46 -3 76 -61 q1 -1 1.5 -2.5t2 -3t4.5 -2.5q11 -16 31 -47t31 -46q1 -3 3 -5t3 -5q1 -1 1.5 -2.5t2 -3t4.5 -2.5q1 -3 3 -5t3 -5q3 -8 13 -22.5t12 -18.5z" />
<glyph unicode="&#xe3;" d="M1122 739q0 -32 -4 -102v-57q2 -14 2 -33q0 -103 -2 -158q0 -25 -2 -31q-2 -18 -2 -57v-72q2 -2 2 -14q0 -15 3.5 -55t3 -68t-6.5 -55q-4 -20 -18.5 -30t-29 -11.5t-39 -2t-34.5 -1.5h-22q-38 0 -88 4q-3 1 -9 1t-9.5 1t-6.5 4q-37 9 -43 53q-5 38 1 109t3 104v33 q0 5 -1 15.5t-1 15.5q0 22 2 28q0 16 1 43t1 43v15q-11 1 -29 2.5t-32.5 2.5t-28.5 1h-131q-34 0 -100.5 1t-100.5 1q0 -8 2 -10v-199q-2 -4 -2 -20q-4 -46 -4 -64v-33q-3 -23 0 -45v-24q-5 -55 -16 -66q-8 -8 -19 -8q-17 1 -35.5 0t-40 -3t-32.5 -3q-17 0 -23 -2 q-3 0 -29 0.5t-35.5 2t-25.5 9t-24 21.5q-11 19 -12.5 41.5t2 51.5t2.5 44q2 6 2 22q0 25 2 31v16q4 38 4 170q0 15 -2 19q-4 78 -2 117v24q0 17 1 51t1 50l6 204q3 77 12 152q11 99 33 162q11 37 39 92q9 20 39 59l16 19q15 18 38 34.5t37.5 24t47.5 23.5l27 10 q39 15 83 19.5t104.5 4.5t86.5 2h31q77 -8 133 -23t100 -52l10 -9q75 -75 119 -159l8 -23q14 -53 15 -67q0 -3 1 -10.5t1 -10.5l10 -63q0 -19 2 -27q3 -15 8 -84q5 -51 0 -201zM735 754l99 -6q0 9 -1.5 26.5t-1.5 26.5q0 3 -1 10t-1 10q-3 55 0 107l-4 22q0 38 -10 58 q-11 78 -39 112q-3 5 -18 25l-13 10l-12 8q-73 36 -180 25l-21 -6q-31 -8 -57 -37l-14 -15q-3 -4 -10 -18q-16 -27 -17 -29q-12 -39 -14 -67q0 -3 -1 -9.5t-1 -9.5q-6 -35 -6 -65q-5 -45 -9 -176q33 0 99.5 -1t99.5 -1h133zM924 1802q0 -63 -4 -84q0 -3 -1 -6t-1 -6 q-8 -36 -33 -61l-8 -11l-9 -8q-1 -1 -2.5 -1.5t-3 -2t-2.5 -4.5q-26 -23 -51 -31l-12 -4q-3 0 -6.5 -1t-6.5 -1q-1 -1 -10 -4q-76 -14 -127 8q-6 0 -8 2q-15 6 -33 21q-1 1 -2.5 1.5t-3 2t-2.5 4.5l-8 6q0 1 -29 41l-10 10q-19 16 -41 6q-18 -9 -18 -43v-10q0 -5 -3 -8 q0 -8 -2 -10l-6 -9q-8 -11 -26 -20q-3 0 -6.5 -1t-6.5 -1h-26q-33 0 -47 2q-2 0 -10.5 1t-14.5 1q-1 0 -4 1t-4 1q-33 8 -33 45v12q0 5 -0.5 18t0 20.5t1 18t3 20t6.5 18.5q0 1 1 4t1 4l15 29l10 18q32 40 63 53l13 4q9 3 10 4q34 11 92 11h12q28 -3 52 -17l12 -6 q23 -8 52 -39.5t42 -40.5q2 -2 8 -2q28 -3 31 23q2 2 2 8v8q0 10 2 12q0 9 2 9q0 8 8 16q27 14 74 14h8h13h15.5t14 -0.5t15 -2t12 -3.5t12 -5.5t8.5 -8.5q1 -4 7 -10q4 -12 4 -15z" />
<glyph unicode="&#xe4;" d="M1122 739q0 -32 -4 -102v-57q2 -14 2 -33q0 -103 -2 -158q0 -25 -2 -31q-2 -18 -2 -57v-72q2 -2 2 -14q0 -15 3.5 -55t3 -68t-6.5 -55q-4 -20 -18.5 -30t-29 -11.5t-39 -2t-34.5 -1.5h-22q-38 0 -88 4q-3 1 -9 1t-9.5 1t-6.5 4q-37 9 -43 53q-5 38 1 109t3 104v33 q0 5 -1 15.5t-1 15.5q0 22 2 28q0 16 1 43t1 43v15q-11 1 -29 2.5t-32.5 2.5t-28.5 1h-131q-34 0 -100.5 1t-100.5 1q0 -8 2 -10v-199q-2 -4 -2 -20q-4 -46 -4 -64v-33q-3 -23 0 -45v-24q-5 -55 -16 -66q-8 -8 -19 -8q-17 1 -35.5 0t-40 -3t-32.5 -3q-17 0 -23 -2 q-3 0 -29 0.5t-35.5 2t-25.5 9t-24 21.5q-11 19 -12.5 41.5t2 51.5t2.5 44q2 6 2 22q0 25 2 31v16q4 38 4 170q0 15 -2 19q-4 78 -2 117v24q0 17 1 51t1 50l6 204q3 77 12 152q11 99 33 162q11 37 39 92q9 20 39 59l16 19q15 18 38 34.5t37.5 24t47.5 23.5l27 10 q39 15 83 19.5t104.5 4.5t86.5 2h31q77 -8 133 -23t100 -52l10 -9q75 -75 119 -159l8 -23q14 -53 15 -67q0 -3 1 -10.5t1 -10.5l10 -63q0 -19 2 -27q3 -15 8 -84q5 -51 0 -201zM735 754l99 -6q0 9 -1.5 26.5t-1.5 26.5q0 3 -1 10t-1 10q-3 55 0 107l-4 22q0 38 -10 58 q-11 78 -39 112q-3 5 -18 25l-13 10l-12 8q-73 36 -180 25l-21 -6q-31 -8 -57 -37l-14 -15q-3 -4 -10 -18q-16 -27 -17 -29q-12 -39 -14 -67q0 -3 -1 -9.5t-1 -9.5q-6 -35 -6 -65q-5 -45 -9 -176q33 0 99.5 -1t99.5 -1h133zM401 1835q45 0 82 -27l17 -12q19 -16 35 -45 l4 -25q0 -3 1 -7t1 -7q6 -28 -11 -61q-3 -3 -6 -9.5t-6 -9.5q-21 -34 -67 -49q-16 -4 -19 -4q-9 -4 -41 -4h-20l-19 6l-14 6l-31 25l-8 10q-16 26 -25 55q0 3 -1 9.5t-1 9.5q-1 41 22 77.5t62 53.5l21 6q6 2 24 2zM748 1817l20 10q37 14 86 4l20 -6q29 -13 50 -31l12 -22 q0 -3 2.5 -7t3.5 -6q16 -32 10 -61q0 -13 -4 -21q-12 -42 -47 -69q-8 -8 -16 -11q-17 -11 -37 -18l-19 -6l-20 -2l-14 2l-37 12l-13 6q-21 18 -40 45l-9 17q-17 39 -7.5 80t40.5 71z" />
<glyph unicode="&#xe5;" d="M823 1634v-22q0 -25 -2 -31q-6 -18 -6 -27l-6 -14l-18 -27q-3 -11 -13 -18q-9 -15 -28 -31q135 -19 198 -71l10 -9q75 -75 119 -159l8 -23q14 -53 15 -67q0 -3 1 -10.5t1 -10.5l10 -63q0 -19 2 -27q3 -15 8 -84q5 -51 0 -201q0 -32 -4 -102v-57q2 -14 2 -33 q0 -103 -2 -158q0 -25 -2 -31q-2 -18 -2 -57v-72q2 -2 2 -14q0 -15 3.5 -55t3 -68t-6.5 -55q-4 -20 -18.5 -30t-29 -11.5t-39 -2t-34.5 -1.5h-22q-38 0 -88 4q-3 1 -9 1t-9.5 1t-6.5 4q-37 9 -43 53q-5 38 1 109t3 104v33q0 5 -1 15.5t-1 15.5q0 22 2 28q0 16 1 43t1 43v15 q-11 1 -29 2.5t-32.5 2.5t-28.5 1h-131q-34 0 -100.5 1t-100.5 1q0 -8 2 -10v-199q-2 -4 -2 -20q-4 -46 -4 -64v-33q-3 -23 0 -45v-24q-5 -55 -16 -66q-8 -8 -19 -8q-17 1 -35.5 0t-40 -3t-32.5 -3q-17 0 -23 -2q-3 0 -29 0.5t-35.5 2t-25.5 9t-24 21.5q-11 19 -12.5 41.5 t2 51.5t2.5 44q2 6 2 22q0 25 2 31v16q4 38 4 170q0 15 -2 19q-4 78 -2 117v24q0 17 1 51t1 50l6 204q3 77 12 152q11 99 33 162q11 37 39 92q9 20 39 59l16 19q15 18 38 34.5t37.5 24t47.5 23.5l27 10q39 13 73 18q-22 17 -30 29l-15 14q-37 58 -37 123q0 3 1 8t1 8 q14 103 113 164q17 8 19 9q58 26 122 10q7 0 23 -4l25 -11l36 -16l13 -16q54 -41 69 -144zM735 754l99 -6q0 9 -1.5 26.5t-1.5 26.5q0 3 -1 10t-1 10q-3 55 0 107l-4 22q0 38 -10 58q-11 78 -39 112q-3 5 -18 25l-13 10l-12 8q-73 36 -180 25l-21 -6q-31 -8 -57 -37l-14 -15 q-3 -4 -10 -18q-16 -27 -17 -29q-12 -39 -14 -67q0 -3 -1 -9.5t-1 -9.5q-6 -35 -6 -65q-5 -45 -9 -176q33 0 99.5 -1t99.5 -1h133zM625 1563q2 0 20 6q32 28 29 61l-4 15q-3 13 -8 18q-28 32 -64 23q-49 -9 -55 -58v-16q3 -3 6 -10.5t6 -10.5q3 -5 6.5 -9t6 -6t7.5 -5.5 t7 -5.5q8 -1 14.5 -3.5t9.5 -2.5q11 0 19 4z" />
<glyph unicode="&#xe6;" horiz-adv-x="1710" d="M383 1401l27 10q80 17 190 23t198.5 3t186.5 1h408q28 -4 39 -4h18q18 -2 69 2t60 -6q17 -10 22 -25.5t3 -42.5q0 -3 -1 -11t-1 -12q-5 -10 -3.5 -56t0.5 -56v-13q-1 -10 -4.5 -23.5t-3.5 -14.5l-10 -15q-8 -10 -26 -11.5t-47.5 2t-41.5 3.5h-14q-75 0 -226 -1t-198 -1 q0 -16 1 -35l1 -18v-180q-2 -10 -2 -29h365q28 -4 39 -4h43q19 -3 34.5 -0.5t33.5 1.5t32 -9q21 -15 18 -45v-15l-6 -67v-23q-2 -14 -2 -41v-20q3 -29 -10 -43.5t-34.5 -15t-45.5 -1t-43 -0.5h-25q-76 0 -220 -1t-185 -1v-18v-185v-122h371q35 -5 39 -5h18q18 -2 69 2t60 -6 q20 -10 23 -26l4 -21q-3 -36 -1.5 -64t0 -64.5t-9.5 -65.5l-4 -13l-10 -14q-8 -10 -26 -11.5t-47.5 2t-41.5 3.5h-14q-59 0 -184 -1t-176 -1h-45q-21 -1 -94.5 0.5t-94.5 -2.5h-20q-59 -4 -93 14q-6 6 -8 12q-3 18 -3 30t2.5 36t2.5 37v14q0 226 -2 330h-135q-34 0 -100.5 1 t-100.5 1q0 -8 2 -10v-199q-2 -4 -2 -20q-4 -46 -4 -64v-33q-3 -23 0 -45v-24q-5 -55 -16 -66q-8 -8 -19 -8q-17 1 -35.5 0t-40 -3t-32.5 -3q-17 0 -23 -2q-3 0 -29 0.5t-35.5 2t-25.5 9t-24 21.5q-11 19 -12.5 41.5t2 51.5t2.5 44q2 6 2 22q0 25 2 31v16q4 38 4 170 q0 15 -2 19q-4 78 -2 117v24q0 17 1 51t1 50q0 39 2.5 96.5t3.5 77.5q3 75 12 151q11 99 33 162q11 37 39 92q9 20 39 59l16 19q15 18 38 34.5t37.5 24t47.5 23.5zM745 1077v15q-2 23 -2 65q-27 3 -65.5 3t-77.5 -1.5t-47 -1.5l-21 -6q-31 -8 -57 -37l-14 -14q-1 -2 -10 -19 q-1 -1 -8 -11.5t-9 -16.5q-12 -39 -14 -68q0 -3 -1 -9t-1 -9q-6 -35 -6 -66q-6 -60 -9 -145q33 0 99.5 -1t99.5 -1h133q0 26 4 80v22q1 25 1 70t1 81.5t4 69.5z" />
</font>
</defs>
</svg>
