<?xml version="1.0" standalone="no"?>
<!DOCTYPE svg PUBLIC "-//W3C//DTD SVG 1.1//EN" "http://www.w3.org/Graphics/SVG/1.1/DTD/svg11.dtd" >
<svg xmlns="http://www.w3.org/2000/svg">
<metadata></metadata>
<defs>
<font id="century_schoolbook_fsitalic" horiz-adv-x="500" >
<font-face units-per-em="1000" ascent="800" descent="-200" />
<missing-glyph horiz-adv-x="385" />
<glyph unicode="&#xfb01;" horiz-adv-x="524" d="M72 -148l-95 -28l-7 11q38 71 62.5 146t73.5 272q22 91 33 130h-80l9 37h80q43 141 94 197t135 56q54 0 87 -16.5t33 -43.5q0 -20 -12.5 -33.5t-30.5 -13.5q-25 0 -39 19q-5 6 -14 34q-9 24 -46 24q-48 0 -76 -42q-18 -28 -31 -63.5t-34 -117.5h133q1 0 4.5 0.5t9.5 1 t11 0.5q1 0 25 2q37 3 66 7l-93 -344q-5 -18 -5 -31q0 -10 5 -16.5t13 -6.5q20 0 49.5 33.5t57.5 87.5l25 -15q-22 -45 -52 -83q-54 -70 -106 -70q-29 0 -46 18.5t-17 50.5q0 25 7 47l66 231q6 22 6 29q0 22 -25 22l-56 -1h-87q-13 -49 -62 -273q-37 -167 -71 -258z" />
<glyph unicode="&#xfb02;" horiz-adv-x="505" d="M72 -148l-95 -28l-7 11q38 71 62.5 146t73.5 272q22 91 33 130h-80l9 37h80q36 121 75 176q53 77 129 77q27 0 60 -9q42 2 98 10l-147 -591q-4 -13 -4 -27q0 -25 21 -25q20 0 50.5 35t56.5 89l26 -15q-79 -153 -159 -153q-26 0 -43.5 18.5t-17.5 46.5q0 20 9 56l115 459 q-16 4 -21 12.5t-11 39.5q-2 10 -14.5 16.5t-29.5 6.5q-40 0 -65 -43.5t-62 -178.5h108l-9 -37h-108q-13 -49 -62 -273q-37 -167 -71 -258z" />
<glyph unicode="&#xfb03;" horiz-adv-x="756" d="M72 -148l-95 -28l-7 11q38 71 62.5 146t73.5 272q22 91 33 130h-80l9 37h80q33 118 70 176q50 77 115 77q29 0 46.5 -16t17.5 -42q0 -22 -12 -35.5t-31 -13.5q-35 0 -41 46q-1 19 -13 19q-19 0 -38 -46.5t-48 -164.5h173q43 141 93.5 197t134.5 56q54 0 87 -16.5 t33 -43.5q0 -20 -12.5 -33.5t-30.5 -13.5q-25 0 -39 19q-5 6 -14 34q-9 24 -45 24q-48 0 -77 -42q-30 -44 -65 -181h133q2 0 5 0.5t9 1t11 0.5q1 0 25 2q37 3 66 7l-93 -344q-4 -15 -4 -31q0 -10 5 -16.5t13 -6.5q20 0 49.5 33.5t56.5 87.5l25 -15q-23 -47 -51 -83 q-55 -70 -106 -70q-29 0 -46 18.5t-17 50.5q0 21 7 47l66 231q5 17 5 29q0 22 -25 22l-55 -1h-88l-62 -273q-27 -119 -37.5 -159.5t-32.5 -98.5l-96 -28l-7 11q39 71 63.5 146t72.5 272q10 41 19.5 77t13.5 53h-172q-13 -49 -62 -273q-37 -167 -71 -258z" />
<glyph unicode="&#xfb04;" horiz-adv-x="743" d="M72 -148l-95 -28l-7 11q38 71 62.5 146t73.5 272q22 91 33 130h-80l9 37h80q33 118 70 176q50 77 115 77q29 0 46.5 -16t17.5 -42q0 -22 -12 -35.5t-31 -13.5q-35 0 -41 46q-1 19 -13 19q-19 0 -38 -46.5t-48 -164.5h173q35 121 74 176q55 77 129 77q28 0 60 -9 q44 3 99 10l-148 -591q-3 -15 -3 -27q0 -25 21 -25q20 0 50.5 35.5t55.5 88.5l26 -15q-79 -153 -158 -153q-26 0 -43.5 18.5t-17.5 46.5q0 22 9 56l114 459q-15 5 -20 13t-11 39q-1 10 -14 16.5t-30 6.5q-40 0 -65 -43t-63 -179h109l-9 -37h-109l-62 -273 q-27 -119 -37.5 -159.5t-32.5 -98.5l-96 -28l-7 11q39 71 63.5 146t72.5 272q10 41 19.5 77t13.5 53h-172q-13 -49 -62 -273q-37 -167 -71 -258z" />
<glyph horiz-adv-x="0" />
<glyph horiz-adv-x="333" />
<glyph unicode=" "  horiz-adv-x="385" />
<glyph unicode="&#x09;" horiz-adv-x="385" />
<glyph unicode="&#xa0;" horiz-adv-x="385" />
<glyph unicode="!" horiz-adv-x="274" d="M115 191q46 197 58 384q8 105 71 105q22 0 35.5 -13t13.5 -34q0 -33 -63 -184q-47 -110 -83 -262zM39 47q0 23 16.5 39.5t39.5 16.5t39.5 -16t16.5 -40q0 -23 -16.5 -39.5t-39.5 -16.5t-39.5 16.5t-16.5 39.5z" />
<glyph unicode="&#x22;" horiz-adv-x="299" d="M250 420l11 141q4 44 16 61.5t37 17.5q17 0 28 -10t11 -25q0 -16 -7 -32l-67 -153h-29zM121 420l11 141q4 44 16 61.5t37 17.5q17 0 28 -10t11 -25q0 -12 -8 -32l-66 -153h-29z" />
<glyph unicode="#" d="M116 49l29 169h-98l7 38h99l23 123h-100l9 39h96l30 166h58l-28 -166h100l28 166h58l-28 -166h104l-5 -39h-107l-21 -123h104l-7 -38h-104l-28 -169h-61l30 169h-99l-29 -169h-60zM212 256h100l22 123h-100z" />
<glyph unicode="$" d="M151 -83l18 74q-48 13 -75 32q-65 47 -65 116q0 31 19.5 53.5t46.5 22.5q23 0 37.5 -15.5t14.5 -39.5q0 -21 -8 -30.5t-37 -23.5q-8 -4 -8 -12q0 -37 84 -67l62 247q-79 29 -111 67t-32 100q0 88 58.5 147t145.5 59q20 0 31 -1l15 57h34l-15 -63q59 -20 93 -58t34 -85 q0 -32 -17.5 -53t-44.5 -21q-23 0 -38 15.5t-15 39.5q0 17 10 32q5 8 28 19q11 5 11 14q0 15 -20.5 32.5t-49.5 28.5l-59 -234q56 -23 88 -42q77 -48 77 -141q0 -89 -63 -146.5t-160 -57.5q-14 0 -38 3l-17 -69h-34zM247 388l19 -10l58 235h-9h-11q-61 0 -102 -35.5 t-41 -88.5q0 -42 30 -69q15 -12 56 -32zM211 20q26 -2 33 -2q59 0 100.5 36.5t41.5 89.5q0 51 -40 80q-22 17 -74 40z" />
<glyph unicode="%" horiz-adv-x="656" d="M96 0l441 667h54l-439 -667h-56zM180 302q-43 0 -68.5 35.5t-25.5 95.5q0 88 50 160.5t112 72.5q40 0 66 -38.5t26 -97.5q0 -85 -58 -165q-46 -63 -102 -63zM182 336q29 0 52 45q18 34 33 92.5t15 93.5q0 65 -38 65q-34 0 -66.5 -75.5t-32.5 -155.5q0 -65 37 -65z M348 133q0 89 50 161t111 72q40 0 66 -38.5t26 -97.5q0 -85 -57 -165q-46 -63 -102 -63q-43 0 -68.5 35.5t-25.5 95.5zM407 101q0 -65 37 -65q28 0 51 45q18 34 33 92.5t15 93.5q0 65 -38 65q-34 0 -66 -75.5t-32 -155.5z" />
<glyph unicode="&#x26;" horiz-adv-x="681" d="M630 136l27 -20q-52 -72 -91 -99.5t-89 -27.5q-34 0 -59.5 12.5t-53.5 43.5q-54 -34 -90.5 -47t-78.5 -13q-77 0 -127 45.5t-50 115.5q0 50 25 98.5t68 82.5q42 33 120 62q-11 62 -11 93q0 88 46 144t119 56q57 0 94.5 -35.5t37.5 -89.5q0 -82 -80 -127q-40 -21 -114 -48 q11 -64 39 -143.5t51 -115.5q104 107 104 161q0 23 -22 36q-11 7 -59 12l8 32h242l-8 -32q-47 -3 -66.5 -17t-56.5 -70q-67 -101 -123 -150q46 -47 87 -47q36 0 69 33q9 11 32 42zM316 416q38 15 57 25q82 43 82 123q0 37 -18.5 59t-49.5 22q-37 0 -60 -33t-23 -87 q0 -41 12 -109zM115 181q0 -61 36 -103.5t89 -42.5q48 0 101 37q-69 108 -102 283q-42 -21 -65 -41q-27 -25 -43 -61t-16 -72z" />
<glyph unicode="'" horiz-adv-x="169" d="M121 420l11 141q4 44 16 61.5t37 17.5q17 0 28 -10t11 -25q0 -12 -8 -32l-66 -153h-29z" />
<glyph unicode="(" horiz-adv-x="326" d="M234 -96l-8 -37q-91 26 -136 86q-54 75 -54 201q0 137 62.5 274t153.5 200q42 29 77.5 39.5t95.5 12.5l-8 -38q-60 -4 -101.5 -32t-73.5 -84q-49 -88 -82 -209t-33 -216q0 -150 107 -197z" />
<glyph unicode=")" horiz-adv-x="326" d="M-62 -94q60 5 102 32.5t73 82.5q49 88 82 209t33 216q0 150 -107 197l9 37q49 -13 80 -33t55 -53q54 -73 54 -200q0 -138 -62 -274.5t-154 -200.5q-42 -29 -77.5 -40t-95.5 -12z" />
<glyph unicode="*" horiz-adv-x="420" d="M295 435v-4q0 -26 -7.5 -37t-24.5 -11q-16 0 -27 8.5t-11 21.5q0 12 14 37l40 71l-77 -39q-26 -13 -33 -13q-12 0 -21 10.5t-9 24.5q0 18 12 25t42 8l75 1l-66 35q-22 12 -29 20t-7 19q0 14 10.5 25t24.5 11q15 0 35 -30l50 -71l-3 82v5q-5 48 32 48q16 0 27 -9t11 -22 q0 -14 -13 -36l-41 -71l77 39q25 13 33 13q12 0 21 -10.5t9 -24.5q0 -18 -12 -25t-42 -8l-75 -1l66 -36q21 -11 28.5 -19t7.5 -19q0 -14 -10.5 -25t-24.5 -11q-15 0 -35 30l-49 71z" />
<glyph unicode="+" d="M252 116v179h-176v44h176v178h47v-178h177v-44h-177v-179h-47z" />
<glyph unicode="," horiz-adv-x="255" d="M-24 -135l-11 30q57 27 76 42q18 13 31.5 30t13.5 27q0 8 -21 11q-41 5 -41 49q0 25 17 42t41 17q28 0 46.5 -22.5t18.5 -54.5q0 -34 -18 -67t-47 -54q-38 -27 -106 -50z" />
<glyph unicode="-" horiz-adv-x="200" d="M-6 188l17 67h200l-17 -67h-200z" />
<glyph unicode="." horiz-adv-x="255" d="M27 51q0 25 17.5 42t41.5 17q26 0 43 -17t17 -43q0 -24 -17.5 -41.5t-41.5 -17.5q-25 0 -42.5 17.5t-17.5 42.5z" />
<glyph unicode="/" horiz-adv-x="386" d="M22 0h-55l459 667h53z" />
<glyph unicode="0" d="M211 -8q-69 0 -111 63t-42 167q0 101 42 199t109.5 159t136.5 61q66 0 105 -62.5t39 -168.5q0 -77 -25.5 -156.5t-69.5 -140.5q-87 -121 -184 -121zM140 140q0 -53 19 -83t52 -30q70 0 124 122q31 70 54.5 172t23.5 165q0 117 -73 117q-66 0 -122 -120 q-34 -73 -56 -169.5t-22 -173.5z" />
<glyph unicode="1" d="M41 0l9 35h13l29 1q39 1 50.5 12t22.5 55l93 371q6 24 6 40q0 13 -10 18t-37 5q-16 0 -68 -4l9 35q43 2 97.5 22t91.5 48h36q-16 -40 -48 -166l-95 -378q-4 -20 -4 -28q-1 -19 16.5 -24t93.5 -7l-9 -35h-296z" />
<glyph unicode="2" d="M5 -6l10 37q39 47 73 81q16 16 79 74l69 63q85 79 118.5 131.5t33.5 110.5q0 50 -25.5 77t-73.5 27q-49 0 -91.5 -31t-42.5 -66q0 -12 8 -17q2 -2 23 -6q17 -3 28 -17.5t11 -34.5q0 -23 -16 -38.5t-40 -15.5q-30 0 -48.5 22t-18.5 59q0 76 61.5 130.5t146.5 54.5 q75 0 121.5 -45t46.5 -117q0 -88 -77 -165q-19 -19 -180 -134q-74 -54 -130 -106q34 5 96 5q40 0 57 -1q54 -2 61 -2q37 0 55.5 17.5t50.5 81.5l6 12l27 -13l-58 -173h-15l-42 2q-61 3 -98 3q-172 0 -226 -6z" />
<glyph unicode="3" d="M90 96q0 -28 33 -50.5t74 -22.5q57 0 94 45q54 64 54 150q0 40 -21.5 65.5t-55.5 25.5q-8 0 -25 -3q-11 -3 -18 -3q-9 0 -15.5 7t-6.5 17q0 11 8 18.5t19 7.5q4 0 16 -2q26 -7 36 -7q50 0 88 48.5t38 111.5q0 46 -25 71.5t-69 25.5q-36 0 -65 -16.5t-29 -37.5 q0 -7 11 -16q20 -18 20 -42q0 -20 -13.5 -34t-33.5 -14q-22 0 -37.5 17t-15.5 42q0 54 52 94.5t122 40.5q73 0 117.5 -39t44.5 -102t-38 -106.5t-105 -56.5q-7 -2 -29 -5q62 -14 90 -45.5t28 -86.5q0 -85 -67 -147t-158 -62q-73 0 -123.5 43t-50.5 104q0 35 19.5 60t47.5 25 q20 0 33 -15.5t13 -37.5q0 -18 -9.5 -32.5t-25.5 -18.5q-14 -4 -18 -7t-4 -10z" />
<glyph unicode="4" d="M155 0l9 34q18 2 21 2q46 3 56.5 10.5t19.5 44.5l19 75h-251l10 42l390 425h48q-22 -69 -34 -114l-78 -310h104l-11 -43h-103l-17 -69q-6 -24 -6 -33q0 -16 15.5 -22t67.5 -8l-9 -34h-251zM93 209h197l78 311z" />
<glyph unicode="5" d="M498 648l6 -12q-44 -96 -168 -96q-40 0 -120 15q-15 -50 -25 -94q-16 -65 -26 -97q59 44 123 44q71 0 117.5 -46t46.5 -118q0 -108 -71.5 -183.5t-173.5 -75.5q-73 0 -119 39.5t-46 101.5q0 36 18.5 60t45.5 24q22 0 35.5 -15.5t13.5 -38.5q0 -28 -17 -40q-3 -4 -28 -13 q-9 -4 -9 -16q0 -26 30 -46t69 -20q65 0 107 54q56 72 56 165q0 55 -29.5 88.5t-78.5 33.5q-55 0 -98 -39q-9 -24 -17 -33t-20 -9q-10 0 -16.5 7.5t-6.5 18.5q0 22 33 44q64 240 73 297q111 -30 162 -30q73 0 133 30z" />
<glyph unicode="6" d="M67 203q0 111 43.5 211t115.5 160.5t151 60.5q54 0 91.5 -31.5t37.5 -76.5q0 -26 -18 -45t-42 -19q-20 0 -34 14.5t-14 35.5q0 20 19 47q6 8 6 14q0 10 -15.5 18.5t-32.5 8.5q-97 0 -165 -162q-19 -44 -49 -143q34 49 69 70.5t81 21.5q64 0 106.5 -44t42.5 -109 q0 -100 -67.5 -175t-156.5 -75q-79 0 -124 58.5t-45 159.5zM146 142q0 -57 23.5 -89.5t64.5 -32.5q56 0 89 54q21 34 34.5 78.5t13.5 81.5q0 51 -24 80.5t-65 29.5q-56 0 -96 -59.5t-40 -142.5z" />
<glyph unicode="7" horiz-adv-x="495" d="M536 634l-6 -32q-105 -158 -164 -273.5t-90 -223.5q-16 -58 -21 -71t-17 -26q-15 -15 -35 -15t-33 13.5t-13 35.5q0 55 129 254q116 180 180 262q-45 -3 -64 -3l-56 1q-56 2 -66 2q-53 0 -80 -22.5t-65 -99.5l-28 14l79 188q71 -9 178 -9q58 0 172 5z" />
<glyph unicode="8" d="M43 139q0 39 19 76t50 59q40 28 105 43q-39 32 -54.5 60.5t-15.5 66.5q0 79 56.5 135t136.5 56q70 0 117.5 -41.5t47.5 -103.5q0 -110 -146 -156q95 -69 95 -148q0 -41 -21.5 -83t-58.5 -71q-59 -47 -140 -47q-85 0 -138 43t-53 111zM333 353q51 18 82.5 58t31.5 87 q0 45 -31 74t-79 29q-50 0 -86 -33t-36 -80q0 -39 27 -70t91 -65zM244 297l-14 -5q-56 -20 -88.5 -62.5t-32.5 -95.5q0 -50 36.5 -80.5t95.5 -30.5q60 0 100.5 34.5t40.5 85.5q0 50 -43 90q-9 8 -75 51z" />
<glyph unicode="9" d="M44 93q0 26 16 43.5t40 17.5q20 0 34 -14t14 -35q0 -17 -14 -39q-8 -11 -8 -19q0 -11 14 -19.5t33 -8.5q47 0 88 40.5t69 113.5q24 65 47 151q-65 -91 -152 -91q-63 0 -103.5 44t-40.5 112q0 97 66.5 171.5t152.5 74.5q77 0 122.5 -59.5t45.5 -159.5q0 -85 -28.5 -172 t-77.5 -149q-86 -110 -195 -110q-53 0 -88 30.5t-35 77.5zM252 277q56 0 96.5 57t40.5 138q0 60 -23.5 93.5t-65.5 33.5q-57 0 -91 -55q-42 -68 -42 -155q0 -50 23.5 -81t61.5 -31z" />
<glyph unicode=":" horiz-adv-x="255" d="M158 308q-25 0 -42.5 17.5t-17.5 42.5t17.5 42t41.5 17q25 0 42.5 -17.5t17.5 -42.5q0 -24 -17.5 -41.5t-41.5 -17.5zM27 51q0 25 17.5 42t41.5 17q26 0 43 -17t17 -43q0 -24 -17.5 -41.5t-41.5 -17.5q-25 0 -42.5 17.5t-17.5 42.5z" />
<glyph unicode=";" horiz-adv-x="255" d="M160 308q-25 0 -42.5 17.5t-17.5 42.5t17.5 42t41.5 17q25 0 42.5 -17.5t17.5 -42.5q0 -24 -17.5 -41.5t-41.5 -17.5zM-24 -135l-11 30q57 27 76 42q18 13 31.5 30t13.5 27q0 8 -21 11q-41 5 -41 49q0 25 17 42t41 17q28 0 46.5 -22.5t18.5 -54.5q0 -34 -18 -67t-47 -54 q-38 -27 -106 -50z" />
<glyph unicode="&#x3c;" d="M42 344v6l415 266v-41l-303 -197l303 -203v-110z" />
<glyph unicode="=" d="M76 357v44h400v-44h-400zM76 232v44h400v-44h-400z" />
<glyph unicode="&#x3e;" d="M42 65v42l303 196l-303 203v110l415 -278v-7z" />
<glyph unicode="?" horiz-adv-x="326" d="M248 284l28 -7q-30 -86 -99 -86q-34 0 -57.5 23t-23.5 56q0 88 119 176q68 50 89 76t21 60q0 29 -19 46.5t-50 17.5q-49 0 -85 -41t-36 -96q0 -12 1 -20l-29 -2q-2 24 -2 28q0 65 46.5 115t106.5 50q51 0 85 -36t34 -90q0 -105 -131 -178q-63 -35 -82 -51 q-33 -30 -33 -62q0 -19 13 -31t33 -12q50 0 71 64zM65 46q0 23 16.5 39.5t39.5 16.5t39 -16.5t16 -39.5q0 -22 -16 -38.5t-39 -16.5t-39.5 16t-16.5 39z" />
<glyph unicode="@" horiz-adv-x="744" d="M582 386l-104 -269q-11 -30 -11 -43q0 -9 7.5 -15.5t18.5 -6.5q62 0 114.5 67t52.5 147q0 98 -75 168t-179 70q-120 0 -206 -88t-86 -210t92 -207q81 -77 190 -77q112 0 196 73q25 21 59 68h33q-20 -39 -36 -60.5t-42 -43.5q-87 -75 -209 -75q-134 0 -229.5 96t-95.5 230 q0 136 98.5 233t236.5 97q121 0 207 -79t86 -190q0 -97 -68.5 -174.5t-153.5 -77.5q-64 0 -65 60q-42 -34 -65.5 -45.5t-51.5 -11.5q-46 0 -73.5 31.5t-27.5 83.5q0 88 57 174q29 44 70 68.5t85 24.5q27 0 46 -9t41 -33l11 24h77zM266 105q0 -48 39 -48q53 0 98 81 q19 34 42.5 96t26.5 85q2 20 -10.5 35t-31.5 15q-43 0 -92 -71q-30 -44 -51 -100t-21 -93z" />
<glyph unicode="A" horiz-adv-x="665" d="M-34 0l9 35q67 0 111 75l336 567h35l83 -588q5 -38 19.5 -46t77.5 -8l-9 -35h-270l9 35q54 1 69 6t15 23q0 10 -3 28l-18 124h-237l-49 -87q-16 -28 -16 -48q0 -24 19 -34.5t63 -11.5l-8 -35h-236zM216 255h207l-40 294z" />
<glyph unicode="B" horiz-adv-x="644" d="M-16 0l9 35q57 1 76 8q13 5 20 20.5t20 66.5l102 407q12 48 12 64q0 18 -19.5 24t-80.5 7l9 35h274q62 0 96 -7t63 -26q31 -19 48.5 -51.5t17.5 -68.5q0 -43 -23.5 -80.5t-63.5 -56.5q-42 -21 -119 -31q63 -10 98 -29q72 -40 72 -129q0 -48 -23.5 -89t-64.5 -64 q-60 -35 -169 -35h-354zM261 360h50q95 0 141 23q35 17 57 57t22 85q0 65 -42 90q-33 21 -80 21q-51 0 -72 -15q-13 -10 -22 -46zM252 321l-55 -220q-7 -28 -7 -37q0 -17 14 -24.5t48 -7.5h66q81 0 124 43q51 53 51 134q0 65 -45 93q-33 19 -136 19h-60z" />
<glyph unicode="C" horiz-adv-x="616" d="M547 199l34 -18q-46 -101 -107.5 -148t-147.5 -47q-110 0 -185 76.5t-75 189.5q0 79 31 161.5t85 147.5q46 56 108.5 87.5t127.5 31.5q52 0 89 -18.5t70 -61.5l51 52l30 -1l-50 -257h-34q0 247 -151 247q-97 0 -170 -118q-36 -60 -60.5 -149t-24.5 -163 q0 -85 46.5 -135.5t124.5 -50.5q67 0 113.5 39t94.5 135z" />
<glyph unicode="D" horiz-adv-x="683" d="M-16 0l9 35q57 1 76 8q13 5 21 21.5t20 66.5l101 406q12 48 12 64q0 18 -19.5 24t-80.5 7l9 35h224q79 0 115 -4t68 -17q64 -24 102.5 -88t38.5 -145q0 -104 -42 -200t-109 -145q-93 -68 -233 -68h-312zM313 566l-113 -451q-8 -30 -8 -50q0 -19 20 -26t76 -7q80 0 128 28 t87 98q33 60 54 143.5t21 155.5q0 111 -74 156q-35 22 -105 22q-43 0 -59 -12.5t-27 -56.5z" />
<glyph unicode="E" horiz-adv-x="631" d="M-16 0l9 34q57 1 76 8q13 5 20 20t20 68l102 406q12 49 12 65q0 18 -19.5 24t-80.5 7l9 35h516l-41 -229h-30q2 46 2 47q0 89 -35 118.5t-138 29.5q-50 0 -66 -10t-25 -46l-53 -216q8 -1 20 -1q67 0 104 27.5t57 91.5h34l-77 -308h-34q9 33 9 58q0 62 -35 83 q-20 12 -87 12l-56 -222q-7 -29 -7 -36q0 -18 19 -25t66 -7q68 0 107.5 9.5t71.5 34.5q66 50 113 153l28 -14l-71 -217h-540z" />
<glyph unicode="F" horiz-adv-x="575" d="M-16 0l9 35q57 0 76 8q13 5 20 20.5t20 67.5l102 406q12 48 12 64q0 19 -19.5 25t-80.5 7l9 34h520l-37 -225h-32q4 28 4 44q0 83 -41 121q-29 28 -144 28q-56 0 -69 -14q-10 -8 -21 -56l-49 -200h25q74 0 108.5 24.5t56.5 92.5h37l-77 -311h-38q9 42 9 68q0 47 -21.5 68 t-68.5 20l-41 -1l-49 -196q-12 -47 -12 -62q0 -21 22 -27t98 -6l-9 -35h-319z" />
<glyph unicode="G" horiz-adv-x="692" d="M515 0l-14 79q-69 -92 -189 -92q-108 0 -176.5 73.5t-68.5 188.5q0 94 40.5 187.5t107.5 155.5q94 88 213 88q55 0 92.5 -18t69.5 -59l57 64h26l-47 -259h-31q-8 113 -40 164q-43 69 -122 69q-109 0 -180 -120q-37 -61 -60.5 -151t-23.5 -167q0 -82 41 -129.5t112 -47.5 q118 0 162 115q24 61 24 106q0 16 -11.5 20t-77.5 9l-12 1l8 34h279l-9 -35h-7q-47 0 -66 -14q-13 -11 -30 -82l-21 -85q-8 -33 -17 -95h-29z" />
<glyph unicode="H" horiz-adv-x="746" d="M-16 0l9 35q57 0 76 8q13 5 20 20.5t20 67.5l102 406q12 48 12 64q0 18 -19.5 24t-80.5 7l9 35h301l-9 -35q-56 0 -78 -8q-14 -5 -21 -20.5t-20 -66.5l-42 -170h296l43 170q12 49 12 64q0 19 -20 25t-82 6l8 35h302l-9 -35q-59 0 -76 -8q-14 -5 -21 -20.5t-20 -66.5 l-101 -407q-12 -46 -12 -64t19.5 -24t79.5 -7l-8 -35h-297l8 35q54 0 75 8q13 5 19.5 20t20.5 68l48 191h-296l-48 -192q-12 -48 -12 -62q0 -20 19 -26t83 -7l-9 -35h-301z" />
<glyph unicode="I" horiz-adv-x="354" d="M-17 0l9 35q57 0 76 8q13 5 20 20.5t20 66.5l102 407q12 49 12 64q0 18 -19.5 24t-80.5 7l9 35h299l-9 -35q-54 0 -76 -8q-13 -5 -21 -21t-20 -66l-101 -407q-12 -50 -12 -64q0 -18 19.5 -24t79.5 -7l-8 -35h-299z" />
<glyph unicode="J" horiz-adv-x="496" d="M466 537l-87 -353q-24 -97 -71 -142q-58 -55 -154 -55q-76 0 -122.5 41t-46.5 107q0 56 32.5 96t77.5 40q29 0 48 -18t19 -46q0 -25 -17.5 -44t-40.5 -19q-19 0 -39 17q-10 8 -16 8q-10 0 -18.5 -14.5t-8.5 -31.5q0 -40 32.5 -67.5t78.5 -27.5q113 0 146 135l93 374 q12 51 12 64q0 19 -19.5 25t-79.5 6l9 35h292l-9 -35q-54 -1 -71 -8q-14 -5 -20.5 -19t-19.5 -68z" />
<glyph unicode="K" horiz-adv-x="694" d="M-16 0l9 35q57 0 76 8q13 5 20 20.5t20 66.5l102 407q12 49 12 64q0 18 -19.5 24t-80.5 7l9 35h295l-9 -35q-55 -1 -72 -8q-14 -5 -21 -20.5t-20 -66.5l-56 -225l285 251q25 22 25 40q0 30 -63 30h-9h-2l8 34h258l-8 -35q-42 -5 -64 -12.5t-44 -26.5l-230 -196l142 -309 q16 -34 34 -42.5t81 -10.5l-8 -35h-294l9 35q53 1 69.5 5t16.5 16q0 8 -8 27l-115 252l-98 -85l-30 -120q-12 -49 -12 -62q0 -20 18 -26t76 -7l-8 -35h-294z" />
<glyph unicode="L" horiz-adv-x="598" d="M-16 0l9 35q54 0 76 8q13 5 20 20.5t20 67.5l102 406q12 48 12 64q0 18 -19.5 24t-80.5 7l9 35h313l-9 -35q-69 0 -90 -8q-14 -5 -21 -20.5t-20 -66.5l-110 -442q-6 -25 -6 -33q0 -14 14 -18t62 -4q81 0 123 14.5t82 56.5q41 44 82 132l30 -12l-75 -231h-523z" />
<glyph unicode="M" horiz-adv-x="831" d="M-22 0l9 35q53 1 82 31.5t46 99.5l103 414q5 20 5 26q0 15 -19 20.5t-76 5.5h-13l9 35h238l45 -501l291 501h211l-9 -35q-50 -1 -70 -8q-14 -5 -21.5 -21t-20.5 -66l-101 -407q-12 -51 -12 -62q0 -20 18.5 -26t77.5 -7l-9 -35h-285l9 35q55 1 71 8q14 5 21 20.5t20 66.5 l124 498l-365 -628h-29l-55 616l-116 -465q-8 -32 -8 -50q0 -33 19.5 -47t72.5 -19l-9 -35h-254z" />
<glyph unicode="N" horiz-adv-x="713" d="M-31 0l8 35q62 1 91 31t50 116l104 418q-11 17 -32 23.5t-73 8.5l9 35h196l216 -514l90 363q8 36 8 51q0 33 -18 46.5t-71 18.5l9 35h244l-9 -35q-52 -5 -76.5 -27.5t-38.5 -79.5l-133 -535h-42l-241 575l-103 -412q-6 -23 -8 -50q-2 -37 29 -55q19 -10 69 -13l-8 -35 h-270z" />
<glyph unicode="O" horiz-adv-x="696" d="M68 258q0 107 53 205t141 157.5t184 59.5q113 0 182 -73t69 -193q0 -69 -28.5 -148t-75.5 -139q-52 -66 -124.5 -103t-150.5 -37q-110 0 -180 76t-70 195zM170 189q0 -75 39 -119t105 -44q120 0 204 157q29 56 53 145.5t24 145.5q0 80 -37.5 123.5t-105.5 43.5 q-124 0 -209 -171q-73 -146 -73 -281z" />
<glyph unicode="P" horiz-adv-x="596" d="M-16 0l9 35q57 0 76 8q13 5 20 20.5t20 67.5l102 406q12 48 12 64q0 19 -19.5 25t-80.5 7l9 34h282q101 0 148 -27q37 -20 57.5 -57.5t20.5 -83.5q0 -109 -101 -163q-69 -35 -188 -35h-104l-43 -171q-11 -46 -11 -61q0 -22 21.5 -28t95.5 -6l-8 -35h-318zM256 338h90 q88 0 132 36q28 23 44 64.5t16 89.5q0 57 -33 83.5t-103 26.5q-46 0 -61.5 -12t-26.5 -56z" />
<glyph unicode="Q" horiz-adv-x="685" d="M557 -61l26 -18q-57 -102 -137 -102q-41 0 -68 30.5t-27 76.5q0 33 15 74q-31 -13 -68 -13q-100 0 -165.5 75.5t-65.5 189.5q0 86 37 174t99 150q103 105 235 105q110 0 177.5 -74t67.5 -194q0 -77 -27.5 -152t-76.5 -134q-51 -62 -135 -107q-1 -13 -1 -29 q0 -112 49 -112q17 0 31.5 13.5t33.5 46.5zM192 85q-5 16 -5 31q0 53 37 90t90 37q37 0 67 -18.5t44 -49.5q15 -35 15 -100q44 50 74 123q67 155 67 276q0 78 -36.5 123t-100.5 45q-110 0 -190 -132q-38 -63 -61.5 -150.5t-23.5 -165.5q0 -63 23 -109zM374 39l2 9q8 32 8 61 q0 100 -79 100q-39 0 -65.5 -29t-26.5 -71q0 -83 93 -83q33 0 68 13z" />
<glyph unicode="R" horiz-adv-x="667" d="M-16 0l9 35q57 0 76 8q13 5 20 20.5t20 67.5l102 406q12 49 12 64q0 18 -19.5 24t-80.5 7l9 35h210q103 0 126 -3q80 -9 125 -49t45 -102q0 -48 -29.5 -87.5t-79.5 -59.5q-48 -19 -131 -24q72 -27 92 -67t19 -156q-1 -40 5 -56.5t20 -16.5q17 0 30.5 18t31.5 64l25 -17 q-31 -124 -125 -124q-90 0 -90 106q0 29 5 69q6 62 6 79q0 48 -26.5 67t-94.5 19q-22 0 -43 -1l-49 -196q-12 -49 -12 -62q0 -20 19 -26t82 -7l-9 -35h-300zM262 364h80q86 0 125 24q32 19 50.5 57t18.5 84q0 56 -31 81t-101 25q-47 0 -64 -13t-28 -57z" />
<glyph unicode="S" horiz-adv-x="565" d="M2 20l62 247h34q-3 -29 -3 -46q0 -81 42 -134q23 -28 62.5 -44.5t85.5 -16.5q67 0 110.5 35t43.5 90q0 46 -30.5 76.5t-108.5 61.5q-94 38 -125 72q-42 45 -42 111q0 87 62 147.5t152 60.5q109 0 169 -81l52 48h31l-58 -232h-34q3 25 3 44q0 83 -42.5 132.5t-115.5 49.5 q-60 0 -100 -34.5t-40 -85.5q0 -52 46 -85q22 -15 81 -38q96 -37 132 -73q51 -48 51 -127q0 -90 -70 -154q-64 -57 -170 -57q-64 0 -109 19t-84 63l-51 -49h-36z" />
<glyph unicode="T" horiz-adv-x="587" d="M96 0l9 35q59 0 81 8q14 5 21 20.5t20 66.5l115 464q3 9 3 19q0 25 -38 25q-108 0 -207 -213l-29 8l76 234h520l-37 -242h-31q2 40 2 45q0 100 -34 137q-31 31 -83 31q-22 0 -31.5 -9t-16.5 -38l-115 -461q-11 -44 -11 -62q0 -20 20.5 -26.5t88.5 -6.5l-9 -35h-314z" />
<glyph unicode="U" horiz-adv-x="713" d="M675 504l-68 -272q-34 -134 -97 -189.5t-182 -55.5q-102 0 -158 47t-56 132q0 37 11 83l72 288q13 53 13 65q0 17 -19 23t-77 7l9 35h289l-9 -35q-54 -1 -71 -8q-13 -5 -20 -20.5t-20 -66.5l-74 -295q-10 -42 -10 -75q0 -77 43 -110q41 -33 103 -33q155 0 203 193l76 302 q5 23 5 42q0 48 -38 62q-17 7 -58 9l10 35h252l-10 -35q-47 0 -74.5 -29.5t-44.5 -98.5z" />
<glyph unicode="V" horiz-adv-x="615" d="M270 -17l-101 586q-6 36 -14 46t-35 14q-2 0 -11 1t-15 2l9 35h252l-9 -35q-52 -1 -68.5 -10.5t-16.5 -35.5l3 -27l68 -427l218 426q12 24 12 42q0 28 -52 31l-19 1l9 35h197l-8 -35q-30 -3 -51.5 -22.5t-44.5 -64.5l-288 -562h-35z" />
<glyph unicode="W" horiz-adv-x="941" d="M244 -17l-58 591q-4 35 -18.5 45t-66.5 13l9 35h256l-9 -35q-57 -4 -69.5 -10.5t-12.5 -29.5v-9l42 -437l205 401l-4 32q-5 35 -20.5 43.5t-79.5 9.5l9 35h276l-9 -35q-62 -5 -74.5 -11t-12.5 -31v-10l40 -430l209 392q14 28 14 46q0 23 -20 35t-56 10q-4 0 -7 -1l9 35 h228l-9 -35q-67 -10 -102 -76l-307 -573h-33l-44 499l-253 -499h-32z" />
<glyph unicode="X" horiz-adv-x="706" d="M2 0l9 35q69 0 112 48l225 253l-92 239q-11 30 -28.5 41t-55.5 14q-1 0 -27 2l8 35h277l-8 -35q-51 -4 -65.5 -7.5t-14.5 -12.5q0 -5 5 -18l73 -190l130 150q25 29 25 45q0 17 -14 23.5t-58 9.5l9 35h244l-9 -35q-72 -3 -117 -53l-194 -214l114 -278q14 -32 35 -41.5 t82 -10.5l-9 -35h-294l9 35q10 -1 22 -1q66 0 66 22q0 8 -8 27l-86 214l-156 -178q-22 -25 -22 -47q0 -34 77 -37l-9 -35h-255z" />
<glyph unicode="Y" horiz-adv-x="619" d="M122 0l9 35q68 0 89 8q13 5 21 20.5t20 66.5l36 145l-126 316q-10 25 -24 31t-69 10l9 35h276l-9 -35l-13 -1l-27 -3q-27 -3 -36.5 -8t-9.5 -15q0 -11 7 -28l100 -250l166 222q16 22 16 39q0 22 -16 30q-16 10 -68 14l9 35h243l-9 -35q-40 -5 -63 -19t-49 -49l-210 -278 l-39 -156q-12 -48 -12 -62q0 -20 20.5 -26.5t86.5 -6.5l-9 -35h-319z" />
<glyph unicode="Z" horiz-adv-x="588" d="M-3 0l8 30l495 601q-57 1 -82 1q-62 0 -95 -8.5t-64 -33.5q-58 -46 -109 -153l-32 10l74 220h440l-8 -32l-489 -597h120q101 0 155.5 39t112.5 153l34 -13l-73 -222q-60 5 -106 5h-381z" />
<glyph unicode="[" horiz-adv-x="326" d="M-9 -120l196 787h205l-11 -43h-110l-175 -703h110l-10 -41h-205z" />
<glyph unicode="\" horiz-adv-x="386" d="M259 0l-126 667h55l124 -667h-53z" />
<glyph unicode="]" horiz-adv-x="326" d="M-25 -77h111l175 703h-111l10 41h205l-196 -787h-205z" />
<glyph unicode="^" d="M-25 285l278 415h7l266 -415h-42l-196 303l-203 -303h-110z" />
<glyph unicode="_" d="M0 -79h500v-47h-500v47z" />
<glyph unicode="`" d="M256 565q-30 16 -30 37q0 13 9 23t20 10q15 0 40 -22l100 -90l-15 -23z" />
<glyph unicode="a" horiz-adv-x="497" d="M289 56l1 25q-61 -94 -137 -94q-53 0 -87 41.5t-34 105.5q0 116 68 210q63 89 146 89q89 0 107 -96l21 83h74q-37 -101 -67.5 -214.5t-30.5 -147.5q0 -24 15 -24q17 0 44.5 33.5t51.5 84.5l25 -16q-73 -149 -144 -149q-24 0 -39 19t-14 50zM112 115q0 -39 17.5 -62 t46.5 -23q56 0 101 83q17 32 32.5 88t17.5 94q2 40 -16.5 66t-49.5 26q-53 0 -96 -75q-23 -39 -38 -95.5t-15 -101.5z" />
<glyph unicode="b" horiz-adv-x="453" d="M249 674l-81 -328q29 47 59.5 67t70.5 20q57 0 92 -43t35 -112q0 -111 -72 -201t-161 -90q-55 0 -93 32q-45 36 -45 107q0 28 10 71l92 370q5 18 5 32q0 20 -11 25t-58 5q-6 0 -10 -1l8 33q76 2 159 13zM123 119q0 -44 20.5 -71t53.5 -27q61 0 111 98q37 74 37 157 q0 53 -19 81.5t-53 28.5q-55 0 -99 -79q-22 -39 -36.5 -92.5t-14.5 -95.5z" />
<glyph unicode="c" horiz-adv-x="384" d="M335 117l23 -21q-41 -59 -80 -84t-91 -25q-67 0 -109 48t-42 125q0 107 74.5 190t169.5 83q52 0 84.5 -27.5t32.5 -71.5q0 -31 -17 -52.5t-43 -21.5q-19 0 -31.5 13t-12.5 33q0 26 17 38q4 3 25 7q10 3 10 12q0 16 -17 27t-40 11q-67 0 -114 -71q-24 -37 -41 -94 t-17 -103t24.5 -75t64.5 -29q34 0 62.5 19.5t67.5 68.5z" />
<glyph unicode="d" horiz-adv-x="505" d="M471 151l26 -14q-30 -72 -66.5 -111t-74.5 -39q-26 0 -40 19.5t-14 53.5q0 14 1 22q-31 -51 -61.5 -73t-72.5 -22q-60 0 -96.5 43.5t-36.5 116.5q0 112 67 199t153 87q84 0 104 -86l55 220q4 13 4 32q0 20 -11 25t-57 5q-6 0 -11 -1l8 33q77 2 160 13l-136 -547 q-12 -46 -12 -67q0 -27 18 -27q36 0 93 118zM116 136q0 -45 20 -72t54 -27q62 0 106 89q14 30 27 82.5t14 91.5q2 40 -18.5 65t-54.5 25q-54 0 -96 -70q-52 -89 -52 -184z" />
<glyph unicode="e" horiz-adv-x="397" d="M340 109l21 -24q-77 -99 -169 -99q-69 0 -113 47.5t-44 121.5q0 106 79.5 192t177.5 86q47 0 77 -25.5t30 -66.5q0 -67 -74.5 -114t-205.5 -63q-3 -33 -3 -43q0 -44 22.5 -69t62.5 -25q63 0 139 82zM123 195q89 17 127 37q35 18 55.5 49t20.5 66q0 54 -50 54 q-54 0 -98 -69q-29 -44 -55 -137z" />
<glyph unicode="f" horiz-adv-x="279" d="M72 -148l-95 -28l-7 11q38 71 62.5 146t73.5 272q10 41 19.5 77t13.5 53h-80l9 37h80q33 118 70 176q50 77 115 77q29 0 46.5 -16t17.5 -42q0 -22 -12 -35.5t-31 -13.5q-35 0 -41 46q-1 19 -13 19q-19 0 -38 -46.5t-48 -164.5h108l-9 -37h-108q-14 -53 -62 -273 q-26 -116 -37.5 -157.5t-33.5 -100.5z" />
<glyph unicode="g" horiz-adv-x="440" d="M11 -6q27 15 77 24q-38 16 -51 29t-13 37q0 25 15 47t41 34q23 11 67 15q-38 16 -54 38.5t-16 59.5q0 62 51.5 108.5t121.5 46.5q34 0 74 -16q70 46 103 46q22 0 37 -12t15 -30q0 -17 -11.5 -28.5t-28.5 -11.5q-14 0 -19.5 5t-15.5 27q-4 6 -13 6q-3 0 -5 -0.5t-9.5 -3.5 t-18.5 -7q-7 -2 -12 -4q65 -41 65 -108q0 -60 -48.5 -105t-113.5 -45q-28 0 -57 4q-38 4 -49 4q-25 0 -40.5 -10.5t-15.5 -26.5q0 -20 18 -26t92 -12q101 -9 133 -26q22 -11 35.5 -35t13.5 -50q0 -64 -65.5 -104t-169.5 -40q-83 0 -132.5 26t-49.5 69q0 23 13 43.5t36 31.5z M229 174q47 0 75 40q32 47 32 102q0 40 -20 62.5t-56 22.5q-44 0 -75.5 -41t-31.5 -99q0 -40 20.5 -63.5t55.5 -23.5zM36 -77q0 -33 31 -51t87 -18q72 0 115 22.5t43 59.5t-37 53q-43 19 -117 19q-57 0 -89.5 -22.5t-32.5 -62.5z" />
<glyph unicode="h" horiz-adv-x="510" d="M24 -7l6 20q36 113 56 194l90 360q4 20 4 32q0 20 -11 25t-57 5q-6 0 -11 -1l8 33q77 2 160 13l-97 -388q48 77 90.5 112t88.5 35q35 0 58 -24t23 -61q0 -28 -17 -82q0 -2 -11 -37t-17 -57l-21 -76q-7 -24 -7 -36q0 -19 17 -19q42 0 103 115l27 -16q-37 -73 -78 -113 t-79 -40q-27 0 -45.5 20t-18.5 49q0 33 57 219q13 46 13 66q0 18 -10 29t-27 11q-34 0 -73.5 -40t-71.5 -107q-41 -83 -67 -234z" />
<glyph unicode="i" horiz-adv-x="272" d="M210 567q-20 0 -34.5 14.5t-14.5 34.5t15 34.5t35 14.5t34 -14.5t14 -34.5t-14.5 -34.5t-34.5 -14.5zM245 154l25 -15q-21 -44 -51 -83q-55 -70 -107 -70q-29 0 -46 18.5t-17 50.5q0 25 7 47l67 231q5 18 5 30q0 13 -9 17.5t-34 4.5q-2 0 -38 -2l9 34q107 8 162 14 l-93 -343q-5 -20 -5 -32q0 -10 5 -16.5t13 -6.5q20 0 50 33.5t57 87.5z" />
<glyph unicode="j" horiz-adv-x="228" d="M206 568q-20 0 -35 15t-15 35t14.5 34.5t35.5 14.5q20 0 34.5 -14t14.5 -35q0 -20 -14.5 -35t-34.5 -15zM29 -39l89 336q11 44 11 60t-9.5 22t-33.5 6h-37l9 33q100 7 160 15l-88 -368q-58 -243 -185 -243q-29 0 -47 16.5t-18 43.5q0 22 12.5 36t31.5 14q16 0 27 -10 t11 -25q0 -4 -5 -23v-1q0 -5 3.5 -8.5t8.5 -3.5q33 0 60 100z" />
<glyph unicode="k" horiz-adv-x="478" d="M25 -7q1 4 19 65q10 32 18 61q2 8 5.5 19t5.5 18l2 6l100 405q5 17 5 32q0 20 -11 25t-57 5q-6 0 -11 -1l8 33q80 1 160 13l-98 -391q38 58 60 84q60 66 122 66q35 0 58 -24t23 -60q0 -52 -46 -92.5t-125 -58.5q28 -13 39.5 -35.5t16.5 -68.5q4 -38 7.5 -48t13.5 -10 q27 0 84 104l26 -15q-40 -76 -71.5 -107t-68.5 -31q-61 0 -61 85v24q0 10 0.5 21.5t0.5 14.5q0 32 -11 56q-17 -7 -28 -7q-26 0 -26 19q0 10 7 16.5t16 6.5q4 0 22 -4q1 0 9 -2q61 14 94 45.5t33 75.5q0 20 -12 34t-30 14q-32 0 -72 -39t-74 -105q-47 -88 -71 -242z" />
<glyph unicode="l" horiz-adv-x="261" d="M240 155l26 -15q-26 -49 -54 -86q-51 -67 -105 -67q-26 0 -43.5 18.5t-17.5 46.5q0 16 10 56l114 459q4 15 4 32q0 20 -11 25t-57 5h-11l8 32q77 2 160 13l-147 -591q-4 -20 -4 -27q0 -25 21 -25q20 0 50.5 35t56.5 89z" />
<glyph unicode="m" horiz-adv-x="746" d="M28 -7q38 98 58 178l43 172q3 12 3 21q0 21 -34 21q-16 0 -41 -2l8 34q4 0 8.5 0.5t7.5 1t4 0.5l35 2l63 8l16 2q1 0 3.5 0.5t7 1t9.5 0.5l-39 -147q50 81 88 114t81 33q35 0 55 -22.5t20 -61.5q0 -16 -7 -51q47 73 86.5 104.5t82.5 31.5q38 0 60 -22.5t22 -62.5 q0 -22 -10 -59.5t-56 -184.5q-12 -40 -12 -52q0 -8 4.5 -14t10.5 -6q20 0 44 26t64 91l25 -16q-47 -80 -82.5 -113.5t-73.5 -33.5q-27 0 -45.5 20.5t-18.5 51.5q0 21 5 40t34 111q35 108 35 133q0 18 -10.5 29.5t-26.5 11.5q-30 0 -68.5 -39.5t-67.5 -100.5 q-22 -44 -40 -112.5t-25 -131.5l-87 -7q31 84 60.5 198.5t29.5 147.5q0 19 -10 31t-27 12q-24 0 -54.5 -27.5t-59.5 -74.5q-32 -51 -58.5 -131t-33.5 -149z" />
<glyph unicode="n" horiz-adv-x="524" d="M27 -7q44 115 59 178l43 172q3 12 3 21q0 21 -34 21q-16 0 -41 -2l8 34q4 0 8.5 0.5t7.5 1t4 0.5l35 2l63 8l16 2q1 0 3.5 0.5t7 1t9.5 0.5l-32 -150q37 60 61 88q54 63 114 63q35 0 58 -24t23 -61q0 -42 -41 -170q-35 -106 -35 -128q0 -20 16 -20q20 0 50 31.5t59 83.5 l23 -17q-75 -143 -157 -143q-27 0 -46 19t-19 47t14 70l27 87l21 67q14 39 14 66q0 16 -10.5 27t-24.5 11q-33 0 -72.5 -39t-75.5 -107q-43 -82 -70 -234z" />
<glyph unicode="o" horiz-adv-x="467" d="M39 171q0 102 72 182t164 80q72 0 116.5 -49.5t44.5 -129.5q0 -106 -71.5 -186.5t-164.5 -80.5q-70 0 -115.5 52t-45.5 132zM119 124q0 -50 21 -77.5t61 -27.5q63 0 107 81q18 33 33 94t15 101q0 106 -78 106q-67 0 -114 -93q-45 -87 -45 -184z" />
<glyph unicode="p" horiz-adv-x="485" d="M17 -112l113 455q3 12 3 20q0 22 -35 22q-17 0 -41 -2l8 34q4 0 8.5 0.5t7.5 1t4 0.5l35 2l63 8l16 2q1 0 3.5 0.5t7 1t9.5 0.5l-28 -96q35 51 68.5 73.5t75.5 22.5q56 0 88.5 -40.5t32.5 -111.5q0 -125 -72 -216q-63 -78 -145 -78q-85 0 -112 78l-37 -150q-7 -29 -7 -38 q0 -13 10 -17t48 -5q9 0 17 -1l-9 -34h-208l9 34h13q29 0 39 6t15 28zM152 126q0 -44 19.5 -69t54.5 -25q66 0 109 87q17 33 29 85.5t12 90.5q0 45 -17.5 69.5t-49.5 24.5q-60 0 -108 -86q-49 -88 -49 -177z" />
<glyph unicode="q" horiz-adv-x="459" d="M249 -108l45 184q-31 -48 -62 -68.5t-72 -20.5q-56 0 -92 42.5t-36 109.5q0 115 72.5 204.5t166.5 89.5q77 0 105 -68l46 65h27l-131 -528q-5 -19 -5 -24q0 -14 13.5 -18.5t57.5 -5.5l-9 -34h-214l8 34h15q37 0 47.5 6t17.5 32zM113 132q0 -43 20 -68.5t53 -25.5 q64 0 110 91q16 33 29 87t15 100q2 39 -17 62t-54 23q-58 0 -102 -77q-23 -42 -38.5 -96t-15.5 -96z" />
<glyph unicode="r" horiz-adv-x="365" d="M29 -7q20 45 27 70q4 14 12.5 42.5t11.5 42.5l37 151q10 44 10 56q0 29 -52 29q-4 0 -24 -1l9 37q62 2 154 13l-34 -142q49 81 83 111.5t74 30.5q26 0 43.5 -18.5t17.5 -46.5t-15 -47.5t-37 -19.5q-18 0 -30 12t-12 29q0 9 5 17q1 2 2 5l1.5 4.5t0.5 2.5q0 9 -13 9 q-19 0 -48.5 -36t-61.5 -97q-26 -51 -47 -121.5t-25 -125.5z" />
<glyph unicode="s" horiz-adv-x="375" d="M15 95q0 29 15 47t38 18q19 0 31 -12t12 -31q0 -12 -3.5 -18t-19.5 -24q-7 -7 -7 -15q0 -16 23.5 -27.5t54.5 -11.5q44 0 71 21.5t27 57.5q0 29 -17 46t-66 36q-50 19 -72.5 46t-22.5 67q0 59 46 99t113 40q56 0 92 -27t36 -69q0 -24 -13.5 -40.5t-33.5 -16.5 q-16 0 -27.5 12t-11.5 28q0 12 14 34q4 5 4 14q0 14 -18.5 23.5t-46.5 9.5q-40 0 -65 -20t-25 -51q0 -25 17 -41t66 -36q56 -23 78.5 -49.5t22.5 -71.5q0 -28 -13.5 -57.5t-34.5 -49.5q-43 -39 -117 -39q-65 0 -106 30t-41 78z" />
<glyph unicode="t" horiz-adv-x="287" d="M257 154l27 -17q-47 -83 -83.5 -116.5t-79.5 -33.5q-30 0 -47 18.5t-17 52.5q0 23 8 57l67 268h-87l9 37h87l38 150h66l-37 -150h100l-9 -37h-100l-68 -271q-9 -38 -9 -52q0 -10 6.5 -16.5t16.5 -6.5q48 0 112 117z" />
<glyph unicode="u" horiz-adv-x="508" d="M477 155l26 -15q-71 -153 -155 -153q-25 0 -41.5 20t-16.5 49q0 20 7 59q-46 -71 -81.5 -99.5t-77.5 -28.5q-38 0 -60.5 25t-22.5 67q0 26 12 67l55 180q9 31 9 37q0 22 -40 22q-3 0 -7 -0.5t-11.5 -1t-14.5 -0.5l10 37q103 6 157 13l-81 -284q-12 -45 -12 -64 q0 -40 37 -40q30 0 68.5 38t65.5 94q45 95 72 243l85 7q-41 -124 -70 -231t-29 -135q0 -19 17 -19q39 0 99 113z" />
<glyph unicode="v" horiz-adv-x="436" d="M218 413l-23 -78q-47 -157 -47 -227q0 -37 15 -57t42 -20q29 0 60 23.5t54 63.5q58 98 58 186q0 19 -5 28.5t-29 36.5q-10 10 -10 27q0 19 12 31.5t31 12.5q48 0 48 -80q0 -49 -18 -115.5t-46 -121.5q-31 -62 -79 -99t-96 -37q-50 0 -81 35t-31 90q0 40 5.5 65.5 t39.5 134.5q10 32 10 53q0 20 -30 20q-1 0 -41 -2l9 37q9 1 17 1l33 2q70 4 107 10q-5 -18 -5 -20z" />
<glyph unicode="w" horiz-adv-x="655" d="M374 420l86 7q-32 -96 -54.5 -190t-22.5 -132q0 -69 48 -69q44 0 86 57q32 42 54.5 104t22.5 106q0 24 -21 48q-24 25 -24 46q0 17 13 30t30 13q23 0 38 -21.5t15 -55.5q0 -108 -72 -245q-68 -132 -165 -132q-44 0 -68.5 27t-24.5 74q0 25 8 73q-31 -65 -56 -99 q-54 -74 -126 -74q-38 0 -62 26.5t-24 68.5q0 26 14 73l54 173q10 31 10 37q0 19 -40 19q-21 0 -36 -1l10 37l14 1l36 1q34 1 108 11l-22 -79q-11 -39 -45 -150q-26 -85 -26 -118q0 -49 41 -49q67 0 142 162q25 54 35 90.5t24 130.5z" />
<glyph unicode="x" horiz-adv-x="431" d="M400 132l25 -17q-70 -129 -139 -129q-34 0 -54 39.5t-30 128.5q-10 -18 -11 -21q-38 -75 -62 -105q-32 -41 -71 -41q-26 0 -45 17.5t-19 42.5q0 22 13.5 37.5t33.5 15.5q35 0 37 -36q1 -22 12 -22q16 0 43.5 41.5t59.5 112.5q-9 58 -28 139q-8 37 -26 37q-14 0 -28.5 -17 t-43.5 -67l-27 14q48 82 73 106.5t57 24.5q31 0 47 -31.5t32 -124.5q37 83 69 120t67 37q22 0 37 -15.5t15 -38.5q0 -20 -12 -35t-29 -15q-13 0 -20 6t-18 26q-4 8 -10 8q-14 0 -38.5 -37.5t-48.5 -96.5l29 -152q4 -18 12.5 -30t18.5 -12q32 0 79 90z" />
<glyph unicode="y" horiz-adv-x="386" d="M254 125l36 77q37 77 37 120q0 10 -7 47q-2 12 -2 21q0 22 12 36t30 14q17 0 27 -11.5t10 -30.5q0 -26 -12.5 -58t-63.5 -142q-104 -218 -165 -296t-128 -78q-36 0 -59.5 18.5t-23.5 46.5q0 21 13.5 34.5t33.5 13.5q16 0 28 -10.5t12 -24.5q0 -3 -2 -17q-1 -4 -1 -10 q0 -15 19 -15q28 0 69 44q27 28 70 105q-24 147 -60 266q-16 50 -26 68.5t-22 18.5q-22 0 -47 -76l-28 11q29 72 55.5 104t57.5 32q23 0 35 -18.5t31 -79.5q37 -119 57 -239q11 25 14 29z" />
<glyph unicode="z" horiz-adv-x="387" d="M343 137l26 -12q-56 -138 -147 -138q-29 0 -52 8.5t-72 39.5q-21 13 -54 16q1 -9 1 -16q0 -20 -8.5 -33.5t-21.5 -13.5q-8 0 -14.5 7t-6.5 17q0 47 101 146q38 36 63 55t110 72q38 23 80 70q-42 -22 -73 -22q-30 0 -71 17q-44 18 -57 18q-19 0 -34.5 -15.5t-38.5 -56.5 l-27 13q29 49 48 73q39 50 93 50q22 0 34 -4.5t57 -27.5q31 -17 55 -17q22 0 26 26q3 22 18 22q8 0 13 -6t5 -15q0 -22 -22 -59.5t-56 -73.5q-48 -52 -146 -110q-72 -43 -117 -82q31 10 58 10t42 -4t78 -28q17 -7 33 -7q23 0 40.5 18.5t36.5 62.5z" />
<glyph unicode="{" horiz-adv-x="326" d="M221 -125h-68q-117 0 -117 83q0 26 16 94l29 117q13 54 13 70q0 23 -13.5 36t-46.5 21l8 30q53 12 73 35.5t37 91.5l20 83q20 82 55 112t112 30h79l-8 -32q-70 -1 -101.5 -26.5t-48.5 -93.5l-24 -96q-14 -57 -34.5 -82t-63.5 -40q45 -31 45 -71q0 -15 -7 -45l-32 -130 q-15 -63 -15 -86q0 -32 21.5 -46.5t78.5 -22.5z" />
<glyph unicode="|" d="M220 -167v834h60v-834h-60z" />
<glyph unicode="}" horiz-adv-x="326" d="M98 27l24 97q14 57 34.5 82t63.5 40q-45 30 -45 70q0 21 6 45l33 131q15 60 15 85q0 33 -21.5 47.5t-78.5 22.5l8 31h67q118 0 118 -82q0 -29 -16 -95l-29 -117q-13 -52 -13 -70q0 -23 13.5 -35.5t46.5 -20.5l-8 -31q-52 -11 -72 -34.5t-38 -91.5l-21 -83 q-21 -83 -56 -113t-110 -30h-79l8 32q71 2 102.5 27.5t47.5 92.5z" />
<glyph unicode="~" horiz-adv-x="667" d="M140 612l-15 10q59 99 137 99q28 0 89 -21q53 -19 79 -19q53 0 96 53l15 -10q-26 -46 -62 -72t-73 -26q-20 0 -91 23q-57 19 -86 19q-25 0 -42.5 -11t-46.5 -45z" />
<glyph unicode="&#xa1;" horiz-adv-x="274" d="M208 445q-23 0 -39.5 16.5t-16.5 39.5t17 39.5t39 16.5q23 0 39.5 -16.5t16.5 -39.5t-16.5 -39.5t-39.5 -16.5zM156 360l31 -4q-46 -196 -58 -384q-8 -105 -70 -105q-22 0 -36 13t-14 34q0 33 63 184q45 106 84 262z" />
<glyph unicode="&#xa2;" d="M200 30l19 70q-53 13 -83.5 57.5t-30.5 108.5q0 70 35 135.5t94 105.5q37 25 95 35l16 67h32l-17 -67q48 -3 77 -29t29 -66q0 -31 -17 -53.5t-41 -22.5q-20 0 -33 13.5t-13 33.5q0 24 17 36q4 2 24 7q12 3 12 11q0 15 -17.5 26t-43.5 13l-92 -369q12 -2 19 -2 q29 0 57 20.5t66 69.5l22 -22q-68 -110 -175 -110l-17 -68h-34zM233 153l86 351q-43 -18 -72 -61q-25 -36 -42 -94t-17 -104q0 -66 45 -92z" />
<glyph unicode="&#xa3;" d="M459 155l30 -20q-25 -69 -67 -109.5t-89 -40.5q-30 0 -59 14.5t-90 58.5q-59 -71 -138 -71q-38 0 -61.5 22t-23.5 58q0 43 33 71t84 28q44 0 102 -31q14 55 23 166h-135l10 38h126q2 75 12.5 119.5t34.5 82.5q63 99 164 99q58 0 93 -33t35 -87q0 -32 -17 -52.5t-43 -20.5 q-21 0 -35.5 15t-14.5 37q0 31 31 46q14 7 18 10.5t4 9.5q0 15 -19.5 27t-43.5 12q-32 0 -59 -19.5t-40 -53.5q-23 -60 -37 -192h158l-9 -38h-155q-14 -110 -58 -179q125 -55 158 -55q25 0 42.5 19.5t35.5 68.5zM50 20q62 0 106 66q-42 28 -58.5 35.5t-36.5 7.5 q-28 0 -46 -16.5t-18 -41.5q0 -23 14.5 -37t38.5 -14z" />
<glyph unicode="&#xa4;" horiz-adv-x="667" d="M38 68l-32 33l92 92q-29 43 -40.5 74.5t-11.5 70.5q0 68 50 153l-92 93l32 32l93 -93q71 53 151 53q38 0 70 -11.5t79 -41.5l94 94l33 -33l-95 -94q28 -46 38.5 -77.5t10.5 -70.5t-10.5 -70t-39.5 -76l95 -95l-32 -33l-94 94q-78 -52 -150 -52q-70 0 -148 51zM279 176 q68 0 117.5 49t49.5 116q0 71 -48.5 120.5t-118.5 49.5q-69 0 -118 -49.5t-49 -118.5t49 -118t118 -49z" />
<glyph unicode="&#xa5;" d="M66 0l8 35q55 0 74 8q12 5 18.5 20t18.5 63l23 94h-163l8 33h163l4 15l-30 96h-129l8 33h111l-54 171q-7 22 -19 27.5t-57 9.5l8 35h229l-9 -35l-11 -1l-22 -2q-22 -2 -30 -6.5t-8 -15.5q0 -14 4 -25l76 -238l143 211q15 22 15 38q0 20 -13 27.5t-55 11.5l8 35h201 l-8 -35q-34 -5 -54 -18t-41 -44l-100 -146h129l-8 -33h-144l-59 -86l-6 -25h162l-9 -33h-161l-24 -94q-12 -49 -12 -62q0 -17 16.5 -22.5t71.5 -6.5l-9 -35h-264z" />
<glyph unicode="&#xa6;" d="M224 276v448h51v-448h-51zM224 225h51v-450h-51v450z" />
<glyph unicode="&#xa7;" horiz-adv-x="580" d="M347 132l14 -18q27 -36 35.5 -54t8.5 -39q0 -57 -51 -99t-120 -42q-58 0 -99.5 28.5t-41.5 69.5q0 22 16 36.5t39 14.5q20 0 32 -10.5t12 -26.5q0 -12 -15 -27q-14 -14 -14 -24q0 -13 18 -22t45 -9q41 0 73 23t32 53q0 33 -59 102q-69 81 -100 127q-32 45 -32 77 q0 36 28.5 69.5t96.5 77.5q-35 47 -44.5 66.5t-9.5 45.5q0 55 48.5 92t119.5 37q55 0 95 -26t40 -62q0 -21 -16 -35.5t-39 -14.5q-18 0 -29.5 9.5t-11.5 24.5q0 12 11 24t11 20q0 13 -16.5 22t-40.5 9q-40 0 -67 -20t-27 -49q0 -22 16.5 -46.5t77.5 -92.5q53 -59 74 -94 t21 -64q0 -76 -131 -153zM330 155q76 41 76 89q0 49 -121 174q-74 -46 -74 -97q0 -23 16.5 -46t102.5 -120z" />
<glyph unicode="&#xa8;" d="M406 514q-21 0 -35.5 15t-14.5 35t14.5 34t34.5 14t34.5 -14.5t14.5 -34.5t-14 -34.5t-34 -14.5zM241 513q-20 0 -34.5 14.5t-14.5 34.5t15 35t35 15t34.5 -14.5t14.5 -35.5q0 -20 -15 -34.5t-35 -14.5z" />
<glyph unicode="&#xa9;" horiz-adv-x="747" d="M56 334q0 143 101.5 244.5t245.5 101.5q143 0 244.5 -101.5t101.5 -244.5q0 -145 -102 -246t-249 -101q-140 0 -241 102.5t-101 244.5zM90 334q0 -128 91 -220.5t218 -92.5q132 0 224 91t92 222q0 129 -91.5 220.5t-220.5 91.5q-130 0 -221.5 -91.5t-91.5 -220.5z M519 259l27 -13q-29 -63 -68 -92t-95 -29q-71 0 -119.5 46.5t-48.5 116.5q0 100 66.5 176.5t154.5 76.5q61 0 100 -46l30 29h23l-30 -158h-27q-2 146 -94 146q-63 0 -103 -69q-49 -84 -49 -177q0 -51 28.5 -81t77.5 -30q41 0 69 23t58 81z" />
<glyph unicode="&#xaa;" horiz-adv-x="333" d="M351 364l22 -12q-48 -93 -94 -93q-36 0 -37 48q-37 -48 -82 -48q-35 0 -57 25.5t-22 65.5q0 70 41 124.5t94 54.5q47 0 67 -46l10 38h53q-21 -59 -40 -127t-19 -89q0 -12 7 -12q10 0 26.5 20.5t30.5 50.5zM176 291q32 0 59 47q10 18 19 50.5t10 53.5q1 23 -10 38t-30 15 q-32 0 -59 -48.5t-27 -106.5q0 -22 10.5 -35.5t27.5 -13.5z" />
<glyph unicode="&#xab;" horiz-adv-x="398" d="M263 27l-91 192l165 197h43l-128 -203l53 -186h-42zM129 27l-91 191l169 198h42l-133 -204l57 -185h-44z" />
<glyph unicode="&#xac;" d="M35 222v45h430v-267h-104v222h-326z" />
<glyph unicode="&#xad;" horiz-adv-x="200" d="M-6 188l17 67h200l-17 -67h-200z" />
<glyph unicode="&#xae;" horiz-adv-x="747" d="M56 334q0 143 101.5 244.5t245.5 101.5q143 0 244.5 -101.5t101.5 -244.5q0 -145 -102 -246t-249 -101q-140 0 -241 102.5t-101 244.5zM90 334q0 -128 91 -220.5t218 -92.5q132 0 224 91t92 222q0 129 -91.5 220.5t-220.5 91.5q-130 0 -221.5 -91.5t-91.5 -220.5z M184 133l7 27q33 0 49 4q7 2 11.5 11t11.5 38l59 240q7 30 7 36q0 10 -12.5 13.5t-50.5 3.5l7 27h135q65 0 84.5 -2t40.5 -10q63 -25 63 -83q0 -43 -36.5 -70.5t-99.5 -31.5q37 -16 47.5 -39.5t11.5 -90.5q0 -40 14 -40q16 0 35 51l22 -13q-21 -79 -83 -79q-59 0 -59 69 q0 11 2 37q4 38 4 46q0 28 -16 38.5t-59 10.5h-23l-28 -113q-7 -27 -7 -35q0 -11 12 -14t52 -4l-7 -27h-194zM363 355h47q51 0 76 14q39 21 39 78q0 32 -19 46.5t-62 14.5q-27 0 -36.5 -7t-15.5 -31z" />
<glyph unicode="&#xaf;" d="M189 536l13 54h256l-14 -54h-255z" />
<glyph unicode="&#xb0;" horiz-adv-x="373" d="M263 387q-55 0 -94 39t-39 95q0 55 39.5 94t95.5 39q53 0 92 -39.5t39 -93.5q0 -55 -39 -94.5t-94 -39.5zM263 434q35 0 60.5 25.5t25.5 61.5q0 35 -25.5 60.5t-59.5 25.5q-36 0 -61.5 -25t-25.5 -61t25 -61.5t61 -25.5z" />
<glyph unicode="&#xb1;" d="M252 116v179h-176v44h176v178h47v-178h177v-44h-177v-179h-47zM76 21v44h400v-44h-400z" />
<glyph unicode="&#xb2;" horiz-adv-x="327" d="M54 263l7 26q27 33 46 50l20 18q68 59 71 62q52 45 71.5 75t19.5 64q0 60 -60 60q-29 0 -53.5 -17t-24.5 -36q0 -5 2.5 -7t14.5 -4q27 -5 27 -33q0 -16 -11 -26t-28 -10q-19 0 -31.5 14t-12.5 37q0 46 38.5 79t92.5 33q49 0 79 -27.5t30 -72.5q0 -52 -48 -98 q-12 -11 -112 -80q-46 -32 -71 -55q48 2 52 2q22 0 34 -1q15 -1 37 -1q23 0 33.5 10t33.5 56l22 -9l-36 -108q-84 3 -100 3q-102 0 -143 -4z" />
<glyph unicode="&#xb3;" horiz-adv-x="327" d="M184 258q-47 0 -79.5 26.5t-32.5 64.5q0 22 13 37.5t32 15.5q13 0 22.5 -10t9.5 -24q0 -12 -7.5 -22.5t-17.5 -11.5t-10 -6q0 -16 20 -28.5t44 -12.5q37 0 62 32t25 78q0 23 -13 37.5t-33 14.5q-3 0 -15 -2q-10 -2 -13 -2q-7 0 -11.5 5t-4.5 12q0 8 6.5 14t14.5 6 q1 0 11 -2q14 -4 21 -4q29 0 51 27t22 62q0 26 -15 41t-41 15q-21 0 -37.5 -8.5t-16.5 -19.5q0 -3 6 -7q14 -10 14 -27q0 -13 -9.5 -22.5t-23.5 -9.5q-15 0 -25.5 11t-10.5 27q0 33 33.5 58t77.5 25q46 0 75 -24t29 -62q0 -37 -24 -63t-64 -36q-1 -1 -4 -1q61 -17 61 -77 q0 -52 -42 -89.5t-100 -37.5z" />
<glyph unicode="&#xb4;" d="M279 500l-12 21l123 90q28 20 38 20q12 0 21 -9.5t9 -22.5q0 -24 -34 -38z" />
<glyph unicode="&#xb5;" d="M47 -20l-6 -72q-4 -58 -24 -81q-13 -18 -34 -18q-14 0 -24 9.5t-10 22.5q0 18 24 77q71 173 117 355l46 184h80l-71 -286q-13 -51 -13 -75q0 -29 16.5 -45.5t45.5 -16.5q34 0 65 17t71 58l87 348h79l-84 -338q-9 -37 -9 -50q0 -27 28 -27q15 0 34 10l-4 -16l-88 -40 q-13 -6 -19 -6q-14 0 -23 12t-8 32l1 25l1 12q-42 -34 -62 -47q-55 -39 -111 -39q-79 0 -86 88q-17 -68 -19 -93z" />
<glyph unicode="&#xb6;" d="M96 -64h76l94 378q-64 1 -85 7q-91 23 -91 116q0 48 20.5 97.5t54.5 80.5q33 31 73 41.5t126 10.5h223l-8 -31h-61l-174 -700h63l-7 -30h-312zM226 -64h65l175 700h-66zM257 342l16 1l73 293q-56 2 -85.5 -22.5t-45.5 -84.5l-20 -78q-4 -16 -4 -38q0 -36 17 -54.5 t49 -16.5z" />
<glyph unicode="&#xb7;" horiz-adv-x="255" d="M130 162q-25 0 -42.5 17.5t-17.5 42.5t17.5 42t41.5 17q25 0 42.5 -17.5t17.5 -42.5q0 -24 -17.5 -41.5t-41.5 -17.5z" />
<glyph unicode="&#xb8;" d="M172 -86l64 101h36l-42 -70q34 -1 53.5 -15t19.5 -39q0 -35 -33.5 -57.5t-86.5 -22.5q-34 0 -71 9l7 27q25 -5 44 -5q37 0 58 10.5t21 29.5q0 26 -41 31q-7 1 -29 1z" />
<glyph unicode="&#xb9;" horiz-adv-x="327" d="M110 267l7 27h11l18 1q23 2 29 7t12 29l55 219q3 18 3 23q0 11 -27 11q-15 0 -45 -3l7 28q64 2 119 41h27q-14 -35 -30 -101l-56 -223q-2 -12 -2 -15q-1 -11 9 -13.5t60 -3.5l-7 -27h-190z" />
<glyph unicode="&#xba;" horiz-adv-x="333" d="M191 259q-45 0 -75 32t-30 81q0 62 45.5 109.5t103.5 47.5q47 0 76 -30.5t29 -80.5q0 -63 -45 -111t-104 -48zM192 285q38 0 63 45q10 19 19 53.5t9 57.5q0 62 -47 62q-37 0 -65 -47.5t-28 -108.5q0 -62 49 -62z" />
<glyph unicode="&#xbb;" horiz-adv-x="398" d="M154 27l133 205l-57 184h43l91 -191l-169 -198h-41zM22 27l128 204l-53 185h43l90 -192l-165 -197h-43z" />
<glyph unicode="&#xbc;" horiz-adv-x="802" d="M187 0l429 650h55l-428 -650h-56zM110 267l7 27h11l18 1q23 2 29 7t12 29l55 219q3 18 3 23q0 11 -27 11q-15 0 -45 -3l7 28q64 2 119 41h27q-14 -35 -30 -101l-56 -223q-2 -12 -2 -15q-1 -11 9 -13.5t60 -3.5l-7 -27h-190zM477 98l7 29l241 253h35l-3 -10l-9 -28 q-8 -22 -10 -32l-44 -180h64l-8 -32h-64l-10 -37q-3 -10 -3 -19q0 -8 10.5 -11t42.5 -4l-7 -27h-163l7 27q38 2 45 5q9 1 14 25l10 41h-155zM528 130h112l42 169z" />
<glyph unicode="&#xbd;" horiz-adv-x="802" d="M187 0l429 650h55l-428 -650h-56zM110 267l7 27h11l18 1q23 2 29 7t12 29l55 219q3 18 3 23q0 11 -27 11q-15 0 -45 -3l7 28q64 2 119 41h27q-14 -35 -30 -101l-56 -223q-2 -12 -2 -15q-1 -11 9 -13.5t60 -3.5l-7 -27h-190zM463 -4l7 26q14 18 45 50l49 43l42 37 q51 45 71 75t20 64q0 60 -59 60q-29 0 -53.5 -17t-24.5 -36q0 -5 2.5 -7t14.5 -4q27 -5 27 -33q0 -16 -11 -26t-28 -10q-20 0 -32 14t-12 37q0 46 38.5 79t92.5 33q48 0 78 -27.5t30 -72.5q0 -51 -48 -98q-11 -11 -111 -80q-37 -26 -71 -55q48 2 52 2q21 0 34 -1 q15 -1 37 -1t32.5 9.5t29.5 46.5l5 10l22 -9l-36 -108q-84 3 -100 3q-102 0 -143 -4z" />
<glyph unicode="&#xbe;" horiz-adv-x="802" d="M187 0l429 650h55l-429 -650h-55zM184 258q-47 0 -79.5 26.5t-32.5 64.5q0 22 13 37.5t32 15.5q13 0 22.5 -10t9.5 -24q0 -12 -7.5 -22.5t-17.5 -11.5t-10 -6q0 -16 20 -28.5t44 -12.5q37 0 62 32t25 78q0 23 -13 37.5t-33 14.5q-3 0 -15 -2q-10 -2 -13 -2q-7 0 -11.5 5 t-4.5 12q0 8 6.5 14t14.5 6q1 0 11 -2q14 -4 21 -4q29 0 51 27t22 62q0 26 -15 41t-41 15q-21 0 -37.5 -8.5t-16.5 -19.5q0 -3 6 -7q14 -10 14 -27q0 -13 -9.5 -22.5t-23.5 -9.5q-15 0 -25.5 11t-10.5 27q0 33 33.5 58t77.5 25q46 0 75 -24t29 -62q0 -37 -24 -63t-64 -36 q-1 -1 -4 -1q61 -17 61 -77q0 -52 -42 -89.5t-100 -37.5zM477 98l7 29l241 253h35l-3 -10l-9 -28q-8 -22 -10 -32l-44 -180h64l-8 -32h-64l-10 -37q-3 -11 -3 -19t10.5 -11t42.5 -4l-7 -27h-163l7 27q38 2 45 5q9 1 14 25l10 41h-155zM527 130h113l42 169z" />
<glyph unicode="&#xbf;" horiz-adv-x="326" d="M234 446q-23 0 -39 16.5t-16 40.5q0 22 16.5 38t38.5 16q23 0 39.5 -16t16.5 -39t-16.5 -39.5t-39.5 -16.5zM220 58l29 2q2 -24 2 -28q0 -65 -46.5 -115t-106.5 -50q-51 0 -85 36t-34 90q0 105 131 178q63 35 82 51q33 30 33 62q0 19 -13 31t-33 12q-50 0 -71 -64l-28 7 q30 86 99 86q34 0 57.5 -23t23.5 -56q0 -88 -119 -176q-68 -50 -89 -76t-21 -60q0 -29 19 -46.5t50 -17.5q49 0 85 41t36 96q0 12 -1 20z" />
<glyph unicode="&#xc0;" horiz-adv-x="665" d="M395 792q-30 16 -30 37q0 13 9 23t20 10q14 0 40 -23l100 -90l-15 -22zM-34 0l9 35q67 0 111 75l336 567h35l83 -588q5 -38 19.5 -46t77.5 -8l-9 -35h-270l9 35q54 1 69 6t15 23q0 10 -3 28l-18 124h-237l-49 -87q-16 -28 -16 -48q0 -24 19 -34.5t63 -11.5l-8 -35h-236z M216 255h207l-40 294z" />
<glyph unicode="&#xc1;" horiz-adv-x="665" d="M418 727l-12 20l123 91q26 19 38 19t21 -9.5t9 -22.5q0 -23 -34 -37zM-34 0l9 35q67 0 111 75l336 567h35l83 -588q5 -38 19.5 -46t77.5 -8l-9 -35h-270l9 35q54 1 69 6t15 23q0 10 -3 28l-18 124h-237l-49 -87q-16 -28 -16 -48q0 -24 19 -34.5t63 -11.5l-8 -35h-236z M216 255h207l-40 294z" />
<glyph unicode="&#xc2;" horiz-adv-x="665" d="M307 727l141 126h52l87 -126h-36l-87 74l-113 -74h-44zM-34 0l9 35q67 0 111 75l336 567h35l83 -588q5 -38 19.5 -46t77.5 -8l-9 -35h-270l9 35q54 1 69 6t15 23q0 10 -3 28l-18 124h-237l-49 -87q-16 -28 -16 -48q0 -24 19 -34.5t63 -11.5l-8 -35h-236zM216 255h207 l-40 294z" />
<glyph unicode="&#xc3;" horiz-adv-x="665" d="M334 737q8 52 32.5 82.5t58.5 30.5q32 0 73 -40q33 -32 51 -33q14 -1 26 17.5t17 46.5h26q-8 -51 -33 -81t-60 -30q-17 0 -30 7.5t-39 32.5q-29 28 -52 28q-35 0 -44 -61h-26zM-34 0l9 35q67 0 111 75l336 567h35l83 -588q5 -38 19.5 -46t77.5 -8l-9 -35h-270l9 35 q54 1 69 6t15 23q0 10 -3 28l-18 124h-237l-49 -87q-16 -28 -16 -48q0 -24 19 -34.5t63 -11.5l-8 -35h-236zM216 255h207l-40 294z" />
<glyph unicode="&#xc4;" horiz-adv-x="665" d="M551 741q-20 0 -34.5 14.5t-14.5 34.5t14.5 34.5t34.5 14.5t34.5 -14.5t14.5 -34.5t-14.5 -34.5t-34.5 -14.5zM373 740q-20 0 -34.5 14.5t-14.5 34.5t15 35t35 15t34.5 -14.5t14.5 -35.5q0 -20 -15 -34.5t-35 -14.5zM-34 0l9 35q67 0 111 75l336 567h35l83 -588 q5 -38 19.5 -46t77.5 -8l-9 -35h-270l9 35q54 1 69 6t15 23q0 10 -3 28l-18 124h-237l-49 -87q-16 -28 -16 -48q0 -24 19 -34.5t63 -11.5l-8 -35h-236zM216 255h207l-40 294z" />
<glyph unicode="&#xc5;" horiz-adv-x="665" d="M459 711q-36 0 -62 26t-26 63q0 36 25.5 61.5t61.5 25.5q37 0 62.5 -26t25.5 -63q0 -35 -25.5 -61t-61.5 -26zM458 745q21 0 36.5 16t15.5 38t-15 37t-37 15t-37 -15.5t-15 -37.5t15.5 -37.5t36.5 -15.5zM-34 0l9 35q67 0 111 75l336 567h35l83 -588q5 -38 19.5 -46 t77.5 -8l-9 -35h-270l9 35q54 1 69 6t15 23q0 10 -3 28l-18 124h-237l-49 -87q-16 -28 -16 -48q0 -24 19 -34.5t63 -11.5l-8 -35h-236zM216 255h207l-40 294z" />
<glyph unicode="&#xc6;" horiz-adv-x="929" d="M-37 0l9 34q27 2 45.5 13t42.5 41l381 485q22 28 22 38q0 21 -44 21h-28l10 35h543l-39 -223h-31q4 35 4 53q0 82 -38 113q-31 27 -138 27q-58 0 -73 -17q-6 -7 -16 -47l-52 -208q79 -1 117 24t64 96h33l-77 -309h-33q7 34 7 58q0 62 -33 82q-21 13 -87 13l-55 -221 q-8 -31 -8 -45q0 -17 18 -23t70 -6q111 0 172 42t115 156l28 -15l-71 -217h-534l9 34q55 1 72 8q13 5 20 21t20 67l22 87h-208l-76 -111q-16 -23 -16 -38q0 -17 18.5 -24.5t65.5 -9.5l-9 -34h-242zM250 255h189l94 374z" />
<glyph unicode="&#xc7;" horiz-adv-x="616" d="M247 -99l54 86q-70 7 -125 45q-50 35 -80 94t-30 126q0 79 31 161.5t85 147.5q46 56 108.5 87.5t127.5 31.5q52 0 89 -18.5t70 -61.5l51 52l30 -1l-50 -257h-34q0 247 -151 247q-50 0 -95.5 -32t-76.5 -89q-38 -69 -60.5 -152t-22.5 -156q0 -85 46.5 -136t124.5 -51 q67 0 113.5 39t94.5 135l34 -18q-83 -188 -243 -195l-34 -54q74 -3 74 -55q0 -35 -34 -57t-86 -22q-32 0 -71 9l7 27q25 -4 46 -4q35 0 56 10.5t21 28.5q0 32 -57 32h-13z" />
<glyph unicode="&#xc8;" horiz-adv-x="631" d="M378 792q-30 16 -30 37q0 13 9 23t20 10q14 0 40 -23l100 -90l-15 -22zM-16 0l9 34q57 1 76 8q13 5 20 20t20 68l102 406q12 49 12 65q0 18 -19.5 24t-80.5 7l9 35h516l-41 -229h-30q2 46 2 47q0 89 -35 118.5t-138 29.5q-50 0 -66 -10t-25 -46l-53 -216q8 -1 20 -1 q67 0 104 27.5t57 91.5h34l-77 -308h-34q9 33 9 58q0 62 -35 83q-20 12 -87 12l-56 -222q-7 -29 -7 -36q0 -18 19 -25t66 -7q68 0 107.5 9.5t71.5 34.5q66 50 113 153l28 -14l-71 -217h-540z" />
<glyph unicode="&#xc9;" horiz-adv-x="631" d="M415 727l-12 20l123 91q26 19 38 19t21 -9.5t9 -22.5q0 -23 -34 -37zM-16 0l9 34q57 1 76 8q13 5 20 20t20 68l102 406q12 49 12 65q0 18 -19.5 24t-80.5 7l9 35h516l-41 -229h-30q2 46 2 47q0 89 -35 118.5t-138 29.5q-50 0 -66 -10t-25 -46l-53 -216q8 -1 20 -1 q67 0 104 27.5t57 91.5h34l-77 -308h-34q9 33 9 58q0 62 -35 83q-20 12 -87 12l-56 -222q-7 -29 -7 -36q0 -18 19 -25t66 -7q68 0 107.5 9.5t71.5 34.5q66 50 113 153l28 -14l-71 -217h-540z" />
<glyph unicode="&#xca;" horiz-adv-x="631" d="M300 727l141 126h52l87 -126h-36l-87 74l-113 -74h-44zM-16 0l9 34q57 1 76 8q13 5 20 20t20 68l102 406q12 49 12 65q0 18 -19.5 24t-80.5 7l9 35h516l-41 -229h-30q2 46 2 47q0 89 -35 118.5t-138 29.5q-50 0 -66 -10t-25 -46l-53 -216q8 -1 20 -1q67 0 104 27.5 t57 91.5h34l-77 -308h-34q9 33 9 58q0 62 -35 83q-20 12 -87 12l-56 -222q-7 -29 -7 -36q0 -18 19 -25t66 -7q68 0 107.5 9.5t71.5 34.5q66 50 113 153l28 -14l-71 -217h-540z" />
<glyph unicode="&#xcb;" horiz-adv-x="631" d="M535 741q-20 0 -34.5 14.5t-14.5 34.5t14.5 34.5t34.5 14.5t34.5 -14.5t14.5 -34.5t-14.5 -34.5t-34.5 -14.5zM357 740q-20 0 -34.5 14.5t-14.5 34.5t15 35t35 15t34.5 -14.5t14.5 -35.5q0 -20 -15 -34.5t-35 -14.5zM-16 0l9 34q57 1 76 8q13 5 20 20t20 68l102 406 q12 49 12 65q0 18 -19.5 24t-80.5 7l9 35h516l-41 -229h-30q2 46 2 47q0 89 -35 118.5t-138 29.5q-50 0 -66 -10t-25 -46l-53 -216q8 -1 20 -1q67 0 104 27.5t57 91.5h34l-77 -308h-34q9 33 9 58q0 62 -35 83q-20 12 -87 12l-56 -222q-7 -29 -7 -36q0 -18 19 -25t66 -7 q68 0 107.5 9.5t71.5 34.5q66 50 113 153l28 -14l-71 -217h-540z" />
<glyph unicode="&#xcc;" horiz-adv-x="354" d="M346 727l-124 65q-30 16 -30 37q0 13 9 23t20 10q14 0 40 -23l100 -90zM-17 0l9 35q57 0 76 8q13 5 20 20.5t20 66.5l102 407q12 49 12 64q0 18 -19.5 24t-80.5 7l9 35h299l-9 -35q-54 0 -76 -8q-13 -5 -21 -21t-20 -66l-101 -407q-12 -50 -12 -64q0 -18 19.5 -24 t79.5 -7l-8 -35h-299z" />
<glyph unicode="&#xcd;" horiz-adv-x="354" d="M276 727l-12 20l123 91q26 19 38 19t21 -9.5t9 -22.5q0 -23 -34 -37zM-17 0l9 35q57 0 76 8q13 5 20 20.5t20 66.5l102 407q12 49 12 64q0 18 -19.5 24t-80.5 7l9 35h299l-9 -35q-54 0 -76 -8q-13 -5 -21 -21t-20 -66l-101 -407q-12 -50 -12 -64q0 -18 19.5 -24t79.5 -7 l-8 -35h-299z" />
<glyph unicode="&#xce;" horiz-adv-x="354" d="M158 727l141 126h52l87 -126h-36l-87 74l-113 -74h-44zM-17 0l9 35q57 0 76 8q13 5 20 20.5t20 66.5l102 407q12 49 12 64q0 18 -19.5 24t-80.5 7l9 35h299l-9 -35q-54 0 -76 -8q-13 -5 -21 -21t-20 -66l-101 -407q-12 -50 -12 -64q0 -18 19.5 -24t79.5 -7l-8 -35h-299z " />
<glyph unicode="&#xcf;" horiz-adv-x="354" d="M382 741q-20 0 -34.5 14.5t-14.5 34.5t14.5 34.5t34.5 14.5t34.5 -14.5t14.5 -34.5t-14.5 -34.5t-34.5 -14.5zM231 740q-20 0 -34.5 14.5t-14.5 34.5t15 35t35 15t34.5 -14.5t14.5 -35.5q0 -20 -15 -34.5t-35 -14.5zM-17 0l9 35q57 0 76 8q13 5 20 20.5t20 66.5l102 407 q12 49 12 64q0 18 -19.5 24t-80.5 7l9 35h299l-9 -35q-54 0 -76 -8q-13 -5 -21 -21t-20 -66l-101 -407q-12 -50 -12 -64q0 -18 19.5 -24t79.5 -7l-8 -35h-299z" />
<glyph unicode="&#xd0;" horiz-adv-x="684" d="M-16 0l9 35q57 1 76 8q13 5 21 21t20 67l49 197h-93l10 39h92l43 170q12 48 12 64q0 18 -19.5 24t-80.5 7l9 35h224q79 0 115 -4t68 -17q64 -24 102.5 -88t38.5 -145q0 -104 -42 -200t-109 -145q-93 -68 -233 -68h-312zM253 328l-53 -213q-8 -30 -8 -50q0 -19 20 -26 t76 -7q80 0 128 28t87 97q34 61 54.5 143.5t20.5 156.5q0 111 -74 156q-35 22 -105 22q-43 0 -59 -12.5t-27 -56.5l-50 -199h170l-10 -39h-170z" />
<glyph unicode="&#xd1;" horiz-adv-x="713" d="M358 737q8 52 32.5 82.5t58.5 30.5q32 0 73 -40q33 -32 51 -33q14 -1 26 17.5t17 46.5h26q-8 -51 -33 -81t-60 -30q-17 0 -30 7.5t-39 32.5q-29 28 -52 28q-35 0 -44 -61h-26zM-31 0l8 35q62 1 91 31t50 116l104 418q-11 17 -32 23.5t-73 8.5l9 35h196l216 -514l90 363 q8 36 8 51q0 33 -18 46.5t-71 18.5l9 35h244l-9 -35q-52 -5 -76.5 -27.5t-38.5 -79.5l-133 -535h-42l-241 575l-103 -412q-6 -23 -8 -50q-2 -37 29 -55q19 -10 69 -13l-8 -35h-270z" />
<glyph unicode="&#xd2;" horiz-adv-x="696" d="M411 792q-30 16 -30 37q0 13 9 23t20 10q14 0 40 -23l100 -90l-15 -22zM68 258q0 107 53 205t141 157.5t184 59.5q113 0 182 -73t69 -193q0 -69 -28.5 -148t-75.5 -139q-52 -66 -124.5 -103t-150.5 -37q-110 0 -180 76t-70 195zM170 189q0 -75 39 -119t105 -44 q120 0 204 157q29 56 53 145.5t24 145.5q0 80 -37.5 123.5t-105.5 43.5q-124 0 -209 -171q-73 -146 -73 -281z" />
<glyph unicode="&#xd3;" horiz-adv-x="696" d="M444 727l-12 20l123 91q26 19 38 19t21 -9.5t9 -22.5q0 -23 -34 -37zM68 258q0 107 53 205t141 157.5t184 59.5q113 0 182 -73t69 -193q0 -69 -28.5 -148t-75.5 -139q-52 -66 -124.5 -103t-150.5 -37q-110 0 -180 76t-70 195zM170 189q0 -75 39 -119t105 -44 q120 0 204 157q29 56 53 145.5t24 145.5q0 80 -37.5 123.5t-105.5 43.5q-124 0 -209 -171q-73 -146 -73 -281z" />
<glyph unicode="&#xd4;" horiz-adv-x="696" d="M346 727l141 126h52l87 -126h-36l-87 74l-113 -74h-44zM68 258q0 107 53 205t141 157.5t184 59.5q113 0 182 -73t69 -193q0 -69 -28.5 -148t-75.5 -139q-52 -66 -124.5 -103t-150.5 -37q-110 0 -180 76t-70 195zM170 189q0 -75 39 -119t105 -44q120 0 204 157 q29 56 53 145.5t24 145.5q0 80 -37.5 123.5t-105.5 43.5q-124 0 -209 -171q-73 -146 -73 -281z" />
<glyph unicode="&#xd5;" horiz-adv-x="696" d="M366 737q8 52 32.5 82.5t58.5 30.5q32 0 73 -40q33 -32 51 -33q14 -1 26 17.5t17 46.5h26q-8 -51 -33 -81t-60 -30q-17 0 -30 7.5t-39 32.5q-29 28 -52 28q-35 0 -44 -61h-26zM68 258q0 107 53 205t141 157.5t184 59.5q113 0 182 -73t69 -193q0 -69 -28.5 -148 t-75.5 -139q-52 -66 -124.5 -103t-150.5 -37q-110 0 -180 76t-70 195zM170 189q0 -75 39 -119t105 -44q120 0 204 157q29 56 53 145.5t24 145.5q0 80 -37.5 123.5t-105.5 43.5q-124 0 -209 -171q-73 -146 -73 -281z" />
<glyph unicode="&#xd6;" horiz-adv-x="696" d="M567 741q-20 0 -34.5 14.5t-14.5 34.5t14.5 34.5t34.5 14.5t34.5 -14.5t14.5 -34.5t-14.5 -34.5t-34.5 -14.5zM389 740q-20 0 -34.5 14.5t-14.5 34.5t15 35t35 15t34.5 -14.5t14.5 -35.5q0 -20 -15 -34.5t-35 -14.5zM68 258q0 107 53 205t141 157.5t184 59.5 q113 0 182 -73t69 -193q0 -69 -28.5 -148t-75.5 -139q-52 -66 -124.5 -103t-150.5 -37q-110 0 -180 76t-70 195zM170 189q0 -75 39 -119t105 -44q120 0 204 157q29 56 53 145.5t24 145.5q0 80 -37.5 123.5t-105.5 43.5q-124 0 -209 -171q-73 -146 -73 -281z" />
<glyph unicode="&#xd7;" d="M134 146l-31 30l140 141l-140 140l33 33l139 -140l141 140l31 -30l-140 -141l142 -140l-33 -33l-141 140z" />
<glyph unicode="&#xd8;" horiz-adv-x="698" d="M67 -20l70 85q-68 79 -68 192q0 108 53 206.5t141 157.5t185 59q89 0 157 -51l48 58h45l-67 -82q67 -75 67 -185q0 -74 -28 -153t-77 -140q-52 -66 -124.5 -103t-149.5 -37q-91 0 -158 54l-51 -61h-43zM181 118l388 467q-46 56 -117 56q-123 0 -208 -171 q-73 -146 -73 -281q0 -34 10 -71zM198 85q42 -59 118 -59q119 0 203 157q32 60 54.5 149.5t22.5 154.5q0 27 -10 64z" />
<glyph unicode="&#xd9;" horiz-adv-x="713" d="M419 792q-30 16 -30 37q0 13 9 23t20 10q14 0 40 -23l100 -90l-15 -22zM675 504l-68 -272q-34 -134 -97 -189.5t-182 -55.5q-102 0 -158 47t-56 132q0 37 11 83l72 288q13 53 13 65q0 17 -19 23t-77 7l9 35h289l-9 -35q-54 -1 -71 -8q-13 -5 -20 -20.5t-20 -66.5 l-74 -295q-10 -42 -10 -75q0 -77 43 -110q41 -33 103 -33q155 0 203 193l76 302q5 23 5 42q0 48 -38 62q-17 7 -58 9l10 35h252l-10 -35q-47 0 -74.5 -29.5t-44.5 -98.5z" />
<glyph unicode="&#xda;" horiz-adv-x="713" d="M455 727l-12 20l123 91q26 19 38 19t21 -9.5t9 -22.5q0 -23 -34 -37zM675 504l-68 -272q-34 -134 -97 -189.5t-182 -55.5q-102 0 -158 47t-56 132q0 37 11 83l72 288q13 53 13 65q0 17 -19 23t-77 7l9 35h289l-9 -35q-54 -1 -71 -8q-13 -5 -20 -20.5t-20 -66.5l-74 -295 q-10 -42 -10 -75q0 -77 43 -110q41 -33 103 -33q155 0 203 193l76 302q5 23 5 42q0 48 -38 62q-17 7 -58 9l10 35h252l-10 -35q-47 0 -74.5 -29.5t-44.5 -98.5z" />
<glyph unicode="&#xdb;" horiz-adv-x="713" d="M361 727l141 126h52l87 -126h-36l-87 74l-113 -74h-44zM675 504l-68 -272q-34 -134 -97 -189.5t-182 -55.5q-102 0 -158 47t-56 132q0 37 11 83l72 288q13 53 13 65q0 17 -19 23t-77 7l9 35h289l-9 -35q-54 -1 -71 -8q-13 -5 -20 -20.5t-20 -66.5l-74 -295 q-10 -42 -10 -75q0 -77 43 -110q41 -33 103 -33q155 0 203 193l76 302q5 23 5 42q0 48 -38 62q-17 7 -58 9l10 35h252l-10 -35q-47 0 -74.5 -29.5t-44.5 -98.5z" />
<glyph unicode="&#xdc;" horiz-adv-x="713" d="M599 741q-20 0 -34.5 14.5t-14.5 34.5t14.5 34.5t34.5 14.5t34.5 -14.5t14.5 -34.5t-14.5 -34.5t-34.5 -14.5zM421 740q-20 0 -34.5 14.5t-14.5 34.5t15 35t35 15t34.5 -14.5t14.5 -35.5q0 -20 -15 -34.5t-35 -14.5zM675 504l-68 -272q-34 -134 -97 -189.5t-182 -55.5 q-102 0 -158 47t-56 132q0 37 11 83l72 288q13 53 13 65q0 17 -19 23t-77 7l9 35h289l-9 -35q-54 -1 -71 -8q-13 -5 -20 -20.5t-20 -66.5l-74 -295q-10 -42 -10 -75q0 -77 43 -110q41 -33 103 -33q155 0 203 193l76 302q5 23 5 42q0 48 -38 62q-17 7 -58 9l10 35h252 l-10 -35q-47 0 -74.5 -29.5t-44.5 -98.5z" />
<glyph unicode="&#xdd;" horiz-adv-x="619" d="M412 727l-12 20l123 91q26 19 38 19t21 -9.5t9 -22.5q0 -23 -34 -37zM122 0l9 35q68 0 89 8q13 5 21 20.5t20 66.5l36 145l-126 316q-10 25 -24 31t-69 10l9 35h276l-9 -35l-13 -1l-27 -3q-27 -3 -36.5 -8t-9.5 -15q0 -11 7 -28l100 -250l166 222q16 22 16 39 q0 22 -16 30q-16 10 -68 14l9 35h243l-9 -35q-40 -5 -63 -19t-49 -49l-210 -278l-39 -156q-12 -48 -12 -62q0 -20 20.5 -26.5t86.5 -6.5l-9 -35h-319z" />
<glyph unicode="&#xde;" horiz-adv-x="597" d="M-16 0l9 34q58 1 76 9q13 5 20 20.5t20 66.5l102 406q12 49 12 65q0 18 -19.5 24t-80.5 7l9 35h301l-9 -35q-67 -2 -83.5 -10.5t-25.5 -53.5l-3 -15h74q101 0 148 -27q37 -20 57.5 -57.5t20.5 -83.5q0 -109 -101 -163q-69 -35 -188 -35h-103l-14 -57q-11 -44 -11 -61 q0 -22 21 -28t94 -7l-8 -34h-318zM230 224h88q87 0 132 36q28 23 44 64.5t16 90.5q0 56 -33 82.5t-103 26.5q-45 0 -61 -12.5t-26 -55.5z" />
<glyph unicode="&#xdf;" horiz-adv-x="472" d="M8 -9l135 493q53 195 202 195q61 0 99 -36.5t38 -95.5q0 -66 -41.5 -111t-116.5 -59q56 -16 82 -53t26 -101q0 -96 -57 -165t-136 -69q-43 0 -69.5 23.5t-26.5 61.5q0 29 15 48t37 19q17 0 28.5 -12.5t11.5 -31.5q0 -16 -5.5 -23t-27.5 -21q-7 -3 -7 -11t8 -14.5t18 -6.5 q50 0 92.5 74t42.5 161q0 66 -38 88q-20 13 -68 13l8 33q64 4 106 53t42 117q0 38 -19 60.5t-51 22.5q-44 0 -75.5 -48.5t-62.5 -163.5l-114 -427q-34 -130 -51 -169l-100 -20q50 82 75 176z" />
<glyph unicode="&#xe0;" horiz-adv-x="497" d="M254 565q-30 16 -30 37q0 13 9 23t20 10q15 0 40 -22l100 -90l-15 -23zM289 56l1 25q-61 -94 -137 -94q-53 0 -87 41.5t-34 105.5q0 116 68 210q63 89 146 89q89 0 107 -96l21 83h74q-37 -101 -67.5 -214.5t-30.5 -147.5q0 -24 15 -24q17 0 44.5 33.5t51.5 84.5l25 -16 q-73 -149 -144 -149q-24 0 -39 19t-14 50zM112 115q0 -39 17.5 -62t46.5 -23q56 0 101 83q17 32 32.5 88t17.5 94q2 40 -16.5 66t-49.5 26q-53 0 -96 -75q-23 -39 -38 -95.5t-15 -101.5z" />
<glyph unicode="&#xe1;" horiz-adv-x="497" d="M277 500l-12 21l123 90q28 20 38 20q12 0 21 -9.5t9 -22.5q0 -24 -34 -38zM289 56l1 25q-61 -94 -137 -94q-53 0 -87 41.5t-34 105.5q0 116 68 210q63 89 146 89q89 0 107 -96l21 83h74q-37 -101 -67.5 -214.5t-30.5 -147.5q0 -24 15 -24q17 0 44.5 33.5t51.5 84.5 l25 -16q-73 -149 -144 -149q-24 0 -39 19t-14 50zM112 115q0 -39 17.5 -62t46.5 -23q56 0 101 83q17 32 32.5 88t17.5 94q2 40 -16.5 66t-49.5 26q-53 0 -96 -75q-23 -39 -38 -95.5t-15 -101.5z" />
<glyph unicode="&#xe2;" horiz-adv-x="497" d="M169 500l141 127h52l87 -127h-36l-87 74l-113 -74h-44zM289 56l1 25q-61 -94 -137 -94q-53 0 -87 41.5t-34 105.5q0 116 68 210q63 89 146 89q89 0 107 -96l21 83h74q-37 -101 -67.5 -214.5t-30.5 -147.5q0 -24 15 -24q17 0 44.5 33.5t51.5 84.5l25 -16 q-73 -149 -144 -149q-24 0 -39 19t-14 50zM112 115q0 -39 17.5 -62t46.5 -23q56 0 101 83q17 32 32.5 88t17.5 94q2 40 -16.5 66t-49.5 26q-53 0 -96 -75q-23 -39 -38 -95.5t-15 -101.5z" />
<glyph unicode="&#xe3;" horiz-adv-x="497" d="M193 511q8 51 32.5 81.5t58.5 30.5q33 0 73 -39q35 -33 51 -33q14 0 26 18t16 45h27q-8 -50 -33 -80t-60 -30q-17 0 -31 8t-38 32q-29 28 -52 28q-35 0 -44 -61h-26zM289 56l1 25q-61 -94 -137 -94q-53 0 -87 41.5t-34 105.5q0 116 68 210q63 89 146 89q89 0 107 -96 l21 83h74q-37 -101 -67.5 -214.5t-30.5 -147.5q0 -24 15 -24q17 0 44.5 33.5t51.5 84.5l25 -16q-73 -149 -144 -149q-24 0 -39 19t-14 50zM112 115q0 -39 17.5 -62t46.5 -23q56 0 101 83q17 32 32.5 88t17.5 94q2 40 -16.5 66t-49.5 26q-53 0 -96 -75q-23 -39 -38 -95.5 t-15 -101.5z" />
<glyph unicode="&#xe4;" horiz-adv-x="497" d="M381 514q-21 0 -35.5 15t-14.5 35t14.5 34t34.5 14t34.5 -14.5t14.5 -34.5t-14 -34.5t-34 -14.5zM236 513q-20 0 -34.5 14.5t-14.5 34.5t15 35t35 15t34.5 -14.5t14.5 -35.5q0 -20 -15 -34.5t-35 -14.5zM289 56l1 25q-61 -94 -137 -94q-53 0 -87 41.5t-34 105.5 q0 116 68 210q63 89 146 89q89 0 107 -96l21 83h74q-37 -101 -67.5 -214.5t-30.5 -147.5q0 -24 15 -24q17 0 44.5 33.5t51.5 84.5l25 -16q-73 -149 -144 -149q-24 0 -39 19t-14 50zM112 115q0 -39 17.5 -62t46.5 -23q56 0 101 83q17 32 32.5 88t17.5 94q2 40 -16.5 66 t-49.5 26q-53 0 -96 -75q-23 -39 -38 -95.5t-15 -101.5z" />
<glyph unicode="&#xe5;" horiz-adv-x="497" d="M319 487q-36 0 -62 26t-26 62t25.5 61.5t61.5 25.5q37 0 62.5 -26t25.5 -63q0 -35 -26 -60.5t-61 -25.5zM318 521q21 0 36.5 15.5t15.5 37.5t-15 37t-37 15t-37 -15t-15 -37t15.5 -37.5t36.5 -15.5zM289 56l1 25q-61 -94 -137 -94q-53 0 -87 41.5t-34 105.5q0 116 68 210 q63 89 146 89q89 0 107 -96l21 83h74q-37 -101 -67.5 -214.5t-30.5 -147.5q0 -24 15 -24q17 0 44.5 33.5t51.5 84.5l25 -16q-73 -149 -144 -149q-24 0 -39 19t-14 50zM112 115q0 -39 17.5 -62t46.5 -23q56 0 101 83q17 32 32.5 88t17.5 94q2 40 -16.5 66t-49.5 26 q-53 0 -96 -75q-23 -39 -38 -95.5t-15 -101.5z" />
<glyph unicode="&#xe6;" horiz-adv-x="656" d="M599 111l22 -23q-46 -54 -85.5 -77.5t-84.5 -23.5q-106 0 -145 100q-26 -44 -68.5 -72t-83.5 -28q-56 0 -89 40.5t-33 107.5q0 113 67 205.5t149 92.5q38 0 62 -19t42 -63l24 69h54l-7 -30q70 43 128 43q47 0 76.5 -25.5t29.5 -66.5q0 -43 -34.5 -79.5t-98.5 -61.5 q-41 -16 -146 -35q-3 -30 -3 -41q0 -42 24 -68.5t62 -26.5q63 0 138 82zM382 197q102 22 135 41q30 18 48.5 49t18.5 63q0 23 -12.5 37t-34.5 14q-50 0 -90 -52.5t-65 -151.5zM112 116q0 -39 16.5 -62.5t44.5 -23.5q54 0 98 71q21 35 38 94.5t19 107.5q2 37 -17.5 61.5 t-51.5 24.5q-54 0 -98 -86q-49 -95 -49 -187z" />
<glyph unicode="&#xe7;" horiz-adv-x="384" d="M114 -86l46 75q-58 11 -91 56.5t-33 114.5q0 106 74.5 189.5t169.5 83.5q52 0 84.5 -27.5t32.5 -71.5q0 -31 -17 -52.5t-43 -21.5q-19 0 -31.5 13t-12.5 33q0 26 17 38q4 3 25 7q10 3 10 12q0 16 -17 27t-40 11q-67 0 -114 -71q-24 -37 -41 -94t-17 -103t24.5 -75 t64.5 -29q34 0 62.5 19.5t67.5 68.5l23 -21q-37 -55 -75 -80.5t-86 -28.5l-26 -42q74 -2 74 -54q0 -35 -33.5 -57.5t-87.5 -22.5q-33 0 -70 9l6 27q25 -5 45 -5q37 0 58 10.5t21 29.5q0 26 -41 31q-7 1 -29 1z" />
<glyph unicode="&#xe8;" horiz-adv-x="397" d="M218 565q-30 16 -30 37q0 13 9 23t20 10q15 0 40 -22l100 -90l-15 -23zM340 109l21 -24q-77 -99 -169 -99q-69 0 -113 47.5t-44 121.5q0 106 79.5 192t177.5 86q47 0 77 -25.5t30 -66.5q0 -67 -74.5 -114t-205.5 -63q-3 -33 -3 -43q0 -44 22.5 -69t62.5 -25q63 0 139 82z M123 195q89 17 127 37q35 18 55.5 49t20.5 66q0 54 -50 54q-54 0 -98 -69q-29 -44 -55 -137z" />
<glyph unicode="&#xe9;" horiz-adv-x="397" d="M271 500l-12 21l123 90q27 20 38 20q12 0 21 -9.5t9 -22.5q0 -24 -34 -38zM340 109l21 -24q-77 -99 -169 -99q-69 0 -113 47.5t-44 121.5q0 106 79.5 192t177.5 86q47 0 77 -25.5t30 -66.5q0 -67 -74.5 -114t-205.5 -63q-3 -33 -3 -43q0 -44 22.5 -69t62.5 -25 q63 0 139 82zM123 195q89 17 127 37q35 18 55.5 49t20.5 66q0 54 -50 54q-54 0 -98 -69q-29 -44 -55 -137z" />
<glyph unicode="&#xea;" horiz-adv-x="397" d="M150 500l141 127h52l87 -127h-36l-87 74l-113 -74h-44zM340 109l21 -24q-77 -99 -169 -99q-69 0 -113 47.5t-44 121.5q0 106 79.5 192t177.5 86q47 0 77 -25.5t30 -66.5q0 -67 -74.5 -114t-205.5 -63q-3 -33 -3 -43q0 -44 22.5 -69t62.5 -25q63 0 139 82zM123 195 q89 17 127 37q35 18 55.5 49t20.5 66q0 54 -50 54q-54 0 -98 -69q-29 -44 -55 -137z" />
<glyph unicode="&#xeb;" horiz-adv-x="397" d="M372 514q-21 0 -35.5 15t-14.5 35t14.5 34t34.5 14t34.5 -14.5t14.5 -34.5t-14 -34.5t-34 -14.5zM207 513q-20 0 -34.5 14.5t-14.5 34.5t15 35t35 15t34.5 -14.5t14.5 -35.5q0 -20 -15 -34.5t-35 -14.5zM340 109l21 -24q-77 -99 -169 -99q-69 0 -113 47.5t-44 121.5 q0 106 79.5 192t177.5 86q47 0 77 -25.5t30 -66.5q0 -67 -74.5 -114t-205.5 -63q-3 -33 -3 -43q0 -44 22.5 -69t62.5 -25q63 0 139 82zM123 195q89 17 127 37q35 18 55.5 49t20.5 66q0 54 -50 54q-54 0 -98 -69q-29 -44 -55 -137z" />
<glyph unicode="&#xec;" horiz-adv-x="272" d="M266 500l-124 65q-30 16 -30 37q0 13 9 23t20 10q15 0 40 -22l100 -90zM245 154l25 -15q-21 -44 -51 -83q-55 -70 -107 -70q-29 0 -46 18.5t-17 50.5q0 25 7 47l67 231q5 18 5 30q0 13 -9 17.5t-34 4.5q-2 0 -38 -2l9 34q107 8 162 14l-93 -343q-5 -20 -5 -32 q0 -10 5 -16.5t13 -6.5q20 0 50 33.5t57 87.5z" />
<glyph unicode="&#xed;" horiz-adv-x="272" d="M165 500l-12 21l123 90q28 20 38 20q12 0 21 -9.5t9 -22.5q0 -24 -34 -38zM245 154l25 -15q-21 -44 -51 -83q-55 -70 -107 -70q-29 0 -46 18.5t-17 50.5q0 25 7 47l67 231q5 18 5 30q0 13 -9 17.5t-34 4.5q-2 0 -38 -2l9 34q107 8 162 14l-93 -343q-5 -20 -5 -32 q0 -10 5 -16.5t13 -6.5q20 0 50 33.5t57 87.5z" />
<glyph unicode="&#xee;" horiz-adv-x="272" d="M37 500l141 127h52l87 -127h-36l-87 74l-113 -74h-44zM245 154l25 -15q-23 -45 -52 -83q-54 -70 -106 -70q-29 0 -46 18.5t-17 50.5q0 25 7 47l66 231q6 24 6 30q0 13 -9 17.5t-34 4.5q-2 0 -38 -2l8 34q106 7 163 14l-93 -343q-5 -20 -5 -32q0 -10 5 -16.5t13 -6.5 q20 0 49.5 33.5t57.5 87.5z" />
<glyph unicode="&#xef;" horiz-adv-x="272" d="M263 514q-21 0 -35.5 15t-14.5 35t14.5 34t34.5 14t34.5 -14.5t14.5 -34.5t-14 -34.5t-34 -14.5zM124 513q-20 0 -34.5 14.5t-14.5 34.5t15 35t35 15t34.5 -14.5t14.5 -35.5q0 -20 -15 -34.5t-35 -14.5zM245 154l25 -15q-21 -44 -51 -83q-55 -70 -107 -70q-29 0 -46 18.5 t-17 50.5q0 25 7 47l67 231q5 18 5 30q0 13 -9 17.5t-34 4.5q-2 0 -38 -2l9 34q107 8 162 14l-93 -343q-5 -20 -5 -32q0 -10 5 -16.5t13 -6.5q20 0 50 33.5t57 87.5z" />
<glyph unicode="&#xf0;" horiz-adv-x="467" d="M341 551l74 -177q20 -46 20 -110q0 -113 -69.5 -195t-165.5 -82q-71 0 -116.5 52t-45.5 132q0 102 72 182t165 80q14 0 35 -4l-26 101l-74 -28l-14 38l78 29l-23 93l36 12l38 -86l78 29l14 -37zM118 124q0 -50 21 -77.5t61 -27.5q63 0 107 81q19 35 33.5 96.5t14.5 106.5 t-20.5 71.5t-56.5 26.5q-67 0 -115 -93q-45 -88 -45 -184z" />
<glyph unicode="&#xf1;" horiz-adv-x="524" d="M207 511q8 51 32.5 81.5t58.5 30.5q33 0 73 -39q35 -33 51 -33q14 0 26 18t16 45h27q-8 -50 -33 -80t-60 -30q-17 0 -31 8t-38 32q-29 28 -52 28q-35 0 -44 -61h-26zM27 -7q44 115 59 178l43 172q3 12 3 21q0 21 -34 21q-16 0 -41 -2l8 34q4 0 8.5 0.5t7.5 1t4 0.5l35 2 l63 8l16 2q1 0 3.5 0.5t7 1t9.5 0.5l-32 -150q37 60 61 88q54 63 114 63q35 0 58 -24t23 -61q0 -42 -41 -170q-35 -106 -35 -128q0 -20 16 -20q20 0 50 31.5t59 83.5l23 -17q-75 -143 -157 -143q-27 0 -46 19t-19 47t14 70l27 87l21 67q14 39 14 66q0 16 -10.5 27t-24.5 11 q-33 0 -72.5 -39t-75.5 -107q-43 -82 -70 -234z" />
<glyph unicode="&#xf2;" horiz-adv-x="467" d="M240 565q-30 16 -30 37q0 13 9 23t20 10q15 0 40 -22l100 -90l-15 -23zM39 171q0 102 72 182t164 80q72 0 116.5 -49.5t44.5 -129.5q0 -106 -71.5 -186.5t-164.5 -80.5q-70 0 -115.5 52t-45.5 132zM119 124q0 -50 21 -77.5t61 -27.5q63 0 107 81q18 33 33 94t15 101 q0 106 -78 106q-67 0 -114 -93q-45 -87 -45 -184z" />
<glyph unicode="&#xf3;" horiz-adv-x="467" d="M273 500l-12 21l123 90q28 20 38 20q12 0 21 -9.5t9 -22.5q0 -24 -34 -38zM39 171q0 102 72 182t164 80q72 0 116.5 -49.5t44.5 -129.5q0 -106 -71.5 -186.5t-164.5 -80.5q-70 0 -115.5 52t-45.5 132zM119 124q0 -50 21 -77.5t61 -27.5q63 0 107 81q18 33 33 94t15 101 q0 106 -78 106q-67 0 -114 -93q-45 -87 -45 -184z" />
<glyph unicode="&#xf4;" horiz-adv-x="467" d="M158 500l141 127h52l87 -127h-36l-87 74l-113 -74h-44zM39 171q0 102 72 182t164 80q72 0 116.5 -49.5t44.5 -129.5q0 -106 -71.5 -186.5t-164.5 -80.5q-70 0 -115.5 52t-45.5 132zM119 124q0 -50 21 -77.5t61 -27.5q63 0 107 81q18 33 33 94t15 101q0 106 -78 106 q-67 0 -114 -93q-45 -87 -45 -184z" />
<glyph unicode="&#xf5;" horiz-adv-x="467" d="M179 511q8 51 32.5 81.5t58.5 30.5q33 0 73 -39q35 -33 51 -33q14 0 26 18t16 45h27q-8 -50 -33 -80t-60 -30q-17 0 -31 8t-38 32q-29 28 -52 28q-35 0 -44 -61h-26zM39 171q0 102 72 182t164 80q72 0 116.5 -49.5t44.5 -129.5q0 -106 -71.5 -186.5t-164.5 -80.5 q-70 0 -115.5 52t-45.5 132zM119 124q0 -50 21 -77.5t61 -27.5q63 0 107 81q18 33 33 94t15 101q0 106 -78 106q-67 0 -114 -93q-45 -87 -45 -184z" />
<glyph unicode="&#xf6;" horiz-adv-x="467" d="M391 514q-21 0 -35.5 15t-14.5 35t14.5 34t34.5 14t34.5 -14.5t14.5 -34.5t-14 -34.5t-34 -14.5zM226 513q-20 0 -34.5 14.5t-14.5 34.5t15 35t35 15t34.5 -14.5t14.5 -35.5q0 -20 -15 -34.5t-35 -14.5zM39 171q0 102 72 182t164 80q72 0 116.5 -49.5t44.5 -129.5 q0 -106 -71.5 -186.5t-164.5 -80.5q-70 0 -115.5 52t-45.5 132zM119 124q0 -50 21 -77.5t61 -27.5q63 0 107 81q18 33 33 94t15 101q0 106 -78 106q-67 0 -114 -93q-45 -87 -45 -184z" />
<glyph unicode="&#xf7;" d="M276 402q-17 0 -29.5 12.5t-12.5 29.5t12.5 29.5t30.5 12.5q17 0 29 -12.5t12 -29.5t-12.5 -29.5t-29.5 -12.5zM76 295v44h400v-44h-400zM234 188q0 17 12.5 29.5t30.5 12.5q17 0 29 -12.5t12 -29.5t-12.5 -29.5t-29.5 -12.5t-29.5 12.5t-12.5 29.5z" />
<glyph unicode="&#xf8;" horiz-adv-x="467" d="M34 -17l48 59q-43 55 -43 129q0 103 72 183t164 80q53 0 97 -33l29 36h44l-49 -60q39 -48 39 -121q0 -107 -71 -188.5t-165 -81.5q-54 0 -94 33l-29 -36h-42zM121 91l221 273q-24 38 -64 38q-67 0 -114 -94q-45 -87 -45 -182q0 -21 2 -35zM134 54q26 -36 66 -36 q63 0 107 81q19 34 33.5 96t14.5 106q0 12 -1 24z" />
<glyph unicode="&#xf9;" horiz-adv-x="508" d="M260 565q-30 16 -30 37q0 13 9 23t20 10q15 0 40 -22l100 -90l-15 -23zM477 155l26 -15q-71 -153 -155 -153q-25 0 -41.5 20t-16.5 49q0 20 7 59q-46 -71 -81.5 -99.5t-77.5 -28.5q-38 0 -60.5 25t-22.5 67q0 26 12 67l55 180q9 31 9 37q0 22 -40 22q-3 0 -7 -0.5 t-11.5 -1t-14.5 -0.5l10 37q103 6 157 13l-81 -284q-12 -45 -12 -64q0 -40 37 -40q30 0 68.5 38t65.5 94q45 95 72 243l85 7q-41 -124 -70 -231t-29 -135q0 -19 17 -19q39 0 99 113z" />
<glyph unicode="&#xfa;" horiz-adv-x="508" d="M283 500l-12 21l123 90q28 20 38 20q12 0 21 -9.5t9 -22.5q0 -24 -34 -38zM477 155l26 -15q-71 -153 -155 -153q-25 0 -41.5 20t-16.5 49q0 20 7 59q-46 -71 -81.5 -99.5t-77.5 -28.5q-38 0 -60.5 25t-22.5 67q0 26 12 67l55 180q9 31 9 37q0 22 -40 22q-3 0 -7 -0.5 t-11.5 -1t-14.5 -0.5l10 37q103 6 157 13l-81 -284q-12 -45 -12 -64q0 -40 37 -40q30 0 68.5 38t65.5 94q45 95 72 243l85 7q-41 -124 -70 -231t-29 -135q0 -19 17 -19q39 0 99 113z" />
<glyph unicode="&#xfb;" horiz-adv-x="508" d="M172 500l141 127h52l87 -127h-36l-87 74l-113 -74h-44zM477 155l26 -15q-71 -153 -155 -153q-25 0 -41.5 20t-16.5 49q0 20 7 59q-46 -71 -81.5 -99.5t-77.5 -28.5q-38 0 -60.5 25t-22.5 67q0 26 12 67l55 180q9 31 9 37q0 22 -40 22q-3 0 -7 -0.5t-11.5 -1t-14.5 -0.5 l10 37q103 6 157 13l-81 -284q-12 -45 -12 -64q0 -40 37 -40q30 0 68.5 38t65.5 94q45 95 72 243l85 7q-41 -124 -70 -231t-29 -135q0 -19 17 -19q39 0 99 113z" />
<glyph unicode="&#xfc;" horiz-adv-x="508" d="M411 514q-21 0 -35.5 15t-14.5 35t14.5 34t34.5 14t34.5 -14.5t14.5 -34.5t-14 -34.5t-34 -14.5zM246 513q-20 0 -34.5 14.5t-14.5 34.5t15 35t35 15t34.5 -14.5t14.5 -35.5q0 -20 -15 -34.5t-35 -14.5zM477 155l26 -15q-71 -153 -155 -153q-25 0 -41.5 20t-16.5 49 q0 20 7 59q-46 -71 -81.5 -99.5t-77.5 -28.5q-38 0 -60.5 25t-22.5 67q0 26 12 67l55 180q9 31 9 37q0 22 -40 22q-3 0 -7 -0.5t-11.5 -1t-14.5 -0.5l10 37q103 6 157 13l-81 -284q-12 -45 -12 -64q0 -40 37 -40q30 0 68.5 38t65.5 94q45 95 72 243l85 7q-41 -124 -70 -231 t-29 -135q0 -19 17 -19q39 0 99 113z" />
<glyph unicode="&#xfd;" horiz-adv-x="386" d="M216 500l-12 21l123 90q27 20 38 20q12 0 21 -9.5t9 -22.5q0 -24 -34 -38zM254 125l36 77q37 77 37 120q0 10 -7 47q-2 12 -2 21q0 22 12 36t30 14q17 0 27 -11.5t10 -30.5q0 -26 -12.5 -58t-63.5 -142q-104 -218 -165 -296t-128 -78q-36 0 -59.5 18.5t-23.5 46.5 q0 21 13.5 34.5t33.5 13.5q16 0 28 -10.5t12 -24.5q0 -3 -2 -17q-1 -4 -1 -10q0 -15 19 -15q28 0 69 44q27 28 70 105q-24 147 -60 266q-16 50 -26 68.5t-22 18.5q-22 0 -47 -76l-28 11q29 72 55.5 104t57.5 32q23 0 35 -18.5t31 -79.5q37 -119 57 -239q11 25 14 29z" />
<glyph unicode="&#xfe;" horiz-adv-x="476" d="M6 -112l174 700q3 9 3 17q0 13 -13 18t-51 5h-10l8 33q56 4 133 11l20 2l-81 -327q61 87 137 87q57 0 89 -41t32 -112q0 -101 -52 -186q-67 -108 -165 -108q-84 0 -112 78l-37 -150q-7 -29 -7 -38q0 -13 10 -17t48 -5q9 0 17 -1l-9 -34h-208l9 34h13q28 0 37.5 6t14.5 28 zM143 126q0 -43 19.5 -68.5t53.5 -25.5q69 0 109 86q18 38 30 89t12 87q0 93 -66 96q-55 3 -106.5 -83t-51.5 -181z" />
<glyph unicode="&#xff;" horiz-adv-x="386" d="M350 514q-21 0 -35.5 15t-14.5 35t14.5 34t34.5 14t34.5 -14.5t14.5 -34.5t-14 -34.5t-34 -14.5zM185 513q-20 0 -34.5 14.5t-14.5 34.5t15 35t35 15t34.5 -14.5t14.5 -35.5q0 -20 -15 -34.5t-35 -14.5zM254 125l36 77q37 77 37 120q0 10 -7 47q-2 12 -2 21q0 22 12 36 t30 14q17 0 27 -11.5t10 -30.5q0 -26 -12.5 -58t-63.5 -142q-104 -218 -165 -296t-128 -78q-36 0 -59.5 18.5t-23.5 46.5q0 21 13.5 34.5t33.5 13.5q16 0 28 -10.5t12 -24.5q0 -3 -2 -17q-1 -4 -1 -10q0 -15 19 -15q28 0 69 44q27 28 70 105q-24 147 -60 266 q-16 50 -26 68.5t-22 18.5q-22 0 -47 -76l-28 11q29 72 55.5 104t57.5 32q23 0 35 -18.5t31 -79.5q37 -119 57 -239q11 25 14 29z" />
<glyph unicode="&#x152;" horiz-adv-x="1028" d="M922 0h-489q-13 0 -50 -7q-29 -6 -58 -6q-113 0 -183.5 78t-70.5 202q0 163 119 290q114 123 252 123q26 0 94 -12q4 -1 17 -1h489l-38 -225h-30q3 31 3 45q0 76 -26 109q-30 39 -126 39h-40t-27 -3t-19 -6t-11.5 -13.5t-9.5 -20t-8 -29.5l-51 -203q83 2 122.5 28 t60.5 94h33l-77 -307h-33q8 36 8 57q0 63 -38 84q-21 11 -84 11l-56 -224q-7 -30 -7 -40q0 -17 19 -24t66 -7q114 0 172 39.5t119 160.5l29 -14zM519 179l80 319q4 16 4 35q0 47 -42 78t-106 31q-112 0 -185 -112q-41 -63 -68.5 -158.5t-27.5 -175.5q0 -87 48 -135 q36 -36 102 -36q80 0 133 44q25 22 38 45t24 65z" />
<glyph unicode="&#x153;" horiz-adv-x="692" d="M634 113l24 -23q-87 -104 -174 -104t-129 68q-73 -67 -152 -67q-71 0 -119 50.5t-48 124.5q0 105 73 188t166 83q90 0 134 -81q46 43 86 62t86 19q47 0 77 -24.5t30 -63.5q0 -68 -71 -114.5t-206 -67.5q-2 -18 -2 -36q0 -98 88 -98q35 0 64.5 18t72.5 66zM418 198 q96 12 146.5 50t50.5 99q0 54 -50 54t-91 -56.5t-56 -146.5zM116 113q0 -44 21 -69t58 -25q67 0 114 90q17 32 30.5 87.5t15.5 99.5q2 47 -21 76t-63 29q-61 0 -103 -78q-21 -39 -36.5 -102t-15.5 -108z" />
<glyph unicode="&#x178;" horiz-adv-x="619" d="M528 741q-20 0 -34.5 14.5t-14.5 34.5t14.5 34.5t34.5 14.5t34.5 -14.5t14.5 -34.5t-14.5 -34.5t-34.5 -14.5zM350 740q-20 0 -34.5 14.5t-14.5 34.5t15 35t35 15t34.5 -14.5t14.5 -35.5q0 -20 -15 -34.5t-35 -14.5zM122 0l9 35q68 0 89 8q13 5 21 20.5t20 66.5l36 145 l-126 316q-10 25 -24 31t-69 10l9 35h276l-9 -35l-13 -1l-27 -3q-27 -3 -36.5 -8t-9.5 -15q0 -11 7 -28l100 -250l166 222q16 22 16 39q0 22 -16 30q-16 10 -68 14l9 35h243l-9 -35q-40 -5 -63 -19t-49 -49l-210 -278l-39 -156q-12 -48 -12 -62q0 -20 20.5 -26.5t86.5 -6.5 l-9 -35h-319z" />
<glyph unicode="&#x2c6;" d="M168 500l141 127h52l87 -127h-36l-87 74l-113 -74h-44z" />
<glyph unicode="&#x2dc;" d="M195 511q8 51 32.5 81.5t58.5 30.5q33 0 73 -39q35 -33 51 -33q14 0 26 18t16 45h27q-8 -50 -33 -80t-60 -30q-17 0 -31 8t-38 32q-29 28 -52 28q-35 0 -44 -61h-26z" />
<glyph unicode="&#x2000;" horiz-adv-x="443" />
<glyph unicode="&#x2001;" horiz-adv-x="887" />
<glyph unicode="&#x2002;" horiz-adv-x="443" />
<glyph unicode="&#x2003;" horiz-adv-x="887" />
<glyph unicode="&#x2004;" horiz-adv-x="295" />
<glyph unicode="&#x2005;" horiz-adv-x="221" />
<glyph unicode="&#x2006;" horiz-adv-x="147" />
<glyph unicode="&#x2007;" horiz-adv-x="147" />
<glyph unicode="&#x2008;" horiz-adv-x="110" />
<glyph unicode="&#x2009;" horiz-adv-x="177" />
<glyph unicode="&#x200a;" horiz-adv-x="49" />
<glyph unicode="&#x2010;" horiz-adv-x="200" d="M-6 188l17 67h200l-17 -67h-200z" />
<glyph unicode="&#x2011;" horiz-adv-x="200" d="M-6 188l17 67h200l-17 -67h-200z" />
<glyph unicode="&#x2012;" horiz-adv-x="200" d="M-6 188l17 67h200l-17 -67h-200z" />
<glyph unicode="&#x2013;" horiz-adv-x="580" d="M84 191l15 61h401l-15 -61h-401z" />
<glyph unicode="&#x2014;" horiz-adv-x="542" d="M-6 191l15 61h542l-15 -61h-542z" />
<glyph unicode="&#x2018;" horiz-adv-x="256" d="M305 680l11 -28q-51 -23 -72 -39q-17 -13 -30 -29t-13 -26q0 -9 19 -10q39 -5 39 -46q0 -24 -16 -40.5t-39 -16.5q-26 0 -43.5 21.5t-17.5 53.5q0 66 62 112q38 29 100 48z" />
<glyph unicode="&#x2019;" horiz-adv-x="256" d="M125 445l-11 28q52 25 72 40q17 12 30 28t13 26q0 8 -20 11q-18 1 -28.5 13.5t-10.5 32.5q0 23 16 39.5t39 16.5q26 0 44 -21.5t18 -52.5q0 -67 -62 -113q-36 -27 -100 -48z" />
<glyph unicode="&#x201a;" horiz-adv-x="256" d="M-18 -128l-11 29q50 23 72 39q18 13 30.5 29t12.5 26q0 7 -20 10q-18 2 -28.5 14.5t-10.5 32.5q0 23 16 39.5t39 16.5q26 0 44 -21.5t18 -53.5q0 -66 -62 -112q-35 -27 -100 -49z" />
<glyph unicode="&#x201c;" horiz-adv-x="409" d="M459 680l10 -28q-51 -24 -72 -39q-17 -13 -30 -29t-13 -26q0 -7 20 -10q18 -1 28.5 -13.5t10.5 -32.5q0 -24 -16 -40.5t-39 -16.5q-26 0 -44 21.5t-18 53.5q0 66 62 112q41 30 101 48zM305 680l11 -28q-51 -23 -72 -39q-17 -13 -30 -29t-13 -26q0 -9 19 -10q39 -5 39 -46 q0 -24 -16 -40.5t-39 -16.5q-26 0 -43.5 21.5t-17.5 53.5q0 66 62 112q38 29 100 48z" />
<glyph unicode="&#x201d;" horiz-adv-x="409" d="M278 445l-11 28q51 24 73 40q17 12 29.5 28t12.5 26t-19 11q-39 5 -39 46q0 23 16 39.5t39 16.5q26 0 43.5 -21t17.5 -53q0 -67 -62 -113q-36 -27 -100 -48zM125 445l-11 28q52 25 72 40q17 12 30 28t13 26q0 8 -20 11q-18 1 -28.5 13.5t-10.5 32.5q0 23 16 39.5t39 16.5 q26 0 44 -21.5t18 -52.5q0 -67 -62 -113q-36 -27 -100 -48z" />
<glyph unicode="&#x201e;" horiz-adv-x="409" d="M124 -99q50 23 73 39q17 13 29.5 29t12.5 26q0 9 -19 10q-39 5 -39 47q0 23 16 39.5t39 16.5q26 0 43.5 -21.5t17.5 -53.5q0 -65 -62 -112q-41 -30 -100 -49zM-18 -128l-11 29q51 23 72 39q17 13 30 29t13 26q0 7 -20 10q-18 2 -28.5 14.5t-10.5 32.5q0 23 16 39.5 t39 16.5q26 0 44 -21.5t18 -53.5q0 -66 -62 -112q-36 -28 -100 -49z" />
<glyph unicode="&#x2022;" horiz-adv-x="667" d="M335 200q-58 0 -98.5 40.5t-40.5 97.5q0 58 40.5 98.5t99.5 40.5q56 0 96.5 -41t40.5 -98t-40.5 -97.5t-97.5 -40.5z" />
<glyph unicode="&#x2026;" horiz-adv-x="766" d="M538 51q0 25 17.5 42t41.5 17q25 0 42.5 -17t17.5 -43q0 -24 -17.5 -41.5t-41.5 -17.5q-25 0 -42.5 17.5t-17.5 42.5zM282 51q0 25 17.5 42t41.5 17q25 0 42.5 -17t17.5 -43q0 -24 -17.5 -41.5t-41.5 -17.5q-25 0 -42.5 17.5t-17.5 42.5zM27 51q0 25 17.5 42t41.5 17 q26 0 43 -17t17 -43q0 -24 -17.5 -41.5t-41.5 -17.5q-25 0 -42.5 17.5t-17.5 42.5z" />
<glyph unicode="&#x202f;" horiz-adv-x="177" />
<glyph unicode="&#x2039;" horiz-adv-x="264" d="M128 27l-90 192l165 197h43l-128 -203l53 -186h-43z" />
<glyph unicode="&#x203a;" horiz-adv-x="265" d="M21 27l133 205l-57 184h44l91 -191l-170 -198h-41z" />
<glyph unicode="&#x205f;" horiz-adv-x="221" />
<glyph unicode="&#x20ac;" horiz-adv-x="725" d="M604 199l33 -17q-47 -102 -108 -149t-147 -47q-111 0 -185.5 77t-74.5 191q0 12 1 24h-65l25 37h44q3 17 7 37h-58l25 37h43q46 136 134 213.5t196 77.5q52 0 89 -18.5t70 -61.5l51 52l30 -1l-50 -257h-34q0 247 -151 247q-99 0 -170 -117q-30 -50 -57 -135h277l-25 -37 h-262q-1 -7 -8 -37h246l-25 -37h-226q-5 -42 -5 -64q0 -87 46 -138t125 -51q67 0 113.5 39t95.5 135z" />
<glyph unicode="&#x2122;" horiz-adv-x="918" d="M413 287l6 26q33 1 49 16.5t26 54.5l58 231q2 8 2 13q0 13 -54 13h-11l6 26h149l31 -274l166 274h132l-6 -26q-36 -1 -44 -4q-11 -2 -22 -46l-57 -228q-6 -25 -6 -33q0 -10 10.5 -13t47.5 -4l-6 -26h-178l7 26q35 1 44 4q7 2 10.5 10.5t10.5 35.5l65 259l-206 -335h-26 l-38 329l-60 -241q4 -29 5 -39q3 -20 54 -23l-6 -26h-159zM119 287l6 26q39 0 50 4q12 4 22 46l64 260q2 8 2 9q1 5 -5 8.5t-16 3.5q-62 0 -120 -120l-23 6l45 137h318l-21 -142h-25q2 22 2 24q0 50 -16.5 72.5t-52.5 22.5q-13 0 -17 -4t-8 -19l-65 -258q-6 -25 -6 -33 q0 -11 12.5 -14t54.5 -3l-7 -26h-194z" />
<glyph unicode="&#x25fc;" horiz-adv-x="435" d="M0 435h435v-435h-435v435z" />
</font>
</defs>
</svg>
