<?xml version="1.0" standalone="no"?>
<!DOCTYPE svg PUBLIC "-//W3C//DTD SVG 1.1//EN" "http://www.w3.org/Graphics/SVG/1.1/DTD/svg11.dtd" >
<svg xmlns="http://www.w3.org/2000/svg">
<metadata></metadata>
<defs>
<font id="harmansimple" horiz-adv-x="991" >
<font-face units-per-em="2048" ascent="1536" descent="-512" />
<missing-glyph horiz-adv-x="819" />
<glyph horiz-adv-x="0" />
<glyph horiz-adv-x="682" />
<glyph unicode=" "  horiz-adv-x="819" />
<glyph unicode="&#x09;" horiz-adv-x="819" />
<glyph unicode="&#xa0;" horiz-adv-x="819" />
<glyph unicode="!" horiz-adv-x="415" d="M145 883q0 12 2 24l-2 -2q5 20 5 29v432l-2 4q-1 4 -1 8v15l5 12q3 15 15 26t26 13q63 9 75 -29q0 -12 2 -18v-359q2 -10 2 -41v-55q-6 -49 -6 -117v-63q2 -14 2 -47v-131q0 -51 4 -82l-2 -29q0 -1 1 -3t1 -3v-35q0 -72 -61 -72q-64 0 -64 70v10q0 8 -1 31.5t-1 44.5v367 zM270 78v-10q0 -27 -14.5 -47.5t-44.5 -20.5q-24 0 -39.5 7.5t-20 22t-5.5 20t-1 18.5v6q0 67 68 67q31 0 44 -20.5t13 -42.5z" />
<glyph unicode="&#x22;" horiz-adv-x="540" d="M127 1440q44 8 65.5 -26t16.5 -79v-24l2 -56q2 -41 2 -122v-148q-9 -45 -55 -45t-62 49l-4 82q0 3 -1 8.5t-1 7.5v25q0 61 -2 88v-2q-6 27 -6 96v64q0 34 16 61q7 7 15 11zM328 1020v70q0 63 4 90q2 25 2 86v20q0 9 4 21v88q13 30 35 39q8 4 12 4q21 5 38.5 -9.5 t27.5 -33.5q10 -21 6 -76v-90q0 -72 -6 -109q0 -20 -2 -43v-20q-2 -26 -10 -51.5t-20.5 -42t-27 -21t-31.5 15t-32 62.5z" />
<glyph unicode="#" horiz-adv-x="1189" d="M1065 948q20 -10 22 -34t-12 -42q-7 -9 -16 -14.5t-22 -7.5t-20 -2.5t-24.5 0t-21.5 0.5h-25q-33 0 -45 -2h-8l-10 -27q-2 -4 -2 -14q-4 -2 -4 -14q-2 -20 -17 -123q0 -3 -1 -11.5t-1 -11.5q-2 -2 -2 -18q0 -2 -1 -10t-1 -11q-3 -12 -6 -16q-1 -2 -2 -12v-5h20 q100 -12 154 -16q13 0 24 -18l11 -15q14 -28 -6 -51l-17 -12q-16 -9 -39 -11t-53 0t-41 1h-14q-37 0 -51 2h-3v-9l-4 -22q-3 -57 -12 -113l-4 -22q-11 -82 -33 -174q-10 -38 -10 -70l-2 -10v-4l-8 -25q-11 -22 -22 -29.5t-34 -7.5q-26 0 -45 19q-15 25 -12 63q0 3 1 8.5 t1 8.5q5 19 12 63t15 66q4 16 14 92q0 3 1 9t1 9q12 90 12 92q0 4 1.5 11t1.5 10l2 8v16l-1 -1q-1 -1 -1 1q1 1 2 7h-54q-73 0 -147 6h-21q-40 10 -47 0q-7 -11 -12 -23.5t-7.5 -28.5t-4 -26t-2.5 -30.5t-2 -27.5l-4 -18q-14 -93 -15 -121q-1 -9 -5 -27.5t-5 -27.5l-4 -23 q0 -3 -1 -9t-1 -9l-4 -23q0 -3 -1 -8t-1 -8t-1 -9t-1 -9q-1 -21 -17 -37.5t-37 -22.5q-3 0 -8 -1t-8 -1q-22 -1 -38.5 18t-14.5 42q1 19 7.5 54.5t8.5 49.5q0 3 1 9t1 9q4 24 8 72q0 4 1 11.5t1 11.5q2 21 17 106q0 3 1 9.5t1 9.5q12 64 22 98q-23 0 -28 2h-86 q-56 -4 -80 20q-7 7 -10 15q-12 25 0 51.5t38 32.5q30 6 60 0h125l4 35q6 64 8 71q0 4 1 10.5t1 10.5v18q0 29 2 37q0 2 1 5t1 5v10q0 12 2 17q0 3 1 9t1 9q0 5 -1 9t-1 6q-2 2 -2 10q-8 0 -10 2q-1 0 -5 1t-5 1q-26 4 -37 0h-12q-1 0 -6 -1t-9 -1h-10q-68 0 -76 51 q0 35 19 51q4 8 12 11q31 13 76 10h20q2 0 7.5 -1t7.5 -1q3 0 8 -1t8 -1q4 1 11.5 -1t11.5 -3t6 2q13 33 19 100t11 90l4 12v-2l15 78q0 15 2 21q6 22 10 74t14 77l11 21q9 15 43 24q35 6 57 -28q6 -18 6 -21q2 -29 1 -41t-10 -43t-11 -41q-2 -6 -2 -24q-2 -2 -2 -11 q-9 -76 -27 -159l-6 -23q-2 -17 -9.5 -50t-9.5 -50h23q12 0 18 -2h201q5 0 22 0.5t27 -0.5q4 49 23 131l6 35q4 36 8 67v12q6 27 9.5 86t10.5 89l7 20q15 51 59 43q2 0 6 -1t6 -1q14 -4 17 -8q11 -9 24 -31l6 -18q2 -30 -9.5 -83.5t-12.5 -72.5q-2 -6 -2 -18q0 -3 -1 -10 t-1 -11q-6 -60 -15 -104l-6 -35q-10 -55 -12 -92h12q6 0 37 0.5t43.5 0t35.5 -5.5t40 -14zM766 829q0 5 1 8t1 7h-16q-27 2 -80 2h-195q-2 -8 -2 -29q0 -1 -1 -5t-1 -5q-6 -30 -6 -53v-19q-6 -106 -14 -157h26q103 -7 166 -7h78q4 44 8 68q0 11 4 23q28 130 31 167z" />
<glyph unicode="$" horiz-adv-x="917" d="M786 358q0 2 3 -2l2 -4q13 -57 -13 -135l-6 -18q-7 -16 -16 -29q-34 -69 -94 -111q-56 -45 -127 -61v-131q0 -1 -1.5 -6.5t-1.5 -7.5q-2 -4 -2 -13v-8q0 -14 -2 -20q-1 -28 -27.5 -39t-54.5 -4q-19 6 -30 23.5t-10 39.5v29q0 58 2 76v59q-155 23 -232 100q-7 7 -10 13 q-18 21 -33 51q-17 50 -22 82l-5 18q-12 85 19 170q3 7 10 10q18 11 43 11q22 0 43 -21q15 -21 15 -63q0 -2 -1.5 -8.5t-1.5 -8.5q-2 -16 -2 -49q0 -65 21 -106q5 -10 29 -41l-7 2q19 -13 48 -23t48.5 -13t57.5 -9h33q34 0 76 10q79 40 106 96q15 27 21 57q2 6 2 21 q0 80 -27 135l-10 19q-71 115 -107 153q-8 9 -16 19l-17 18l-22 23l-10 10q-17 11 -23 24l-22 19l-37 33l-10 8q-20 15 -35 30l-21 17l2 -2q-7 5 -19 15t-13 11l-13 13q-55 50 -102 139l-6 20q-12 27 -15 62q-3 33 2 96q0 5 1 13t1 10q15 172 140 223l4 2l18 8l4 4l17 10 q34 17 73 25v6q0 2 1.5 8t1.5 9t1 10.5t1 11.5q4 40 4 68q0 68 37 80q4 2 12 2q17 4 35.5 -1t31.5 -16q9 -9 9 -49v-41q0 -11 -1 -30t-1 -25v-21q-5 -2 -5 -18l54 -14h-4q2 -2 10 -2q10 -3 12 -3q2 -2 4 -2q101 -31 157 -128t50 -205v-21q4 -34 -16 -51q-15 -19 -44 -21.5 t-48 15.5q-4 4 -9 14q-2 6 -2 16l-4 23q0 5 -0.5 25t-1.5 27.5t-3 23t-5.5 27t-9.5 22.5l-8 16q-14 28 -31 45l-13 17q-6 4 -15.5 11.5t-10.5 8.5l-14 10q-42 22 -72 29q-7 0 -19 4q-70 4 -96 -4h6q-15 -9 -53 -22l-16 -11q-37 -24 -54 -82q-4 -12 -4 -20q-16 -68 -4 -129 l6 -23q32 -65 56 -98l12 -14q22 -27 74 -65.5t71 -57.5l17 -16q17 -12 34 -29t37.5 -41.5t30.5 -34.5l14 -14l17 -15l14 -18q14 -15 31.5 -50t19.5 -38q2 -2 7 -9l10 -14q4 -7 13 -19t14 -19.5t10.5 -18.5t9.5 -22q2 -3 8 -21q3 -12 7 -35.5t7 -34.5z" />
<glyph unicode="%" horiz-adv-x="1437" d="M535 819q-7 -7 -17 -10q-60 -47 -166 -47q-2 0 -7.5 1t-8.5 1q-39 5 -90 24l-43 23q-56 40 -78.5 109t-18.5 141v51l-2 2q0 1 -1 7t-1 7v50q0 62 29 112l4 4q1 1 0 1q-1 1 0 3q5 16 12 25v-2q72 118 230 121q1 0 4 -1t6 -1h23q52 -13 106 -45l8 -4l13 -9l-2 2 q31 -24 47 -51l6 -12q18 -24 24 -55q0 -3 1 -10t1 -11q2 -15 3 -60t8 -69v-10q20 -133 -15 -203l-6 -14q-1 -3 -2.5 -5.5t-3 -5.5t-2.5 -4l2 3q-20 -32 -63 -58zM1300 543q35 -55 35 -150q0 -40 -4 -80l-2 -6v-10q0 -3 -1 -6.5t-1 -5.5v-25.5v-28.5t-1 -25.5t-3.5 -28 t-7.5 -24t-12 -24.5v2q-3 -9 -17 -37q-1 -2 -10 -16q-68 -86 -180 -96q-6 -2 -21 -2q-102 7 -164 53l-16 14q-45 42 -61 88l4 -6q-1 4 -5.5 12.5t-5.5 12.5l-6 12q0 6 -4 14q-3 13 -5 27.5t-4 32.5t-3 28v39q-3 52 8 121q0 4 1 11.5t1 11.5l12 41q39 96 119 141l12 4 q117 28 201 8q9 -4 17 -6l16 -6q33 -19 46.5 -27.5t33 -26.5t28.5 -38v2zM932 1071q-51 -134 -70 -180l-10 -21q-11 -16 -20.5 -36t-14.5 -34t-13.5 -40t-12.5 -37q-5 -11 -9 -23q0 -4 -4 -10.5t-4 -9.5l-20 -59l-6 -21l-37 -96q-5 -13 -9 -23l-8 -22l-14 -33l2 2l-31 -92 l-16 -35q-50 -117 -55 -131l-5 -12v-2q-8 -23 -10 -37q-2 -8 -7.5 -21.5t-6.5 -17.5q-8 -26 -37 -74q-13 -20 -27 -31q-8 -4 -12 -4q-4 -2 -16 -2q-13 0 -19 2h-8q-25 16 -35 29q-16 23 0 45q14 19 23.5 41.5t19.5 52.5t15 43l8 19l2 8v-2q28 84 70 174q24 53 38 106l31 74 q2 11 6 19q1 3 29 79l6 15q38 112 60 155l8 19l20 35l6 12q9 19 13.5 34.5t7 27.5t4.5 18v-2l27 74l10 20l6 20l37 93q45 111 57 135l10 16l9 19l10 22q9 27 29 48.5t45 27.5t49 -16q12 -13 12.5 -33t-4.5 -34.5t-16.5 -40.5t-14.5 -34q-4 -12 -8 -18l-6 -19q-7 -12 -15 -26 q-15 -27 -18 -35l-18 -45l-7 -14l-18 -48q-6 -12 -8 -14zM498 942q12 36 8 129v19q-5 78 -4 94q0 10 -2 16q0 29 -13 47q-1 4 -10 17q-42 65 -121 59l-16 -4q-49 -18 -76 -45l-18 -23q-21 -24 -17 -77v-80q0 -2 1 -6t1 -7v-30q-15 -93 39 -136l21 -12h-2q72 -40 135 -20l4 2 h-2q2 0 4 2l4 2l-2 -2q30 13 47 39v-2zM1204 358v58q-3 45 -12 57l-10 14l-6 11q-6 6 -16 12.5t-21 13t-15 8.5q-14 0 -26 7h-19q-4 0 -8 2q-5 -1 -20 -5t-23 -4q-4 -3 -20 -8q-32 -7 -50 -37t-20 -65q-2 -6 -2 -19q-2 -14 -2 -38v-23q2 -10 2 -68q-2 -8 -2 -24 q-8 -50 21.5 -89.5t78.5 -45.5q8 -4 15 -4q45 -9 81 4l19 8q29 18 37 45l6 20q5 25 4.5 79t3.5 77q0 2 4 14z" />
<glyph unicode="&#x26;" horiz-adv-x="1175" d="M954 -25l-18 11q-37 10 -74 47l-12 14l-27 23q-8 8 -12 10l-20 22l-9 11l-20 -23q-40 -34 -129 -72l-17 -4q-6 -4 -18 -8q-4 -2 -23 -2q-18 -8 -51 -12q-16 -2 -49 -2q-66 0 -84 4l-14 4q-69 19 -125 55h2q-11 7 -26 25t-23 24q-4 8 -10 11l-11 14q-19 24 -45 74l-10 32 q-10 25 -10 33q-10 26 -13 58v10l-4 59v58q9 127 105 241l10 10l12 17l13 12q10 12 51 39q-2 2 -25 17t-32 26q-1 2 -11 12q-8 10 -26 41q-9 14 -11 19q-44 96 -38 190v55q0 15 2 21q0 26 12 66v-3q7 23 20 45t33.5 50.5t28.5 40.5l10 10l14 10l-2 -2l17 12l18 11 q35 23 113 47l22 4h27q109 0 192 -60q96 -70 101 -165l2 -17q0 -30 -21 -51l-14 -10q-36 -21 -62.5 8t-31.5 70q-1 2 -4.5 8t-5.5 8q-24 46 -74 67q-9 6 -21 9q-8 4 -14 4l-14 4q-39 7 -97 -8l2 2q-41 -16 -73 -60l-13 -16q-41 -55 -45 -90q-2 -4 -2 -17v-47q0 -2 1 -7t1 -7 q5 -51 33 -115l6 -16l8 -16l11 -19q19 -34 59 -53q12 -4 17 -4q18 -7 38.5 -9t47 -1t38.5 0h43q33 -2 95.5 -2t85.5 -1q12 0 18 -2q11 -1 89 -2t118 -8q11 -3 22 -10q16 -13 23 -33q4 -8 4 -14q0 -4 -1 -11t-1 -10q-7 -24 -26.5 -34.5t-41.5 -9.5t-46 2q-6 1 -9 1h-35 q-3 0 -9 1t-9 1v-20q0 -71 -2 -96q-4 -27 -4 -82v-19q0 -10 1.5 -34t2 -37.5t0 -33.5t-3.5 -36v-16q0 -41 4 -47v-11q11 -52 24 -75v2l31 -37l23 -21l16 -16q17 -14 61.5 -34.5t63.5 -39.5l4 -12q2 -4 2 -17q0 -25 -14 -43l-12 -8l-13 -4q-41 -7 -71 4zM293 186q4 -8 14 -18 q60 -55 168 -55q10 0 14 2q45 4 66 10q14 0 16 2q9 0 11 2l12 2q10 9 29 16l12 7l6 6q45 23 78 69q3 3 8 13q-4 20 -4 61v16q2 63 2 189v18q0 5 1 16.5t1 16.5q2 43 2 117v20v9h-53q-26 -2 -73.5 5t-67.5 7h-19q-49 -2 -123 -25q-2 -2 -6 -3t-6 -3l-14 -8q-17 -9 -25 -19 l-12 -12l-35 -37q-46 -48 -64 -131q-6 -24 -6 -57q3 -101 33 -172l8 -19q4 -6 8 -18q1 -4 19 -27z" />
<glyph unicode="'" horiz-adv-x="294" d="M127 1440q44 8 65.5 -26t16.5 -79v-24l2 -56q2 -41 2 -122v-148q-9 -45 -55 -45t-62 49l-4 82q0 3 -1 8.5t-1 7.5v25q0 61 -2 88v-2q-6 27 -6 96v64q0 34 16 61q7 7 15 11z" />
<glyph unicode="(" horiz-adv-x="393" d="M102 477v283q11 218 11 344q0 53 2 76v14q0 2 -1 4t-1 4v86q0 63 2 96q4 75 30 117q23 52 42.5 82.5t56.5 67.5q1 1 8.5 8t10 8.5t9.5 7.5t11.5 8t11.5 5.5t14 4.5t15 1q2 0 6.5 -1t7.5 -1l14 -9q28 -11 29 -41t-16 -51q-11 -11 -19 -14l-4 -4l-14 -12l-13 -11 q-27 -16 -43 -57q-10 -17 -10 -23q-23 -45 -26 -106q-7 -28 -3 -72q0 -4 1.5 -11t1.5 -11v-140q0 -198 -7 -305v2q-4 -144 -4 -231q0 -43 4 -129v-156q1 -23 -4 -135v-18q-3 -118 33 -219l6 -15l6 -12q12 -12 13 -14l10 -13l16 -14l4 -4q49 -21 52 -57q6 -27 -21 -54 q-8 -11 -18 -14q-27 -6 -57 10.5t-44.5 31.5t-40.5 46l-20 31q-18 29 -33 71q-19 62 -29 199v94q0 1 1 4t1 7v47q2 20 2 53q0 51 -4 141z" />
<glyph unicode=")" horiz-adv-x="393" d="M291 760v-283q-4 -90 -4 -141q0 -33 2 -53v-47q0 -4 1 -7t1 -4v-94q-10 -137 -29 -199q-15 -42 -33 -71l-20 -31q-27 -32 -40.5 -46.5t-43.5 -31t-57 -10.5q-11 4 -19 14q-26 26 -20 54q3 37 51 57l4 4l16 14l11 13q2 4 12 14l6 12l6 15q36 101 33 219v18q-5 112 -4 135 v156q4 86 4 129q0 87 -4 231v-2q-6 92 -6 305v140q0 4 1 11t1 11q4 47 -2 72q-3 59 -27 106q0 6 -10 23q-16 41 -43 57l-12 11l-15 12l-4 4q-6 2 -18 14q-18 21 -17 51t29 41l14 9q3 0 8 1t7 1q8 0 15 -1t14 -4.5t11.5 -5.5t11.5 -8t9.5 -7.5t10 -8.5t8.5 -8 q36 -36 55.5 -66.5t42.5 -83.5q27 -44 31 -117q2 -33 2 -96v-86q0 -2 -1 -4t-1 -4v-14q2 -23 2 -76q0 -146 10 -344z" />
<glyph unicode="*" horiz-adv-x="880" d="M797 1200q2 -6 2 -18q0 -11 -8 -35q-23 -47 -99 -47l-4 -4l-18 -9q-13 -8 -29 -8l-49 -16q-5 -4 -23 -8q-20 -10 -24 -11l37 -43l14 -16l12 -14l13 -17q9 -16 32 -39.5t29 -31.5q19 -23 23 -37q9 -26 -5.5 -51t-40.5 -33q-19 -6 -32 -4q-20 3 -31 14q-27 23 -72 88 l-10 12q-2 2 -5 8.5t-5 8.5q-1 2 -3.5 8t-2.5 8q0 1 -3 4t-3 4q-13 13 -15 17l-24 35q-13 -15 -25 -31l-10 -14q-10 -16 -40 -54t-40 -57q-5 -11 -19 -21l-10 -8q-7 -10 -16 -14q-6 -4 -19 -4q-47 0 -63 37q-8 26 16 73q11 16 11 17q41 55 71 90l6 12l11 13q3 3 6.5 4.5 t7.5 6.5t12 19q-8 4 -20 8l-62 19v-2q-32 9 -82 31q-12 4 -16 4t-6 2l-16 4q-8 0 -17 6q-25 6 -39 27t-10 47q7 32 33 41q1 1 16 6q12 2 37 2q11 0 23 -4q27 -7 76.5 -30.5t54.5 -25.5h2q12 -4 18 -8q30 -4 43 -8v12l4 64v14q0 13 2 17q0 10 -1 31.5t-1 33.5v21q-4 74 43 98 q36 15 60 -6q23 -17 28 -42t0.5 -64t-4.5 -52v-23q-2 -6 -2 -22q0 -10 -2 -16q0 -3 -1 -9.5t-1 -9.5v-35l63 21v-2q11 4 19 8q5 1 11.5 4t8.5 4l21 6q10 7 29 15l14 8q41 18 72 20q4 -1 18 -8q29 -21 29 -41z" />
<glyph unicode="+" horiz-adv-x="1007" d="M858 459h-92q-74 -4 -139 -4h-17q-7 2 -43 2q4 -17 4 -76v-111q0 -2 -1 -8t-1 -8q0 -53 2 -80v6q9 -26 -7 -52.5t-42 -31.5q-36 -4 -57 21q-11 15 -11 44t-1 36q0 12 -2 20q-5 123 -5 152v20q0 6 1 21.5t0.5 27t-3.5 21.5q-2 2 -4.5 1l-7.5 -3t-8 -2h-14q-12 -2 -39 -2 q-42 0 -58 2h-47q-1 0 -4 1t-4 1q-17 0 -35 -2h-4q-6 -2 -24 -2q-57 -7 -97 18q-13 8 -14.5 28t2.5 36l6 16q19 27 76 27q3 0 10 -1.5t10 -1.5q23 3 50.5 3.5t45.5 0t51 -2t48 -1.5l25 5l4 1q4 1 8 1h24v26q0 55 2 78v88q0 79 -8 107q-9 27 21 49q5 5 14 8q37 12 74 -14 q6 -4 9 -12.5t4.5 -23.5t2.5 -20q0 -14 2 -22q2 -45 2 -131v-39q-2 -23 -2 -68v-28h129q2 0 5.5 1t5.5 1q31 2 112 2h39q31 0 51 -23q30 -27 13 -74q-25 -28 -62 -28z" />
<glyph unicode="," horiz-adv-x="374" d="M291 63q0 -2 1 -7.5t1 -8.5v-20q-2 -8 -2 -23q-2 -8 -2 -22q-20 -106 -47 -185l-9 -16q-11 -21 -20 -33h2q-4 -8 -8 -12q-18 -14 -39.5 -9t-32.5 23q-4 17 -3.5 23t7 22.5t8.5 22.5l7 16q18 67 18 70t1 8t1 8l4 14q3 24 -2 43q-2 3 -12 3q-4 2 -17 2l-12 4l-24 12l-13 12 l-8 17q-11 32 -2.5 68t35.5 57q7 7 16 10q37 21 86 4q14 -4 17 -8q42 -27 49 -95z" />
<glyph unicode="-" horiz-adv-x="747" d="M319 449h-167q-34 0 -58 24q-18 43 -2 70q25 25 78 30h78q2 -2 20 -2h152q96 0 137 -4h43q46 0 57 -45q19 -19 -6 -51q-22 -29 -73 -29h-27q-1 0 -3 1t-3 1h-17q-16 2 -39 2h-32q-83 0 -138 3z" />
<glyph unicode="." horiz-adv-x="360" d="M145 -16l-8 4q-36 17 -49 58.5t6 76.5l6 12q21 21 35 27q6 6 15 6q8 4 12 4q16 4 20 4q9 0 21 -4q11 0 20 -6l15 -6q12 -6 14 -8q24 -15 24 -46q9 -92 -40 -112l-17 -6q-33 -11 -74 -4z" />
<glyph unicode="/" horiz-adv-x="749" d="M145 -6h-8l-16 -6q-3 0 -9.5 -1t-9.5 -1q-21 -4 -34 4q-12 4 -17 12q-15 15 -6 33l6 14l6 17q7 39 36 102.5t36 85.5l8 20q11 39 42 106t40 93q0 4 4 12l4 13l6 20q0 2 1 4t2 5t2 5v-2q5 9 14 35l6 17q10 41 14 51l4.5 9t4.5 11q30 84 49 133l24 58v-2l27 67l29 70 l43 106l24 60q0 14 10 24l9 25l6 12q13 40 44 108t40 91l10 16q16 22 43 31q18 6 36.5 -3.5t26.5 -27.5q5 -12 5.5 -24t-4.5 -26t-8.5 -21t-12.5 -23l-8 -18q-7 -18 -25.5 -60t-27.5 -65q0 -3 -5 -13q-10 -20 -10 -26v2l-10 -23l-102 -262v2l-21 -55l-16 -39 q-25 -41 -27 -65l-8 -21l-10 -31q-14 -43 -25 -59l-31 -92l-4 -6q-4 -7 -6 -13l-8 -16l-6 -18q-20 -46 -41 -111l-8 -19q-6 -19 -19.5 -52t-17.5 -44q0 -4 -4 -12l-6 -14l-11 -29l-6 -16q-37 -88 -41 -101v2q-7 -20 -33 -59zM240 539q0 -1 -1 -3.5t-1 -3.5q0 5 2 7z" />
<glyph unicode="0" horiz-adv-x="882" d="M776 817q4 -110 4 -205q0 -129 -8 -178v-6q0 -2 -1 -5.5t-1 -4.5v-8q-2 -20 -2 -45q0 -4 -2 -32t-3 -37t-3.5 -30.5t-6 -37.5t-8.5 -33q-4 -14 -8 -21q-22 -61 -53 -92q-1 -1 -3.5 -4t-5 -5.5t-5.5 -4.5q-45 -45 -107 -62q-7 -5 -20 -8l-43 -6q-4 -2 -15 -2q-6 -2 -20 -2 q-37 -3 -74 0q-12 0 -18 2q-10 0 -60 10v-2l-16 6q-5 2 -14.5 4t-15 3.5t-12.5 5t-13 8.5q-27 7 -49 30.5t-31 42.5t-23 54q-4 12 -8 18q-14 47 -14 84q-4 12 -4 18q-11 72 -11 129v64q0 78 4 180q0 24 1.5 80t1.5 82q0 32 -3 70v14q0 19 -2 33q0 2 -1 6.5t-1 7.5v25 q1 16 5 59.5t4 67.5v18q0 2 1 5t1 7q-2 4 -2 25q0 32 6 59q0 3 1 9.5t1 9.5q16 68 51 120q2 1 5.5 5.5t4.5 5.5q5 7 15 14q25 25 47 35q14 9 16 10q93 38 195 35h24q32 0 43 -4q26 -4 41 -8q27 -9 39 -15l18 -6l17 -10q42 -20 72 -62l10 -16q55 -55 55 -209v-123 q0 -68 4 -178zM657 500q7 61 7 114q0 45 -3.5 132t-3.5 92q-4 136 -4 206v78q-12 103 -37 146l-14 12q-5 8 -18 14q-1 1 -6.5 4.5t-8.5 4.5q-28 16 -65 22h-39q-4 0 -12.5 1t-12.5 1q-79 4 -114 -14q-11 -7 -19 -10q-35 -26 -54.5 -66.5t-19.5 -85.5v-45q2 -30 -3.5 -88 t-4.5 -86q0 -7 1 -21t1 -20l4 -41v-21q2 -49 2 -147v-37q-1 -12 0.5 -41t-0.5 -41q-8 -52 -8 -114v-19q0 -39 2 -59v-21q4 -28 4 -41q2 -8 2 -22q0 -57 19 -99l8 -16q31 -44 70 -57l12 -6q2 0 7 -1.5t7 -1.5q8 -4 15 -4q2 0 6 -1t6 -1l20 -4q3 0 9.5 -1t9.5 -1t9 -1t9 -1 q33 -2 78 23q12 6 14 8l27 16h-2q5 5 21.5 17.5t23.5 21.5v-2q28 33 35 96l4 21q0 11 4 39q0 2 1 6.5t1 7.5v8q0 1 1 5t1 6q0 22 2 30v6q0 2 1 6t1 7q0 31 2 41v20q0 3 1 11t1 14z" />
<glyph unicode="1" horiz-adv-x="559" d="M410 502l-2 -64l-5 -73v-148q0 -6 -2 -10v-158q0 -2 -1 -6t-1 -6q0 -12 -6 -21q-31 -41 -86 -20q-17 8 -20 29q0 3 -1 10t-1 10q-1 26 -1 76t-1 74v20q2 2 2 0l2 43q-2 42 2 127q0 3 1 9t1 9q-2 33 -2 99v20q1 27 -2.5 101.5t0.5 101.5v29l4 59q2 49 2 139v21 q0 10 -1.5 28t-1.5 32.5t3 27.5q2 10 2 29v16q0 21 -4.5 106.5t0.5 106.5l-15 -6q-43 -18 -45 -19h2q-12 -6 -26 -12l-17 -6q-5 -2 -24 -12t-29 -13q-6 -2 -14 -2q-35 0 -47 17q-14 21 -14 45t20 37q-1 0 -3 -1t-3 -1q21 14 37 22l14 6q8 4 10 4l13 6l104 46l16 4 q2 4 8.5 3.5t8.5 2.5l-2 2q7 0 26.5 2t30.5 2t26 -2t26 -10t18 -21q2 -6 2 -20v-54q-4 -45 -2 -67v-17l4 -86v-14l-6 -395v-258z" />
<glyph unicode="2" horiz-adv-x="884" d="M776 1194q2 -4 2 -12q2 -8 2.5 -23t1.5 -20v-33l-6 -53v-19l-6 -20l-4 -21q-3 -4 -8 -20q-21 -64 -64 -123q-4 -8 -8 -12l-8 -11q-10 -15 -35 -45q0 -1 -1 -2t-1 -2q-2 -2 -2 -4l-14 -16q-8 -11 -26.5 -38.5t-32.5 -46.5t-29 -36q-7 -11 -15 -16l-8 -11 q-14 -16 -29.5 -38t-23 -33.5t-26 -44t-21.5 -37.5q-2 -5 -11 -19q-12 -22 -49.5 -76t-52.5 -86l-6 -18q-3 -7 -11 -27t-11.5 -30.5l-9 -27t-7.5 -31t-2 -29.5q6 1 24.5 0.5t24.5 1.5h23q36 3 73 0h37q47 0 70 2h14l113 6h22q17 3 33 0q27 0 50 -11t30 -32q16 -43 -19.5 -67 t-78.5 -11q-6 0 -18.5 -1t-18.5 -1h-37q-27 0 -39 2h-176q-9 0 -25 -1t-22 -1h-84q-3 0 -8.5 -1t-8.5 -1t-9 -1t-9 -1h-16h-14.5h-16t-14.5 1t-15.5 3.5t-12 7t-11.5 10.5q-19 24 -4 62l6 18q12 40 14 60q4 12 4 16l6 16q8 44 31 95q4 12 8 18l15 31l10 16q1 4 10 17l10 18 q6 10 18.5 26.5t22 30.5t13.5 29l10 21l12 18l6 12l8 13q1 2 4 5t4.5 5.5t2.5 5.5q82 112 96 133l8 12l29 39l12 15l10 14l43 61q7 11 29 37q3 8 10 15q17 24 39 61l10 16q19 53 25 103q2 6 2 20q8 118 -37 180l-12 17q-4 4 -12 8q-12 10 -37 18l-21 7q-92 16 -139 8 q-7 0 -19 -4q-20 -4 -53 -21l-16 -10q-68 -64 -68 -125v-41q0 -44 -24 -61q-22 -14 -46 -7.5t-38 27.5l-6 12q-9 20 -9 66v20q0 5 1 15.5t1 15.5l5 15q28 103 116 165l19 13q49 28 100 37q4 2 12 2q20 4 29 4h51q98 7 166 -29q14 -5 19 -8q35 -17 67 -49q7 -5 14 -15l29 -32 q2 -2 5.5 -8.5t4.5 -8.5l11 -14q3 -13 12 -39t12 -41z" />
<glyph unicode="3" horiz-adv-x="892" d="M629 938q0 2 2 6l-2 -2q12 51 14 74l4 37q0 6 1 19.5t1 19.5q0 3 1 8t1 8q0 14 -2 20q-3 57 -39 99l-10 10q-4 2 -8 10q-35 39 -51 49l-17 7l-28 10q-16 4 -21 4l-14 4q-11 0 -15 2q-38 3 -77 -6l-19 -4q-2 -2 -14 -8q-24 -9 -70 -41v2q-23 -26 -37 -72q0 -3 -1 -8.5 t-1 -7.5q-2 -10 -2 -33v-21q-1 -6 2 -36.5t-4 -36.5q-9 -25 -37 -34t-51 5q-25 15 -29 61q-2 6 -2 21q0 1 -1 4t-1 4v6q0 29 2 45q5 32 19 72l8 22q44 89 115 140q6 2 18 10q58 30 121 39q4 0 11.5 1t11.5 1h59q6 -2 18 -2q51 -6 97 -27l18 -8q74 -35 117 -127q4 -6 8 -18 q41 -77 47 -166v-21q0 -50 -10 -86l-4 -20q-4 -30 -8 -43l-7 -17q0 -6 -4 -14q-13 -45 -49 -80t-84 -57l-22 -8l14 -6l12 -7q5 -1 14.5 -10t14.5 -10l14 -8q10 -5 13 -8l14 -11q26 -19 39 -39l12 -16q8 -12 10 -18l9 -17q11 -24 22 -72q4 -12 4 -20q16 -56 12 -154v-28 q0 -13 -2 -19q-2 -30 -16 -69q-5 -14 -8 -19q-34 -90 -90 -143l-13 -12q-68 -64 -145 -76q-8 -2 -31 -2h-67q-2 2 -8 2l-31 4l-29 6q-48 11 -76 29l-12 10q-17 9 -32.5 25t-24 28.5t-23 35.5t-20.5 32q-8 12 -10 18q-46 94 -23 191l6 14q15 30 47 33q27 3 50.5 -7t27.5 -32 q3 -9 0 -21q-12 -36 -2 -90l4 -18q2 -7 12 -31t13 -37l-2 2q29 -50 82 -65q12 -4 18 -4q27 -6 57 -6h21q41 -8 84 20l16 14q48 28 76 88l6 17q50 116 16 213q-4 12 -4 16q-4 12 -4 19l-6 20q-2 12 -10 31q0 8 -4 16q-29 46 -31 49l-10 15l-23 24q-1 2 -10 11q-32 16 -39 18 q-16 5 -57 7t-62 13q-11 7 -19.5 25t-10.5 33q0 22 8 33q6 9 12 12q5 5 14 8q72 4 103 10l20 6q10 2 27 15q1 1 4 3.5t5.5 5t4.5 5.5q21 29 35 53l12 13q7 11 15 16z" />
<glyph unicode="4" horiz-adv-x="989" d="M907 395q19 -17 19 -41t-15 -43q-7 -7 -39 -16q-3 0 -7.5 -1t-6.5 -1h-31q-25 4 -75 4h-9v-14q0 -4 -1 -12t-1 -11v-98q0 -70 -4 -103l-4 -24l-6 -17q-4 -35 -70 -30l-18 6q-29 15 -27 45v18l6 47v46q0 1 1.5 4.5t1.5 5.5v119v18h-183q-12 0 -18 -2q-2 0 -6 -1t-6 -1 h-115q-20 2 -62 2h-81q-6 2 -21 2q-28 -2 -49 13t-17 42q3 15 13.5 41.5t13.5 34.5l8 16q6 13 29.5 57.5t32.5 69.5l6 17l8 18l6 17q7 15 31 60.5t33 72.5v-4q24 47 26 51l6 12l111 223l12 19l52 96l6 16l16 31q7 11 10 19q91 142 105 163q1 4 4.5 9t3.5 6l31 43 q19 24 50.5 17t47.5 -34q20 -39 14 -88v-18q0 -25 -2 -37q2 -25 2 -86q0 -92 -2 -129q0 -2 -1 -6.5t-1 -5.5q-3 -16 -3 -33.5t1.5 -38.5t1.5 -33v-18q3 -55 0 -113q0 -6 1 -19.5t1 -19.5v-22q0 -68 4 -166q0 -8 1 -24t1 -23q2 -41 2 -123h70l35 -2q17 0 27 -4q10 0 16 -6z M621 420v141q0 21 -5 109v20q0 2 -1 4.5t-1 3.5q-2 6 -2 19v31q0 2 -1 6t-1 6v16l4 207v18q2 6 2 17q0 3 -1 10t-1 10v21q0 53 2 80q2 6 2 18q0 9 -1 28t-1 29l-10 -14q-3 -9 -8 -14l-6 -12q-14 -29 -46 -89t-46 -90l-6 -12l-11 -16q0 -1 -3.5 -6t-4.5 -9q-9 -6 -12 -18 q-15 -27 -40.5 -84.5t-39.5 -85.5q-1 -2 -4.5 -8t-5.5 -8q-4 -4 -4 -7l-2 -2v-2l-7 -14q-4 -12 -8 -18q-29 -68 -55 -107q-6 -10 -13.5 -31t-13.5 -30l-8 -17q-32 -78 -53 -110q15 -1 44.5 4.5t45.5 3.5h180q5 0 16 1t15 1h88q3 0 8.5 -1t14.5 1zM369 741l-2 -2q2 0 2 2z " />
<glyph unicode="5" horiz-adv-x="960" d="M838 475q-1 -20 -11 -123q0 -12 -2 -18l-6 -55l-6 -19q-22 -69 -63 -125q-5 -10 -15 -20q-67 -89 -172 -117l-18 -6q-24 -8 -76 -13.5t-76 -3.5q-159 18 -250 193l-10 20q-12 21 -18 45l-4 13q-13 44 -2 82l6 16q2 6 10 14q19 18 46 15.5t42 -23.5q8 -11 18 -59l5 -25 l-3 4q3 -10 9 -20q6 -18 8 -21q2 -6 10 -18l10 -16q27 -45 69.5 -74.5t90.5 -26.5h19q70 2 157 60q8 4 12 8l11 8l14 16q20 28 33 70l4 18q0 1 3 14.5t3 20.5q0 4 1 12.5t1 12.5l4 28v15l6 49q0 3 1 8.5t1 7.5q-2 0 -1 27l1 27v16q0 39 -10 68q-4 12 -4 16l-4 16l-4 17 q0 4 -4 16q-14 52 -54 92.5t-90 46.5h-16q-12 0 -35 -2t-35 -2q-3 0 -10 -1t-10 -1q-4 0 -8 -1l-4 -1l-54 -18l-18 -8q-69 -38 -96 -43q-6 -2 -17 -2q-36 -7 -54.5 23.5t-14.5 68.5v18q2 4 2 16v29q0 130 2 191v43q-2 30 -2.5 86.5t-1.5 74.5v39l4 25v49q-3 35 24 55.5 t62 20.5h41q18 2 55 2q12 0 18 -2q15 0 92.5 -2.5t92.5 0.5q6 2 16 2q6 2 19 2q22 1 89 1.5t105 2.5q13 0 21 -2q32 -4 49 -29q14 -20 11 -42.5t-23 -39.5q-20 -18 -66 -14q-10 0 -16 2h-220q-10 0 -14 -2q-18 -2 -64 -0.5t-65 0.5h-18q-6 0 -18.5 -1t-18.5 -1h-10 q-20 -4 -41 -4q-5 -22 0 -51v-43q0 -2 1 -7.5t1 -7.5v-6q-2 -27 -2 -98v-17q-10 -129 2 -221v-16l10 6l57 29l33 6l23 4q20 0 61 3t61 3h19q3 0 9 -1t9 -1l17 -6q36 -8 96 -43l16 -12q8 -3 35 -25l10 -8l17 -21q2 -2 5.5 -8t4.5 -8q16 -24 25.5 -52.5t19 -69.5t14.5 -58 q0 -7 4 -19q0 -3 1.5 -8.5t1.5 -7.5l4 -18v-60zM633 166v2l-4 -6q4 0 4 4z" />
<glyph unicode="6" horiz-adv-x="925" d="M821 461q7 -140 -20 -240l-4 -6l-21 -45q-24 -49 -71.5 -92t-104.5 -66h-2q-3 -6 -12 -6q-70 -20 -107 -20q-86 0 -110 8q-72 16 -111 37q-29 19 -57 47.5t-43 54.5q-38 77 -47 168q-2 16 -2 55v21q0 2 -1.5 5t-1.5 5v43q-4 54 -4 90v82q0 3 1 9.5t1 9.5q2 23 2 63v274 q0 48 9 95q0 1 1 6t1 8q0 1 1 2.5t1 3.5q0 23 2 31q0 2 1 8t1 8l8 29v8q8 48 25 90q0 1 0.5 1.5t2 3t3.5 5.5q22 76 88 119q7 7 16 10q15 5 51 23l17 8q35 14 76 17l-2 2q16 -1 45 1.5t39 2.5h18q47 2 139 -35q10 -5 13 -8l16 -13q82 -63 104 -157l2 -23q7 -24 7 -71 q0 -88 -37 -95q-25 -4 -39 2q-3 0 -17 7q-7 4 -12.5 11t-8 12t-4 15.5t-1.5 14.5v17.5v15.5q0 89 -51 143l-17 12q-27 17 -59 17l-25 6q-72 -4 -114 -8l2 2q-55 -12 -76 -27l-15 -12q-43 -40 -55 -97q-2 -2 -2 -6l-6 -28l-8 -31q0 -2 -1 -7t-1 -7v-19q0 -3 -1 -9t-1 -9 q-13 -89 -13 -129v-80q0 -6 1 -18.5t1 -18.5v-109q22 17 33 23q1 1 15 8q6 4 18 8l12 6l15 5q14 4 42 10t42 10q10 0 16 2q41 6 82 6h18q38 -3 76 -12l21 -6l51 -23l16 -10q66 -36 82 -78l-2 2q16 -33 39 -100l6 -21q4 -13 8 -43v-24zM698 434v27q0 10 -2 16q-2 17 -8.5 34 t-19 35.5t-20 28.5t-25.5 31t-23 27l-16 10q-18 9 -39 12q-4 2 -15 2q-6 2 -18 2h2h-18q-19 -2 -72 -10q-6 0 -18 -4q-24 -5 -56 -16l2 2q-51 -22 -86.5 -58t-38.5 -84v-16q1 -13 2 -40t2 -36q0 -84 11 -143q5 -33 26 -64q3 -6 7 -11.5t7 -9.5t9 -8.5t9.5 -7t11.5 -7 t11.5 -6t14 -6.5t14.5 -7l13 -6h-3q50 -12 113 -12q121 0 174 94l8 10l2 6q5 8 17 49q0 14 8 27q10 67 14 139z" />
<glyph unicode="7" horiz-adv-x="847" d="M782 1341v-8h-2l-2 -2l-6 -14q-16 -47 -20 -68q-4 -8 -4 -16q-24 -95 -33 -115q-4 -12 -4 -20q-4 -11 -6.5 -24t-5.5 -29t-5 -25l-6 -19l-4 -14l-4 -12q-47 -149 -53 -174q0 -5 -4 -21q-5 -10 -5 -14l-4 -14q-9 -25 -23.5 -78.5t-23.5 -79.5l-6 -16q-28 -83 -33 -103 q0 -4 -4 -20q-31 -86 -49 -152q-12 -36 -14 -39l-6 -18q-23 -62 -27 -101l-6 -14l-6 -16l-4 -15q-10 -18 -17 -45l-8 -16q-28 -54 -84 -45q-16 4 -22 10q-14 14 -15 16q-15 35 4 64q8 18 31 80l6 18q16 64 35 113q4 12 8 18q12 26 29.5 80.5t28.5 81.5q4 12 4 19 q4 15 11 41.5t13.5 49t12.5 42.5l6 18q21 85 43 143q0 3 4 15l6 20l55 187q5 16 8 20l7 19q24 81 28 127l4 18q10 55 25 94q0 7 4 19l6 18q-1 0 -3 -1t-3 -1h-18q-100 -11 -175 -8h-14q-4 0 -13 1t-13 1h-15q-16 1 -74.5 -0.5t-74.5 2.5q-4 0 -11 -1t-10 -1q-21 0 -31 -2 v-19q-3 -21 -1.5 -74t-4.5 -75q-8 -24 -22 -31q-19 -12 -43 -11.5t-37 17.5q-17 23 -19 52.5t2.5 66.5t2.5 57v80q0 3 1 8.5t1 8.5l6 14q18 21 49.5 27.5t59.5 3.5t59 2h22q1 -3 66.5 -1.5t66.5 1.5q11 0 15 -2q2 0 7 -1t7 -1q8 0 12 -2h17q19 1 80 1.5t94 2.5h18q6 2 21 2 q41 0 49 -2h4q21 0 37 -13q24 -21 24 -49v-2q4 -18 -2 -35zM272 86l-2 -2q2 0 2 2z" />
<glyph unicode="8" horiz-adv-x="950" d="M848 410v-15q0 -4 -1 -10.5t-1 -9.5q0 -4 -1 -11t-1 -10t-1 -7.5t-1 -6.5q-6 -54 -12.5 -86t-26.5 -72.5t-53 -66.5q-4 -7 -11 -11q-8 -10 -32 -30l-15 -15l-20 -12h2l-29 -16q-57 -36 -96 -41l4 2q-29 -8 -59 -8h-9q-165 0 -243 61l-19 16q-29 37 -37 50l-10 12l2 -4 q-39 51 -53 104l-6 21q-1 3 -3.5 10t-2.5 10l-7 21q-2 10 -3 20.5t0 22.5t1.5 19.5t3.5 22t4.5 20t5.5 22t5 20.5l4 21q1 4 6.5 17.5t7.5 21.5l9 18l18 33l10 16q34 59 137 115l15 8l14 10l18 10l-16 11l-45 28l-14 11q-5 5 -60 49l-14 12q-74 74 -94 191q-2 4 -2 12l-4 39 v18q0 15 2 21v18q0 24 8 74l4 20q4 14 8 21v-2q1 8 8 21.5t9 19.5l12 18q8 16 22 37l9 12q52 64 122 90l21 9q46 13 82 16h14q8 0 38.5 -0.5t43.5 -1.5t37 -3.5t42.5 -8t35.5 -13.5q12 -8 18 -10q84 -48 117 -113l18 -38l13 -39v2q6 -12 6 -13l6 -10q12 -32 12 -51h-2 q5 -11 6 -33t2 -29v-49q-2 -6 -2 -18q-2 -24 -14 -64q0 -4 -4 -16q0 -3 -1 -9.5t-1 -10.5q-26 -56 -51 -94.5t-62 -63.5q-12 -8 -20 -10q-14 -13 -54 -39q4 -3 17 -8q4 -4 14 -9q93 -60 152 -133l10 -18q34 -70 37 -135zM696 250l6 18q13 54 13 76v37q-4 32 -4 51 q-4 8 -4 17l-15 34l-6 13q-26 46 -82 88q-2 1 -16 10q-14 5 -19 8l-14 6l-16 6l-37 17l-15 6q-18 -10 -50.5 -22.5t-58.5 -26.5t-44 -35l-15 -12q-28 -32 -43 -60l-16 -32q-5 -14 -8 -19q-35 -65 -6 -164l6 -18q13 -40 20 -55l43 -54l9 -4q48 -39 184 -39q34 3 80 39 q6 2 12 6q21 10 45 37q15 15 27 33l10 12q3 4 7 13.5t7 13.5zM346 862q44 -28 70 -49q9 -3 16 -10q6 -3 23.5 -12.5t27.5 -14.5q40 21 66 39q4 1 8.5 4t5.5 4l12 8q9 7 32.5 24.5t36 28t26.5 29t20 37.5q4 12 4 15q13 54 13 73q2 6 2 19q-6 17 -9 37q0 14 -2 20q0 10 -2 21 t-5.5 24t-4.5 19l-4 14q-1 9 -12 35q-26 61 -82 82q-5 3 -19 8q-74 16 -108 16q-13 0 -19 -2h-18l-21 -4q-32 0 -77 -35q-1 -1 -7 -5.5t-8 -8.5q-38 -38 -47 -92l-4 -15q-5 -24 -8 -32q0 -9 -2 -13q0 -8 -4 -28q0 -3 -1 -10t-1 -11q0 -31 2 -47q0 -3 1 -8t1 -8l12 -39 q5 -14 8 -19l8 -18l13 -16q13 -24 41 -48z" />
<glyph unicode="9" horiz-adv-x="925" d="M104 979q-7 137 21 240l4 6l21 45q24 48 71.5 91t104.5 66h2q4 7 12 7q70 20 106 20q87 0 111 -8q10 -2 39 -10l18 -6q38 -9 86 -50q1 -1 7 -5.5t8 -8.5q49 -49 63 -80l6 -18q25 -65 31 -129q2 -16 2 -56v-20q0 -2 1 -5t1 -5v-43q4 -54 4 -90v-82q0 -3 -1 -9.5t-1 -9.5 q-2 -23 -2 -63v-275q0 -53 -8 -94q0 -1 -1 -6t-1 -8q0 -1 -1 -2.5t-1 -3.5q0 -23 -2 -31q0 -2 -1 -8.5t-1 -8.5l-8 -28v-8q-8 -48 -25 -90q0 -1 -0.5 -2t-2 -3.5t-3.5 -5.5q-28 -76 -148 -147l-14 -6q-11 -5 -47 -19q-8 0 -12 -2q-4 0 -13.5 -1t-13.5 -1l2 -2 q-16 1 -45 -1.5t-39 -2.5h-18q-48 -2 -140 35q-8 4 -12 8l-16 12q-83 64 -105 158l-2 23q-4 12 -4 30q-2 6 -2 21q0 8 -1.5 23.5t-2 25.5t3 22t12.5 21q17 19 45 20t48 -16q8 -8 12 -29q2 -4 2 -14v-33q0 -89 51 -143l17 -12q60 -43 190 -31l-2 -2l18 4q41 14 105 78l10 16 q17 35 21 53q2 2 2 6l6 29l8 31q0 2 1 7t1 7v19q0 3 1 9t1 9q12 82 12 129v80q0 6 -1 18.5t-1 18.5v108q-20 -16 -32 -22q-1 -1 -15 -8q-9 -6 -18 -9l-13 -6l-14 -4q-14 -4 -42 -10t-42 -10q-10 0 -16 -2q-41 -6 -82 -6h-19q-36 3 -75 12l-21 6q-12 6 -26 10l-17 8 q-26 15 -41 25.5t-32.5 29.5t-24.5 40l2 -2q-4 4 -7 9.5t-6.5 12.5t-5.5 10l-6 17q-15 29 -22 49l-6 20q-6 17 -9 43v25zM227 1006v-27q0 -10 2 -16q3 -25 9 -41l6 -21q5 -12 11.5 -23t18 -26.5t15.5 -20.5l16 -12q18 -15 37 -20q15 -10 18 -11q12 -4 21 -4q4 -2 14 -2 l23 -4q-1 0 -3 1t-3 1h18q6 1 72 11q6 0 18 4q21 5 55 16l-2 -2q120 51 125 141v17q-1 12 -2 39t-2 36q0 62 -4 93q0 12 -2 16q-6 48 -37.5 91t-75.5 69l-14 8h2q-4 2 -14 2l-19 4q-40 6 -79 6q-122 0 -175 -94l-8 -10l-2 -6q-3 -5 -16 -50q0 -13 -8 -26q-12 -76 -15 -139z " />
<glyph unicode=":" horiz-adv-x="360" d="M145 -16l-8 4q-36 17 -49 58.5t6 76.5l6 12q21 21 35 27q6 6 15 6q8 4 12 4q16 4 20 4q9 0 21 -4q11 0 20 -6l15 -6q12 -6 14 -8q24 -15 24 -46q9 -92 -40 -112l-17 -6q-33 -11 -74 -4zM145 586l-8 4q-36 17 -49 58.5t6 76.5l6 12q21 21 35 27q6 6 15 6q8 4 12 4 q16 4 20 4q9 0 21 -4q11 0 20 -6l15 -6q12 -6 14 -8q24 -15 24 -45q9 -93 -40 -113l-17 -6q-33 -11 -74 -4z" />
<glyph unicode=";" horiz-adv-x="374" d="M291 63q0 -2 1 -7.5t1 -8.5v-20q-2 -8 -2 -23q-2 -8 -2 -22q-20 -106 -47 -185l-9 -16q-11 -21 -20 -33h2q-4 -8 -8 -12q-18 -14 -39.5 -9t-32.5 23q-4 17 -3.5 23t7 22.5t8.5 22.5l7 16q18 67 18 70t1 8t1 8l4 14q3 24 -2 43q-2 3 -12 3q-4 2 -17 2l-12 4l-24 12l-13 12 l-8 17q-11 32 -2.5 68t35.5 57q7 7 16 10q37 21 86 4q14 -4 17 -8q42 -27 49 -95zM154 586l-9 4q-36 17 -49 58.5t6 76.5l7 12q22 22 34 27q6 6 15 6q8 4 12 4q16 4 20 4q9 0 21 -4q11 0 20 -6l15 -6q12 -6 14 -8q25 -16 25 -45q9 -93 -41 -113l-17 -6q-33 -10 -73 -4z" />
<glyph unicode="&#x3c;" horiz-adv-x="843" d="M748 215q0 -12 2 -22v-21l-13 -20q-21 -31 -53 -31q-14 0 -19 1t-8 3.5t-8 3.5l-82 47l-41 21q-16 8 -34 18l-23 12q-15 8 -44 22.5t-44 22.5q-3 1 -5.5 2.5t-5.5 4.5t-5 4q-114 69 -119 73h2l-21 13l-22 12q-4 4 -12 8q-9 6 -31.5 20t-35 23t-25.5 25t-17 35q-2 6 -2 18 q5 41 20 51q49 31 115 86l16 12l27 19l74 43l59 37l25 18q19 13 39 25q6 6 18 14q8 7 26 14t25 11q20 11 55 38.5t54 39.5q4 4 12 8q15 8 25 10q10 10 33 10h14l16 -12l10 -10q17 -17 17 -41q0 -41 -49 -66h-8q-39 -28 -78 -53l-23 -14q-10 -3 -24 -17l-19 -12l-14 -6h2 l-80 -51h2l-72 -52l-43 -24l-30 -21l2 2l-56 -32v2q-10 -9 -20 -15q-3 -3 -10.5 -7t-10.5 -7q4 0 8 -4t5 -4l12 -6l33 -23h-2q6 -2 13.5 -7.5t10.5 -6.5q68 -40 121 -66h-2l31 -14l61 -35l15 -10l-5 2q46 -28 95 -49q22 -15 49 -29q8 -4 12 -8q13 -5 33 -18t27 -17zM217 502 l4 2z" />
<glyph unicode="=" horiz-adv-x="913" d="M104 293q0 8 2 16q-4 21 11 27q4 4 12 8q26 16 49 16l273 5q29 0 53 -3q7 0 25.5 -1t25.5 -1l23 5l36 2q1 0 5 -1t6 -1h20q3 -3 19 -3h14q63 9 86 7q3 0 9 -1t9 -1q29 -4 41.5 -28.5t3.5 -51.5q-12 -23 -26 -33q-18 -6 -21 -6q-9 -1 -25.5 -0.5t-30.5 -0.5t-26 -5h-28 q-31 0 -37 2h-47q-14 -2 -58 -2q-131 0 -213 -2q-8 0 -12 2h-45q-49 0 -80 -2q-31 0 -49 12q-4 2 -12 10q-9 8 -13 31zM782 782l17 -16q21 -12 21 -39t-19 -41q-3 -3 -13 -8q-24 -16 -61 -16h-20q-23 10 -144 4t-192 -2q-14 0 -54 -5q-5 0 -15 -1t-15 -1h-11l-36 2h-62 q-13 0 -16 3q-3 -3 -12 -3q-38 3 -62 37q-13 26 6 52l12 14q18 18 52 18h118l3 2q178 5 190 4q13 0 42 -2t46 -2q21 2 54.5 1.5t54.5 0.5q6 -2 18 -2h98z" />
<glyph unicode="&#x3e;" horiz-adv-x="802" d="M76 215q7 4 26.5 17t32.5 18q4 4 12 8l50 29q46 19 94 49l-4 -2l14 10l61 35l31 14h-2q53 26 121 66q3 1 11 6.5t14 7.5h-2l32 23q7 4 13 6q1 0 4.5 4t7.5 4q-3 3 -10.5 7t-10.5 7l-20 15v-2q-47 27 -55 32l2 -2l-31 21l-43 24l-72 52h2l-80 51h2l-14 6l-18 12 q-14 14 -25 17l-22 14q-40 25 -78 53h-8q-50 26 -50 66q0 24 17 41l10 10l16 12h15q23 0 33 -10q8 -2 24 -10q8 -4 12 -8q19 -12 54 -39.5t55 -38.5q7 -4 25 -11t26 -14q15 -10 19 -14l39 -25l24 -18l59 -37l74 -43q13 -9 27 -19l16 -12q66 -55 115 -86q15 -10 20 -51 q0 -12 -2 -18q-4 -19 -17 -35t-25 -25t-34.5 -23t-31.5 -20q-10 -5 -13 -8l-22 -12l-21 -13h3q-5 -4 -119 -73q-16 -11 -17 -11q-15 -8 -44.5 -22.5t-43.5 -22.5l-22 -12l-35 -18l-41 -21l-82 -47q-5 -1 -8 -3.5t-8 -3.5t-19 -1q-32 0 -53 31l-12 20v21zM606 502l-4 2 q2 -2 4 -2z" />
<glyph unicode="?" horiz-adv-x="884" d="M778 1182q2 -8 2.5 -23t1.5 -20v-33l-6 -53v-19l-6 -20l-4 -21q-3 -4 -8 -20q-21 -64 -64 -123q-4 -8 -8 -12l-8 -11q-10 -15 -35 -45q0 -1 -1 -2t-1 -2q-2 -2 -2 -4l-14 -16l-54 -78l-12 -14q-3 -6 -10 -13q-6 -8 -20.5 -21.5t-20.5 -21.5q-8 -11 -23.5 -35.5 t-25.5 -37.5q-17 -21 -19 -37l-4 -13q-4 -20 -4 -26q-4 -35 -4 -105q0 -25 -18 -43t-43 -18t-43.5 18t-18.5 43v58q0 12 2 20q10 114 66 193l12 12q50 63 59 76l15 20l12 15l10 14l43 61q7 11 29 37q3 8 10 15q17 24 39 61l10 16q19 53 25 103q2 6 2 20q8 118 -37 180 l-12 17q-4 4 -12 8q-12 10 -37 18l-21 7q-92 16 -139 8q-7 0 -19 -4q-20 -4 -53 -21l-16 -10q-68 -64 -68 -125v-41q0 -44 -24 -61q-22 -14 -46 -7.5t-38 27.5l-6 12q-9 20 -9 66v20q0 5 1 15.5t1 15.5l5 15q28 103 116 165l19 13q49 28 100 37q4 2 12 2q20 4 29 4h51 q98 7 166 -29q14 -5 19 -8q35 -17 67 -49q7 -5 14 -15l29 -32q2 -2 5.5 -8.5t4.5 -8.5l11 -14q3 -13 12 -39t12 -41q2 -4 2 -12zM438 98q0 -4 1 -12t1 -12l-4 -23q-2 -3 -5 -11t-5 -11q-12 -17 -29 -29q-13 -10 -37 -10q-14 -2 -38 10q-14 7 -21 16q-9 9 -16 27q-3 17 0 33 q2 2 2 4q3 16 16 33q8 8 12 10q11 11 21 16q22 11 37 11l18 -5q14 -5 29 -16q14 -10 18 -31z" />
<glyph unicode="@" horiz-adv-x="2007" d="M1903 836q2 -8 2 -33q0 -86 -29.5 -182.5t-73.5 -171.5l-12 -19q-13 -25 -68 -80h2q-38 -58 -102 -100l-16 -12l-31 -13l-14 -6l-76 -20h2q-41 -8 -117 8l-20 6q-58 16 -97 55q-5 3 -14 17q-11 11 -20 26l-7 15q-11 25 -20 98q-18 -23 -68 -55l-20 -13q-96 -53 -148 -59 q-4 -2 -14 -2q-14 -2 -47 -2h-16q-70 3 -103 33q-13 6 -26.5 16.5t-31 27.5t-22.5 21l-16 19l-16 26q-7 11 -7 15l-26 57q-22 52 -25 82v39q0 2 -1 5.5t-1 6.5v12q0 124 45 205l6 16l13 29q2 2 5 8.5t5 8.5q49 66 119 118l18 13q12 7 47 20l15 6q87 11 145 4l16 -4 q112 -9 189 -102q6 27 6 57q0 9 2 15q0 4 4 12q0 2 6 14l8 12q27 27 62 15q46 -16 37 -88q0 -15 -2 -21q0 -11 -3.5 -31.5t-3.5 -21.5l-8 -53v-13l-16 -147l-2 -25q-11 -21 -6 -100v-94q-3 -79 10 -109l10 -28q1 -1 7 -8.5t8 -8.5q9 -19 42.5 -30t59.5 -11h14q42 7 97 39 l16 12q34 30 51 54l10 12l-2 -2l31 41l16 25v-3q13 19 33 64q0 1 2 6t2 6l8 23q52 107 52 221q0 69 -20.5 161t-59.5 165q-2 6 -6 14q-1 1 -2 5.5t-2 6.5q-24 67 -80 117q-1 1 -7 5.5t-8 8.5q-2 3 -16 17l-29 26l-16 13q-50 38 -113 63l-18 8l-72 23q1 0 2 -1t2 -1 q-63 19 -119 22h-20q-14 0 -44 1t-47.5 1t-42.5 -3t-46 -9q-3 0 -8.5 -1t-8.5 -1q-27 -4 -77 -8l-103 -19q-6 -2 -20 -2v-2q-26 -7 -56 -19.5t-61 -27.5t-43 -20l-33 -17l-49 -35l-25 -26l-22 -27l-57 -78l-7 -6l-30 -55q-49 -64 -97 -170v2q-1 -3 -5 -9t-5 -9l2 2 q-1 -5 -5 -16.5t-5 -16.5l-10 -23q-42 -153 -51 -198q0 -3 -1 -9.5t-1 -9.5q-11 -72 -11 -116v-70q2 -8 2 -25q-8 -136 49 -207l7 -18q18 -41 28 -51v2q3 -8 13.5 -20.5t13.5 -18.5l12 -16q20 -27 39 -43l43 -48l19 -16l14 -12q95 -84 190 -103l17 -4l16 -4l23 -6 q64 -22 141 -25h66q21 2 62.5 3.5t61.5 3.5q13 0 19 2q13 -1 42 2t48.5 3.5t38 -10.5t24.5 -36v-15q0 -34 -32 -45l-13 -6q-15 -6 -30 -6h-25q-25 -6 -73.5 -6.5t-61.5 -1.5q-3 0 -9 -1t-9 -1q-9 0 -28 -1t-28 -1q-3 0 -9 -1t-9 -1h-49q-17 3 -67 9t-83.5 13.5t-64.5 20.5h2 l-19 6l-31 8l-14 6q-62 22 -112 58l-17 10l-29 24l-14 13l-29 26h-4l-51 58h2l-61 61q-1 0 -3.5 3t-2.5 5q-7 5 -13 19q-12 16 -24 36t-19.5 35t-19 40.5t-17.5 37.5l-8 19l-4 14q-12 45 -18 86v-2q0 3 -2 8.5t-2 7.5l-2 19q-2 3 -2 16v8q-5 40 -5 58v67q-3 79 15 162 q2 17 6 37q4 12 4 20q10 55 47 160q0 5 4 21l4 20q5 11 11 23l30 63q2 4 6 16q32 73 56 103q6 8 14 20l14 21q4 4 14 16.5t17 18.5l-2 -2q21 22 52 69.5t48 67.5l15 12q40 37 94 68q48 27 68 43v-2q24 19 69 30h-2l47 19l21 6q62 20 131 27l33 4h14l33 6l18 4q84 13 229 -2 h21q84 -6 170 -31l22 -6q71 -23 125 -55l21 -13q40 -22 94 -69q14 -14 16 -17q81 -78 115 -163v2l10 -21l31 -88q3 -9 15 -35t14 -33l6 -26l-2 2q21 -57 26 -129v-21q0 -1 1.5 -3t1.5 -3v-8q0 -4 1 -10.5t1 -9.5zM1206 774q0 6 1 14t1 11q0 12 -2 18q-59 102 -145 133l-19 6 l-20 5l-16 4q-55 4 -82 -2l-17 -7q-58 -21 -112 -88l-13 -18l-10 -19q-2 -2 -5.5 -8t-4.5 -8q-14 -27 -19 -49q-4 -12 -4 -18q-2 -5 -3 -17t-3 -18v-17q0 -3 -1 -9t-1 -9v-57q0 -2 -1 -6.5t-1 -6.5v-10q0 -16 21 -66v3q30 -50 60 -81t69 -38q6 -2 20 -2q58 0 119 22h-4 q37 21 69 43l17 13q40 25 80 65q8 12 10 18q4 112 10 166v17q5 15 6 16z" />
<glyph unicode="A" horiz-adv-x="1015" d="M907 188q5 -24 15 -53q0 -6 4 -18q2 -7 13.5 -37t12.5 -47q1 -25 -23 -36t-52 -7q-5 0 -17 4l-14 6q-22 13 -37 61q0 7 -4 19l-25 88l-6 22l-4 23q-6 31 -24 87.5t-21 68.5l-2 8h-6q-71 0 -213 2t-213 2q-44 -139 -47 -156l-4 -22q-8 -52 -31 -115l-6 -20q-3 -17 -13 -33 q-4 -14 -8 -17q-2 -6 -10 -14q-2 -2 -14 -8q-16 -4 -23 -4h-22q-46 10 -50 35q-5 45 19 98q4 12 8 18l6 17l6 18q0 3 1 9.5t1 9.5q23 58 52 186l6 18l6 17l8 18l6 17q1 5 11 41q0 6 4 14l12 53l8 27l8 28l8 31l7 27q17 46 30 104l17 62l18 55l8 33l4 18l7 19l4 16l16 53 l4 17q20 63 23 75q0 9 4 21q3 23 10 53l6 17q5 17 24.5 72t26.5 85l7 23q7 30 28.5 50.5t46.5 8.5q7 -3 12.5 -8.5t10 -14t7 -14t6 -17.5t5.5 -16l6 -20q17 -33 32.5 -98t21.5 -82q5 -14 8 -19q4 -12 4 -18l35 -121l6 -20q3 -18 10 -39l12 -41l7 -33l18 -55l16 -62 q1 -4 5 -16.5t6 -18.5q0 -6 4 -18q6 -17 18 -65t23 -72q0 -9 2 -15l4 -12l14 -53l4 -14q0 -9 2 -15q0 -2 1 -6t1 -6q6 -30 26 -83.5t26 -76.5l4 -18l20 -84zM348 592l-20 -88q242 -4 360 -4l-6 22q0 9 -2 13q0 3 -1 8.5t-1 7.5l-6 16l-13 31l5 -4q-22 30 -35 99t-15 77 q0 6 -4 18l-24 82l-13 45q-2 11 -6 21q-9 35 -14 49q-4 12 -4 16q-27 72 -35 134q-4 12 -4 18l-4 21q0 -3 -1 -9.5t-1 -9.5t-1 -8.5t-1 -7.5q-3 -25 -10 -49q-5 -15 -9 -21q-1 -3 -10.5 -36t-13.5 -50l-2 2l-13 -53l-6 -17q-2 -10 -4 -22l-6 -23q-20 -54 -49 -174l-8 -28 l-4 -21q-2 -7 -21 -59zM63 29q1 1 3 3.5t2 4.5z" />
<glyph unicode="B" horiz-adv-x="1007" d="M899 461q6 -21 6 -64q0 -47 -6 -84q0 -3 -1 -7.5t-1 -6.5q-4 -14 -14 -63l-6 -23q-3 -14 -9 -25q-4 -8 -8 -10q-5 -16 -26 -49l-13 -14q-18 -23 -26 -29q-61 -36 -76 -47q-9 -6 -43 -16q-2 0 -7 -1.5t-7 -1.5l-76 -16q-13 0 -19 -2l-102 -6h-25q-75 0 -104 -2h-64 q-11 1 -29.5 -1t-34 -1.5t-28.5 8.5q-25 16 -30.5 42t-1 66t3.5 54v84q0 146 -5 231q-2 53 -2 180v105q0 117 2 176v23q-2 29 -2 88v57q0 1 1 3t1 3v10q0 3 -0.5 11.5t-1 25.5t-0.5 39q0 19 2 33q0 9 3 18v21q-3 9 -3 20q-1 27 -2.5 56t11.5 54.5t41 31.5q10 0 16 2h82 q12 0 22 2h86q84 0 111 -2q2 -2 4 -2h12q13 -2 44 -6t53.5 -8.5t42.5 -12.5l12 -4q32 -14 57 -39q6 -3 13 -10q76 -76 94 -138l6 -18q13 -52 16 -96q0 -2 1 -7.5t1 -7.5l2 -4q8 -57 -10 -137q0 -6 -4 -18q-6 -35 -20 -68q0 -4 -4 -12q-4 -12 -11.5 -24t-12 -19.5t-17 -20.5 t-16 -16.5t-19.5 -18.5t-17 -16l-16 -14q48 -14 87.5 -54.5t61.5 -91.5v2q9 -28 11 -38l4 -15l6 -18v-10q0 -5 2 -7q0 -10 2 -12v-12zM764 283q20 79 12 143q0 8 -2 14q-5 31 -8 41l-6 19q-2 6 -6.5 19t-9 22.5t-9.5 17.5l2 -2q-14 31 -35 47l-14 12q-9 3 -18 9l-17 6 q-31 16 -84 16q-7 0 -21 -1t-20 -1q-21 -1 -63 0t-64 0h-129v-76q0 -86 2 -129q2 -63 2 -217v-102h148q94 0 141 8q3 0 10.5 1t10.5 1q12 4 16 4l21 6q49 13 86.5 44.5t48.5 76.5zM274 1225v-453h127q123 0 148 2l41 6l16 6q23 9 31 17q3 1 8 4t6 4q49 36 64 92q4 12 4 15 q4 8 4 12q4 8 4 14q9 24 12 49q9 35 9 68q0 3 -5 33l-6 18q0 6 -4 18q0 9 -4 17l-6 18l-6 17q-15 36 -55 71l-15 13q-3 2 -8 7t-10.5 9t-10.5 6l3 -2q-25 15 -77 16.5t-65 4.5q-14 0 -22 2q-53 2 -144 2l-37 -4v-19q-2 -25 -2 -63z" />
<glyph unicode="C" horiz-adv-x="964" d="M805 444l18 -4q31 -12 37 -49q0 -2 1 -7t1 -7q-4 -19 -5 -37t0 -47.5t1 -36.5l-4 -18q-4 -32 -18 -64v2l-11 -18l-24 -37q-57 -65 -103 -82h2q-9 -7 -28.5 -14t-26.5 -11l-14 -4q-23 -10 -43 -10l-27 -8q-32 -4 -63 -4h-25q-74 6 -164 39l-18 8q-83 36 -150 135l-6 16 q-3 4 -8 17l-6 16q-5 17 -10 57q0 13 -2 19q0 7 -5 37q-2 8 -2 22q0 4 1 12.5t1 12.5v22q-2 39 -2 142q0 55 4 84q-2 8 -2 26v25q0 22 -1 81.5t-1 76.5l2 24q0 52 1 106t1 60q3 12 3 16q4 20 5.5 61t6.5 62q4 12 4 17q20 55 33 98l10 18q42 53 65 76l17 12q72 43 147 58 q13 0 21 2q64 6 123 6q69 0 134.5 -30.5t108.5 -75.5l17 -23q26 -36 37 -75.5t18 -102.5v-58q-1 -22 -5 -36t-21 -27.5t-48 -13.5q-16 0 -26.5 6t-16.5 19t-7.5 18.5t-4.5 19.5q0 2 -1 6.5t-1 5.5v29q-4 86 -29 129t-80 70l2 -2q-47 14 -81 14q-10 0 -68 -4q-3 0 -10 -1 t-10 -1q-76 -12 -117 -35l-15 -10q-32 -22 -41 -60v11q-3 -13 -12.5 -42.5t-15 -52t-6.5 -43.5q0 -12 -2 -18q-2 -25 -2 -74v-14q0 -8 -2.5 -22.5t-2.5 -20.5v-92q-2 -29 -2 -84v-21q-5 -22 -2.5 -78.5t0.5 -78.5q0 -17 -2 -23v-51q0 -10 -0.5 -28t-0.5 -29t1 -26.5t4 -29.5 v-14q0 -10 -2 -16q0 -11 2 -17v-16l11 -47l2 -8l4 -13q1 -9 4 -18.5t8.5 -20t8.5 -16t11.5 -19t10.5 -16.5v2q10 -12 26 -22l17 -9q22 -11 59 -22l21 -6q32 -13 78 -13q8 0 38 5q33 4 95 28v-2q41 14 71 56l13 22v-2q16 20 19.5 46t1 60.5t-0.5 51.5l6 20q5 14 8 19 q3 10 9 16q16 22 53 18zM242 287q2 0 2 -2z" />
<glyph unicode="D" horiz-adv-x="1007" d="M905 641v-143v-21q-1 -15 -1 -31.5t0.5 -37t0.5 -31.5v-19q-12 -81 -39 -161l-10 -19q-18 -33 -31.5 -54t-37 -45.5t-50.5 -39.5l-18 -8q-34 -18 -76 -27l-18 -4q-4 0 -11 -1t-10 -1q-14 -2 -55 -2q-1 0 -4 -1t-6 -1h-39q-82 0 -156 4h-92q-8 -4 -23 -4h-30 q-25 -3 -43 22q-18 30 -4 74l12 14v21q0 5 -3 45t-3 61v68q0 88 2 133v29q0 1 1 6t1 10v94q0 1 -1 6t-1 9v47q0 94 2 147v289q0 82 2 125q0 8 1 29.5t1 33.5v19q2 16 2 57q-12 12 -12 35q0 26 17.5 44t43.5 18h2q11 8 29 8q8 0 14 -2q28 4 47 4h21q51 4 159 -2q1 0 3.5 -1 t3.5 -1q40 -4 55 -4q14 0 20 -2h21q9 0 18 -3q2 0 8 -1t9 -1q8 -3 45.5 -15.5t56.5 -20.5l19 -11q20 -10 53 -39l16 -16q28 -40 31 -45l8 -16q27 -47 35 -154v-25q4 -20 5.5 -44.5t1.5 -41.5t-0.5 -47t-0.5 -43v-18q2 -35 4 -103.5t4 -103.5v-41zM778 547q-2 37 -2 108v21 q-2 6 -2 18q-1 32 -5 96t-5 95v20q0 8 1 67.5t-5 65.5v21q-1 8 -3 36.5t-4 41.5t-6 35t-12 38t-20 31l-10 10q-2 5 -11 9q-2 2 -8 5.5t-8 4.5l-16 4q-4 2 -15 2q-31 16 -98 24q-9 3 -21 3q-1 0 -6 1t-6 1q-4 2 -35 2q-40 6 -106 6q-51 0 -80 -4v-195q0 -25 -1 -71.5 t-1 -69.5q-4 -192 -4 -291v-309q-2 -35 -2 -92q0 -60 2 -95v-55q7 0 21 -1t20 -1v-2h28q58 -4 117 -4h21q25 2 73 2h37l19 4q16 4 24 8q9 2 23 13q20 11 47 38v-2q26 44 53 136q-2 -2 -2 -5q0 9 4 17q1 3 1 8.5t1 7.5v17q-1 17 0.5 45t1.5 37v98z" />
<glyph unicode="E" horiz-adv-x="997" d="M754 1440h63q30 0 51 -13l-2 3q29 -18 29 -62q-4 -19 -10.5 -30.5t-17.5 -16t-19 -5.5t-25 -1h-67q-44 0 -60 2h2q-26 1 -75 -0.5t-60 -1.5h-33q-13 0 -18 2q-3 0 -10 1t-10 1q-16 2 -54 2h-37q-2 0 -7.5 1t-8.5 1h-39q-1 0 -4 1t-4 1h-37q-8 -2 -27 -2q-2 -35 -2 -106 q0 -50 4 -152v-64q0 -8 1.5 -22t1.5 -21q4 -39 0 -71v-88l200 -6h10q29 -2 90 0t91 0h8q48 0 65 -33q15 -36 -2 -68q-6 -9 -12 -12q-23 -17 -55 -14l-19 4q-55 -2 -161 -2h-109q-3 0 -9 1t-9 1q-54 0 -72 2h-12v-41q0 -3 -1 -7t-1 -6v-30q0 -1 -1 -6.5t-1 -6.5 q-3 -15 -3 -30v-37q0 -2 1.5 -6t1.5 -6q-3 -52 -3 -101q0 -5 -1 -15t-1 -15v-72q0 -19 2 -23v-88v-55h93q23 1 102 -0.5t102 2.5q8 -2 23 -2q44 0 90 -6h23q16 -1 33.5 -1t40 0.5t34.5 0.5q2 0 6 -1t6 -1q22 -6 43 -27q11 -28 11 -41q-9 -33 -43 -47q-12 -4 -19 -4 q-12 -4 -39 -4q-3 0 -10 3t-10 3q-18 -6 -63.5 -1t-63.5 3h-17q-24 0 -36 -2h-19q-37 -2 -114 2h-82q-18 -4 -68 -4h-33q-1 0 -3 -1t-3 -1h-24q-15 0 -23 2q-8 0 -16 4q-24 9 -35 31t-11.5 41.5t1 51t0.5 44.5v53q-10 66 2 197v18l-4 90v21q-4 145 2 219v14q-2 0 -1 20l1 21 v39q3 85 -5 197q-4 90 -4 149q0 70 2 95v53q0 2 2 2q-5 58 33 76.5t96 9.5h3q10 2 34 2h52q82 -4 116 -4q24 0 71 1.5t81 1t67 -4.5q16 -2 54 -2z" />
<glyph unicode="F" horiz-adv-x="997" d="M866 1430q29 -18 29 -62q-4 -19 -10.5 -30.5t-17.5 -16t-19 -5.5t-25 -1h-67q-44 0 -60 2h2q-26 1 -75 -0.5t-60 -1.5h-33q-13 0 -18 2q-3 0 -10 1t-10 1q-16 2 -54 2h-37q-2 0 -7.5 1t-8.5 1h-39q-1 0 -4 1t-4 1h-37q-8 -2 -27 -2q-2 -35 -2 -106q0 -50 4 -152v-64 q0 -8 1.5 -22t1.5 -21q4 -39 0 -71v-88l200 -6h10q29 -2 90 0t91 0h8q48 0 65 -33q15 -36 -2 -68q-6 -9 -12 -12q-23 -17 -55 -14l-19 4q-55 -2 -161 -2h-109q-3 0 -9 1t-9 1q-54 0 -72 2h-12v-41q0 -3 -1 -7t-1 -6v-30q0 -1 -1 -6.5t-1 -6.5q-3 -15 -3 -30v-37q0 -2 1.5 -6 t1.5 -6q-3 -52 -3 -101q0 -5 -1 -15t-1 -15v-72q0 -19 2 -23v-43q-2 -6 -2 -20v-33q0 -88 -10 -131l-6 -18q-2 -9 -12 -19q-6 -6 -17 -10q-22 -9 -45 0t-32 29t-9 57q0 12 2 18q0 20 2.5 59t2.5 58q0 11 -3 23q0 29 -2 45v18q0 31 9 119v18l-4 90v21q-4 145 2 219v14 q-2 0 -1 20l1 21v39q3 85 -5 197q-4 90 -4 149q0 70 2 95v53q0 2 2 2q-5 58 33 76.5t96 9.5h3q10 2 34 2h52q82 -4 116 -4q24 0 71 1.5t81 1t67 -4.5q16 -2 54 -2h63q30 0 51 -13z" />
<glyph unicode="G" horiz-adv-x="976" d="M872 68q5 -21 -2.5 -40t-25.5 -28q-6 -6 -15 -6q-20 -7 -38 0q-6 3 -13 10q-8 8 -10 14q-7 12 -9.5 26t-3 32.5t-1.5 27.5q-30 -34 -52 -45h3q-24 -17 -43 -28l-15 -11q-70 -32 -174 -32q-3 0 -9 1t-9 1l-35 6q-7 0 -19 4q-55 9 -114 37l-15 6q-65 37 -108 94 q-9 13 -10 17l-13 16l-6 16q-3 4 -8 17l-6 16q-5 17 -10 57q0 13 -2 19q0 7 -5 37q-2 8 -2 22q0 4 1 12.5t1 12.5v22q-2 39 -2 142q0 55 4 84q-2 8 -2 26v25q0 22 -1 81.5t-1 76.5l2 24q0 52 1 106t1 60q3 12 3 16q4 20 5.5 61t6.5 62q4 12 4 17q20 55 33 98l10 18 q42 53 65 76l17 12q72 43 147 58q13 0 21 2q64 6 123 6q69 0 134.5 -30.5t108.5 -75.5l17 -23q26 -36 37 -75.5t18 -102.5v-58q-1 -22 -5 -36t-21 -27.5t-48 -13.5q-16 0 -26.5 6t-16.5 19t-7.5 18.5t-4.5 19.5q0 2 -1 6.5t-1 5.5v29q-4 86 -29 129t-80 70l2 -2 q-47 14 -81 14q-10 0 -68 -4q-3 0 -10 -1t-10 -1q-76 -12 -117 -35l-15 -10q-32 -22 -41 -60v11q-3 -13 -12.5 -42.5t-15 -52t-6.5 -43.5q0 -12 -2 -18q-2 -25 -2 -74v-14q0 -8 -2.5 -22.5t-2.5 -20.5v-92q-2 -29 -2 -84v-21q-5 -22 -2.5 -78.5t0.5 -78.5q0 -17 -2 -23v-51 q0 -10 -0.5 -28t-0.5 -29t1 -26.5t4 -29.5v-14q0 -10 -2 -16q0 -11 2 -17v-16l11 -47l2 -8l4 -13q0 -4 4 -16q4 -17 19.5 -46.5t17.5 -33.5v4q7 -10 18.5 -17.5t18 -11t24 -10.5t21.5 -8q12 -4 18 -4q30 -10 76 -17h18q59 0 125 27l17 6v-2q69 37 84 78v-2q9 13 10 18l6 15 l4 22v39q0 3 1 9.5t1 9.5l8 96v20q3 10 0 19q2 6 2 20q4 90 4 135q-3 0 -9 1t-9 1h-18q-21 3 -43 3h-15q-7 1 -82 -5h-16q-16 -3 -29 0q-3 0 -7.5 1t-6.5 1q-27 3 -43.5 27t-9.5 51q10 32 43 39l20 4q32 3 92.5 -1t85.5 -3h17q20 4 33 4h14l45 -4q27 -2 44 -18.5t17 -42.5 v-8q0 -133 -4 -199q-2 -8 -2 -23q-4 -110 -8 -165v-64q1 -14 1.5 -42t3 -50t9.5 -41zM244 285l-2 2q2 0 2 -2z" />
<glyph unicode="H" horiz-adv-x="1112" d="M145 999v103q0 39 2 51q0 6 1.5 21.5t1.5 21.5q4 73 0 107q2 39 2 57v10q-7 31 13 54.5t52 23.5q35 0 53 -41q0 -3 1 -7.5t1 -6.5q2 -8 2 -41q0 -24 -2 -27q0 -29 2 -33v-55q-8 -109 -8 -283v-151v-27h15q56 0 196 4h195q76 6 159 6v37l3 97v8q0 1 -1.5 3t-1.5 3v10 q3 40 3 70v12q0 2 1 7t1 9v19q3 50 0 94q0 6 -1 21t-1 22v186q0 38 8 48q31 31 80 18q10 -1 21.5 -14t14.5 -25q3 -15 3 -22q0 -5 -1.5 -12t-1.5 -9q-2 -6 -2 -20v-41q-1 -2 0.5 -6t1.5 -5q3 -12 3 -28v-54q2 -20 2 -57q0 -64 -2 -82v-96q2 -43 -5 -107q0 -2 -1 -7t-1 -7 v-53v4q8 -49 4 -117q0 -3 -1 -8t-1 -8q-7 -44 -4 -78l2 -27q0 -1 1 -5t1 -9v-147q5 -44 5 -99v-47q0 -2 -1.5 -7t-1.5 -7q1 -29 5.5 -88.5t5.5 -89.5v-19q-2 -6 -2 -16l-4 -10q-5 -8 -9 -19l-12 -14q-5 -6 -11.5 -8.5t-15.5 -1.5t-14.5 2t-16.5 4t-14 4q-23 10 -26 33 q-2 6 -2 18v41q-2 26 -1 80t-1 80v59l-4 47l-2 35v55q2 20 2 74q-2 8 -2 39q-3 6 -3 23v53q0 21 -2 31q-159 0 -262 -7q-5 0 -14.5 -1t-13.5 -1h-236l-2 -2h-33q-4 -41 4 -125v-90l-2 -71q2 -21 2 -150q0 -14 2 -20q0 -3 1 -10t1 -11v-33q0 -9 3 -18q-7 -25 -3 -49.5t-2 -50 t-28 -37.5q-21 -11 -46.5 -7t-37.5 23q-6 9 -9 21.5t-3.5 20t0 23.5t0.5 21v27q4 31 0 94v18q-2 24 -1.5 74.5t-1.5 75.5q3 9 3 20q2 27 2 80v19q0 2 -1 4.5t-1 5.5v33q0 14 -3 32q0 4 -1 15.5t-1 15.5v162q0 6 -1 17.5t-1 17.5v63q0 98 2 137z" />
<glyph unicode="I" horiz-adv-x="419" d="M272 174q-2 -2 -2 -6q-5 -45 -4 -53v-43q0 -17 -2 -23q0 -20 -9 -37t-26 -18q-28 -4 -53 4t-29 33v20q0 13 2.5 62.5t0.5 76.5q2 6 2 19q4 64 2 94v131q-2 8 -2 21q1 18 -2 52t-3 48v4q-2 12 1 34t2 32q0 3 -1.5 9t-1.5 9q-4 70 -4 109v120q2 55 2 136v127q0 20 2 28 q0 4 1.5 11.5t1.5 11.5v14q0 2 1 6t1 6v62q1 16 -1.5 43.5t-2 50t7.5 41.5q12 26 42.5 34t53.5 -9q3 -2 8 -11q12 -15 12 -43v-204q-2 -53 -2 -156v-39q0 -12 -2 -18l-2 -7v-155q0 -52 4 -146v-20q-3 -78 4 -176v-133q-3 -18 0.5 -60.5t-2.5 -60.5q-6 -15 0 -31z" />
<glyph unicode="J" horiz-adv-x="989" d="M844 709q0 -1 1 -5t1 -6v-73q0 -48 -2 -62v-16q-4 -32 -4 -98q0 -2 -1 -5.5t-1 -5.5v-37q-4 -16 -4 -34q0 -2 -1.5 -6.5t-1.5 -6.5v-16q0 -17 -2 -25q-7 -66 -22 -112l-6 -15q-6 -17 -37 -69q1 0 2 1t2 1q-40 -44 -57 -58q-7 -7 -13 -10q-49 -39 -133 -53q-12 0 -20 -2 q-57 -9 -128.5 -8.5t-125.5 22.5l-15 6h3q-28 10 -60 31l-16 14l-15 13l-14 12q-48 56 -59 96v-2q-4 20 -4 29q0 10 -2 14q0 9 -3 15q-4 12 -4 24v21l2 116q2 2 2 0v43q0 4 -1.5 31t4.5 31q10 21 36 30t52 3q3 -1 8 -4.5t6 -4.5q37 -31 20 -100q0 -3 -1 -8t-1 -8 q0 -11 -0.5 -32t-0.5 -38t1 -33v-20q-1 -11 1.5 -23t6.5 -25.5t5 -21.5l-2 2q4 -6 8 -18v2q3 -4 9.5 -15t11 -17t12 -12.5t16.5 -10.5q15 -10 18 -11q23 -13 56 -20l18 -4q57 -6 119 4q16 4 22 4q8 2 23 5.5t24.5 5.5t22 7t21.5 11q8 4 12 8q19 11 35 33v-3q2 6 9.5 22 t8.5 26l6 16q4 15 8 49q2 8 2 21q4 27 5.5 80.5t5.5 80.5q2 6 2 19q0 1 1 4.5t1 5.5v256q-2 6 -2 21q-4 4 -4 22v10q-6 73 -6 174q0 23 -3 47v269q-28 0 -38 2h-80q-3 0 -11 1t-12 1h-219q-6 0 -12 2l-17 6q-42 10 -34 70q3 19 14 31t29 12q6 2 18 2h299q48 0 66 -4h16 q73 4 98 -15q9 -6 12 -14q11 -31 6.5 -122t-1.5 -124v-20q0 -15 -2 -23v-22q0 -7 -1.5 -22t-1.5 -23v-33q3 -9 3 -17q4 -50 4 -86v-73q0 -1 1 -1q1 -1 1 -3q2 -10 2 -43v-29l2 -8v-49z" />
<glyph unicode="K" horiz-adv-x="964" d="M500 817l-13 -14h-2l9 -23q15 -35 32 -63q10 -18 42.5 -72.5t47.5 -85.5q14 -28 41 -87t41 -87l45 -84l39 -68q2 -8 9 -14q76 -105 94 -166q0 -3 -1 -8.5t-1 -7.5q-5 -15 -17.5 -27.5t-27.5 -15.5q-24 -10 -47 6q-7 2 -15 10q-1 1 -8 15v-2q-18 21 -42 65.5t-38 63.5 l-10 14q-31 52 -64 117q-15 25 -28.5 52.5t-31 66.5t-24.5 53l-43 86q-8 15 -23.5 40t-21.5 35q-32 52 -49 89q-14 -21 -31 -35l-47 -52q-16 -20 -22 -32q-18 -18 -23 -40.5t-3 -56t1 -45.5v-102q2 -23 2 -84v-18q-1 -16 -1 -34t0.5 -40.5t0.5 -34.5t2 -16q0 -40 -2 -58 l-6 -20q-3 -19 -19.5 -30t-37.5 -13q-21 -1 -36.5 12.5t-20.5 34.5q0 3 -1.5 9t-1.5 9q-3 20 0 37v17q0 33 -2 49v-4q-1 19 0.5 53t1.5 45v16q3 31 0 62q0 18 -2 24q0 2 -1 6.5t-1 6.5v112v115v127q0 39 2 57v119q-2 23 -2 78v76q2 23 2 57v174q3 16 -0.5 53t1.5 63t28 40 t54 5.5t38 -36.5q9 -13 6 -63.5t-2 -63.5v-127q-4 -113 -2 -170v-18q-1 -10 1 -31t1 -33v-22q-4 -16 -4 -25q-5 -25 -2 -59v-21q2 -8 2 -20v-21l10 11l25 28q4 8 8 12l19 21l14 16l39 49l14 17l11 14l12 15q8 8 10 14q13 15 32.5 45.5t31.5 44.5h-3l25 29l12 14l13 14l14 17 q52 60 57 67l25 33l12 14l12 17l13 20l14 23q7 10 25 31t26 34l-2 -2q14 40 60 90l16 13q9 6 20 6q34 11 56 -17q8 -8 10 -12l6 -20q0 -15 -2 -21q-9 -30 -43.5 -75t-44.5 -64l-12 -16l-13 -19q0 -1 -3.5 -5.5t-4.5 -8.5q-12 -13 -75 -107l-13 -14l-8 -10l-10 -13l-37 -45 l-12 -16q-14 -24 -56 -72t-57 -78z" />
<glyph unicode="L" horiz-adv-x="886" d="M266 -10h-24q-33 -5 -60.5 8t-27.5 43q0 1 6 55v23q2 90 2 268v94q-2 47 -2 160q0 156 -6 240v49q0 3 -1 8.5t-1 9.5q-7 60 -7 166v199q1 10 -1.5 42.5t4 51.5t28.5 29q28 12 56 -4.5t34 -45.5q3 -11 4 -23t1 -27t1 -23v-115q-4 -47 -4 -133l8 -143l7 -152q0 -19 2 -25 q0 -3 1 -8t1 -8v-143q4 -126 4 -234q0 -53 -2 -76v-69l-1 -3q-1 -4 -1 -9v-74h2q3 0 8.5 1t7.5 1h119q3 0 108 -6h19q65 0 158 14q3 0 10 1t10 1l21 -4q30 -4 44 -30t9 -58q-3 -15 -11 -24t-21 -13t-23.5 -5t-26.5 -1h-19q-116 -5 -137 -4h-108q-2 0 -4.5 1t-3.5 1 q-18 2 -48 2q-21 2 -61 -2q-8 0 -12 -2h-15q-3 0 -24 0.5t-23 -4.5z" />
<glyph unicode="M" horiz-adv-x="1480" d="M1329 637q0 -15 -2 -21q-1 -13 0.5 -39.5t1.5 -33.5q2 -6 2 -17v-22q2 -32 0.5 -104.5t1.5 -104.5q0 -15 2 -21q-5 -144 -2 -186v-22q-4 -42 -16 -64q-8 -8 -17 -8q-84 -15 -94 29q-4 12 -4 20q0 2 -1 6t-1 6q11 105 2 221q0 3 1 10.5t1 10.5q0 24 -1 73.5t-1 75.5v54 l4 184q0 15 -2 21v36q-2 6 -2 19v18q5 176 4 211v121l-67 -178l-31 -76l-6 -18l-8 -19q-5 -12 -13 -35.5t-15.5 -43t-14.5 -35.5q-5 -8 -9 -19q-7 -15 -20 -55l-4 -13q-1 -6 -4 -14.5t-4 -11.5q-4 -11 -9 -19q-27 -62 -49 -129l-6 -18q-14 -29 -35 -91.5t-34 -92.5 q-3 -3 -9 -15q-4 -12 -8 -16q-4 -12 -8 -18l-6 -17l-17 -37q-6 -18 -8 -22q-4 -9 -11.5 -29.5t-13.5 -36t-15 -31t-21.5 -22.5t-28.5 -4q-4 0 -20 8q-22 19 -37 67.5t-25 63.5l-8 19l-12 32q-2 3 -11.5 22l-12 24t-10.5 22t-11 24.5t-9.5 22.5t-9.5 25t-6.5 23.5t-5.5 25.5 l-6 18q-41 120 -70 182l-6 19q-5 9 -8 26q-4 8 -4 13l-21 55q-3 5 -8 19q-8 19 -22.5 57.5t-22.5 56.5l-6 19l-8 18q-23 59 -29 76q-14 34 -37.5 97.5t-30.5 80.5v-121q-1 -18 5 -211q-3 -9 -3 -18v-92q-1 -17 5 -187v-43q3 -120 0 -209q0 -4 -1 -10.5t-1 -9.5 q-3 -12 -3 -23q-2 -8 -2 -28q0 -9 2 -15q-1 -13 1.5 -48t1.5 -52q0 -5 -5 -20q-10 -44 -94 -29q-8 0 -16 8q-13 23 -16 52t-1.5 68t0.5 56v19q-2 12 -2 39v38q1 17 4.5 53t4 53.5t-3.5 53.5q0 7 -1.5 20t-1.5 19q0 55 7 123v20q-2 6 -2 21q0 2 -1 7t-1 7v35q-3 6 -3 23v28 q0 66 -2 101v18q-2 10 -1.5 26.5t-0.5 26.5v37q0 57 2 82v170q0 2 1 12t1 17v47q0 2 1.5 7t1.5 7q-9 84 8 125l10 14q26 15 57 15.5t54 -19.5l10 -14q2 -4 14 -33l12 -28q16 -28 21 -45l6 -13l8 -26q5 -17 15.5 -48.5t13.5 -39.5q12 -29 33.5 -86.5t31.5 -83.5q9 -27 15 -39 l4 -13l8 -16l6 -18q29 -95 58 -160l20 -41q12 -26 30 -81t29 -81l17 -39q2 -6 7.5 -20t8.5 -21l6 -16q3 -14 13 -31q0 -4 4 -16l6 -15l6 -18l12 -33q9 -15 27 -67l10 -21l8 -22l11 22q11 26 16 43l6 14l6 17l17 39l4 14q17 37 42.5 110.5t39.5 106.5l10 21q3 7 13 26.5 t14 30.5q4 12 8 18q20 49 26 78q4 6 9 21q26 65 43 121l6 18l6 16l6 13l14 39l64 170l6 16q4 8 4 14q40 93 47 111l6 18q5 9 16 33t18.5 37.5t23 26t34.5 12.5q2 0 7.5 -1t7.5 -1q25 -3 43 -15q2 -2 8 -14q12 -25 12.5 -62.5t-2.5 -62.5q0 -2 1 -7t1 -7v-47q0 -7 1 -17 t1 -12v-170q2 -25 2 -82v-37q-1 -7 -0.5 -26.5t-1.5 -26.5v-18q-2 -35 -2 -101v-28q0 -19 -2 -23v-33q-2 -6 -2 -16z" />
<glyph unicode="N" horiz-adv-x="1144" d="M1001 334q-2 -10 -2 -31t2 -31q0 -139 -6 -209v-20q-7 -33 -32 -45l-19 -6q-14 -1 -28 3t-23.5 9.5t-22 18.5t-18 19.5t-18 24t-15.5 21.5q-9 14 -10 16q-12 23 -21 35l-24 41l-10 15q-2 6 -10.5 23t-10.5 26v-4q-4 20 -14.5 40t-25 43.5t-21.5 36.5q-2 2 -5 8.5t-5 8.5 q-4 10 -16 32.5t-17 36.5l-8 19q-36 88 -82 160q-6 9 -9 18l-8 19l-6 16l-8 14q-26 52 -74 174q-1 1 -8 15l-8 16l-8 18q-1 1 -56 115l-6 14l-12 31q-45 93 -55 111q-1 3 -4.5 8t-4.5 6v-24q-2 -53 -2 -156v-39q0 -12 -2 -18l-2 -7v-155q0 -52 4 -146v-20q-3 -78 4 -176 v-133q-4 -21 0 -62q0 -3 1 -9t1 -9q2 -14 -2 -40.5t-4 -35.5q0 -15 -2 -48t-2 -50t-2 -23q0 -20 -9 -37t-26 -18q-28 -4 -53 4t-29 33v55q5 29 5.5 83.5t1.5 72.5v192q-2 8 -2 21q1 18 -2 52t-3 48v4q-2 12 1 34t2 32q0 3 -1.5 9t-1.5 9q-4 70 -4 109v120q2 55 2 136v127 q0 20 2 28q0 4 1.5 11.5t1.5 11.5v14q0 2 1 6t1 6v78q0 9 -1 33t-1.5 38t3 34.5t10.5 31.5t22 18.5t38 6.5q13 0 17 -2q33 -10 43 -43l16 -27l10 -12q3 -7 49 -90l13 -16q13 -30 43 -91.5t43 -91.5l18 -37q6 -13 18.5 -35.5t22 -41t16.5 -35.5l9 -21q39 -92 71 -161l9 -17 l12 -33q4 -6 8 -18q36 -56 78 -154l8 -16l8 -16q5 -4 8 -15q23 -33 37 -65l11 -17q5 -11 24.5 -46t26.5 -56v2v-4v2l2 -2q2 -4 7.5 -19.5t12.5 -21.5l6 -12l9 -11q0 6 1 20t1 21v172q-2 8 -2 21q1 18 -2 52t-3 48v4q-2 12 1 34t2 32q0 3 -1.5 9t-1.5 9q-4 70 -4 109v121 q2 55 2 135v127q0 20 2 28q0 4 1.5 11.5t1.5 11.5v14q0 2 1 6.5t1 6.5v61q1 16 -1.5 43.5t-2 50t7.5 41.5q12 26 42.5 34t53.5 -9q4 -2 8 -10q12 -15 12 -43v-205q-2 -53 -2 -156v-39q0 -12 -2 -18l-2 -6v-156q0 -51 4 -145v-21q-3 -78 4 -176v-133z" />
<glyph unicode="O" horiz-adv-x="1011" d="M909 498q-2 -9 -4 -19q-7 -12 -5 -53t1 -53q0 -3 -1 -9t-1 -8q0 -14 -2 -20q0 -16 -6 -31q0 -2 -1 -7t-1 -7q-4 -24 -12 -37l-7 -18q-54 -107 -108 -156l-17 -14q-12 -9 -26.5 -17t-25 -13.5t-29 -12t-26.5 -9t-30.5 -9.5t-27.5 -9h4q-7 -3 -21 -3.5t-20 -2.5h-60 q-77 -2 -151.5 28.5t-128.5 85.5l-17 17l-18 24l-8 15q-23 48 -49 182v23q0 8 -5 43v20q-2 8 -2 21v24l2 23q0 3 1.5 9.5t1.5 10.5l2 115q0 16 -2 18l-3 72q-2 3 -2 18l2 78h3q0 23 4 47v21q0 2 1 6t1 6q0 33 2 45l2 37q2 18 2 55q0 6 1 17.5t1 17.5q2 6 2 16q0 7 1 20t1 19 q2 8 2 21q17 77 18 80q5 15 5 16q1 2 6 16q30 74 86 119q4 4 12 8q22 17 33 23l16 10q10 4 31.5 8.5t28.5 6.5l-3 -2q25 8 78 12q3 0 12 1t13 1h115q1 0 3.5 -1t4.5 -1q16 1 43.5 -5t38.5 -7q8 -3 18 -7l19 -6l16 -6l18 -10l17 -10q28 -31 46 -52.5t38.5 -54t31.5 -63.5 q0 -3 1.5 -8.5t1.5 -8.5l6 -37q0 -4 1 -11t1 -11q2 -6 2 -17q0 -3 1 -9t1 -9q5 -82 4 -98q0 -3 1 -9.5t1 -9.5q2 -31 2.5 -90.5t1.5 -77.5q2 -6 2 -18q4 -49 2 -74q0 -14 2 -20v-95q2 -12 2 -38v-21q1 -8 0.5 -30.5t1.5 -30.5zM780 481q-2 2 -2 4q2 8 2 47v21q-2 20 -2 63 v21q-2 51 -4 86q0 5 -1 12t-1 8q0 15 -1 43t-1 43q0 4 -1 12t-1 11q4 27 4 82v22q4 53 1.5 120.5t-21.5 115.5l-13 18q-2 4 -12.5 21t-15 24.5t-14 18.5t-19.5 18q-5 3 -19 8l-20 7l-21 4q-106 26 -172 8q-12 0 -18 -2q-6 0 -22 -4q-72 -10 -107 -68q-9 -14 -10 -16l-10 -21 l-4.5 -9t-4.5 -11q-18 -53 -24 -107q0 -3 -1 -9t-1 -9q-2 -16 -2 -53q0 -40 -4 -68v-70q0 -46 -7 -81v-35q-2 -50 5 -107l-5 -182q0 -3 1 -7.5t1 -6.5v-39q0 -27 3 -54q0 -12 2 -20q9 -81 69 -162l19 -14q74 -55 159 -49q8 2 78 2h12q10 1 30.5 7t25.5 7l16 8l17 8l16 19 l14 18q32 36 45 70l9 14q9 20 12 47q0 3 1 10.5t1 10.5z" />
<glyph unicode="P" horiz-adv-x="1015" d="M907 1106v-8q0 -2 2 -6v-29q4 -25 4 -76q0 -53 -12 -106l-22 -52q-5 -6 -7 -12q-4 -8 -8 -12l-6 -12q-31 -36 -39 -43l-12 -15q-54 -48 -127 -73q-15 -5 -21 -5q-33 -10 -61 -10q-6 -2 -16 -2q-11 0 -17 -2h-18l-31 -2h-246v-14q0 -39 2 -62v-33h2q4 -59 0 -118v-162 q0 -3 1 -9.5t1 -9.5q0 -96 -6 -135v-41q0 -16 -2 -24q-4 -25 -31 -36t-53 -3q-30 10 -37 47q0 3 -1 8t-1 8q0 10 4 73t3 97v271q0 2 -1 5t-1 5v213q-6 29 -5 78t0 78v61q-2 20 -2 70v67q4 31 4 90v23q5 32 5.5 93t1.5 81q0 6 4 18q6 29 26 43q28 9 54 9h12q38 2 105.5 2.5 t88.5 1.5h25q121 0 174 -15l21 -6q66 -19 108 -53q118 -100 129 -207l2 -2v-14q0 -5 1 -12t1 -9q0 -3 1 -6.5t1 -5.5zM786 995q3 19 0 31v31q-4 123 -55 176q-4 6 -16 14q-7 7 -19 15l-12 6q-12 8 -47 26l-19 6q-52 17 -151 13h-51q-21 0 -29 -2q-15 -5 -47 -0.5t-47 0.5 q-2 0 -11 -1t-10 -1q-1 -7 0 -22.5t0 -22.5v-31q0 -8 -1 -23.5t-1 -23.5v-76q-6 -111 -6 -225v-117q25 -2 64 -2h213q27 0 41 2h18q33 2 80 25l14 8q3 2 11.5 7.5t11.5 8.5q51 37 67 146q0 10 2 14v18z" />
<glyph unicode="Q" horiz-adv-x="1015" d="M905 475v-18q6 -50 -4 -107q0 -2 -1 -7.5t-1 -8.5q0 -11 -2 -15q0 -4 -4 -16q0 -2 -1 -7t-1 -7q-4 -24 -12 -37l-7 -19q-53 -105 -108 -155l-16 -15q-42 -29 -95 -45l4 -4q1 -2 4 -5t4.5 -5.5t2.5 -5.5l12 -14q25 -28 92 -125q7 -10 14 -15l21 -22l8 -10q22 -40 -8 -74 q-17 -15 -41 -16t-43 14q-8 4 -10 8q-4 2 -8 10q-7 7 -13 10l-12 15q-36 41 -84 110q-3 3 -8 13l-8 10q-10 15 -15 20q-4 4 -4 7l-8 8l-39 43h-33q-59 -4 -168 37l-20 10q-51 28 -88 65l-17 17l-18 24l-8 15q-23 48 -49 182v22q0 16 -4 44v20q-3 12 -3 20v25q-7 87 3 209v49 q-4 35 2.5 99t5.5 90q0 16 2 22l2 37q2 18 2 55q0 6 1 17.5t1 17.5q2 6 2 16q0 7 1 20t1 19q2 8 2 21q14 63 19 80q4 12 4 16q1 2 6 16q30 74 86 119q4 4 12 8q22 17 33 23l16 10q10 4 31.5 8.5t28.5 6.5l-2 -3q30 9 77 13q3 0 12 1t13 1h115q1 0 3.5 -1t4.5 -1 q11 1 22 -0.5t24.5 -5t20.5 -4.5q9 0 15 -3q69 -22 155 -116l11 -17q31 -49 39 -75q0 -3 1 -8.5t1 -8.5l6 -37q0 -4 1 -11t1 -11q2 -6 2 -17q0 -3 1 -9t1 -9q5 -82 4 -98q0 -3 1 -9.5t1 -9.5q2 -31 2.5 -90.5t1.5 -77.5q2 -6 2 -18q4 -50 2 -74q0 -14 2 -20v-95q0 -2 1 -7 t1 -7v-35q2 -22 2 -31t-2.5 -30.5t-3.5 -30.5zM780 479q-3 15 0.5 45t1.5 45q0 11 -2 17v49q-2 51 -4 86q0 5 -1 12t-1 8q0 15 -1 43t-1 43q0 4 -1 12t-1 11q4 27 4 82v22q4 53 1.5 120.5t-21.5 115.5l-13 18l-8 17l-10 14q-39 55 -125 76l-20 4q-72 13 -129 -2 q-13 0 -19 -2q-6 0 -22 -4q-72 -10 -107 -68q-9 -14 -10 -16l-10 -21l-4.5 -9t-4.5 -11q-18 -53 -24 -107q0 -3 -1 -9t-1 -9q-2 -16 -2 -53q0 -40 -4 -68v-70q0 -47 -7 -82v-71q0 -45 3 -92q0 -13 2 -19l-5 -92v-49q0 -3 1.5 -7.5t1.5 -6.5v-39q0 -36 2 -54q0 -12 2 -20 q9 -81 69 -162l19 -14q27 -18 37 -23l20 -8q2 -1 9 -4t12 -4q15 -7 28 -10q9 0 21 -4q35 -6 69 -3l11 5q8 2 24 2h2q12 4 25 4l18 6q6 0 14 4q2 0 7.5 1t7.5 1l33 16l16 19l14 18q32 36 45 70l9 14q9 20 12 47q0 3 1 10.5t1 10.5q4 34 8 53q0 8 2 12q1 6 3 19t3 23.5t0 19.5 v18z" />
<glyph unicode="R" horiz-adv-x="1005" d="M922 66q2 -6 2 -17q-1 -30 -28 -46t-56 -7q-45 18 -56 72l-4 16l-6 22l-39 101q-43 100 -47 110q-8 19 -23 58t-18 45l-12 31l-8 16q-14 24 -39 80.5t-43 83.5l-8 10h-267v-14q0 -39 2 -62v-33h2q4 -59 0 -118v-162q0 -3 1 -9.5t1 -9.5q0 -96 -6 -135v-41q0 -16 -2 -24 q-4 -25 -31 -36t-53 -3q-30 10 -37 47q0 3 -1 8t-1 8q0 10 4 73t3 97v271q0 2 -1 5t-1 5v213q-6 29 -5 78t0 78v61q-2 20 -2 70v67q4 31 4 90v23q5 32 5.5 93t1.5 81q0 6 4 18q6 29 26 43q28 9 54 9h12q38 2 105.5 2.5t88.5 1.5h25q121 0 174 -15l21 -6q66 -19 108 -53 q118 -100 129 -207l2 -2v-14q0 -5 1 -12t1 -9q0 -3 1 -6.5t1 -5.5v-8q0 -2 2 -6v-29q4 -25 4 -76q0 -53 -12 -106l-22 -52q-5 -6 -7 -12q-4 -8 -8 -12l-6 -12q-31 -36 -39 -43l-12 -15q-48 -43 -111 -67l-16 -6q-1 0 -3 -1.5t-3 -1.5q19 -30 53 -118l8 -15l33 -80l49 -122 l51 -121q6 -13 9 -23q4 -12 8 -18l6 -19q4 -10 15 -36t16 -41zM264 768q25 -2 64 -2h231q12 4 19 4q6 0 8 -2q2 2 8 2q8 0 12 -2q36 5 74 25l14 8q3 2 11.5 7.5t11.5 8.5q51 37 67 146q0 10 2 14v18q3 19 0 31v31q-4 123 -55 176q-4 6 -16 14q-7 7 -19 15l-12 6 q-12 8 -47 26l-19 6q-52 17 -151 13h-51q-21 0 -29 -2q-15 -5 -47 -0.5t-47 0.5q-2 0 -11 -1t-10 -1q-1 -7 0 -22.5t0 -22.5v-31q0 -8 -1 -23.5t-1 -23.5v-76q-6 -111 -6 -225v-117z" />
<glyph unicode="S" horiz-adv-x="972" d="M844 399q0 -14 6 -26q2 -14 2 -49q0 -87 -31 -148v2l-12 -26q-12 -24 -31 -46l-12 -14l-12 -14l-15 -15q-30 -26 -71 -49q-5 -1 -12 -4t-9 -4q-22 -9 -63 -16q-3 0 -9.5 -1t-9.5 -1q-14 0 -20 -2h-148q-3 0 -8.5 1t-7.5 1h-10q-27 3 -54 12l-16 6l-18 6q-33 16 -78 51 q-11 8 -27 29q-15 18 -22 33q-10 15 -11 18q-2 3 -8 21v-2l-6 12q-4 8 -4 12l-6 15q-7 22 -10 43q-2 4 -2 16q0 11 -2.5 38.5t-2.5 44.5t7.5 37t23.5 32l12 6q16 4 27 4q10 0 16 -2q17 -5 27 -17t12.5 -28.5t2.5 -32t-1.5 -36t-1.5 -30.5l4 -22q5 -15 9 -21l6 -12 q27 -49 98 -94h-4q30 -15 64 -18q6 -3 14 -3q6 -2 16 -2q3 0 9.5 -1t9.5 -1q50 0 110 13l21 6q13 3 20 8q6 5 33.5 23t38.5 34q6 6 10 17l6 10q22 45 25 102q0 4 1 11t1 10q0 29 -4 41q-3 20 -12 37q-34 73 -74 121v-3l-21 21l-18 20h2l-10 11l-39 28q-5 5 -13 9l-92 49 q-12 8 -18 10q-33 19 -84 57l-14 15l-13 8l-10 10l-74 70l-12 14l-6 6h2q-17 17 -49 70q-3 4 -12 22l-15 33v-2q-13 18 -18 88q-6 24 -6 53v17l4 16q5 38 8 51v-2q15 89 55 129l12 17q29 29 84 63l21 10l14 7q8 4 13 4q27 13 56 17.5t75.5 5t58.5 1.5h14q29 0 43 -2h13 q10 0 16 -2q8 0 14 -2q48 -16 56 -22q-1 0 -3 1t-3 1l47 -27l14 -8q83 -54 113 -139q1 -1 8 -15l4 -16l6 -15q12 -45 14 -79v-43q0 -3 0.5 -11t0 -12.5t-1 -11t-3 -11.5t-6.5 -8q-20 -20 -53 -21.5t-53 23.5l-7 17v14q0 6 3 12v13l-15 67l2 -2q-3 7 -9.5 24.5t-10 26.5 t-10 23t-13 25.5t-14.5 21.5l-14 16q-22 17 -33 23h2q-3 3 -12 6t-11 4l2 -2q-75 20 -182 2q-30 -4 -45 -8q-77 -18 -109 -70q-1 -2 -4 -8.5t-4 -11.5q-34 -65 -32 -98v-21q0 -8 4 -20l4 -23q7 -24 18 -49q4 -8 4 -12q1 -5 6.5 -14t6.5 -13v2q18 -25 46.5 -54.5t42 -42 t54.5 -48.5l18 -11q70 -40 105 -63q12 -8 18 -10l17 -13l16 -14l20 -14l56 -45l30 -33l35 -37l21 -22l22 -29l15 -21q37 -53 49 -127v-2z" />
<glyph unicode="T" horiz-adv-x="1009" d="M889 1438q12 0 16 -2q33 -9 41 -44.5t-18 -58.5q-17 -14 -36.5 -17.5t-50.5 0t-40 3.5h-109q-90 0 -117 -2q-6 -96 -6 -348q0 -29 2 -45v-68q0 -6 -1 -18t-1 -17v-166q0 -5 1 -14.5t1 -13.5v-183q0 -3 -1 -7.5t-1 -6.5v-293q-2 -2 -2 -6q0 -11 1 -35t1 -37q-2 -6 -2 -14 q-5 -30 -12 -37q-20 -18 -44.5 -21t-47.5 13q-5 4 -8.5 9.5t-4.5 9t-3 12t-3 10.5q-2 6 -2 20v56q0 2 1 6.5t1 7.5v186q0 44 2 60v162q-2 31 -2 116v105q0 5 -1 14t-1 14q-4 55 4 80v62q0 1 -1 3.5t-1 4.5v121q0 5 1 20t1 23q0 82 3 184v23q-18 0 -50 4q0 3 -33 1l-34 -1 h-74q-71 0 -108 -4h-15h-16l-15 6q-25 11 -35.5 35t1.5 49q12 16 43 28l16 5q24 4 68 3.5t65 0.5h31q2 0 6.5 -1t7.5 -1q133 4 199 0h18q40 4 60 4q8 2 22 2q29 2 82 2q10 -2 76 -2h31q18 1 51 -0.5t43 -1.5z" />
<glyph unicode="U" d="M102 1372q0 3 1 9t1 8q9 36 23 43q21 8 44 9.5t41.5 -11.5t20.5 -37q3 -9 3 -17q0 -7 -4 -68t-3 -94v-45q0 -2 1 -5.5t1 -6.5v-203q0 -118 2 -188q3 -123 3 -221v-133q-4 -142 36 -213l11 -15q37 -40 84 -57q4 -3 20 -8q58 -13 59 -13l21 -4q82 -6 156 17l18 6l-2 -2 q45 16 59 39l9 12q2 2 9.5 14.5t14.5 18.5q13 23 23 57l4 19l4 63q0 3 1 10.5t1 10.5q4 94 4 139q0 2 -1 7.5t-1 8.5v19q-4 82 -4 135v61q2 36 -2 92v13q-2 14 -2 59v49q0 74 -2 117v188q2 6 2 19q2 6 2 18l-4 43v15q0 10 4 34q0 9 4 17q3 25 27 39q26 15 56 2.5t36 -43.5 q0 -3 1 -9.5t1 -9.5q3 -19 0 -34v-17q0 -3 -0.5 -10t-0.5 -13t1 -10q0 -2 -1 -6.5t-1 -7.5q0 -6 -1 -19.5t-1 -19.5q-4 -36 -4 -55v-94q0 -46 2 -62q4 -54 4 -86q-2 -27 2 -100v-86q0 -4 1 -9.5t1 -9.5q2 -8 2 -30q0 -21 -2 -27q0 -3 -1 -8.5t-1 -9.5v-150q0 -79 -11 -233 l-6 -29q0 -2 -1 -7.5t-1 -8.5q-1 -4 -4 -22.5t-5 -26.5t-7 -20.5t-12 -21.5q-35 -50 -43 -59q-12 -12 -15 -14q-25 -28 -49 -39l-24 -12l2 2l-27 -11l-6 -2h4l-12 -4q-8 -4 -15 -4l-14 -4q-49 -12 -176 -12h-19q-47 4 -71 10q-7 0 -19 4q-85 17 -137 72q-6 6 -12 14l-12 14 l-17 17l-12 18q-8 12 -15 26.5t-11 25t-8 30t-5 27.5t-4 31t-4 28q0 3 -1 10.5t-1 10.5q0 4 -1 11.5t-1 10.5v14q0 30 2 44v178q0 2 -1 6t-1 6v129q0 2 -1 6.5t-1 7.5v17q-5 99 -2 153v56q-4 45 0 77v43q0 12 -1.5 33t-1.5 29q-4 50 -4 84v141z" />
<glyph unicode="V" horiz-adv-x="1003" d="M938 1409q4 -6 4 -18q-4 -17 -18.5 -66t-20.5 -76l-6 -16l-20 -84l-5 -19q-6 -23 -25 -76t-26 -83q0 -2 -1 -6.5t-1 -6.5q-2 -6 -2 -14l-4 -14l-14 -53l-4 -13l-2 -14q-11 -24 -23 -72t-18 -65q-4 -12 -4 -19q-2 -6 -6 -18.5t-5 -16.5l-16 -61l-19 -55l-6 -33l-6 -21 l-6 -20q-7 -21 -10 -39l-6 -20l-35 -121q0 -7 -4 -19q-38 -77 -62 -198l-6 -21q-4 -12 -8 -18q-3 -10 -8 -15q-21 -29 -51 -26q-18 1 -31.5 15t-18.5 34l-6 22l-6 21q-18 88 -53 172q0 8 -4 16q-13 58 -31 115l-4 16l-16 54l-5 16l-6 19l-4 18l-8 33l-18 55l-17 61 q-14 61 -30 105l-7 27l-8 30l-8 29l-8 27l-12 53q-5 10 -5 14q-8 29 -10 41l-6 16l-8 19l-6 16l-6 19q-30 131 -50 182q0 3 -1 9t-1 9q-4 13 -20.5 52t-18.5 61v14q3 48 60 60q46 4 59 -27q4 -4 8 -16q10 -16 13 -33l6 -20q23 -63 31 -115l4 -23q7 -34 27 -95.5t24 -76.5 q6 -18 8 -22q17 -50 43 -168l-2 4q16 -44 20 -59l5 -21l8 -29q29 -120 49 -174q2 -12 6 -22l4 -23l6 -16l13 -53l2 2q3 -13 7 -27.5t9 -31.5t8 -27q2 -3 8 -21q10 -34 13 -65q0 -3 1 -9.5t1 -9.5l4 21q12 78 39 151q0 5 4 17q5 14 14 49l6 20l13 45l24 82q4 12 4 19 q3 9 15 77.5t34 98.5l-4 -4l13 30l6 17q0 2 1 7.5t1 8.5q2 4 2 12q3 9 8 39q4 12 4 17l8 28l7 15q2 14 10 37l6 18q3 12 21 68.5t24 87.5l4 22l6 23l25 88q4 12 4 18q16 49 37 62t48 10t40 -25q5 -5 8 -14zM63 1391l5 -7q0 2 -5 7zM934 1378l4 11q-4 -8 -4 -11z" />
<glyph unicode="W" horiz-adv-x="1497" d="M1417 1423q15 -18 17 -44t-7 -44l-2 -6q-4 -11 -8 -37q-4 -16 -4 -20q-5 -18 -9 -39t-8 -47.5t-7 -40.5q0 -6 -5 -21q0 -2 -1 -6t-1 -6q0 -6 -4 -18l-6 -19q-2 -5 -6 -18.5t-8 -20.5v4q-1 -7 -5.5 -32.5t-6.5 -37t-7.5 -31t-11.5 -34.5l-6 -18q-14 -52 -29 -137 q-4 -12 -4 -17q-20 -72 -26 -110l-7 -21l2 2q-5 -15 -4 -18l-4 -19l-8 -30l-10 -39l-8 -35l-25 -92v2l-14 -66l-21 -104l-4 -4q0 -13 -2 -19q-1 -8 -5 -22t-5 -21q-2 -2 -2 -8v-2l-2 -6l-2 -2v-15l-11 -38q-2 -12 -8 -23q-3 -25 -20 -41t-41 -16h-6q-33 0 -51 28l-7 13 q-10 26 -21 78.5t-18 74.5q-2 6 -2 19q-4 2 -4 4v8q-4 8 -4 18l-18 88l-4 19q-4 11 -8 33v2l-9 30l-12 41q-2 7 -17 68t-20 92l2 -2l-6 18v-2q-2 6 -3 18t-3 17q-4 26 -8 35q-5 20 -17 58t-14 47q0 4 -4 12q-9 33 -12 78l-4 20q-4 27 -21 80.5t-20 83.5q-4 -30 -21 -83.5 t-22 -80.5q0 -14 -2 -20q-2 -29 -15 -78q0 -4 -4 -12q-30 -118 -41 -170v2l-6 -21l2 2q0 -3 -2 -9t-2 -9l-4 -19l-8 -30l-11 -39l-8 -35l-24 -92v2l-15 -66l-22 -104l-2 -4q0 -13 -2 -19q-8 -26 -19.5 -77t-19.5 -76l-6 -13q-21 -28 -52 -28h-6q-25 0 -42.5 16t-18.5 41 q-4 4 -8 23l-11 38l-2 15v2q-2 2 -2 6v2q0 2 -1 4.5t-1 3.5q-8 29 -10 43q-4 12 -4 19q-2 2 -2 4l-21 104q-2 4 -2 10l-6 23q0 6 -4 14q0 2 -1 7t-1 8q-22 58 -27 96l-4 16q0 3 -1 8.5t-1 8.5q-4 8 -6 18l-4 21l-8 30q-2 11 -4 19q0 3 -2 9t-2 9l2 -2l-6 21v-2l-11 43l-4 20 q-33 117 -35 127l-4 18q-30 144 -39 175l-6 20q-6 42 -6 43q0 -1 -1 -2t-1 -2l-4 14q-4 8 -4 15q-4 12 -4 14q-4 8 -4 12l-6 19q0 3 -5 18q0 4 -1 11t-1 10l-4 20l-4 23q-4 30 -8 43l-4 22q-2 14 -16 66q0 2 -1.5 6.5t-1.5 7.5q-3 33 19 59l24 11q66 26 82 -52v-18 q6 -33 25 -97.5t25 -97.5l4 -16q4 -12 4 -16l14 -47l31 -146l10 -49l-2 2l25 -104l-2 2q10 -27 10 -37v-10q0 -2 2 -6t2 -5v-8l10 -37q3 -30 10 -43l13 -37q0 -7 10 -37l4 -20q9 -39 23.5 -110.5t17.5 -86.5l4 -14q1 -7 5 -21.5t5 -21.5q0 -2 1 -7t1 -7l4 14q1 9 6.5 29 t6.5 28l2 25q1 9 7 33.5t7 38.5l6 26l2 11l13 43l20 79v-2l12 37q3 5 11 43l10 37v8q0 1 1 5t1 6l2 10q0 10 10 37l-4 -2l25 104v-2l8 49l33 146l12 47l10 32q4 12 4 19q9 28 15.5 58t13.5 75.5t10 60.5q0 7 4 19q7 30 31 43q37 18 63 -2q17 -15 23.5 -36.5t7.5 -52t4 -44.5 l4 -21l13 -65l12 -37q0 -9 4 -17l10 -32l13 -47l30 -146l11 -49v2l22 -104l-2 2q8 -19 8 -27q2 -6 2 -10q6 -40 31 -127l6 -19q0 -3 6 -18l8 -39q2 -6 6 -19t6.5 -20.5t4.5 -19t2 -21.5l6 -39q9 -58 27 -114l4 -19l4 -16l4 18l4 17q13 97 23 133l4 14l4 23l12 43q6 20 10 40 q4 12 4 19q9 21 16.5 47t10.5 41t9.5 50t8.5 44q0 6 4.5 18t4.5 19q0 4 4 16q17 64 20 89l6 26q0 9 4 23q2 7 11.5 46t13.5 60l6 21q7 24 14 63q0 4 5 19q21 70 22 79q4 12 4 19l19 74l2 16q2 40 23 63.5t61 6.5z" />
<glyph unicode="X" horiz-adv-x="944" d="M879 61q0 -12 2 -22q2 -6 2 -19q-7 -21 -27 -28q-50 -17 -80 18l-12 17q-7 9 -21 32l-10 23q-19 21 -33 57q-3 5 -8 19l-18 41l-6 14q-3 4 -7.5 13.5t-7.5 13.5v-2q-15 24 -33.5 73.5t-31.5 71.5l-8 16l-39 60v-2l-23 39l-6 12l-18 29l-13 16l-6 20q-2 -4 -16 -28v-2 l-4 -8v2q-8 -17 -24 -43.5t-21 -36.5v2q-43 -61 -95 -164q-5 -14 -8 -19l-18 -36l2 2l-8 -15q-4 -8 -34.5 -76.5t-51.5 -101.5l-7 -12l-10 -14q-1 -1 -4.5 -5.5t-5.5 -5.5q-21 -21 -43 -26q-31 -4 -47 12q-20 24 -17 45q0 7 3 16q0 7 4 15q4 11 15 29t15 26q18 47 68 137 l10 21q8 12 10 18q9 14 11 21q8 12 10 18l10 18l47 99q3 9 10 16q11 24 31 51l10 19q20 32 27 55q6 6 10 14q4 7 14 20t15.5 21t11 19.5t6.5 21.5q1 9 -9 31t-11 27v-2l-16 32l-19 35q-3 7 -14.5 31t-16.5 37l-8 18l-24 49q-4 7 -11 18t-8 13l-8 17q-8 8 -10 12l-8 12 q-1 3 -11 23.5t-14 31.5l-29 58q-4 8 -8 10q-14 28 -20 37q-2 4 -4 10l-25 55q-6 18 -18 39l-11 19q-16 24 -24 45l-4 12q-9 43 14 59q24 18 54.5 12.5t45.5 -32.5l13 -14l79 -160l9 -23q13 -31 44 -84t40 -71q3 -13 10 -23l20 -41q5 -8 9 -18l10 -19q8 -15 24 -52t29 -56 q22 37 39 61v4l43 80l47 101l21 36l16 23l55 119l17 28l8 21q4 7 20.5 44.5t32.5 54.5t43 20q31 3 53.5 -23t12.5 -55q-7 -20 -28 -55t-28 -52q-2 -4 -4 -10l-24 -55l-23 -45q-14 -31 -24 -41l-15 -21l2 2q-54 -95 -114 -225l-7 -14l-4 -6l-6 -15l-37 -69v2q-1 -2 -1.5 -6 t-1 -7t-1.5 -4q-10 -15 -11 -30t1 -21.5t14 -26t13 -22.5l10 -16q10 -17 30.5 -59.5t34.5 -65.5l13 -17l6 -12q10 -16 19 -35t18.5 -43t15.5 -37l31 -53q1 -2 4.5 -8t5.5 -8v4q3 -9 16 -35l9 -16q11 -24 45 -86l6 -17q3 -6 16.5 -32t18.5 -42z" />
<glyph unicode="Y" horiz-adv-x="1007" d="M934 1425q6 -3 6 -8q8 -16 2 -35q0 -8 -4 -16q-6 -14 -23 -40t-22 -40l-12 -18l-17 -29l-12 -31q-1 -4 -4.5 -8.5t-3.5 -5.5q-4 -8 -8 -12l-11 -17l-8 -14l-10 -14l-12 -19q-9 -18 -28.5 -49t-25.5 -41l-10 -18v2q-6 -10 -15.5 -32t-15.5 -32l-8 -20q-15 -26 -43.5 -74 t-34.5 -59q-4 -4 -8 -15q-3 -5 -31 -61q0 -2 -4 -10v-47q-5 -33 -4.5 -91.5t-1.5 -91.5q0 -14 -2 -20q-3 -56 4 -127v-193q-1 -11 -1 -38t-1 -40q0 -14 -2 -20q1 -33 -28.5 -48t-61.5 -5q-29 10 -33 55q-2 6 -2 20v60v14q0 10 1 32t1 34v92q0 3 1 9.5t1 10.5q-7 20 -2 93.5 t4 93.5v18q-8 58 -6 90v101l-6 16l-22 47q-6 6 -9 14q-64 101 -88 152q-1 2 -4 9t-4 12q-12 24 -20 36l-9 15l5 -6l-7 12q-27 41 -32 57l-15 23q-17 33 -18 35l-8 16q-6 17 -25.5 44.5t-23.5 33.5v-2q-23 44 -50 78l-12 14q-31 50 -27 76q3 20 18.5 35t35.5 18q19 2 35.5 -8 t24 -20.5t20 -34t16.5 -29.5l10 -15v4l62 -94l12 -18q3 -8 13.5 -24.5t13.5 -22.5q25 -45 41 -76q3 -4 7 -11.5t5 -9.5l16 -32l6 -19q11 -24 44.5 -74t45.5 -79l9 -19l8 -16q2 8 10 24l8 17q2 3 8 16t9 19q2 2 5.5 8t4.5 8q25 35 35 61q10 25 35 67.5t32 57.5l11 19 q19 32 20 33l8 14q2 6 10 18l11 19q2 2 5.5 8t4.5 8l8 17l8 14l9 16q6 8 15 28t15 28v-2l8 12l7 12q5 7 13 23.5t13 23.5l10 13q23 25 53 21.5t52 -26.5z" />
<glyph unicode="Z" horiz-adv-x="929" d="M793 119q29 -2 51.5 -19t21.5 -43q-1 -35 -34 -52t-72 -15q-3 0 -10.5 1t-10.5 1q-46 4 -61 4h-53q-16 -4 -60.5 -0.5t-60.5 2.5q-4 0 -11 -1t-10 -1h-22q-12 -2 -47 -2h-117q-10 0 -39.5 1t-50.5 0.5t-41 -5.5h-23q-32 0 -51 12t-18 43l4 21l6 16q0 4 3 9t3 7 q5 15 21 42.5t20 43.5h-2l12 31l6 16l25 48l6 16q6 12 8 14q4 11 9 19l18 34q5 14 8 19l8 18l9 21q18 32 26.5 48.5t9.5 18.5l13 25l26 51q2 4 2 8q7 31 23 65.5t27.5 54.5t35.5 59l9 16l24 47q4 8 4 14q10 21 11 23l20 41q1 4 8 18q8 19 35.5 65.5t36.5 74.5l6 16l23 53 l12 21l12 22l6 15q2 2 8 14l-2 -2q35 62 56 102l8 15q-10 0 -16 2h-33q-12 -2 -39 -2q-61 2 -182 2h-46q-29 -2 -88 -2q-6 -2 -18 -2q-17 4 -83 4t-95 18q-7 7 -10 16q-9 20 -4.5 44t22.5 32q18 9 41 13.5t39.5 4.5t44.5 -1.5t41 -1.5h55q6 -2 17 -2h30q13 2 72 2h18 q6 -2 19 -2h20q27 0 41 4h234q63 0 76 -37q6 -15 6 -31.5t-3.5 -29t-12 -30t-14.5 -27t-17 -26.5l2 2q-1 -2 -11 -18q-8 -12 -10 -18v4l-6 -19q-21 -51 -55 -114q-2 -5 -11 -19q-4 -12 -8 -18l-6 -19l-8 -18q-22 -60 -74 -137l2 2q-3 -15 -12 -27l-6 -12l-23 -39 q-4 -9 -8 -15l-6 -14v2l-12 -26q-4 -7 -6 -13q-24 -49 -48 -96q-2 -2 -8 -14q-19 -38 -22 -47l-54 -107l-38 -88l-11 -16q-16 -37 -26 -54l-19 -36q-10 -15 -18 -43l-6 -15l-6 -16l-9 -17q-4 -16 -17 -42.5t-17 -36.5q44 10 79 4q4 0 11 -1t10 -1h20q16 0 49 4t50 4h16 q99 -9 199 0q8 2 22 2h64q4 0 16 -1.5t19 -0.5h2z" />
<glyph unicode="[" horiz-adv-x="462" d="M387 1595h-14q-4 2 -13 2q-18 5 -92 5h-37v-232q2 -8 2 -22v-60q0 -3 1.5 -9.5t1.5 -10.5q-1 -33 0.5 -93t1.5 -79v-15q0 -23 -5 -125q0 -7 -1 -32t-1 -33q-4 -63 -4 -176v-43q0 -76 -2 -103v-237q-1 -21 1 -65.5t1 -65.5v-23q0 -12 2 -20v-41q0 -15 2 -21v-98 q2 -6 2 -18q0 -45 -2 -68v-14q1 -4 -1 -12.5t-1 -12.5q4 -12 4 -25q0 -2 1.5 -4t1.5 -4v-2q4 0 11 -1t11 -1q3 0 8 -1t8 -1q10 -1 32 0.5t38.5 -0.5t30.5 -10q22 -13 26.5 -39t-10.5 -45q-28 -32 -100 -25q-4 0 -12.5 1t-12.5 1q-11 1 -44 -0.5t-52.5 0t-38 14.5t-20.5 40 v20q0 30 -1 88.5t-1 87.5v21q0 43 2 63q0 15 -2 21v20q0 2 -1.5 7t-1.5 7l-4 44v20q3 99 0 199v131q0 135 2 198v13q0 73 2 106v39q0 9 1.5 28t1.5 29v97q3 28 0 57v27q0 1 -1.5 38.5t1.5 38.5q7 42 4 78q0 15 -2 21v57v21q-2 41 -2 137q0 90 2 137v14q-6 35 19 61t60 21 l19 4h74q6 2 20 2q10 0 33 0.5t37 -0.5t31.5 -4.5t28.5 -14.5t16 -28q11 -28 -9.5 -55t-52.5 -27zM358 1597l6 -2l-4 2h-2z" />
<glyph unicode="\" horiz-adv-x="749" d="M604 -6q-26 39 -33 59v-2q-4 13 -41 101l-6 16q-4 13 -10 29l-6 14q-4 8 -4 12q-4 11 -17.5 44t-19.5 52l-8 19q-21 65 -41 111l-6 18l-9 16q-2 2 -3.5 6t-2.5 5l4 -5l-8 13l-31 92q-9 13 -24 59l-10 31l-9 21q-2 26 -26 65l-17 39l-20 55v-2l-102 262l-11 23v-2 q-4 12 -10 26q-4 8 -4 13q-9 23 -27.5 65t-25.5 60l-8 18q-26 47 -26 69q0 13 5 25q8 18 27 27.5t37 3.5q27 -9 43 -31l10 -16q9 -23 40 -91t44 -108q2 -6 6 -12l8 -25q10 -10 10 -24l25 -60l43 -106l29 -70l26 -67v2l25 -58q19 -49 49 -133q1 -5 4 -11.5t4 -8.5 q7 -18 15 -51l6 -17q9 -26 14 -35q0 1 -1 4.5t-1 4.5l6 -21l6 -20l4 -13q4 -8 4 -12q9 -26 40 -93t42 -106l9 -20q7 -22 35.5 -85.5t35.5 -102.5l6 -17l7 -14q9 -17 -7 -33q-6 -9 -16 -12q-13 -8 -35 -4q-3 0 -9 1t-9 1l-17 6h-8zM397 494l-2 4z" />
<glyph unicode="]" horiz-adv-x="462" d="M76 1595q-32 0 -52.5 27t-9.5 55q5 17 16 28t28.5 14.5t31.5 4.5t37 0.5t33 -0.5q14 0 20 -2h74l18 -4q35 5 60.5 -21t19.5 -61v-14q2 -47 2 -137q0 -96 -2 -137v-21q1 -9 1 -18.5t-0.5 -21t-0.5 -17.5q-2 -6 -2 -21q-3 -36 4 -78q3 -1 1.5 -38.5t-1.5 -38.5v-27 q-3 -29 0 -57v-97q0 -10 1 -29t1 -28v-39q2 -33 2 -106v-13q2 -63 2 -198v-131q-3 -99 0 -199v-20l-4 -44q0 -2 -1 -7t-1 -7v-20q-2 -6 -2 -21q2 -20 2 -63v-21q0 -29 -1 -87.5t-1 -88.5v-20q-2 -27 -20.5 -40t-38 -14.5t-52.5 0t-44 0.5q-4 0 -12.5 -1t-12.5 -1 q-72 -7 -100 25q-15 19 -10.5 45t26.5 39q14 8 30.5 10t38 0.5t31.5 -0.5q3 0 8.5 1t8.5 1q4 0 11 1t11 1v2q0 2 1 4t1 4q0 13 4 25q1 4 -1 12.5t-1 12.5v14q-2 23 -2 68q0 12 2 18v98q2 6 2 21v41q3 12 3 20v23q-1 21 1 65.5t1 65.5v237q-2 27 -2 103v43q0 97 -5 176 q0 8 -1 33t-1 32q-4 82 -4 125v15q0 19 1.5 79t0.5 93q0 4 1 10.5t1 9.5v60q0 14 2 22v232h-36q-75 0 -93 -5q-10 0 -12 -2h-14zM104 1597h-2l-4 -2z" />
<glyph unicode="^" horiz-adv-x="913" d="M125 793h-4q-35 0 -49 30q-20 30 10 84l35 54l4 4l22 41v-2l11 16q27 38 69 115q49 78 82 131l8 12q10 18 33 51.5t33 50.5v-2q23 59 72 62q14 0 20 -2q25 -5 44 -25t40 -54t31 -46q7 -11 10 -19q32 -55 51 -92h-2l33 -51l72 -119q58 -102 88 -143v2q8 -14 12 -29 q2 -10 2 -24q-3 -23 -22.5 -36.5t-43.5 -15.5q-46 -5 -73 66q0 -1 1 -4t1 -4q-4 5 -13 21t-16 24q-4 8 -8 12l-8 14l-60 93l-32 61l-17 27v-2l-41 77l-33 66q-3 8 -11.5 22t-12.5 21l-2 2q-18 -32 -54.5 -91t-46.5 -75l-47 -78l2 2l-59 -98l-29 -45l2 2l-41 -65l-12 -13 q-33 -28 -51 -28z" />
<glyph unicode="_" horiz-adv-x="757" d="M117 -4h94q125 0 182 4h23q29 2 93.5 -0.5t92.5 0.5q15 0 21 2q4 0 10.5 -1t9.5 -1q86 8 109 -43q4 -8 4 -14q3 -10 0 -17q-1 -6 -11 -20q-20 -16 -49.5 -20t-54.5 -1t-53 0h-92q-3 0 -9.5 -1t-9.5 -1h-18q-20 -2 -60 -2h-18q-10 -1 -39 1.5t-39 -1.5q-26 4 -117 4h-34 q-11 0 -17 -2q-13 1 -27.5 0.5t-30.5 0.5t-29.5 3.5t-25 10.5t-16.5 20q-4 12 -4 23q-1 11 0 20t6 15t10 10t14.5 6.5t15.5 4t18 1.5h17.5t18 -1t15.5 -1z" />
<glyph unicode="`" horiz-adv-x="251" d="M238 1616l6 -10q14 -23 2 -48.5t-39 -31.5q-9 1 -12 -1t-11 2.5t-11 5t-10 6t-9 7.5t-9 8t-8 7l-12 14l-12 14l-15 15q-18 21 -47.5 60.5t-38.5 51.5l-6 15q-4 8 -4 16q-3 32 31 51q12 6 14 6q25 9 43.5 -3t38.5 -42t27 -37l12 -16q8 -8 10 -12q7 -7 10 -13 q32 -36 50 -65z" />
<glyph unicode="a" d="M102 66v141q0 34 4 84q0 8 1.5 28.5t1.5 32.5v43q-4 32 0 78v55q-3 54 2 154v16q0 3 1 8t1 7v129q0 2 1 6t1 6v178q-2 14 -2 43v15q0 3 1 10.5t1 11.5q0 3 1 10.5t1 10.5q1 4 4 28t4 31t5 26.5t8 30t11 25t15 26.5l12 19l17 16l12 15l12 14q52 55 137 72q12 4 19 4 q24 6 71 10h19q127 0 176 -12l14 -4q7 0 15 -4l12 -5h-4l6 -2l27 -10l-2 2l24 -12q24 -11 49 -39q3 -2 15 -14q5 -5 43 -60q7 -9 12 -21.5t7 -20t5 -26t4 -22.5q0 -3 1 -8.5t1 -7.5l6 -29q11 -154 11 -233v-150q0 -4 1 -9.5t1 -8.5q2 -6 2 -27q0 -23 -2 -31q0 -4 -1 -9 t-1 -9v-86q-4 -73 -2 -100q0 -32 -4 -86q-2 -16 -2 -62v-94q0 -19 4 -55q0 -6 1 -19.5t1 -19.5q0 -3 1 -8t1 -7q-1 -4 -1 -9.5t0.5 -12.5t0.5 -10v-17q3 -16 0 -35q0 -3 -1 -9t-1 -9q-6 -31 -36 -43.5t-56 2.5q-24 14 -27 39q-4 8 -4 16q-4 24 -4 35v14l4 43q0 13 -2 19 q0 12 -2 18v189q2 43 2 116v27h-43q-4 0 -11 -1t-10 -1h-57q-3 0 -10.5 1t-10.5 1q-98 0 -147 -2h-49q-13 0 -17 2q-127 0 -170 -6h-2v-227q0 -3 -1 -7t-1 -6v-45q-1 -33 3 -94t4 -68t-3 -16q-2 -24 -20.5 -37t-41.5 -11.5t-44 9.5q-14 7 -23 43q0 2 -1 8t-1 9zM713 631h49 v131q0 53 4 135v18q0 3 1 9t1 8q0 45 -4 139q0 3 -1 10.5t-1 10.5l-4 63l-4 19q-9 30 -23 55q-5 4 -9 10t-8 13.5t-7 11.5l-9 12q-14 23 -59 39l2 -2l-18 6q-71 22 -156 16l-21 -4q-9 -1 -59 -12q-16 -5 -20 -8q-46 -17 -84 -58l-11 -14q-40 -71 -36 -213v-133 q0 -98 -3 -221q0 -7 -1 -21t-1 -20h2q98 -7 164 0h23q90 0 108 -2q17 0 23 -2q70 -3 162 4z" />
<glyph unicode="b" horiz-adv-x="1007" d="M899 461q6 -21 6 -64q0 -47 -6 -84q0 -3 -1 -7.5t-1 -6.5q-4 -14 -14 -63l-6 -23q-3 -14 -9 -25q-4 -8 -8 -10q-5 -16 -26 -49l-13 -14q-18 -23 -26 -29q-61 -36 -76 -47q-9 -6 -43 -16q-2 0 -7 -1.5t-7 -1.5l-76 -16q-13 0 -19 -2l-102 -6h-25q-75 0 -104 -2h-64 q-11 1 -29.5 -1t-34 -1.5t-28.5 8.5q-25 16 -30.5 42t-1 66t3.5 54v84q0 146 -5 231q-2 53 -2 180v105q0 117 2 176v23q-2 29 -2 88v57q0 1 1 3t1 3v10q0 3 -0.5 11.5t-1 25.5t-0.5 39q0 19 2 33q0 9 3 18v21q-3 9 -3 20q-1 27 -2.5 56t11.5 54.5t41 31.5q10 0 16 2h82 q12 0 22 2h86q84 0 111 -2q2 -2 4 -2h12q13 -2 44 -6t53.5 -8.5t42.5 -12.5l12 -4q32 -14 57 -39q6 -3 13 -10q76 -76 94 -138l6 -18q13 -52 16 -96q0 -2 1 -7.5t1 -7.5l2 -4q8 -57 -10 -137q0 -6 -4 -18q-6 -35 -20 -68q0 -4 -4 -12q-4 -12 -11.5 -24t-12 -19.5t-17 -20.5 t-16 -16.5t-19.5 -18.5t-17 -16l-16 -14q48 -14 87.5 -54.5t61.5 -91.5v2q9 -28 11 -38l4 -15l6 -18v-10q0 -5 2 -7q0 -10 2 -12v-12zM764 283q20 79 12 143q0 8 -2 14q-5 31 -8 41l-6 19q-2 6 -6.5 19t-9 22.5t-9.5 17.5l2 -2q-14 31 -35 47l-14 12q-9 3 -18 9l-17 6 q-31 16 -84 16q-7 0 -21 -1t-20 -1q-21 -1 -63 0t-64 0h-129v-76q0 -86 2 -129q2 -63 2 -217v-102h148q94 0 141 8q3 0 10.5 1t10.5 1q12 4 16 4l21 6q49 13 86.5 44.5t48.5 76.5zM274 1225v-453h127q123 0 148 2l41 6l16 6q23 9 31 17q3 1 8 4t6 4q49 36 64 92q4 12 4 15 q4 8 4 12q4 8 4 14q9 24 12 49q9 35 9 68q0 3 -5 33l-6 18q0 6 -4 18q0 9 -4 17l-6 18l-6 17q-15 36 -55 71l-15 13q-3 2 -8 7t-10.5 9t-10.5 6l3 -2q-25 15 -77 16.5t-65 4.5q-14 0 -22 2q-53 2 -144 2l-37 -4v-19q-2 -25 -2 -63z" />
<glyph unicode="c" horiz-adv-x="964" d="M805 444l18 -4q31 -12 37 -49q0 -2 1 -7t1 -7q-4 -19 -5 -37t0 -47.5t1 -36.5l-4 -18q-4 -32 -18 -64v2l-11 -18l-24 -37q-57 -65 -103 -82h2q-9 -7 -28.5 -14t-26.5 -11l-14 -4q-23 -10 -43 -10l-27 -8q-32 -4 -63 -4h-25q-74 6 -164 39l-18 8q-83 36 -150 135l-6 16 q-3 4 -8 17l-6 16q-5 17 -10 57q0 13 -2 19q0 7 -5 37q-2 8 -2 22q0 4 1 12.5t1 12.5v22q-2 39 -2 142q0 55 4 84q-2 8 -2 26v25q0 22 -1 81.5t-1 76.5l2 24q0 52 1 106t1 60q3 12 3 16q4 20 5.5 61t6.5 62q4 12 4 17q20 55 33 98l10 18q42 53 65 76l17 12q72 43 147 58 q13 0 21 2q64 6 123 6q69 0 134.5 -30.5t108.5 -75.5l17 -23q26 -36 37 -75.5t18 -102.5v-58q-1 -22 -5 -36t-21 -27.5t-48 -13.5q-16 0 -26.5 6t-16.5 19t-7.5 18.5t-4.5 19.5q0 2 -1 6.5t-1 5.5v29q-4 86 -29 129t-80 70l2 -2q-47 14 -81 14q-10 0 -68 -4q-3 0 -10 -1 t-10 -1q-76 -12 -117 -35l-15 -10q-32 -22 -41 -60v11q-3 -13 -12.5 -42.5t-15 -52t-6.5 -43.5q0 -12 -2 -18q-2 -25 -2 -74v-14q0 -8 -2.5 -22.5t-2.5 -20.5v-92q-2 -29 -2 -84v-21q-5 -22 -2.5 -78.5t0.5 -78.5q0 -17 -2 -23v-51q0 -10 -0.5 -28t-0.5 -29t1 -26.5t4 -29.5 v-14q0 -10 -2 -16q0 -11 2 -17v-16l11 -47l2 -8l4 -13q1 -9 4 -18.5t8.5 -20t8.5 -16t11.5 -19t10.5 -16.5v2q10 -12 26 -22l17 -9q22 -11 59 -22l21 -6q32 -13 78 -13q8 0 38 5q33 4 95 28v-2q41 14 71 56l13 22v-2q16 20 19.5 46t1 60.5t-0.5 51.5l6 20q5 14 8 19 q3 10 9 16q16 22 53 18zM242 287q2 0 2 -2z" />
<glyph unicode="d" horiz-adv-x="1007" d="M905 641v-143v-21q-1 -15 -1 -31.5t0.5 -37t0.5 -31.5v-19q-12 -81 -39 -161l-10 -19q-18 -33 -31.5 -54t-37 -45.5t-50.5 -39.5l-18 -8q-34 -18 -76 -27l-18 -4q-4 0 -11 -1t-10 -1q-14 -2 -55 -2q-1 0 -4 -1t-6 -1h-39q-82 0 -156 4h-92q-8 -4 -23 -4h-30 q-25 -3 -43 22q-18 30 -4 74l12 14v21q0 5 -3 45t-3 61v68q0 88 2 133v29q0 1 1 6t1 10v94q0 1 -1 6t-1 9v47q0 94 2 147v289q0 82 2 125q0 8 1 29.5t1 33.5v19q2 16 2 57q-12 12 -12 35q0 26 17.5 44t43.5 18h2q11 8 29 8q8 0 14 -2q28 4 47 4h21q51 4 159 -2q1 0 3.5 -1 t3.5 -1q40 -4 55 -4q14 0 20 -2h21q9 0 18 -3q2 0 8 -1t9 -1q8 -3 45.5 -15.5t56.5 -20.5l19 -11q20 -10 53 -39l16 -16q28 -40 31 -45l8 -16q27 -47 35 -154v-25q4 -20 5.5 -44.5t1.5 -41.5t-0.5 -47t-0.5 -43v-18q2 -35 4 -103.5t4 -103.5v-41zM778 547q-2 37 -2 108v21 q-2 6 -2 18q-1 32 -5 96t-5 95v20q0 8 1 67.5t-5 65.5v21q-1 8 -3 36.5t-4 41.5t-6 35t-12 38t-20 31l-10 10q-2 5 -11 9q-2 2 -8 5.5t-8 4.5l-16 4q-4 2 -15 2q-31 16 -98 24q-9 3 -21 3q-1 0 -6 1t-6 1q-4 2 -35 2q-40 6 -106 6q-51 0 -80 -4v-195q0 -25 -1 -71.5 t-1 -69.5q-4 -192 -4 -291v-309q-2 -35 -2 -92q0 -60 2 -95v-55q7 0 21 -1t20 -1v-2h28q58 -4 117 -4h21q25 2 73 2h37l19 4q16 4 24 8q9 2 23 13q20 11 47 38v-2q26 44 53 136q-2 -2 -2 -5q0 9 4 17q1 3 1 8.5t1 7.5v17q-1 17 0.5 45t1.5 37v98z" />
<glyph unicode="e" horiz-adv-x="997" d="M754 1440h63q30 0 51 -13l-2 3q29 -18 29 -62q-4 -19 -10.5 -30.5t-17.5 -16t-19 -5.5t-25 -1h-67q-44 0 -60 2h2q-26 1 -75 -0.5t-60 -1.5h-33q-13 0 -18 2q-3 0 -10 1t-10 1q-16 2 -54 2h-37q-2 0 -7.5 1t-8.5 1h-39q-1 0 -4 1t-4 1h-37q-8 -2 -27 -2q-2 -35 -2 -106 q0 -50 4 -152v-64q0 -8 1.5 -22t1.5 -21q4 -39 0 -71v-88l200 -6h10q29 -2 90 0t91 0h8q48 0 65 -33q15 -36 -2 -68q-6 -9 -12 -12q-23 -17 -55 -14l-19 4q-55 -2 -161 -2h-109q-3 0 -9 1t-9 1q-54 0 -72 2h-12v-41q0 -3 -1 -7t-1 -6v-30q0 -1 -1 -6.5t-1 -6.5 q-3 -15 -3 -30v-37q0 -2 1.5 -6t1.5 -6q-3 -52 -3 -101q0 -5 -1 -15t-1 -15v-72q0 -19 2 -23v-88v-55h93q23 1 102 -0.5t102 2.5q8 -2 23 -2q44 0 90 -6h23q16 -1 33.5 -1t40 0.5t34.5 0.5q2 0 6 -1t6 -1q22 -6 43 -27q11 -28 11 -41q-9 -33 -43 -47q-12 -4 -19 -4 q-12 -4 -39 -4q-3 0 -10 3t-10 3q-18 -6 -63.5 -1t-63.5 3h-17q-24 0 -36 -2h-19q-37 -2 -114 2h-82q-18 -4 -68 -4h-33q-1 0 -3 -1t-3 -1h-24q-15 0 -23 2q-8 0 -16 4q-24 9 -35 31t-11.5 41.5t1 51t0.5 44.5v53q-10 66 2 197v18l-4 90v21q-4 145 2 219v14q-2 0 -1 20l1 21 v39q3 85 -5 197q-4 90 -4 149q0 70 2 95v53q0 2 2 2q-5 58 33 76.5t96 9.5h3q10 2 34 2h52q82 -4 116 -4q24 0 71 1.5t81 1t67 -4.5q16 -2 54 -2z" />
<glyph unicode="f" horiz-adv-x="997" d="M866 1430q29 -18 29 -62q-4 -19 -10.5 -30.5t-17.5 -16t-19 -5.5t-25 -1h-67q-44 0 -60 2h2q-26 1 -75 -0.5t-60 -1.5h-33q-13 0 -18 2q-3 0 -10 1t-10 1q-16 2 -54 2h-37q-2 0 -7.5 1t-8.5 1h-39q-1 0 -4 1t-4 1h-37q-8 -2 -27 -2q-2 -35 -2 -106q0 -50 4 -152v-64 q0 -8 1.5 -22t1.5 -21q4 -39 0 -71v-88l200 -6h10q29 -2 90 0t91 0h8q48 0 65 -33q15 -36 -2 -68q-6 -9 -12 -12q-23 -17 -55 -14l-19 4q-55 -2 -161 -2h-109q-3 0 -9 1t-9 1q-54 0 -72 2h-12v-41q0 -3 -1 -7t-1 -6v-30q0 -1 -1 -6.5t-1 -6.5q-3 -15 -3 -30v-37q0 -2 1.5 -6 t1.5 -6q-3 -52 -3 -101q0 -5 -1 -15t-1 -15v-72q0 -19 2 -23v-43q-2 -6 -2 -20v-33q0 -88 -10 -131l-6 -18q-2 -9 -12 -19q-6 -6 -17 -10q-22 -9 -45 0t-32 29t-9 57q0 12 2 18q0 20 2.5 59t2.5 58q0 11 -3 23q0 29 -2 45v18q0 31 9 119v18l-4 90v21q-4 145 2 219v14 q-2 0 -1 20l1 21v39q3 85 -5 197q-4 90 -4 149q0 70 2 95v53q0 2 2 2q-5 58 33 76.5t96 9.5h3q10 2 34 2h52q82 -4 116 -4q24 0 71 1.5t81 1t67 -4.5q16 -2 54 -2h63q30 0 51 -13z" />
<glyph unicode="g" horiz-adv-x="976" d="M872 68q5 -21 -2.5 -40t-25.5 -28q-6 -6 -15 -6q-20 -7 -38 0q-6 3 -13 10q-8 8 -10 14q-7 12 -9.5 26t-3 32.5t-1.5 27.5q-30 -34 -52 -45h3q-24 -17 -43 -28l-15 -11q-70 -32 -174 -32q-3 0 -9 1t-9 1l-35 6q-7 0 -19 4q-55 9 -114 37l-15 6q-65 37 -108 94 q-9 13 -10 17l-13 16l-6 16q-3 4 -8 17l-6 16q-5 17 -10 57q0 13 -2 19q0 7 -5 37q-2 8 -2 22q0 4 1 12.5t1 12.5v22q-2 39 -2 142q0 55 4 84q-2 8 -2 26v25q0 22 -1 81.5t-1 76.5l2 24q0 52 1 106t1 60q3 12 3 16q4 20 5.5 61t6.5 62q4 12 4 17q20 55 33 98l10 18 q42 53 65 76l17 12q72 43 147 58q13 0 21 2q64 6 123 6q69 0 134.5 -30.5t108.5 -75.5l17 -23q26 -36 37 -75.5t18 -102.5v-58q-1 -22 -5 -36t-21 -27.5t-48 -13.5q-16 0 -26.5 6t-16.5 19t-7.5 18.5t-4.5 19.5q0 2 -1 6.5t-1 5.5v29q-4 86 -29 129t-80 70l2 -2 q-47 14 -81 14q-10 0 -68 -4q-3 0 -10 -1t-10 -1q-76 -12 -117 -35l-15 -10q-32 -22 -41 -60v11q-3 -13 -12.5 -42.5t-15 -52t-6.5 -43.5q0 -12 -2 -18q-2 -25 -2 -74v-14q0 -8 -2.5 -22.5t-2.5 -20.5v-92q-2 -29 -2 -84v-21q-5 -22 -2.5 -78.5t0.5 -78.5q0 -17 -2 -23v-51 q0 -10 -0.5 -28t-0.5 -29t1 -26.5t4 -29.5v-14q0 -10 -2 -16q0 -11 2 -17v-16l11 -47l2 -8l4 -13q0 -4 4 -16q4 -17 19.5 -46.5t17.5 -33.5v4q7 -10 18.5 -17.5t18 -11t24 -10.5t21.5 -8q12 -4 18 -4q30 -10 76 -17h18q59 0 125 27l17 6v-2q69 37 84 78v-2q9 13 10 18l6 15 l4 22v39q0 3 1 9.5t1 9.5l8 96v20q3 10 0 19q2 6 2 20q4 90 4 135q-3 0 -9 1t-9 1h-18q-21 3 -43 3h-15q-7 1 -82 -5h-16q-16 -3 -29 0q-3 0 -7.5 1t-6.5 1q-27 3 -43.5 27t-9.5 51q10 32 43 39l20 4q32 3 92.5 -1t85.5 -3h17q20 4 33 4h14l45 -4q27 -2 44 -18.5t17 -42.5 v-8q0 -133 -4 -199q-2 -8 -2 -23q-4 -110 -8 -165v-64q1 -14 1.5 -42t3 -50t9.5 -41zM244 285l-2 2q2 0 2 -2z" />
<glyph unicode="h" horiz-adv-x="1112" d="M145 999v103q0 39 2 51q0 6 1.5 21.5t1.5 21.5q4 73 0 107q2 39 2 57v10q-7 31 13 54.5t52 23.5q35 0 53 -41q0 -3 1 -7.5t1 -6.5q2 -8 2 -41q0 -24 -2 -27q0 -29 2 -33v-55q-8 -109 -8 -283v-151v-27h15q56 0 196 4h195q76 6 159 6v37l3 97v8q0 1 -1.5 3t-1.5 3v10 q3 40 3 70v12q0 2 1 7t1 9v19q3 50 0 94q0 6 -1 21t-1 22v186q0 38 8 48q31 31 80 18q10 -1 21.5 -14t14.5 -25q3 -15 3 -22q0 -5 -1.5 -12t-1.5 -9q-2 -6 -2 -20v-41q-1 -2 0.5 -6t1.5 -5q3 -12 3 -28v-54q2 -20 2 -57q0 -64 -2 -82v-96q2 -43 -5 -107q0 -2 -1 -7t-1 -7 v-53v4q8 -49 4 -117q0 -3 -1 -8t-1 -8q-7 -44 -4 -78l2 -27q0 -1 1 -5t1 -9v-147q5 -44 5 -99v-47q0 -2 -1.5 -7t-1.5 -7q1 -29 5.5 -88.5t5.5 -89.5v-19q-2 -6 -2 -16l-4 -10q-5 -8 -9 -19l-12 -14q-5 -6 -11.5 -8.5t-15.5 -1.5t-14.5 2t-16.5 4t-14 4q-23 10 -26 33 q-2 6 -2 18v41q-2 26 -1 80t-1 80v59l-4 47l-2 35v55q2 20 2 74q-2 8 -2 39q-3 6 -3 23v53q0 21 -2 31q-159 0 -262 -7q-5 0 -14.5 -1t-13.5 -1h-236l-2 -2h-33q-4 -41 4 -125v-90l-2 -71q2 -21 2 -150q0 -14 2 -20q0 -3 1 -10t1 -11v-33q0 -9 3 -18q-7 -25 -3 -49.5t-2 -50 t-28 -37.5q-21 -11 -46.5 -7t-37.5 23q-6 9 -9 21.5t-3.5 20t0 23.5t0.5 21v27q4 31 0 94v18q-2 24 -1.5 74.5t-1.5 75.5q3 9 3 20q2 27 2 80v19q0 2 -1 4.5t-1 5.5v33q0 14 -3 32q0 4 -1 15.5t-1 15.5v162q0 6 -1 17.5t-1 17.5v63q0 98 2 137z" />
<glyph unicode="i" horiz-adv-x="419" d="M272 174q-2 -2 -2 -6q-5 -45 -4 -53v-43q0 -17 -2 -23q0 -20 -9 -37t-26 -18q-28 -4 -53 4t-29 33v20q0 13 2.5 62.5t0.5 76.5q2 6 2 19q4 64 2 94v131q-2 8 -2 21q1 18 -2 52t-3 48v4q-2 12 1 34t2 32q0 3 -1.5 9t-1.5 9q-4 70 -4 109v120q2 55 2 136v127q0 20 2 28 q0 4 1.5 11.5t1.5 11.5v14q0 2 1 6t1 6v62q1 16 -1.5 43.5t-2 50t7.5 41.5q12 26 42.5 34t53.5 -9q3 -2 8 -11q12 -15 12 -43v-204q-2 -53 -2 -156v-39q0 -12 -2 -18l-2 -7v-155q0 -52 4 -146v-20q-3 -78 4 -176v-133q-3 -18 0.5 -60.5t-2.5 -60.5q-6 -15 0 -31z" />
<glyph unicode="j" horiz-adv-x="989" d="M844 709q0 -1 1 -5t1 -6v-73q0 -48 -2 -62v-16q-4 -32 -4 -98q0 -2 -1 -5.5t-1 -5.5v-37q-4 -16 -4 -34q0 -2 -1.5 -6.5t-1.5 -6.5v-16q0 -17 -2 -25q-7 -66 -22 -112l-6 -15q-6 -17 -37 -69q1 0 2 1t2 1q-40 -44 -57 -58q-7 -7 -13 -10q-49 -39 -133 -53q-12 0 -20 -2 q-57 -9 -128.5 -8.5t-125.5 22.5l-15 6h3q-28 10 -60 31l-16 14l-15 13l-14 12q-48 56 -59 96v-2q-4 20 -4 29q0 10 -2 14q0 9 -3 15q-4 12 -4 24v21l2 116q2 2 2 0v43q0 4 -1.5 31t4.5 31q10 21 36 30t52 3q3 -1 8 -4.5t6 -4.5q37 -31 20 -100q0 -3 -1 -8t-1 -8 q0 -11 -0.5 -32t-0.5 -38t1 -33v-20q-1 -11 1.5 -23t6.5 -25.5t5 -21.5l-2 2q4 -6 8 -18v2q3 -4 9.5 -15t11 -17t12 -12.5t16.5 -10.5q15 -10 18 -11q23 -13 56 -20l18 -4q57 -6 119 4q16 4 22 4q8 2 23 5.5t24.5 5.5t22 7t21.5 11q8 4 12 8q19 11 35 33v-3q2 6 9.5 22 t8.5 26l6 16q4 15 8 49q2 8 2 21q4 27 5.5 80.5t5.5 80.5q2 6 2 19q0 1 1 4.5t1 5.5v256q-2 6 -2 21q-4 4 -4 22v10q-6 73 -6 174q0 23 -3 47v269q-28 0 -38 2h-80q-3 0 -11 1t-12 1h-219q-6 0 -12 2l-17 6q-42 10 -34 70q3 19 14 31t29 12q6 2 18 2h299q48 0 66 -4h16 q73 4 98 -15q9 -6 12 -14q11 -31 6.5 -122t-1.5 -124v-20q0 -15 -2 -23v-22q0 -7 -1.5 -22t-1.5 -23v-33q3 -9 3 -17q4 -50 4 -86v-73q0 -1 1 -1q1 -1 1 -3q2 -10 2 -43v-29l2 -8v-49z" />
<glyph unicode="k" horiz-adv-x="1052" d="M987 221l4 -18v-19q0 -12 -2 -18q-7 -66 -43 -105q-2 -4 -10 -12q-37 -37 -90 -50.5t-103 3.5q-12 3 -22 8q-32 13 -53 43l-13 17q-6 4 -14 16q-28 40 -57 111l-6 18q-10 31 -21 55q0 9 -4 21l-16 57l-5 19l-6 16q0 6 -4 18l-12 56q0 4 -4 20q-24 112 -47 162 q-3 11 -17 33l-6 8q-1 1 -3.5 4t-5 5.5t-5.5 4.5v2l-8 4l-13 9l-8 -4q-14 -21 -31 -35l-47 -52q-16 -20 -22 -32q-18 -18 -23 -40.5t-3 -56t1 -45.5v-102q2 -23 2 -84v-18q-1 -16 -1 -34t0.5 -40.5t0.5 -34.5t2 -16q0 -40 -2 -58l-6 -20q-3 -19 -19.5 -30t-37.5 -13 q-21 -1 -36.5 12.5t-20.5 34.5q0 3 -1.5 9t-1.5 9q-3 20 0 37v17q0 33 -2 49v-4q-1 19 0.5 53t1.5 45v16q3 31 0 62q0 18 -2 24q0 2 -1 6.5t-1 6.5v112v115v127q0 39 2 57v119q-2 23 -2 78v76q2 23 2 57v174q3 16 -0.5 53t1.5 63t28 40t54 5.5t38 -36.5q9 -13 6 -63.5 t-2 -63.5v-127q-4 -113 -2 -170v-18q-1 -9 0.5 -25.5t1.5 -21.5v-17q-4 -57 -4 -170l10 10v-2q27 39 76 95q2 4 10 12l19 24l14 17l11 14l12 15q8 8 10 14q13 15 32.5 45.5t31.5 44.5h-3l25 29l12 14l13 14l14 17q52 60 57 67l25 33l12 14l12 17l13 20l14 23l10 14l13 17 l20 30l-2 -2q36 74 84 107q9 6 20 6q34 11 56 -17q8 -8 10 -12l6 -20q0 -15 -2 -21q-7 -23 -18 -43q-11 -17 -40 -53t-42 -59l-13 -19q0 -1 -3.5 -5.5t-4.5 -8.5q-12 -13 -75 -107l-13 -14l-8 -10l-10 -13l-37 -45l-12 -16q-14 -24 -56 -72t-57 -78l-12 -14l-13 -14 q-2 0 -2 -2q34 -24 58 -58q35 -50 63 -159l10 -37q0 -4 5 -19q0 -2 12 -55l6 -18l12 -39l4 -21q18 -55 33 -108l6 -17q2 -10 23 -57l8 -20q17 -38 27 -52l12 -12q8 -8 14 -10q44 -12 78 26q3 5 8 19q2 4 2 14q2 18 -6 51q-6 27 13.5 47.5t46.5 22.5q29 1 48 -23.5t19 -54.5z " />
<glyph unicode="l" horiz-adv-x="886" d="M266 -10h-24q-33 -5 -60.5 8t-27.5 43q0 1 6 55v23q2 90 2 268v94q-2 47 -2 160q0 156 -6 240v49q0 3 -1 8.5t-1 9.5q-7 60 -7 166v199q1 10 -1.5 42.5t4 51.5t28.5 29q28 12 56 -4.5t34 -45.5q3 -11 4 -23t1 -27t1 -23v-115q-4 -47 -4 -133l8 -143l7 -152q0 -19 2 -25 q0 -3 1 -8t1 -8v-143q4 -126 4 -234q0 -53 -2 -76v-69l-1 -3q-1 -4 -1 -9v-74h2q3 0 8.5 1t7.5 1h119q3 0 108 -6h19q65 0 158 14q3 0 10 1t10 1l21 -4q30 -4 44 -30t9 -58q-3 -15 -11 -24t-21 -13t-23.5 -5t-26.5 -1h-19q-116 -5 -137 -4h-108q-2 0 -4.5 1t-3.5 1 q-18 2 -48 2q-21 2 -61 -2q-8 0 -12 -2h-15q-3 0 -24 0.5t-23 -4.5z" />
<glyph unicode="m" horiz-adv-x="1480" d="M1329 637q0 -15 -2 -21q-1 -13 0.5 -39.5t1.5 -33.5q2 -6 2 -17v-22q2 -32 0.5 -104.5t1.5 -104.5q0 -15 2 -21q-5 -144 -2 -186v-22q-4 -42 -16 -64q-8 -8 -17 -8q-84 -15 -94 29q-4 12 -4 20q0 2 -1 6t-1 6q11 105 2 221q0 3 1 10.5t1 10.5q0 24 -1 73.5t-1 75.5v54 l4 184q0 15 -2 21v36q-2 6 -2 19v18q5 176 4 211v121l-67 -178l-31 -76l-6 -18l-8 -19q-5 -12 -13 -35.5t-15.5 -43t-14.5 -35.5q-5 -8 -9 -19q-7 -15 -20 -55l-4 -13q-1 -6 -4 -14.5t-4 -11.5q-4 -11 -9 -19q-27 -62 -49 -129l-6 -18q-14 -29 -35 -91.5t-34 -92.5 q-3 -3 -9 -15q-4 -12 -8 -16q-4 -12 -8 -18l-6 -17l-17 -37q-6 -18 -8 -22q-4 -9 -11.5 -29.5t-13.5 -36t-15 -31t-21.5 -22.5t-28.5 -4q-4 0 -20 8q-22 19 -37 67.5t-25 63.5l-8 19l-12 32q-2 3 -11.5 22l-12 24t-10.5 22t-11 24.5t-9.5 22.5t-9.5 25t-6.5 23.5t-5.5 25.5 l-6 18q-41 120 -70 182l-6 19q-5 9 -8 26q-4 8 -4 13l-21 55q-3 5 -8 19q-8 19 -22.5 57.5t-22.5 56.5l-6 19l-8 18q-23 59 -29 76q-14 34 -37.5 97.5t-30.5 80.5v-121q-1 -18 5 -211q-3 -9 -3 -18v-92q-1 -17 5 -187v-43q3 -120 0 -209q0 -4 -1 -10.5t-1 -9.5 q-3 -12 -3 -23q-2 -8 -2 -28q0 -9 2 -15q-1 -13 1.5 -48t1.5 -52q0 -5 -5 -20q-10 -44 -94 -29q-8 0 -16 8q-13 23 -16 52t-1.5 68t0.5 56v19q-2 12 -2 39v38q1 17 4.5 53t4 53.5t-3.5 53.5q0 7 -1.5 20t-1.5 19q0 55 7 123v20q-2 6 -2 21q0 2 -1 7t-1 7v35q-3 6 -3 23v28 q0 66 -2 101v18q-2 10 -1.5 26.5t-0.5 26.5v37q0 57 2 82v170q0 2 1 12t1 17v47q0 2 1.5 7t1.5 7q-9 84 8 125l10 14q26 15 57 15.5t54 -19.5l10 -14q2 -4 14 -33l12 -28q16 -28 21 -45l6 -13l8 -26q5 -17 15.5 -48.5t13.5 -39.5q12 -29 33.5 -86.5t31.5 -83.5q9 -27 15 -39 l4 -13l8 -16l6 -18q29 -95 58 -160l20 -41q12 -26 30 -81t29 -81l17 -39q2 -6 7.5 -20t8.5 -21l6 -16q3 -14 13 -31q0 -4 4 -16l6 -15l6 -18l12 -33q9 -15 27 -67l10 -21l8 -22l11 22q11 26 16 43l6 14l6 17l17 39l4 14q17 37 42.5 110.5t39.5 106.5l10 21q3 7 13 26.5 t14 30.5q4 12 8 18q20 49 26 78q4 6 9 21q26 65 43 121l6 18l6 16l6 13l14 39l64 170l6 16q4 8 4 14q40 93 47 111l6 18q5 9 16 33t18.5 37.5t23 26t34.5 12.5q2 0 7.5 -1t7.5 -1q25 -3 43 -15q2 -2 8 -14q12 -25 12.5 -62.5t-2.5 -62.5q0 -2 1 -7t1 -7v-47q0 -7 1 -17 t1 -12v-170q2 -25 2 -82v-37q-1 -7 -0.5 -26.5t-1.5 -26.5v-18q-2 -35 -2 -101v-28q0 -19 -2 -23v-33q-2 -6 -2 -16z" />
<glyph unicode="n" horiz-adv-x="1144" d="M1001 334q-2 -10 -2 -31t2 -31q0 -139 -6 -209v-20q-7 -33 -32 -45l-19 -6q-14 -1 -28 3t-23.5 9.5t-22 18.5t-18 19.5t-18 24t-15.5 21.5q-9 14 -10 16q-12 23 -21 35l-24 41l-10 15q-2 6 -10.5 23t-10.5 26v-4q-4 20 -14.5 40t-25 43.5t-21.5 36.5q-2 2 -5 8.5t-5 8.5 q-4 10 -16 32.5t-17 36.5l-8 19q-36 88 -82 160q-6 9 -9 18l-8 19l-6 16l-8 14q-26 52 -74 174q-1 1 -8 15l-8 16l-8 18q-1 1 -56 115l-6 14l-12 31q-45 93 -55 111q-1 3 -4.5 8t-4.5 6v-24q-2 -53 -2 -156v-39q0 -12 -2 -18l-2 -7v-155q0 -52 4 -146v-20q-3 -78 4 -176 v-133q-4 -21 0 -62q0 -3 1 -9t1 -9q2 -14 -2 -40.5t-4 -35.5q0 -15 -2 -48t-2 -50t-2 -23q0 -20 -9 -37t-26 -18q-28 -4 -53 4t-29 33v55q5 29 5.5 83.5t1.5 72.5v192q-2 8 -2 21q1 18 -2 52t-3 48v4q-2 12 1 34t2 32q0 3 -1.5 9t-1.5 9q-4 70 -4 109v120q2 55 2 136v127 q0 20 2 28q0 4 1.5 11.5t1.5 11.5v14q0 2 1 6t1 6v78q0 9 -1 33t-1.5 38t3 34.5t10.5 31.5t22 18.5t38 6.5q13 0 17 -2q33 -10 43 -43l16 -27l10 -12q3 -7 49 -90l13 -16q13 -30 43 -91.5t43 -91.5l18 -37q6 -13 18.5 -35.5t22 -41t16.5 -35.5l9 -21q39 -92 71 -161l9 -17 l12 -33q4 -6 8 -18q36 -56 78 -154l8 -16l8 -16q5 -4 8 -15q23 -33 37 -65l11 -17q5 -11 24.5 -46t26.5 -56v2v-4v2l2 -2q2 -4 7.5 -19.5t12.5 -21.5l6 -12l9 -11q0 6 1 20t1 21v172q-2 8 -2 21q1 18 -2 52t-3 48v4q-2 12 1 34t2 32q0 3 -1.5 9t-1.5 9q-4 70 -4 109v121 q2 55 2 135v127q0 20 2 28q0 4 1.5 11.5t1.5 11.5v14q0 2 1 6.5t1 6.5v61q1 16 -1.5 43.5t-2 50t7.5 41.5q12 26 42.5 34t53.5 -9q4 -2 8 -10q12 -15 12 -43v-205q-2 -53 -2 -156v-39q0 -12 -2 -18l-2 -6v-156q0 -51 4 -145v-21q-3 -78 4 -176v-133z" />
<glyph unicode="o" horiz-adv-x="1011" d="M909 498q-2 -9 -4 -19q-7 -12 -5 -53t1 -53q0 -3 -1 -9t-1 -8q0 -14 -2 -20q0 -16 -6 -31q0 -2 -1 -7t-1 -7q-4 -24 -12 -37l-7 -18q-54 -107 -108 -156l-17 -14q-12 -9 -26.5 -17t-25 -13.5t-29 -12t-26.5 -9t-30.5 -9.5t-27.5 -9h4q-7 -3 -21 -3.5t-20 -2.5h-60 q-77 -2 -151.5 28.5t-128.5 85.5l-17 17l-18 24l-8 15q-23 48 -49 182v23q0 8 -5 43v20q-2 8 -2 21v24l2 23q0 3 1.5 9.5t1.5 10.5l2 115q0 16 -2 18l-3 72q-2 3 -2 18l2 78h3q0 23 4 47v21q0 2 1 6t1 6q0 33 2 45l2 37q2 18 2 55q0 6 1 17.5t1 17.5q2 6 2 16q0 7 1 20t1 19 q2 8 2 21q17 77 18 80q5 15 5 16q1 2 6 16q30 74 86 119q4 4 12 8q22 17 33 23l16 10q10 4 31.5 8.5t28.5 6.5l-3 -2q25 8 78 12q3 0 12 1t13 1h115q1 0 3.5 -1t4.5 -1q16 1 43.5 -5t38.5 -7q8 -3 18 -7l19 -6l16 -6l18 -10l17 -10q28 -31 46 -52.5t38.5 -54t31.5 -63.5 q0 -3 1.5 -8.5t1.5 -8.5l6 -37q0 -4 1 -11t1 -11q2 -6 2 -17q0 -3 1 -9t1 -9q5 -82 4 -98q0 -3 1 -9.5t1 -9.5q2 -31 2.5 -90.5t1.5 -77.5q2 -6 2 -18q4 -49 2 -74q0 -14 2 -20v-95q2 -12 2 -38v-21q1 -8 0.5 -30.5t1.5 -30.5zM780 481q-2 2 -2 4q2 8 2 47v21q-2 20 -2 63 v21q-2 51 -4 86q0 5 -1 12t-1 8q0 15 -1 43t-1 43q0 4 -1 12t-1 11q4 27 4 82v22q4 53 1.5 120.5t-21.5 115.5l-13 18q-2 4 -12.5 21t-15 24.5t-14 18.5t-19.5 18q-5 3 -19 8l-20 7l-21 4q-106 26 -172 8q-12 0 -18 -2q-6 0 -22 -4q-72 -10 -107 -68q-9 -14 -10 -16l-10 -21 l-4.5 -9t-4.5 -11q-18 -53 -24 -107q0 -3 -1 -9t-1 -9q-2 -16 -2 -53q0 -40 -4 -68v-70q0 -46 -7 -81v-35q-2 -50 5 -107l-5 -182q0 -3 1 -7.5t1 -6.5v-39q0 -27 3 -54q0 -12 2 -20q9 -81 69 -162l19 -14q74 -55 159 -49q8 2 78 2h12q10 1 30.5 7t25.5 7l16 8l17 8l16 19 l14 18q32 36 45 70l9 14q9 20 12 47q0 3 1 10.5t1 10.5z" />
<glyph unicode="p" horiz-adv-x="1015" d="M907 1106v-8q0 -2 2 -6v-29q4 -25 4 -76q0 -53 -12 -106l-22 -52q-5 -6 -7 -12q-4 -8 -8 -12l-6 -12q-31 -36 -39 -43l-12 -15q-54 -48 -127 -73q-15 -5 -21 -5q-33 -10 -61 -10q-6 -2 -16 -2q-11 0 -17 -2h-18l-31 -2h-246v-14q0 -39 2 -62v-33h2q4 -59 0 -118v-162 q0 -3 1 -9.5t1 -9.5q0 -96 -6 -135v-41q0 -16 -2 -24q-4 -25 -31 -36t-53 -3q-30 10 -37 47q0 3 -1 8t-1 8q0 10 4 73t3 97v271q0 2 -1 5t-1 5v213q-6 29 -5 78t0 78v61q-2 20 -2 70v67q4 31 4 90v23q5 32 5.5 93t1.5 81q0 6 4 18q6 29 26 43q28 9 54 9h12q38 2 105.5 2.5 t88.5 1.5h25q121 0 174 -15l21 -6q66 -19 108 -53q118 -100 129 -207l2 -2v-14q0 -5 1 -12t1 -9q0 -3 1 -6.5t1 -5.5zM786 995q3 19 0 31v31q-4 123 -55 176q-4 6 -16 14q-7 7 -19 15l-12 6q-12 8 -47 26l-19 6q-52 17 -151 13h-51q-21 0 -29 -2q-15 -5 -47 -0.5t-47 0.5 q-2 0 -11 -1t-10 -1q-1 -7 0 -22.5t0 -22.5v-31q0 -8 -1 -23.5t-1 -23.5v-76q-6 -111 -6 -225v-117q25 -2 64 -2h213q27 0 41 2h18q33 2 80 25l14 8q3 2 11.5 7.5t11.5 8.5q51 37 67 146q0 10 2 14v18z" />
<glyph unicode="q" horiz-adv-x="1015" d="M905 475v-18q6 -50 -4 -107q0 -2 -1 -7.5t-1 -8.5q0 -11 -2 -15q0 -4 -4 -16q0 -2 -1 -7t-1 -7q-4 -24 -12 -37l-7 -19q-53 -105 -108 -155l-16 -15q-42 -29 -95 -45l4 -4q1 -2 4 -5t4.5 -5.5t2.5 -5.5l12 -14q25 -28 92 -125q7 -10 14 -15l21 -22l8 -10q22 -40 -8 -74 q-17 -15 -41 -16t-43 14q-8 4 -10 8q-4 2 -8 10q-7 7 -13 10l-12 15q-36 41 -84 110q-3 3 -8 13l-8 10q-10 15 -15 20q-4 4 -4 7l-8 8l-39 43h-33q-59 -4 -168 37l-20 10q-51 28 -88 65l-17 17l-18 24l-8 15q-23 48 -49 182v22q0 16 -4 44v20q-3 12 -3 20v25q-7 87 3 209v49 q-4 35 2.5 99t5.5 90q0 16 2 22l2 37q2 18 2 55q0 6 1 17.5t1 17.5q2 6 2 16q0 7 1 20t1 19q2 8 2 21q14 63 19 80q4 12 4 16q1 2 6 16q30 74 86 119q4 4 12 8q22 17 33 23l16 10q10 4 31.5 8.5t28.5 6.5l-2 -3q30 9 77 13q3 0 12 1t13 1h115q1 0 3.5 -1t4.5 -1 q11 1 22 -0.5t24.5 -5t20.5 -4.5q9 0 15 -3q69 -22 155 -116l11 -17q31 -49 39 -75q0 -3 1 -8.5t1 -8.5l6 -37q0 -4 1 -11t1 -11q2 -6 2 -17q0 -3 1 -9t1 -9q5 -82 4 -98q0 -3 1 -9.5t1 -9.5q2 -31 2.5 -90.5t1.5 -77.5q2 -6 2 -18q4 -50 2 -74q0 -14 2 -20v-95q0 -2 1 -7 t1 -7v-35q2 -22 2 -31t-2.5 -30.5t-3.5 -30.5zM780 479q-3 15 0.5 45t1.5 45q0 11 -2 17v49q-2 51 -4 86q0 5 -1 12t-1 8q0 15 -1 43t-1 43q0 4 -1 12t-1 11q4 27 4 82v22q4 53 1.5 120.5t-21.5 115.5l-13 18l-8 17l-10 14q-39 55 -125 76l-20 4q-72 13 -129 -2 q-13 0 -19 -2q-6 0 -22 -4q-72 -10 -107 -68q-9 -14 -10 -16l-10 -21l-4.5 -9t-4.5 -11q-18 -53 -24 -107q0 -3 -1 -9t-1 -9q-2 -16 -2 -53q0 -40 -4 -68v-70q0 -47 -7 -82v-71q0 -45 3 -92q0 -13 2 -19l-5 -92v-49q0 -3 1.5 -7.5t1.5 -6.5v-39q0 -36 2 -54q0 -12 2 -20 q9 -81 69 -162l19 -14q27 -18 37 -23l20 -8q2 -1 9 -4t12 -4q15 -7 28 -10q9 0 21 -4q35 -6 69 -3l11 5q8 2 24 2h2q12 4 25 4l18 6q6 0 14 4q2 0 7.5 1t7.5 1l33 16l16 19l14 18q32 36 45 70l9 14q9 20 12 47q0 3 1 10.5t1 10.5q4 34 8 53q0 8 2 12q1 6 3 19t3 23.5t0 19.5 v18z" />
<glyph unicode="r" horiz-adv-x="1054" d="M993 197v-58q0 -3 -1 -8t-1 -8q-10 -27 -24 -49l-13 -17q-40 -44 -103.5 -57t-115.5 18l-18 13q-52 44 -76 131q-7 27 -27 157l-18 101q0 3 -1 8.5t-1 7.5l-4 19q-16 72 -76 145l-14 12q-2 2 -9 6t-8 5q-29 16 -106 20q-6 -2 -19 -2h-88v-14q0 -39 2 -62v-33h2 q4 -59 0 -118v-162q0 -3 1 -9.5t1 -9.5q0 -96 -6 -135v-41q0 -16 -2 -24q-4 -25 -31 -36t-53 -3q-30 10 -37 47q0 3 -1 8t-1 8q0 10 4 73t3 97v271q0 2 -1 5t-1 5v213q-6 29 -5 78t0 78v61q-2 14 -2 57v13q1 19 4 90.5t3 109.5q0 4 1 12t1 11q1 17 0.5 65.5t1.5 65.5 q0 6 4 18q6 29 26 43q28 9 54 9h12q38 2 105.5 2.5t88.5 1.5h25q121 0 174 -15l21 -6q66 -19 108 -53q118 -100 129 -207l2 -2v-14q0 -5 1 -12t1 -9q0 -3 1 -6.5t1 -5.5v-8q0 -2 2 -6v-29q4 -25 4 -76q0 -53 -12 -106l-22 -52q-5 -6 -7 -12q-4 -8 -8 -12l-6 -12 q-31 -36 -39 -43l-12 -15l-39 -30l-14 -9q-19 -14 -41.5 -21t-61.5 -13t-47 -7q32 -20 60 -61q7 -11 10 -19q14 -22 24 -53q4 -8 4 -14q5 -15 5 -16q15 -73 34 -199q13 -84 23 -115l6 -16q10 -32 41 -39q6 -2 20 -2l13 4q11 5 12 8q10 8 12.5 19.5t0.5 28.5t-1 24 q3 29 35 47q29 15 58.5 -3t31.5 -52zM360 766q9 0 13 -2q22 0 78.5 2.5t87.5 1.5q14 0 20 2q45 4 121 23l14 8q3 2 11.5 7.5t11.5 8.5q51 37 67 146q0 10 2 14v18q3 19 0 31v31q-4 123 -55 176q-4 6 -16 14q-7 7 -19 15l-12 6q-12 8 -47 26l-19 6q-51 17 -133 13h-18 q-58 6 -174 -2q-2 0 -11 -1t-10 -1q-1 -7 0 -22.5t0 -22.5v-31q0 -8 -1 -23.5t-1 -23.5v-25q0 -93 -4 -119v-22q-2 -45 -2 -135v-117q18 -2 49 -2h47z" />
<glyph unicode="s" horiz-adv-x="972" d="M844 399q0 -14 6 -26q2 -14 2 -49q0 -87 -31 -148v2l-12 -26q-12 -24 -31 -46l-12 -14l-12 -14l-15 -15q-30 -26 -71 -49q-5 -1 -12 -4t-9 -4q-22 -9 -63 -16q-3 0 -9.5 -1t-9.5 -1q-14 0 -20 -2h-148q-3 0 -8.5 1t-7.5 1h-10q-27 3 -54 12l-16 6l-18 6q-33 16 -78 51 q-11 8 -27 29q-15 18 -22 33q-10 15 -11 18q-2 3 -8 21v-2l-6 12q-4 8 -4 12l-6 15q-7 22 -10 43q-2 4 -2 16q0 11 -2.5 38.5t-2.5 44.5t7.5 37t23.5 32l12 6q16 4 27 4q10 0 16 -2q17 -5 27 -17t12.5 -28.5t2.5 -32t-1.5 -36t-1.5 -30.5l4 -22q5 -15 9 -21l6 -12 q27 -49 98 -94h-4q30 -15 64 -18q6 -3 14 -3q6 -2 16 -2q3 0 9.5 -1t9.5 -1q50 0 110 13l21 6q13 3 20 8q6 5 33.5 23t38.5 34q6 6 10 17l6 10q22 45 25 102q0 4 1 11t1 10q0 29 -4 41q-3 20 -12 37q-34 73 -74 121v-3l-21 21l-18 20h2l-10 11l-39 28q-5 5 -13 9l-92 49 q-12 8 -18 10q-33 19 -84 57l-14 15l-13 8l-10 10l-74 70l-12 14l-6 6h2q-17 17 -49 70q-3 4 -12 22l-15 33v-2q-13 18 -18 88q-6 24 -6 53v17l4 16q5 38 8 51v-2q15 89 55 129l12 17q29 29 84 63l21 10l14 7q8 4 13 4q27 13 56 17.5t75.5 5t58.5 1.5h14q29 0 43 -2h13 q10 0 16 -2q8 0 14 -2q48 -16 56 -22q-1 0 -3 1t-3 1l47 -27l14 -8q83 -54 113 -139q1 -1 8 -15l4 -16l6 -15q12 -45 14 -79v-43q0 -3 0.5 -11t0 -12.5t-1 -11t-3 -11.5t-6.5 -8q-20 -20 -53 -21.5t-53 23.5l-7 17v14q0 6 3 12v13l-15 67l2 -2q-3 7 -9.5 24.5t-10 26.5 t-10 23t-13 25.5t-14.5 21.5l-14 16q-22 17 -33 23h2q-3 3 -12 6t-11 4l2 -2q-75 20 -182 2q-30 -4 -45 -8q-77 -18 -109 -70q-1 -2 -4 -8.5t-4 -11.5q-34 -65 -32 -98v-21q0 -8 4 -20l4 -23q7 -24 18 -49q4 -8 4 -12q1 -5 6.5 -14t6.5 -13v2q18 -25 46.5 -54.5t42 -42 t54.5 -48.5l18 -11q70 -40 105 -63q12 -8 18 -10l17 -13l16 -14l20 -14l56 -45l30 -33l35 -37l21 -22l22 -29l15 -21q37 -53 49 -127v-2z" />
<glyph unicode="t" horiz-adv-x="1009" d="M889 1438q12 0 16 -2q33 -9 41 -44.5t-18 -58.5q-17 -14 -36.5 -17.5t-50.5 0t-40 3.5h-109q-90 0 -117 -2q-6 -96 -6 -348q0 -29 2 -45v-68q0 -6 -1 -18t-1 -17v-166q0 -5 1 -14.5t1 -13.5v-183q0 -3 -1 -7.5t-1 -6.5v-293q-2 -2 -2 -6q0 -11 1 -35t1 -37q-2 -6 -2 -14 q-5 -30 -12 -37q-20 -18 -44.5 -21t-47.5 13q-5 4 -8.5 9.5t-4.5 9t-3 12t-3 10.5q-2 6 -2 20v56q0 2 1 6.5t1 7.5v186q0 44 2 60v162q-2 31 -2 116v105q0 5 -1 14t-1 14q-4 55 4 80v62q0 1 -1 3.5t-1 4.5v121q0 5 1 20t1 23q0 82 3 184v23q-18 0 -50 4q0 3 -33 1l-34 -1 h-74q-71 0 -108 -4h-15h-16l-15 6q-25 11 -35.5 35t1.5 49q12 16 43 28l16 5q24 4 68 3.5t65 0.5h31q2 0 6.5 -1t7.5 -1q133 4 199 0h18q40 4 60 4q8 2 22 2q29 2 82 2q10 -2 76 -2h31q18 1 51 -0.5t43 -1.5z" />
<glyph unicode="u" d="M102 1372q0 3 1 9t1 8q9 36 23 43q21 8 44 9.5t41.5 -11.5t20.5 -37q3 -9 3 -17q0 -7 -4 -68t-3 -94v-45q0 -2 1 -5.5t1 -6.5v-203q0 -118 2 -188q3 -123 3 -221v-133q-4 -142 36 -213l11 -15q37 -40 84 -57q4 -3 20 -8q58 -13 59 -13l21 -4q82 -6 156 17l18 6l-2 -2 q45 16 59 39l9 12q2 2 9.5 14.5t14.5 18.5q13 23 23 57l4 19l4 63q0 3 1 10.5t1 10.5q4 94 4 139q0 2 -1 7.5t-1 8.5v19q-4 82 -4 135v61q2 36 -2 92v13q-2 14 -2 59v49q0 74 -2 117v188q2 6 2 19q2 6 2 18l-4 43v15q0 10 4 34q0 9 4 17q3 25 27 39q26 15 56 2.5t36 -43.5 q0 -3 1 -9.5t1 -9.5q3 -19 0 -34v-17q0 -3 -0.5 -10t-0.5 -13t1 -10q0 -2 -1 -6.5t-1 -7.5q0 -6 -1 -19.5t-1 -19.5q-4 -36 -4 -55v-94q0 -46 2 -62q4 -54 4 -86q-2 -27 2 -100v-86q0 -4 1 -9.5t1 -9.5q2 -8 2 -30q0 -21 -2 -27q0 -3 -1 -8.5t-1 -9.5v-150q0 -79 -11 -233 l-6 -29q0 -2 -1 -7.5t-1 -8.5q-1 -4 -4 -22.5t-5 -26.5t-7 -20.5t-12 -21.5q-35 -50 -43 -59q-12 -12 -15 -14q-25 -28 -49 -39l-24 -12l2 2l-27 -11l-6 -2h4l-12 -4q-8 -4 -15 -4l-14 -4q-49 -12 -176 -12h-19q-47 4 -71 10q-7 0 -19 4q-85 17 -137 72q-6 6 -12 14l-12 14 l-17 17l-12 18q-8 12 -15 26.5t-11 25t-8 30t-5 27.5t-4 31t-4 28q0 3 -1 10.5t-1 10.5q0 4 -1 11.5t-1 10.5v14q0 30 2 44v178q0 2 -1 6t-1 6v129q0 2 -1 6.5t-1 7.5v17q-5 99 -2 153v56q-4 45 0 77v43q0 12 -1.5 33t-1.5 29q-4 50 -4 84v141z" />
<glyph unicode="v" horiz-adv-x="1003" d="M938 1409q4 -6 4 -18q-4 -17 -18.5 -66t-20.5 -76l-6 -16l-20 -84l-5 -19q-6 -23 -25 -76t-26 -83q0 -2 -1 -6.5t-1 -6.5q-2 -6 -2 -14l-4 -14l-14 -53l-4 -13l-2 -14q-11 -24 -23 -72t-18 -65q-4 -12 -4 -19q-2 -6 -6 -18.5t-5 -16.5l-16 -61l-19 -55l-6 -33l-6 -21 l-6 -20q-7 -21 -10 -39l-6 -20l-35 -121q0 -7 -4 -19q-38 -77 -62 -198l-6 -21q-4 -12 -8 -18q-3 -10 -8 -15q-21 -29 -51 -26q-18 1 -31.5 15t-18.5 34l-6 22l-6 21q-18 88 -53 172q0 8 -4 16q-13 58 -31 115l-4 16l-16 54l-5 16l-6 19l-4 18l-8 33l-18 55l-17 61 q-14 61 -30 105l-7 27l-8 30l-8 29l-8 27l-12 53q-5 10 -5 14q-8 29 -10 41l-6 16l-8 19l-6 16l-6 19q-30 131 -50 182q0 3 -1 9t-1 9q-4 13 -20.5 52t-18.5 61v14q3 48 60 60q46 4 59 -27q4 -4 8 -16q10 -16 13 -33l6 -20q23 -63 31 -115l4 -23q7 -34 27 -95.5t24 -76.5 q6 -18 8 -22q17 -50 43 -168l-2 4q16 -44 20 -59l5 -21l8 -29q29 -120 49 -174q2 -12 6 -22l4 -23l6 -16l13 -53l2 2q3 -13 7 -27.5t9 -31.5t8 -27q2 -3 8 -21q10 -34 13 -65q0 -3 1 -9.5t1 -9.5l4 21q12 78 39 151q0 5 4 17q5 14 14 49l6 20l13 45l24 82q4 12 4 19 q3 9 15 77.5t34 98.5l-4 -4l13 30l6 17q0 2 1 7.5t1 8.5q2 4 2 12q3 9 8 39q4 12 4 17l8 28l7 15q2 14 10 37l6 18q3 12 21 68.5t24 87.5l4 22l6 23l25 88q4 12 4 18q16 49 37 62t48 10t40 -25q5 -5 8 -14zM63 1391l5 -7q0 2 -5 7zM934 1378l4 11q-4 -8 -4 -11z" />
<glyph unicode="w" horiz-adv-x="1497" d="M1417 1423q15 -18 17 -44t-7 -44l-2 -6q-4 -11 -8 -37q-4 -16 -4 -20q-5 -18 -9 -39t-8 -47.5t-7 -40.5q0 -6 -5 -21q0 -2 -1 -6t-1 -6q0 -6 -4 -18l-6 -19q-2 -5 -6 -18.5t-8 -20.5v4q-1 -7 -5.5 -32.5t-6.5 -37t-7.5 -31t-11.5 -34.5l-6 -18q-14 -52 -29 -137 q-4 -12 -4 -17q-20 -72 -26 -110l-7 -21l2 2q-5 -15 -4 -18l-4 -19l-8 -30l-10 -39l-8 -35l-25 -92v2l-14 -66l-21 -104l-4 -4q0 -13 -2 -19q-1 -8 -5 -22t-5 -21q-2 -2 -2 -8v-2l-2 -6l-2 -2v-15l-11 -38q-2 -12 -8 -23q-3 -25 -20 -41t-41 -16h-6q-33 0 -51 28l-7 13 q-10 26 -21 78.5t-18 74.5q-2 6 -2 19q-4 2 -4 4v8q-4 8 -4 18l-18 88l-4 19q-4 11 -8 33v2l-9 30l-12 41q-2 7 -17 68t-20 92l2 -2l-6 18v-2q-2 6 -3 18t-3 17q-4 26 -8 35q-5 20 -17 58t-14 47q0 4 -4 12q-9 33 -12 78l-4 20q-4 27 -21 80.5t-20 83.5q-4 -30 -21 -83.5 t-22 -80.5q0 -14 -2 -20q-2 -29 -15 -78q0 -4 -4 -12q-30 -118 -41 -170v2l-6 -21l2 2q0 -3 -2 -9t-2 -9l-4 -19l-8 -30l-11 -39l-8 -35l-24 -92v2l-15 -66l-22 -104l-2 -4q0 -13 -2 -19q-8 -26 -19.5 -77t-19.5 -76l-6 -13q-21 -28 -52 -28h-6q-25 0 -42.5 16t-18.5 41 q-4 4 -8 23l-11 38l-2 15v2q-2 2 -2 6v2q0 2 -1 4.5t-1 3.5q-8 29 -10 43q-4 12 -4 19q-2 2 -2 4l-21 104q-2 4 -2 10l-6 23q0 6 -4 14q0 2 -1 7t-1 8q-22 58 -27 96l-4 16q0 3 -1 8.5t-1 8.5q-4 8 -6 18l-4 21l-8 30q-2 11 -4 19q0 3 -2 9t-2 9l2 -2l-6 21v-2l-11 43l-4 20 q-33 117 -35 127l-4 18q-30 144 -39 175l-6 20q-6 42 -6 43q0 -1 -1 -2t-1 -2l-4 14q-4 8 -4 15q-4 12 -4 14q-4 8 -4 12l-6 19q0 3 -5 18q0 4 -1 11t-1 10l-4 20l-4 23q-4 30 -8 43l-4 22q-2 14 -16 66q0 2 -1.5 6.5t-1.5 7.5q-3 33 19 59l24 11q66 26 82 -52v-18 q6 -33 25 -97.5t25 -97.5l4 -16q4 -12 4 -16l14 -47l31 -146l10 -49l-2 2l25 -104l-2 2q10 -27 10 -37v-10q0 -2 2 -6t2 -5v-8l10 -37q3 -30 10 -43l13 -37q0 -7 10 -37l4 -20q9 -39 23.5 -110.5t17.5 -86.5l4 -14q1 -7 5 -21.5t5 -21.5q0 -2 1 -7t1 -7l4 14q1 9 6.5 29 t6.5 28l2 25q1 9 7 33.5t7 38.5l6 26l2 11l13 43l20 79v-2l12 37q3 5 11 43l10 37v8q0 1 1 5t1 6l2 10q0 10 10 37l-4 -2l25 104v-2l8 49l33 146l12 47l10 32q4 12 4 19q9 28 15.5 58t13.5 75.5t10 60.5q0 7 4 19q7 30 31 43q37 18 63 -2q17 -15 23.5 -36.5t7.5 -52t4 -44.5 l4 -21l13 -65l12 -37q0 -9 4 -17l10 -32l13 -47l30 -146l11 -49v2l22 -104l-2 2q8 -19 8 -27q2 -6 2 -10q6 -40 31 -127l6 -19q0 -3 6 -18l8 -39q2 -6 6 -19t6.5 -20.5t4.5 -19t2 -21.5l6 -39q9 -58 27 -114l4 -19l4 -16l4 18l4 17q13 97 23 133l4 14l4 23l12 43q6 20 10 40 q4 12 4 19q9 21 16.5 47t10.5 41t9.5 50t8.5 44q0 6 4.5 18t4.5 19q0 4 4 16q17 64 20 89l6 26q0 9 4 23q2 7 11.5 46t13.5 60l6 21q7 24 14 63q0 4 5 19q21 70 22 79q4 12 4 19l19 74l2 16q2 40 23 63.5t61 6.5z" />
<glyph unicode="x" horiz-adv-x="944" d="M879 61q0 -12 2 -22q2 -6 2 -19q-7 -21 -27 -28q-50 -17 -80 18l-12 17q-7 9 -21 32l-10 23q-19 21 -33 57q-3 5 -8 19l-18 41l-6 14q-3 4 -7.5 13.5t-7.5 13.5v-2q-15 24 -33.5 73.5t-31.5 71.5l-8 16l-39 60v-2l-23 39l-6 12l-18 29l-13 16l-6 20q-2 -4 -16 -28v-2 l-4 -8v2q-8 -17 -24 -43.5t-21 -36.5v2q-43 -61 -95 -164q-5 -14 -8 -19l-18 -36l2 2l-8 -15q-4 -8 -34.5 -76.5t-51.5 -101.5l-7 -12l-10 -14q-1 -1 -4.5 -5.5t-5.5 -5.5q-21 -21 -43 -26q-31 -4 -47 12q-20 24 -17 45q0 7 3 16q0 7 4 15q4 11 15 29t15 26q18 47 68 137 l10 21q8 12 10 18q9 14 11 21q8 12 10 18l10 18l47 99q3 9 10 16q11 24 31 51l10 19q20 32 27 55q6 6 10 14q4 7 14 20t15.5 21t11 19.5t6.5 21.5q1 9 -9 31t-11 27v-2l-16 32l-19 35q-3 7 -14.5 31t-16.5 37l-8 18l-24 49q-4 7 -11 18t-8 13l-8 17q-8 8 -10 12l-8 12 q-1 3 -11 23.5t-14 31.5l-29 58q-4 8 -8 10q-14 28 -20 37q-2 4 -4 10l-25 55q-6 18 -18 39l-11 19q-16 24 -24 45l-4 12q-9 43 14 59q24 18 54.5 12.5t45.5 -32.5l13 -14l79 -160l9 -23q13 -31 44 -84t40 -71q3 -13 10 -23l20 -41q5 -8 9 -18l10 -19q8 -15 24 -52t29 -56 q22 37 39 61v4l43 80l47 101l21 36l16 23l55 119l17 28l8 21q4 7 20.5 44.5t32.5 54.5t43 20q31 3 53.5 -23t12.5 -55q-7 -20 -28 -55t-28 -52q-2 -4 -4 -10l-24 -55l-23 -45q-14 -31 -24 -41l-15 -21l2 2q-54 -95 -114 -225l-7 -14l-4 -6l-6 -15l-37 -69v2q-1 -2 -1.5 -6 t-1 -7t-1.5 -4q-10 -15 -11 -30t1 -21.5t14 -26t13 -22.5l10 -16q10 -17 30.5 -59.5t34.5 -65.5l13 -17l6 -12q10 -16 19 -35t18.5 -43t15.5 -37l31 -53q1 -2 4.5 -8t5.5 -8v4q3 -9 16 -35l9 -16q11 -24 45 -86l6 -17q3 -6 16.5 -32t18.5 -42z" />
<glyph unicode="y" horiz-adv-x="983" d="M106 1360q0 6 3 12q-6 22 3.5 42.5t30.5 27.5q48 12 72 -15q12 -15 15 -34.5t1.5 -46t-0.5 -39.5v-289q-4 -140 37 -213l11 -14q38 -42 83 -58q3 -2 21 -8q50 -11 59 -12l21 -4q84 -6 155 16l19 6l-2 -2q45 16 59 39l8 12q1 2 9.5 14.5t15.5 18.5q13 23 23 57l4 19l4 63 q0 3 1 10.5t1 10.5q4 94 4 139q0 2 -1 7.5t-1 8.5v19q-4 82 -4 135v49q0 3 -1 10t-1 11v20q-4 54 26 64q12 4 19 4h20q31 -5 45 -27t13 -50.5t-1 -60t3 -53.5v-127q0 -79 -11 -233l-6 -29q0 -2 -1 -7.5t-1 -8.5q-1 -4 -4 -22.5t-5 -26t-7 -20t-12 -21.5q-38 -55 -43 -60 q-12 -12 -15 -14q-25 -28 -49 -39l-25 -12l3 2l-27 -10l-6 -3h4l-12 -4q-8 -4 -15 -4l-14 -4q-38 -9 -74 -12l1 -57q2 -57 -1 -58q0 -14 -2 -20q-3 -56 4 -127v-193q-1 -11 -1 -38t-1 -40q0 -14 -2 -20q1 -33 -28.5 -48t-61.5 -5q-29 10 -33 55q-2 6 -2 20v60v14q0 10 1 32 t1 34v92q0 3 1 9.5t1 10.5q-7 20 -2 93.5t4 93.5v18q-8 46 -8 74q-42 4 -63 10q-7 0 -19 4q-85 17 -137 72q-6 6 -12 14l-13 15l-16 16l-12 18q-8 12 -15 26.5t-11 25t-8 30t-5 27.5t-4 31t-4 28q0 3 -1 10.5t-1 10.5q0 4 -1 11.5t-1 10.5v15q0 29 2 43v178q0 2 -1 6t-1 6 v84q0 8 -3 14q-6 28 0 60z" />
<glyph unicode="z" horiz-adv-x="929" d="M793 119q29 -2 51.5 -19t21.5 -43q-1 -35 -34 -52t-72 -15q-3 0 -10.5 1t-10.5 1q-46 4 -61 4h-53q-16 -4 -60.5 -0.5t-60.5 2.5q-4 0 -11 -1t-10 -1h-22q-12 -2 -47 -2h-117q-10 0 -39.5 1t-50.5 0.5t-41 -5.5h-23q-32 0 -51 12t-18 43l4 21l6 16q0 4 3 9t3 7 q5 15 21 42.5t20 43.5h-2l12 31l6 16l25 48l6 16q6 12 8 14q4 11 9 19l18 34q5 14 8 19l8 18l9 21q18 32 26.5 48.5t9.5 18.5l13 25l26 51q2 4 2 8q7 31 23 65.5t27.5 54.5t35.5 59l9 16l24 47q4 8 4 14q10 21 11 23l20 41q1 4 8 18q8 19 35.5 65.5t36.5 74.5l6 16l23 53 l12 21l12 22l6 15q2 2 8 14l-2 -2q35 62 56 102l8 15q-10 0 -16 2h-33q-12 -2 -39 -2q-61 2 -182 2h-46q-29 -2 -88 -2q-6 -2 -18 -2q-17 4 -83 4t-95 18q-7 7 -10 16q-9 20 -4.5 44t22.5 32q18 9 41 13.5t39.5 4.5t44.5 -1.5t41 -1.5h55q6 -2 17 -2h30q13 2 72 2h18 q6 -2 19 -2h20q27 0 41 4h234q63 0 76 -37q6 -15 6 -31.5t-3.5 -29t-12 -30t-14.5 -27t-17 -26.5l2 2q-1 -2 -11 -18q-8 -12 -10 -18v4l-6 -19q-21 -51 -55 -114q-2 -5 -11 -19q-4 -12 -8 -18l-6 -19l-8 -18q-22 -60 -74 -137l2 2q-3 -15 -12 -27l-6 -12l-23 -39 q-4 -9 -8 -15l-6 -14v2l-12 -26q-4 -7 -6 -13q-24 -49 -48 -96q-2 -2 -8 -14q-19 -38 -22 -47l-54 -107l-38 -88l-11 -16q-16 -37 -26 -54l-19 -36q-10 -15 -18 -43l-6 -15l-6 -16l-9 -17q-4 -16 -17 -42.5t-17 -36.5q44 10 79 4q4 0 11 -1t10 -1h20q16 0 49 4t50 4h16 q99 -9 199 0q8 2 22 2h64q4 0 16 -1.5t19 -0.5h2z" />
<glyph unicode="{" horiz-adv-x="573" d="M526 -121q14 -5 15 -6q24 -14 20 -43q0 -12 -2 -18q-10 -32 -44.5 -42.5t-63.5 3.5q-13 5 -17 8q-24 7 -41 18q-3 1 -18 11q-41 27 -68 65l-12 16q-23 38 -35 66v-2q-24 55 -27 115q0 3 -1 10.5t-1 11.5v60q0 16 4.5 46t4.5 46v18l4 21q2 9 6.5 30.5t7 37.5t2.5 32 q2 6 2 18q7 70 -4 125q-6 18 -8 21q-4 13 -21 39l-41 49l-16 12l-12 6q-2 2 -27 16.5t-29 30.5q-6 28 9.5 49.5t42.5 32.5l12 9q4 4 12 8l13 12q13 15 30 43l8 18q5 8 9 19l8 22q6 16 18 62v61q-3 23 -9.5 94.5t-12.5 110.5v23q0 88 -2 106v19q2 6 2 14q0 10 2 16q0 13 2 19 q12 111 96 188l16 14q52 34 103 39h14q19 0 37 -12q37 -34 16 -72q-7 -10 -12 -12l-14 -10l-19 -6l-20 -6q-40 -16 -64.5 -55t-31.5 -85q-2 -8 -2 -22q1 -18 1.5 -77.5t2.5 -90.5v-21q2 -13 6.5 -41.5t7 -50t2.5 -41.5v-14q2 -14 2 -41q0 -63 -22 -131h2l-17 -47l-6 -15 q-6 -9 -21.5 -34.5t-25.5 -38.5l-12 -13q-4 -4 -8.5 -7t-11 -6t-9.5 -5l43 -37q32 -37 49 -72l8 -16q29 -79 29 -154v-18q-13 -147 -25 -207v-16q-4 -54 -4 -82q0 -33 2 -47v-15q7 -64 31 -104l10 -14q26 -29 56 -47l16 -7q16 -6 53 -10z" />
<glyph unicode="|" horiz-adv-x="321" d="M217 -244q2 -12 2 -37q-2 -6 -2 -18q0 -3 -1 -8.5t-1 -7.5l-6 -17q-10 -18 -31 -23t-39 3q-5 2 -9 5t-7 7.5l-5 7.5t-3.5 9t-2 9t-1 10.5t-0.5 9.5v10.5v9.5q0 10 2 16q0 6 -1 17t-1 14v22q0 45 -2 68v280q0 43 -3 93v112q2 37 2 103.5t1 91.5v297q0 40 -3 84v184 q0 6 -1 19.5t-1 19.5v127q0 2 -1 7.5t-1 8.5v21q3 34 2.5 94t1.5 94v21q3 30 3 61q-3 11 0 21q0 45 24 69l17 6h22q6 0 14 -4q11 -3 15 -8l12 -14q0 -3 1 -9t1 -8q0 -12 2 -18q0 -12 -2.5 -46t-1.5 -52v-23q-4 -204 -4 -324q0 -38 2 -67q4 -71 2 -111q-2 -51 2 -157v2 q2 -35 2 -127q0 -66 -2 -99q-2 -23 -2 -61v-35q0 -117 -2 -176v-47q0 -4 1 -12t1 -11q0 -118 2 -184q0 -34 1 -91t1 -77v-162z" />
<glyph unicode="}" horiz-adv-x="573" d="M47 -121q37 4 53 10l17 7q28 17 55 47l10 14q24 40 31 104v15q2 14 2 47q0 28 -4 82v16q-12 60 -25 207v18q0 75 29 154l8 16q17 35 49 72l43 37q-3 2 -9.5 5t-10.5 6t-8 7l-13 13q-10 13 -25.5 38.5t-21.5 34.5l-6 15l-16 47h2q-23 71 -23 131q0 27 2 41v14q0 20 2.5 42 t7.5 49.5t7 41.5v21q2 31 2.5 90.5t1.5 77.5q0 14 -2 22q-7 46 -31.5 85t-64.5 55l-21 6l-18 6l-15 10q-5 2 -12 12q-21 38 16 72q18 12 37 12h15q49 -5 102 -39l16 -14q85 -78 97 -188q2 -6 2 -19q2 -6 2 -16q0 -8 2 -14v-19q-2 -18 -2 -106v-23q-6 -40 -13.5 -113.5 t-9.5 -91.5v-61q10 -37 19 -62l8 -22q5 -14 8 -19l8 -18q14 -23 31 -43l12 -12q10 -5 13 -8l12 -9q27 -11 42 -32.5t9 -49.5q-3 -12 -12 -20t-23 -15t-20 -12l-13 -6l-16 -12l-41 -49q-16 -23 -20 -39q-4 -6 -9 -21q-11 -55 -4 -125q0 -12 2 -18q0 -16 2.5 -32.5t7.5 -37 t7 -30.5l4 -21v-18q0 -16 4 -46.5t4 -45.5v-60q0 -4 -1 -11.5t-1 -10.5q-3 -60 -27 -115v2q-15 -34 -34 -66l-13 -16q-28 -39 -67 -65q-14 -9 -19 -11q-16 -11 -41 -18q-4 -4 -16 -8q-29 -14 -64 -3.5t-45 42.5q-2 6 -2 18q-2 12 4.5 24.5t16.5 18.5q2 2 14 6z" />
<glyph unicode="~" horiz-adv-x="864" d="M698 670q25 0 45 -19t17 -43q-7 -81 -53 -133q-50 -56 -129 -59q-69 -3 -152 51l-43 31l-14 12q-58 50 -109 33l-10 -6l-6 -7q-2 -2 -2 -4l-2 -2l-7 -10l-6 -25v-18q-2 -25 -19.5 -43t-41.5 -18q-26 0 -44.5 18t-17.5 43q0 79 46 137q25 34 75 51q15 5 19 5 q95 29 184 -46q8 -8 12 -10q65 -48 97 -61q9 -5 26 -8h15l18 4l12 8h2l6 8q5 0 5 4q2 2 2 4l8 13l6 26v2q3 26 19.5 44t41.5 18z" />
<glyph unicode="&#xa1;" horiz-adv-x="415" d="M145 930q0 21 1 44.5t1 31.5v10q0 69 64 69q61 0 61 -71v-35q0 -1 -1 -3t-1 -3l2 -29q-4 -31 -4 -82v-131q0 -33 -2 -47v-63q0 -68 6 -117v-55q0 -31 -2 -41v-359q-2 -6 -2 -18q-12 -38 -75 -29q-14 2 -26 13t-15 26l-5 12v15q0 4 1 8l2 4v432q0 9 -5 29l2 -2 q-2 12 -2 24v367zM270 1368q0 -22 -13 -42.5t-44 -20.5q-68 0 -68 67v6v2q0 11 1 19t6.5 20.5t20.5 19.5t38 7q30 0 44.5 -20.5t14.5 -47.5v-10z" />
<glyph unicode="&#xa2;" horiz-adv-x="851" d="M143 301q-2 6 -6 14q-18 40 -26 129q0 7 -1 22.5t-1 22.5q0 11 -5 89v84q0 14 -2 22v86q1 32 11 178q0 3 1 10.5t1 10.5q4 38 8 55q0 2 1 7t1 7q3 73 61 138q5 7 15 14q20 20 47 37q2 2 8 5.5t8 4.5l19 8q7 1 19 7t17 8l21 6l20 6l7 2h-2v20q2 12 2 41q0 2 1 7.5t1 7.5 q-8 51 19.5 86t76.5 16l14 -10q7 -6 10 -17q5 -10 5 -16q0 -12 -2 -18v-58q-3 -12 -3 -20v-39q40 -3 78 -19q48 -20 105 -73q50 -57 69 -125v-10q0 -1 1 -3t1 -4l2 -28q4 -17 3 -56t-9 -57q-28 -25 -69 -16q-29 16 -35 30.5t-6 49.5q-2 6 -2 20q0 10 2 16l-2 -6q0 2 -1 5.5 t-1 5.5q-2 4 -2 10q-2 11 -11 33q0 3 -3 8.5t-3 7.5q-36 85 -160 96q-3 0 -10 1t-10 1q-134 -13 -166 -96l-2 2q-4 -8 -4 -14q-14 -39 -16 -70v-20q-1 -30 -8.5 -101.5t-6.5 -109.5q2 -8 2 -23q-2 -30 2 -84v-22q0 -17 1 -36.5t2.5 -43t2.5 -37.5q3 -6 3 -14v-13 q2 -17 2 -33l4 -30q1 -12 16 -51q7 -17 18 -31q31 -45 82 -70l21 -6q12 -4 20 -4q2 -2 13 -2q1 0 3 -1t3 -1h16q42 -11 86 14l17 15l14 12q32 42 49 71v-2q12 40 12 60q2 6 2 16q2 4 2 13l7 20l12 16l16 13q24 9 50.5 -2t33.5 -37q4 -12 4 -17v-34l-4 -21q-12 -98 -88 -178 h2l-14 -12l-14 -13q-51 -33 -105 -41l-14 -4q-3 0 -9 -1t-8 -1v-12q0 -8 2 -14v-13q2 -12 2 -37q0 -3 -1 -9t-1 -9q0 -2 -0.5 -8.5t-1 -9.5l-1.5 -9t-2.5 -9t-3 -7t-4.5 -7t-7 -5q-24 -16 -57 -10t-43 36q-2 4 -2 15q-3 6 0 14q0 10 2 16v70q0 1 -1 2t-1 2q-90 17 -170 100 q-1 2 -11.5 14t-15.5 19z" />
<glyph unicode="&#xa3;" horiz-adv-x="1153" d="M1081 307l6 -20q11 -53 -22 -105q-3 -9 -10 -16l-37 -55l-14 -17q-59 -71 -170 -94l-21 -6q-47 -5 -102 8l-21 6q-49 15 -78 33q-6 2 -18 10q-8 3 -19 10l-16 9q-7 5 -23.5 14.5t-23.5 15.5l-16 9l-19 10q-12 4 -18 8q-7 0 -19 4t-20 4q-53 25 -113.5 13.5t-97.5 -60.5 q-9 -14 -10 -16l-6 -15l-9 -26l-4 -21q-1 -3 -12 -14q-2 -2 -14 -8q-14 -12 -43 -8q-26 6 -39.5 28t-8.5 47l5 15q0 8 2 12q0 10 2 14v-2q5 17 16 43h-2q40 61 84 90q6 7 14 9q32 20 82 26q4 35 4 105v24q0 4 -1 13t-1 14v153q0 11 -1 28t-1 24q-4 55 0 86h-51 q-12 -2 -61 -2q-38 0 -66 26q-14 32 -2 66q14 28 57 28h131v23q0 10 -1 30.5t-1 30.5q0 15 -2 21q0 9 -1.5 38t-0.5 44q-2 8 -2 22q-4 58 -2 90q0 17 4 41q2 4 2 15q4 8 4 14q21 82 25 92v-2q23 47 76 90l16 13l49 30l19 6q26 13 53 19l23 8q32 4 47 4q27 0 39 -2 q3 0 8.5 -1t7.5 -1l31 -8q23 -3 53 -10l18 -7q16 -5 39 -16l17 -10q96 -73 114 -184l4 -15l7 -22q29 -116 -41 -140q-2 0 -7.5 -1t-7.5 -1q-15 0 -30 9q-23 14 -31 59q0 12 -2 18l-6 56q-4 13 -9 20q-5 14 -8 19l-8 16q-23 37 -51 57q-10 10 -19 13q-25 19 -59 22 q-8 2 -23 2l-20 4h-31l-18 -6q-21 0 -53 -12l-17 -10q-10 -5 -24 -19l-11 -10q-48 -52 -51 -111v-14q-2 -14 -2 -45v-29q0 -65 2 -78q5 -106 4 -125v-47h82q3 0 9.5 1t9.5 1q6 -2 18 -2h39q6 0 18.5 -1t18.5 -1q75 0 100 -6l-2 -2q21 -4 27.5 -24.5t1.5 -44.5 q-5 -13 -21 -25q-13 -7 -30 -10q-6 -2 -19 -2q-14 -2 -37 -2q-4 0 -11 1t-11 1q-46 0 -66 -2h-131v-156q0 -154 -2 -203q0 -11 -1 -41.5t-1 -44.5h25q13 -4 39 -10t39 -10l18 -6q29 -8 61 -29h-2q10 -3 25 -10l14 -11l6 -4q5 -3 9 -4q38 -35 90 -52t104 -11q11 0 17 2l16 6 q48 21 72 55l12 15q3 9 10 16l10 20q5 9 13.5 40t23.5 44q20 17 46.5 14.5t43.5 -22.5zM799 1174q-2 4 -2 6q0 -4 2 -6z" />
<glyph unicode="&#xa5;" horiz-adv-x="1007" d="M147 375q1 8 3 16q-4 22 10 27q4 4 12 8q26 16 49 16l221 2q2 20 2 58v18q-8 58 -6 90v52q-4 0 -12 1t-12 1q-14 0 -54 -5q-5 0 -15 -1t-15 -1h-11l-36 2h-62q-13 0 -16 3q-3 -3 -12 -3q-38 3 -62 37q-13 26 6 52l13 14q18 18 51 18h118l3 2q58 0 81 2q-2 2 -2 4 q-64 101 -88 152q-1 2 -4 9t-4 12q-12 24 -20 36l-9 15l5 -6l-7 12q-27 41 -32 57l-15 23q-17 33 -18 35l-8 16q-6 17 -25.5 44.5t-23.5 33.5v-2q-23 44 -50 78l-12 14q-31 50 -27 76q3 20 18.5 35t35.5 18q19 2 35.5 -8t24 -20.5t20 -34t16.5 -29.5l10 -15v4l62 -94l12 -18 q3 -8 13.5 -24.5t13.5 -22.5q25 -45 41 -76q3 -4 7 -11.5t5 -9.5l16 -32l6 -19q11 -24 44.5 -74t45.5 -79l9 -19l8 -16q2 8 10 24l8 17q2 3 8 16t9 19q2 2 5.5 8t4.5 8q25 35 35 61q10 25 35 67.5t32 57.5l11 19q19 32 20 33l8 14q2 6 10 18l11 19q2 2 5.5 8t4.5 8l8 17 l8 14l9 16q6 8 15 28t15 28v-2l8 12l7 12q5 7 13 23.5t13 23.5l10 13q23 25 53 21.5t52 -26.5q6 -3 6 -8q8 -16 2 -35q0 -8 -4 -16q-6 -14 -23 -40t-22 -40l-12 -18l-17 -29l-12 -31q-1 -4 -4.5 -8.5t-3.5 -5.5q-4 -8 -8 -12l-11 -17l-8 -14l-10 -14l-12 -19 q-9 -18 -28.5 -49t-25.5 -41l-10 -18v2q-6 -10 -15.5 -32t-15.5 -32l-8 -20q-15 -26 -43.5 -74t-34.5 -59q-3 -3 -8 -13q19 2 51.5 1.5t51.5 0.5q6 -2 18 -2h98l17 -16q21 -12 21 -39t-19 -41q-3 -3 -13 -8q-24 -16 -61 -16h-20q-19 4 -43 5t-40 0.5t-49 -2t-47 -1.5v-2 q-5 -33 -4.5 -91.5t-1.5 -91.5q0 -14 -2 -20q0 -3 -1 -8t-1 -7q12 -2 37 -2l23 4l36 3q1 0 5 -1.5t6 -1.5h20q2 -2 19 -2h14q63 9 86 7q3 0 9 -1t9 -1q29 -4 41.5 -28.5t3.5 -51.5q-12 -23 -26 -33q-18 -6 -21 -6q-9 -1 -25.5 -0.5t-30.5 -0.5t-26 -5h-28q-31 0 -37 2h-47 q-14 -2 -58 -2h-4v-185q-1 -11 -1 -38t-1 -40q0 -14 -2 -20q1 -33 -28.5 -48t-61.5 -5q-29 10 -33 55q-2 6 -2 20v60v14q0 10 1 32t1 34v92q0 3 1 9.5t1 10.5q0 1 -1 4.5t-1 4.5q-12 0 -39.5 -1t-42.5 -1q-8 0 -12 2h-45q-49 0 -80 -2q-31 0 -49 12q-4 2 -12 10t-13 31z" />
<glyph unicode="&#xa6;" horiz-adv-x="321" d="M217 -244q2 -12 2 -37q-2 -6 -2 -18q0 -3 -1 -8.5t-1 -7.5l-6 -17q-10 -18 -31 -23t-39 3q-5 2 -9 5t-7 7.5l-5 7.5t-3.5 9t-2 9t-1 10.5t-0.5 9.5v10.5v9.5q0 10 2 16q0 6 -1 17t-1 14v22q0 45 -2 68v280q0 43 -3 93v112q3 68 3 135v21q0 9 -5 49q0 10 2 16q-3 26 23 37 q2 2 14 6q42 11 60.5 -22t9.5 -74v-22q0 -103 -2 -154v-47q0 -4 1 -12t1 -11q0 -118 2 -184q0 -34 1 -91t1 -77v-162zM111 795q-11 12 -7 56.5t2 57.5v199q0 6 -1 19.5t-1 19.5v127q0 2 -1 7.5t-1 8.5v21q3 34 2.5 94t1.5 94v21q3 30 3 61q-3 11 0 21q0 45 24 69l17 6h22 q6 0 14 -4q11 -3 15 -8l12 -14q0 -3 1 -9t1 -8q0 -12 2 -18q0 -12 -2.5 -46t-1.5 -52v-23q-4 -204 -4 -324q0 -38 2 -67q4 -71 2 -111v-57v-86q-2 -6 -2 -19q0 -3 0.5 -8.5t0.5 -8.5t-1 -7.5t-3 -8.5t-5 -7q-16 -16 -39 -20.5t-43 9.5q-7 8 -10 15z" />
<glyph unicode="&#xa7;" horiz-adv-x="778" d="M676 31q0 -13 -2 -19q-1 -13 -3 -38t-3.5 -40.5t-7.5 -36t-17 -36.5l-12 -15q-5 -5 -12.5 -15t-14.5 -18t-14 -14l-17 -12q-40 -32 -96 -51l-16 -4q-86 -23 -205 26q-3 1 -18 11l-19 12q-5 5 -15.5 15t-19 18t-14.5 16l2 -2l-33 70q-9 18 -12 36q-2 6 -2 21q0 41 35 63 l12 9q23 7 45 -7l12 -14q12 -19 9 -35l6 -20q14 -56 55 -82q12 -8 18 -10q52 -25 109 -13l33 13q10 8 26 14q3 3 13 8q31 22 41 66q4 14 14 94q0 3 -1 9t-1 9q-2 6 -2 15l-4 12l-25 57q-21 44 -47 70q-37 49 -53 61q-8 7 -14 13q-18 17 -60 39.5t-47 25.5q-15 9 -39.5 30 t-28.5 24l-16 12q-72 63 -96 147l-6 21q0 2 -1 8t-1 8q0 15 4 51q0 3 1 9.5t1 9.5q6 99 69 188l15 14q15 20 24 27l29 25l-16 10l-15 12q-26 18 -47 45q-4 4 -14 19q-6 8 -15 26l-6 15q-39 115 -37 182v18q0 31 13 60q4 12 8 18l8 17q1 4 4 8.5t4 5.5q34 83 121 124t178 25 l56 -18l65 -41q63 -60 90 -121q21 -46 -2 -88q-20 -26 -59 -26q-48 15 -45 59q-9 24 -41 70q-25 22 -53 34q-18 4 -35 13l2 -2q-52 14 -100 -11.5t-74 -74.5l2 2q-4 -11 -6 -21q0 -4 -1.5 -7.5l-3 -7t-2.5 -5.5v2l-4 -19v-18q-3 -64 31 -133l6 -15l10 -16q16 -23 39 -37 l15 -12q34 -27 92 -55q9 -4 18 -10.5t20.5 -16.5t16.5 -14l27 -27h-2q10 -6 27.5 -21t21.5 -18l18 -16l31 -33l16 -19q13 -22 25 -53l6 -18l4 -19q4 -12 4 -18q9 -61 9 -78q0 -2 -5 -22l-16 -58h-2q-38 -97 -88 -139l-18 -10l-27 -19l61 -57l29 -43l16 -29l7 -14v2 q23 -41 43 -96v2q8 -23 12 -60v-28zM477 481q18 15 29 33l8 14q2 10 8 30.5t8.5 36.5t-0.5 32v-2q-3 20 0 41q-4 12 -4 16q-7 25 -24 48.5t-31.5 36.5t-43.5 35.5t-40 31.5q-8 4 -12 8q-4 0 -8 4l-27 -8h2l-14 -9h2q-29 -16 -37 -26q-4 -4 -8 -12l-13 -15l-12 -16 q-21 -52 -24 -74q0 -3 -1.5 -9.5t-1.5 -10.5q0 -3 -1 -9.5t-1 -9.5v-22q0 -9 2 -13q-1 -38 20.5 -70t55.5 -50l21 -11h-6l77 -24q2 0 8 -1t9 -1q2 -2 12 -2q11 0 25 4z" />
<glyph unicode="&#xa8;" horiz-adv-x="464" d="M55 1536l-8 4q-32 15 -42.5 51t5.5 66l6 12q3 2 12 10t17 11q6 6 14 6q8 4 9 4q23 4 36 0q8 0 17 -6l12 -6q10 -5 12 -9q30 -17 26.5 -68.5t-38.5 -64.5l-16 -6q-27 -12 -62 -4zM379 1530h-10q-34 5 -56.5 34t-19.5 64q2 4 2 10q3 3 9 15t13 18q3 5 11 8l6 9q24 12 35 12 q6 3 18 0h12q9 0 13 -4q34 -8 47.5 -56.5t-13.5 -74.5q-1 -2 -10 -11q-23 -17 -57 -24z" />
<glyph unicode="&#xa9;" horiz-adv-x="1062" d="M1001 918q-3 -81 -36 -142v2l-29 -51l-8 -18q-20 -32 -31 -43l-25 -31l-28 -23q-69 -57 -148 -82l2 2l-10 -6q-54 -20 -135 -20h-64q-16 0 -36 4l-4 2h-11q-18 0 -39 10l2 -2l-47 12l-61 29l-14 12h-3q-47 30 -81 74q-5 6 -11 12q-2 2 -5.5 8t-6.5 7q-10 10 -16 22 q-21 26 -29 39l-8 13q-47 75 -53 170q0 3 -1.5 8.5t-1.5 7.5q0 3 -1 8.5t-1 7.5v41q0 23 2 31q9 46 21 90l6 18q5 14 16 38.5t15 33.5v-2q42 66 65 90l15 17q4 6 8 10q16 20 67 53q6 2 15 8q58 42 121 54q8 4 18 4q48 10 88 10h74q92 -3 188 -64l15 -8q27 -15 51 -39l26 -24 l13 -13l12 -18q32 -37 49 -82l12 -22q32 -87 41 -146l2 -8v-104zM891 901q4 32 4 53v21q-2 4 -2 12v17q-6 96 -62 178q-9 14 -10 16q-27 40 -61 70q-17 11 -19 12l-24 12q-6 6 -10 6q-85 34 -140 41q-6 2 -18 2q-9 3 -19 0h-18q-53 -4 -86 -16q-6 -4 -18 -8q-9 -3 -27 -12.5 t-25 -12.5l4 4q-5 -2 -16 -9t-16 -9l-13 -12q-25 -18 -65 -64l-12 -14q-37 -60 -41 -70l-7 -18q-17 -41 -20 -96v-46q0 -10 2 -16q3 -74 37 -137q0 -5 6 -14q25 -51 66 -89l12 -12l14 -12q3 -3 9 -6.5t8 -5.5q49 -30 106 -45q4 0 19 -5q8 -1 30.5 -4t34 -4t29.5 -1.5t33 2 t30 7.5q4 0 19 5l18 6l23 4q57 19 100 53l14 12q39 33 66 80l8 17q15 30 20 53q5 6 9 19.5t6 17.5q0 3 1 8.5t1 9.5zM698 879q9 -4 11 -9q12 -14 12 -34l-6 -17q-2 -8 -7 -15.5t-13.5 -16.5t-10.5 -11l2 2q-36 -51 -94 -69h-17q-6 -2 -16 -2q-48 -9 -96 10l-19 8 q-40 15 -65 51l-6 15q-40 71 -29 180v43q0 2 1 6t1 6q5 43 8 59q0 2 1 7.5t1 7.5q9 56 54 98q7 7 16 10q18 16 55 27l19 6q102 7 159 -37q1 -1 6.5 -5.5t6.5 -6.5q60 -49 35 -100q-19 -31 -62 -17q-12 4 -14 6q-6 2 -12 6.5t-10 8.5t-10.5 11t-8.5 9l-15 10l-16 7q-3 0 -9 1 t-9 1q-17 6 -47 -7l-13 -12q-28 -28 -32 -84v-20q0 -3 1 -9t1 -10v-35q0 -12 -2 -18q0 -47 6 -72l6 -18l8 -16l14 -13q29 -16 58 -16q14 0 18 2q15 2 28 11t19 17t17 24.5t16 23.5q2 2 8.5 3.5t7.5 2.5h-2q6 2 17 2q13 0 28 -12zM985 827q2 5 0 7v-7zM152 709q0 -1 1 -3.5 t1 -3.5q0 5 -2 7z" />
<glyph unicode="&#xaa;" horiz-adv-x="704" d="M541 782l12 -16q3 -10 19.5 -16.5t21.5 -12.5q10 -15 5.5 -33.5t-19.5 -29.5q-16 -13 -43 -10q-37 8 -70 41l-14 14q-3 2 -11 -1t-10 -3l-16 -6l-15 -11l-14 -8l-14 -6l-15 -6q-49 -18 -105.5 -15t-102.5 27q-1 1 -8 4.5t-11 7.5q-35 24 -53 62q-9 18 -10 22q-6 13 -9 23 l-4 16l-6 19l-4 18q-11 77 33 166v-2q1 1 9 16.5t15 20.5l15 16q39 31 100 45q12 4 21 4q25 5 61 5l20 -5q4 0 13.5 -1t13.5 -1h14q16 -1 23.5 10t8 24t-1 33.5t-1.5 27.5q0 4 -1 11t-1 11q-6 32 -25 60l-12 14q-3 5 -14 12q-2 2 -14 8q-15 8 -31 10t-33.5 -3t-29.5 -10 t-31 -15h2q-9 -8 -20.5 -35.5t-28.5 -34.5l-17 -6h-18q-13 0 -17 4q-19 8 -24 23l-6 16q0 3 -1 8.5t-1 8.5l4 20l6 18q41 78 119 99q12 4 20 4l18 4q13 0 21 2q148 12 201 -76l12 -16l6 -15l6 -14q12 -27 19 -69q2 -6 2 -19q1 -8 12 -194v-17q0 -32 -4 -90v-25q0 -35 4 -53 q0 -6 4 -18l4 -17l6 -16q2 -3 6.5 -14t8.5 -15zM406 823l2 11q-7 32 -7 108q0 3 1 8t1 8v15q0 25 -12 37q-20 26 -76 22q-12 0 -20 -2q-2 0 -20 -2t-27 -4q-9 0 -17 -4q-15 -2 -36 -19l-9 -10q-46 -49 -34 -108q0 -13 2 -19l6 -18q5 -14 8 -19q14 -29 46.5 -47t64.5 -14 q12 0 16 2l20 6q38 11 78 37z" />
<glyph unicode="&#xab;" horiz-adv-x="899" d="M522 168l6 -14q4 -23 -10 -37q-18 -18 -42 -23t-46 6l-14 11q-16 12 -23 24l-10 8l-10 9l-19 22l-9 12q-9 11 -13 17l-31 37q-13 13 -37 43l-69 79l-9 11l-28 35q-32 40 -54 59l-4 4q-11 11 -14 27l-4 18q0 30 18 51q35 41 58 68l14 16l61 78h-4q8 10 26 28t24 25l10 11 q9 14 20 27.5t25 30t22 26.5q10 7 15 14q37 43 49 53l14 10q34 21 53 13q18 -8 28.5 -25.5t4.5 -36.5q0 -8 -4 -20q-9 -34 -39 -64q-7 -6 -19 -16.5t-19.5 -17t-17 -17t-15.5 -20.5l-13 -19q-31 -40 -65 -76q-20 -25 -31 -43l-25 -32l-26 -27l-27 -33l88 -98q27 -32 33 -43 q6 -6 18 -22t15 -19l16 -14l25 -27l6 -10l12 -15q0 -4 10 -16l11 -10l51 -51l8 -11q1 -2 4.5 -8t5.5 -8zM809 168l6 -14q4 -23 -10 -37q-18 -18 -42 -23t-46 6l-15 11q-14 10 -22 24l-10 8l-11 9l-18 22q-1 2 -10 12.5t-13 16.5l-30 37q-13 13 -37 43l-70 79l-8 11l-29 35 q-34 42 -53 59l-4 4q-11 11 -14 27l-4 18q0 30 18 51q34 41 57 68l15 16l61 78h-4q8 10 26 28.5t23 24.5l10 11q12 18 37.5 48t30.5 36q8 6 14 14q34 39 50 53l14 10q34 21 53 13q18 -8 28.5 -25.5t4.5 -36.5q0 -8 -4 -20q-9 -34 -39 -64q-6 -6 -24 -20.5t-29 -26t-19 -24.5 l-12 -19q-26 -33 -66 -76q-17 -21 -30 -43l-25 -32l-27 -27l-26 -33l88 -98q27 -32 33 -43q6 -6 17.5 -21.5t14.5 -19.5l17 -14l24 -27l7 -10l12 -15q0 -4 10 -16l10 -10q3 -3 23 -21.5t29 -29.5l8 -11q1 -2 4.5 -8t5.5 -8zM514 723q0 1 1 3t1 3q-2 -2 -2 -6zM227 723 q0 1 1 3t1 3q-2 -2 -2 -6z" />
<glyph unicode="&#xac;" horiz-adv-x="1015" d="M784 489q0 40 -2 60h-18q-13 0 -19 2q-5 -1 -11 -1t-13 0.5t-10 0.5h-19q-12 0 -63 -3t-82.5 -2.5t-63.5 5.5h-55q-39 0 -109 4h-16q-6 -2 -16 -2h-17q-10 0 -14 -2q-16 3 -33 3t-38 -1.5t-33 -1.5h-21q-24 -2 -42.5 10t-22.5 35q-8 57 20 74l16 8q27 2 73 1.5t73 0.5 h213q8 2 20 2q13 0 21 2q31 1 86.5 -1.5t77.5 -2.5h22q32 0 66 6h20q11 0 17 -2q20 0 30 -2q7 0 19 -4q31 -9 51 -35q15 -24 18 -49v-135q1 -27 1.5 -114t2.5 -134q0 -9 -4 -21q-3 -19 -14 -30q-4 -7 -14 -13q-40 -18 -82 15q-4 4 -8 16q-11 26 -7 74v20q2 20 0.5 70 t-0.5 70v77z" />
<glyph unicode="&#xad;" horiz-adv-x="747" d="M319 449h-167q-34 0 -58 24q-18 43 -2 70q25 25 78 30h78q2 -2 20 -2h152q96 0 137 -4h43q46 0 57 -45q19 -19 -6 -51q-22 -29 -73 -29h-27q-1 0 -3 1t-3 1h-17q-16 2 -39 2h-32q-83 0 -138 3z" />
<glyph unicode="&#xae;" horiz-adv-x="1064" d="M1001 1018q0 -2 1.5 -7t1.5 -7v-23q-2 -16 -3 -47.5t-4 -55.5t-12 -44q0 -7 -4 -15q-2 -8 -10.5 -21t-9.5 -16q-4 -14 -10 -27.5t-15.5 -30.5t-13.5 -26l-11 -12q0 -6 -8 -14q-3 -6 -10 -13q-2 -4 -10 -12l-39 -39q-73 -56 -148 -80l2 2l-10 -6q-56 -20 -137 -20 q-46 0 -62 2q-32 0 -36 2h-15q-16 0 -39 10l2 -2l-47 14l-61 29l-14 10l2 4q-2 -2 -7 -2q-8 5 -36 27q-14 10 -25.5 23.5t-26.5 34t-22 28.5l-4 4q-1 2 -6.5 7t-6.5 10l-10 12l-8 18l-8 8q-52 89 -58 205q-4 22 0 41v29q11 61 22.5 100t33.5 78v-2q14 30 67 96l15 13l18 24 l23 16l10 9q30 22 57 34q1 0 4.5 2.5t5.5 2.5l9 8q105 53 252 43v-2h14q4 -2 10 -4q108 -25 129 -33l62 -31l18 -12l33 -27l24 -24l4 -9l9 -4l12 -16q5 -8 14 -20t14.5 -19t11 -18t9.5 -23l12 -26l21 -62l6 -16q0 -2 1 -8t1 -9q0 -2 4 -14q0 -2 4 -14t4 -17zM889 901 q7 49 4 88v17q-2 6 -2 16l-4 14q0 3 -4 15q0 2 -1 5.5t-1 4.5l-7 16q-4 14 -26 70l-2 6l-2 4l-33 51l-23 29q-3 4 -24 25l-14 10q-7 8 -15 10l-14 10q-22 12 -48.5 19.5t-59.5 13.5t-52 12h-24q-98 3 -193 -53h-4l-18 -16l-27 -23h2q-118 -100 -127 -244v-30q-3 -93 51 -183 q14 -23 21 -32q4 -4 22 -28.5t30.5 -38t27.5 -25.5q15 -10 18 -11l16 -8q29 -13 74 -27q6 -2 21 -2q8 -4 18 -4q1 0 5 -1t7 -1q24 -4 35 -4q4 -2 21 -2q43 0 104 21l25 4l16 6l41 18l12 11q33 22 37 26q9 5 12 10q9 9 13 11l10 14q10 9 22.5 33t20.5 33l6 22q4 12 14.5 34.5 t14.5 35.5q0 6 4 18zM672 948q-2 -4 -12.5 -13t-10.5 -15q0 -9 11 -27.5t12 -30.5v-6l8 -16q1 -1 3.5 -6t4.5 -7q26 -53 23 -86q-2 -14 -25.5 -27t-46.5 -5q-8 0 -14 6q-17 21 -23 41l-10 26l-12 25v-2q-6 8 -14.5 33t-19 39.5t-26.5 13.5h-43v-31q0 -4 0.5 -23.5t0 -29 t-2 -27t-5.5 -27t-10.5 -20t-17.5 -14.5t-26 -2q-22 3 -33.5 16t-13.5 33t-1 40t3.5 44.5t1.5 38.5q0 12 2 20q0 40 2 58v28q0 8 2 26t2 26q2 6 2 16q5 31 0.5 60.5t3 60.5t33.5 47q2 1 5.5 1.5t5.5 1t3 1.5l25 6q10 2 41 2h24q59 0 100 -15t68 -57l10 -20v2l7 -14l4 -21v6 q24 -87 -27 -157q-10 -15 -14 -19zM598 1020q14 35 14 47q0 19 -16 47q-2 0 -12 10q-9 9 -33 9h-19q-5 0 -15.5 2t-17.5 2t-10 -4q-7 -5 -4 -35t2 -39v-15q0 -2 -1 -6t-1 -6q-4 -24 -4 -35h27q69 0 90 23z" />
<glyph unicode="&#xaf;" horiz-adv-x="385" d="M375 1620l4 -8q8 -15 5.5 -34.5t-15.5 -29.5l-11 -6q-2 0 -10 -4q-30 -8 -72 -4h-14q-8 0 -21 1t-16 1h-149q-36 -4 -56 8l-8 8q-21 31 -4 64l8 8q21 18 56 14h32q17 0 23 2q4 -2 12 -2q37 -2 111 2q2 0 6 -1t6 -1h21q7 -1 23.5 -1.5t27.5 -1.5t20 -5q5 0 13 -4z" />
<glyph unicode="&#xb0;" horiz-adv-x="423" d="M31 944l-21 29l2 -2l-12 20q-27 21 -43 76q0 1 -1 6t-1 6q0 5 -2 11v8q-12 113 59.5 210t180.5 97q33 0 43 -2l28 -6q78 -23 137 -87t66 -145q0 -39 -2 -47q3 0 3 -2q0 -4 -5 -14q0 -34 -12 -55q-89 -167 -248 -170h-35q-91 11 -137 67zM121 1251l-10 -12l2 2 q-46 -64 -37 -131q0 -6 2 -8q0 -2 1 -7l-1 -5q14 -37 44 -66.5t60 -30.5h31l2 2q38 6 66 31.5t55 69.5q0 7 6 16q0 2 2 4v2q0 25 2 29q-2 44 -37.5 86.5t-81.5 52.5h-24q-69 -4 -82 -35z" />
<glyph unicode="&#xb1;" horiz-adv-x="1007" d="M858 557h-92q-74 -4 -139 -4h-17q-7 2 -43 2q4 -17 4 -76v-110q0 -2 -1 -8.5t-1 -8.5q0 -53 2 -80v7q9 -26 -7 -52.5t-42 -31.5q-36 -4 -57 20q-11 15 -11 44t-1 36q0 12 -2 20q-5 123 -5 152v20q0 6 1 21.5t0.5 27t-3.5 21.5q-2 2 -4.5 1l-7.5 -3t-8 -2h-14 q-12 -2 -39 -2q-42 0 -58 2h-47q-1 0 -4 1t-4 1q-17 0 -35 -2h-4q-6 -2 -24 -2q-57 -7 -97 18q-13 8 -14.5 28t2.5 36l6 16q19 27 76 27q3 0 10 -1t10 -1q23 3 50.5 3.5t45.5 0t51 -2t48 -1.5q5 0 25 4l4 1q4 1 8 1h24v27q0 54 2 77v88q0 79 -8 107q-9 27 21 49q5 5 14 8 q37 12 74 -14q6 -4 9 -12t4.5 -23t2.5 -20q0 -15 2 -23q2 -45 2 -131v-39q-2 -23 -2 -67v-29h129q2 0 5.5 1t5.5 1q31 2 112 2h39q31 0 51 -23q30 -27 13 -73q-26 -29 -62 -29zM348 4h-168q-32 0 -57 25q-18 43 -2 69q27 27 78 31h77q2 -2 21 -2l242 -4l133 6q76 0 137 -6 h43q46 0 57 -45q19 -19 -6 -51q-22 -29 -74 -29h-26q-1 0 -3 1t-3 1h-17q-16 2 -39 2h-204q-11 0 -34 -1t-34 -1h-57q-18 0 -40.5 2t-23.5 2z" />
<glyph unicode="&#xb2;" horiz-adv-x="468" d="M377 846l-2 2q13 -33 -12 -53t-56 -13h-174q-1 0 -3.5 -1t-4.5 -1h-19q-8 0 -12 2q-8 0 -12 2q-19 6 -27 17q-4 8 -4 12q-2 6 -2 18q7 67 31 113q2 2 5 8.5t5 8.5q0 3 4.5 8t5.5 8l-2 -2q10 8 18 32.5t17 32.5v-2q3 8 15 23.5t16 21.5l10 15l10 10l13 16l12 15v-2 q2 6 6 13t7.5 11t10 11t9.5 10q10 10 12 14h-2q43 51 8 131q1 0 2 -1t2 -1q-34 25 -84 18h4q-19 -4 -27.5 -18t-12.5 -39.5t-7 -34.5t-12 -12l-12 -6q-19 -4 -37.5 4t-26.5 23q-15 36 6 90l8 18q17 33 50 53q2 0 4 2q39 20 49 21q4 2 18 2q1 0 3 1t3 1h21q31 0 45 -2 q2 0 6.5 -1t7.5 -1q2 -2 11.5 -5.5t13.5 -6.5h-4q10 -3 20 -9l17 -12q46 -46 57 -98q0 -11 2 -17v-6q-6 -54 -27 -104l-6 -17q-4 -6 -15.5 -26t-17 -29t-16 -24t-20.5 -26.5t-21 -21.5h2q-22 -17 -39 -47q-4 -2 -8 -10q-1 -1 -9 -16t-15 -21h2q-3 -2 -5.5 -8t-5.5 -8 q-7 -11 -10 -19l-4 -4l-2 -8q-7 -11 -10 -22h88q4 0 12 1t12 1q11 0 19 2h31q19 0 35 -9.5t20 -27.5z" />
<glyph unicode="&#xb3;" horiz-adv-x="487" d="M403 1001q3 -7 0 -14q0 -1 1.5 -3.5t1.5 -4.5q0 -3 -1.5 -10t-1.5 -11v-10q0 -11 -3.5 -24t-5.5 -19t-10.5 -24t-8.5 -19l-6 -10q-1 -1 -17 -23q-2 0 -6 -4q-9 -8 -43 -32l-10 -7q-28 -12 -68 -12h-12q-41 0 -74 17l-8 6q-4 2 -31 24l-8 6q-29 26 -39 74q-2 2 -2 8 q-2 6 -2 19v10q0 54 33 63q15 3 31 3q1 0 3 -1.5t3 -1.5q37 -4 37 -67v-8q0 -2 1 -6t1 -5q3 -13 10 -20l4 -6q9 -9 23 -12q2 -3 6 -3q2 -2 8 -2q27 -6 49.5 3.5t28.5 33.5q6 18 6 21q1 2 2 5.5t2 4.5v8q2 4 2 8q2 5 2 33q-10 46 -16 55l-6 7l-9 6q-10 11 -28 14h-13 q-4 1 -20.5 3t-24.5 7q-21 9 -24 33v10q1 18 12.5 27.5t35 16.5t30.5 10q1 0 3 1t3 1l16 12q15 14 19 22l4 9q0 2 1 6t1 6q8 22 10.5 31t1.5 26t-12 29q-22 31 -88 27q-15 -5 -21 -9l-8 -6l-8 -8q-21 -26 -25 -86q0 -8 -12 -16q-1 0 -3 -1t-3 -1t-3.5 -1t-4.5 -1 q-23 -7 -41 4q-20 11 -23 32q-2 4 -2 9q-9 57 29 108l6 8q27 45 88 62q2 0 5.5 1t4.5 1q12 2 33 2h37q26 0 47 -12h-2q2 -2 6 -2l16 -11q43 -25 64.5 -67t15.5 -88v-23q-2 -2 -2 -10q-2 -3 -8 -21q0 -2 -1 -5t-1 -5l-6 -16l-4 -8q-3 -7 -8 -12.5t-11.5 -11t-11 -9 t-13.5 -9.5l-12 -8q5 -5 17 -11t16 -11q1 -1 3 -2l3 -1.5t2 -0.5q13 -13 17 -21l6 -8q9 -14 24 -63v-9zM266 1339l2 -2q0 2 -2 2z" />
<glyph unicode="&#xb4;" horiz-adv-x="251" d="M14 1616q20 33 49 65q2 4 11 13q2 4 10 12l12 16q7 7 27 37t38.5 42t43.5 3q2 0 14 -6q34 -19 31 -51q0 -8 -4 -16l-6 -15q-9 -12 -38.5 -51.5t-47.5 -60.5l-15 -15l-12 -14l-12 -14q-1 -1 -8 -7t-9 -8t-9 -7.5t-10 -6t-11 -5t-11 -2.5t-12 1q-27 6 -39 31.5t2 48.5z" />
<glyph unicode="&#xb6;" horiz-adv-x="1241" d="M1036 1458q25 -2 43.5 -19.5t18.5 -41.5q0 -25 -19 -44t-43 -18h-59v-151q-2 -53 -2 -156v-39q0 -12 -2 -18l-2 -6v-156q0 -51 4 -145v-21q-3 -78 4 -176v-133q-3 -18 0.5 -60.5t-2.5 -60.5q-6 -15 0 -31q-2 -2 -2 -6q-5 -44 -4 -53v-43q0 -17 -2 -23q0 -20 -9 -37 t-26 -18q-28 -4 -53 4t-29 33v20q0 11 2.5 69.5t-0.5 70.5q2 6 2 18q4 64 2 94v131q-2 8 -2 21q1 18 -1.5 52.5t-2.5 47.5v4q-2 12 0.5 34t1.5 32q0 3 -1 9t-1 9q-4 70 -4 109v121q2 55 2 135v127q0 20 2 28q0 4 1 11.5t1 11.5v14q0 2 1 6.5t1 6.5v61q2 18 -2 51l-178 -4 h-51v-153q-2 -53 -2 -156v-39q0 -12 -2 -18l-3 -7v-155q0 -29 5 -146v-20q-3 -78 4 -176v-133q-2 -6 -2 -21v-20q0 -11 2 -15v-16q4 -30 -3 -85t-6 -77v-20q0 -17 -2 -23q0 -20 -8.5 -37t-25.5 -18q-28 -4 -53 4t-29 33v59q2 4 2 12l4 127v205q-2 8 -2 21q1 18 -1.5 52.5 t-2.5 47.5v4q-2 12 0.5 34t1.5 32q0 3 -1 9t-1 9q-4 70 -4 109v51q-56 -13 -107 -10q-17 0 -53 4l-17 4q-100 32 -165 112l-7 13q-14 25 -24 59q-4 12 -4 19q-3 10 -8 38q0 15 -2 21q0 12 -5 47q0 3 -1 8t-1 8q0 81 35 156l6 12q17 29 41 56q2 4 8 8.5t7 5.5q15 15 47 35 l18 10q54 24 101 27q12 0 18 2q14 0 20 2q15 0 21 2q14 0 22 2q3 0 9.5 1t9.5 1q31 2 94 2h19q65 -3 143 4q8 2 22 2q244 5 293 4z" />
<glyph unicode="&#xb7;" horiz-adv-x="172" d="M55 438l-8 4q-32 15 -42.5 51t5.5 66l6 12q3 2 12 10t17 11q6 6 14 6q8 4 9 4q23 4 36 0q8 0 17 -6l12 -6q11 -5 12 -8q30 -17 26.5 -68.5t-38.5 -64.5l-16 -7q-27 -12 -62 -4z" />
<glyph unicode="&#xb8;" horiz-adv-x="362" d="M63 -307h11q6 0 24 -6l25 -11l16 -6q3 0 9.5 -1t9.5 -1q12 0 16 2q12 0 21 6q3 1 5.5 2.5t5.5 4.5t5 4q33 42 29 71v-2q0 11 -2 13l-9 12l-10 12l-10 10l-10 9l-13 6l-16 6l2 -2q-6 2 -16 2q-13 -3 -23 0q-61 3 -61 65v21q0 5 -0.5 25.5t-0.5 33t1.5 33.5t5.5 34.5 t10 27.5t17 21.5t26 8.5h16l17 -6q24 -12 24 -55q0 -2 1 -7t1 -8v-84q4 1 23 -4l20 -6l15 -6q44 -14 76 -57q2 -2 5 -8.5t5 -8.5l12 -20l8 -21q18 -56 -2.5 -114.5t-68.5 -94.5l-15 -10q-33 -17 -67 -22q-2 0 -7 -1t-8 -1q-18 -2 -57 -2q-10 0 -16 2q-48 3 -90 34 q-14 9 -19 26.5t2 31.5q0 4 6 16l15 13l10 6q8 6 26 6z" />
<glyph unicode="&#xb9;" horiz-adv-x="331" d="M246 991q0 -8 -2 -16v-14q0 -24 -4 -70v-10q-1 -9 1.5 -31t0.5 -33v-10q-6 -15 -23.5 -23.5t-34.5 -5.5q-2 0 -5 1t-5 1q-34 12 -29 68v80q4 61 0 92v106l2 31v45q0 11 1 30.5t1 34.5t-2 29v37q-3 -1 -14.5 -7.5t-19.5 -6.5q-2 0 -5.5 -1t-5.5 -1h-10q-16 -2 -37 10h2 q-16 16 -16 33q0 1 1 4t1 4q11 28 49 49q2 1 5.5 2t4.5 2q2 1 6 2t5 2q3 0 8 5l29 12h4l14 4h12q42 5 58 -16l6 -11l-2 2q9 -7 6 -43t-2 -45v-12l2 -21l-2 -170v-139z" />
<glyph unicode="&#xba;" horiz-adv-x="514" d="M432 997q-2 -5 -2 -24v-19l-2 -12v-10q0 -1 -1 -3t-1 -3t-1 -3t-1 -3q0 -9 -6 -21q0 -4 -4 -12q-26 -55 -43 -70v2q-13 -17 -48 -31t-42 -18h-15q-3 0 -8 -1t-8 -1q-61 0 -96 16l-19 9q-42 23 -65 53v-2q-3 6 -7.5 18.5t-7.5 18.5q0 6 -4 18q-11 72 -8 127v47l-2 31v8 l2 33q0 16 2 22v31l2 16v31q0 1 1 3.5t1 4.5v9q0 2 1 6.5t1 7.5v10l4 17q1 10 -0.5 15t2 14.5t5 13t7 12t8 12t9 12t8.5 11.5v-2q9 4 26 16.5t27 17.5t13 5q12 4 14 4l16 4h82q13 0 29 -4h-4q2 -2 10 -2t12 -2l13 -5q2 -4 6 -4l6 -6h2q-4 2 0 2q8 -3 12 -10q50 -50 60 -90 q0 -1 1 -6t1 -6q0 -2 -2 0l4 -13q2 -4 2 -14v-4q2 -10 2 -45v-6q2 -20 2 -70l2 -10v-13v-22h2v-111zM328 1001l2 11q-2 16 -1.5 51t-2.5 51v90q0 11 2 17q4 61 -19 94l2 -2q-25 26 -66 25t-71 -23q-33 -25 -29 -88q0 -4 -1 -11t-1 -10v-90q-2 -18 0 -39v-135q3 -25 25 -55 l2 -2q30 -19 53 -19q8 2 43 2q1 0 13 4q4 0 8 2q-4 0 2 3q2 0 4 2l2 4l6 6q7 7 14 24l7 21q0 12 3 34t3 33zM393 666l13 -7q16 -16 10.5 -38t-23.5 -33q-19 -9 -53 -6h-145q-6 0 -52.5 -1t-52.5 5q-16 5 -23 20.5t1 30.5q3 9 8 14q22 18 49 15h20q14 0 51.5 -1t65 -0.5 t53.5 3.5h41q3 0 9.5 -1t9.5 -1h18z" />
<glyph unicode="&#xbb;" horiz-adv-x="899" d="M90 168q2 2 5.5 8t4.5 8l9 11l51 51l10 10q10 12 10 16l13 15l6 10l24 27l17 14q3 4 14.5 19.5t17.5 21.5q6 11 33 43l88 98l-26 33l-27 27l-25 32q-13 22 -30 43q-40 43 -66 76l-12 19q-8 13 -19 24.5t-29 26t-24 20.5q-30 30 -39 64q-4 12 -4 20q-6 19 4.5 36.5 t28.5 25.5q19 8 53 -13l15 -10q12 -10 49 -53q6 -8 14 -14q5 -6 30.5 -36t37.5 -48l10 -11q7 -9 23.5 -26.5t23.5 -26.5h-2l61 -78l15 -16l57 -68q18 -21 18 -51l-4 -18q-3 -16 -14 -27l-4 -4q-19 -17 -53 -59l-29 -35l-8 -11l-70 -79q-24 -30 -37 -43l-30 -37 q-4 -6 -13 -16.5t-10 -12.5l-18 -22l-11 -9l-10 -8q-8 -14 -22 -24l-15 -11q-22 -11 -46 -6t-42 23q-14 14 -10 37zM377 168q2 2 5.5 8t4.5 8l8 11l51 51l11 10q10 12 10 16l12 15l6 10l25 27l16 14q3 3 15 19t18 22q6 11 33 43l88 98l-27 33l-26 27l-25 32q-11 18 -31 43 q-34 36 -65 76l-12 19q-8 13 -19 24.5t-29 26t-24 20.5q-30 30 -39 64q-4 12 -4 20q-6 19 4.5 36.5t28.5 25.5q19 8 53 -13l14 -10q12 -10 49 -53q5 -7 15 -14q2 -3 28.5 -34.5t38.5 -49.5l11 -11q7 -9 23.5 -26.5t23.5 -26.5h-2l61 -78l14 -16l58 -68q18 -21 18 -51l-4 -18 q-3 -16 -14 -27l-4 -4q-22 -19 -54 -59l-28 -35l-8 -11l-70 -79q-24 -30 -37 -43l-31 -37q-3 -4 -7 -9.5t-8.5 -11t-6.5 -8.5l-19 -22l-10 -9l-10 -8q-7 -12 -23 -24l-14 -11q-22 -11 -46 -6t-42 23q-14 14 -10 37zM672 723q0 2 -4 6q0 -2 4 -6zM385 723q0 2 -4 6q0 -2 4 -6 z" />
<glyph unicode="&#xbc;" horiz-adv-x="886" d="M688 1452q48 -10 41 -43l-6 -18q-5 -13 -14.5 -36.5t-17 -43.5t-11.5 -39q-1 -1 -8 -15l-6 -14l-7 -12q-3 -14 -8 -23l-8 -16l-6 -18q-3 -6 -8.5 -18t-7.5 -17v2q-16 -23 -34 -72t-26 -65q-4 -8 -4 -13l-6 -14l-4 -14l-4 -19l-4 -14l-7 -15q-10 -34 -24 -59v2 q-5 -7 -8 -20l-6 -21l-7 -22q-12 -24 -22 -54l-6 -18q-14 -28 -17 -37q-5 -7 -8 -20q-2 -4 -20 -52l-19 -55q-4 -6 -8 -18q-2 -9 -22 -54l6 9l-9 -17l-8 -18l-4 -12l-6 -15q-8 -28 -25 -61l-8 -19q-17 -35 -22 -47q-3 -9 -18 -55t-27 -70q-4 -12 -8 -18q-32 -82 -35 -92 l-8 -17l-7 -16l2 2q-22 -30 -30 -47h-4q-9 -6 -17 -6q-4 -2 -14 -2q-39 0 -47 34q-2 6 -2 19q0 26 25.5 77.5t29.5 63.5l8 19q19 42 23 55l8 20q11 39 42 106t40 93q0 4 4 12l4 13l6 20l4 14v-2q22 46 31 76l6 21q7 18 74 182l8 16v-2l6 21q0 6 4 18q7 27 31 81t31 83l6 16 q7 14 8 15l6 20l4 8l25 60q0 14 10 24l8 25l6 12q13 40 44 108t40 91l11 16l8 11q26 23 53 20zM788 217l7 -8q10 -11 9 -27.5t-11 -29.5q-28 -31 -72 -21v-51q4 -35 -10 -61t-47 -21h-11l-8 2q-30 19 -24 47v4l2 21v59q-51 0 -76 -2h-8q-42 0 -50 2h-55q-21 0 -37.5 13 t-13.5 36l8 21v2q4 4 4 8l4 12q0 2 2 4q5 5 5 11q4 4 4 6q4 4 4 6q2 3 4 10.5t4 11.5l29 62q2 4 2 10q4 4 4 8q12 28 22 43q1 1 2 3l1.5 3t0.5 2q1 1 5 8t6 9q0 1 1 3t1 3q33 58 53 104l4 5q0 4 4 8l12 24l6 11l15 22l18 29q4 4 4 6l19 24q14 19 41.5 15.5t38.5 -23.5v2 q8 -20 8 -26q2 -2 2 -9v-90q0 -28 -2 -53v-123q2 -29 2 -88v-4q2 -18 2 -29h20q26 -3 45 -14zM246 991q0 -8 -2 -16v-14q0 -24 -4 -70v-10q-1 -9 1.5 -31t0.5 -33v-10q-6 -15 -23.5 -23.5t-34.5 -5.5q-2 0 -5 1t-5 1q-34 12 -29 68v80q4 61 0 92v106l2 31v45q0 11 1 30.5 t1 34.5t-2 29v37q-3 -1 -14.5 -7.5t-19.5 -6.5q-2 0 -5.5 -1t-5.5 -1h-10q-16 -2 -37 10h2q-16 16 -16 33q0 1 1 4t1 4q11 28 49 49q2 1 5.5 2t4.5 2q2 1 6 2t5 2q3 0 8 5l29 12h4l14 4h12q42 5 58 -16l6 -11l-2 2q9 -7 6 -43t-2 -45v-12l2 -21l-2 -170v-139zM623 231v84 l-2 11v8l-3 16v56q3 24 3 47q-4 -12 -21 -33h2l-6 -17q-4 -4 -4 -8l-23 -39l-6 -10q-10 -23 -33 -67q0 -5 -4 -9q-2 -3 -4 -9t-4 -9l-2 -8l-8 -13h115zM268 532q0 5 2 7z" />
<glyph unicode="&#xbd;" horiz-adv-x="937" d="M688 1452q48 -10 41 -43l-6 -18q-5 -13 -14.5 -36.5t-17 -43.5t-11.5 -39q-1 -1 -8 -15l-6 -14l-7 -12q-3 -14 -8 -23l-8 -16l-6 -18q-3 -6 -8.5 -18t-7.5 -17v2q-16 -23 -34 -72t-26 -65q-4 -8 -4 -13l-6 -14l-4 -14l-4 -19l-4 -14l-7 -15q-10 -34 -24 -59v2 q-5 -7 -8 -20l-6 -21l-7 -22q-12 -24 -22 -54l-6 -18q-14 -28 -17 -37q-5 -7 -8 -20q-2 -4 -20 -52l-19 -55q-4 -6 -8 -18q-2 -9 -22 -54l6 9l-9 -17l-8 -18l-4 -12l-6 -15q-8 -28 -25 -61l-8 -19q-17 -35 -22 -47q-3 -9 -18 -55t-27 -70q-4 -12 -8 -18q-32 -82 -35 -92 l-8 -17l-7 -16l2 2q-22 -30 -30 -47h-4q-9 -6 -17 -6q-4 -2 -14 -2q-39 0 -47 34q-2 6 -2 19q0 26 25.5 77.5t29.5 63.5l8 19q19 42 23 55l8 20q11 39 42 106t40 93q0 4 4 12l4 13l6 20l4 14v-2q22 46 31 76l6 21q7 18 74 182l8 16v-2l6 21q0 6 4 18q7 27 31 81t31 83l6 16 q7 14 8 15l6 20l4 8l25 60q0 14 10 24l8 25l6 12q13 40 44 108t40 91l11 16l8 11q26 23 53 20zM846 68l-2 2q13 -33 -12 -53t-56 -13h-174q-1 0 -3.5 -1t-4.5 -1h-19q-8 0 -12 2q-8 0 -12 2q-19 6 -27 17q-4 8 -4 12q-2 6 -2 18q7 67 31 113q1 2 4.5 8t5.5 8q0 3 4.5 9 t5.5 8l-2 -2q10 8 18.5 32.5t16.5 32.5v-2q3 8 15 23.5t16 21.5l10 14q1 1 4.5 5.5t5.5 5.5l13 16l12 14v-2q2 6 6 13t7.5 11t10 11t9.5 10q9 9 12 15h-2q43 51 8 131q1 0 2 -1t2 -1q-34 25 -84 18h4q-19 -4 -27.5 -18t-12.5 -39.5t-7 -34.5t-12 -12l-12 -6 q-19 -4 -37.5 3.5t-26.5 22.5q-15 36 6 90l8 19q17 33 50 53q2 0 4 2q39 20 49 21q4 2 18 2q1 0 3 1t3 1h21q31 0 45 -2q2 0 6.5 -1t7.5 -1q2 -2 11.5 -6t13.5 -7h-4q13 -3 20 -8l17 -12q46 -46 57 -98q0 -11 2 -17v-6q-6 -54 -27 -104l-6 -17q-4 -6 -15.5 -26t-17 -29 t-16 -24t-20.5 -26.5t-21 -21.5h2q-22 -17 -39 -47q-4 -2 -8 -10q-1 -1 -9 -16t-15 -21h2q-3 -2 -5.5 -8t-5.5 -8q-7 -11 -10 -19l-4 -4l-2 -8q-7 -10 -10 -23h88q4 0 12 1t12 1q11 0 19 2h31q46 0 55 -36zM246 991q0 -8 -2 -16v-14q0 -24 -4 -70v-10q-1 -9 1.5 -31t0.5 -33 v-10q-6 -15 -23.5 -23.5t-34.5 -5.5q-2 0 -5 1t-5 1q-34 12 -29 68v80q4 61 0 92v106l2 31v45q0 11 1 30.5t1 34.5t-2 29v37q-3 -1 -14.5 -7.5t-19.5 -6.5q-2 0 -5.5 -1t-5.5 -1h-10q-16 -2 -37 10h2q-16 16 -16 33q0 1 1 4t1 4q11 28 49 49q2 1 5.5 2t4.5 2q2 1 6 2t5 2 q3 0 8 5l29 12h4l14 4h12q42 5 58 -16l6 -11l-2 2q9 -7 6 -43t-2 -45v-12l2 -21l-2 -170v-139zM268 532q0 5 2 7z" />
<glyph unicode="&#xbe;" horiz-adv-x="987" d="M788 1452q48 -10 41 -43l-6 -18q-5 -13 -14.5 -36.5t-17 -43.5t-11.5 -39q-1 -1 -8 -15l-6 -14l-6 -12q-4 -14 -8 -23l-9 -16l-6 -18q-3 -6 -8.5 -18t-7.5 -17v2q-16 -23 -33 -71.5t-26 -65.5q-5 -10 -5 -13l-6 -14l-4 -14l-4 -19l-4 -14l-6 -15q-9 -30 -25 -59v2 q-5 -7 -8 -20l-6 -21l-6 -22q-15 -30 -23 -54l-6 -18q-11 -22 -16 -37q-5 -7 -8 -20q-6 -12 -21 -52l-18 -55q-6 -9 -9 -18q-2 -9 -22 -54l6 9l-8 -17l-8 -18l-4 -12l-7 -15q-10 -33 -24 -61l-8 -19q-22 -43 -23 -47q-3 -9 -18 -55t-27 -70q-4 -12 -8 -18q-32 -83 -35 -92 l-8 -17l-6 -16l2 2q-25 -35 -31 -47h-4q-9 -6 -16 -6q-4 -2 -15 -2q-39 0 -47 34q-2 6 -2 19q0 26 25.5 77.5t29.5 63.5l9 19q15 33 22 55l8 20q11 39 42 106t40 93q0 4 4 12l4 13l7 20l4 14v-2q20 41 30 76l7 21q18 48 73 182l8 16v-2l7 21q0 6 4 18q7 27 30.5 81t30.5 83 l6 16q7 14 8 15l7 20l4 8l24 60q0 14 10 24l9 25l6 12q13 40 44 108t40 91l10 16l8 11q26 23 53 20zM889 217l6 -8q10 -11 9 -27.5t-11 -29.5q-28 -31 -72 -21v-51q4 -35 -10 -61t-47 -21h-10l-9 2q-30 19 -24 47v4l2 21v59q-51 0 -76 -2h-8q-41 0 -49 2h-55q-21 0 -38 13 t-14 36l9 21v2q4 4 4 8l4 12q0 2 2 4q4 4 4 11q4 4 4 6q4 4 4 6q3 5 6 14l4 12l27 58q2 4 2 10q4 4 4 8q10 24 23 43q1 1 2 3l1.5 3t0.5 2q2 2 5 8.5t5 8.5q0 1 1 3t1 3q33 58 53 104l4 5q0 4 4 8l13 24l6 11l14 22l19 29q4 4 4 6l18 24q14 19 41.5 15.5t38.5 -23.5v2 q8 -20 8 -26q2 -2 2 -9v-90q0 -28 -2 -53v-123q2 -29 2 -88v-4q2 -18 2 -29h21q26 -3 45 -14zM403 1001q3 -7 0 -14q0 -1 1.5 -3.5t1.5 -4.5q0 -3 -1.5 -10t-1.5 -11v-10q0 -11 -3.5 -24t-5.5 -19t-10.5 -24t-8.5 -19l-6 -10q-1 -1 -17 -23q-2 0 -6 -4q-9 -8 -43 -32l-10 -7 q-28 -12 -68 -12h-12q-41 0 -74 17l-8 6q-4 2 -31 24l-8 6q-29 26 -39 74q-2 2 -2 8q-2 6 -2 19v10q0 54 33 63q15 3 31 3q1 0 3 -1.5t3 -1.5q37 -4 37 -67v-8q0 -2 1 -6t1 -5q3 -13 10 -20l4 -6q9 -9 23 -12q2 -3 6 -3q2 -2 8 -2q27 -6 49.5 3.5t28.5 33.5q6 18 6 21 q1 2 2 5.5t2 4.5v8q2 4 2 8q2 5 2 33q-10 46 -16 55l-6 7l-9 6q-10 11 -28 14h-13q-4 1 -20.5 3t-24.5 7q-21 9 -24 33v10q1 18 12.5 27.5t35 16.5t30.5 10q1 0 3 1t3 1l16 12q15 14 19 22l4 9q0 2 1 6t1 6q8 22 10.5 31t1.5 26t-12 29q-22 31 -88 27q-15 -5 -21 -9l-8 -6 l-8 -8q-21 -26 -25 -86q0 -8 -12 -16q-1 0 -3 -1t-3 -1t-3.5 -1t-4.5 -1q-23 -7 -41 4q-20 11 -23 32q-2 4 -2 9q-9 57 29 108l6 8q27 45 88 62q2 0 5.5 1t4.5 1q12 2 33 2h37q26 0 47 -12h-2q2 -2 6 -2l16 -11q43 -25 64.5 -67t15.5 -88v-23q-2 -2 -2 -10q-2 -3 -8 -21 q0 -2 -1 -5t-1 -5l-6 -16l-4 -8q-3 -7 -8 -12.5t-11.5 -11t-11 -9t-13.5 -9.5l-12 -8q5 -5 17 -11t16 -11q1 -1 3 -2l3 -1.5t2 -0.5q13 -13 17 -21l6 -8q9 -14 24 -63v-9zM723 231v84l-2 11v8l-2 16v56q2 16 2 47q-4 -12 -21 -33h2l-6 -17q-4 -4 -4 -8l-22 -39l-6 -10 q-10 -23 -33 -67q0 -5 -4 -9q-2 -3 -4.5 -9t-4.5 -9l-2 -8l-8 -13h115zM369 532q0 5 2 7zM266 1339l2 -2q0 2 -2 2z" />
<glyph unicode="&#xbf;" horiz-adv-x="884" d="M106 246q-2 8 -2.5 23t-1.5 20v33l7 53v18l6 21l4 20q2 3 8 21q22 66 63 123q3 6 9 12l8 10q10 15 35 45q0 1 1 2t1 2q2 2 2 4l14 17l53 78l13 14q2 4 10 12q6 8 20.5 21.5t20.5 21.5q8 11 23.5 36.5t25.5 37.5q15 19 18 37l5 12q4 20 4 27q4 35 4 104q0 25 18 43.5 t43 18.5t43.5 -18.5t18.5 -43.5v-57q0 -13 -2 -21q-10 -113 -66 -192l-12 -13q-7 -8 -19.5 -23t-22.5 -27.5t-18 -24.5l-14 -21l-12 -14l-11 -14l-43 -62q-11 -17 -28 -37q-2 -6 -10 -14q-13 -18 -39 -62l-11 -16q-18 -49 -24 -102q-2 -6 -2 -21q-8 -118 37 -180l12 -16 q6 -6 12 -9q12 -10 37 -18l21 -6q92 -16 139 -8q6 0 18 4q23 5 53 20l17 10q67 63 67 125v41q0 45 25 62q22 14 46 7t38 -28l6 -12q8 -18 8 -66v-20q0 -5 -1 -15.5t-1 -15.5l-4 -14q-28 -103 -117 -166l-18 -12q-49 -28 -100 -37q-4 -2 -13 -2q-20 -4 -28 -4h-51 q-100 -7 -166 28q-11 4 -19 9q-35 17 -67 49q-10 7 -15 14l-28 33q-1 1 -11 16l-10 15q-3 13 -12 38.5t-12 40.5q-3 6 -3 13zM446 1329q0 4 -1 12.5t-1 12.5l5 22q2 3 5 11.5t5 11.5q12 16 28 28q14 11 37 11q13 2 39 -11q14 -7 21 -16q9 -9 16 -27q3 -16 0 -32q-2 -2 -2 -4 q-3 -16 -16 -33q-7 -7 -13 -10q-14 -14 -20 -17q-20 -10 -37 -10l-18 4q-14 5 -29 16t-19 31z" />
<glyph unicode="&#xc0;" horiz-adv-x="1015" d="M907 188q5 -24 15 -53q0 -6 4 -18q2 -7 13.5 -37t12.5 -47q1 -25 -23 -36t-52 -7q-5 0 -17 4l-14 6q-22 13 -37 61q0 7 -4 19l-25 88l-6 22l-4 23q-6 31 -24 87.5t-21 68.5l-2 8h-6q-71 0 -213 2t-213 2q-44 -139 -47 -156l-4 -22q-8 -52 -31 -115l-6 -20q-3 -17 -13 -33 q-4 -14 -8 -17q-2 -6 -10 -14q-2 -2 -14 -8q-16 -4 -23 -4h-22q-46 10 -50 35q-5 45 19 98q4 12 8 18l6 17l6 18q0 3 1 9.5t1 9.5q23 58 52 186l6 18l6 17l8 18l6 17q1 5 11 41q0 6 4 14l12 53l8 27l8 28l8 31l7 27q17 46 30 104l17 62l18 55l8 33l4 18l7 19l4 16l16 53 l4 17q20 63 23 75q0 9 4 21q3 23 10 53l6 17q5 17 24.5 72t26.5 85l7 23q7 30 28.5 50.5t46.5 8.5q7 -3 12.5 -8.5t10 -14t7 -14t6 -17.5t5.5 -16l6 -20q17 -33 32.5 -98t21.5 -82q5 -14 8 -19q4 -12 4 -18l35 -121l6 -20q3 -18 10 -39l12 -41l7 -33l18 -55l16 -62 q1 -4 5 -16.5t6 -18.5q0 -6 4 -18q6 -17 18 -65t23 -72q0 -9 2 -15l4 -12l14 -53l4 -14q0 -9 2 -15q0 -2 1 -6t1 -6q6 -30 26 -83.5t26 -76.5l4 -18l20 -84zM348 592l-20 -88q242 -4 360 -4l-6 22q0 9 -2 13q0 3 -1 8.5t-1 7.5l-6 16l-13 31l5 -4q-22 30 -35 99t-15 77 q0 6 -4 18l-24 82l-13 45q-2 11 -6 21q-9 35 -14 49q-4 12 -4 16q-27 72 -35 134q-4 12 -4 18l-4 21q0 -3 -1 -9.5t-1 -9.5t-1 -8.5t-1 -7.5q-3 -25 -10 -49q-5 -15 -9 -21q-1 -3 -10.5 -36t-13.5 -50l-2 2l-13 -53l-6 -17q-2 -10 -4 -22l-6 -23q-20 -54 -49 -174l-8 -28 l-4 -21q-2 -7 -21 -59zM561 1616l6 -10q14 -23 2 -48.5t-39 -31.5q-4 -4 -14 -0.5t-13 3.5t-11.5 6.5t-11 8t-10.5 9t-9 8.5l-12 14l-13 14q-12 12 -14 15q-18 21 -47.5 60.5t-38.5 51.5l-6 15q-4 8 -4 16q-1 15 7.5 29t22.5 22q12 6 15 6q25 9 43 -3t37.5 -41.5t27.5 -37.5 l13 -16q8 -8 10 -12q7 -7 10 -13q29 -32 49 -65zM63 29q1 1 3 3.5t2 4.5z" />
<glyph unicode="&#xc1;" horiz-adv-x="1015" d="M907 188q5 -24 15 -53q0 -6 4 -18q2 -7 13.5 -37t12.5 -47q1 -25 -23 -36t-52 -7q-5 0 -17 4l-14 6q-22 13 -37 61q0 7 -4 19l-25 88l-6 22l-4 23q-6 31 -24 87.5t-21 68.5l-2 8h-6q-71 0 -213 2t-213 2q-44 -139 -47 -156l-4 -22q-8 -52 -31 -115l-6 -20q-3 -17 -13 -33 q-4 -14 -8 -17q-2 -6 -10 -14q-2 -2 -14 -8q-16 -4 -23 -4h-22q-46 10 -50 35q-5 45 19 98q4 12 8 18l6 17l6 18q0 3 1 9.5t1 9.5q23 58 52 186l6 18l6 17l8 18l6 17q1 5 11 41q0 6 4 14l12 53l8 27l8 28l8 31l7 27q17 46 30 104l17 62l18 55l8 33l4 18l7 19l4 16l16 53 l4 17q20 63 23 75q0 9 4 21q3 23 10 53l6 17q5 17 24.5 72t26.5 85l7 23q7 30 28.5 50.5t46.5 8.5q7 -3 12.5 -8.5t10 -14t7 -14t6 -17.5t5.5 -16l6 -20q17 -33 32.5 -98t21.5 -82q5 -14 8 -19q4 -12 4 -18l35 -121l6 -20q3 -18 10 -39l12 -41l7 -33l18 -55l16 -62 q1 -4 5 -16.5t6 -18.5q0 -6 4 -18q6 -17 18 -65t23 -72q0 -9 2 -15l4 -12l14 -53l4 -14q0 -9 2 -15q0 -2 1 -6t1 -6q6 -30 26 -83.5t26 -76.5l4 -18l20 -84zM348 592l-20 -88q242 -4 360 -4l-6 22q0 9 -2 13q0 3 -1 8.5t-1 7.5l-6 16l-13 31l5 -4q-22 30 -35 99t-15 77 q0 6 -4 18l-24 82l-13 45q-2 11 -6 21q-9 35 -14 49q-4 12 -4 16q-27 72 -35 134q-4 12 -4 18l-4 21q0 -3 -1 -9.5t-1 -9.5t-1 -8.5t-1 -7.5q-3 -25 -10 -49q-5 -15 -9 -21q-1 -3 -10.5 -36t-13.5 -50l-2 2l-13 -53l-6 -17q-2 -10 -4 -22l-6 -23q-20 -54 -49 -174l-8 -28 l-4 -21q-2 -7 -21 -59zM446 1616q18 29 50 65q3 6 10 13q2 4 10 12l12 16q7 7 27 37t38.5 42t43.5 3q2 0 14 -6q34 -19 31 -51q0 -8 -4 -16l-6 -15q-9 -12 -38.5 -51.5t-47.5 -60.5l-15 -15l-12 -14l-12 -14q-1 -1 -8 -7t-9 -8t-9 -7.5t-10 -6t-11 -5t-11 -2.5t-12 1 q-27 6 -39 31.5t2 48.5zM63 29q1 1 3 3.5t2 4.5z" />
<glyph unicode="&#xc2;" horiz-adv-x="1015" d="M907 188q5 -24 15 -53q0 -6 4 -18q2 -7 13.5 -37t12.5 -47q1 -25 -23 -36t-52 -7q-5 0 -17 4l-14 6q-22 13 -37 61q0 7 -4 19l-25 88l-6 22l-4 23q-6 31 -24 87.5t-21 68.5l-2 8h-6q-71 0 -213 2t-213 2q-44 -139 -47 -156l-4 -22q-8 -52 -31 -115l-6 -20q-3 -17 -13 -33 q-4 -14 -8 -17q-2 -6 -10 -14q-2 -2 -14 -8q-16 -4 -23 -4h-22q-46 10 -50 35q-5 45 19 98q4 12 8 18l6 17l6 18q0 3 1 9.5t1 9.5q23 58 52 186l6 18l6 17l8 18l6 17q1 5 11 41q0 6 4 14l12 53l8 27l8 28l8 31l7 27q17 46 30 104l17 62l18 55l8 33l4 18l7 19l4 16l16 53 l4 17q20 63 23 75q0 9 4 21q3 23 10 53l6 17q5 17 24.5 72t26.5 85l7 23q7 30 28.5 50.5t46.5 8.5q7 -3 12.5 -8.5t10 -14t7 -14t6 -17.5t5.5 -16l6 -20q17 -33 32.5 -98t21.5 -82q5 -14 8 -19q4 -12 4 -18l35 -121l6 -20q3 -18 10 -39l12 -41l7 -33l18 -55l16 -62 q1 -4 5 -16.5t6 -18.5q0 -6 4 -18q6 -17 18 -65t23 -72q0 -9 2 -15l4 -12l14 -53l4 -14q0 -9 2 -15q0 -2 1 -6t1 -6q6 -30 26 -83.5t26 -76.5l4 -18l20 -84zM348 592l-20 -88q242 -4 360 -4l-6 22q0 9 -2 13q0 3 -1 8.5t-1 7.5l-6 16l-13 31l5 -4q-22 30 -35 99t-15 77 q0 6 -4 18l-24 82l-13 45q-2 11 -6 21q-9 35 -14 49q-4 12 -4 16q-27 72 -35 134q-4 12 -4 18l-4 21q0 -3 -1 -9.5t-1 -9.5t-1 -8.5t-1 -7.5q-3 -25 -10 -49q-5 -15 -9 -21q-1 -3 -10.5 -36t-13.5 -50l-2 2l-13 -53l-6 -17q-2 -10 -4 -22l-6 -23q-20 -54 -49 -174l-8 -28 l-4 -21q-2 -7 -21 -59zM311 1608l6 10q18 29 50 65q3 6 10 13q2 4 10 12q11 10 35.5 43.5t47 49t52.5 9.5l17 -8q13 -7 25.5 -20t27.5 -32t22 -26l13 -16q8 -8 10 -12q7 -7 10 -13q29 -32 49 -65l6 -10q15 -23 3 -48.5t-39 -31.5q-9 1 -12 -1t-11 2.5t-11 5t-10 6t-9 7.5 t-9 8t-8 7l-25 28q-12 12 -14 15q-5 6 -51 63l-49 -63l-15 -15l-24 -28q-1 -1 -8 -7t-9 -8t-9 -7.5t-10 -6t-11 -5t-11 -2.5t-12 1q-27 6 -39 31.5t2 48.5zM63 29q1 1 3 3.5t2 4.5z" />
<glyph unicode="&#xc3;" horiz-adv-x="1015" d="M907 188q5 -24 15 -53q0 -6 4 -18q2 -7 13.5 -37t12.5 -47q1 -25 -23 -36t-52 -7q-5 0 -17 4l-14 6q-22 13 -37 61q0 7 -4 19l-25 88l-6 22l-4 23q-6 31 -24 87.5t-21 68.5l-2 8h-6q-71 0 -213 2t-213 2q-44 -139 -47 -156l-4 -22q-8 -52 -31 -115l-6 -20q-3 -17 -13 -33 q-4 -14 -8 -17q-2 -6 -10 -14q-2 -2 -14 -8q-16 -4 -23 -4h-22q-46 10 -50 35q-5 45 19 98q4 12 8 18l6 17l6 18q0 3 1 9.5t1 9.5q23 58 52 186l6 18l6 17l8 18l6 17q1 5 11 41q0 6 4 14l12 53l8 27l8 28l8 31l7 27q17 46 30 104l17 62l18 55l8 33l4 18l7 19l4 16l16 53 l4 17q20 63 23 75q0 9 4 21q3 23 10 53l6 17q5 17 24.5 72t26.5 85l7 23q7 30 28.5 50.5t46.5 8.5q7 -3 12.5 -8.5t10 -14t7 -14t6 -17.5t5.5 -16l6 -20q17 -33 32.5 -98t21.5 -82q5 -14 8 -19q4 -12 4 -18l35 -121l6 -20q3 -18 10 -39l12 -41l7 -33l18 -55l16 -62 q1 -4 5 -16.5t6 -18.5q0 -6 4 -18q6 -17 18 -65t23 -72q0 -9 2 -15l4 -12l14 -53l4 -14q0 -9 2 -15q0 -2 1 -6t1 -6q6 -30 26 -83.5t26 -76.5l4 -18l20 -84zM348 592l-20 -88q242 -4 360 -4l-6 22q0 9 -2 13q0 3 -1 8.5t-1 7.5l-6 16l-13 31l5 -4q-22 30 -35 99t-15 77 q0 6 -4 18l-24 82l-13 45q-2 11 -6 21q-9 35 -14 49q-4 12 -4 16q-27 72 -35 134q-4 12 -4 18l-4 21q0 -3 -1 -9.5t-1 -9.5t-1 -8.5t-1 -7.5q-3 -25 -10 -49q-5 -15 -9 -21q-1 -3 -10.5 -36t-13.5 -50l-2 2l-13 -53l-6 -17q-2 -10 -4 -22l-6 -23q-20 -54 -49 -174l-8 -28 l-4 -21q-2 -7 -21 -59zM723 1690v-11q6 -12 0 -32q0 -5 -2 -9q0 -8 -2 -14q0 -1 -1 -3t-1 -3l-15 -23l-4 -4q-25 -32 -51 -41l-6 -4l-37 -12h-6q-51 0 -80 20q-5 5 -8 5l-21 18q-13 13 -16 22q-1 3 -5.5 13.5t-6.5 15t-7 12.5t-9 12t-11 8t-14 5q-8 3 -14 -4q-8 -4 -11 -14 q-4 -13 -2 -15q13 -23 15 -30l2 -7q7 -25 -11 -43l-8 -6q-33 -17 -55 -6l-4 4q-17 12 -23 21l-12 24q0 2 -1 3.5t-1 2.5q-2 2 -2 9v8q-4 16 -4 20v6q0 19 4 35v8l4 11q6 20 22 36t35 21q8 4 11 4q48 20 88 6l10 -4q4 -4 8 -4l10 -4q35 -21 54 -57q0 -1 1 -3.5t1 -3.5 q9 -13 14 -24l6 -8q8 -19 37 -19q20 1 25 24t-9 42q0 1 -1 3t-1 3q-4 8 -4 16v21q10 17 39 28q4 3 8 3q28 3 49 -21l7 -6q4 -4 4 -10l4 -6q4 -9 8 -39zM63 29q1 1 3 3.5t2 4.5z" />
<glyph unicode="&#xc4;" horiz-adv-x="1015" d="M907 188q5 -24 15 -53q0 -6 4 -18q2 -7 13.5 -37t12.5 -47q1 -25 -23 -36t-52 -7q-5 0 -17 4l-14 6q-22 13 -37 61q0 7 -4 19l-25 88l-6 22l-4 23q-6 31 -24 87.5t-21 68.5l-2 8h-6q-71 0 -213 2t-213 2q-44 -139 -47 -156l-4 -22q-8 -52 -31 -115l-6 -20q-3 -17 -13 -33 q-4 -14 -8 -17q-2 -6 -10 -14q-2 -2 -14 -8q-16 -4 -23 -4h-22q-46 10 -50 35q-5 45 19 98q4 12 8 18l6 17l6 18q0 3 1 9.5t1 9.5q23 58 52 186l6 18l6 17l8 18l6 17q1 5 11 41q0 6 4 14l12 53l8 27l8 28l8 31l7 27q17 46 30 104l17 62l18 55l8 33l4 18l7 19l4 16l16 53 l4 17q20 63 23 75q0 9 4 21q3 23 10 53l6 17q5 17 24.5 72t26.5 85l7 23q7 30 28.5 50.5t46.5 8.5q7 -3 12.5 -8.5t10 -14t7 -14t6 -17.5t5.5 -16l6 -20q17 -33 32.5 -98t21.5 -82q5 -14 8 -19q4 -12 4 -18l35 -121l6 -20q3 -18 10 -39l12 -41l7 -33l18 -55l16 -62 q1 -4 5 -16.5t6 -18.5q0 -6 4 -18q6 -17 18 -65t23 -72q0 -9 2 -15l4 -12l14 -53l4 -14q0 -9 2 -15q0 -2 1 -6t1 -6q6 -30 26 -83.5t26 -76.5l4 -18l20 -84zM348 592l-20 -88q242 -4 360 -4l-6 22q0 9 -2 13q0 3 -1 8.5t-1 7.5l-6 16l-13 31l5 -4q-22 30 -35 99t-15 77 q0 6 -4 18l-24 82l-13 45q-2 11 -6 21q-9 35 -14 49q-4 12 -4 16q-27 72 -35 134q-4 12 -4 18l-4 21q0 -3 -1 -9.5t-1 -9.5t-1 -8.5t-1 -7.5q-3 -25 -10 -49q-5 -15 -9 -21q-1 -3 -10.5 -36t-13.5 -50l-2 2l-13 -53l-6 -17q-2 -10 -4 -22l-6 -23q-20 -54 -49 -174l-8 -28 l-4 -21q-2 -7 -21 -59zM326 1536l-9 4q-31 15 -41.5 51t5.5 66l6 12q4 2 12 10t16 11q6 6 15 6q1 1 3 2l3 1.5t2 0.5q23 4 37 0q7 0 16 -6l12 -6q11 -6 13 -9q30 -17 26 -68.5t-39 -64.5l-16 -6q-26 -12 -61 -4zM649 1530h-10q-34 5 -56.5 34t-19.5 64q2 4 2 10q2 3 9 15 t14 18q3 6 10 8l6 9q24 12 35 12q6 3 18 0h13q8 0 12 -4q34 -8 48 -56.5t-13 -74.5q-1 -2 -10 -11q-23 -17 -58 -24zM63 29q1 1 3 3.5t2 4.5z" />
<glyph unicode="&#xc5;" horiz-adv-x="1015" d="M672 1624q0 -2 1 -7t1 -7v-11q2 -6 2 -16q-5 -72 -74 -137l-14 -8q-28 -14 -37 -17q5 -9 14 -35l6 -20q17 -33 32.5 -98t21.5 -82q5 -14 8 -19q4 -12 4 -18l35 -121l6 -20q3 -18 10 -39l12 -41l7 -33l18 -55l16 -62q1 -4 5 -16.5t6 -18.5q0 -6 4 -18q6 -17 18 -65t23 -72 q0 -9 2 -15l4 -12l14 -53l4 -14q0 -9 2 -15q0 -2 1 -6t1 -6q6 -30 26 -83.5t26 -76.5l4 -18l20 -84l6 -17q5 -24 15 -53q0 -6 4 -18q2 -7 13.5 -37t12.5 -47q1 -25 -23 -36t-52 -7q-5 0 -17 4l-14 6q-22 13 -37 61q0 7 -4 19l-25 88l-6 22l-4 23q-6 31 -24 87.5t-21 68.5 l-2 8h-6q-71 0 -213 2t-213 2q-44 -139 -47 -156l-4 -22q-8 -52 -31 -115l-6 -20q-3 -17 -13 -33q-4 -14 -8 -17q-2 -6 -10 -14q-2 -2 -14 -8q-16 -4 -23 -4h-22q-46 10 -50 35q-5 45 19 98q4 12 8 18l6 17l6 18q0 3 1 9.5t1 9.5q23 58 52 186l6 18l6 17l8 18l6 17 q1 5 11 41q0 6 4 14l12 53l8 27l8 28l8 31l7 27q17 46 30 104l17 62l18 55l8 33l4 18l7 19l4 16l16 53l4 17q20 63 23 75q0 9 4 21q3 23 10 53l6 17q5 17 24.5 72t26.5 85l7 23l10 28q-35 12 -53 27l-15 10v-2q-32 25 -43 64q-8 13 -8 39q-4 90 35 129q3 8 12 14 q35 37 107 41h18q63 0 127 -57l8 -13q25 -29 25 -53zM348 592l-20 -88q242 -4 360 -4l-6 22q0 9 -2 13q0 3 -1 8.5t-1 7.5l-6 16l-13 31l5 -4q-22 30 -35 99t-15 77q0 6 -4 18l-24 82l-13 45q-2 11 -6 21q-9 35 -14 49q-4 12 -4 16q-27 72 -35 134q-4 12 -4 18l-4 21 q0 -3 -1 -9.5t-1 -9.5t-1 -8.5t-1 -7.5q-3 -25 -10 -49q-5 -15 -9 -21q-1 -3 -10.5 -36t-13.5 -50l-2 2l-13 -53l-6 -17q-2 -10 -4 -22l-6 -23q-20 -54 -49 -174l-8 -28l-4 -21q-2 -7 -21 -59zM555 1532q4 4 8 12q19 32 4 60v-2q-10 24 -16 32l-16 6q-7 7 -23 7.5t-25 -5.5 q-42 -3 -47 -65q0 -34 32.5 -48t68.5 -1q6 0 14 4zM63 29q1 1 3 3.5t2 4.5z" />
<glyph unicode="&#xc6;" horiz-adv-x="1476" d="M1311 119q15 -5 20 -10q6 -1 13 -8.5t8 -8.5q6 -9 6 -16q4 -12 4 -25q-2 -12 -14 -28q-9 -9 -13 -11q-14 -12 -51 -12h-43q-8 0 -45 -2.5t-45 0.5q-3 0 -10.5 1t-10.5 1q-12 2 -38 2q-8 -2 -23 -2q-69 0 -84 2h-18q-6 0 -19 1t-20 1h-82q-18 -4 -68 -4h-33q-1 0 -3 -1 t-3 -1h-24q-15 0 -23 2q-8 0 -16 4q-24 9 -35 31t-11.5 41.5t1 51t0.5 44.5v53q-7 62 0 154h-72v-2q-180 4 -268 4q-44 -139 -47 -156l-4 -22q-8 -52 -31 -115l-6 -20q-3 -17 -13 -33q-4 -14 -8 -17q-2 -6 -10 -14q-2 -2 -14 -8q-16 -4 -23 -4h-22q-46 10 -50 35 q-5 45 19 98q4 12 8 18l6 17l6 18q0 3 1 9.5t1 9.5q23 58 52 186l6 18l6 17l8 18l6 17q1 5 11 41q0 6 4 14l12 53l8 27l8 28l8 31l7 27q17 46 30 104l17 62l18 55l8 33l4 18l7 19l4 16l16 53l4 17l12 36q5 15 5 19q7 21 19 71t22 76l6 19l14 37l6 18q0 2 1 7t1 7 q6 43 37.5 75t73.5 28q3 0 9 -1t9 -1q40 0 60 2q10 3 16 0q12 0 18 -2h17q34 11 82 4h2q10 2 35 2h51q82 -4 117 -4q24 0 71 1.5t81 1t67 -4.5q16 -2 53 -2h63q31 0 52 -13l-2 3q28 -18 28 -62q-6 -25 -17 -37t-21.5 -14t-32.5 -2h-68q-43 0 -59 2h2q-26 1 -75.5 -0.5 t-60.5 -1.5h-32q-14 0 -19 2q-3 0 -10 1t-10 1q-16 2 -53 2h-37q-2 0 -8 1t-9 1h-39q-1 0 -4 1t-4 1h-37q-8 -2 -26 -2q-2 -35 -2 -106q0 -50 4 -152v-64q0 -8 1 -22t1 -21q4 -39 0 -71v-88l200 -6h11q30 -2 90.5 0t89.5 0h8q49 0 66 -33q15 -36 -2 -68q-5 -8 -13 -12 q-23 -17 -55 -14l-18 4q-55 -2 -162 -2h-109q-3 0 -9 1t-9 1q-54 0 -72 2h-12v-41q0 -3 -1 -7t-1 -6v-30q0 -1 -1 -6.5t-1 -6.5q-2 -10 -2 -30v-37q0 -2 1 -6t1 -6q-2 -35 -2 -101q0 -5 -1 -15t-1 -15v-72q0 -19 2 -23v-88v-55h92h123h22q68 0 101 -2q14 0 20 -2q25 0 37 -2 q12 0 18 -2q19 -2 71 3t71 -3zM348 592l-20 -88q136 -4 204 -4q4 2 17 2h82l-2 28v21q-4 145 2 219v14q-1 0 -1 20l1 21v39q3 95 -4 197q-4 90 -4 149q0 70 2 95v16q-37 3 -74 0q0 -2 -2 -4q-10 -27 -22.5 -84t-22.5 -84q-3 -9 -6 -29.5t-6 -29.5q-5 -15 -9 -21 q-1 -3 -10.5 -36t-13.5 -50l-2 2l-13 -53l-6 -17q-2 -10 -4 -22l-6 -23q-20 -54 -49 -174l-8 -28l-4 -21q-2 -7 -21 -59zM63 29q1 1 3 3.5t2 4.5z" />
<glyph unicode="&#xc7;" horiz-adv-x="964" d="M412 -307h10q6 0 24 -6l25 -11l16 -6q3 0 9.5 -1t9.5 -1q12 0 16 2q12 0 21 6q3 1 5.5 2.5t5.5 4.5t5 4q33 42 29 71q0 9 -2 11l-8 12l-11 12l-10 10l-10 9l-12 6l-17 6l2 -2q-6 2 -16 2q-13 -3 -23 0q-61 3 -61 65v21v86q-56 9 -111 31l-18 8q-83 36 -150 135l-6 16 q-3 4 -8 17l-6 16q-5 17 -10 57q0 13 -2 19q0 7 -5 37q-2 8 -2 22q0 4 1 12.5t1 12.5v22q-2 39 -2 142q0 55 4 84q-2 8 -2 26v25q0 22 -1 81.5t-1 76.5l2 24q0 52 1 106t1 60q3 12 3 16q4 20 5.5 61t6.5 62q4 12 4 17q20 55 33 98l10 18q42 53 65 76l17 12q72 43 147 58 q13 0 21 2q64 6 123 6q69 0 134.5 -30.5t108.5 -75.5l17 -23q26 -36 37 -75.5t18 -102.5v-58q-1 -22 -5 -36t-21 -27.5t-48 -13.5q-16 0 -26.5 6t-16.5 19t-7.5 18.5t-4.5 19.5q0 2 -1 6.5t-1 5.5v29q-4 86 -29 129t-80 70l2 -2q-47 14 -81 14q-10 0 -68 -4q-3 0 -10 -1 t-10 -1q-76 -12 -117 -35l-15 -10q-32 -22 -41 -60v11q-3 -13 -12.5 -42.5t-15 -52t-6.5 -43.5q0 -12 -2 -18q-2 -25 -2 -74v-14q0 -8 -2.5 -22.5t-2.5 -20.5v-92q-2 -29 -2 -84v-21q-5 -22 -2.5 -78.5t0.5 -78.5q0 -17 -2 -23v-51q0 -10 -0.5 -28t-0.5 -29t1 -26.5t4 -29.5 v-14q0 -10 -2 -16q0 -11 2 -17v-16l11 -47l2 -8l4 -13q1 -9 4 -18.5t8.5 -20t8.5 -16t11.5 -19t10.5 -16.5v2q10 -12 26 -22l17 -9q22 -11 59 -22l21 -6q32 -13 78 -13q8 0 38 5q33 4 95 28v-2q41 14 71 56l13 22v-2q16 20 19.5 46t1 60.5t-0.5 51.5l6 20q5 14 8 19 q3 10 9 16q16 22 53 18l18 -4q31 -12 37 -49q0 -2 1 -7t1 -7q-4 -19 -5 -37t0 -47.5t1 -36.5l-4 -18q-4 -32 -18 -64v2l-11 -18l-24 -37q-57 -65 -103 -82h2q-9 -7 -28.5 -14t-26.5 -11l-14 -4q-23 -10 -43 -10l-27 -8q-3 0 -10.5 -1t-11.5 -1v-56q3 1 22 -4l21 -6l14 -6 q44 -14 76 -57q2 -2 5 -8.5t5 -8.5l12 -20l8 -21q18 -56 -2.5 -114.5t-68.5 -94.5l-15 -10q-33 -17 -67 -22q-2 0 -6.5 -1t-7.5 -1q-18 -2 -58 -2q-10 0 -16 2q-48 3 -90 34q-14 9 -19 26.5t2 31.5q0 4 6 16l15 13l10 6q8 6 27 6zM242 287q2 0 2 -2z" />
<glyph unicode="&#xc8;" horiz-adv-x="997" d="M754 1440h63q30 0 51 -13l-2 3q29 -18 29 -62q-4 -19 -10.5 -30.5t-17.5 -16t-19 -5.5t-25 -1h-67q-44 0 -60 2h2q-26 1 -75 -0.5t-60 -1.5h-33q-13 0 -18 2q-3 0 -10 1t-10 1q-16 2 -54 2h-37q-2 0 -7.5 1t-8.5 1h-39q-1 0 -4 1t-4 1h-37q-8 -2 -27 -2q-2 -35 -2 -106 q0 -50 4 -152v-64q0 -8 1.5 -22t1.5 -21q4 -39 0 -71v-88l200 -6h10q29 -2 90 0t91 0h8q48 0 65 -33q15 -36 -2 -68q-6 -9 -12 -12q-23 -17 -55 -14l-19 4q-55 -2 -161 -2h-109q-3 0 -9 1t-9 1q-54 0 -72 2h-12v-41q0 -3 -1 -7t-1 -6v-30q0 -1 -1 -6.5t-1 -6.5 q-3 -15 -3 -30v-37q0 -2 1.5 -6t1.5 -6q-3 -52 -3 -101q0 -5 -1 -15t-1 -15v-72q0 -19 2 -23v-88v-55h93q23 1 102 -0.5t102 2.5q8 -2 23 -2q44 0 90 -6h23q16 -1 33.5 -1t40 0.5t34.5 0.5q2 0 6 -1t6 -1q22 -6 43 -27q11 -28 11 -41q-9 -33 -43 -47q-12 -4 -19 -4 q-12 -4 -39 -4q-3 0 -10 3t-10 3q-18 -6 -63.5 -1t-63.5 3h-17q-24 0 -36 -2h-19q-37 -2 -114 2h-82q-18 -4 -68 -4h-33q-1 0 -3 -1t-3 -1h-24q-15 0 -23 2q-8 0 -16 4q-24 9 -35 31t-11.5 41.5t1 51t0.5 44.5v53q-10 66 2 197v18l-4 90v21q-4 145 2 219v14q-2 0 -1 20l1 21 v39q3 85 -5 197q-4 90 -4 149q0 70 2 95v53q0 2 2 2q-5 58 33 76.5t96 9.5h3q10 2 34 2h52q82 -4 116 -4q24 0 71 1.5t81 1t67 -4.5q16 -2 54 -2zM578 1616l6 -10q14 -23 2 -48.5t-39 -31.5q-9 1 -12 -1t-11 2.5t-11 5t-10 6t-9 7.5t-9 8t-8 7l-12 14l-12 14l-15 15 q-18 21 -47.5 60.5t-38.5 51.5l-6 15q-4 8 -4 16q-3 32 31 51q12 6 14 6q25 9 43.5 -3t38.5 -42t27 -37l12 -16q8 -8 10 -12q7 -7 10 -13q32 -36 50 -65z" />
<glyph unicode="&#xc9;" horiz-adv-x="997" d="M754 1440h63q30 0 51 -13l-2 3q29 -18 29 -62q-4 -19 -10.5 -30.5t-17.5 -16t-19 -5.5t-25 -1h-67q-44 0 -60 2h2q-26 1 -75 -0.5t-60 -1.5h-33q-13 0 -18 2q-3 0 -10 1t-10 1q-16 2 -54 2h-37q-2 0 -7.5 1t-8.5 1h-39q-1 0 -4 1t-4 1h-37q-8 -2 -27 -2q-2 -35 -2 -106 q0 -50 4 -152v-64q0 -8 1.5 -22t1.5 -21q4 -39 0 -71v-88l200 -6h10q29 -2 90 0t91 0h8q48 0 65 -33q15 -36 -2 -68q-6 -9 -12 -12q-23 -17 -55 -14l-19 4q-55 -2 -161 -2h-109q-3 0 -9 1t-9 1q-54 0 -72 2h-12v-41q0 -3 -1 -7t-1 -6v-30q0 -1 -1 -6.5t-1 -6.5 q-3 -15 -3 -30v-37q0 -2 1.5 -6t1.5 -6q-3 -52 -3 -101q0 -5 -1 -15t-1 -15v-72q0 -19 2 -23v-88v-55h93q23 1 102 -0.5t102 2.5q8 -2 23 -2q44 0 90 -6h23q16 -1 33.5 -1t40 0.5t34.5 0.5q2 0 6 -1t6 -1q22 -6 43 -27q11 -28 11 -41q-9 -33 -43 -47q-12 -4 -19 -4 q-12 -4 -39 -4q-3 0 -10 3t-10 3q-18 -6 -63.5 -1t-63.5 3h-17q-24 0 -36 -2h-19q-37 -2 -114 2h-82q-18 -4 -68 -4h-33q-1 0 -3 -1t-3 -1h-24q-15 0 -23 2q-8 0 -16 4q-24 9 -35 31t-11.5 41.5t1 51t0.5 44.5v53q-10 66 2 197v18l-4 90v21q-4 145 2 219v14q-2 0 -1 20l1 21 v39q3 85 -5 197q-4 90 -4 149q0 70 2 95v53q0 2 2 2q-5 58 33 76.5t96 9.5h3q10 2 34 2h52q82 -4 116 -4q24 0 71 1.5t81 1t67 -4.5q16 -2 54 -2zM432 1616q20 33 49 65q2 4 11 13q2 4 10 12l12 16q7 7 27 37t38.5 42t43.5 3q2 0 14 -6q34 -19 31 -51q0 -8 -4 -16l-7 -15 q-9 -12 -38.5 -51.5t-47.5 -60.5q-2 -3 -14 -15l-12 -14l-13 -14q-1 -1 -9 -8.5t-10.5 -9t-11 -8t-11.5 -6.5t-13 -3.5t-14 0.5q-27 6 -39 31.5t2 48.5z" />
<glyph unicode="&#xca;" horiz-adv-x="997" d="M754 1440h63q30 0 51 -13l-2 3q29 -18 29 -62q-4 -19 -10.5 -30.5t-17.5 -16t-19 -5.5t-25 -1h-67q-44 0 -60 2h2q-26 1 -75 -0.5t-60 -1.5h-33q-13 0 -18 2q-3 0 -10 1t-10 1q-16 2 -54 2h-37q-2 0 -7.5 1t-8.5 1h-39q-1 0 -4 1t-4 1h-37q-8 -2 -27 -2q-2 -35 -2 -106 q0 -50 4 -152v-64q0 -8 1.5 -22t1.5 -21q4 -39 0 -71v-88l200 -6h10q29 -2 90 0t91 0h8q48 0 65 -33q15 -36 -2 -68q-6 -9 -12 -12q-23 -17 -55 -14l-19 4q-55 -2 -161 -2h-109q-3 0 -9 1t-9 1q-54 0 -72 2h-12v-41q0 -3 -1 -7t-1 -6v-30q0 -1 -1 -6.5t-1 -6.5 q-3 -15 -3 -30v-37q0 -2 1.5 -6t1.5 -6q-3 -52 -3 -101q0 -5 -1 -15t-1 -15v-72q0 -19 2 -23v-88v-55h93q23 1 102 -0.5t102 2.5q8 -2 23 -2q44 0 90 -6h23q16 -1 33.5 -1t40 0.5t34.5 0.5q2 0 6 -1t6 -1q22 -6 43 -27q11 -28 11 -41q-9 -33 -43 -47q-12 -4 -19 -4 q-12 -4 -39 -4q-3 0 -10 3t-10 3q-18 -6 -63.5 -1t-63.5 3h-17q-24 0 -36 -2h-19q-37 -2 -114 2h-82q-18 -4 -68 -4h-33q-1 0 -3 -1t-3 -1h-24q-15 0 -23 2q-8 0 -16 4q-24 9 -35 31t-11.5 41.5t1 51t0.5 44.5v53q-10 66 2 197v18l-4 90v21q-4 145 2 219v14q-2 0 -1 20l1 21 v39q3 85 -5 197q-4 90 -4 149q0 70 2 95v53q0 2 2 2q-5 58 33 76.5t96 9.5h3q10 2 34 2h52q82 -4 116 -4q24 0 71 1.5t81 1t67 -4.5q16 -2 54 -2zM303 1608l6 10q20 33 49 65q2 4 11 13q2 4 10 12q11 10 35.5 43.5t47 49t52.5 9.5l16 -8q13 -7 26 -20t28.5 -32t21.5 -26 l12 -16q10 -10 11 -12q7 -7 10 -13q29 -32 49 -65l6 -10q14 -23 2 -48.5t-39 -31.5q-4 -4 -14 -0.5t-13 3.5t-11.5 6.5t-11 8t-10.5 9t-9 8.5l-25 28q-12 12 -14 15q-5 6 -51 63l-49 -63l-15 -15l-24 -28q-1 -1 -8 -7t-9 -8t-9 -7.5t-10 -6t-11 -5t-11 -2.5t-12 1 q-27 6 -39 31.5t2 48.5z" />
<glyph unicode="&#xcb;" horiz-adv-x="997" d="M754 1440h63q30 0 51 -13l-2 3q29 -18 29 -62q-4 -19 -10.5 -30.5t-17.5 -16t-19 -5.5t-25 -1h-67q-44 0 -60 2h2q-26 1 -75 -0.5t-60 -1.5h-33q-13 0 -18 2q-3 0 -10 1t-10 1q-16 2 -54 2h-37q-2 0 -7.5 1t-8.5 1h-39q-1 0 -4 1t-4 1h-37q-8 -2 -27 -2q-2 -35 -2 -106 q0 -50 4 -152v-64q0 -8 1.5 -22t1.5 -21q4 -39 0 -71v-88l200 -6h10q29 -2 90 0t91 0h8q48 0 65 -33q15 -36 -2 -68q-6 -9 -12 -12q-23 -17 -55 -14l-19 4q-55 -2 -161 -2h-109q-3 0 -9 1t-9 1q-54 0 -72 2h-12v-41q0 -3 -1 -7t-1 -6v-30q0 -1 -1 -6.5t-1 -6.5 q-3 -15 -3 -30v-37q0 -2 1.5 -6t1.5 -6q-3 -52 -3 -101q0 -5 -1 -15t-1 -15v-72q0 -19 2 -23v-88v-55h93q23 1 102 -0.5t102 2.5q8 -2 23 -2q44 0 90 -6h23q16 -1 33.5 -1t40 0.5t34.5 0.5q2 0 6 -1t6 -1q22 -6 43 -27q11 -28 11 -41q-9 -33 -43 -47q-12 -4 -19 -4 q-12 -4 -39 -4q-3 0 -10 3t-10 3q-18 -6 -63.5 -1t-63.5 3h-17q-24 0 -36 -2h-19q-37 -2 -114 2h-82q-18 -4 -68 -4h-33q-1 0 -3 -1t-3 -1h-24q-15 0 -23 2q-8 0 -16 4q-24 9 -35 31t-11.5 41.5t1 51t0.5 44.5v53q-10 66 2 197v18l-4 90v21q-4 145 2 219v14q-2 0 -1 20l1 21 v39q3 85 -5 197q-4 90 -4 149q0 70 2 95v53q0 2 2 2q-5 58 33 76.5t96 9.5h3q10 2 34 2h52q82 -4 116 -4q24 0 71 1.5t81 1t67 -4.5q16 -2 54 -2zM340 1536l-8 4q-32 15 -42.5 51t5.5 66l6 12q3 2 12 10t17 11q6 6 14 6q1 1 3 2l3 1.5t2 0.5q23 4 37 0q8 0 17 -6l12 -6 q10 -5 12 -9q30 -17 26.5 -68.5t-38.5 -64.5l-17 -6q-26 -12 -61 -4zM664 1530h-11q-34 4 -56 33.5t-19 64.5q2 4 2 10q3 3 9 15t13 18q3 6 10 8l6 9q24 12 35 12q6 3 19 0h12q8 0 12 -4q34 -8 48 -56.5t-13 -74.5q-1 -2 -10 -11q-23 -17 -57 -24z" />
<glyph unicode="&#xcc;" horiz-adv-x="456" d="M270 174q-2 -2 -2 -6q-5 -45 -4 -53v-43q0 -17 -2 -23q0 -20 -9 -37t-26 -18q-28 -4 -53 4t-29 33v20q0 11 2.5 69t-0.5 70q3 9 3 19q4 64 2 94v131q-2 8 -2 21q1 18 -2 52t-3 48v4q-2 12 0.5 34t1.5 32q0 3 -1 9t-1 9q-4 70 -4 109v120q2 55 2 136v127q0 20 2 28 q0 4 1 11.5t1 11.5v14q0 2 1.5 6t1.5 6v62q1 16 -1.5 43.5t-2 50t7.5 41.5q12 26 42.5 34t53.5 -9q3 -2 8 -11q12 -15 12 -43v-204q-2 -53 -2 -156v-39q0 -12 -2 -18l-2 -7v-155q0 -52 4 -146v-20q-3 -78 4 -176v-133q-3 -18 0.5 -60.5t-2.5 -60.5q-6 -15 0 -31zM289 1622 l6 -10q14 -23 2 -48.5t-39 -31.5q-9 1 -12 -1t-11 2.5t-11 5t-10 6t-9 7.5t-9 8t-8 7l-12 14l-12 14q-12 12 -14 15q-18 22 -49.5 63t-37.5 49l-6 15q-4 8 -4 16q-3 32 31 51q12 6 14 6q25 9 43.5 -3t38.5 -41.5t27 -36.5l12 -17q8 -8 10 -12q10 -10 11 -12q27 -30 49 -66z " />
<glyph unicode="&#xcd;" horiz-adv-x="419" d="M272 174q-2 -2 -2 -6q-5 -45 -4 -53v-43q0 -17 -2 -23q0 -20 -9 -37t-26 -18q-28 -4 -53 4t-29 33v20q0 13 2.5 62.5t0.5 76.5q2 6 2 19q4 64 2 94v131q-2 8 -2 21q1 18 -2 52t-3 48v4q-2 12 1 34t2 32q0 3 -1.5 9t-1.5 9q-4 70 -4 109v120q2 55 2 136v127q0 20 2 28 q0 4 1.5 11.5t1.5 11.5v14q0 2 1 6t1 6v62q1 16 -1.5 43.5t-2 50t7.5 41.5q12 26 42.5 34t53.5 -9q3 -2 8 -11q12 -15 12 -43v-204q-2 -53 -2 -156v-39q0 -12 -2 -18l-2 -7v-155q0 -52 4 -146v-20q-3 -78 4 -176v-133q-3 -18 0.5 -60.5t-2.5 -60.5q-6 -15 0 -31zM104 1616 q18 29 50 65q3 6 10 13q2 4 10 12l12 16q7 7 27 37t38.5 42t43.5 3q2 0 14 -6q34 -19 31 -51q0 -8 -4 -16l-6 -15q-9 -12 -38.5 -51.5t-47.5 -60.5l-15 -15l-12 -14l-12 -14q-1 -1 -8 -7t-9 -8t-9 -7.5t-10 -6t-11 -5t-11 -2.5t-12 1q-27 6 -39 31.5t2 48.5z" />
<glyph unicode="&#xce;" horiz-adv-x="428" d="M276 174q-2 -2 -2 -6q-5 -45 -4 -53v-43q0 -17 -2 -23q0 -20 -9 -37t-26 -18q-28 -4 -52.5 4t-28.5 33v20q0 11 2.5 69t-0.5 70q2 6 2 19q4 64 2 94v131q-2 8 -2 21q1 18 -1.5 52.5t-2.5 47.5v4q-2 12 0.5 34t1.5 32q0 3 -1 9t-1 9q-5 87 -5 109v120q3 83 3 136v127 q0 20 2 28q0 4 1 11.5t1 11.5v14q0 2 1 6t1 6v62q1 16 -1.5 43.5t-2 50t7.5 41.5q12 26 42.5 34t53.5 -9q3 -2 8 -11q12 -15 12 -43v-204q-2 -53 -2 -156v-39q0 -12 -2 -18l-2 -7v-155q0 -52 4 -146v-20q-2 -68 5 -176v-133q-3 -18 0 -60.5t-3 -60.5q-6 -15 0 -31zM18 1608 l7 10q20 33 49 65q3 6 10 13q2 4 10 12q11 10 35.5 43.5t47 49t52.5 9.5l17 -8q13 -7 26 -20t28.5 -32t21.5 -26l12 -16q8 -8 10 -12q7 -7 10 -13q29 -32 49 -65l7 -10q14 -23 2 -48.5t-39 -31.5q-9 1 -12 -1t-11 2.5t-11 5t-10 6t-9 7.5t-9 8t-8 7l-24 28l-15 15 q-5 6 -51 63l-49 -63q-2 -3 -14 -15l-25 -28q-1 -1 -8 -7t-9 -8t-9 -7.5t-10 -6t-11 -5t-11 -2.5t-12 1q-27 6 -39 31.5t2 48.5z" />
<glyph unicode="&#xcf;" horiz-adv-x="485" d="M309 174q-2 -2 -2 -6q-5 -45 -4 -53v-43q0 -17 -2 -23q0 -20 -9 -37t-26 -18q-28 -4 -53 4t-29 33v20q0 11 2.5 69t-0.5 70q2 6 2 19q4 64 2 94v131q-2 8 -2 21q1 18 -1.5 52.5t-2.5 47.5v4q-2 12 0.5 34t1.5 32q0 3 -1 9t-1 9q-4 70 -4 109v120q2 55 2 136v127 q0 20 2 28q0 4 1 11.5t1 11.5v14q0 2 1 6t1 6v62q1 15 -1.5 43t-1.5 50.5t8 41.5q12 26 42.5 34t53.5 -9q3 -2 8 -11q12 -15 12 -43v-204q-2 -53 -2 -156v-39q0 -12 -2 -18l-2 -7v-155q0 -52 4 -146v-20q-3 -78 4 -176v-133q-3 -18 0.5 -60.5t-2.5 -60.5q-6 -15 0 -31z M66 1536l-9 4q-32 15 -42.5 51t5.5 66l7 12q4 2 12 10t16 11q6 6 15 6q1 1 3 2l3 1.5t2 0.5q23 4 37 0q7 0 16 -6l12 -6q11 -6 13 -9q30 -17 26 -68.5t-39 -64.5l-16 -6q-26 -12 -61 -4zM389 1530h-10q-34 5 -56.5 34t-19.5 64q2 4 2 10q2 3 9 15t14 18q3 6 10 8l6 9 q24 12 35 12q6 3 18 0h13q8 0 12 -4q34 -8 48 -56.5t-13 -74.5l-11 -11q-23 -17 -57 -24z" />
<glyph unicode="&#xd0;" horiz-adv-x="1007" d="M905 641v-143v-21q-1 -15 -1 -31.5t0.5 -37t0.5 -31.5v-19q-12 -81 -39 -161l-10 -19q-18 -33 -31.5 -54t-37 -45.5t-50.5 -39.5l-18 -8q-34 -18 -76 -27l-18 -4q-4 0 -11 -1t-10 -1q-14 -2 -55 -2q-1 0 -4 -1t-6 -1h-39q-82 0 -156 4h-92q-8 -4 -23 -4h-30 q-25 -3 -43 22q-18 30 -4 74l12 14v21q0 5 -3 45t-3 61v68q0 88 2 133v29q0 1 1 6t1 10v94q0 1 -1 6t-1 9v78h-90q-34 0 -58 24q-18 43 -2 70q25 25 78 30h59q2 -2 15 -2v283q0 82 2 125q0 8 1 29.5t1 33.5v19q2 16 2 57q-12 12 -12 35q0 26 17.5 44t43.5 18h2q11 8 29 8 q8 0 14 -2q28 4 47 4h21q51 4 159 -2q1 0 3.5 -1t3.5 -1q40 -4 55 -4q14 0 20 -2h21q9 0 18 -3q2 0 8 -1t9 -1q8 -3 45.5 -15.5t56.5 -20.5l19 -11q20 -10 53 -39l16 -16q28 -40 31 -45l8 -16q27 -47 35 -154v-25q4 -20 5.5 -44.5t1.5 -41.5t-0.5 -47t-0.5 -43v-18 q2 -35 4 -103.5t4 -103.5v-41zM778 547q-2 37 -2 108v21q-2 6 -2 18q-1 32 -5 96t-5 95v20q0 8 1 67.5t-5 65.5v21q-1 8 -3 36.5t-4 41.5t-6 35t-12 38t-20 31l-10 10q-2 5 -11 9q-2 2 -8 5.5t-8 4.5l-16 4q-4 2 -15 2q-31 16 -98 24q-9 3 -21 3q-1 0 -6 1t-6 1q-4 2 -35 2 q-40 6 -106 6q-51 0 -80 -4v-195q0 -25 -1 -71.5t-1 -69.5q-4 -126 -4 -187h30q97 0 138 -4h43q46 0 57 -45q19 -19 -6 -51q-22 -29 -74 -29h-26q-1 0 -3.5 1t-3.5 1h-16q-24 3 -39 3h-100v-289q-2 -35 -2 -92q0 -60 2 -95v-55q7 0 21 -1t20 -1v-2h28q58 -4 117 -4h21 q25 2 73 2h37l19 4q16 4 24 8q9 2 23 13q20 11 47 38v-2q26 44 53 136q-2 -2 -2 -5q0 9 4 17q1 3 1 8.5t1 7.5v17q-1 17 0.5 45t1.5 37v98z" />
<glyph unicode="&#xd1;" horiz-adv-x="1144" d="M1001 334q-2 -10 -2 -31t2 -31q0 -139 -6 -209v-20q-7 -33 -32 -45l-19 -6q-14 -1 -28 3t-23.5 9.5t-22 18.5t-18 19.5t-18 24t-15.5 21.5q-9 14 -10 16q-12 23 -21 35l-24 41l-10 15q-2 6 -10.5 23t-10.5 26v-4q-4 20 -14.5 40t-25 43.5t-21.5 36.5q-2 2 -5 8.5t-5 8.5 q-4 10 -16 32.5t-17 36.5l-8 19q-36 88 -82 160q-6 9 -9 18l-8 19l-6 16l-8 14q-26 52 -74 174q-1 1 -8 15l-8 16l-8 18q-1 1 -56 115l-6 14l-12 31q-45 93 -55 111q-1 3 -4.5 8t-4.5 6v-24q-2 -53 -2 -156v-39q0 -12 -2 -18l-2 -7v-155q0 -52 4 -146v-20q-3 -78 4 -176 v-133q-4 -21 0 -62q0 -3 1 -9t1 -9q2 -14 -2 -40.5t-4 -35.5q0 -15 -2 -48t-2 -50t-2 -23q0 -20 -9 -37t-26 -18q-28 -4 -53 4t-29 33v55q5 29 5.5 83.5t1.5 72.5v192q-2 8 -2 21q1 18 -2 52t-3 48v4q-2 12 1 34t2 32q0 3 -1.5 9t-1.5 9q-4 70 -4 109v120q2 55 2 136v127 q0 20 2 28q0 4 1.5 11.5t1.5 11.5v14q0 2 1 6t1 6v78q0 9 -1 33t-1.5 38t3 34.5t10.5 31.5t22 18.5t38 6.5q13 0 17 -2q33 -10 43 -43l16 -27l10 -12q3 -7 49 -90l13 -16q13 -30 43 -91.5t43 -91.5l18 -37q6 -13 18.5 -35.5t22 -41t16.5 -35.5l9 -21q39 -92 71 -161l9 -17 l12 -33q4 -6 8 -18q36 -56 78 -154l16 -32q5 -4 8 -15q23 -33 37 -65l11 -17q5 -11 24.5 -46t26.5 -56v-2q2 -2 2 -4v4q2 -4 7.5 -19.5t12.5 -21.5l6 -12l9 -11q0 6 1 20t1 21v172q-2 8 -2 21q1 18 -2 52t-3 48v4q-2 12 1 34t2 32q0 3 -1.5 9t-1.5 9q-4 70 -4 109v121 q2 55 2 135v127q0 20 2 28q0 4 1.5 11.5t1.5 11.5v14q0 2 1 6.5t1 6.5v61q1 16 -1.5 43.5t-2 50t7.5 41.5q12 26 42.5 34t53.5 -9q4 -2 8 -10q12 -15 12 -43v-205q-2 -53 -2 -156v-39q0 -12 -2 -18l-2 -6v-156q0 -51 4 -145v-21q-3 -78 4 -176v-133zM786 1690v-11 q6 -12 0 -32q0 -5 -2 -9q0 -8 -2 -14q0 -1 -1 -3t-1 -3l-14 -23l-4 -4q-25 -32 -51 -41l-6 -4l-37 -12h-6q-51 0 -80 20q-5 5 -9 5l-20 18q-13 13 -16 22q-1 3 -5 12t-6 12.5t-5.5 11t-7 11.5t-8 8.5t-10.5 7t-12 3.5q-7 3 -14 -4q-6 -3 -10 -14q-4 -13 -2 -15 q12 -20 14 -30l2 -7q7 -26 -10 -43l-8 -6q-34 -17 -56 -6l-4 4q-14 11 -22 21l-13 24q0 2 -1 3.5t-1 2.5q-2 2 -2 9v8q-4 16 -4 20v6q0 19 4 35v8l4 11q6 20 22.5 36t35.5 21q8 4 10 4q48 20 88 6l10 -4q4 -4 9 -4l10 -4q34 -20 53 -57q0 -1 1 -3.5t1 -3.5q9 -13 14 -24 l7 -8q8 -19 36 -19q20 1 25.5 24t-8.5 42q0 1 -1 3t-1 3q-4 8 -4 16v21q10 17 39 28q4 3 8 3q28 3 49 -21l6 -6q4 -4 4 -10l4 -6q4 -9 8 -39zM842 295v-2v2z" />
<glyph unicode="&#xd2;" horiz-adv-x="1011" d="M909 498q-2 -9 -4 -19q-7 -12 -5 -53t1 -53q0 -3 -1 -9t-1 -8q0 -14 -2 -20q0 -16 -6 -31q0 -2 -1 -7t-1 -7q-4 -24 -12 -37l-7 -18q-54 -107 -108 -156l-17 -14q-12 -9 -26.5 -17t-25 -13.5t-29 -12t-26.5 -9t-30.5 -9.5t-27.5 -9h4q-7 -3 -21 -3.5t-20 -2.5h-60 q-77 -2 -151.5 28.5t-128.5 85.5l-17 17l-18 24l-8 15q-23 48 -49 182v23q0 8 -5 43v20q-2 8 -2 21v24l2 23q0 3 1.5 9.5t1.5 10.5l2 115q0 16 -2 18l-3 72q-2 3 -2 18l2 78h3q0 23 4 47v21q0 2 1 6t1 6q0 33 2 45l2 37q2 18 2 55q0 6 1 17.5t1 17.5q2 6 2 16q0 7 1 20t1 19 q2 8 2 21q17 77 18 80q5 15 5 16q1 2 6 16q30 74 86 119q4 4 12 8q22 17 33 23l16 10q10 4 31.5 8.5t28.5 6.5l-3 -2q25 8 78 12q3 0 12 1t13 1h115q1 0 3.5 -1t4.5 -1q16 1 43.5 -5t38.5 -7q8 -3 18 -7l19 -6l16 -6l18 -10l17 -10q28 -31 46 -52.5t38.5 -54t31.5 -63.5 q0 -3 1.5 -8.5t1.5 -8.5l6 -37q0 -4 1 -11t1 -11q2 -6 2 -17q0 -3 1 -9t1 -9q5 -82 4 -98q0 -3 1 -9.5t1 -9.5q2 -31 2.5 -90.5t1.5 -77.5q2 -6 2 -18q4 -49 2 -74q0 -14 2 -20v-95q2 -12 2 -38v-21q1 -8 0.5 -30.5t1.5 -30.5zM780 481q-2 2 -2 4q2 8 2 47v21q-2 20 -2 63 v21q-2 51 -4 86q0 5 -1 12t-1 8q0 15 -1 43t-1 43q0 4 -1 12t-1 11q4 27 4 82v22q4 53 1.5 120.5t-21.5 115.5l-13 18q-2 4 -12.5 21t-15 24.5t-14 18.5t-19.5 18q-5 3 -19 8l-20 7l-21 4q-106 26 -172 8q-12 0 -18 -2q-6 0 -22 -4q-72 -10 -107 -68q-9 -14 -10 -16l-10 -21 l-4.5 -9t-4.5 -11q-18 -53 -24 -107q0 -3 -1 -9t-1 -9q-2 -16 -2 -53q0 -40 -4 -68v-70q0 -46 -7 -81v-35q-2 -50 5 -107l-5 -182q0 -3 1 -7.5t1 -6.5v-39q0 -27 3 -54q0 -12 2 -20q9 -81 69 -162l19 -14q74 -55 159 -49q8 2 78 2h12q10 1 30.5 7t25.5 7l16 8l17 8l16 19 l14 18q32 36 45 70l9 14q9 20 12 47q0 3 1 10.5t1 10.5zM610 1616l6 -10q15 -23 3 -48.5t-39 -31.5q-9 1 -12 -1t-11 2.5t-11 5t-10 6t-9 7.5t-9 8t-8 7l-12 14l-13 14q-12 12 -14 15q-18 21 -47.5 60.5t-38.5 51.5l-6 15q-4 8 -4 16q-3 32 31 51q12 6 14 6q25 9 43 -3 t37.5 -41.5t27.5 -37.5l13 -16q8 -8 10 -12q7 -7 10 -13q29 -32 49 -65z" />
<glyph unicode="&#xd3;" horiz-adv-x="1011" d="M909 498q-2 -9 -4 -19q-7 -12 -5 -53t1 -53q0 -3 -1 -9t-1 -8q0 -14 -2 -20q0 -16 -6 -31q0 -2 -1 -7t-1 -7q-4 -24 -12 -37l-7 -18q-54 -107 -108 -156l-17 -14q-12 -9 -26.5 -17t-25 -13.5t-29 -12t-26.5 -9t-30.5 -9.5t-27.5 -9h4q-7 -3 -21 -3.5t-20 -2.5h-60 q-77 -2 -151.5 28.5t-128.5 85.5l-17 17l-18 24l-8 15q-23 48 -49 182v23q0 8 -5 43v20q-2 8 -2 21v24l2 23q0 3 1.5 9.5t1.5 10.5l2 115q0 16 -2 18l-3 72q-2 3 -2 18l2 78h3q0 23 4 47v21q0 2 1 6t1 6q0 33 2 45l2 37q2 18 2 55q0 6 1 17.5t1 17.5q2 6 2 16q0 7 1 20t1 19 q2 8 2 21q17 77 18 80q5 15 5 16q1 2 6 16q30 74 86 119q4 4 12 8q22 17 33 23l16 10q10 4 31.5 8.5t28.5 6.5l-3 -2q25 8 78 12q3 0 12 1t13 1h115q1 0 3.5 -1t4.5 -1q16 1 43.5 -5t38.5 -7q8 -3 18 -7l19 -6l16 -6l18 -10l17 -10q28 -31 46 -52.5t38.5 -54t31.5 -63.5 q0 -3 1.5 -8.5t1.5 -8.5l6 -37q0 -4 1 -11t1 -11q2 -6 2 -17q0 -3 1 -9t1 -9q5 -82 4 -98q0 -3 1 -9.5t1 -9.5q2 -31 2.5 -90.5t1.5 -77.5q2 -6 2 -18q4 -49 2 -74q0 -14 2 -20v-95q2 -12 2 -38v-21q1 -8 0.5 -30.5t1.5 -30.5zM780 481q-2 2 -2 4q2 8 2 47v21q-2 20 -2 63 v21q-2 51 -4 86q0 5 -1 12t-1 8q0 15 -1 43t-1 43q0 4 -1 12t-1 11q4 27 4 82v22q4 53 1.5 120.5t-21.5 115.5l-13 18q-2 4 -12.5 21t-15 24.5t-14 18.5t-19.5 18q-5 3 -19 8l-20 7l-21 4q-106 26 -172 8q-12 0 -18 -2q-6 0 -22 -4q-72 -10 -107 -68q-9 -14 -10 -16l-10 -21 l-4.5 -9t-4.5 -11q-18 -53 -24 -107q0 -3 -1 -9t-1 -9q-2 -16 -2 -53q0 -40 -4 -68v-70q0 -46 -7 -81v-35q-2 -50 5 -107l-5 -182q0 -3 1 -7.5t1 -6.5v-39q0 -27 3 -54q0 -12 2 -20q9 -81 69 -162l19 -14q74 -55 159 -49q8 2 78 2h12q10 1 30.5 7t25.5 7l16 8l17 8l16 19 l14 18q32 36 45 70l9 14q9 20 12 47q0 3 1 10.5t1 10.5zM399 1616q18 29 50 65q3 6 10 13q2 4 10 12l12 16q7 7 27 37t38.5 42t43.5 3q2 0 14 -6q34 -19 31 -51q0 -8 -4 -16l-6 -15q-9 -12 -38.5 -51.5t-47.5 -60.5l-15 -15l-12 -14l-12 -14q-1 -1 -8 -7t-9 -8t-9 -7.5 t-10 -6t-11 -5t-11 -2.5t-12 1q-27 6 -39 31.5t2 48.5z" />
<glyph unicode="&#xd4;" horiz-adv-x="1011" d="M909 498q-2 -9 -4 -19q-7 -12 -5 -53t1 -53q0 -3 -1 -9t-1 -8q0 -14 -2 -20q0 -16 -6 -31q0 -2 -1 -7t-1 -7q-4 -24 -12 -37l-7 -18q-54 -107 -108 -156l-17 -14q-12 -9 -26.5 -17t-25 -13.5t-29 -12t-26.5 -9t-30.5 -9.5t-27.5 -9h4q-7 -3 -21 -3.5t-20 -2.5h-60 q-77 -2 -151.5 28.5t-128.5 85.5l-17 17l-18 24l-8 15q-23 48 -49 182v23q0 8 -5 43v20q-2 8 -2 21v24l2 23q0 3 1.5 9.5t1.5 10.5l2 115q0 16 -2 18l-3 72q-2 3 -2 18l2 78h3q0 23 4 47v21q0 2 1 6t1 6q0 33 2 45l2 37q2 18 2 55q0 6 1 17.5t1 17.5q2 6 2 16q0 7 1 20t1 19 q2 8 2 21q17 77 18 80q5 15 5 16q1 2 6 16q30 74 86 119q4 4 12 8q22 17 33 23l16 10q10 4 31.5 8.5t28.5 6.5l-3 -2q25 8 78 12q3 0 12 1t13 1h115q1 0 3.5 -1t4.5 -1q16 1 43.5 -5t38.5 -7q8 -3 18 -7l19 -6l16 -6l18 -10l17 -10q28 -31 46 -52.5t38.5 -54t31.5 -63.5 q0 -3 1.5 -8.5t1.5 -8.5l6 -37q0 -4 1 -11t1 -11q2 -6 2 -17q0 -3 1 -9t1 -9q5 -82 4 -98q0 -3 1 -9.5t1 -9.5q2 -31 2.5 -90.5t1.5 -77.5q2 -6 2 -18q4 -49 2 -74q0 -14 2 -20v-95q2 -12 2 -38v-21q1 -8 0.5 -30.5t1.5 -30.5zM780 481q-2 2 -2 4q2 8 2 47v21q-2 20 -2 63 v21q-2 51 -4 86q0 5 -1 12t-1 8q0 15 -1 43t-1 43q0 4 -1 12t-1 11q4 27 4 82v22q4 53 1.5 120.5t-21.5 115.5l-13 18q-2 4 -12.5 21t-15 24.5t-14 18.5t-19.5 18q-5 3 -19 8l-20 7l-21 4q-106 26 -172 8q-12 0 -18 -2q-6 0 -22 -4q-72 -10 -107 -68q-9 -14 -10 -16l-10 -21 l-4.5 -9t-4.5 -11q-18 -53 -24 -107q0 -3 -1 -9t-1 -9q-2 -16 -2 -53q0 -40 -4 -68v-70q0 -46 -7 -81v-35q-2 -50 5 -107l-5 -182q0 -3 1 -7.5t1 -6.5v-39q0 -27 3 -54q0 -12 2 -20q9 -81 69 -162l19 -14q74 -55 159 -49q8 2 78 2h12q10 1 30.5 7t25.5 7l16 8l17 8l16 19 l14 18q32 36 45 70l9 14q9 20 12 47q0 3 1 10.5t1 10.5zM309 1608l6 10q18 29 50 65q3 6 10 13q2 4 10 12q11 10 35.5 43.5t47 49t52.5 9.5l17 -8q13 -7 25.5 -20t27.5 -32t22 -26l13 -16q8 -8 10 -12q7 -7 10 -13q29 -32 49 -65l6 -10q15 -23 3 -48.5t-39 -31.5 q-9 1 -12 -1t-11 2.5t-11 5t-10 6t-9 7.5t-9 8t-8 7l-25 28q-12 12 -14 15q-5 6 -51 63l-49 -63l-15 -15l-24 -28q-1 -1 -8 -7t-9 -8t-9 -7.5t-10 -6t-11 -5t-11 -2.5t-12 1q-27 6 -39 31.5t2 48.5z" />
<glyph unicode="&#xd5;" horiz-adv-x="1011" d="M909 498q-2 -9 -4 -19q-7 -12 -5 -53t1 -53q0 -3 -1 -9t-1 -8q0 -14 -2 -20q0 -16 -6 -31q0 -2 -1 -7t-1 -7q-4 -24 -12 -37l-7 -18q-54 -107 -108 -156l-17 -14q-12 -9 -26.5 -17t-25 -13.5t-29 -12t-26.5 -9t-30.5 -9.5t-27.5 -9h4q-7 -3 -21 -3.5t-20 -2.5h-60 q-77 -2 -151.5 28.5t-128.5 85.5l-17 17l-18 24l-8 15q-23 48 -49 182v23q0 8 -5 43v20q-2 8 -2 21v24l2 23q0 3 1.5 9.5t1.5 10.5l2 115q0 16 -2 18l-3 72q-2 3 -2 18l2 78h3q0 23 4 47v21q0 2 1 6t1 6q0 33 2 45l2 37q2 18 2 55q0 6 1 17.5t1 17.5q2 6 2 16q0 7 1 20t1 19 q2 8 2 21q17 77 18 80q5 15 5 16q1 2 6 16q30 74 86 119q4 4 12 8q22 17 33 23l16 10q10 4 31.5 8.5t28.5 6.5l-3 -2q25 8 78 12q3 0 12 1t13 1h115q1 0 3.5 -1t4.5 -1q16 1 43.5 -5t38.5 -7q8 -3 18 -7l19 -6l16 -6l18 -10l17 -10q28 -31 46 -52.5t38.5 -54t31.5 -63.5 q0 -3 1.5 -8.5t1.5 -8.5l6 -37q0 -4 1 -11t1 -11q2 -6 2 -17q0 -3 1 -9t1 -9q5 -82 4 -98q0 -3 1 -9.5t1 -9.5q2 -31 2.5 -90.5t1.5 -77.5q2 -6 2 -18q4 -49 2 -74q0 -14 2 -20v-95q2 -12 2 -38v-21q1 -8 0.5 -30.5t1.5 -30.5zM780 481q-2 2 -2 4q2 8 2 47v21q-2 20 -2 63 v21q-2 51 -4 86q0 5 -1 12t-1 8q0 15 -1 43t-1 43q0 4 -1 12t-1 11q4 27 4 82v22q4 53 1.5 120.5t-21.5 115.5l-13 18q-2 4 -12.5 21t-15 24.5t-14 18.5t-19.5 18q-5 3 -19 8l-20 7l-21 4q-106 26 -172 8q-12 0 -18 -2q-6 0 -22 -4q-72 -10 -107 -68q-9 -14 -10 -16l-10 -21 l-4.5 -9t-4.5 -11q-18 -53 -24 -107q0 -3 -1 -9t-1 -9q-2 -16 -2 -53q0 -40 -4 -68v-70q0 -46 -7 -81v-35q-2 -50 5 -107l-5 -182q0 -3 1 -7.5t1 -6.5v-39q0 -27 3 -54q0 -12 2 -20q9 -81 69 -162l19 -14q74 -55 159 -49q8 2 78 2h12q10 1 30.5 7t25.5 7l16 8l17 8l16 19 l14 18q32 36 45 70l9 14q9 20 12 47q0 3 1 10.5t1 10.5zM721 1690v-11q6 -12 0 -32q0 -5 -2 -9q0 -8 -2 -14q0 -1 -1 -3t-1 -3l-15 -23l-4 -4q-25 -32 -51 -41l-6 -4l-37 -12h-6q-51 0 -80 20q-5 5 -8 5l-21 18q-13 13 -16 22q-1 3 -5.5 13.5t-6.5 15t-7 12.5t-9 12t-11 8 t-14 5q-8 3 -15 -4q-6 -3 -10 -14q-4 -13 -2 -15q14 -23 15 -30l2 -7q7 -25 -11 -43l-8 -6q-33 -17 -55 -6l-4 4q-17 12 -23 21l-12 24q0 2 -1 3.5t-1 2.5q-2 2 -2 9v8q-4 16 -4 20v6q0 19 4 35v8l4 11q6 20 22 36t35 21q8 4 10 4q48 20 89 6l10 -4q4 -4 8 -4l10 -4 q34 -20 53 -57q0 -1 1.5 -3.5t1.5 -3.5q9 -13 14 -24l6 -8q8 -19 37 -19q20 1 25 24t-9 42q0 1 -1 3t-1 3q-4 8 -4 16v21q10 17 39 28q4 3 8 3q28 3 49 -21l7 -6q4 -4 4 -10l4 -6q4 -9 8 -39z" />
<glyph unicode="&#xd6;" horiz-adv-x="1011" d="M909 498q-2 -9 -4 -19q-7 -12 -5 -53t1 -53q0 -3 -1 -9t-1 -8q0 -14 -2 -20q0 -16 -6 -31q0 -2 -1 -7t-1 -7q-4 -24 -12 -37l-7 -18q-54 -107 -108 -156l-17 -14q-12 -9 -26.5 -17t-25 -13.5t-29 -12t-26.5 -9t-30.5 -9.5t-27.5 -9h4q-7 -3 -21 -3.5t-20 -2.5h-60 q-77 -2 -151.5 28.5t-128.5 85.5l-17 17l-18 24l-8 15q-23 48 -49 182v23q0 8 -5 43v20q-2 8 -2 21v24l2 23q0 3 1.5 9.5t1.5 10.5l2 115q0 16 -2 18l-3 72q-2 3 -2 18l2 78h3q0 23 4 47v21q0 2 1 6t1 6q0 33 2 45l2 37q2 18 2 55q0 6 1 17.5t1 17.5q2 6 2 16q0 7 1 20t1 19 q2 8 2 21q17 77 18 80q5 15 5 16q1 2 6 16q30 74 86 119q4 4 12 8q22 17 33 23l16 10q10 4 31.5 8.5t28.5 6.5l-3 -2q25 8 78 12q3 0 12 1t13 1h115q1 0 3.5 -1t4.5 -1q16 1 43.5 -5t38.5 -7q8 -3 18 -7l19 -6l16 -6l18 -10l17 -10q28 -31 46 -52.5t38.5 -54t31.5 -63.5 q0 -3 1.5 -8.5t1.5 -8.5l6 -37q0 -4 1 -11t1 -11q2 -6 2 -17q0 -3 1 -9t1 -9q5 -82 4 -98q0 -3 1 -9.5t1 -9.5q2 -31 2.5 -90.5t1.5 -77.5q2 -6 2 -18q4 -49 2 -74q0 -14 2 -20v-95q2 -12 2 -38v-21q1 -8 0.5 -30.5t1.5 -30.5zM780 481q-2 2 -2 4q2 8 2 47v21q-2 20 -2 63 v21q-2 51 -4 86q0 5 -1 12t-1 8q0 15 -1 43t-1 43q0 4 -1 12t-1 11q4 27 4 82v22q4 53 1.5 120.5t-21.5 115.5l-13 18q-2 4 -12.5 21t-15 24.5t-14 18.5t-19.5 18q-5 3 -19 8l-20 7l-21 4q-106 26 -172 8q-12 0 -18 -2q-6 0 -22 -4q-72 -10 -107 -68q-9 -14 -10 -16l-10 -21 l-4.5 -9t-4.5 -11q-18 -53 -24 -107q0 -3 -1 -9t-1 -9q-2 -16 -2 -53q0 -40 -4 -68v-70q0 -46 -7 -81v-35q-2 -50 5 -107l-5 -182q0 -3 1 -7.5t1 -6.5v-39q0 -27 3 -54q0 -12 2 -20q9 -81 69 -162l19 -14q74 -55 159 -49q8 2 78 2h12q10 1 30.5 7t25.5 7l16 8l17 8l16 19 l14 18q32 36 45 70l9 14q9 20 12 47q0 3 1 10.5t1 10.5zM324 1536l-9 4q-31 15 -41.5 51t5.5 66l6 12q4 2 12 10t16 11q6 6 15 6q1 1 3 2l3 1.5t2 0.5q23 4 37 0q7 0 16 -6l12 -6q11 -6 13 -9q30 -17 26 -68.5t-39 -64.5l-16 -6q-26 -12 -61 -4zM647 1530h-10 q-34 5 -56.5 34t-19.5 64q2 4 2 10q2 3 9 15t14 18q3 6 10 8l6 9q24 12 35 12q6 3 18 0h13q8 0 12 -4q34 -8 48 -56.5t-13 -74.5q-1 -2 -10 -11q-23 -17 -58 -24z" />
<glyph unicode="&#xd7;" horiz-adv-x="811" d="M700 727l-65 -65l-96 -101l-13 -12q-5 -3 -10 -7.5t-11 -11.5t-9 -10q21 -12 55 -51l22 -20l58 -58l4 -5q4 -6 6 -7q34 -38 55 -55q-2 2 -2 4q25 -12 32.5 -42.5t-7.5 -52.5q-23 -26 -55 -26q-18 2 -39 23.5t-27 25.5q-8 8 -16 12q-90 85 -109 105l-16 14q-2 2 -10.5 12 t-12.5 14.5t-11.5 10.5t-14.5 10q-2 1 -3.5 -1.5l-4.5 -7.5t-5 -7l-10 -10q-3 -5 -27 -29q-10 -13 -41 -39l-32 -35q-5 0 -9 -4q-14 -14 -22 -27l-4 -2q-1 -3 -7 -9.5t-7 -8.5q-34 -43 -82 -55q-11 -3 -22.5 4.5t-15.5 12.5l-16 20l-8 14q-5 34 35 74l16 12q18 24 40 46 t54 50.5t44 40.5l14 21l8 10l16 18l-18 19q-39 39 -53 55l-31 31q-3 4 -6.5 7.5t-8 7.5t-7.5 7l-9 10q-53 53 -82 70q-24 11 -20 49q0 5 4 17q18 34 64 41q6 2 14 -2t19.5 -13t15.5 -12q10 -10 18 -14l94 -93l27 -26q7 -9 47 -49q12 -15 21 -21l90 90q1 1 6 11q7 8 78 79 l28 29q22 22 52 19q41 3 61 -43q3 -35 -23 -64z" />
<glyph unicode="&#xd8;" horiz-adv-x="1011" d="M272 -6h-8l-16 -6q-3 0 -9.5 -1t-9.5 -1q-21 -4 -34 4q-12 4 -17 12q-15 15 -6 33l6 14l6 17q3 22 13 45l-11 10l-18 24l-8 15q-23 48 -49 182v23q0 8 -5 43v20q-2 8 -2 21v24l2 23q0 3 1.5 9.5t1.5 10.5l2 115q0 16 -2 18l-3 72q-2 3 -2 18l2 78h3q0 23 4 47v21q0 2 1 6 t1 6q0 33 2 45l2 37q2 18 2 55q0 6 1 17.5t1 17.5q2 6 2 16q0 7 1 20t1 19q2 8 2 21q17 77 18 80q5 15 5 16q1 2 6 16q30 74 86 119q4 4 12 8q22 17 33 23l16 10q10 4 31.5 8.5t28.5 6.5l-3 -2q25 8 78 12q3 0 12 1t13 1h115q1 0 3.5 -1t4.5 -1q16 1 43.5 -5t38.5 -7 q8 -3 18 -7l19 -6q8 -4 10 -4l6 8q16 22 43 31q18 6 36.5 -3.5t26.5 -27.5q2 -5 3 -10.5t1.5 -9.5t-0.5 -10t-1 -9t-2 -9.5t-3 -8.5t-4 -9t-3.5 -8.5t-4 -9t-4.5 -8.5q43 -53 63 -108q0 -3 1.5 -8.5t1.5 -8.5l6 -37q0 -4 1 -11t1 -11q2 -6 2 -17q0 -3 1 -9t1 -9q5 -82 4 -98 q0 -3 1 -9.5t1 -9.5q2 -31 2.5 -90.5t1.5 -77.5q2 -6 2 -18q4 -49 2 -74q0 -14 2 -20v-95q2 -12 2 -38v-21q1 -8 0.5 -30.5t1.5 -30.5q-2 -9 -4 -19q-7 -12 -5 -53t1 -53q0 -3 -1 -9t-1 -8q0 -14 -2 -20q0 -16 -6 -31q0 -2 -1 -7t-1 -7q-4 -24 -12 -37l-7 -18 q-54 -107 -108 -156l-17 -14q-12 -9 -26.5 -17t-25 -13.5t-29 -12t-26.5 -9t-30.5 -9.5t-27.5 -9h4q-7 -3 -21 -3.5t-20 -2.5h-60q-101 0 -186 43zM780 481q-2 2 -2 4q2 8 2 47v21q-2 20 -2 63v21q-2 51 -4 86q0 5 -1 12t-1 8q0 15 -1 43t-1 43q0 4 -1 12t-1 11q4 27 4 82 v22q4 53 1.5 120.5t-21.5 115.5h-2q0 -1 -1 -4t-1 -4q0 -3 -5 -13q-10 -17 -10 -24l-10 -23l-102 -262v2l-21 -55l-16 -39q-25 -41 -27 -65l-8 -21l-10 -31q-14 -43 -25 -59l-31 -92l-4 -6q-4 -7 -6 -13l-8 -16l-6 -18q-20 -46 -41 -111l-8 -19q-6 -19 -19.5 -52t-17.5 -44 q0 -4 -4 -12l-7 -14l-10 -29l-6 -16v-2q70 -41 139 -35q8 2 78 2h12q10 1 30.5 7t25.5 7l33 16l16 19l14 18q32 36 45 70l9 14q9 20 12 47q0 3 1 10.5t1 10.5zM238 340q2 -32 20 -80l6 14q11 39 42 106t40 93q0 4 4 12l4 13l6 20q0 2 1 4t2 5t2 5v-2q5 9 14 35l6 17 q10 41 14 51l4.5 9t4.5 11q30 84 49 133l24 58v-2l27 67l29 70l43 106l24 60q0 14 10 24l9 25l6 12q11 35 37 92q-5 0 -7 2l-20 7l-21 4q-106 26 -172 8q-12 0 -18 -2q-6 0 -22 -4q-72 -10 -107 -68q-9 -14 -10 -16l-10 -21l-4.5 -9t-4.5 -11q-18 -53 -24 -107q0 -3 -1 -9 t-1 -9q-2 -16 -2 -53q0 -40 -4 -68v-70q0 -46 -7 -81v-35q-2 -50 5 -107l-5 -182q0 -3 1 -7.5t1 -6.5v-39q0 -27 3 -54q0 -12 2 -20zM367 539q0 -1 -1 -3.5t-1 -3.5q0 5 2 7z" />
<glyph unicode="&#xd9;" d="M102 1372q0 3 1 9t1 8q9 36 23 43q21 8 44 9.5t41.5 -11.5t20.5 -37q3 -9 3 -17q0 -7 -4 -68t-3 -94v-45q0 -2 1 -5.5t1 -6.5v-203q0 -118 2 -188q3 -123 3 -221v-133q-4 -142 36 -213l11 -15q37 -40 84 -57q4 -3 20 -8q58 -13 59 -13l21 -4q82 -6 156 17l18 6l-2 -2 q45 16 59 39l9 12q2 2 9.5 14.5t14.5 18.5q13 23 23 57l4 19l4 63q0 3 1 10.5t1 10.5q4 94 4 139q0 2 -1 7.5t-1 8.5v19q-4 82 -4 135v61q2 36 -2 92v13q-2 14 -2 59v49q0 74 -2 117v188q2 6 2 19q2 6 2 18l-4 43v15q0 10 4 34q0 9 4 17q3 25 27 39q26 15 56 2.5t36 -43.5 q0 -3 1 -9.5t1 -9.5q3 -19 0 -34v-17q0 -3 -0.5 -10t-0.5 -13t1 -10q0 -2 -1 -6.5t-1 -7.5q0 -6 -1 -19.5t-1 -19.5q-4 -36 -4 -55v-94q0 -46 2 -62q4 -54 4 -86q-2 -27 2 -100v-86q0 -4 1 -9.5t1 -9.5q2 -8 2 -30q0 -21 -2 -27q0 -3 -1 -8.5t-1 -9.5v-150q0 -79 -11 -233 l-6 -29q0 -2 -1 -7.5t-1 -8.5q-1 -4 -4 -22.5t-5 -26.5t-7 -20.5t-12 -21.5q-35 -50 -43 -59q-12 -12 -15 -14q-25 -28 -49 -39l-24 -12l2 2l-27 -11l-6 -2h4l-12 -4q-8 -4 -15 -4l-14 -4q-49 -12 -176 -12h-19q-47 4 -71 10q-7 0 -19 4q-85 17 -137 72q-6 6 -12 14l-12 14 l-17 17l-12 18q-8 12 -15 26.5t-11 25t-8 30t-5 27.5t-4 31t-4 28q0 3 -1 10.5t-1 10.5q0 4 -1 11.5t-1 10.5v14q0 30 2 44v178q0 2 -1 6t-1 6v129q0 2 -1 6.5t-1 7.5v17q-5 99 -2 153v56q-4 45 0 77v43q0 12 -1.5 33t-1.5 29q-4 50 -4 84v141zM561 1616l6 -10 q14 -23 2 -48.5t-39 -31.5q-4 -4 -14 -0.5t-13 3.5t-11.5 6.5t-11 8t-10.5 9t-9 8.5l-12 14l-13 14q-12 12 -14 15q-18 21 -47.5 60.5t-38.5 51.5l-6 15q-4 8 -4 16q-1 15 7.5 29t22.5 22q12 6 15 6q25 9 43 -3t37.5 -41.5t27.5 -37.5l13 -16q8 -8 10 -12q7 -7 10 -13 q29 -32 49 -65z" />
<glyph unicode="&#xda;" d="M102 1372q0 3 1 9t1 8q9 36 23 43q21 8 44 9.5t41.5 -11.5t20.5 -37q3 -9 3 -17q0 -7 -4 -68t-3 -94v-45q0 -2 1 -5.5t1 -6.5v-203q0 -118 2 -188q3 -123 3 -221v-133q-4 -142 36 -213l11 -15q37 -40 84 -57q4 -3 20 -8q58 -13 59 -13l21 -4q82 -6 156 17l18 6l-2 -2 q45 16 59 39l9 12q2 2 9.5 14.5t14.5 18.5q13 23 23 57l4 19l4 63q0 3 1 10.5t1 10.5q4 94 4 139q0 2 -1 7.5t-1 8.5v19q-4 82 -4 135v61q2 36 -2 92v13q-2 14 -2 59v49q0 74 -2 117v188q2 6 2 19q2 6 2 18l-4 43v15q0 10 4 34q0 9 4 17q3 25 27 39q26 15 56 2.5t36 -43.5 q0 -3 1 -9.5t1 -9.5q3 -19 0 -34v-17q0 -3 -0.5 -10t-0.5 -13t1 -10q0 -2 -1 -6.5t-1 -7.5q0 -6 -1 -19.5t-1 -19.5q-4 -36 -4 -55v-94q0 -46 2 -62q4 -54 4 -86q-2 -27 2 -100v-86q0 -4 1 -9.5t1 -9.5q2 -8 2 -30q0 -21 -2 -27q0 -3 -1 -8.5t-1 -9.5v-150q0 -79 -11 -233 l-6 -29q0 -2 -1 -7.5t-1 -8.5q-1 -4 -4 -22.5t-5 -26.5t-7 -20.5t-12 -21.5q-35 -50 -43 -59q-12 -12 -15 -14q-25 -28 -49 -39l-24 -12l2 2l-27 -11l-6 -2h4l-12 -4q-8 -4 -15 -4l-14 -4q-49 -12 -176 -12h-19q-47 4 -71 10q-7 0 -19 4q-85 17 -137 72q-6 6 -12 14l-12 14 l-17 17l-12 18q-8 12 -15 26.5t-11 25t-8 30t-5 27.5t-4 31t-4 28q0 3 -1 10.5t-1 10.5q0 4 -1 11.5t-1 10.5v14q0 30 2 44v178q0 2 -1 6t-1 6v129q0 2 -1 6.5t-1 7.5v17q-5 99 -2 153v56q-4 45 0 77v43q0 12 -1.5 33t-1.5 29q-4 50 -4 84v141zM426 1616q20 33 49 65 q3 6 10 13q1 2 11 12l12 16q8 8 27.5 37.5t37.5 41.5t43 3q3 0 15 -6q34 -19 31 -51q0 -6 -5 -16l-6 -15q-9 -12 -38.5 -51.5t-47.5 -60.5q-2 -3 -14 -15l-12 -14l-13 -14q-1 -1 -9 -8.5t-10.5 -9t-11 -8t-11.5 -6.5t-13 -3.5t-14 0.5q-27 6 -39 31.5t2 48.5z" />
<glyph unicode="&#xdb;" d="M102 1372q0 3 1 9t1 8q9 36 23 43q21 8 44 9.5t41.5 -11.5t20.5 -37q3 -9 3 -17q0 -7 -4 -68t-3 -94v-45q0 -2 1 -5.5t1 -6.5v-203q0 -118 2 -188q3 -123 3 -221v-133q-4 -142 36 -213l11 -15q37 -40 84 -57q4 -3 20 -8q58 -13 59 -13l21 -4q82 -6 156 17l18 6l-2 -2 q45 16 59 39l9 12q2 2 9.5 14.5t14.5 18.5q13 23 23 57l4 19l4 63q0 3 1 10.5t1 10.5q4 94 4 139q0 2 -1 7.5t-1 8.5v19q-4 82 -4 135v61q2 36 -2 92v13q-2 14 -2 59v49q0 74 -2 117v188q2 6 2 19q2 6 2 18l-4 43v15q0 10 4 34q0 9 4 17q3 25 27 39q26 15 56 2.5t36 -43.5 q0 -3 1 -9.5t1 -9.5q3 -19 0 -34v-17q0 -3 -0.5 -10t-0.5 -13t1 -10q0 -2 -1 -6.5t-1 -7.5q0 -6 -1 -19.5t-1 -19.5q-4 -36 -4 -55v-94q0 -46 2 -62q4 -54 4 -86q-2 -27 2 -100v-86q0 -4 1 -9.5t1 -9.5q2 -8 2 -30q0 -21 -2 -27q0 -3 -1 -8.5t-1 -9.5v-150q0 -79 -11 -233 l-6 -29q0 -2 -1 -7.5t-1 -8.5q-1 -4 -4 -22.5t-5 -26.5t-7 -20.5t-12 -21.5q-35 -50 -43 -59q-12 -12 -15 -14q-25 -28 -49 -39l-24 -12l2 2l-27 -11l-6 -2h4l-12 -4q-8 -4 -15 -4l-14 -4q-49 -12 -176 -12h-19q-47 4 -71 10q-7 0 -19 4q-85 17 -137 72q-6 6 -12 14l-12 14 l-17 17l-12 18q-8 12 -15 26.5t-11 25t-8 30t-5 27.5t-4 31t-4 28q0 3 -1 10.5t-1 10.5q0 4 -1 11.5t-1 10.5v14q0 30 2 44v178q0 2 -1 6t-1 6v129q0 2 -1 6.5t-1 7.5v17q-5 99 -2 153v56q-4 45 0 77v43q0 12 -1.5 33t-1.5 29q-4 50 -4 84v141zM299 1608l6 10q20 33 49 65 q2 4 11 13q2 4 10 12q11 10 35.5 43.5t47 49t52.5 9.5l16 -8q13 -7 26 -20t28.5 -32t21.5 -26l12 -16q10 -10 11 -12q7 -7 10 -13q29 -32 49 -65l6 -10q14 -23 2 -48.5t-39 -31.5q-4 -4 -14 -0.5t-13 3.5t-11.5 6.5t-11 8t-10.5 9t-9 8.5l-25 28q-12 12 -14 15q-5 6 -51 63 l-50 -63q-2 -3 -14 -15l-24 -28q-1 -1 -8 -7t-9 -8t-9 -7.5t-10 -6t-11 -5t-11 -2.5t-12 1q-27 6 -39 31.5t2 48.5z" />
<glyph unicode="&#xdc;" d="M102 1372q0 3 1 9t1 8q9 36 23 43q21 8 44 9.5t41.5 -11.5t20.5 -37q3 -9 3 -17q0 -7 -4 -68t-3 -94v-45q0 -2 1 -5.5t1 -6.5v-203q0 -118 2 -188q3 -123 3 -221v-133q-4 -142 36 -213l11 -15q37 -40 84 -57q4 -3 20 -8q58 -13 59 -13l21 -4q82 -6 156 17l18 6l-2 -2 q45 16 59 39l9 12q2 2 9.5 14.5t14.5 18.5q13 23 23 57l4 19l4 63q0 3 1 10.5t1 10.5q4 94 4 139q0 2 -1 7.5t-1 8.5v19q-4 82 -4 135v61q2 36 -2 92v13q-2 14 -2 59v49q0 74 -2 117v188q2 6 2 19q2 6 2 18l-4 43v15q0 10 4 34q0 9 4 17q3 25 27 39q26 15 56 2.5t36 -43.5 q0 -3 1 -9.5t1 -9.5q3 -19 0 -34v-17q0 -3 -0.5 -10t-0.5 -13t1 -10q0 -2 -1 -6.5t-1 -7.5q0 -6 -1 -19.5t-1 -19.5q-4 -36 -4 -55v-94q0 -46 2 -62q4 -54 4 -86q-2 -27 2 -100v-86q0 -4 1 -9.5t1 -9.5q2 -8 2 -30q0 -21 -2 -27q0 -3 -1 -8.5t-1 -9.5v-150q0 -79 -11 -233 l-6 -29q0 -2 -1 -7.5t-1 -8.5q-1 -4 -4 -22.5t-5 -26.5t-7 -20.5t-12 -21.5q-35 -50 -43 -59q-12 -12 -15 -14q-25 -28 -49 -39l-24 -12l2 2l-27 -11l-6 -2h4l-12 -4q-8 -4 -15 -4l-14 -4q-49 -12 -176 -12h-19q-47 4 -71 10q-7 0 -19 4q-85 17 -137 72q-6 6 -12 14l-12 14 l-17 17l-12 18q-8 12 -15 26.5t-11 25t-8 30t-5 27.5t-4 31t-4 28q0 3 -1 10.5t-1 10.5q0 4 -1 11.5t-1 10.5v14q0 30 2 44v178q0 2 -1 6t-1 6v129q0 2 -1 6.5t-1 7.5v17q-5 99 -2 153v56q-4 45 0 77v43q0 12 -1.5 33t-1.5 29q-4 50 -4 84v141zM313 1536l-8 4 q-32 15 -42.5 51t5.5 66l6 12q3 2 12 10t17 11q6 6 14 6q8 4 9 4q23 4 36 0q8 0 17 -6l12 -6q10 -5 12 -9q30 -17 26.5 -68.5t-38.5 -64.5l-16 -6q-27 -12 -62 -4zM637 1530h-10q-34 5 -56.5 34t-19.5 64q2 4 2 10q3 3 9 15t13 18q3 5 11 8l6 9q24 12 35 12q6 3 18 0h12 q9 0 13 -4q34 -8 48 -56.5t-13 -74.5l-11 -11q-23 -17 -57 -24z" />
<glyph unicode="&#xdd;" horiz-adv-x="1007" d="M934 1425q6 -3 6 -8q8 -16 2 -35q0 -8 -4 -16q-6 -14 -23 -40t-22 -40l-12 -18l-17 -29l-12 -31q-1 -4 -4.5 -8.5t-3.5 -5.5q-4 -8 -8 -12l-11 -17l-8 -14l-10 -14l-12 -19q-9 -18 -28.5 -49t-25.5 -41l-10 -18v2q-6 -10 -15.5 -32t-15.5 -32l-8 -20q-15 -26 -43.5 -74 t-34.5 -59q-4 -4 -8 -15q-3 -5 -31 -61q0 -2 -4 -10v-47q-5 -33 -4.5 -91.5t-1.5 -91.5q0 -14 -2 -20q-3 -56 4 -127v-193q-1 -11 -1 -38t-1 -40q0 -14 -2 -20q1 -33 -28.5 -48t-61.5 -5q-29 10 -33 55q-2 6 -2 20v60v14q0 10 1 32t1 34v92q0 3 1 9.5t1 10.5q-7 20 -2 93.5 t4 93.5v18q-8 58 -6 90v101l-6 16l-22 47q-6 6 -9 14q-64 101 -88 152q-1 2 -4 9t-4 12q-12 24 -20 36l-9 15l5 -6l-7 12q-27 41 -32 57l-15 23q-17 33 -18 35l-8 16q-6 17 -25.5 44.5t-23.5 33.5v-2q-23 44 -50 78l-12 14q-31 50 -27 76q3 20 18.5 35t35.5 18q19 2 35.5 -8 t24 -20.5t20 -34t16.5 -29.5l10 -15v4l62 -94l12 -18q3 -8 13.5 -24.5t13.5 -22.5q25 -45 41 -76q3 -4 7 -11.5t5 -9.5l16 -32l6 -19q11 -24 44.5 -74t45.5 -79l9 -19l8 -16q2 8 10 24l8 17q2 3 8 16t9 19q2 2 5.5 8t4.5 8q25 35 35 61q10 25 35 67.5t32 57.5l11 19 q19 32 20 33l8 14q2 6 10 18l11 19q2 2 5.5 8t4.5 8l8 17l8 14l9 16q6 8 15 28t15 28v-2l8 12l7 12q5 7 13 23.5t13 23.5l10 13q23 25 53 21.5t52 -26.5zM457 1616q20 33 49 65q3 6 10 13q2 4 10 12l13 16q8 8 27.5 37.5t37.5 41.5t43 3q3 0 15 -6q14 -8 22.5 -22t7.5 -29 q0 -8 -4 -16l-6 -15q-9 -12 -38.5 -51.5t-47.5 -60.5q-2 -3 -14 -15l-13 -14l-12 -14q-1 -1 -8 -7t-9 -8t-9 -7.5t-10 -6t-11 -5t-11 -2.5t-12 1q-27 6 -39 31.5t3 48.5z" />
<glyph unicode="&#xde;" horiz-adv-x="968" d="M582 1165q35 -11 92 -41l33 -26q68 -62 105.5 -121.5t41.5 -142.5l2 -13q10 -42 10 -73v-19q0 -50 -0.5 -73t-6 -63t-17.5 -71q-3 -13 -8 -20q-16 -47 -58 -92l-14 -13q-16 -19 -43 -39l-19 -14q-39 -26 -57 -35l-22 -8q-3 -3 -17 -8q-21 -7 -47 -11.5t-42 -6t-51 -3 t-44 -2.5h-109q-10 -2 -35 -2q-2 -6 -2 -16v-23q-2 -21 -2 -41q0 -14 -2 -20q-3 -11 -3.5 -25.5t0 -24t2 -28t1.5 -24.5v-21q0 -24 -14 -41t-37 -20q-33 -6 -55 16.5t-19 56.5q0 3 -1 10.5t-1 10.5q0 22 3.5 61.5t3.5 46.5v66q-4 160 0 213q0 11 -3 20q0 75 3 101v16 q-5 36 -5 86q0 3 1 10t1 11q0 9 1.5 28.5t1.5 28.5q0 3 1 9t1 9q-2 69 2 201v19q0 19 -1.5 80t-0.5 94q0 10 -2 16v154q-10 39 12.5 74t60.5 26q21 -5 33 -17t15.5 -30.5t3.5 -35t-2.5 -40.5t-2.5 -35v-16q0 -28 4 -78h111q114 0 193 -29v-2h4zM537 397l32 9q9 0 17 4 q4 0 16 4l19 12q39 22 65 55l10 15q23 26 33 67l6 19q7 24 7 69.5t1 55.5v14q0 27 -2 41v20l-4 21q-3 142 -145 229q4 -4 2 -4l-19 12h3q-62 22 -142 33h-153v-53q-1 -11 -0.5 -41t-1.5 -41v-20q0 -9 -1 -30.5t-1 -31.5q0 -12 -1.5 -50t-1.5 -52q-2 -66 -2 -189v-182h15 q8 4 18 4q10 2 86 2h41q14 -2 47 3.5t51 2.5q1 0 2.5 1t2.5 1zM582 1165q-1 0 -2 1t-2 1v-2h4z" />
<glyph unicode="&#xdf;" horiz-adv-x="1019" d="M885 479q39 -92 30 -190q-10 -110 -61 -185q-16 -24 -63 -75q-38 -33 -52 -41q-17 -12 -28 -17q-35 -15 -127 -41q-15 -6 -33 -6q-10 -2 -33 -2q-25 0 -43 18t-18 44q0 25 18 43t43 18h23q13 4 47 12.5t57 17.5t41 25l21 19l18 20l18 21q0 1 2.5 4t2.5 4q4 4 4 6 q15 22 22 39q14 42 19 70q3 37 0 77q-4 23 -19 66l-20 41l-13 18q-1 0 -2 1t-2 1l-8 11q-6 7 -18.5 18.5t-14.5 13.5l-8 7l-10 6l-12 6q-21 8 -105 22q-25 4 -37 28.5t-6 47.5q4 17 16 35t21.5 27.5t28.5 27.5l30 31q0 2 2 4l7 8l16 25l27 41l10 14l26 39l7 8l-2 -2 q9 13 16 29l6 14q23 100 8 164q0 6 -4 18q0 9 -4 17l-6 18l-6 17q-15 36 -55 71l-15 13l-12 12q-13 9 -17 10l3 -2q-84 37 -211 19q-2 0 -8 -1t-9 -1q-19 -5 -47 -25.5t-35 -24.5l-8 -12l-14 -22q-6 -18 -6 -23l-7 -16q-2 -12 -2 -37v-342q-4 -4 -4 -10q-8 -40 2 -91 q-4 -36 -4 -53q0 -6 4 -18v-60q0 -86 2 -129q2 -45 2 -153v-23q-2 -22 3 -121q2 -8 2 -20l-5 -66q0 -3 -1 -10t-1 -10q-2 -19 -14 -31t-31 -14q-53 0 -69 26l-8 17q-2 4 -2 16q4 114 2 172v23q0 146 -5 231q-2 53 -2 180v105q0 117 2 176v23q-1 23 -1.5 94t-2.5 110l7 29 q4 22 8 31q1 2 1.5 5.5t1.5 6.5t3 6q25 84 98 129l19 10q68 31 120 39q8 2 23 2q32 3 61 9q13 0 19 2h14q4 -2 12 -2q6 -2 19 -2q7 -1 23.5 -3t26 -3.5t23 -4t25.5 -6t23 -8.5l12 -4q32 -14 57 -39q6 -3 13 -10q76 -76 94 -138l6 -18q9 -31 12 -63q2 -6 2 -17q15 -74 0 -147 l-6 -21q-19 -76 -67 -133q-10 -15 -11 -18l-12 -19q-28 -39 -29 -41q-23 -36 -51 -67q41 -13 84 -45q72 -56 111 -146z" />
<glyph unicode="&#xe0;" d="M102 66q0 -3 1 -9t1 -8q9 -36 23 -43q21 -8 44 -9.5t41.5 11.5t20.5 37q3 9 3 16t-4 68t-3 94v45q0 2 1 6t1 7v227h2q43 6 170 6q4 -2 17 -2h49q49 2 147 2q3 0 10.5 -1t10.5 -1h57q3 0 10 1t11 1h43v-27q0 -73 -2 -116v-189q2 -6 2 -18q2 -6 2 -19l-4 -43v-14 q0 -11 4 -35q0 -8 4 -16q3 -25 27 -39q26 -15 56 -2.5t36 43.5q0 3 1 9t1 9q3 19 0 35v17q0 3 -0.5 10t-0.5 12.5t1 9.5q0 2 -1 7t-1 8q0 6 -1 19.5t-1 19.5q-4 36 -4 55v94q0 46 2 62q4 54 4 86q-2 27 2 100v86q0 4 1 9t1 9q2 8 2 31q0 21 -2 27q0 3 -1 8.5t-1 9.5v150 q0 79 -11 233l-6 29q0 2 -1 7.5t-1 8.5q-1 4 -4 22.5t-5 26t-7 20t-12 21.5q-38 55 -43 60q-12 12 -15 14q-25 28 -49 39l-24 12l2 -2l-27 10l-6 2h4l-12 5q-8 4 -15 4l-14 4q-49 12 -176 12h-19q-47 -4 -71 -10q-7 0 -19 -4q-85 -17 -137 -72q-6 -6 -12 -14l-12 -15 l-17 -16l-12 -19q-8 -12 -15 -26.5t-11 -25t-8 -30t-5 -26.5t-4 -31t-4 -28q0 -3 -1 -10.5t-1 -10.5q0 -4 -1 -11.5t-1 -10.5v-15q0 -29 2 -43v-178q0 -2 -1 -6t-1 -6v-129q0 -2 -1 -7t-1 -8v-16q-5 -100 -2 -154v-55q-4 -46 0 -78v-43q0 -12 -1.5 -32.5t-1.5 -28.5 q-4 -50 -4 -84v-141zM762 631h-49q-92 -7 -162 -4q-6 2 -23 2q-18 2 -108 2h-23q-66 -7 -164 0h-2q0 6 1 20t1 21q3 123 3 221v133q-4 142 36 213l11 14q38 41 84 58q4 3 20 8q50 11 59 12l21 4q85 6 156 -16l18 -6l-2 2q45 -16 59 -39l9 -12q3 -4 7 -11.5t8 -13.5t9 -10 q14 -25 23 -55l4 -19l4 -63q0 -3 1 -10.5t1 -10.5q4 -94 4 -139q0 -2 -1 -8t-1 -9v-18q-4 -82 -4 -135v-131zM547 1616l6 -10q14 -23 2 -48.5t-39 -31.5q-9 1 -12 -1t-11 2.5t-11 5t-10 6t-9 7.5t-9 8t-8 7l-12 14l-12 14q-12 12 -14 15q-18 21 -47.5 60.5t-38.5 51.5l-7 15 q-4 8 -4 16q-3 32 31 51q12 6 14 6q25 9 43.5 -3t38.5 -42t27 -37l12 -16q8 -8 10 -12q9 -9 11 -13q29 -32 49 -65z" />
<glyph unicode="&#xe1;" d="M102 66q0 -3 1 -9t1 -8q9 -36 23 -43q21 -8 44 -9.5t41.5 11.5t20.5 37q3 9 3 16t-4 68t-3 94v45q0 2 1 6t1 7v227h2q43 6 170 6q4 -2 17 -2h49q49 2 147 2q3 0 10.5 -1t10.5 -1h57q3 0 10 1t11 1h43v-27q0 -73 -2 -116v-189q2 -6 2 -18q2 -6 2 -19l-4 -43v-14 q0 -11 4 -35q0 -8 4 -16q3 -25 27 -39q26 -15 56 -2.5t36 43.5q0 3 1 9t1 9q3 19 0 35v17q0 3 -0.5 10t-0.5 12.5t1 9.5q0 2 -1 7t-1 8q0 6 -1 19.5t-1 19.5q-4 36 -4 55v94q0 46 2 62q4 54 4 86q-2 27 2 100v86q0 4 1 9t1 9q2 8 2 31q0 21 -2 27q0 3 -1 8.5t-1 9.5v150 q0 79 -11 233l-6 29q0 2 -1 7.5t-1 8.5q-1 4 -4 22.5t-5 26t-7 20t-12 21.5q-38 55 -43 60q-12 12 -15 14q-25 28 -49 39l-24 12l2 -2l-27 10l-6 2h4l-12 5q-8 4 -15 4l-14 4q-49 12 -176 12h-19q-47 -4 -71 -10q-7 0 -19 -4q-85 -17 -137 -72q-6 -6 -12 -14l-12 -15 l-17 -16l-12 -19q-8 -12 -15 -26.5t-11 -25t-8 -30t-5 -26.5t-4 -31t-4 -28q0 -3 -1 -10.5t-1 -10.5q0 -4 -1 -11.5t-1 -10.5v-15q0 -29 2 -43v-178q0 -2 -1 -6t-1 -6v-129q0 -2 -1 -7t-1 -8v-16q-5 -100 -2 -154v-55q-4 -46 0 -78v-43q0 -12 -1.5 -32.5t-1.5 -28.5 q-4 -50 -4 -84v-141zM762 631h-49q-92 -7 -162 -4q-6 2 -23 2q-18 2 -108 2h-23q-66 -7 -164 0h-2q0 6 1 20t1 21q3 123 3 221v133q-4 142 36 213l11 14q38 41 84 58q4 3 20 8q50 11 59 12l21 4q85 6 156 -16l18 -6l-2 2q45 -16 59 -39l9 -12q3 -4 7 -11.5t8 -13.5t9 -10 q14 -25 23 -55l4 -19l4 -63q0 -3 1 -10.5t1 -10.5q4 -94 4 -139q0 -2 -1 -8t-1 -9v-18q-4 -82 -4 -135v-131zM428 1616q20 33 49 65q3 6 10 13q1 2 11 12l12 16q8 8 27.5 37.5t37.5 41.5t43 3q3 0 15 -6q34 -19 31 -51q0 -6 -5 -16l-6 -15q-9 -12 -38.5 -51.5t-47.5 -60.5 q-2 -3 -14 -15l-12 -14l-13 -14q-1 -1 -9 -8.5t-10.5 -9t-11 -8t-11.5 -6.5t-13 -3.5t-14 0.5q-27 6 -39 31.5t2 48.5z" />
<glyph unicode="&#xe2;" d="M102 66q0 -3 1 -9t1 -8q9 -36 23 -43q21 -8 44 -9.5t41.5 11.5t20.5 37q3 9 3 16t-4 68t-3 94v45q0 2 1 6t1 7v227h2q43 6 170 6q4 -2 17 -2h49q49 2 147 2q3 0 10.5 -1t10.5 -1h57q3 0 10 1t11 1h43v-27q0 -73 -2 -116v-189q2 -6 2 -18q2 -6 2 -19l-4 -43v-14 q0 -11 4 -35q0 -8 4 -16q3 -25 27 -39q26 -15 56 -2.5t36 43.5q0 3 1 9t1 9q3 19 0 35v17q0 3 -0.5 10t-0.5 12.5t1 9.5q0 2 -1 7t-1 8q0 6 -1 19.5t-1 19.5q-4 36 -4 55v94q0 46 2 62q4 54 4 86q-2 27 2 100v86q0 4 1 9t1 9q2 8 2 31q0 21 -2 27q0 3 -1 8.5t-1 9.5v150 q0 79 -11 233l-6 29q0 2 -1 7.5t-1 8.5q-1 4 -4 22.5t-5 26t-7 20t-12 21.5q-38 55 -43 60q-12 12 -15 14q-25 28 -49 39l-24 12l2 -2l-27 10l-6 2h4l-12 5q-8 4 -15 4l-14 4q-49 12 -176 12h-19q-47 -4 -71 -10q-7 0 -19 -4q-85 -17 -137 -72q-6 -6 -12 -14l-12 -15 l-17 -16l-12 -19q-8 -12 -15 -26.5t-11 -25t-8 -30t-5 -26.5t-4 -31t-4 -28q0 -3 -1 -10.5t-1 -10.5q0 -4 -1 -11.5t-1 -10.5v-15q0 -29 2 -43v-178q0 -2 -1 -6t-1 -6v-129q0 -2 -1 -7t-1 -8v-16q-5 -100 -2 -154v-55q-4 -46 0 -78v-43q0 -12 -1.5 -32.5t-1.5 -28.5 q-4 -50 -4 -84v-141zM762 631h-49q-92 -7 -162 -4q-6 2 -23 2q-18 2 -108 2h-23q-66 -7 -164 0h-2q0 6 1 20t1 21q3 123 3 221v133q-4 142 36 213l11 14q38 41 84 58q4 3 20 8q50 11 59 12l21 4q85 6 156 -16l18 -6l-2 2q45 -16 59 -39l9 -12q3 -4 7 -11.5t8 -13.5t9 -10 q14 -25 23 -55l4 -19l4 -63q0 -3 1 -10.5t1 -10.5q4 -94 4 -139q0 -2 -1 -8t-1 -9v-18q-4 -82 -4 -135v-131zM299 1608l6 10q20 33 49 65q2 4 11 13q2 4 10 12q11 10 35.5 43.5t47 49t52.5 9.5l16 -8q13 -7 26 -20t28.5 -32t21.5 -26l12 -16q10 -10 11 -12q7 -7 10 -13 q29 -32 49 -65l6 -10q14 -23 2 -48.5t-39 -31.5q-4 -4 -14 -0.5t-13 3.5t-11.5 6.5t-11 8t-10.5 9t-9 8.5l-25 28q-12 12 -14 15q-5 6 -51 63l-50 -63q-2 -3 -14 -15l-24 -28q-1 -1 -8 -7t-9 -8t-9 -7.5t-10 -6t-11 -5t-11 -2.5t-12 1q-27 6 -39 31.5t2 48.5z" />
</font>
</defs>
</svg>
