<?xml version="1.0" encoding="UTF-8" standalone="no"?>
<svg width="180px" height="123px" viewBox="0 0 180 123" version="1.1" xmlns="http://www.w3.org/2000/svg" xmlns:xlink="http://www.w3.org/1999/xlink">
    <!-- Generator: Sketch 3.7.1 (28215) - http://www.bohemiancoding.com/sketch -->
    <title>html-forms</title>
    <desc>Created with Sketch.</desc>
    <defs></defs>
    <g id="Page-1" stroke="none" stroke-width="1" fill="none" fill-rule="evenodd">
        <g id="html-forms">
            <path d="M13.1356687,79.2914692 L73.6501219,114.370362 C73.6501219,114.370362 76.5649713,116.207612 79.6191473,116.154482 C82.6733232,116.101353 85.5728549,114.162957 85.5728549,114.162957 L162.381844,68.8712526 C162.381844,68.8712526 165.062914,67.622225 164.850021,66.1124619 C164.637129,64.6026987 161.5901,63.2564626 161.5901,63.2564626 L100.418851,28.0104689 C100.418851,28.0104689 98.4747871,26.8298007 96.2950617,26.8641693 C94.1153364,26.8985379 91.9323664,28.1442787 91.9323664,28.1442787 L14.1232254,72.9358855 C14.1232254,72.9358855 11.5950194,74.3201015 11.1911126,76.2389551 C10.7872058,78.1578088 13.1356687,79.2914692 13.1356687,79.2914692 Z" id="Path-43" fill-opacity="0.15" fill="#5D6063"></path>
            <path d="M12.953039,75.0460991 L73.4674922,110.124992 C73.4674922,110.124992 76.3823416,111.962242 79.4365176,111.909112 C82.4906935,111.855983 85.3902252,109.917587 85.3902252,109.917587 L162.381844,63.8712526 C162.381844,63.8712526 164.753856,62.4968758 164.850021,61.1124619 C164.946187,59.728048 164.760418,55.3809819 164.760418,55.3809819 L100.418851,23.0104689 C100.418851,23.0104689 98.4747871,21.8298007 96.2950617,21.8641693 C94.1153364,21.8985379 91.9323664,23.1442787 91.9323664,23.1442787 L10.9536814,66.5991566 C10.9536814,66.5991566 10.9218208,70.1971082 11.0084829,71.993585 C11.095145,73.7900617 12.953039,75.0460991 12.953039,75.0460991 Z" id="Path-43" stroke="#5D6063" stroke-width="2" stroke-linecap="round" stroke-linejoin="round" fill="#FFFFFF"></path>
            <path d="M12.9070291,69.2922156 L73.4214823,104.371108 C73.4214823,104.371108 76.3363317,106.208358 79.3905076,106.155229 C82.4446835,106.102099 85.3442153,104.163703 85.3442153,104.163703 L162.381844,57.8712526 C162.381844,57.8712526 165.062914,56.622225 164.850021,55.1124619 C164.637129,53.6026987 161.5901,52.2564626 161.5901,52.2564626 L100.418851,17.0104689 C100.418851,17.0104689 98.4747871,15.8298007 96.2950617,15.8641693 C94.1153364,15.8985379 91.9323664,17.1442787 91.9323664,17.1442787 L13.8945858,62.9366319 C13.8945858,62.9366319 11.3663797,64.3208478 10.9624729,66.2397015 C10.5585662,68.1585552 12.9070291,69.2922156 12.9070291,69.2922156 Z" id="Path-43" stroke="#5D6063" stroke-width="2" stroke-linejoin="round" fill="#FFFFFF"></path>
            <path id="Path-380" stroke="#979797"></path>
            <path d="M42.63076,69.1473673 L74.2058727,87.2412429 C74.2058727,87.2412429 77.1207222,89.0784931 80.1748981,89.0253634 C83.229074,88.9722337 86.1286057,87.033838 86.1286057,87.033838 L91.4157091,83.7855379 C91.4157091,83.7855379 94.0967788,82.5365103 93.8838864,81.0267472 C93.6709939,79.516984 90.6239649,78.1707479 90.6239649,78.1707479 L57.9986197,59.7173152 C57.9986197,59.7173152 56.0545559,58.536647 53.8748305,58.5710156 C51.6951051,58.6053842 49.5121352,59.851125 49.5121352,59.851125 L43.6832158,63.2898519 C43.6832158,63.2898519 41.1758367,64.306628 40.6862039,66.0948532 C40.1965712,67.8830785 42.63076,69.1473673 42.63076,69.1473673 Z" id="Path-43" fill-opacity="0.15" fill="#5D6063"></path>
            <path d="M62.050389,45.3085555 L110.370365,72.5390627 C110.370365,72.5390627 113.285215,74.3763129 116.33939,74.3231832 C119.393566,74.2700536 122.293098,72.3316579 122.293098,72.3316579 L127.580202,69.0833577 C127.580202,69.0833577 130.261271,67.8343302 130.048379,66.324567 C129.835486,64.8148039 126.788457,63.4685678 126.788457,63.4685678 L77.4182486,35.8785033 C77.4182486,35.8785033 75.4741848,34.6978351 73.2944594,34.7322037 C71.1147341,34.7665723 68.9317641,36.0123131 68.9317641,36.0123131 L63.1028448,39.45104 C63.1028448,39.45104 60.5954656,40.4678161 60.1058329,42.2560414 C59.6162001,44.0442666 62.050389,45.3085555 62.050389,45.3085555 Z" id="Path-43" fill-opacity="0.15" fill="#5D6063"></path>
            <path d="M62.050389,40.3085555 L110.370365,67.5390627 C110.370365,67.5390627 113.285215,69.3763129 116.33939,69.3231832 C119.393566,69.2700536 122.293098,67.3316579 122.293098,67.3316579 L127.580202,64.0833577 C127.580202,64.0833577 129.982776,62.9053254 130.048379,61.324567 C130.113982,59.7438087 130.048379,56.4685678 130.048379,56.4685678 L77.4182486,30.8785033 C77.4182486,30.8785033 75.4741848,29.6978351 73.2944594,29.7322037 C71.1147341,29.7665723 68.9317641,31.0123131 68.9317641,31.0123131 L60.1058329,33.45104 C60.1058329,33.45104 60.1278813,35.5526503 60.1058329,37.2560414 C60.0837845,38.9594324 62.050389,40.3085555 62.050389,40.3085555 Z" id="Path-43" stroke="#5D6063" stroke-width="2" stroke-linejoin="round" fill="#FFFFFF"></path>
            <path d="M62.050389,35.3085555 L110.370365,62.5390627 C110.370365,62.5390627 113.285215,64.3763129 116.33939,64.3231832 C119.393566,64.2700536 122.293098,62.3316579 122.293098,62.3316579 L127.580202,59.0833577 C127.580202,59.0833577 130.261271,57.8343302 130.048379,56.324567 C129.835486,54.8148039 126.788457,53.4685678 126.788457,53.4685678 L77.4182486,25.8785033 C77.4182486,25.8785033 75.4741848,24.6978351 73.2944594,24.7322037 C71.1147341,24.7665723 68.9317641,26.0123131 68.9317641,26.0123131 L63.1028448,29.45104 C63.1028448,29.45104 60.5954656,30.4678161 60.1058329,32.2560414 C59.6162001,34.0442666 62.050389,35.3085555 62.050389,35.3085555 Z" id="Path-43" stroke="#5D6063" stroke-width="2" stroke-linejoin="round" fill="#FFFFFF"></path>
            <path d="M42.63076,64.1473673 L74.2058727,82.2412429 C74.2058727,82.2412429 77.1207222,84.0784931 80.1748981,84.0253634 C83.229074,83.9722337 86.1286057,82.033838 86.1286057,82.033838 L91.4157091,78.7855379 C91.4157091,78.7855379 93.8387294,77.5411879 93.8838864,76.0267472 C93.9172933,74.9063702 93.8838864,71.1707479 93.8838864,71.1707479 L57.9986197,54.7173152 C57.9986197,54.7173152 56.0545559,53.536647 53.8748305,53.5710156 C51.6951051,53.6053842 49.5121352,54.851125 49.5121352,54.851125 L40.6862039,57.2898519 C40.6862039,57.2898519 40.6162642,59.2447244 40.6862039,61.0948532 C40.7561437,62.944982 42.63076,64.1473673 42.63076,64.1473673 Z" id="Path-43" stroke="#5D6063" stroke-width="2" stroke-linejoin="round" fill="#B2D6FF"></path>
            <path d="M42.63076,59.1473673 L74.2058727,77.2412429 C74.2058727,77.2412429 77.1207222,79.0784931 80.1748981,79.0253634 C83.229074,78.9722337 86.1286057,77.033838 86.1286057,77.033838 L91.4157091,73.7855379 C91.4157091,73.7855379 94.0967788,72.5365103 93.8838864,71.0267472 C93.6709939,69.516984 90.6239649,68.1707479 90.6239649,68.1707479 L57.9986197,49.7173152 C57.9986197,49.7173152 56.0545559,48.536647 53.8748305,48.5710156 C51.6951051,48.6053842 49.5121352,49.851125 49.5121352,49.851125 L43.6832158,53.2898519 C43.6832158,53.2898519 41.1758367,54.306628 40.6862039,56.0948532 C40.1965712,57.8830785 42.63076,59.1473673 42.63076,59.1473673 Z" id="Path-43" stroke="#5D6063" stroke-width="2" stroke-linejoin="round" fill="#B2D6FF"></path>
            <polygon id="Path-1136" fill="#5D6063" points="64.5592994 32.9628156 66.5328136 31.5790955 74.9797388 36.5219041 73.1525431 37.809982"></polygon>
        </g>
    </g>
</svg>