<?xml version="1.0" encoding="UTF-8" standalone="no"?>
<svg width="187px" height="121px" viewBox="0 0 187 121" version="1.1" xmlns="http://www.w3.org/2000/svg" xmlns:xlink="http://www.w3.org/1999/xlink">
    <!-- Generator: Sketch 3.7.1 (28215) - http://www.bohemiancoding.com/sketch -->
    <title>introduction</title>
    <desc>Created with Sketch.</desc>
    <defs></defs>
    <g id="Page-1" stroke="none" stroke-width="1" fill="none" fill-rule="evenodd">
        <g id="introduction">
            <path d="M21.3464264,79.1743353 L81.8608796,114.253228 C81.8608796,114.253228 84.775729,116.090478 87.8299049,116.037349 C90.8840808,115.984219 93.7836126,114.045823 93.7836126,114.045823 L163.381844,72.8712526 C163.381844,72.8712526 166.062914,71.622225 165.850021,70.1124619 C165.637129,68.6026987 162.5901,67.2564626 162.5901,67.2564626 L101.418851,32.0104689 C101.418851,32.0104689 99.4747871,30.8298007 97.2950617,30.8641693 C95.1153364,30.8985379 92.9323664,32.1442787 92.9323664,32.1442787 L22.3339831,72.8187516 C22.3339831,72.8187516 19.805777,74.2029675 19.4018703,76.1218212 C18.9979635,78.0406749 21.3464264,79.1743353 21.3464264,79.1743353 Z" id="Path-43" fill-opacity="0.15" fill="#5D6063"></path>
            <path d="M21.3464264,74.1743353 L81.8608796,109.253228 C81.8608796,109.253228 84.775729,111.090478 87.8299049,111.037349 C90.8840808,110.984219 93.7836126,109.045823 93.7836126,109.045823 L163.381844,67.8712526 C163.381844,67.8712526 165.753856,66.4968758 165.850021,65.1124619 C165.946187,63.728048 165.760418,59.3809819 165.760418,59.3809819 L101.418851,27.0104689 C101.418851,27.0104689 99.4747871,25.8298007 97.2950617,25.8641693 C95.1153364,25.8985379 92.9323664,27.1442787 92.9323664,27.1442787 L19.3470688,65.7273929 C19.3470688,65.7273929 19.3152082,69.3253445 19.4018703,71.1218212 C19.4885323,72.9182979 21.3464264,74.1743353 21.3464264,74.1743353 Z" id="Path-43" stroke="#5D6063" stroke-width="2" stroke-linecap="round" stroke-linejoin="round" fill="#FFFFFF"></path>
            <path d="M21.3464264,68.1743353 L81.8608796,103.253228 C81.8608796,103.253228 84.775729,105.090478 87.8299049,105.037349 C90.8840808,104.984219 93.7836126,103.045823 93.7836126,103.045823 L163.381844,61.8712526 C163.381844,61.8712526 166.062914,60.622225 165.850021,59.1124619 C165.637129,57.6026987 162.5901,56.2564626 162.5901,56.2564626 L101.418851,21.0104689 C101.418851,21.0104689 99.4747871,19.8298007 97.2950617,19.8641693 C95.1153364,19.8985379 92.9323664,21.1442787 92.9323664,21.1442787 L22.3339831,61.8187516 C22.3339831,61.8187516 19.805777,63.2029675 19.4018703,65.1218212 C18.9979635,67.0406749 21.3464264,68.1743353 21.3464264,68.1743353 Z" id="Path-43" stroke="#5D6063" stroke-width="2" stroke-linejoin="round" fill="#FFFFFF"></path>
            <path d="M71.9742574,37.536661 L92.9102854,24.8876914 C92.9102854,24.8876914 95.3245851,23.1826559 97.179241,23.1826559 C99.0338969,23.1826559 101.008886,24.5273291 101.008886,24.5273291 L108.312906,28.6543046" id="Path-255" stroke="#5D6063" stroke-linecap="round" stroke-linejoin="round"></path>
        </g>
    </g>
</svg>