<?xml version="1.0" encoding="UTF-8" standalone="no"?>
<svg width="187px" height="121px" viewBox="0 0 187 121" version="1.1" xmlns="http://www.w3.org/2000/svg" xmlns:xlink="http://www.w3.org/1999/xlink">
    <!-- Generator: Sketch 3.7.1 (28215) - http://www.bohemiancoding.com/sketch -->
    <title>links-and-images</title>
    <desc>Created with Sketch.</desc>
    <defs></defs>
    <g id="Page-1" stroke="none" stroke-width="1" fill="none" fill-rule="evenodd">
        <g id="links-and-images">
            <path d="M12.5323601,53.413318 L52.052003,76.2145982 C52.052003,76.2145982 53.9555781,77.4088108 55.950142,77.3742765 C57.9447059,77.3397422 59.8382776,76.079785 59.8382776,76.079785 L105.290184,49.3163142 C105.290184,49.3163142 107.041087,48.5044463 106.902055,47.5231002 C106.763023,46.5417542 104.773127,45.6667007 104.773127,45.6667007 L64.8245557,22.7568048 C64.8245557,22.7568048 63.554963,21.9893705 62.1314689,22.0117101 C60.7079748,22.0340497 59.2823617,22.8437812 59.2823617,22.8437812 L13.1772951,49.2821885 C13.1772951,49.2821885 11.5262217,50.1819289 11.2624459,51.4291838 C10.99867,52.6764387 12.5323601,53.413318 12.5323601,53.413318 Z" id="Path-43" fill-opacity="0.15" fill="#5D6063"></path>
            <path d="M12.5323601,49.163318 L52.052003,71.9645982 C52.052003,71.9645982 53.9555781,73.1588108 55.950142,73.1242765 C57.9447059,73.0897422 59.8382776,71.829785 59.8382776,71.829785 L105.290184,45.0663142 C105.290184,45.0663142 106.839253,44.1729692 106.902055,43.2731002 C106.964857,42.3732312 106.843539,39.5476382 106.843539,39.5476382 L64.8245557,18.5068048 C64.8245557,18.5068048 63.554963,17.7393705 62.1314689,17.7617101 C60.7079748,17.7840497 59.2823617,18.5937812 59.2823617,18.5937812 L11.2266572,43.6728054 C11.2266572,43.6728054 11.2058503,46.0114739 11.2624459,47.1791838 C11.3190415,48.3468937 12.5323601,49.163318 12.5323601,49.163318 Z" id="Path-43" stroke="#5D6063" stroke-width="2" stroke-linecap="round" stroke-linejoin="round" fill="#FFFFFF"></path>
            <path d="M12.5323601,44.263318 L52.052003,67.0645982 C52.052003,67.0645982 53.9555781,68.2588108 55.950142,68.2242765 C57.9447059,68.1897422 59.8382776,66.929785 59.8382776,66.929785 L105.290184,40.1663142 C105.290184,40.1663142 107.041087,39.3544463 106.902055,38.3731002 C106.763023,37.3917542 104.773127,36.5167007 104.773127,36.5167007 L64.8245557,13.6068048 C64.8245557,13.6068048 63.554963,12.8393705 62.1314689,12.8617101 C60.7079748,12.8840497 59.2823617,13.6937812 59.2823617,13.6937812 L13.1772951,40.1321885 C13.1772951,40.1321885 11.5262217,41.0319289 11.2624459,42.2791838 C10.99867,43.5264387 12.5323601,44.263318 12.5323601,44.263318 Z" id="Path-43" stroke="#5D6063" stroke-width="2" stroke-linejoin="round" fill="#FFFFFF"></path>
            <path d="M50.4934555,27.7658321 L82.0493583,45.4656618 C82.0493583,45.4656618 83.9529334,46.6598744 85.9474973,46.6253402 C87.9420612,46.5908059 89.8356329,45.3308487 89.8356329,45.3308487 L98.0323074,40.3642676 C98.0323074,40.3642676 99.7832101,39.5523997 99.6441783,38.5710536 C99.5051465,37.5897076 97.51525,36.7146541 97.51525,36.7146541 L65.273481,18.7811122 C65.273481,18.7811122 64.0038884,18.0136779 62.5803942,18.0360175 C61.1569001,18.0583571 59.7312871,18.8680886 59.7312871,18.8680886 L51.1383905,23.6347027 C51.1383905,23.6347027 49.4873172,24.5344431 49.2235413,25.7816979 C48.9597655,27.0289528 50.4934555,27.7658321 50.4934555,27.7658321 Z" id="Path-43" fill-opacity="0.15" fill="#5D6063"></path>
            <path d="M50.4934555,23.5158321 L82.0493583,41.2156618 C82.0493583,41.2156618 83.9529334,42.4098744 85.9474973,42.3753402 C87.9420612,42.3408059 89.8356329,41.0808487 89.8356329,41.0808487 L98.0323074,36.1142676 C98.0323074,36.1142676 99.6162647,35.2698615 99.6441783,34.3210536 C99.6720919,33.3722458 99.6392768,31.5030897 99.6392768,31.5030897 L65.273481,14.5311122 C65.273481,14.5311122 64.0038884,13.7636779 62.5803942,13.7860175 C61.1569001,13.8083571 59.7312871,14.6180886 59.7312871,14.6180886 L49.2100291,18.9085155 C49.2100291,18.9085155 49.2070825,20.3537421 49.2235413,21.5316979 C49.2400002,22.7096538 50.4934555,23.5158321 50.4934555,23.5158321 Z" id="Path-43" stroke="#5D6063" stroke-width="2" stroke-linejoin="round" fill="#FFFFFF"></path>
            <path d="M50.4934555,19.2658321 L82.0493583,36.9656618 C82.0493583,36.9656618 83.9529334,38.1598744 85.9474973,38.1253402 C87.9420612,38.0908059 89.8356329,36.8308487 89.8356329,36.8308487 L98.0323074,31.8642676 C98.0323074,31.8642676 99.7832101,31.0523997 99.6441783,30.0710536 C99.5051465,29.0897076 97.51525,28.2146541 97.51525,28.2146541 L65.273481,10.2811122 C65.273481,10.2811122 64.0038884,9.51367789 62.5803942,9.53601748 C61.1569001,9.55835708 59.7312871,10.3680886 59.7312871,10.3680886 L51.1383905,15.1347027 C51.1383905,15.1347027 49.4873172,16.0344431 49.2235413,17.2816979 C48.9597655,18.5289528 50.4934555,19.2658321 50.4934555,19.2658321 Z" id="Path-43" stroke="#5D6063" stroke-width="2" stroke-linejoin="round" fill="#FFFFFF"></path>
            <path d="M20.8896845,44.2264563 L52.4455872,61.926286 C52.4455872,61.926286 54.3491624,63.1204986 56.3437263,63.0859643 C58.3382901,63.05143 60.2318619,61.7914728 60.2318619,61.7914728 L78.4528126,50.9979355 C78.4528126,50.9979355 80.2037152,50.1860676 80.0646834,49.2047216 C79.9256517,48.2233756 77.9357552,47.3483221 77.9357552,47.3483221 L45.6939862,29.4147802 C45.6939862,29.4147802 44.4243935,28.6473458 43.0008994,28.6696854 C41.5774053,28.692025 40.1517922,29.5017566 40.1517922,29.5017566 L21.5346195,40.0953268 C21.5346195,40.0953268 19.8835461,40.9950672 19.6197703,42.2423221 C19.3559944,43.489577 20.8896845,44.2264563 20.8896845,44.2264563 Z" id="Path-43" fill-opacity="0.15" fill="#5D6063"></path>
            <path d="M20.8896845,39.9764563 L52.4455872,57.676286 C52.4455872,57.676286 54.3491624,58.8704986 56.3437263,58.8359643 C58.3382901,58.80143 60.2318619,57.5414728 60.2318619,57.5414728 L78.4528126,46.7479355 C78.4528126,46.7479355 80.0251576,45.9152608 80.0646834,44.9547216 C80.1042093,43.9941824 80.0655306,41.4540668 80.0655306,41.4540668 L45.6939862,25.1647802 C45.6939862,25.1647802 44.4243935,24.3973458 43.0008994,24.4196854 C41.5774053,24.442025 40.1517922,25.2517566 40.1517922,25.2517566 L19.6393678,34.7493232 C19.6393678,34.7493232 19.6611741,36.7052247 19.6197703,37.9923221 C19.5783665,39.2794195 20.8896845,39.9764563 20.8896845,39.9764563 Z" id="Path-43" stroke="#5D6063" stroke-width="2" stroke-linejoin="round" fill="#FFFFFF"></path>
            <path d="M20.8896845,35.3085077 L52.4455872,53.0083375 C52.4455872,53.0083375 54.3491624,54.2025501 56.3437263,54.1680158 C58.3382901,54.1334815 60.2318619,52.8735243 60.2318619,52.8735243 L78.4528126,42.079987 C78.4528126,42.079987 80.2037152,41.2681191 80.0646834,40.2867731 C79.9256517,39.305427 77.9357552,38.4303735 77.9357552,38.4303735 L45.6939862,20.4968317 C45.6939862,20.4968317 44.4243935,19.7293973 43.0008994,19.7517369 C41.5774053,19.7740765 40.1517922,20.583808 40.1517922,20.583808 L21.5346195,31.1773783 C21.5346195,31.1773783 19.8835461,32.0771187 19.6197703,33.3243736 C19.3559944,34.5716285 20.8896845,35.3085077 20.8896845,35.3085077 Z" id="Path-43" stroke="#5D6063" stroke-width="2" stroke-linejoin="round" fill="#FFFFFF"></path>
            <path d="M26.4498309,32.0902722 L40.1223389,23.8684419 C40.1223389,23.8684419 41.6990245,22.7601688 42.9102283,22.7601688 C44.1214322,22.7601688 45.4112208,23.6342064 45.4112208,23.6342064 L50.1811935,26.3167405" id="Path-255" stroke="#5D6063" stroke-linecap="round" stroke-linejoin="round"></path>
            <path d="M55.547032,16.1100732 L59.5517081,13.6929707 C59.5517081,13.6929707 61.1283937,12.5846976 62.3395975,12.5846976 C63.5508014,12.5846976 64.84059,13.4587352 64.84059,13.4587352 L69.6105627,16.1412693" id="Path-255" stroke="#5D6063" stroke-linecap="round" stroke-linejoin="round"></path>
            <polygon id="Rectangle-3" stroke="#5D6063" stroke-width="2" stroke-linejoin="round" fill="#B2D6FF" points="71.9952024 46.3488543 101.969732 63.668173 97.5977319 66.583996 67.295091 49.1796854"></polygon>
            <polygon id="Rectangle-3" stroke="#5D6063" stroke-width="2" stroke-linejoin="round" fill="#B2D6FF" points="67.295091 53.2756737 97.4371561 70.6895598 97.4371561 66.7666761 67.295091 49.1796854"></polygon>
            <path d="M80.0792732,93.413318 L119.598916,116.214598 C119.598916,116.214598 121.502491,117.408811 123.497055,117.374277 C125.491619,117.339742 127.385191,116.079785 127.385191,116.079785 L172.837097,89.3163142 C172.837097,89.3163142 174.588,88.5044463 174.448968,87.5231002 C174.309936,86.5417542 172.32004,85.6667007 172.32004,85.6667007 L132.371469,62.7568048 C132.371469,62.7568048 131.101876,61.9893705 129.678382,62.0117101 C128.254888,62.0340497 126.829275,62.8437812 126.829275,62.8437812 L80.7242082,89.2821885 C80.7242082,89.2821885 79.0731349,90.1819289 78.809359,91.4291838 C78.5455832,92.6764387 80.0792732,93.413318 80.0792732,93.413318 Z" id="Path-43" fill-opacity="0.15" fill="#5D6063"></path>
            <path d="M80.0792732,89.163318 L119.598916,111.964598 C119.598916,111.964598 121.502491,113.158811 123.497055,113.124277 C125.491619,113.089742 127.385191,111.829785 127.385191,111.829785 L172.837097,85.0663142 C172.837097,85.0663142 174.386166,84.1729692 174.448968,83.2731002 C174.51177,82.3732312 174.390452,79.5476382 174.390452,79.5476382 L132.371469,58.5068048 C132.371469,58.5068048 131.101876,57.7393705 129.678382,57.7617101 C128.254888,57.7840497 126.829275,58.5937812 126.829275,58.5937812 L78.7735703,83.6728054 C78.7735703,83.6728054 78.7527634,86.0114739 78.809359,87.1791838 C78.8659547,88.3468937 80.0792732,89.163318 80.0792732,89.163318 Z" id="Path-43" stroke="#5D6063" stroke-width="2" stroke-linecap="round" stroke-linejoin="round" fill="#FFFFFF"></path>
            <path d="M80.0792732,84.263318 L119.598916,107.064598 C119.598916,107.064598 121.502491,108.258811 123.497055,108.224277 C125.491619,108.189742 127.385191,106.929785 127.385191,106.929785 L172.837097,80.1663142 C172.837097,80.1663142 174.588,79.3544463 174.448968,78.3731002 C174.309936,77.3917542 172.32004,76.5167007 172.32004,76.5167007 L132.371469,53.6068048 C132.371469,53.6068048 131.101876,52.8393705 129.678382,52.8617101 C128.254888,52.8840497 126.829275,53.6937812 126.829275,53.6937812 L80.7242082,80.1321885 C80.7242082,80.1321885 79.0731349,81.0319289 78.809359,82.2791838 C78.5455832,83.5264387 80.0792732,84.263318 80.0792732,84.263318 Z" id="Path-43" stroke="#5D6063" stroke-width="2" stroke-linejoin="round" fill="#FFFFFF"></path>
            <path d="M117.390071,67.5041554 L148.945973,85.2039851 C148.945973,85.2039851 150.849549,86.3981977 152.844112,86.3636634 C154.838676,86.3291291 156.732248,85.0691719 156.732248,85.0691719 L164.928923,80.1025909 C164.928923,80.1025909 166.679825,79.2907229 166.540793,78.3093769 C166.401762,77.3280309 164.411865,76.4529774 164.411865,76.4529774 L132.170096,58.5194355 C132.170096,58.5194355 130.900504,57.7520012 129.477009,57.7743408 C128.053515,57.7966804 126.627902,58.6064119 126.627902,58.6064119 L118.035006,63.373026 C118.035006,63.373026 116.383932,64.2727663 116.120156,65.5200212 C115.856381,66.7672761 117.390071,67.5041554 117.390071,67.5041554 Z" id="Path-43" fill-opacity="0.15" fill="#5D6063"></path>
            <path d="M117.390071,63.2541554 L148.945973,80.9539851 C148.945973,80.9539851 150.849549,82.1481977 152.844112,82.1136634 C154.838676,82.0791291 156.732248,80.8191719 156.732248,80.8191719 L164.928923,75.8525909 C164.928923,75.8525909 166.51288,75.0081848 166.540793,74.0593769 C166.568707,73.110569 166.535892,71.2414129 166.535892,71.2414129 L132.170096,54.2694355 C132.170096,54.2694355 130.900504,53.5020012 129.477009,53.5243408 C128.053515,53.5466804 126.627902,54.3564119 126.627902,54.3564119 L116.106644,58.6468388 C116.106644,58.6468388 116.103698,60.0920654 116.120156,61.2700212 C116.136615,62.4479771 117.390071,63.2541554 117.390071,63.2541554 Z" id="Path-43" stroke="#5D6063" stroke-width="2" stroke-linejoin="round" fill="#FFFFFF"></path>
            <path d="M117.390071,59.0041554 L148.945973,76.7039851 C148.945973,76.7039851 150.849549,77.8981977 152.844112,77.8636634 C154.838676,77.8291291 156.732248,76.5691719 156.732248,76.5691719 L164.928923,71.6025909 C164.928923,71.6025909 166.679825,70.7907229 166.540793,69.8093769 C166.401762,68.8280309 164.411865,67.9529774 164.411865,67.9529774 L132.170096,50.0194355 C132.170096,50.0194355 130.900504,49.2520012 129.477009,49.2743408 C128.053515,49.2966804 126.627902,50.1064119 126.627902,50.1064119 L118.035006,54.873026 C118.035006,54.873026 116.383932,55.7727663 116.120156,57.0200212 C115.856381,58.2672761 117.390071,59.0041554 117.390071,59.0041554 Z" id="Path-43" stroke="#5D6063" stroke-width="2" stroke-linejoin="round" fill="#FFFFFF"></path>
            <path d="M88.4365976,84.2264563 L119.9925,101.926286 C119.9925,101.926286 121.896076,103.120499 123.890639,103.085964 C125.885203,103.05143 127.778775,101.791473 127.778775,101.791473 L145.999726,90.9979355 C145.999726,90.9979355 147.750628,90.1860676 147.611597,89.2047216 C147.472565,88.2233756 145.482668,87.3483221 145.482668,87.3483221 L113.240899,69.4147802 C113.240899,69.4147802 111.971307,68.6473458 110.547813,68.6696854 C109.124318,68.692025 107.698705,69.5017566 107.698705,69.5017566 L89.0815326,80.0953268 C89.0815326,80.0953268 87.4304593,80.9950672 87.1666834,82.2423221 C86.9029076,83.489577 88.4365976,84.2264563 88.4365976,84.2264563 Z" id="Path-43" fill-opacity="0.15" fill="#5D6063"></path>
            <path d="M88.4365976,79.9764563 L119.9925,97.676286 C119.9925,97.676286 121.896076,98.8704986 123.890639,98.8359643 C125.885203,98.80143 127.778775,97.5414728 127.778775,97.5414728 L145.999726,86.7479355 C145.999726,86.7479355 147.572071,85.9152608 147.611597,84.9547216 C147.651122,83.9941824 147.612444,81.4540668 147.612444,81.4540668 L113.240899,65.1647802 C113.240899,65.1647802 111.971307,64.3973458 110.547813,64.4196854 C109.124318,64.442025 107.698705,65.2517566 107.698705,65.2517566 L87.1862809,74.7493232 C87.1862809,74.7493232 87.2080872,76.7052247 87.1666834,77.9923221 C87.1252796,79.2794195 88.4365976,79.9764563 88.4365976,79.9764563 Z" id="Path-43" stroke="#5D6063" stroke-width="2" stroke-linejoin="round" fill="#FFFFFF"></path>
            <path d="M88.4365976,75.3085077 L119.9925,93.0083375 C119.9925,93.0083375 121.896076,94.2025501 123.890639,94.1680158 C125.885203,94.1334815 127.778775,92.8735243 127.778775,92.8735243 L145.999726,82.079987 C145.999726,82.079987 147.750628,81.2681191 147.611597,80.2867731 C147.472565,79.305427 145.482668,78.4303735 145.482668,78.4303735 L113.240899,60.4968317 C113.240899,60.4968317 111.971307,59.7293973 110.547813,59.7517369 C109.124318,59.7740765 107.698705,60.583808 107.698705,60.583808 L89.0815326,71.1773783 C89.0815326,71.1773783 87.4304593,72.0771187 87.1666834,73.3243736 C86.9029076,74.5716285 88.4365976,75.3085077 88.4365976,75.3085077 Z" id="Path-43" stroke="#5D6063" stroke-width="2" stroke-linejoin="round" fill="#FFFFFF"></path>
            <path d="M93.996744,72.0902722 L107.669252,63.8684419 C107.669252,63.8684419 109.245938,62.7601688 110.457141,62.7601688 C111.668345,62.7601688 112.958134,63.6342064 112.958134,63.6342064 L117.728107,66.3167405" id="Path-255" stroke="#5D6063" stroke-linecap="round" stroke-linejoin="round"></path>
            <path d="M122.443647,55.8483965 L126.448323,53.431294 C126.448323,53.431294 128.025009,52.3230209 129.236213,52.3230209 C130.447417,52.3230209 131.737205,53.1970585 131.737205,53.1970585 L136.507178,55.8795925" id="Path-255" stroke="#5D6063" stroke-linecap="round" stroke-linejoin="round"></path>
        </g>
    </g>
</svg>