<?xml version="1.0" encoding="UTF-8" standalone="no"?>
<svg width="249px" height="164px" viewBox="0 0 249 164" version="1.1" xmlns="http://www.w3.org/2000/svg" xmlns:xlink="http://www.w3.org/1999/xlink">
    <!-- Generator: Sketch 3.7.1 (28215) - http://www.bohemiancoding.com/sketch -->
    <title>responsive-design</title>
    <desc>Created with Sketch.</desc>
    <defs></defs>
    <g id="Page-1" stroke="none" stroke-width="1" fill="none" fill-rule="evenodd">
        <g id="responsive-design">
            <ellipse id="Oval-12" fill-opacity="0.15" fill="#5D6063" cx="221.580338" cy="52.2188537" rx="8.09611554" ry="3.37702562"></ellipse>
            <path d="M165.271533,58.7188626 C173.349335,41.0532798 196.427099,36.7634651 196.427099,36.7634651 L216.952558,21.9865373" id="Path-435" stroke="#5D6063" stroke-width="2" stroke-linejoin="round"></path>
            <path d="M196.693301,37.4568502 L222.119222,45.7549886" id="Path-436" stroke="#5D6063" stroke-width="2" stroke-linejoin="round"></path>
            <path d="M11.0713995,135.148347 L45.921462,155.256603 C45.921462,155.256603 48.8363115,157.093853 51.8904874,157.040723 C54.9446633,156.987593 57.844195,155.049198 57.844195,155.049198 L185.672481,79.9520122 C185.672481,79.9520122 188.353551,78.7029847 188.140659,77.1932215 C187.927766,75.6834584 184.880737,74.3372222 184.880737,74.3372222 L149.373879,54.0618651 C149.373879,54.0618651 147.429815,52.8811969 145.25009,52.9155656 C143.070364,52.9499342 140.887394,54.195675 140.887394,54.195675 L12.0589562,128.792763 C12.0589562,128.792763 9.53075013,130.176979 9.12684337,132.095832 C8.72293661,134.014686 11.0713995,135.148347 11.0713995,135.148347 Z" id="Path-43" fill-opacity="0.15" fill="#5D6063"></path>
            <ellipse id="Oval-12" fill-opacity="0.15" fill="#5D6063" cx="196.077429" cy="43.9549847" rx="8.09611554" ry="3.37702562"></ellipse>
            <ellipse id="Oval-12" fill-opacity="0.15" fill="#5D6063" cx="216.472127" cy="28.3931059" rx="8.09611554" ry="3.37702562"></ellipse>
            <g id="Oval-1-+-Path-432" transform="translate(213.898296, 37.808461)" stroke="#5D6063" fill="#FFFFFF" stroke-linecap="round" stroke-linejoin="round">
                <circle id="Oval-1" stroke-width="2" cx="7.6922658" cy="7.24516037" r="6.94544724"></circle>
                <path d="M6.50467797,2.7137447 C5.52133268,2.5918005 3.62300672,3.92659584 3.48077557,5.59028497" id="Path-432"></path>
            </g>
            <g id="Oval-1-+-Path-432" transform="translate(188.483869, 29.543400)" stroke="#5D6063" fill="#FFFFFF" stroke-linecap="round" stroke-linejoin="round">
                <circle id="Oval-1" stroke-width="2" cx="7.6922658" cy="7.24516037" r="6.94544724"></circle>
                <path d="M6.50467797,2.7137447 C5.52133268,2.5918005 3.62300672,3.92659584 3.48077557,5.59028497" id="Path-432"></path>
            </g>
            <g id="Oval-1-+-Path-432" transform="translate(208.632927, 14.294681)" stroke="#5D6063" fill="#FFFFFF" stroke-linecap="round" stroke-linejoin="round">
                <circle id="Oval-1" stroke-width="2" cx="7.6922658" cy="7.24516037" r="6.94544724"></circle>
                <path d="M6.50467797,2.7137447 C5.52133268,2.5918005 3.62300672,3.92659584 3.48077557,5.59028497" id="Path-432"></path>
            </g>
            <path d="M11.0713995,130.148347 L45.921462,150.256603 C45.921462,150.256603 48.8363115,152.093853 51.8904874,152.040723 C54.9446633,151.987593 57.844195,150.049198 57.844195,150.049198 L185.672481,74.9520122 C185.672481,74.9520122 188.113451,73.7079702 188.140659,72.1932215 C188.167018,70.72574 188.140659,67.3372222 188.140659,67.3372222 L149.373879,49.0618651 C149.373879,49.0618651 147.429815,47.8811969 145.25009,47.9155656 C143.070364,47.9499342 140.887394,49.195675 140.887394,49.195675 L9.12684337,122.792763 C9.12684337,122.792763 9.0815464,125.094625 9.12684337,127.095832 C9.17214035,129.09704 11.0713995,130.148347 11.0713995,130.148347 Z" id="Path-43" stroke="#5D6063" stroke-width="2" stroke-linecap="round" stroke-linejoin="round" fill="#FFFFFF"></path>
            <path d="M11.0713995,125.148347 L45.921462,145.256603 C45.921462,145.256603 48.8363115,147.093853 51.8904874,147.040723 C54.9446633,146.987593 57.844195,145.049198 57.844195,145.049198 L185.672481,69.9520122 C185.672481,69.9520122 188.353551,68.7029847 188.140659,67.1932215 C187.927766,65.6834584 184.880737,64.3372222 184.880737,64.3372222 L149.373879,44.0618651 C149.373879,44.0618651 147.429815,42.8811969 145.25009,42.9155656 C143.070364,42.9499342 140.887394,44.195675 140.887394,44.195675 L12.0589562,118.792763 C12.0589562,118.792763 9.53075013,120.176979 9.12684337,122.095832 C8.72293661,124.014686 11.0713995,125.148347 11.0713995,125.148347 Z" id="Path-43" stroke="#5D6063" stroke-width="2" stroke-linecap="round" stroke-linejoin="round" fill="#FFFFFF"></path>
            <path d="M127.154681,63.5597135 L149.644081,76.775386 C149.644081,76.775386 152.558931,78.6126362 155.613106,78.5595065 C158.667282,78.5063768 161.566814,76.5679811 161.566814,76.5679811 L172.56316,69.6387677 C172.56316,69.6387677 175.24423,68.3897401 175.031337,66.879977 C174.818445,65.3702139 171.771416,64.0239777 171.771416,64.0239777 L148.231783,50.4487481 C148.231783,50.4487481 146.28772,49.2680799 144.107994,49.3024485 C141.928269,49.3368171 139.745299,50.5825579 139.745299,50.5825579 L128.142238,57.2041298 C128.142238,57.2041298 125.614032,58.5883458 125.210125,60.5071994 C124.806218,62.4260531 127.154681,63.5597135 127.154681,63.5597135 Z" id="Path-43" fill-opacity="0.15" fill="#5D6063"></path>
            <path d="M72.9938519,95.202964 L95.4832517,108.418636 C95.4832517,108.418636 98.3981011,110.255887 101.452277,110.202757 C104.506453,110.149627 107.405985,108.211232 107.405985,108.211232 L146.578527,85.1250518 C146.578527,85.1250518 149.259596,83.8760242 149.046704,82.3662611 C148.833812,80.8564979 145.786783,79.5102618 145.786783,79.5102618 L122.24715,65.9350322 C122.24715,65.9350322 120.303086,64.754364 118.123361,64.7887326 C115.943636,64.8231012 113.760666,66.068842 113.760666,66.068842 L73.9814086,88.8473802 C73.9814086,88.8473802 71.4532025,90.2315962 71.0492958,92.1504499 C70.645389,94.0693035 72.9938519,95.202964 72.9938519,95.202964 Z" id="Path-43" fill-opacity="0.15" fill="#5D6063"></path>
            <path d="M127.154681,58.5597135 L149.644081,71.775386 C149.644081,71.775386 152.558931,73.6126362 155.613106,73.5595065 C158.667282,73.5063768 161.566814,71.5679811 161.566814,71.5679811 L172.56316,64.6387677 C172.56316,64.6387677 174.993699,63.3947445 175.031337,61.879977 C175.067045,60.4428959 175.031337,57.0239777 175.031337,57.0239777 L148.231783,45.4487481 C148.231783,45.4487481 146.28772,44.2680799 144.107994,44.3024485 C141.928269,44.3368171 139.745299,45.5825579 139.745299,45.5825579 L125.210125,51.2041298 C125.210125,51.2041298 125.217275,53.6062693 125.210125,55.5071994 C125.202976,57.4081295 127.154681,58.5597135 127.154681,58.5597135 Z" id="Path-43" stroke="#5D6063" stroke-width="2" stroke-linecap="round" stroke-linejoin="round" fill="#FFFFFF"></path>
            <path d="M127.154681,53.5597135 L149.644081,66.775386 C149.644081,66.775386 152.558931,68.6126362 155.613106,68.5595065 C158.667282,68.5063768 161.566814,66.5679811 161.566814,66.5679811 L172.56316,59.6387677 C172.56316,59.6387677 175.24423,58.3897401 175.031337,56.879977 C174.818445,55.3702139 171.771416,54.0239777 171.771416,54.0239777 L148.231783,40.4487481 C148.231783,40.4487481 146.28772,39.2680799 144.107994,39.3024485 C141.928269,39.3368171 139.745299,40.5825579 139.745299,40.5825579 L128.142238,47.2041298 C128.142238,47.2041298 125.614032,48.5883458 125.210125,50.5071994 C124.806218,52.4260531 127.154681,53.5597135 127.154681,53.5597135 Z" id="Path-43" stroke="#5D6063" stroke-width="2" stroke-linecap="round" stroke-linejoin="round" fill="#FFFFFF"></path>
            <g id="Path-255" transform="translate(132.712999, 41.267811)" stroke-linecap="round" stroke="#5D6063" stroke-linejoin="round">
                <path d="M0.742068132,6.39015903 L6.8742285,2.67153976 C6.8742285,2.67153976 9.28852823,0.966504238 11.1431841,0.966504238 C12.99784,0.966504238 14.9728289,2.31117751 14.9728289,2.31117751 L22.2768496,6.43815295"></path>
            </g>
            <path d="M72.9938519,90.202964 L95.4832517,103.418636 C95.4832517,103.418636 98.3981011,105.255887 101.452277,105.202757 C104.506453,105.149627 107.405985,103.211232 107.405985,103.211232 L146.578527,80.1250518 C146.578527,80.1250518 149.062985,78.8810675 149.046704,77.3662611 C149.035778,76.3496694 149.046704,72.5102618 149.046704,72.5102618 L122.24715,60.9350322 C122.24715,60.9350322 120.303086,59.754364 118.123361,59.7887326 C115.943636,59.8231012 113.760666,61.068842 113.760666,61.068842 L71.0492958,82.8473802 C71.0492958,82.8473802 71.0290011,85.2616456 71.0492958,87.1504499 C71.0695904,89.0392541 72.9938519,90.202964 72.9938519,90.202964 Z" id="Path-43" stroke="#5D6063" stroke-width="2" stroke-linecap="round" stroke-linejoin="round" fill="#FFFFFF"></path>
            <path d="M72.9938519,85.202964 L95.4832517,98.4186364 C95.4832517,98.4186364 98.3981011,100.255887 101.452277,100.202757 C104.506453,100.149627 107.405985,98.2112315 107.405985,98.2112315 L146.578527,75.1250518 C146.578527,75.1250518 149.259596,73.8760242 149.046704,72.3662611 C148.833812,70.8564979 145.786783,69.5102618 145.786783,69.5102618 L122.24715,55.9350322 C122.24715,55.9350322 120.303086,54.754364 118.123361,54.7887326 C115.943636,54.8231012 113.760666,56.068842 113.760666,56.068842 L73.9814086,78.8473802 C73.9814086,78.8473802 71.4532025,80.2315962 71.0492958,82.1504499 C70.645389,84.0693035 72.9938519,85.202964 72.9938519,85.202964 Z" id="Path-43" stroke="#5D6063" stroke-width="2" stroke-linecap="round" stroke-linejoin="round" fill="#FFFFFF"></path>
            <path d="M93.0085511,72.2916331 L113.944579,59.6426635 C113.944579,59.6426635 116.358879,57.937628 118.213535,57.937628 C120.068191,57.937628 122.043179,59.2823013 122.043179,59.2823013 L129.3472,63.4092767" id="Path-255" stroke="#5D6063" stroke-linecap="round" stroke-linejoin="round"></path>
            <path d="M46.1209892,109.821637 L68.610389,123.037309 C68.610389,123.037309 71.5252385,124.874559 74.5794144,124.82143 C77.6335903,124.7683 80.533122,122.829904 80.533122,122.829904 L91.529468,115.900691 C91.529468,115.900691 94.2105376,114.651663 93.9976452,113.1419 C93.7847528,111.632137 90.7377238,110.285901 90.7377238,110.285901 L67.1980914,96.7106713 C67.1980914,96.7106713 65.2540276,95.5300031 63.0743022,95.5643717 C60.8945768,95.5987403 58.7116069,96.8444811 58.7116069,96.8444811 L47.108546,103.466053 C47.108546,103.466053 44.5803399,104.850269 44.1764331,106.769123 C43.7725263,108.687976 46.1209892,109.821637 46.1209892,109.821637 Z" id="Path-43" fill-opacity="0.15" fill="#5D6063"></path>
            <path d="M46.1209892,104.821637 L68.610389,118.037309 C68.610389,118.037309 71.5252385,119.874559 74.5794144,119.82143 C77.6335903,119.7683 80.533122,117.829904 80.533122,117.829904 L91.529468,110.900691 C91.529468,110.900691 93.960007,109.656668 93.9976452,108.1419 C94.0333531,106.704819 93.9976452,103.285901 93.9976452,103.285901 L67.1980914,91.7106713 C67.1980914,91.7106713 65.2540276,90.5300031 63.0743022,90.5643717 C60.8945768,90.5987403 58.7116069,91.8444811 58.7116069,91.8444811 L44.1764331,97.4660531 C44.1764331,97.4660531 44.1835827,99.8681926 44.1764331,101.769123 C44.1692835,103.670053 46.1209892,104.821637 46.1209892,104.821637 Z" id="Path-43" stroke="#5D6063" stroke-width="2" stroke-linecap="round" stroke-linejoin="round" fill="#FFFFFF"></path>
            <path d="M46.1209892,99.8216368 L68.610389,113.037309 C68.610389,113.037309 71.5252385,114.874559 74.5794144,114.82143 C77.6335903,114.7683 80.533122,112.829904 80.533122,112.829904 L91.529468,105.900691 C91.529468,105.900691 94.2105376,104.651663 93.9976452,103.1419 C93.7847528,101.632137 90.7377238,100.285901 90.7377238,100.285901 L67.1980914,86.7106713 C67.1980914,86.7106713 65.2540276,85.5300031 63.0743022,85.5643717 C60.8945768,85.5987403 58.7116069,86.8444811 58.7116069,86.8444811 L47.108546,93.4660531 C47.108546,93.4660531 44.5803399,94.850269 44.1764331,96.7691227 C43.7725263,98.6879764 46.1209892,99.8216368 46.1209892,99.8216368 Z" id="Path-43" stroke="#5D6063" stroke-width="2" stroke-linecap="round" stroke-linejoin="round" fill="#FFFFFF"></path>
            <g id="Path-255" transform="translate(51.679307, 87.529735)" stroke-linecap="round" stroke="#5D6063" stroke-linejoin="round">
                <path d="M0.742068132,6.39015903 L6.8742285,2.67153976 C6.8742285,2.67153976 9.28852823,0.966504238 11.1431841,0.966504238 C12.99784,0.966504238 14.9728289,2.31117751 14.9728289,2.31117751 L22.2768496,6.43815295"></path>
            </g>
            <path d="M22.033597,125.189481 L44.5229968,138.405153 C44.5229968,138.405153 47.4378463,140.242403 50.4920222,140.189274 C53.5461981,140.136144 56.4457298,138.197748 56.4457298,138.197748 L67.4420758,131.268535 C67.4420758,131.268535 70.1231454,130.019507 69.910253,128.509744 C69.6973606,126.999981 66.6503316,125.653745 66.6503316,125.653745 L43.1106992,112.078515 C43.1106992,112.078515 41.1666354,110.897847 38.98691,110.932216 C36.8071846,110.966584 34.6242146,112.212325 34.6242146,112.212325 L23.0211537,118.833897 C23.0211537,118.833897 20.4929476,120.218113 20.0890409,122.136967 C19.6851341,124.05582 22.033597,125.189481 22.033597,125.189481 Z" id="Path-43" fill-opacity="0.15" fill="#5D6063"></path>
            <path d="M22.033597,120.189481 L44.5229968,133.405153 C44.5229968,133.405153 47.4378463,135.242403 50.4920222,135.189274 C53.5461981,135.136144 56.4457298,133.197748 56.4457298,133.197748 L67.4420758,126.268535 C67.4420758,126.268535 69.8726148,125.024512 69.910253,123.509744 C69.9459609,122.072663 69.910253,118.653745 69.910253,118.653745 L43.1106992,107.078515 C43.1106992,107.078515 41.1666354,105.897847 38.98691,105.932216 C36.8071846,105.966584 34.6242146,107.212325 34.6242146,107.212325 L20.0890409,112.833897 C20.0890409,112.833897 20.0961905,115.236037 20.0890409,117.136967 C20.0818912,119.037897 22.033597,120.189481 22.033597,120.189481 Z" id="Path-43" stroke="#5D6063" stroke-width="2" stroke-linecap="round" stroke-linejoin="round" fill="#FFFFFF"></path>
            <path d="M22.033597,115.189481 L44.5229968,128.405153 C44.5229968,128.405153 47.4378463,130.242403 50.4920222,130.189274 C53.5461981,130.136144 56.4457298,128.197748 56.4457298,128.197748 L67.4420758,121.268535 C67.4420758,121.268535 70.1231454,120.019507 69.910253,118.509744 C69.6973606,116.999981 66.6503316,115.653745 66.6503316,115.653745 L43.1106992,102.078515 C43.1106992,102.078515 41.1666354,100.897847 38.98691,100.932216 C36.8071846,100.966584 34.6242146,102.212325 34.6242146,102.212325 L23.0211537,108.833897 C23.0211537,108.833897 20.4929476,110.218113 20.0890409,112.136967 C19.6851341,114.05582 22.033597,115.189481 22.033597,115.189481 Z" id="Path-43" stroke="#5D6063" stroke-width="2" stroke-linecap="round" stroke-linejoin="round" fill="#FFFFFF"></path>
            <g id="Path-255" transform="translate(27.591915, 102.897579)" stroke-linecap="round" stroke="#5D6063" stroke-linejoin="round">
                <path d="M0.742068132,6.39015903 L6.8742285,2.67153976 C6.8742285,2.67153976 9.28852823,0.966504238 11.1431841,0.966504238 C12.99784,0.966504238 14.9728289,2.31117751 14.9728289,2.31117751 L22.2768496,6.43815295"></path>
            </g>
            <path id="Path-380" stroke="#979797"></path>
        </g>
    </g>
</svg>