<?xml version="1.0" encoding="UTF-8" standalone="no"?>
<svg width="249px" height="164px" viewBox="0 0 249 164" version="1.1" xmlns="http://www.w3.org/2000/svg" xmlns:xlink="http://www.w3.org/1999/xlink">
    <!-- Generator: Sketch 39.1 (31720) - http://www.bohemiancoding.com/sketch -->
    <title>responsive-images</title>
    <desc>Created with Sketch.</desc>
    <defs></defs>
    <g id="Page-1" stroke="none" stroke-width="1" fill="none" fill-rule="evenodd">
        <g id="responsive-images">
            <ellipse id="Oval-12" fill-opacity="0.15" fill="#5D6063" cx="221.580338" cy="52.2188537" rx="8.09611554" ry="3.37702562"></ellipse>
            <path d="M165.271533,58.7188626 C173.349335,41.0532798 196.427099,36.7634651 196.427099,36.7634651 L216.952558,21.9865373" id="Path-435" stroke="#5D6063" stroke-width="2" stroke-linejoin="round"></path>
            <path d="M196.693301,37.4568502 L222.119222,45.7549886" id="Path-436" stroke="#5D6063" stroke-width="2" stroke-linejoin="round"></path>
            <path d="M11.0713995,135.148347 L45.921462,155.256603 C45.921462,155.256603 48.8363115,157.093853 51.8904874,157.040723 C54.9446633,156.987593 57.844195,155.049198 57.844195,155.049198 L185.672481,79.9520122 C185.672481,79.9520122 188.353551,78.7029847 188.140659,77.1932215 C187.927766,75.6834584 184.880737,74.3372222 184.880737,74.3372222 L149.373879,54.0618651 C149.373879,54.0618651 147.429815,52.8811969 145.25009,52.9155656 C143.070364,52.9499342 140.887394,54.195675 140.887394,54.195675 L12.0589562,128.792763 C12.0589562,128.792763 9.53075013,130.176979 9.12684337,132.095832 C8.72293661,134.014686 11.0713995,135.148347 11.0713995,135.148347 Z" id="Path-43" fill-opacity="0.15" fill="#5D6063"></path>
            <ellipse id="Oval-12" fill-opacity="0.15" fill="#5D6063" cx="196.077429" cy="43.9549847" rx="8.09611554" ry="3.37702562"></ellipse>
            <ellipse id="Oval-12" fill-opacity="0.15" fill="#5D6063" cx="216.472127" cy="28.3931059" rx="8.09611554" ry="3.37702562"></ellipse>
            <g id="Oval-1-+-Path-432" transform="translate(213.898296, 37.808461)" stroke="#5D6063" fill="#FFFFFF" stroke-linecap="round" stroke-linejoin="round">
                <circle id="Oval-1" stroke-width="2" cx="7.6922658" cy="7.24516037" r="6.94544724"></circle>
                <path d="M6.50467797,2.7137447 C5.52133268,2.5918005 3.62300672,3.92659584 3.48077557,5.59028497" id="Path-432"></path>
            </g>
            <g id="Oval-1-+-Path-432" transform="translate(188.483869, 29.543400)" stroke="#5D6063" fill="#FFFFFF" stroke-linecap="round" stroke-linejoin="round">
                <circle id="Oval-1" stroke-width="2" cx="7.6922658" cy="7.24516037" r="6.94544724"></circle>
                <path d="M6.50467797,2.7137447 C5.52133268,2.5918005 3.62300672,3.92659584 3.48077557,5.59028497" id="Path-432"></path>
            </g>
            <g id="Oval-1-+-Path-432" transform="translate(208.632927, 14.294681)" stroke="#5D6063" fill="#FFFFFF" stroke-linecap="round" stroke-linejoin="round">
                <circle id="Oval-1" stroke-width="2" cx="7.6922658" cy="7.24516037" r="6.94544724"></circle>
                <path d="M6.50467797,2.7137447 C5.52133268,2.5918005 3.62300672,3.92659584 3.48077557,5.59028497" id="Path-432"></path>
            </g>
            <path d="M11.0713995,130.148347 L45.921462,150.256603 C45.921462,150.256603 48.8363115,152.093853 51.8904874,152.040723 C54.9446633,151.987593 57.844195,150.049198 57.844195,150.049198 L185.672481,74.9520122 C185.672481,74.9520122 188.113451,73.7079702 188.140659,72.1932215 C188.167018,70.72574 188.140659,67.3372222 188.140659,67.3372222 L149.373879,49.0618651 C149.373879,49.0618651 147.429815,47.8811969 145.25009,47.9155656 C143.070364,47.9499342 140.887394,49.195675 140.887394,49.195675 L9.12684337,122.792763 C9.12684337,122.792763 9.0815464,125.094625 9.12684337,127.095832 C9.17214035,129.09704 11.0713995,130.148347 11.0713995,130.148347 Z" id="Path-43" stroke="#5D6063" stroke-width="2" stroke-linecap="round" stroke-linejoin="round" fill="#FFFFFF"></path>
            <path d="M11.0713995,125.148347 L45.921462,145.256603 C45.921462,145.256603 48.8363115,147.093853 51.8904874,147.040723 C54.9446633,146.987593 57.844195,145.049198 57.844195,145.049198 L185.672481,69.9520122 C185.672481,69.9520122 188.353551,68.7029847 188.140659,67.1932215 C187.927766,65.6834584 184.880737,64.3372222 184.880737,64.3372222 L149.373879,44.0618651 C149.373879,44.0618651 147.429815,42.8811969 145.25009,42.9155656 C143.070364,42.9499342 140.887394,44.195675 140.887394,44.195675 L12.0589562,118.792763 C12.0589562,118.792763 9.53075013,120.176979 9.12684337,122.095832 C8.72293661,124.014686 11.0713995,125.148347 11.0713995,125.148347 Z" id="Path-43" stroke="#5D6063" stroke-width="2" stroke-linecap="round" stroke-linejoin="round" fill="#FFFFFF"></path>
            <path d="M127.154681,63.5597135 L149.644081,76.775386 C149.644081,76.775386 152.558931,78.6126362 155.613106,78.5595065 C158.667282,78.5063768 161.566814,76.5679811 161.566814,76.5679811 L172.56316,69.6387677 C172.56316,69.6387677 175.24423,68.3897401 175.031337,66.879977 C174.818445,65.3702139 171.771416,64.0239777 171.771416,64.0239777 L148.231783,50.4487481 C148.231783,50.4487481 146.28772,49.2680799 144.107994,49.3024485 C141.928269,49.3368171 139.745299,50.5825579 139.745299,50.5825579 L128.142238,57.2041298 C128.142238,57.2041298 125.614032,58.5883458 125.210125,60.5071994 C124.806218,62.4260531 127.154681,63.5597135 127.154681,63.5597135 Z" id="Path-43" fill-opacity="0.15" fill="#5D6063"></path>
            <path d="M72.9938519,95.202964 L107.275992,115.427145 L107.323396,121.413 L123.643804,130.986261 C123.643804,130.986261 126.558653,132.823512 129.612829,132.770382 C132.667005,132.717252 135.566537,130.778857 135.566537,130.778857 L174.727252,106.981448 C174.727252,106.981448 177.408322,105.73242 177.19543,104.222657 C176.982537,102.712894 173.935508,101.366658 173.935508,101.366658 L156.478642,91.940255 L156.240238,85.8684714 L122.24715,65.9350322 C122.24715,65.9350322 120.303086,64.754364 118.123361,64.7887326 C115.943636,64.8231012 113.760666,66.068842 113.760666,66.068842 L73.9814086,88.8473802 C73.9814086,88.8473802 71.4532025,90.2315962 71.0492958,92.1504499 C70.645389,94.0693035 72.9938519,95.202964 72.9938519,95.202964 Z" id="Path-43" fill-opacity="0.15" fill="#5D6063"></path>
            <path d="M127.154681,58.5597135 L149.644081,71.775386 C149.644081,71.775386 152.558931,73.6126362 155.613106,73.5595065 C158.667282,73.5063768 161.566814,71.5679811 161.566814,71.5679811 L172.56316,64.6387677 C172.56316,64.6387677 174.993699,63.3947445 175.031337,61.879977 C175.067045,60.4428959 175.031337,57.0239777 175.031337,57.0239777 L148.231783,45.4487481 C148.231783,45.4487481 146.28772,44.2680799 144.107994,44.3024485 C141.928269,44.3368171 139.745299,45.5825579 139.745299,45.5825579 L125.210125,51.2041298 C125.210125,51.2041298 125.217275,53.6062693 125.210125,55.5071994 C125.202976,57.4081295 127.154681,58.5597135 127.154681,58.5597135 Z" id="Path-43" stroke="#5D6063" stroke-width="2" stroke-linecap="round" stroke-linejoin="round" fill="#FFFFFF"></path>
            <path d="M127.154681,53.5597135 L149.644081,66.775386 C149.644081,66.775386 152.558931,68.6126362 155.613106,68.5595065 C158.667282,68.5063768 161.566814,66.5679811 161.566814,66.5679811 L172.56316,59.6387677 C172.56316,59.6387677 175.24423,58.3897401 175.031337,56.879977 C174.818445,55.3702139 171.771416,54.0239777 171.771416,54.0239777 L148.231783,40.4487481 C148.231783,40.4487481 146.28772,39.2680799 144.107994,39.3024485 C141.928269,39.3368171 139.745299,40.5825579 139.745299,40.5825579 L128.142238,47.2041298 C128.142238,47.2041298 125.614032,48.5883458 125.210125,50.5071994 C124.806218,52.4260531 127.154681,53.5597135 127.154681,53.5597135 Z" id="Path-43" stroke="#5D6063" stroke-width="2" stroke-linecap="round" stroke-linejoin="round" fill="#FFFFFF"></path>
            <g id="Path-255" transform="translate(132.712999, 41.267811)" stroke-linecap="round" stroke="#5D6063" stroke-linejoin="round">
                <path d="M0.742068132,6.39015903 L6.8742285,2.67153976 C6.8742285,2.67153976 9.28852823,0.966504238 11.1431841,0.966504238 C12.99784,0.966504238 14.9728289,2.31117751 14.9728289,2.31117751 L22.2768496,6.43815295"></path>
            </g>
            <path d="M72.9938519,90.202964 L122.631122,120.117266 C122.631122,120.117266 125.545971,121.954516 128.600147,121.901386 C131.654323,121.848257 134.553855,119.909861 134.553855,119.909861 L173.726397,96.8236812 C173.726397,96.8236812 176.210855,95.5796969 176.194574,94.0648905 C176.183648,93.0482989 176.194574,89.2088912 176.194574,89.2088912 L122.24715,60.9350322 C122.24715,60.9350322 120.303086,59.754364 118.123361,59.7887326 C115.943636,59.8231012 113.760666,61.068842 113.760666,61.068842 L71.0492958,82.8473802 C71.0492958,82.8473802 71.0290011,85.2616456 71.0492958,87.1504499 C71.0695904,89.0392541 72.9938519,90.202964 72.9938519,90.202964 Z" id="Path-43" stroke="#5D6063" stroke-width="2" stroke-linecap="round" stroke-linejoin="round" fill="#B2D6FF"></path>
            <path d="M72.9938519,85.202964 L122.594629,115.090231 C122.594629,115.090231 125.509478,116.927481 128.563654,116.874351 C131.61783,116.821222 134.517362,114.882826 134.517362,114.882826 L173.689904,91.7966463 C173.689904,91.7966463 176.370973,90.5476188 176.158081,89.0378556 C175.945188,87.5280925 172.898159,86.1818564 172.898159,86.1818564 L122.24715,55.9350322 C122.24715,55.9350322 120.303086,54.754364 118.123361,54.7887326 C115.943636,54.8231012 113.760666,56.068842 113.760666,56.068842 L73.9814086,78.8473802 C73.9814086,78.8473802 71.4532025,80.2315962 71.0492958,82.1504499 C70.645389,84.0693035 72.9938519,85.202964 72.9938519,85.202964 Z" id="Path-43" stroke="#5D6063" stroke-width="2" stroke-linecap="round" stroke-linejoin="round" fill="#B2D6FF"></path>
            <path d="M46.1209892,109.821637 L68.610389,123.037309 C68.610389,123.037309 71.5252385,124.874559 74.5794144,124.82143 C77.6335903,124.7683 80.533122,122.829904 80.533122,122.829904 L91.529468,115.900691 C91.529468,115.900691 94.2105376,114.651663 93.9976452,113.1419 C93.7847528,111.632137 90.7377238,110.285901 90.7377238,110.285901 L67.1980914,96.7106713 C67.1980914,96.7106713 65.2540276,95.5300031 63.0743022,95.5643717 C60.8945768,95.5987403 58.7116069,96.8444811 58.7116069,96.8444811 L47.108546,103.466053 C47.108546,103.466053 44.5803399,104.850269 44.1764331,106.769123 C43.7725263,108.687976 46.1209892,109.821637 46.1209892,109.821637 Z" id="Path-43" fill-opacity="0.15" fill="#5D6063"></path>
            <path d="M46.1209892,104.821637 L68.610389,118.037309 C68.610389,118.037309 71.5252385,119.874559 74.5794144,119.82143 C77.6335903,119.7683 80.533122,117.829904 80.533122,117.829904 L91.529468,110.900691 C91.529468,110.900691 93.960007,109.656668 93.9976452,108.1419 C94.0333531,106.704819 93.9976452,103.285901 93.9976452,103.285901 L67.1980914,91.7106713 C67.1980914,91.7106713 65.2540276,90.5300031 63.0743022,90.5643717 C60.8945768,90.5987403 58.7116069,91.8444811 58.7116069,91.8444811 L44.1764331,97.4660531 C44.1764331,97.4660531 44.1835827,99.8681926 44.1764331,101.769123 C44.1692835,103.670053 46.1209892,104.821637 46.1209892,104.821637 Z" id="Path-43" stroke="#5D6063" stroke-width="2" stroke-linecap="round" stroke-linejoin="round" fill="#FFFFFF"></path>
            <path d="M46.1209892,99.8216368 L68.610389,113.037309 C68.610389,113.037309 71.5252385,114.874559 74.5794144,114.82143 C77.6335903,114.7683 80.533122,112.829904 80.533122,112.829904 L91.529468,105.900691 C91.529468,105.900691 94.2105376,104.651663 93.9976452,103.1419 C93.7847528,101.632137 90.7377238,100.285901 90.7377238,100.285901 L67.1980914,86.7106713 C67.1980914,86.7106713 65.2540276,85.5300031 63.0743022,85.5643717 C60.8945768,85.5987403 58.7116069,86.8444811 58.7116069,86.8444811 L47.108546,93.4660531 C47.108546,93.4660531 44.5803399,94.850269 44.1764331,96.7691227 C43.7725263,98.6879764 46.1209892,99.8216368 46.1209892,99.8216368 Z" id="Path-43" stroke="#5D6063" stroke-width="2" stroke-linecap="round" stroke-linejoin="round" fill="#FFFFFF"></path>
            <g id="Path-255" transform="translate(51.679307, 87.529735)" stroke-linecap="round" stroke="#5D6063" stroke-linejoin="round">
                <path d="M0.742068132,6.39015903 L6.8742285,2.67153976 C6.8742285,2.67153976 9.28852823,0.966504238 11.1431841,0.966504238 C12.99784,0.966504238 14.9728289,2.31117751 14.9728289,2.31117751 L22.2768496,6.43815295"></path>
            </g>
            <path d="M22.033597,125.189481 L44.5229968,138.405153 C44.5229968,138.405153 47.4378463,140.242403 50.4920222,140.189274 C53.5461981,140.136144 56.4457298,138.197748 56.4457298,138.197748 L67.4420758,131.268535 C67.4420758,131.268535 70.1231454,130.019507 69.910253,128.509744 C69.6973606,126.999981 66.6503316,125.653745 66.6503316,125.653745 L43.1106992,112.078515 C43.1106992,112.078515 41.1666354,110.897847 38.98691,110.932216 C36.8071846,110.966584 34.6242146,112.212325 34.6242146,112.212325 L23.0211537,118.833897 C23.0211537,118.833897 20.4929476,120.218113 20.0890409,122.136967 C19.6851341,124.05582 22.033597,125.189481 22.033597,125.189481 Z" id="Path-43" fill-opacity="0.15" fill="#5D6063"></path>
            <path d="M22.033597,120.189481 L44.5229968,133.405153 C44.5229968,133.405153 47.4378463,135.242403 50.4920222,135.189274 C53.5461981,135.136144 56.4457298,133.197748 56.4457298,133.197748 L67.4420758,126.268535 C67.4420758,126.268535 69.8726148,125.024512 69.910253,123.509744 C69.9459609,122.072663 69.910253,118.653745 69.910253,118.653745 L43.1106992,107.078515 C43.1106992,107.078515 41.1666354,105.897847 38.98691,105.932216 C36.8071846,105.966584 34.6242146,107.212325 34.6242146,107.212325 L20.0890409,112.833897 C20.0890409,112.833897 20.0961905,115.236037 20.0890409,117.136967 C20.0818912,119.037897 22.033597,120.189481 22.033597,120.189481 Z" id="Path-43" stroke="#5D6063" stroke-width="2" stroke-linecap="round" stroke-linejoin="round" fill="#FFFFFF"></path>
            <path d="M22.033597,115.189481 L44.5229968,128.405153 C44.5229968,128.405153 47.4378463,130.242403 50.4920222,130.189274 C53.5461981,130.136144 56.4457298,128.197748 56.4457298,128.197748 L67.4420758,121.268535 C67.4420758,121.268535 70.1231454,120.019507 69.910253,118.509744 C69.6973606,116.999981 66.6503316,115.653745 66.6503316,115.653745 L43.1106992,102.078515 C43.1106992,102.078515 41.1666354,100.897847 38.98691,100.932216 C36.8071846,100.966584 34.6242146,102.212325 34.6242146,102.212325 L23.0211537,108.833897 C23.0211537,108.833897 20.4929476,110.218113 20.0890409,112.136967 C19.6851341,114.05582 22.033597,115.189481 22.033597,115.189481 Z" id="Path-43" stroke="#5D6063" stroke-width="2" stroke-linecap="round" stroke-linejoin="round" fill="#FFFFFF"></path>
            <g id="Path-255" transform="translate(27.591915, 102.897579)" stroke-linecap="round" stroke="#5D6063" stroke-linejoin="round">
                <path d="M0.742068132,6.39015903 L6.8742285,2.67153976 C6.8742285,2.67153976 9.28852823,0.966504238 11.1431841,0.966504238 C12.99784,0.966504238 14.9728289,2.31117751 14.9728289,2.31117751 L22.2768496,6.43815295"></path>
            </g>
            <path d="" id="Path-380" stroke="#979797"></path>
            <g id="Group-5" transform="translate(127.268797, 76.112987)">
                <polygon id="Path-3" fill-opacity="0.15" fill="#5D6063" points="0.998714845 17.6349079 16.2560935 8.80665098 31.447473 17.5535539 16.2474732 26.6810965"></polygon>
                <g id="Group" transform="translate(1.000000, 0.000000)" stroke="#5D6063" stroke-width="2" fill="#FFFFFF" stroke-linecap="round" stroke-linejoin="round">
                    <polygon id="Path-3" points="0.299136809 13.0191578 0.299136809 9.50514028 15.2554423 4.36510851 30.1470524 9.2346236 30.1470511 12.9394092 15.2469921 21.8868384"></polygon>
                    <polygon id="Path-3" points="0.299136809 9.3248376 15.2554423 0.670788303 30.1470511 9.24508895 15.2469921 18.1925182"></polygon>
                    <path d="M15.1876608,18.01258 L15.1876608,21.8161053" id="Path-2"></path>
                </g>
            </g>
            <g id="Group-4" transform="translate(98.000000, 83.000000)">
                <polygon id="Path-5" fill-opacity="0.15" fill="#5D6063" points="23.1765277 9.82370745 15.6340813 23.0672216 0.759712458 14.2703506"></polygon>
                <g id="Group-3" stroke="#5D6063" stroke-width="2" fill="#FFFFFF" stroke-linecap="round" stroke-linejoin="round">
                    <polygon id="Path-5" points="0.759712458 5.24636058 23.1765273 0.720809083 23.1765277 5.61633352 15.6340813 18.8598477 0.759712458 10.0629767"></polygon>
                    <polygon id="Path-5" points="23.1765277 0.61633352 15.6340813 13.8598477 0.759712458 5.06297669"></polygon>
                    <path d="M15.5407883,14.5859048 L15.5407883,18.665826" id="Path-7"></path>
                </g>
            </g>
            <path d="M93.0085511,72.2916331 L113.944579,59.6426635 C113.944579,59.6426635 116.358879,57.937628 118.213535,57.937628 C120.068191,57.937628 122.043179,59.2823013 122.043179,59.2823013 L129.3472,63.4092767" id="Path-255" stroke="#5D6063" stroke-linecap="round" stroke-linejoin="round"></path>
            <g id="Group-6" transform="translate(105.000000, 63.000000)">
                <path d="M5.72667732,10.8555847 C9.80654687,8.55155375 17.7389566,8.53021757 21.7261164,10.8428847 C25.7132763,13.1555518 25.774236,17.5717091 21.7206554,20.0971086 C17.6670748,22.6225081 9.62011117,22.4389858 5.61479046,20.0983786 C1.60946975,17.7577715 1.64680776,13.1596156 5.72667732,10.8555847 Z" id="Path-4" fill-opacity="0.15" fill="#5D6063"></path>
                <g id="Group-2" transform="translate(0.944613, 0.873658)" stroke="#5D6063" stroke-width="2" fill="#FFFFFF" stroke-linecap="round" stroke-linejoin="round">
                    <path d="M4.78206393,5.7745524 C8.86193348,3.47052147 16.7943432,3.44918529 20.7815031,5.76185242 C24.7686629,8.07451954 24.8296227,12.4906769 20.7760421,15.0160763 C16.7224615,17.5414758 8.67549779,17.3579535 4.67017708,15.0173463 C0.664856368,12.6767392 0.70219438,8.07858333 4.78206393,5.7745524 Z" id="Path-4"></path>
                    <path d="M4.78206393,1.7745524 C8.86193348,-0.52947853 16.7943432,-0.55081471 20.7815031,1.76185242 C24.7686629,4.07451954 24.8296227,8.49067686 20.7760421,11.0160763 C16.7224615,13.5414758 8.67549779,13.3579535 4.67017708,11.0173463 C0.664856368,8.67673919 0.70219438,4.07858333 4.78206393,1.7745524 Z" id="Path-4"></path>
                    <path d="M23.7870364,6.86647717 L23.7870364,10.7316225" id="Path-6"></path>
                    <path d="M1.73018279,6.86647717 L1.73018279,10.7316225" id="Path-6"></path>
                </g>
            </g>
        </g>
    </g>
</svg>