<?xml version="1.0" encoding="UTF-8" standalone="no"?>
<svg width="187px" height="121px" viewBox="0 0 187 121" version="1.1" xmlns="http://www.w3.org/2000/svg" xmlns:xlink="http://www.w3.org/1999/xlink">
    <!-- Generator: Sketch 3.7.1 (28215) - http://www.bohemiancoding.com/sketch -->
    <title>the-css-box-model</title>
    <desc>Created with Sketch.</desc>
    <defs></defs>
    <g id="Page-1" stroke="none" stroke-width="1" fill="none" fill-rule="evenodd">
        <g id="the-css-box-model">
            <path d="M26.4109895,67.5689596 L101.595148,111.581865 L145.743849,86.0687359 L69.3918592,42.0339445 L26.4109895,67.5689596 Z M69.0878302,33.3773359 L10.7986533,67.6788819 L101.32579,120.111595 L159.614967,85.8100492 L69.0878302,33.3773359 Z" id="Combined-Shape-Copy" fill-opacity="0.15" fill="#5D6063"></path>
            <path d="M48.9828733,68.3115323 L97.3028495,95.5420396 C97.3028495,95.5420396 100.217699,97.3792897 103.271875,97.32616 C106.326051,97.2730304 109.225582,95.3346347 109.225582,95.3346347 L121.77674,87.6937407 C121.77674,87.6937407 124.45781,86.4447131 124.244918,84.93495 C124.032025,83.4251869 120.984996,82.0789507 120.984996,82.0789507 L71.6147875,54.4888863 C71.6147875,54.4888863 69.6707236,53.3082181 67.4909983,53.3425867 C65.3112729,53.3769553 63.1283029,54.6226961 63.1283029,54.6226961 L49.9704301,61.9559486 C49.9704301,61.9559486 47.442224,63.3401645 47.0383172,65.2590182 C46.6344105,67.1778718 48.9828733,68.3115323 48.9828733,68.3115323 Z" id="Path-43-Copy" fill-opacity="0.15" fill="#5D6063"></path>
            <g id="Group" transform="translate(110.898341, 4.294323)">
                <ellipse id="Oval-12" fill-opacity="0.15" fill="#5D6063" cx="56.6253101" cy="38.1674575" rx="8.09611554" ry="3.37702562"></ellipse>
                <path d="M0.316505057,44.6674664 C8.39430708,27.0018835 31.4720713,22.7120688 31.4720713,22.7120688 L51.9975306,7.93514108" id="Path-435" stroke="#5D6063" stroke-width="2" stroke-linejoin="round"></path>
                <path d="M31.7382736,23.405454 L57.1641942,31.7035924" id="Path-436" stroke="#5D6063" stroke-width="2" stroke-linejoin="round"></path>
                <ellipse id="Oval-12" fill-opacity="0.15" fill="#5D6063" cx="31.1224013" cy="29.9035884" rx="8.09611554" ry="3.37702562"></ellipse>
                <ellipse id="Oval-12" fill-opacity="0.15" fill="#5D6063" cx="51.5170996" cy="14.3417096" rx="8.09611554" ry="3.37702562"></ellipse>
                <g id="Oval-1-+-Path-432" transform="translate(48.943268, 23.757065)" stroke="#5D6063" fill="#FFFFFF" stroke-linecap="round" stroke-linejoin="round">
                    <circle id="Oval-1" stroke-width="2" cx="7.6922658" cy="7.24516037" r="6.94544724"></circle>
                    <path d="M6.50467797,2.7137447 C5.52133268,2.5918005 3.62300672,3.92659584 3.48077557,5.59028497" id="Path-432"></path>
                </g>
                <g id="Oval-1-+-Path-432" transform="translate(23.528841, 15.492004)" stroke="#5D6063" fill="#FFFFFF" stroke-linecap="round" stroke-linejoin="round">
                    <circle id="Oval-1" stroke-width="2" cx="7.6922658" cy="7.24516037" r="6.94544724"></circle>
                    <path d="M6.50467797,2.7137447 C5.52133268,2.5918005 3.62300672,3.92659584 3.48077557,5.59028497" id="Path-432"></path>
                </g>
                <g id="Oval-1-+-Path-432" transform="translate(43.677899, 0.243284)" stroke="#5D6063" stroke-linecap="round" stroke-linejoin="round">
                    <circle id="Oval-1" stroke-width="2" fill="#FFFFFF" cx="7.6922658" cy="7.24516037" r="6.94544724"></circle>
                    <path d="M6.50467797,2.7137447 C5.52133268,2.5918005 3.62300672,3.92659584 3.48077557,5.59028497" id="Path-432"></path>
                </g>
            </g>
            <path d="M26.4109895,62.5689596 L101.595148,106.581865 L145.743849,81.0687359 L69.3918592,37.0339445 L26.4109895,62.5689596 Z M69.0878302,28.3773359 L10.7986533,62.6788819 L101.32579,115.111595 L159.614967,80.8100492 L69.0878302,28.3773359 Z" id="Combined-Shape" stroke="#636363" stroke-width="2" stroke-linejoin="round" fill="#FFFFFF"></path>
            <path d="M26.4109895,62.5689596 L101.595148,106.581865 L145.743849,81.0687359 L69.3918592,37.0339445 L26.4109895,62.5689596 Z M159.614968,76.2708486 L69.0878302,28.3773359 L10.7986533,58.0192713 L10.7986533,62.6788819 L101.32579,115.111595 L159.614967,80.8100492 L159.614968,76.2708486 Z" id="Combined-Shape" stroke="#5D6063" stroke-width="2" stroke-linejoin="round" fill="#B2D6FF"></path>
            <path d="M26.4109895,57.5689596 L101.595148,101.581865 L145.743849,76.0687359 L69.3918592,32.0339445 L26.4109895,57.5689596 Z M69.0878302,23.3773359 L10.7986533,57.6788819 L101.32579,110.111595 L159.614967,75.8100492 L69.0878302,23.3773359 Z" id="Combined-Shape" stroke="#5D6063" stroke-width="2" stroke-linejoin="round" fill="#B2D6FF"></path>
            <path d="M101.343508,110.235414 L101.343508,114.978094" id="Path-1512" stroke="#5D6063" stroke-width="2" stroke-linejoin="round" fill="#B2D6FF"></path>
            <path d="M69.3659172,32.4355838 L69.3659172,37.0646478" id="Path-1513" stroke="#5D6063" stroke-width="2" stroke-linejoin="round" fill="#5D6063"></path>
            <path d="M48.9828733,63.3115323 L97.3028495,90.5420396 C97.3028495,90.5420396 100.217699,92.3792897 103.271875,92.32616 C106.326051,92.2730304 109.225582,90.3346347 109.225582,90.3346347 L121.77674,82.6937407 C121.77674,82.6937407 124.244915,81.2515258 124.244918,79.93495 C124.24492,78.6183743 124.24492,75.3164009 124.24492,75.3164009 L71.6147875,49.4888863 C71.6147875,49.4888863 69.6707236,48.3082181 67.4909983,48.3425867 C65.3112729,48.3769553 63.1283029,49.6226961 63.1283029,49.6226961 L47.0383172,55.9822597 C47.0383172,55.9822597 47.0383172,58.3993973 47.0383172,60.2590182 C47.0383172,62.1186391 48.9828733,63.3115323 48.9828733,63.3115323 Z" id="Path-43" stroke="#5D6063" stroke-width="2" stroke-linejoin="round" fill="#FFFFFF"></path>
            <path d="M48.9828733,58.3115323 L97.3028495,85.5420396 C97.3028495,85.5420396 100.217699,87.3792897 103.271875,87.32616 C106.326051,87.2730304 109.225582,85.3346347 109.225582,85.3346347 L121.77674,77.6937407 C121.77674,77.6937407 124.45781,76.4447131 124.244918,74.93495 C124.032025,73.4251869 120.984996,72.0789507 120.984996,72.0789507 L72.0530944,43.963306 C72.0530944,43.963306 70.1090306,42.7826378 67.9293053,42.8170064 C65.7495799,42.851375 63.5666099,44.0971158 63.5666099,44.0971158 L49.9704301,51.9559486 C49.9704301,51.9559486 47.442224,53.3401645 47.0383172,55.2590182 C46.6344105,57.1778718 48.9828733,58.3115323 48.9828733,58.3115323 Z" id="Path-43" stroke="#5D6063" stroke-width="2" stroke-linejoin="round" fill="#FFFFFF"></path>
            <path d="M57.059271,51.601133 L63.1698986,47.9061724 C63.1698986,47.9061724 65.6976518,46.2943226 67.5523076,46.2943226 C69.4069635,46.2943226 71.3819524,47.6389959 71.3819524,47.6389959 L78.6859731,51.7659713" id="Path-255" stroke="#5D6063" stroke-linecap="round" stroke-linejoin="round"></path>
        </g>
    </g>
</svg>