<?xml version="1.0" encoding="UTF-8" standalone="no"?>
<svg width="187px" height="121px" viewBox="0 0 187 121" version="1.1" xmlns="http://www.w3.org/2000/svg" xmlns:xlink="http://www.w3.org/1999/xlink">
    <!-- Generator: Sketch 3.7.1 (28215) - http://www.bohemiancoding.com/sketch -->
    <title>basic-web-pages</title>
    <desc>Created with Sketch.</desc>
    <defs></defs>
    <g id="Page-1" stroke="none" stroke-width="1" fill="none" fill-rule="evenodd">
        <g id="basic-web-pages">
            <path d="M21.3464264,79.1743353 L81.8608796,114.253228 C81.8608796,114.253228 84.775729,116.090478 87.8299049,116.037349 C90.8840808,115.984219 93.7836126,114.045823 93.7836126,114.045823 L163.381844,72.8712526 C163.381844,72.8712526 166.062914,71.622225 165.850021,70.1124619 C165.637129,68.6026987 162.5901,67.2564626 162.5901,67.2564626 L101.418851,32.0104689 C101.418851,32.0104689 99.4747871,30.8298007 97.2950617,30.8641693 C95.1153364,30.8985379 92.9323664,32.1442787 92.9323664,32.1442787 L22.3339831,72.8187516 C22.3339831,72.8187516 19.805777,74.2029675 19.4018703,76.1218212 C18.9979635,78.0406749 21.3464264,79.1743353 21.3464264,79.1743353 Z" id="Path-43" fill-opacity="0.15" fill="#5D6063"></path>
            <path d="M21.3464264,74.1743353 L81.8608796,109.253228 C81.8608796,109.253228 84.775729,111.090478 87.8299049,111.037349 C90.8840808,110.984219 93.7836126,109.045823 93.7836126,109.045823 L163.381844,67.8712526 C163.381844,67.8712526 165.753856,66.4968758 165.850021,65.1124619 C165.946187,63.728048 165.760418,59.3809819 165.760418,59.3809819 L101.418851,27.0104689 C101.418851,27.0104689 99.4747871,25.8298007 97.2950617,25.8641693 C95.1153364,25.8985379 92.9323664,27.1442787 92.9323664,27.1442787 L19.3470688,65.7273929 C19.3470688,65.7273929 19.3152082,69.3253445 19.4018703,71.1218212 C19.4885323,72.9182979 21.3464264,74.1743353 21.3464264,74.1743353 Z" id="Path-43" stroke="#5D6063" stroke-width="2" stroke-linecap="round" stroke-linejoin="round" fill="#FFFFFF"></path>
            <path d="M21.3464264,68.1743353 L81.8608796,103.253228 C81.8608796,103.253228 84.775729,105.090478 87.8299049,105.037349 C90.8840808,104.984219 93.7836126,103.045823 93.7836126,103.045823 L163.381844,61.8712526 C163.381844,61.8712526 166.062914,60.622225 165.850021,59.1124619 C165.637129,57.6026987 162.5901,56.2564626 162.5901,56.2564626 L101.418851,21.0104689 C101.418851,21.0104689 99.4747871,19.8298007 97.2950617,19.8641693 C95.1153364,19.8985379 92.9323664,21.1442787 92.9323664,21.1442787 L22.3339831,61.8187516 C22.3339831,61.8187516 19.805777,63.2029675 19.4018703,65.1218212 C18.9979635,67.0406749 21.3464264,68.1743353 21.3464264,68.1743353 Z" id="Path-43" stroke="#5D6063" stroke-width="2" stroke-linejoin="round" fill="#FFFFFF"></path>
            <path d="M77.8759255,42.5104516 L126.195902,69.7409589 C126.195902,69.7409589 129.110751,71.5782091 132.164927,71.5250794 C135.219103,71.4719497 138.118635,69.533554 138.118635,69.533554 L150.669793,61.8926601 C150.669793,61.8926601 153.350862,60.6436325 153.13797,59.1338694 C152.925077,57.6241062 149.878048,56.2778701 149.878048,56.2778701 L100.50784,28.6878057 C100.50784,28.6878057 98.5637758,27.5071375 96.3840504,27.5415061 C94.204325,27.5758747 92.0213551,28.8216155 92.0213551,28.8216155 L78.8634822,36.1548679 C78.8634822,36.1548679 76.3352761,37.5390839 75.9313694,39.4579375 C75.5274626,41.3767912 77.8759255,42.5104516 77.8759255,42.5104516 Z" id="Path-43" fill-opacity="0.15" fill="#5D6063"></path>
            <path d="M77.8759255,37.5104516 L126.195902,64.7409589 C126.195902,64.7409589 129.110751,66.5782091 132.164927,66.5250794 C135.219103,66.4719497 138.118635,64.533554 138.118635,64.533554 L150.669793,56.8926601 C150.669793,56.8926601 153.095227,55.5935738 153.13797,54.1338694 C153.180712,52.674165 153.130464,49.7985402 153.130464,49.7985402 L100.50784,23.6878057 C100.50784,23.6878057 98.5637758,22.5071375 96.3840504,22.5415061 C94.204325,22.5758747 92.0213551,23.8216155 92.0213551,23.8216155 L75.9106788,30.4222723 C75.9106788,30.4222723 75.9061668,32.6456978 75.9313694,34.4579375 C75.956572,36.2701773 77.8759255,37.5104516 77.8759255,37.5104516 Z" id="Path-43" stroke="#5D6063" stroke-width="2" stroke-linejoin="round" fill="#FFFFFF"></path>
            <path d="M77.8759255,32.5104516 L126.195902,59.7409589 C126.195902,59.7409589 129.110751,61.5782091 132.164927,61.5250794 C135.219103,61.4719497 138.118635,59.533554 138.118635,59.533554 L150.669793,51.8926601 C150.669793,51.8926601 153.350862,50.6436325 153.13797,49.1338694 C152.925077,47.6241062 149.878048,46.2778701 149.878048,46.2778701 L100.50784,18.6878057 C100.50784,18.6878057 98.5637758,17.5071375 96.3840504,17.5415061 C94.204325,17.5758747 92.0213551,18.8216155 92.0213551,18.8216155 L78.8634822,26.1548679 C78.8634822,26.1548679 76.3352761,27.5390839 75.9313694,29.4579375 C75.5274626,31.3767912 77.8759255,32.5104516 77.8759255,32.5104516 Z" id="Path-43" stroke="#5D6063" stroke-width="2" stroke-linejoin="round" fill="#FFFFFF"></path>
            <path d="M34.1435793,68.117625 L82.4635555,95.3481323 C82.4635555,95.3481323 85.3784049,97.1853825 88.4325808,97.1322528 C91.4867567,97.0791231 94.3862885,95.1407274 94.3862885,95.1407274 L122.287119,78.5352854 C122.287119,78.5352854 124.968189,77.2862579 124.755297,75.7764948 C124.542404,74.2667316 121.495375,72.9204955 121.495375,72.9204955 L72.1251664,45.330431 C72.1251664,45.330431 70.1811026,44.1497628 68.0013772,44.1841314 C65.8216518,44.2185001 63.6386819,45.4642409 63.6386819,45.4642409 L35.1311361,61.7620413 C35.1311361,61.7620413 32.60293,63.1462572 32.1990232,65.0651109 C31.7951165,66.9839646 34.1435793,68.117625 34.1435793,68.117625 Z" id="Path-43" fill-opacity="0.15" fill="#5D6063"></path>
            <path d="M34.1435793,63.117625 L82.4635555,90.3481323 C82.4635555,90.3481323 85.3784049,92.1853825 88.4325808,92.1322528 C91.4867567,92.0791231 94.3862885,90.1407274 94.3862885,90.1407274 L122.287119,73.5352854 C122.287119,73.5352854 124.694773,72.2542474 124.755297,70.7764948 C124.815821,69.2987421 124.756594,65.390872 124.756594,65.390872 L72.1251664,40.330431 C72.1251664,40.330431 70.1811026,39.1497628 68.0013772,39.1841314 C65.8216518,39.2185001 63.6386819,40.4642409 63.6386819,40.4642409 L32.2290319,55.0758819 C32.2290319,55.0758819 32.2624228,58.0849611 32.1990232,60.0651109 C32.1356236,62.0452607 34.1435793,63.117625 34.1435793,63.117625 Z" id="Path-43" stroke="#5D6063" stroke-width="2" stroke-linejoin="round" fill="#FFFFFF"></path>
            <path d="M34.1435793,57.117625 L82.4635555,84.3481323 C82.4635555,84.3481323 85.3784049,86.1853825 88.4325808,86.1322528 C91.4867567,86.0791231 94.3862885,84.1407274 94.3862885,84.1407274 L122.287119,67.5352854 C122.287119,67.5352854 124.968189,66.2862579 124.755297,64.7764948 C124.542404,63.2667316 121.495375,61.9204955 121.495375,61.9204955 L72.1251664,34.330431 C72.1251664,34.330431 70.1811026,33.1497628 68.0013772,33.1841314 C65.8216518,33.2185001 63.6386819,34.4642409 63.6386819,34.4642409 L35.1311361,50.7620413 C35.1311361,50.7620413 32.60293,52.1462572 32.1990232,54.0651109 C31.7951165,55.9839646 34.1435793,57.117625 34.1435793,57.117625 Z" id="Path-43" stroke="#5D6063" stroke-width="2" stroke-linejoin="round" fill="#FFFFFF"></path>
            <path d="M42.7854072,50.9012144 L63.7214352,38.2522448 C63.7214352,38.2522448 66.1357349,36.5472093 67.9903908,36.5472093 C69.8450467,36.5472093 71.8200355,37.8918825 71.8200355,37.8918825 L79.1240562,42.018858" id="Path-255" stroke="#5D6063" stroke-linecap="round" stroke-linejoin="round"></path>
            <path d="M85.7420681,26.390159 L91.8742285,22.6715398 C91.8742285,22.6715398 94.2885282,20.9665042 96.1431841,20.9665042 C97.99784,20.9665042 99.9728289,22.3111775 99.9728289,22.3111775 L107.27685,26.4381529" id="Path-255" stroke="#5D6063" stroke-linecap="round" stroke-linejoin="round"></path>
        </g>
    </g>
</svg>