<?xml version="1.0" encoding="UTF-8" standalone="no"?>
<svg width="116px" height="92px" viewBox="0 0 116 92" version="1.1" xmlns="http://www.w3.org/2000/svg" xmlns:xlink="http://www.w3.org/1999/xlink">
    <!-- Generator: Sketch 39.1 (31720) - http://www.bohemiancoding.com/sketch -->
    <title>interneting-is-hard-logo</title>
    <desc>Created with Sketch.</desc>
    <defs></defs>
    <g id="Page-1" stroke="none" stroke-width="1" fill="none" fill-rule="evenodd">
        <g id="interneting-is-hard-logo">
            <g id="Group" transform="translate(1.000000, 1.000000)">
                <path d="M45.094768,13.6547726 C29.5609264,15.1915384 14.9561745,21.0046668 2.67895668,30.430057 C-0.0439012062,32.5204327 0.0649738732,35.2515403 2.15534958,37.9743982 C4.24572529,40.6972561 7.52601886,42.3807734 10.2488768,40.2903977 C20.6260903,32.3236671 32.9444041,27.3948516 46.0728905,26.0501898 C45.6921261,21.2403108 45.3482245,16.8850279 45.094768,13.6547726 L45.094768,13.6547726 Z M67.36013,26.0861452 C80.780248,27.5231946 93.3953845,32.6906134 103.959245,40.9556198 C106.66283,43.0708638 109.503975,41.3007759 111.619219,38.5971914 C113.734463,35.893607 114.322806,33.2803185 111.619221,31.1650746 C99.1443883,21.4049522 84.2111215,15.3234484 68.3415171,13.6897488 C68.0868761,16.924502 67.7418877,21.2793651 67.36013,26.0861452 L67.36013,26.0861452 Z" id="Combined-Shape" fill="#B2D6FF"></path>
                <path d="M61.1883396,64.5350399 C61.1883396,64.5350399 65.6752097,8.37584046 65.6752097,7.97203121 C65.6752097,3.46416374 61.6659191,0.402280772 56.7202083,0.402280772 C51.7744975,0.402280772 47.7652067,3.46416374 47.7652067,7.97203121 C47.7652067,8.37453275 52.2375863,64.5350399 52.2375863,64.5350399 C52.2375863,64.5350399 52.7637853,66.8672263 56.7202082,66.8672221 C60.6766311,66.8672179 61.1883396,64.5350399 61.1883396,64.5350399 Z" id="Combined-Shape-Copy" fill="#5995DA"></path>
                <path d="M47.3060097,41.5990672 C38.7572788,42.6328762 30.6687914,45.7260613 23.6402477,50.6005405 C20.8194946,52.5568067 21.3233222,55.7912995 23.2795884,58.6120527 C25.2358546,61.4328058 27.9037612,62.7716574 30.7245143,60.8153912 C35.9551238,57.1878265 41.9448287,54.8536895 48.2919253,54.0047356 C48.0028125,50.3693146 47.6616171,46.0769783 47.3060097,41.5990672 L47.3060097,41.5990672 Z M65.1388508,53.978189 C71.8589167,54.843526 78.1894989,57.37505 83.6455157,61.3376311 C86.4230017,63.3548561 89.3902518,61.9239415 91.4074769,59.1464555 C93.4247019,56.3689694 93.7280198,53.2966894 90.9505338,51.2794644 C83.651949,45.9786679 75.1410628,42.6314285 66.1277559,41.5752601 C65.771176,46.0508675 65.4289679,50.3419793 65.1388508,53.978189 L65.1388508,53.978189 Z" id="Combined-Shape" fill="#B2D6FF"></path>
                <ellipse id="Oval-2-Copy-34" fill="#5995DA" cx="56.7202082" cy="81.6554408" rx="7.7693812" ry="7.7693812"></ellipse>
            </g>
        </g>
    </g>
</svg>